<svg xmlns="http://www.w3.org/2000/svg" viewBox="0 0 475 315">
  <title>_</title>
  <g>
    <path d="M211,235.72c41.79,0,76.1,23.22,78.86,52.51H397.93V208.07c0-2.38,2.53-4.31,5.65-4.31,37.35,0,67.74-21.4,67.74-47.7s-30.39-47.71-67.74-47.71c-3.12,0-5.65-1.93-5.65-4.31,0,0,.15-35.65,0-39.07C232-12.81,52.63,26.25,28.9,171.37c-5.49,33.58-3.75,69.15,4,104.38l99.2,12.48C134.91,258.94,169.22,235.72,211,235.72Z" fill="#bf272e" opacity="0.5"/>
    <path d="M211,234.72c41.79,0,76.1,23.22,78.86,52.5H397.93V207.06c0-2.38,2.53-4.31,5.65-4.31,37.35,0,67.74-21.4,67.74-47.7s-30.39-47.7-67.74-47.7c-3.12,0-5.65-1.93-5.65-4.31,0,0,.15-35.66,0-39.08C232-13.82,52.63,25.24,28.9,170.37c-5.49,33.57-3.75,69.14,4,104.37l99.2,12.48C134.91,257.94,169.22,234.72,211,234.72Z" fill="#a71c20"/>
  </g>
</svg>
