<svg xmlns="http://www.w3.org/2000/svg" viewBox="0 0 237.02 171.02">
  <title>_</title>
  <g>
    <path d="M41.24,158.19a99.23,99.23,0,0,0,10.69-28c5.46-24.48,1.22-63.44-11.82-84.89L10.88,69.49A74.51,74.51,0,0,1,26.5,82.59c18.38,19.91,24.08,50.23,14.74,75.6Zm0,0" fill="#775039"/>
    <path d="M72.47,116.57c-.88-10.79,2-50.16,32.46-77.52,10.86-9.77,25.7-14.19,40-17.65a147,147,0,0,1,72.53,1c-6,19.41-17.11,49.76-32,63.85a123.12,123.12,0,0,1-53.4,29.6,124.77,124.77,0,0,1-59.6.77Zm0,0" fill="#a5c400"/>
  </g>
</svg>
