<svg xmlns="http://www.w3.org/2000/svg" viewBox="0 0 475 315">
  <title>_</title>
  <g>
    <path d="M392.36,145.44a6.4,6.4,0,0,1-.64,0,6.62,6.62,0,0,1-4-1.25,3.88,3.88,0,0,1-1.67-3.06V61H272.44a6.65,6.65,0,0,1-4-1.28,3.85,3.85,0,0,1-1.63-3.08,4.55,4.55,0,0,1,0-.52c-.07-26.27-30.43-47.62-67.74-47.62s-67.67,21.35-67.74,47.62c0,.2,0,.37,0,.54a3.89,3.89,0,0,1-1.64,3.07,6.69,6.69,0,0,1-4,1.27L28.27,48.49V44.63l-5.2-1.87v5.73h0C61.84,204.15,217.18,361.84,386,293.65V245.13a3.88,3.88,0,0,1,1.67-3.06,6.67,6.67,0,0,1,4-1.25c.23,0,.46,0,.68,0,37.32,0,67.71-21.4,67.71-47.7S429.71,145.44,392.36,145.44Z" fill="#bf272e" opacity="0.5"/>
    <path d="M387.69,236.33a6.67,6.67,0,0,1,4-1.25l.68,0c37.32,0,67.71-21.4,67.71-47.7s-30.39-47.7-67.74-47.7l-.64,0a6.55,6.55,0,0,1-4-1.25,3.88,3.88,0,0,1-1.67-3.06V55.22H272.44a6.71,6.71,0,0,1-4-1.27,3.85,3.85,0,0,1-1.63-3.08,4.73,4.73,0,0,1,0-.53c-.07-26.27-30.43-47.62-67.74-47.62s-67.67,21.35-67.74,47.62c0,.2,0,.37,0,.54A3.87,3.87,0,0,1,129.75,54a6.62,6.62,0,0,1-4,1.27L23.05,42.75C61.84,198.41,217.18,356.1,386,287.9V239.39A3.88,3.88,0,0,1,387.69,236.33Z" fill="#a71c20"/>
  </g>
</svg>
