<svg xmlns="http://www.w3.org/2000/svg" viewBox="0 0 80 70">
  <title>_</title>
  <g>
    <path d="M34.78,17.58a10.85,10.85,0,0,0,10.73,0v48.3c-3.39,2.62-6.92,3.27-10.73,0V17.58Z" fill="#fcb614" fill-rule="evenodd"/>
    <path d="M37.27,14.87A37,37,0,0,0,27,4.45l-4.62.67a58.06,58.06,0,0,1,14.91,9.75Z" fill="#fcb614" fill-rule="evenodd"/>
    <path d="M34.61,15.44A68.28,68.28,0,0,0,13.14,8.1l3-2a46.88,46.88,0,0,1,18.47,9.31Z" fill="#fcb614" fill-rule="evenodd"/>
    <path d="M43.45,14.87A37.22,37.22,0,0,1,53.75,4.45l4.62.67a58.31,58.31,0,0,0-14.92,9.75Z" fill="#fcb614" fill-rule="evenodd"/>
    <path d="M46.12,15.44A68.31,68.31,0,0,1,67.58,8.1l-3-2a46.91,46.91,0,0,0-18.46,9.31Z" fill="#fcb614" fill-rule="evenodd"/>
    <path d="M47.18,17.58V65.92a128.68,128.68,0,0,1,27.58-6.27V11.31a120,120,0,0,0-27.58,6.27Z" fill="#fcb614" fill-rule="evenodd"/>
    <path d="M32.67,17.58V65.92A128.68,128.68,0,0,0,5.09,59.65V11.31A120,120,0,0,1,32.67,17.58Z" fill="#fcb614" fill-rule="evenodd"/>
    <rect x="13.39" y="32.32" width="53.15" height="15.77" rx="2.6" ry="2.6" fill="#fff"/>
  </g>
</svg>
