<svg xmlns="http://www.w3.org/2000/svg" xmlns:xlink="http://www.w3.org/1999/xlink" viewBox="0 0 215 275">
  <defs>
    <linearGradient id="a" x1="125.68" y1="186.22" x2="101.97" y2="6.17" gradientUnits="userSpaceOnUse">
      <stop offset="0.73" stop-color="#fbf3a8"/>
      <stop offset="0.78" stop-color="#eae296"/>
      <stop offset="0.89" stop-color="#bfb766"/>
      <stop offset="0.9" stop-color="#bbb361"/>
    </linearGradient>
    <linearGradient id="b" x1="7735.39" y1="2879.28" x2="7736.48" y2="2879.28" gradientTransform="translate(-1760.09 8213.03) rotate(-97.22)" gradientUnits="userSpaceOnUse">
      <stop offset="0" stop-color="#fff"/>
      <stop offset="0.12" stop-color="#f0faff"/>
      <stop offset="0.35" stop-color="#d8f2ff"/>
      <stop offset="0.5" stop-color="#cfefff"/>
      <stop offset="0.72" stop-color="#e1f5ff"/>
      <stop offset="1" stop-color="#fff"/>
    </linearGradient>
    <linearGradient id="c" x1="7745.05" y1="2879.29" x2="7746.13" y2="2879.29" gradientTransform="translate(-2756.36 7912.6) rotate(-90)" xlink:href="#b"/>
    <linearGradient id="d" x1="7754.71" y1="2879.3" x2="7755.8" y2="2879.3" gradientTransform="matrix(0, -1, 1, 0, -2757.55, 7912.69)" xlink:href="#b"/>
    <linearGradient id="e" x1="7764.37" y1="2879.31" x2="7765.45" y2="2879.31" gradientTransform="translate(-2758.77 7912.76) rotate(-90)" xlink:href="#b"/>
    <linearGradient id="f" x1="7774.02" y1="2879.32" x2="7775.11" y2="2879.32" gradientTransform="translate(-2759.94 7912.85) rotate(-90)" xlink:href="#b"/>
    <linearGradient id="g" x1="7783.68" y1="2879.33" x2="7784.77" y2="2879.33" gradientTransform="translate(-2761.19 7912.91) rotate(-90)" xlink:href="#b"/>
    <linearGradient id="h" x1="7793.34" y1="2879.34" x2="7794.43" y2="2879.34" gradientTransform="translate(-2762.4 7912.99) rotate(-90)" xlink:href="#b"/>
    <linearGradient id="i" x1="7803" y1="2879.35" x2="7804.09" y2="2879.35" gradientTransform="translate(-2763.62 7913.06) rotate(-90)" xlink:href="#b"/>
    <linearGradient id="j" x1="7812.66" y1="2879.36" x2="7813.75" y2="2879.36" gradientTransform="translate(-2764.83 7913.14) rotate(-90)" xlink:href="#b"/>
    <linearGradient id="k" x1="7822.32" y1="2879.37" x2="7823.41" y2="2879.37" gradientTransform="translate(-2766.05 7913.21) rotate(-90)" xlink:href="#b"/>
    <linearGradient id="l" x1="7831.98" y1="2879.38" x2="7833.07" y2="2879.38" gradientTransform="matrix(0, -1, 1, 0, -2767.27, 7913.29)" xlink:href="#b"/>
    <linearGradient id="m" x1="7841.64" y1="2879.39" x2="7842.73" y2="2879.39" gradientTransform="translate(-2768.45 7913.37) rotate(-90)" xlink:href="#b"/>
    <linearGradient id="n" x1="7851.3" y1="2879.4" x2="7852.39" y2="2879.4" gradientTransform="translate(-2769.69 7913.44) rotate(-90)" xlink:href="#b"/>
    <linearGradient id="o" x1="7860.96" y1="2879.41" x2="7862.05" y2="2879.41" gradientTransform="translate(-2770.9 7913.52) rotate(-90)" xlink:href="#b"/>
    <linearGradient id="p" x1="7870.62" y1="2879.42" x2="7871.7" y2="2879.42" gradientTransform="translate(-2772.12 7913.59) rotate(-90)" xlink:href="#b"/>
    <linearGradient id="q" x1="7879.73" y1="2879.43" x2="7880.81" y2="2879.43" gradientTransform="translate(-1760.09 8213.03) rotate(-97.22)" gradientUnits="userSpaceOnUse">
      <stop offset="0.1" stop-color="#fff"/>
      <stop offset="0.2" stop-color="#f0faff"/>
      <stop offset="0.38" stop-color="#d8f2ff"/>
      <stop offset="0.5" stop-color="#cfefff"/>
      <stop offset="0.68" stop-color="#e1f5ff"/>
      <stop offset="0.9" stop-color="#fff"/>
    </linearGradient>
    <linearGradient id="r" x1="7888.29" y1="2941.33" x2="7889.38" y2="2941.33" gradientTransform="translate(-1760.09 8213.03) rotate(-97.22)" gradientUnits="userSpaceOnUse">
      <stop offset="0.2" stop-color="#fff"/>
      <stop offset="0.27" stop-color="#f0faff"/>
      <stop offset="0.41" stop-color="#d8f2ff"/>
      <stop offset="0.5" stop-color="#cfefff"/>
      <stop offset="0.63" stop-color="#e1f5ff"/>
      <stop offset="0.8" stop-color="#fff"/>
    </linearGradient>
    <clipPath id="s">
      <path d="M186.87,13.44l-164,25.91h0l19.56,157,165.69-21s-18.37-145-19.61-154.87C187.84,15.47,187.32,13.38,186.87,13.44Z" fill="none"/>
    </clipPath>
    <linearGradient id="t" x1="5207.17" y1="7450.46" x2="5207.93" y2="7450.46" gradientTransform="matrix(0, -1.42, -1.42, 0, 10665.87, 7642.79)" gradientUnits="userSpaceOnUse">
      <stop offset="0" stop-color="#fbf3a0"/>
      <stop offset="0.13" stop-color="#ebeea0"/>
      <stop offset="0.36" stop-color="#d4e7a0"/>
      <stop offset="0.5" stop-color="#cce4a0"/>
      <stop offset="0.7" stop-color="#dce9a0"/>
      <stop offset="1" stop-color="#fbf3a0"/>
    </linearGradient>
    <linearGradient id="u" x1="5205.07" y1="7450.46" x2="5205.83" y2="7450.46" gradientTransform="matrix(0, -1.42, -1.42, 0, 10665.87, 7630.16)" xlink:href="#t"/>
    <linearGradient id="v" x1="5202.97" y1="7450.46" x2="5203.74" y2="7450.46" gradientTransform="matrix(0, -1.42, -1.42, 0, 10665.87, 7617.52)" xlink:href="#t"/>
    <linearGradient id="w" x1="5181.29" y1="7450.46" x2="5182.06" y2="7450.46" gradientTransform="matrix(0, -1.42, -1.42, 0, 10665.87, 7604.89)" xlink:href="#t"/>
    <linearGradient id="x" x1="5179.2" y1="7450.46" x2="5179.96" y2="7450.46" gradientTransform="matrix(0, -1.42, -1.42, 0, 10665.87, 7592.26)" xlink:href="#t"/>
    <linearGradient id="y" x1="5177.1" y1="7450.46" x2="5177.87" y2="7450.46" gradientTransform="matrix(0, -1.42, -1.42, 0, 10665.87, 7579.62)" xlink:href="#t"/>
    <linearGradient id="z" x1="5175" y1="7450.46" x2="5175.77" y2="7450.46" gradientTransform="matrix(0, -1.42, -1.42, 0, 10665.87, 7566.99)" xlink:href="#t"/>
    <linearGradient id="aa" x1="5172.91" y1="7450.46" x2="5173.67" y2="7450.46" gradientTransform="matrix(0, -1.42, -1.42, 0, 10665.87, 7554.35)" xlink:href="#t"/>
    <linearGradient id="ab" x1="5170.81" y1="7450.46" x2="5171.57" y2="7450.46" gradientTransform="matrix(0, -1.42, -1.42, 0, 10665.87, 7541.72)" xlink:href="#t"/>
    <linearGradient id="ac" x1="5168.71" y1="7450.46" x2="5169.48" y2="7450.46" gradientTransform="matrix(0, -1.42, -1.42, 0, 10665.87, 7529.08)" xlink:href="#t"/>
    <linearGradient id="ad" x1="5166.62" y1="7450.46" x2="5167.38" y2="7450.46" gradientTransform="matrix(0, -1.42, -1.42, 0, 10665.87, 7516.44)" xlink:href="#t"/>
    <linearGradient id="ae" x1="5164.52" y1="7450.46" x2="5165.28" y2="7450.46" gradientTransform="matrix(0, -1.42, -1.42, 0, 10665.87, 7503.81)" xlink:href="#t"/>
    <linearGradient id="af" x1="5162.42" y1="7450.46" x2="5163.18" y2="7450.46" gradientTransform="matrix(0, -1.42, -1.42, 0, 10665.87, 7491.17)" xlink:href="#t"/>
    <linearGradient id="ag" x1="5160.32" y1="7450.46" x2="5161.09" y2="7450.46" gradientTransform="matrix(0, -1.42, -1.42, 0, 10665.87, 7478.54)" xlink:href="#t"/>
    <linearGradient id="ah" x1="5158.23" y1="7450.46" x2="5158.99" y2="7450.46" gradientTransform="matrix(0, -1.42, -1.42, 0, 10665.87, 7465.91)" xlink:href="#t"/>
    <linearGradient id="ai" x1="5156.13" y1="7450.46" x2="5156.9" y2="7450.46" gradientTransform="matrix(0, -1.42, -1.42, 0, 10665.87, 7453.27)" xlink:href="#t"/>
    <linearGradient id="aj" x1="5154.03" y1="7450.46" x2="5154.8" y2="7450.46" gradientTransform="matrix(0, -1.42, -1.42, 0, 10665.87, 7440.64)" xlink:href="#t"/>
    <linearGradient id="ak" x1="5151.94" y1="7450.46" x2="5152.7" y2="7450.46" gradientTransform="matrix(0, -1.42, -1.42, 0, 10665.87, 7428)" xlink:href="#t"/>
    <linearGradient id="al" x1="5149.84" y1="7450.46" x2="5150.6" y2="7450.46" gradientTransform="matrix(0, -1.42, -1.42, 0, 10665.87, 7415.37)" xlink:href="#t"/>
    <linearGradient id="am" x1="5147.74" y1="7450.46" x2="5148.51" y2="7450.46" gradientTransform="matrix(0, -1.42, -1.42, 0, 10665.87, 7402.73)" xlink:href="#t"/>
    <linearGradient id="an" x1="5145.64" y1="7450.46" x2="5146.41" y2="7450.46" gradientTransform="matrix(0, -1.42, -1.42, 0, 10665.87, 7390.1)" xlink:href="#t"/>
    <linearGradient id="ao" x1="5143.55" y1="7450.46" x2="5144.31" y2="7450.46" gradientTransform="matrix(0, -1.42, -1.42, 0, 10665.87, 7377.46)" xlink:href="#t"/>
    <linearGradient id="ap" x1="5369.57" y1="156.58" x2="5370.93" y2="156.58" gradientTransform="matrix(-1, 0, 0, 1, 5406.21, 0)" gradientUnits="userSpaceOnUse">
      <stop offset="0" stop-color="#fff"/>
      <stop offset="0.12" stop-color="#fff0f0"/>
      <stop offset="0.35" stop-color="#ffd8d8"/>
      <stop offset="0.5" stop-color="#ffcfcf"/>
      <stop offset="0.72" stop-color="#ffe1e1"/>
      <stop offset="1" stop-color="#fff"/>
    </linearGradient>
    <linearGradient id="aq" x1="5367.32" y1="156.58" x2="5368.68" y2="156.58" xlink:href="#ap"/>
    <linearGradient id="ar" x1="725.9" y1="6453.09" x2="738.12" y2="6452.99" gradientTransform="translate(6569.33 -458.41) rotate(91.96)" gradientUnits="userSpaceOnUse">
      <stop offset="0.28" stop-color="#fff"/>
      <stop offset="1" stop-color="#fff"/>
    </linearGradient>
    <linearGradient id="as" x1="725.9" y1="6453.06" x2="738.12" y2="6452.97" gradientTransform="translate(6569.33 -458.41) rotate(91.96)" gradientUnits="userSpaceOnUse">
      <stop offset="0.28" stop-color="#f6f5ee"/>
      <stop offset="0.29" stop-color="#f6f5ee"/>
      <stop offset="0.65" stop-color="#fdfdfb"/>
      <stop offset="1" stop-color="#fff"/>
    </linearGradient>
    <linearGradient id="at" x1="725.9" y1="6453.04" x2="738.12" y2="6452.94" gradientTransform="translate(6569.33 -458.41) rotate(91.96)" gradientUnits="userSpaceOnUse">
      <stop offset="0.28" stop-color="#edebdc"/>
      <stop offset="0.51" stop-color="#f6f6ee"/>
      <stop offset="0.76" stop-color="#fdfdfb"/>
      <stop offset="1" stop-color="#fff"/>
    </linearGradient>
    <linearGradient id="au" x1="725.9" y1="6453.01" x2="738.12" y2="6452.92" gradientTransform="translate(6569.33 -458.41) rotate(91.96)" gradientUnits="userSpaceOnUse">
      <stop offset="0.28" stop-color="#e4e2cb"/>
      <stop offset="0.4" stop-color="#eceada"/>
      <stop offset="0.6" stop-color="#f6f6ee"/>
      <stop offset="0.8" stop-color="#fdfdfb"/>
      <stop offset="1" stop-color="#fff"/>
    </linearGradient>
    <linearGradient id="av" x1="725.9" y1="6452.99" x2="738.12" y2="6452.89" gradientTransform="translate(6569.33 -458.41) rotate(91.96)" gradientUnits="userSpaceOnUse">
      <stop offset="0.28" stop-color="#dbd8ba"/>
      <stop offset="0.3" stop-color="#dcdabd"/>
      <stop offset="0.48" stop-color="#eceada"/>
      <stop offset="0.66" stop-color="#f6f6ee"/>
      <stop offset="0.83" stop-color="#fdfdfb"/>
      <stop offset="1" stop-color="#fff"/>
    </linearGradient>
    <linearGradient id="aw" x1="725.9" y1="6452.97" x2="738.12" y2="6452.87" gradientTransform="translate(6569.33 -458.41) rotate(91.96)" gradientUnits="userSpaceOnUse">
      <stop offset="0.28" stop-color="#d2cea9"/>
      <stop offset="0.38" stop-color="#dcd9bd"/>
      <stop offset="0.53" stop-color="#ebeada"/>
      <stop offset="0.69" stop-color="#f6f6ee"/>
      <stop offset="0.85" stop-color="#fdfdfb"/>
      <stop offset="1" stop-color="#fff"/>
    </linearGradient>
    <linearGradient id="ax" x1="725.9" y1="6452.94" x2="738.12" y2="6452.84" gradientTransform="translate(6569.33 -458.41) rotate(91.96)" gradientUnits="userSpaceOnUse">
      <stop offset="0.28" stop-color="#c8c497"/>
      <stop offset="0.29" stop-color="#c8c498"/>
      <stop offset="0.43" stop-color="#dcd9bd"/>
      <stop offset="0.58" stop-color="#ebeada"/>
      <stop offset="0.72" stop-color="#f6f6ee"/>
      <stop offset="0.86" stop-color="#fdfdfb"/>
      <stop offset="1" stop-color="#fff"/>
    </linearGradient>
    <linearGradient id="ay" x1="725.9" y1="6452.92" x2="738.12" y2="6452.82" gradientTransform="translate(6569.33 -458.41) rotate(91.96)" gradientUnits="userSpaceOnUse">
      <stop offset="0.28" stop-color="#bfba86"/>
      <stop offset="0.34" stop-color="#c8c498"/>
      <stop offset="0.47" stop-color="#dcd9bd"/>
      <stop offset="0.61" stop-color="#ebeada"/>
      <stop offset="0.74" stop-color="#f6f6ee"/>
      <stop offset="0.87" stop-color="#fdfdfb"/>
      <stop offset="1" stop-color="#fff"/>
    </linearGradient>
    <linearGradient id="az" x1="725.9" y1="6452.89" x2="738.12" y2="6452.79" gradientTransform="translate(6569.33 -458.41) rotate(91.96)" gradientUnits="userSpaceOnUse">
      <stop offset="0.28" stop-color="#b6b075"/>
      <stop offset="0.38" stop-color="#c8c498"/>
      <stop offset="0.51" stop-color="#dcd9bd"/>
      <stop offset="0.64" stop-color="#ebeada"/>
      <stop offset="0.76" stop-color="#f6f5ee"/>
      <stop offset="0.88" stop-color="#fdfdfb"/>
      <stop offset="1" stop-color="#fff"/>
    </linearGradient>
    <linearGradient id="ba" x1="725.9" y1="6452.87" x2="738.12" y2="6452.77" gradientTransform="translate(6569.33 -458.41) rotate(91.96)" gradientUnits="userSpaceOnUse">
      <stop offset="0.28" stop-color="#ada764"/>
      <stop offset="0.3" stop-color="#b0aa6a"/>
      <stop offset="0.42" stop-color="#c8c497"/>
      <stop offset="0.54" stop-color="#dcd9bd"/>
      <stop offset="0.66" stop-color="#ebeada"/>
      <stop offset="0.77" stop-color="#f6f6ee"/>
      <stop offset="0.89" stop-color="#fdfdfb"/>
      <stop offset="1" stop-color="#fff"/>
    </linearGradient>
    <linearGradient id="bb" x1="725.9" y1="6452.84" x2="738.12" y2="6452.74" gradientTransform="translate(6569.33 -458.41) rotate(91.96)" gradientUnits="userSpaceOnUse">
      <stop offset="0.28" stop-color="#a49d52"/>
      <stop offset="0.34" stop-color="#b1ab6a"/>
      <stop offset="0.45" stop-color="#c8c497"/>
      <stop offset="0.56" stop-color="#dcd9bd"/>
      <stop offset="0.68" stop-color="#ebeada"/>
      <stop offset="0.79" stop-color="#f6f6ee"/>
      <stop offset="0.89" stop-color="#fdfdfb"/>
      <stop offset="1" stop-color="#fff"/>
    </linearGradient>
    <linearGradient id="bc" x1="725.9" y1="6452.82" x2="738.12" y2="6452.72" gradientTransform="translate(6569.33 -458.41) rotate(91.96)" gradientUnits="userSpaceOnUse">
      <stop offset="0.28" stop-color="#9b9341"/>
      <stop offset="0.37" stop-color="#b1aa6a"/>
      <stop offset="0.48" stop-color="#c8c497"/>
      <stop offset="0.58" stop-color="#dcd9bd"/>
      <stop offset="0.69" stop-color="#ebeada"/>
      <stop offset="0.8" stop-color="#f6f6ee"/>
      <stop offset="0.9" stop-color="#fdfdfb"/>
      <stop offset="1" stop-color="#fff"/>
    </linearGradient>
    <linearGradient id="bd" x1="13.81" y1="49.9" x2="14.37" y2="17.61" gradientUnits="userSpaceOnUse">
      <stop offset="0" stop-color="#d7cf7d"/>
      <stop offset="0.04" stop-color="#d4cc7a"/>
      <stop offset="0.2" stop-color="#cbc371"/>
      <stop offset="0.37" stop-color="#e0d886"/>
      <stop offset="0.58" stop-color="#f4ec9a"/>
      <stop offset="0.72" stop-color="#fbf3a1"/>
      <stop offset="0.91" stop-color="#f8f09e"/>
      <stop offset="1" stop-color="#f3eb99"/>
    </linearGradient>
    <linearGradient id="be" x1="19.17" y1="49.99" x2="19.73" y2="17.47" xlink:href="#bd"/>
    <linearGradient id="bf" x1="24.44" y1="50.09" x2="25.01" y2="17.34" xlink:href="#bd"/>
    <linearGradient id="bg" x1="29.76" y1="50.18" x2="30.33" y2="17.21" xlink:href="#bd"/>
    <linearGradient id="bh" x1="35.07" y1="50.27" x2="35.65" y2="17.07" xlink:href="#bd"/>
    <linearGradient id="bi" x1="40.39" y1="50.36" x2="40.97" y2="16.93" xlink:href="#bd"/>
    <linearGradient id="bj" x1="45.71" y1="50.44" x2="46.3" y2="16.79" xlink:href="#bd"/>
    <linearGradient id="bk" x1="51.03" y1="50.53" x2="51.62" y2="16.65" xlink:href="#bd"/>
    <linearGradient id="bl" x1="56.34" y1="50.62" x2="56.94" y2="16.51" xlink:href="#bd"/>
    <linearGradient id="bm" x1="61.66" y1="50.71" x2="62.26" y2="16.38" xlink:href="#bd"/>
    <linearGradient id="bn" x1="66.98" y1="50.8" x2="67.58" y2="16.24" xlink:href="#bd"/>
    <linearGradient id="bo" x1="72.3" y1="50.88" x2="72.91" y2="16.1" xlink:href="#bd"/>
    <linearGradient id="bp" x1="77.62" y1="50.97" x2="78.23" y2="15.96" xlink:href="#bd"/>
    <linearGradient id="bq" x1="82.94" y1="51.06" x2="83.55" y2="15.82" xlink:href="#bd"/>
    <linearGradient id="br" x1="88.26" y1="51.15" x2="88.88" y2="15.68" xlink:href="#bd"/>
    <linearGradient id="bs" x1="93.58" y1="51.24" x2="94.2" y2="15.54" xlink:href="#bd"/>
    <linearGradient id="bt" x1="98.95" y1="51.32" x2="99.57" y2="15.41" xlink:href="#bd"/>
    <linearGradient id="bu" x1="104.26" y1="51.41" x2="104.89" y2="15.27" xlink:href="#bd"/>
    <linearGradient id="bv" x1="109.58" y1="51.5" x2="110.21" y2="15.13" xlink:href="#bd"/>
    <linearGradient id="bw" x1="114.89" y1="51.58" x2="115.53" y2="14.99" xlink:href="#bd"/>
    <linearGradient id="bx" x1="120.21" y1="51.67" x2="120.85" y2="14.85" xlink:href="#bd"/>
    <linearGradient id="by" x1="125.52" y1="51.76" x2="126.17" y2="14.71" xlink:href="#bd"/>
    <linearGradient id="bz" x1="130.84" y1="51.84" x2="131.49" y2="14.57" xlink:href="#bd"/>
    <linearGradient id="ca" x1="136.16" y1="51.93" x2="136.81" y2="14.43" xlink:href="#bd"/>
    <linearGradient id="cb" x1="141.47" y1="52.02" x2="142.13" y2="14.29" xlink:href="#bd"/>
    <linearGradient id="cc" x1="146.79" y1="52.1" x2="147.45" y2="14.15" xlink:href="#bd"/>
    <linearGradient id="cd" x1="152.1" y1="52.19" x2="152.77" y2="14.01" xlink:href="#bd"/>
    <linearGradient id="ce" x1="157.42" y1="52.28" x2="158.09" y2="13.87" xlink:href="#bd"/>
    <linearGradient id="cf" x1="162.73" y1="52.36" x2="163.41" y2="13.73" xlink:href="#bd"/>
    <linearGradient id="cg" x1="168.05" y1="52.45" x2="168.73" y2="13.59" xlink:href="#bd"/>
    <linearGradient id="ch" x1="173.4" y1="52.54" x2="174.09" y2="13.45" xlink:href="#bd"/>
    <linearGradient id="ci" x1="178.68" y1="52.62" x2="179.37" y2="13.31" xlink:href="#bd"/>
    <linearGradient id="cj" x1="81.68" y1="46.74" x2="81.78" y2="45.65" gradientTransform="matrix(1, 0, 0, 1, 0, 0)" xlink:href="#q"/>
    <linearGradient id="ck" x1="95.1" y1="39.3" x2="95.19" y2="38.21" gradientTransform="matrix(1, 0, 0, 1, 0, 0)" xlink:href="#b"/>
    <linearGradient id="cl" x1="96.46" y1="30.27" x2="96.56" y2="29.18" gradientTransform="matrix(1, 0, 0, 1, 0, 0)" xlink:href="#b"/>
    <linearGradient id="cm" x1="119.21" y1="22.52" x2="119.3" y2="21.43" gradientTransform="matrix(1, 0, 0, 1, 0, 0)" xlink:href="#q"/>
    <linearGradient id="cn" x1="159.75" y1="17.18" x2="159.85" y2="16.1" gradientTransform="matrix(1, 0, 0, 1, 0, 0)" xlink:href="#r"/>
    <clipPath id="co">
      <path d="M41.76,17.22l-1,0c-2.36.07-4.12,7.65-4.89,15.8C35,42.56,35.43,50.25,37,50.28l.95,0c-1.57,0-1.88-7.7-1-17.25C37.77,24.89,39.41,17.3,41.76,17.22Z" fill="none"/>
    </clipPath>
    <linearGradient id="cp" x1="38.11" y1="50.34" x2="38.11" y2="17.19" gradientUnits="userSpaceOnUse">
      <stop offset="0" stop-color="#fff"/>
      <stop offset="0.06" stop-color="#fff"/>
      <stop offset="0.7" stop-color="#fff"/>
      <stop offset="0.97" stop-color="#fff"/>
      <stop offset="1" stop-color="#fff"/>
    </linearGradient>
    <linearGradient id="cq" x1="38.15" y1="50.34" x2="38.15" y2="17.19" gradientUnits="userSpaceOnUse">
      <stop offset="0" stop-color="#fffcfc"/>
      <stop offset="0.63" stop-color="#fffbfb"/>
      <stop offset="0.69" stop-color="#fffbfb"/>
      <stop offset="0.7" stop-color="#fffbfb"/>
      <stop offset="1" stop-color="#fffefe"/>
    </linearGradient>
    <linearGradient id="cr" x1="38.19" y1="50.35" x2="38.19" y2="17.18" gradientUnits="userSpaceOnUse">
      <stop offset="0" stop-color="#fff9f9"/>
      <stop offset="0.63" stop-color="#fff6f6"/>
      <stop offset="0.69" stop-color="#fff6f6"/>
      <stop offset="0.7" stop-color="#fff6f6"/>
      <stop offset="0.93" stop-color="#fff9f9"/>
      <stop offset="1" stop-color="#fffcfc"/>
    </linearGradient>
    <linearGradient id="cs" x1="38.23" y1="50.35" x2="38.23" y2="17.18" gradientUnits="userSpaceOnUse">
      <stop offset="0" stop-color="#fff6f6"/>
      <stop offset="0.06" stop-color="#fff5f5"/>
      <stop offset="0.63" stop-color="#fff2f2"/>
      <stop offset="0.69" stop-color="#fff2f2"/>
      <stop offset="0.7" stop-color="#fff2f2"/>
      <stop offset="0.9" stop-color="#fff5f5"/>
      <stop offset="1" stop-color="#fffbfb"/>
    </linearGradient>
    <linearGradient id="ct" x1="38.28" y1="50.36" x2="38.28" y2="17.17" gradientUnits="userSpaceOnUse">
      <stop offset="0" stop-color="#fff3f3"/>
      <stop offset="0.11" stop-color="#fff1f1"/>
      <stop offset="0.63" stop-color="#fee"/>
      <stop offset="0.69" stop-color="#fee"/>
      <stop offset="0.7" stop-color="#fee"/>
      <stop offset="0.88" stop-color="#fff1f1"/>
      <stop offset="1" stop-color="#fff9f9"/>
    </linearGradient>
    <linearGradient id="cu" x1="38.32" y1="50.36" x2="38.32" y2="17.16" gradientUnits="userSpaceOnUse">
      <stop offset="0" stop-color="#fff0f0"/>
      <stop offset="0.17" stop-color="#ffecec"/>
      <stop offset="0.63" stop-color="#ffe9e9"/>
      <stop offset="0.7" stop-color="#ffeaea"/>
      <stop offset="0.86" stop-color="#ffeded"/>
      <stop offset="0.99" stop-color="#fff7f7"/>
      <stop offset="1" stop-color="#fff8f8"/>
    </linearGradient>
    <linearGradient id="cv" x1="38.36" y1="50.37" x2="38.36" y2="17.16" gradientUnits="userSpaceOnUse">
      <stop offset="0" stop-color="#fee"/>
      <stop offset="0.22" stop-color="#ffe8e8"/>
      <stop offset="0.63" stop-color="#ffe5e5"/>
      <stop offset="0.69" stop-color="#ffe5e5"/>
      <stop offset="0.7" stop-color="#ffe5e5"/>
      <stop offset="0.85" stop-color="#ffe8e8"/>
      <stop offset="0.97" stop-color="#fff2f2"/>
      <stop offset="1" stop-color="#fff6f6"/>
    </linearGradient>
    <linearGradient id="cw" x1="38.4" y1="50.38" x2="38.4" y2="17.15" gradientUnits="userSpaceOnUse">
      <stop offset="0" stop-color="#ffebeb"/>
      <stop offset="0.25" stop-color="#ffe3e3"/>
      <stop offset="0.63" stop-color="#ffe0e0"/>
      <stop offset="0.7" stop-color="#ffe1e1"/>
      <stop offset="0.84" stop-color="#ffe4e4"/>
      <stop offset="0.95" stop-color="#fee"/>
      <stop offset="1" stop-color="#fff5f5"/>
    </linearGradient>
    <linearGradient id="cx" x1="38.44" y1="50.38" x2="38.44" y2="17.14" gradientUnits="userSpaceOnUse">
      <stop offset="0" stop-color="#ffe8e8"/>
      <stop offset="0.26" stop-color="#ffdfdf"/>
      <stop offset="0.63" stop-color="#ffdcdc"/>
      <stop offset="0.7" stop-color="#fdd"/>
      <stop offset="0.83" stop-color="#ffe0e0"/>
      <stop offset="0.94" stop-color="#ffeaea"/>
      <stop offset="1" stop-color="#fff3f3"/>
    </linearGradient>
    <linearGradient id="cy" x1="38.49" y1="50.39" x2="38.49" y2="17.14" gradientUnits="userSpaceOnUse">
      <stop offset="0" stop-color="#ffe5e5"/>
      <stop offset="0.28" stop-color="#ffdbdb"/>
      <stop offset="0.63" stop-color="#ffd8d8"/>
      <stop offset="0.7" stop-color="#ffd9d9"/>
      <stop offset="0.83" stop-color="#ffdcdc"/>
      <stop offset="0.93" stop-color="#ffe6e6"/>
      <stop offset="1" stop-color="#fff2f2"/>
    </linearGradient>
    <linearGradient id="cz" x1="38.53" y1="50.39" x2="38.53" y2="17.13" gradientUnits="userSpaceOnUse">
      <stop offset="0" stop-color="#ffe2e2"/>
      <stop offset="0.03" stop-color="#ffe0e0"/>
      <stop offset="0.3" stop-color="#ffd6d6"/>
      <stop offset="0.63" stop-color="#ffd3d3"/>
      <stop offset="0.7" stop-color="#ffd4d4"/>
      <stop offset="0.82" stop-color="#ffd7d7"/>
      <stop offset="0.92" stop-color="#ffe1e1"/>
      <stop offset="1" stop-color="#fff0f0"/>
    </linearGradient>
    <linearGradient id="da" x1="38.57" y1="50.4" x2="38.57" y2="17.13" gradientUnits="userSpaceOnUse">
      <stop offset="0" stop-color="#ffdfdf"/>
      <stop offset="0.05" stop-color="#ffdcdc"/>
      <stop offset="0.3" stop-color="#ffd2d2"/>
      <stop offset="0.63" stop-color="#ffcfcf"/>
      <stop offset="0.77" stop-color="#ffd2d2"/>
      <stop offset="0.88" stop-color="#ffdcdc"/>
      <stop offset="0.99" stop-color="#ffeded"/>
      <stop offset="1" stop-color="#ffefef"/>
    </linearGradient>
    <linearGradient id="db" x1="39.09" y1="50.35" x2="39.09" y2="17.17" xlink:href="#cp"/>
    <linearGradient id="dc" x1="39.04" y1="50.36" x2="39.04" y2="17.17" xlink:href="#cq"/>
    <linearGradient id="dd" x1="38.99" y1="50.36" x2="38.99" y2="17.16" xlink:href="#cr"/>
    <linearGradient id="de" x1="38.94" y1="50.36" x2="38.94" y2="17.16" xlink:href="#cs"/>
    <linearGradient id="df" x1="38.9" y1="50.37" x2="38.9" y2="17.15" xlink:href="#ct"/>
    <linearGradient id="dg" x1="38.85" y1="50.37" x2="38.85" y2="17.15" xlink:href="#cu"/>
    <linearGradient id="dh" x1="38.8" y1="50.38" x2="38.8" y2="17.15" xlink:href="#cv"/>
    <linearGradient id="di" x1="38.76" y1="50.38" x2="38.76" y2="17.14" xlink:href="#cw"/>
    <linearGradient id="dj" x1="38.71" y1="50.39" x2="38.71" y2="17.14" xlink:href="#cx"/>
    <linearGradient id="dk" x1="38.66" y1="50.39" x2="38.66" y2="17.13" xlink:href="#cy"/>
    <linearGradient id="dl" x1="38.62" y1="50.39" x2="38.62" y2="17.13" xlink:href="#cz"/>
    <clipPath id="dn">
      <path d="M39.39,17.29l-1,0C36,17.39,34.26,25,33.48,33.06c-.88,9.39-.45,17.15,1.21,17.18l1,0c-1.64,0-2-7.76-1.07-17.2C35.35,24.93,37,17.36,39.39,17.29Z" fill="none"/>
    </clipPath>
    <linearGradient id="do" x1="35.72" y1="50.3" x2="35.72" y2="17.26" xlink:href="#cp"/>
    <linearGradient id="dp" x1="35.76" y1="50.3" x2="35.76" y2="17.25" xlink:href="#cq"/>
    <linearGradient id="dq" x1="35.8" y1="50.31" x2="35.8" y2="17.24" xlink:href="#cr"/>
    <linearGradient id="dr" x1="35.84" y1="50.32" x2="35.84" y2="17.24" xlink:href="#cs"/>
    <linearGradient id="ds" x1="35.88" y1="50.32" x2="35.88" y2="17.23" xlink:href="#ct"/>
    <linearGradient id="dt" x1="35.93" y1="50.33" x2="35.93" y2="17.23" xlink:href="#cu"/>
    <linearGradient id="du" x1="35.97" y1="50.33" x2="35.97" y2="17.22" xlink:href="#cv"/>
    <linearGradient id="dv" x1="36.01" y1="50.34" x2="36.01" y2="17.21" xlink:href="#cw"/>
    <linearGradient id="dw" x1="36.05" y1="50.34" x2="36.05" y2="17.21" xlink:href="#cx"/>
    <linearGradient id="dx" x1="36.1" y1="50.35" x2="36.1" y2="17.2" xlink:href="#cy"/>
    <linearGradient id="dy" x1="36.14" y1="50.35" x2="36.14" y2="17.2" xlink:href="#cz"/>
    <linearGradient id="dz" x1="36.18" y1="50.36" x2="36.18" y2="17.19" xlink:href="#da"/>
    <linearGradient id="ea" x1="36.7" y1="50.31" x2="36.7" y2="17.23" xlink:href="#cp"/>
    <linearGradient id="eb" x1="36.65" y1="50.32" x2="36.65" y2="17.23" xlink:href="#cq"/>
    <linearGradient id="ec" x1="36.6" y1="50.32" x2="36.6" y2="17.22" xlink:href="#cr"/>
    <linearGradient id="ed" x1="36.55" y1="50.33" x2="36.55" y2="17.22" xlink:href="#cs"/>
    <linearGradient id="ee" x1="36.51" y1="50.33" x2="36.51" y2="17.22" xlink:href="#ct"/>
    <linearGradient id="ef" x1="36.46" y1="50.33" x2="36.46" y2="17.21" xlink:href="#cu"/>
    <linearGradient id="eg" x1="36.41" y1="50.34" x2="36.41" y2="17.21" xlink:href="#cv"/>
    <linearGradient id="eh" x1="36.37" y1="50.34" x2="36.37" y2="17.2" xlink:href="#cw"/>
    <linearGradient id="ei" x1="36.32" y1="50.35" x2="36.32" y2="17.2" xlink:href="#cx"/>
    <linearGradient id="ej" x1="36.27" y1="50.35" x2="36.27" y2="17.2" xlink:href="#cy"/>
    <linearGradient id="ek" x1="36.22" y1="50.36" x2="36.22" y2="17.19" xlink:href="#cz"/>
  </defs>
  <title>_</title>
  <g style="isolation: isolate">
    <g>
      <g style="mix-blend-mode: multiply">
        <path d="M82.31,114.6C15.56,218.78,8.86,263.46,8.86,263.46l3.89,2.59h171.5s0-142.56,0-200c0-2.46-.2-6.11,2.79-6.88s15-6,12.28-23.63c-1.39-9-8.47-17-12.45-16.73C186.87,18.86,149.06,10.42,82.31,114.6Z" fill="#fff"/>
        <path d="M12.62,266H184.11s0-144.75,0-200.3c0-2.38-.16-5.91,2.73-6.65s14.61-5.89,12-23.47c-1.32-9-8.15-16.81-12-16.51,0,0-37.81-8.61-104.56,95.57S8.86,263.46,8.86,263.46Z" fill="#fcfcfc"/>
        <path d="M12.5,265.88H184s0-147,0-200.65c0-2.3-.13-5.71,2.66-6.43S200.84,53,198.36,35.48c-1.25-9.07-7.82-16.57-11.49-16.29,0,0-37.81-8.77-104.56,95.41S8.86,263.46,8.86,263.46Z" fill="#f9f9f9"/>
        <path d="M12.37,265.8H183.83s0-149.16,0-201c0-2.22-.1-5.51,2.6-6.2,2.87-.69,13.75-5.66,11.45-23.16-1.2-9.13-7.5-16.34-11-16.07,0,0-37.81-8.94-104.56,95.24S8.86,263.46,8.86,263.46Z" fill="#f6f6f6"/>
        <path d="M12.24,265.71H183.69s0-151.36,0-201.35c0-2.14-.07-5.32,2.54-6,2.84-.66,13.32-5.54,11.17-23-1.14-9.19-7.18-16.11-10.53-15.86,0,0-37.81-9.1-104.56,95.08S8.86,263.46,8.86,263.46Z" fill="#f3f3f3"/>
        <path d="M12.12,265.63H183.55s0-153.57,0-201.7c0-2.07,0-5.13,2.47-5.77,2.82-.63,12.91-5.43,10.9-22.83-1.07-9.25-6.86-15.88-10-15.64,0,0-37.81-9.27-104.56,94.91S8.86,263.46,8.86,263.46Z" fill="#f0f0f0"/>
        <path d="M12,265.55H183.41s0-155.77,0-202.06c0-2,0-4.92,2.4-5.54,2.79-.61,12.49-5.32,10.62-22.68-1-9.3-6.54-15.64-9.57-15.41,0,0-37.81-9.44-104.56,94.74S8.86,263.46,8.86,263.46Z" fill="#ececec"/>
        <path d="M11.87,265.46H183.28s0-158,0-202.4c0-1.91,0-4.73,2.34-5.32,2.75-.59,12.07-5.21,10.34-22.52-.94-9.36-6.21-15.41-9.09-15.2,0,0-37.81-9.6-104.56,94.58S8.86,263.46,8.86,263.46Z" fill="#e9e9e9"/>
        <path d="M11.74,265.38h171.4s0-160.17,0-202.76c0-1.82.06-4.53,2.27-5.09,2.73-.56,11.66-5.1,10.07-22.36-.87-9.42-5.89-15.18-8.61-15,0,0-37.81-9.77-104.56,94.41S8.86,263.46,8.86,263.46Z" fill="#e6e6e6"/>
        <path d="M11.62,265.3H183s0-162.38,0-203.11c0-1.75.09-4.33,2.21-4.88,2.7-.53,11.24-5,9.78-22.2-.8-9.47-5.56-14.94-8.12-14.76,0,0-37.81-9.93-104.56,94.25S8.86,263.46,8.86,263.46Z" fill="#e3e3e3"/>
        <path d="M11.49,265.21H182.86s0-164.57,0-203.46c0-1.66.12-4.13,2.15-4.65,2.67-.51,10.82-4.87,9.5-22-.73-9.54-5.24-14.71-7.64-14.54,0,0-37.81-10.1-104.56,94.08S8.86,263.46,8.86,263.46Z" fill="#e0e0e0"/>
        <path d="M11.37,265.13H182.72s0-166.78,0-203.81c0-1.59.15-3.94,2.08-4.43,2.65-.48,10.42-4.76,9.23-21.88-.66-9.6-4.92-14.48-7.16-14.32,0,0-37.81-10.27-104.56,93.91S8.86,263.46,8.86,263.46Z" fill="#ddd"/>
        <path d="M11.24,265.05H182.58V60.89c0-1.51.19-3.74,2-4.21,2.62-.46,10-4.65,9-21.73-.59-9.65-4.59-14.24-6.68-14.1,0,0-37.81-10.43-104.56,93.75S8.86,263.46,8.86,263.46Z" fill="#dadada"/>
        <path d="M11.12,265H182.44V60.45c0-1.43.22-3.54,2-4C187,56,194,51.93,193.07,34.9c-.52-9.71-4.27-14-6.2-13.88,0,0-37.81-10.6-104.56,93.58S8.86,263.46,8.86,263.46Z" fill="#d7d7d7"/>
        <path d="M11,264.88H182.3s0-173.39,0-204.86c0-1.35.24-3.35,1.88-3.77,2.56-.4,9.19-4.42,8.4-21.4-.45-9.77-4-13.78-5.72-13.67,0,0-37.81-10.76-104.56,93.42S8.86,263.46,8.86,263.46Z" fill="#d4d4d4"/>
        <path d="M10.87,264.8H182.16s0-175.59,0-205.22c0-1.27.28-3.14,1.82-3.54,2.53-.38,8.77-4.32,8.12-21.25-.38-9.82-3.63-13.54-5.24-13.44,0,0-37.81-10.93-104.56,93.25S8.86,263.46,8.86,263.46Z" fill="#d1d1d1"/>
        <path d="M10.74,264.71H182s0-177.79,0-205.56c0-1.19.31-2.95,1.75-3.32,2.51-.36,8.37-4.21,7.85-21.09-.31-9.88-3.31-13.31-4.76-13.22,0,0-37.81-11.1-104.56,93.08S8.86,263.46,8.86,263.46Z" fill="#cdcdcd"/>
        <path d="M10.62,264.63H181.89s0-180,0-205.91c0-1.12.34-2.76,1.69-3.1,2.48-.33,8-4.1,7.57-20.93-.23-9.94-3-13.08-4.28-13,0,0-37.81-11.26-104.56,92.92S8.86,263.46,8.86,263.46Z" fill="#cacaca"/>
        <path d="M10.49,264.55H181.75V58.28c0-1,.37-2.55,1.63-2.87,2.45-.31,7.56-4,7.29-20.77-.16-10-2.66-12.86-3.8-12.79,0,0-37.81-11.43-104.56,92.75S8.86,263.46,8.86,263.46Z" fill="#c7c7c7"/>
        <path d="M10.36,264.46H181.61V57.85c0-1,.41-2.36,1.56-2.66,2.42-.28,7.16-3.87,7-20.61C190.1,24.52,187.85,22,186.87,22c0,0-37.81-11.59-104.56,92.59S8.86,263.46,8.86,263.46Z" fill="#c4c4c4"/>
        <path d="M10.24,264.38H181.47v-207A2.46,2.46,0,0,1,183,55c2.39-.25,6.76-3.76,6.74-20.45,0-10.12-2-12.39-2.84-12.35,0,0-37.81-11.76-104.56,92.42S8.86,263.46,8.86,263.46Z" fill="#c1c1c1"/>
        <path d="M10.11,264.3H181.33V57a2.3,2.3,0,0,1,1.44-2.21c2.36-.23,6.35-3.65,6.46-20.29.06-10.18-1.7-12.16-2.36-12.13,0,0-37.81-11.93-104.56,92.25S8.86,263.46,8.86,263.46Z" fill="#bebebe"/>
        <path d="M10,264.21h171.2s0-191,0-207.67a2.13,2.13,0,0,1,1.36-2c2.34-.21,6-3.54,6.19-20.14.14-10.23-1.37-11.92-1.88-11.91,0,0-37.81-12.09-104.56,92.09S8.86,263.46,8.86,263.46Z" fill="#bbb"/>
        <path d="M9.86,264.13H181.05s0-193.21,0-208a2,2,0,0,1,1.3-1.76c2.31-.18,5.55-3.43,5.91-20,.21-10.29-1.05-11.69-1.4-11.69,0,0-37.81-12.26-104.56,91.92S8.86,263.46,8.86,263.46Z" fill="#b8b8b8"/>
        <path d="M9.74,264.05H180.91s0-195.41,0-208.37a1.85,1.85,0,0,1,1.24-1.55c2.28-.15,5.15-3.31,5.63-19.81.29-10.35-.73-11.46-.92-11.48,0,0-37.81-12.42-104.56,91.76S8.86,263.46,8.86,263.46Z" fill="#b5b5b5"/>
        <path d="M9.61,264H180.77s0-197.61,0-208.72A1.74,1.74,0,0,1,182,53.92c2.25-.13,4.76-3.21,5.35-19.66.38-10.41-.4-11.22-.43-11.25S149.06,10.42,82.31,114.6,8.86,263.46,8.86,263.46Z" fill="#b2b2b2"/>
        <path d="M9.49,263.88H180.63s0-199.81,0-209.07c0-.4.63-1,1.11-1.1,2.22-.1,4.36-3.1,5.07-19.5.46-10.47-.07-11,.05-11S149.06,10.42,82.31,114.6,8.86,263.46,8.86,263.46Z" fill="#aeaeae"/>
        <path d="M9.36,263.8H180.5V54.37c0-.31.66-.77,1.05-.87,2.19-.08,4-3,4.79-19.34.54-10.53.25-10.76.53-10.82,0,0-37.81-12.92-104.56,91.26S8.86,263.46,8.86,263.46Z" fill="#ababab"/>
        <path d="M9.24,263.71H180.36V53.94c0-.24.69-.58,1-.65,2.17-.06,3.58-2.88,4.52-19.19.62-10.58.57-10.52,1-10.59,0,0-37.81-13.09-104.56,91.09S8.86,263.46,8.86,263.46Z" fill="#a8a8a8"/>
        <path d="M9.11,263.63H180.22V53.51c0-.16.73-.39.92-.44,2.14,0,3.21-2.75,4.24-19,.72-10.64.89-10.29,1.49-10.38,0,0-37.81-13.25-104.56,90.93S8.86,263.46,8.86,263.46Z" fill="#a5a5a5"/>
        <path d="M9,263.55H180.08s0-208.63,0-210.48c0-.08.75-.18.85-.21,2.11,0,2.8-2.64,4-18.86.79-10.7,1.21-10.06,2-10.16,0,0-37.81-13.42-104.56,90.76S8.86,263.46,8.86,263.46Z" fill="#a2a2a2"/>
        <path d="M8.86,263.46H179.94V52.64h.78c2.08,0,2.4-2.53,3.69-18.71.86-10.75,1.54-9.82,2.45-9.93,0,0-37.81-13.59-104.56,90.59S8.86,263.46,8.86,263.46Z" fill="#9f9f9f"/>
      </g>
      <g style="mix-blend-mode: multiply">
        <path d="M188.47,20.5c-.63-5-145.67,176-145.67,176l165.69-21S189.71,30.38,188.47,20.5Z" fill="#dfdfdf"/>
      </g>
      <g>
        <g>
          <path d="M186.87,13.44l-164,25.91h0l19.56,157,165.69-21s-18.37-145-19.61-154.87C187.84,15.47,187.32,13.38,186.87,13.44Z" fill="url(#a)"/>
          <g>
            <path d="M206.8,165.27v0l-165.67,21,.13,1.07,165.68-21Z" fill="url(#b)" style="mix-blend-mode: multiply"/>
            <rect x="39.34" y="166.16" width="166.98" height="1.08" transform="translate(-19.98 16.76) rotate(-7.22)" fill="url(#c)" style="mix-blend-mode: multiply"/>
            <rect x="38.15" y="156.57" width="166.96" height="1.08" transform="translate(-18.78 16.53) rotate(-7.22)" fill="url(#d)" style="mix-blend-mode: multiply"/>
            <rect x="36.95" y="146.99" width="166.94" height="1.08" transform="translate(-17.59 16.3) rotate(-7.22)" fill="url(#e)" style="mix-blend-mode: multiply"/>
            <rect x="35.76" y="137.4" width="166.92" height="1.08" transform="translate(-16.39 16.07) rotate(-7.22)" fill="url(#f)" style="mix-blend-mode: multiply"/>
            <rect x="34.56" y="127.82" width="166.9" height="1.08" transform="translate(-15.2 15.85) rotate(-7.22)" fill="url(#g)" style="mix-blend-mode: multiply"/>
            <rect x="33.37" y="118.23" width="166.88" height="1.08" transform="translate(-14 15.62) rotate(-7.22)" fill="url(#h)" style="mix-blend-mode: multiply"/>
            <rect x="32.18" y="108.65" width="166.86" height="1.08" transform="matrix(0.99, -0.13, 0.13, 0.99, -12.81, 15.39)" fill="url(#i)" style="mix-blend-mode: multiply"/>
            <rect x="30.98" y="99.07" width="166.84" height="1.08" transform="translate(-11.61 15.17) rotate(-7.22)" fill="url(#j)" style="mix-blend-mode: multiply"/>
            <rect x="29.79" y="89.48" width="166.82" height="1.08" transform="translate(-10.42 14.94) rotate(-7.22)" fill="url(#k)" style="mix-blend-mode: multiply"/>
            <rect x="28.59" y="79.9" width="166.8" height="1.08" transform="translate(-9.22 14.71) rotate(-7.22)" fill="url(#l)" style="mix-blend-mode: multiply"/>
            <rect x="27.4" y="70.31" width="166.78" height="1.08" transform="matrix(0.99, -0.13, 0.13, 0.99, -8.03, 14.48)" fill="url(#m)" style="mix-blend-mode: multiply"/>
            <rect x="26.2" y="60.73" width="166.76" height="1.08" transform="translate(-6.83 14.26) rotate(-7.22)" fill="url(#n)" style="mix-blend-mode: multiply"/>
            <rect x="25.01" y="51.15" width="166.74" height="1.08" transform="matrix(0.99, -0.13, 0.13, 0.99, -5.64, 14.03)" fill="url(#o)" style="mix-blend-mode: multiply"/>
            <rect x="23.82" y="41.56" width="166.72" height="1.08" transform="translate(-4.44 13.8) rotate(-7.22)" fill="url(#p)" style="mix-blend-mode: multiply"/>
            <path d="M188.67,22.05,23.28,43l.14,1.08L188.81,23.13C188.76,22.73,188.71,22.37,188.67,22.05Z" fill="url(#q)" style="mix-blend-mode: multiply"/>
            <path d="M187.11,13.61l-6.76.86-35,5.52,42.12-5.33A3.51,3.51,0,0,0,187.11,13.61Z" fill="url(#r)" style="mix-blend-mode: multiply"/>
          </g>
        </g>
        <g style="mix-blend-mode: multiply">
          <g clip-path="url(#s)">
            <g>
              <path d="M82.31,114.6C15.56,218.78,8.86,291.25,8.86,291.25l3.89,2.58h171.5s0-170.34,0-227.73c0-2.46-.2-6.11,2.79-6.88s15-6,12.28-23.63c-2.78-17.92-11.12-22.25-12.45-22.15C186.87,13.44,149.06,10.42,82.31,114.6Z" fill="#fff"/>
              <path d="M12.62,293.75H184.11s0-172.54,0-228.09c0-2.38-.16-5.91,2.73-6.65s14.61-5.93,12-23.51-10.72-22.15-12-22.06c0,0-37.81-3-104.56,101.16S8.86,291.25,8.86,291.25Z" fill="#fcfcf9"/>
              <path d="M12.5,293.66H184s0-174.74,0-228.43c0-2.3-.13-5.71,2.66-6.43s14.25-5.86,11.73-23.39-10.31-22.06-11.49-22c0,0-37.81-3-104.56,101.16S8.86,291.25,8.86,291.25Z" fill="#faf9f4"/>
              <path d="M12.37,293.58H183.83s0-176.94,0-228.79c0-2.22-.1-5.51,2.6-6.2,2.87-.69,13.85-5.78,11.45-23.26-2.37-17.24-9.9-22-11-21.89,0,0-37.81-3-104.56,101.16S8.86,291.25,8.86,291.25Z" fill="#f7f6ee"/>
              <path d="M12.24,293.5H183.69s0-179.15,0-229.14c0-2.14-.07-5.32,2.54-6,2.84-.66,13.46-5.7,11.17-23.13-2.24-17-9.49-21.87-10.53-21.8,0,0-37.81-3-104.56,101.16S8.86,291.25,8.86,291.25Z" fill="#f4f3e9"/>
              <path d="M12.12,293.41H183.55s0-181.35,0-229.48c0-2.07,0-5.13,2.47-5.77,2.82-.63,13.08-5.63,10.9-23-2.11-16.78-9.09-21.78-10-21.71,0,0-37.81-3-104.56,101.16S8.86,291.25,8.86,291.25Z" fill="#f1f0e3"/>
              <path d="M12,293.33H183.41s0-183.55,0-229.84c0-2,0-4.92,2.4-5.54,2.79-.61,12.68-5.55,10.62-22.89-2-16.55-8.68-21.68-9.57-21.62,0,0-37.81-3-104.56,101.16S8.86,291.25,8.86,291.25Z" fill="#efeddd"/>
              <path d="M11.87,293.25H183.28s0-185.76,0-230.19c0-1.91,0-4.73,2.34-5.32,2.75-.59,12.29-5.48,10.34-22.77-1.85-16.31-8.27-21.58-9.09-21.53,0,0-37.81-3-104.56,101.16S8.86,291.25,8.86,291.25Z" fill="#ecead8"/>
              <path d="M11.74,293.16h171.4s0-188,0-230.54c0-1.82.06-4.53,2.27-5.09,2.73-.56,11.9-5.4,10.07-22.64-1.72-16.09-7.86-21.5-8.61-21.45,0,0-37.81-3-104.56,101.16S8.86,291.25,8.86,291.25Z" fill="#e9e7d2"/>
              <path d="M11.62,293.08H183s0-190.16,0-230.89c0-1.75.09-4.33,2.21-4.88,2.7-.53,11.5-5.32,9.78-22.51-1.58-15.86-7.45-21.4-8.12-21.36,0,0-37.81-3-104.56,101.16S8.86,291.25,8.86,291.25Z" fill="#e7e4cc"/>
              <path d="M11.49,293H182.86s0-192.36,0-231.25c0-1.66.12-4.13,2.15-4.65,2.67-.51,11.1-5.25,9.5-22.39-1.45-15.62-7-21.3-7.64-21.27,0,0-37.81-3-104.56,101.16S8.86,291.25,8.86,291.25Z" fill="#e4e1c7"/>
              <path d="M11.37,292.91H182.72s0-194.56,0-231.59c0-1.59.15-3.94,2.08-4.43,2.65-.48,10.71-5.17,9.23-22.27-1.33-15.39-6.63-21.2-7.16-21.18,0,0-37.81-3-104.56,101.16S8.86,291.25,8.86,291.25Z" fill="#e1dec1"/>
              <path d="M11.24,292.83H182.58V60.89c0-1.51.19-3.74,2-4.21,2.62-.46,10.31-5.09,9-22.15-1.21-15.16-6.22-21.11-6.68-21.09,0,0-37.81-3-104.56,101.16S8.86,291.25,8.86,291.25Z" fill="#dedbbc"/>
              <path d="M11.12,292.75H182.44V60.45c0-1.43.22-3.54,2-4,2.58-.44,9.91-5,8.67-22-1.08-14.93-5.81-21-6.2-21,0,0-37.81-3-104.56,101.16S8.86,291.25,8.86,291.25Z" fill="#dcd8b6"/>
              <path d="M11,292.66H182.3s0-201.17,0-232.64c0-1.35.24-3.35,1.88-3.77,2.56-.4,9.52-4.93,8.4-21.89-1-14.7-5.41-20.92-5.72-20.92,0,0-37.81-3-104.56,101.16S8.86,291.25,8.86,291.25Z" fill="#d9d5b0"/>
              <path d="M10.87,292.58H182.16s0-203.37,0-233c0-1.27.28-3.14,1.82-3.54,2.53-.38,9.11-4.86,8.12-21.77-.85-14.47-5-20.83-5.24-20.83,0,0-37.81-3-104.56,101.16S8.86,291.25,8.86,291.25Z" fill="#d6d2ab"/>
              <path d="M10.74,292.5H182s0-205.58,0-233.35c0-1.19.31-2.95,1.75-3.32,2.51-.36,8.71-4.78,7.85-21.65C190.9,20,187,13.45,186.87,13.44c0,0-37.81-3-104.56,101.16S8.86,291.25,8.86,291.25Z" fill="#d4d0a5"/>
              <path d="M10.62,292.41H181.89s0-207.77,0-233.69c0-1.12.34-2.76,1.69-3.1,2.48-.33,8.3-4.7,7.57-21.53-.61-14-4.18-20.63-4.28-20.65s-37.81-3-104.56,101.16S8.86,291.25,8.86,291.25Z" fill="#d1cda0"/>
              <path d="M10.49,292.33H181.75v-234c0-1,.37-2.55,1.63-2.87,2.45-.31,7.89-4.63,7.29-21.4-.5-13.77-3.78-20.55-3.8-20.57s-37.81-3-104.56,101.16S8.86,291.25,8.86,291.25Z" fill="#ceca9a"/>
              <path d="M10.36,292.25H181.61V57.85c0-1,.41-2.36,1.56-2.66,2.42-.28,7.49-4.54,7-21.27-.38-13.54-3.37-20.45-3.32-20.48s-37.81-3-104.56,101.16S8.86,291.25,8.86,291.25Z" fill="#ccc794"/>
              <path d="M10.24,292.16H181.47V57.41A2.46,2.46,0,0,1,183,55c2.39-.25,7.08-4.46,6.74-21.15-.27-13.3-3-20.35-2.84-20.39s-37.81-3-104.56,101.16S8.86,291.25,8.86,291.25Z" fill="#c9c48f"/>
              <path d="M10.11,292.08H181.33V57a2.3,2.3,0,0,1,1.44-2.21c2.36-.23,6.66-4.39,6.46-21a93.35,93.35,0,0,0-2.36-20.3s-37.81-3-104.56,101.16S8.86,291.25,8.86,291.25Z" fill="#c6c189"/>
              <path d="M10,292h171.2s0-218.79,0-235.46a2.13,2.13,0,0,1,1.36-2c2.34-.21,6.25-4.31,6.19-20.91-.05-12.83-2.14-20.16-1.88-20.21,0,0-37.81-3-104.56,101.16S8.86,291.25,8.86,291.25Z" fill="#c3be84"/>
              <path d="M9.86,291.91H181.05s0-221,0-235.8a2,2,0,0,1,1.3-1.76c2.31-.18,5.83-4.23,5.91-20.78,0-12.61-1.74-20.07-1.4-20.13,0,0-37.81-3-104.56,101.16S8.86,291.25,8.86,291.25Z" fill="#c1bb7e"/>
              <path d="M9.74,291.83H180.91s0-223.19,0-236.15a1.85,1.85,0,0,1,1.24-1.55c2.28-.15,5.41-4.15,5.63-20.65.16-12.37-1.33-20-.92-20,0,0-37.81-3-104.56,101.16S8.86,291.25,8.86,291.25Z" fill="#beb878"/>
              <path d="M9.61,291.75H180.77s0-225.4,0-236.51A1.74,1.74,0,0,1,182,53.92c2.25-.13,5-4.07,5.35-20.53.27-12.14-.91-19.88-.43-20,0,0-37.81-3-104.56,101.16S8.86,291.25,8.86,291.25Z" fill="#bbb573"/>
              <path d="M9.49,291.66H180.63s0-227.59,0-236.85c0-.4.63-1,1.11-1.1,2.22-.1,4.56-4,5.07-20.41.37-11.91-.5-19.78.05-19.86,0,0-37.81-3-104.56,101.16S8.86,291.25,8.86,291.25Z" fill="#b9b26d"/>
              <path d="M9.36,291.58H180.5V54.37c0-.31.66-.77,1.05-.87,2.19-.08,4.13-3.92,4.79-20.29.47-11.67-.1-19.68.53-19.77,0,0-37.81-3-104.56,101.16S8.86,291.25,8.86,291.25Z" fill="#b6af67"/>
              <path d="M9.24,291.5H180.36V53.94c0-.24.69-.58,1-.65,2.17-.06,3.71-3.85,4.52-20.16.57-11.45.31-19.6,1-19.69,0,0-37.81-3-104.56,101.16S8.86,291.25,8.86,291.25Z" fill="#b3ac62"/>
              <path d="M9.11,291.41H180.22V53.51c0-.16.73-.39.92-.44,2.14,0,3.27-3.76,4.24-20,.67-11.22.72-19.5,1.49-19.6,0,0-37.81-3-104.56,101.16S8.86,291.25,8.86,291.25Z" fill="#b0a95c"/>
              <path d="M9,291.33H180.08s0-236.41,0-238.26c0-.08.75-.18.85-.21,2.11,0,2.83-3.69,4-19.91.77-11,1.13-19.4,2-19.51,0,0-37.81-3-104.56,101.16S8.86,291.25,8.86,291.25Z" fill="#aea657"/>
              <path d="M8.86,291.25H179.94V52.64h.78c2.08,0,2.4-3.62,3.69-19.79.86-10.75,1.54-19.31,2.45-19.42,0,0-37.81-3-104.56,101.16S8.86,291.25,8.86,291.25Z" fill="#aba351"/>
            </g>
          </g>
        </g>
      </g>
      <g>
        <g>
          <g>
            <polygon points="8.86 263.46 8.87 49.7 179.95 49.82 179.94 263.46 8.86 263.46" fill="#fbf3a0"/>
            <g>
              <rect x="8.86" y="253.26" width="171.09" height="1.08" fill="url(#t)"/>
              <rect x="8.86" y="243.6" width="171.09" height="1.09" fill="url(#u)"/>
              <polyline points="179.95 235.03 179.95 233.94 8.86 233.94 8.86 235.03" fill="url(#v)"/>
              <rect x="8.86" y="252.07" width="171.09" height="1.09" fill="url(#w)"/>
              <rect x="8.86" y="242.41" width="171.09" height="1.09" fill="url(#x)"/>
              <rect x="8.86" y="232.75" width="171.09" height="1.09" fill="url(#y)"/>
              <rect x="8.86" y="223.09" width="171.09" height="1.08" fill="url(#z)"/>
              <rect x="8.86" y="213.43" width="171.09" height="1.08" fill="url(#aa)"/>
              <rect x="8.86" y="203.77" width="171.09" height="1.08" fill="url(#ab)"/>
              <rect x="8.86" y="194.11" width="171.09" height="1.08" fill="url(#ac)"/>
              <rect x="8.86" y="184.45" width="171.09" height="1.09" fill="url(#ad)"/>
              <rect x="8.86" y="174.79" width="171.09" height="1.09" fill="url(#ae)"/>
              <rect x="8.86" y="165.13" width="171.09" height="1.09" fill="url(#af)"/>
              <rect x="8.86" y="155.47" width="171.09" height="1.09" fill="url(#ag)"/>
              <rect x="8.86" y="145.82" width="171.09" height="1.08" fill="url(#ah)"/>
              <rect x="8.86" y="136.16" width="171.09" height="1.08" fill="url(#ai)"/>
              <rect x="8.86" y="126.5" width="171.09" height="1.08" fill="url(#aj)"/>
              <rect x="8.86" y="116.83" width="171.09" height="1.08" fill="url(#ak)"/>
              <rect x="8.86" y="107.17" width="171.09" height="1.09" fill="url(#al)"/>
              <rect x="8.86" y="97.51" width="171.09" height="1.09" fill="url(#am)"/>
              <rect x="8.86" y="87.85" width="171.09" height="1.09" fill="url(#an)"/>
              <rect x="8.86" y="78.19" width="171.09" height="1.09" fill="url(#ao)"/>
            </g>
          </g>
          <g style="mix-blend-mode: multiply">
            <rect x="35.28" y="49.7" width="1.35" height="213.77" fill="url(#ap)"/>
            <rect x="37.53" y="49.7" width="1.35" height="213.77" fill="url(#aq)"/>
          </g>
        </g>
        <g>
          <path d="M8.87,49.7s1.17,5.51,2.66,5.56,149.32,5,168.42,5.6V49.76C130.7,49.77,8.87,49.7,8.87,49.7Z" fill="url(#ar)" style="mix-blend-mode: multiply"/>
          <path d="M8.92,49.7s1.24,5.51,2.87,5.56,149.06,5,168.16,5.6V49.76C130.7,49.77,8.92,49.7,8.92,49.7Z" fill="url(#as)" style="mix-blend-mode: multiply"/>
          <path d="M9,49.7s1.31,5.5,3.07,5.56,148.81,5,167.91,5.6V49.76C130.7,49.77,9,49.7,9,49.7Z" fill="url(#at)" style="mix-blend-mode: multiply"/>
          <path d="M9,49.7s1.38,5.5,3.28,5.56,148.55,5,167.65,5.6V49.76C130.7,49.77,9,49.7,9,49.7Z" fill="url(#au)" style="mix-blend-mode: multiply"/>
          <path d="M9.07,49.7s1.45,5.49,3.49,5.56,148.29,5,167.39,5.6V49.76C130.7,49.77,9.07,49.7,9.07,49.7Z" fill="url(#av)" style="mix-blend-mode: multiply"/>
          <path d="M9.12,49.7s1.52,5.49,3.69,5.56,148,5,167.14,5.6V49.76C130.7,49.77,9.12,49.7,9.12,49.7Z" fill="url(#aw)" style="mix-blend-mode: multiply"/>
          <path d="M9.16,49.7s1.6,5.48,3.91,5.56L180,60.86V49.76C130.7,49.77,9.16,49.7,9.16,49.7Z" fill="url(#ax)" style="mix-blend-mode: multiply"/>
          <path d="M9.21,49.7s1.67,5.48,4.11,5.56L180,60.86V49.76C130.7,49.77,9.21,49.7,9.21,49.7Z" fill="url(#ay)" style="mix-blend-mode: multiply"/>
          <path d="M9.26,49.7s1.74,5.48,4.32,5.56L180,60.86V49.76C130.7,49.77,9.26,49.7,9.26,49.7Z" fill="url(#az)" style="mix-blend-mode: multiply"/>
          <path d="M9.31,49.7s1.81,5.47,4.52,5.56L180,60.86V49.76C130.7,49.77,9.31,49.7,9.31,49.7Z" fill="url(#ba)" style="mix-blend-mode: multiply"/>
          <path d="M9.36,49.7s1.88,5.47,4.73,5.56L180,60.86V49.76C130.7,49.77,9.36,49.7,9.36,49.7Z" fill="url(#bb)" style="mix-blend-mode: multiply"/>
          <path d="M9.41,49.7s1.95,5.46,4.93,5.56L180,60.86V49.76C130.7,49.77,9.41,49.7,9.41,49.7Z" fill="url(#bc)" style="mix-blend-mode: multiply"/>
        </g>
      </g>
      <g>
        <g>
          <path d="M21.86,17.74,17,17.87,12.16,18c-2.74.08-4.69,8-5.39,15.94S6.62,49.78,8.86,49.82l4.78.08,4.77.08c-1,0-1.67-2.09-1.94-5.23a68.06,68.06,0,0,1,.25-11.67C17.48,25.27,19.32,17.81,21.86,17.74Z" fill="url(#bd)"/>
          <path d="M17.48,17.86c-2.68.07-4.59,8-5.29,16a52.89,52.89,0,0,0,.18,13c.37,1.9.93,3,1.73,3.06l4.22.07h.57L22.5,50s1.17,0,1.18,0c-.64,0-1.11-.91-1.44-2.38a23.18,23.18,0,0,1-.39-2.88,69.58,69.58,0,0,1,.24-11.26c0-.16,0-.31,0-.47.77-7.89,2.56-15.38,5.06-15.45l-4.86.13Z" fill="url(#be)"/>
          <path d="M22.72,17.73c-2.63.07-4.5,8-5.21,16.14a55.51,55.51,0,0,0,.13,13C18,48.84,18.51,50,19.25,50l4.24.07h.57l3.63.06s1.16,0,1.18,0c-.61,0-1.06-.93-1.36-2.42a21.83,21.83,0,0,1-.36-2.89,71.76,71.76,0,0,1,.26-11.31c0-.15,0-.31,0-.46.77-8,2.53-15.49,5-15.57l-4.85.13Z" fill="url(#bf)"/>
          <path d="M28,17.59c-2.57.07-4.4,8.06-5.11,16.24A59.65,59.65,0,0,0,23,47c.33,2,.81,3.11,1.49,3.13l4.26.07h.57l3.65.06a11.53,11.53,0,0,0,1.18,0c-.57-.07-1-1-1.28-2.45a26.46,26.46,0,0,1-.34-2.9,77,77,0,0,1,.3-11.36c0-.15,0-.31,0-.47.77-8.07,2.49-15.6,4.88-15.68l-4.85.13Z" fill="url(#bg)"/>
          <path d="M33.27,17.45c-2.51.07-4.3,8.08-5,16.35a62.22,62.22,0,0,0,0,13.22c.3,2,.74,3.14,1.36,3.15l4.28.07h.58l3.66.06a9,9,0,0,0,1.17-.05c-.53-.09-.93-1-1.19-2.48a27.43,27.43,0,0,1-.31-2.91,81,81,0,0,1,.32-11.41c0-.16,0-.31,0-.47C39,24.83,40.65,17.27,43,17.19l-4.85.13Z" fill="url(#bh)"/>
          <path d="M38.55,17.31c-2.46.08-4.21,8.1-4.93,16.46a66.62,66.62,0,0,0,0,13.31c.28,2,.68,3.17,1.25,3.18l4.29.07h.58l3.68.06a6.45,6.45,0,0,0,1.17-.08c-.49-.1-.86-1-1.11-2.5a28.46,28.46,0,0,1-.28-2.92,87.42,87.42,0,0,1,.35-11.46c0-.16,0-.32.05-.47.77-8.25,2.42-15.84,4.7-15.91l-4.85.12Z" fill="url(#bi)"/>
          <path d="M43.83,17.17c-2.4.08-4.11,8.12-4.84,16.56a70.72,70.72,0,0,0-.09,13.41c.25,2.07.61,3.19,1.12,3.2l4.31.08h.59l3.69.07a5.6,5.6,0,0,0,1.17-.1c-.46-.12-.8-1-1-2.53a29.21,29.21,0,0,1-.26-2.94,90.75,90.75,0,0,1,.38-11.5c0-.16,0-.32,0-.48.77-8.33,2.38-15.94,4.61-16L48.69,17Z" fill="url(#bj)"/>
          <path d="M49.12,17c-2.35.08-4,8.14-4.76,16.67a76.31,76.31,0,0,0-.15,13.5c.24,2.1.55,3.22,1,3.23l4.34.07h.58l3.72.06A5,5,0,0,0,55,50.46c-.43-.14-.75-1-1-2.56-.11-.82-.18-1.81-.23-2.95a96.78,96.78,0,0,1,.41-11.56c0-.16,0-.31,0-.47.78-8.42,2.35-16.06,4.52-16.14L54,16.9Z" fill="url(#bk)"/>
          <path d="M54.4,16.89c-2.29.08-3.93,8.16-4.67,16.77a82.58,82.58,0,0,0-.2,13.59c.21,2.14.48,3.26.88,3.27l4.35.07h.59l3.73.06a4.08,4.08,0,0,0,1.17-.14c-.4-.15-.69-1.06-.87-2.58-.1-.82-.16-1.82-.2-3a103.19,103.19,0,0,1,.44-11.61c0-.16,0-.32.05-.48.78-8.5,2.31-16.17,4.43-16.25l-4.85.13Z" fill="url(#bl)"/>
          <path d="M59.68,16.75c-2.24.09-3.83,8.18-4.58,16.88a87.29,87.29,0,0,0-.25,13.68c.18,2.18.42,3.28.76,3.29l4.37.07h.59l3.74.07a3.76,3.76,0,0,0,1.17-.16c-.36-.17-.62-1.08-.78-2.61-.09-.83-.14-1.82-.17-3A107.52,107.52,0,0,1,65,33.35c0-.16,0-.32.05-.48.78-8.6,2.28-16.29,4.35-16.37l-4.86.13Z" fill="url(#bm)"/>
          <path d="M65,16.61c-2.18.09-3.73,8.2-4.48,17a94.38,94.38,0,0,0-.31,13.78c.16,2.21.35,3.31.63,3.32l4.39.07h.59l3.77.06a3.43,3.43,0,0,0,1.16-.17c-.32-.19-.56-1.11-.7-2.65-.08-.82-.12-1.82-.14-3a113,113,0,0,1,.5-11.7c0-.17,0-.33,0-.49.79-8.68,2.25-16.4,4.26-16.48l-4.85.13Z" fill="url(#bn)"/>
          <path d="M70.25,16.47c-2.12.09-3.64,8.22-4.4,17.09a104.13,104.13,0,0,0-.37,13.87c.14,2.24.3,3.34.52,3.34l4.41.08H71l3.79.06c.16,0,1,0,1.16-.19-.29-.21-.5-1.13-.62-2.68-.07-.82-.1-1.83-.12-3,0-3,.12-7.07.53-11.76,0-.16,0-.32,0-.48C76.57,24.05,78,16.31,80,16.22l-4.86.13Z" fill="url(#bo)"/>
          <path d="M75.54,16.34c-2.07.08-3.55,8.23-4.31,17.19a111.44,111.44,0,0,0-.42,14c.11,2.28.22,3.36.39,3.37l4.43.07h.59L80,51c.17,0,1,0,1.15-.22-.25-.22-.43-1.15-.53-2.7-.06-.83-.08-1.83-.09-3,0-3,.14-7.06.55-11.8,0-.16,0-.32,0-.49.79-8.85,2.17-16.62,4.08-16.71l-4.85.13Z" fill="url(#bp)"/>
          <path d="M80.82,16.2c-2,.08-3.45,8.25-4.21,17.29a122.74,122.74,0,0,0-.48,14A13.77,13.77,0,0,0,76.4,51l4.45.07h.6l3.81.06c.19,0,1-.05,1.16-.23A6.45,6.45,0,0,1,86,48.13c0-.83-.06-1.84-.06-3,0-3,.17-7.07.58-11.85,0-.16,0-.33,0-.49.8-8.94,2.15-16.74,4-16.83l-4.85.13Z" fill="url(#bq)"/>
          <path d="M86.11,16.06c-2,.09-3.36,8.27-4.12,17.4a136.23,136.23,0,0,0-.54,14.14A26.49,26.49,0,0,0,81.61,51l4.46.08h.6l3.84.06c.2,0,1-.06,1.15-.25a7.89,7.89,0,0,1-.37-2.76c0-.84,0-1.85,0-3,0-3,.21-7.07.62-11.9,0-.17,0-.33,0-.5.8-9,2.11-16.85,3.91-16.94L91,15.93Z" fill="url(#br)"/>
          <path d="M91.41,15.92c-1.9.09-3.27,8.29-4,17.5-.53,6.34-.63,11.25-.59,14.24,0,2.39,0,3.45,0,3.46l4.48.07h.61l3.85.06c.22,0,1-.06,1.15-.26a10,10,0,0,1-.29-2.79c0-.84,0-1.86,0-3,0-3,.22-7.08.64-12,0-.17,0-.34,0-.5.8-9.11,2.08-17,3.82-17l-4.85.12Z" fill="url(#bs)"/>
          <path d="M96.75,15.78c-1.85.09-3.17,8.31-4,17.61-.54,6.43-.65,11.34-.65,14.33a23.47,23.47,0,0,1-.08,3.48l4.5.08h.6l3.87.06c.23,0,1-.07,1.15-.29a12.71,12.71,0,0,1-.21-2.81q0-1.26,0-3.06c0-3,.25-7.07.67-12,0-.16,0-.33,0-.5.81-9.2,2-17.07,3.73-17.16l-4.85.12Z" fill="url(#bt)"/>
          <path d="M102.11,15.64c-1.79.09-3.08,8.33-3.86,17.71-.54,6.53-.67,11.44-.7,14.43,0,2.45-.09,3.51-.21,3.51l4.52.07h.61l3.89.07c.24,0,1-.08,1.14-.31a18,18,0,0,1-.12-2.84c0-.85,0-1.87.05-3.07.07-3,.28-7.07.7-12,0-.17,0-.33,0-.5.81-9.29,2-17.19,3.64-17.28l-4.85.12Z" fill="url(#bu)"/>
          <path d="M107.47,15.5c-1.73.1-3,8.35-3.77,17.82-.55,6.63-.69,11.54-.76,14.52,0,2.49-.15,3.53-.32,3.54l4.53.07h.61l3.91.06c.26,0,1-.08,1.14-.32,0-.33-.06-1.29,0-2.88,0-.84,0-1.87.08-3.07.09-3,.3-7.08.73-12.1,0-.17,0-.34,0-.5.81-9.38,2-17.31,3.55-17.4l-4.85.12Z" fill="url(#bv)"/>
          <path d="M112.83,15.36c-1.68.1-2.89,8.37-3.68,17.93-.56,6.72-.72,11.63-.81,14.6-.08,2.53-.22,3.57-.45,3.57l4.55.08h.62l3.92.06c.27,0,1-.09,1.15-.34,0-.35,0-1.31,0-2.91,0-.85.06-1.88.11-3.09.11-3,.33-7.07.76-12.14,0-.17,0-.34,0-.51.81-9.46,1.93-17.41,3.47-17.51l-4.86.13Z" fill="url(#bw)"/>
          <path d="M118.19,15.22c-1.62.1-2.79,8.39-3.59,18-.56,6.82-.74,11.73-.86,14.7-.11,2.56-.29,3.6-.58,3.6l4.58.07h.61l3.94.07a1.76,1.76,0,0,0,1.15-.37c0-.36,0-1.33.11-2.93,0-.85.08-1.88.14-3.1.13-3,.36-7.08.79-12.2,0-.17,0-.33,0-.5.81-9.55,1.9-17.53,3.38-17.63L123,15.1Z" fill="url(#bx)"/>
          <path d="M123.55,15.08c-1.56.1-2.7,8.41-3.5,18.14-.57,6.91-.76,11.82-.92,14.79-.14,2.6-.34,3.62-.69,3.62l4.59.08h.62l4,.06a1.64,1.64,0,0,0,1.14-.38c.06-.38.11-1.35.2-3,0-.85.09-1.89.16-3.11.15-3,.39-7.08.82-12.25,0-.17,0-.34,0-.51.81-9.63,1.86-17.64,3.29-17.74L128.4,15Z" fill="url(#by)"/>
          <path d="M128.91,15c-1.51.09-2.6,8.42-3.41,18.23-.57,7-.79,11.92-1,14.89-.17,2.63-.41,3.65-.82,3.65l4.61.08h.62l4,.06a1.66,1.66,0,0,0,1.14-.4,24,24,0,0,0,.28-3c0-.86.12-1.9.19-3.13.16-3,.41-7.08.85-12.29,0-.17,0-.34,0-.51.82-9.72,1.82-17.76,3.2-17.86l-4.85.13Z" fill="url(#bz)"/>
          <path d="M134.27,14.81c-1.45.1-2.5,8.44-3.32,18.34-.58,7.1-.81,12-1,15-.2,2.66-.47,3.68-.93,3.68l4.63.07h.62l4,.07a1.57,1.57,0,0,0,1.14-.42,18.57,18.57,0,0,0,.36-3c.07-.86.14-1.9.22-3.14.18-3,.44-7.08.88-12.34,0-.17,0-.35,0-.52.82-9.8,1.79-17.87,3.11-18l-4.85.13Z" fill="url(#ca)"/>
          <path d="M139.63,14.67c-1.39.1-2.41,8.46-3.23,18.44-.59,7.2-.83,12.11-1.08,15.07-.23,2.7-.54,3.72-1.06,3.71l4.65.08h.62l4,.06a1.46,1.46,0,0,0,1.14-.44,14.34,14.34,0,0,0,.44-3c.08-.87.16-1.91.25-3.15.2-3,.47-7.08.9-12.39,0-.18,0-.35,0-.52.82-9.9,1.75-18,3-18.09l-4.85.13Z" fill="url(#cb)"/>
          <path d="M145,14.53c-1.34.1-2.31,8.48-3.14,18.55-.59,7.29-.86,12.21-1.14,15.16-.26,2.74-.6,3.74-1.17,3.74l4.66.07h.63l4,.07a1.46,1.46,0,0,0,1.13-.46,13,13,0,0,0,.53-3.07c.08-.87.17-1.92.27-3.17.22-3,.5-7.08.93-12.44,0-.17,0-.34.05-.52.82-10,1.72-18.09,2.93-18.19l-4.85.12Z" fill="url(#cc)"/>
          <path d="M150.36,14.39c-1.29.1-2.23,8.5-3.06,18.66-.6,7.38-.88,12.3-1.19,15.25-.29,2.77-.67,3.77-1.3,3.76l4.68.08h.63l4,.07a1.44,1.44,0,0,0,1.13-.48,11.28,11.28,0,0,0,.61-3.1q.15-1.3.3-3.18c.24-3,.52-7.08,1-12.49,0-.17,0-.35.05-.52.82-10.07,1.68-18.21,2.84-18.31l-4.85.12Z" fill="url(#cd)"/>
          <path d="M155.72,14.25c-1.23.11-2.13,8.52-3,18.76-.6,7.48-.91,12.4-1.25,15.35-.32,2.8-.72,3.8-1.41,3.79l4.7.08h.63l4.06.06a1.38,1.38,0,0,0,1.13-.49,10.19,10.19,0,0,0,.69-3.14c.11-.87.21-1.92.33-3.18.25-3,.55-7.09,1-12.54,0-.18,0-.35,0-.53.83-10.15,1.64-18.32,2.75-18.42l-4.85.12Z" fill="url(#ce)"/>
          <path d="M161.08,14.11c-1.18.11-2,8.54-2.88,18.87-.61,7.58-.93,12.49-1.3,15.44s-.79,3.82-1.54,3.81l4.72.08h.63l4.08.07a1.34,1.34,0,0,0,1.13-.52,9.18,9.18,0,0,0,.77-3.16c.12-.87.24-1.93.36-3.2.27-3,.58-7.08,1-12.58,0-.18,0-.36.05-.53.83-10.24,1.61-18.43,2.66-18.54l-4.85.12Z" fill="url(#cf)"/>
          <path d="M166.44,14c-1.12.11-1.94,8.56-2.79,19-.62,7.68-1,12.59-1.36,15.53s-.85,3.86-1.66,3.85l4.74.08H166l4.1.07a1.35,1.35,0,0,0,1.12-.54,8.78,8.78,0,0,0,.86-3.19c.13-.88.25-1.94.38-3.21.29-3,.6-7.08,1.05-12.63l0-.54c.84-10.32,1.58-18.54,2.58-18.65l-4.85.13Z" fill="url(#cg)"/>
          <path d="M171.84,13.83c-1.07.11-1.85,8.58-2.7,19.08-.62,7.77-1,12.68-1.41,15.62s-.92,3.89-1.78,3.88l4.75.07.64,0,4.12.06a1.3,1.3,0,0,0,1.12-.55,8.48,8.48,0,0,0,.94-3.22c.14-.88.27-1.95.41-3.22.31-3,.63-7.09,1.08-12.69l0-.53c.84-10.41,1.54-18.66,2.49-18.77l-4.85.13Z" fill="url(#ch)"/>
          <path d="M177.16,13.69c-1,.11-1.75,8.6-2.6,19.18-.64,7.87-1,12.78-1.48,15.72s-1,3.91-1.9,3.9l4.78.08,4.77.08c1,0,1.64-.89,2.14-3.82s.9-7.88,1.55-16c.86-10.75,1.54-19.31,2.45-19.42l-4.86.13Z" fill="url(#ci)"/>
        </g>
        <g>
          <path d="M157.06,52.26,6.5,39.05c0,.37,0,.73,0,1.09L141.79,52Z" opacity="0.5" fill="url(#cj)" style="mix-blend-mode: multiply"/>
          <path d="M183.23,46.25,7.2,30.19c0,.36-.1.71-.14,1.07l176,16.07C183.14,47,183.19,46.63,183.23,46.25Z" opacity="0.75" fill="url(#ck)" style="mix-blend-mode: multiply"/>
          <path d="M184.07,37.17,9.33,21.23q-.2.49-.39,1.05l175,16Z" fill="url(#cl)" style="mix-blend-mode: multiply"/>
          <path d="M184.89,27,63.38,16.66l-9.76.25L184.8,28.12Z" opacity="0.75" fill="url(#cm)" style="mix-blend-mode: multiply"/>
          <path d="M185.7,18.46l-42.53-3.88-9.28.24,51.69,4.72Q185.64,19,185.7,18.46Z" opacity="0.5" fill="url(#cn)" style="mix-blend-mode: multiply"/>
        </g>
        <g>
          <g style="mix-blend-mode: multiply">
            <g clip-path="url(#co)">
              <g>
                <g>
                  <path d="M37,50.23c-.23,0-.44-.19-.63-.56-.57-1.12-.87-3.82-.87-7.43,0-2.66.16-5.8.48-9.18a65.35,65.35,0,0,1,1.82-10.92,15.69,15.69,0,0,1,1.36-3.51c.5-.84,1-1.31,1.6-1.33v-.11c-.62,0-1.18.53-1.69,1.39-1.52,2.56-2.62,8.35-3.2,14.47-.32,3.38-.48,6.53-.48,9.19a34.4,34.4,0,0,0,.39,5.83,6.7,6.7,0,0,0,.49,1.65c.2.38.44.61.73.62v-.11Z" fill="url(#cp)"/>
                  <path d="M37.88,22.14a15.22,15.22,0,0,1,1.36-3.51c.48-.8,1-1.27,1.52-1.32h.08v-.11c-.62,0-1.18.53-1.69,1.38-1.52,2.57-2.62,8.36-3.2,14.48-.32,3.38-.48,6.53-.48,9.19a34.4,34.4,0,0,0,.39,5.83,6.18,6.18,0,0,0,.49,1.65c.2.39.44.61.73.62v-.12h0c-.22,0-.43-.18-.62-.55-.57-1.11-.87-3.82-.87-7.43,0-2.65.16-5.8.48-9.18A65.35,65.35,0,0,1,37.88,22.14Z" fill="url(#cq)"/>
                  <path d="M37.93,22.14a15.22,15.22,0,0,1,1.36-3.51c.48-.81,1-1.27,1.53-1.32l.06,0v-.11c-.63,0-1.19.53-1.7,1.39-1.52,2.57-2.62,8.36-3.2,14.48-.32,3.38-.48,6.53-.48,9.2a34.27,34.27,0,0,0,.39,5.82,6.06,6.06,0,0,0,.49,1.65c.2.39.44.62.73.63v-.13h0c-.22,0-.43-.18-.62-.55-.57-1.11-.87-3.82-.87-7.42,0-2.66.16-5.81.48-9.19A65.35,65.35,0,0,1,37.93,22.14Z" fill="url(#cr)"/>
                  <path d="M38,22.14a15.12,15.12,0,0,1,1.36-3.5c.48-.82,1-1.28,1.53-1.32,0,0,0,0,.05,0v-.11c-.63,0-1.19.53-1.7,1.39C37.7,21.14,36.6,26.93,36,33.05c-.32,3.38-.48,6.54-.48,9.2a34.4,34.4,0,0,0,.39,5.83,6.29,6.29,0,0,0,.49,1.65c.2.38.44.61.74.62v-.13h0c-.22,0-.43-.18-.62-.55-.56-1.11-.86-3.81-.86-7.42,0-2.66.16-5.81.48-9.19A65.35,65.35,0,0,1,38,22.14Z" fill="url(#cs)"/>
                  <path d="M38,22.14a15.12,15.12,0,0,1,1.36-3.5c.48-.82,1-1.28,1.53-1.32,0,0,0,0,0,0v-.12c-.63,0-1.19.54-1.7,1.39-1.52,2.57-2.62,8.37-3.2,14.49-.32,3.38-.48,6.54-.48,9.2A34.4,34.4,0,0,0,36,48.08a6.18,6.18,0,0,0,.49,1.65c.2.39.44.62.74.63v-.15h0c-.21,0-.42-.18-.61-.55-.56-1.1-.86-3.8-.86-7.41,0-2.65.16-5.81.48-9.19A65.35,65.35,0,0,1,38,22.14Z" fill="url(#ct)"/>
                  <path d="M38.08,22.14a14.68,14.68,0,0,1,1.36-3.5c.48-.82,1-1.28,1.53-1.32l0,0v-.12c-.64,0-1.2.54-1.71,1.4-1.52,2.57-2.62,8.36-3.2,14.49-.32,3.39-.48,6.54-.48,9.21A34.27,34.27,0,0,0,36,48.08a6.06,6.06,0,0,0,.49,1.65c.2.39.44.63.74.63v-.15h0c-.21,0-.42-.18-.61-.55-.56-1.1-.86-3.8-.86-7.4,0-2.66.16-5.81.48-9.2A65.35,65.35,0,0,1,38.08,22.14Z" fill="url(#cu)"/>
                  <path d="M38.13,22.14a14.68,14.68,0,0,1,1.36-3.5c.48-.82,1-1.28,1.53-1.31,0,0,0,0,0,0v-.12c-.64,0-1.2.54-1.71,1.39-1.52,2.58-2.62,8.37-3.2,14.5-.32,3.39-.48,6.55-.48,9.21a34.27,34.27,0,0,0,.39,5.82,6.26,6.26,0,0,0,.49,1.66c.2.38.44.62.75.63V50.2h0c-.21,0-.41-.17-.6-.54-.56-1.1-.86-3.8-.86-7.4,0-2.66.16-5.81.48-9.2A65.35,65.35,0,0,1,38.13,22.14Z" fill="url(#cv)"/>
                  <path d="M38.18,22.14a14.68,14.68,0,0,1,1.36-3.5c.48-.83,1-1.28,1.53-1.31,0,0,0,0,0,0v-.13c-.64,0-1.21.54-1.72,1.4-1.52,2.58-2.62,8.37-3.2,14.5-.32,3.39-.48,6.55-.48,9.21a34.4,34.4,0,0,0,.39,5.83,6.29,6.29,0,0,0,.49,1.65c.2.39.44.63.75.64V50.2h0c-.2,0-.4-.17-.59-.54-.56-1.1-.86-3.8-.86-7.4,0-2.65.16-5.81.48-9.2A65.35,65.35,0,0,1,38.18,22.14Z" fill="url(#cw)"/>
                  <path d="M38.23,22.14a15.15,15.15,0,0,1,1.35-3.5c.49-.83,1-1.28,1.55-1.31v-.19c-.64,0-1.21.55-1.72,1.41C37.9,21.13,36.8,26.92,36.22,33c-.32,3.4-.48,6.56-.48,9.23a34.27,34.27,0,0,0,.39,5.82,6.18,6.18,0,0,0,.49,1.65c.2.39.44.63.75.64v-.19h0c-.2,0-.41-.16-.59-.53-.57-1.1-.86-3.79-.86-7.39,0-2.66.16-5.82.48-9.21A65.35,65.35,0,0,1,38.23,22.14Z" fill="url(#cx)"/>
                  <path d="M38.28,22.14a15.15,15.15,0,0,1,1.35-3.5c.5-.83,1-1.28,1.55-1.3,0,0,0-.07,0-.07v-.13c-.64,0-1.21.55-1.72,1.4-1.52,2.58-2.62,8.38-3.2,14.5-.32,3.4-.48,6.56-.48,9.23a34.27,34.27,0,0,0,.39,5.82,6.26,6.26,0,0,0,.49,1.66c.2.39.44.63.76.64v-.2h0c-.2,0-.4-.17-.58-.53-.57-1.09-.86-3.79-.86-7.39,0-2.66.16-5.82.48-9.21A65.35,65.35,0,0,1,38.28,22.14Z" fill="url(#cy)"/>
                  <path d="M38.32,22.14a15.29,15.29,0,0,1,1.36-3.49c.5-.84,1-1.29,1.55-1.31v-.21c-.65,0-1.22.55-1.73,1.41C38,21.12,36.88,26.92,36.3,33c-.32,3.4-.48,6.57-.48,9.24a34.22,34.22,0,0,0,.39,5.81,6.26,6.26,0,0,0,.49,1.66c.2.39.44.63.76.64v-.2h0c-.19,0-.39-.17-.58-.53-.56-1.09-.85-3.79-.85-7.38,0-2.66.16-5.82.48-9.22A66.47,66.47,0,0,1,38.32,22.14Z" fill="url(#cz)"/>
                  <path d="M37.51,50.18c-.19,0-.39-.16-.58-.52-.56-1.09-.85-3.79-.85-7.38,0-2.66.16-5.82.48-9.22a66.47,66.47,0,0,1,1.81-10.92,15.29,15.29,0,0,1,1.36-3.49c.5-.84,1-1.29,1.55-1.31v-.21c-.65,0-1.22.55-1.73,1.41C38,21.12,36.92,26.92,36.34,33c-.32,3.4-.48,6.57-.48,9.24a34.27,34.27,0,0,0,.39,5.82,6.29,6.29,0,0,0,.49,1.65c.2.39.45.64.76.65Z" fill="url(#da)"/>
                </g>
                <g>
                  <path d="M38,50.24c-.23,0-.43-.18-.62-.55-.56-1.1-.85-3.78-.85-7.37,0-2.67.15-5.85.48-9.26a66.56,66.56,0,0,1,1.81-10.94,15.69,15.69,0,0,1,1.36-3.51c.5-.85,1-1.32,1.59-1.33v-.11c-.62,0-1.17.53-1.68,1.38-1.51,2.57-2.61,8.37-3.19,14.5-.32,3.42-.48,6.59-.48,9.27a35.12,35.12,0,0,0,.38,5.79,6.43,6.43,0,0,0,.48,1.63c.19.38.43.61.71.61v-.11Z" fill="url(#db)"/>
                  <path d="M38.77,22.12a15.69,15.69,0,0,1,1.36-3.51c.48-.81,1-1.27,1.52-1.32h.07v-.11c-.63,0-1.18.53-1.69,1.38-1.51,2.57-2.61,8.37-3.19,14.5-.32,3.41-.48,6.59-.48,9.27a35.21,35.21,0,0,0,.38,5.79,6.43,6.43,0,0,0,.48,1.63c.2.38.43.61.72.62v-.12h0c-.22,0-.42-.18-.61-.55-.56-1.1-.85-3.79-.85-7.37,0-2.67.16-5.85.48-9.26A66.56,66.56,0,0,1,38.77,22.12Z" fill="url(#dc)"/>
                  <path d="M38.73,22.12a15.88,15.88,0,0,1,1.36-3.51c.48-.81,1-1.27,1.52-1.32l.07,0v-.11c-.62,0-1.18.53-1.69,1.39-1.51,2.57-2.61,8.37-3.19,14.5-.32,3.41-.48,6.59-.48,9.26a35.34,35.34,0,0,0,.38,5.8,6,6,0,0,0,.49,1.63c.19.39.43.61.72.62v-.13h0c-.22,0-.42-.18-.61-.54-.56-1.1-.85-3.79-.85-7.38,0-2.67.16-5.84.48-9.25A66.56,66.56,0,0,1,38.73,22.12Z" fill="url(#dd)"/>
                  <path d="M38.69,22.12a15.58,15.58,0,0,1,1.36-3.5c.48-.82,1-1.28,1.52-1.32,0,0,0,0,.06,0v-.11c-.63,0-1.19.53-1.7,1.39-1.51,2.57-2.61,8.37-3.19,14.5-.32,3.41-.48,6.59-.48,9.26a35.12,35.12,0,0,0,.38,5.79,6,6,0,0,0,.49,1.64c.19.39.43.62.72.62v-.13h0c-.22,0-.42-.18-.61-.55-.56-1.1-.85-3.78-.85-7.37,0-2.67.16-5.84.48-9.25A66.56,66.56,0,0,1,38.69,22.12Z" fill="url(#de)"/>
                  <path d="M38.65,22.13A15.69,15.69,0,0,1,40,18.62c.48-.82,1-1.27,1.53-1.32,0,0,0,0,.05,0v-.12c-.63,0-1.19.54-1.69,1.4-1.52,2.57-2.62,8.37-3.2,14.5-.32,3.41-.48,6.58-.48,9.25a35.17,35.17,0,0,0,.38,5.8,6.18,6.18,0,0,0,.49,1.65c.19.38.43.61.73.62v-.15h0c-.21,0-.41-.17-.6-.54-.56-1.1-.85-3.78-.85-7.38,0-2.66.16-5.83.48-9.24A66.43,66.43,0,0,1,38.65,22.13Z" fill="url(#df)"/>
                  <path d="M38.61,22.13A15.39,15.39,0,0,1,40,18.63c.49-.82,1-1.28,1.53-1.32l0,0v-.12c-.64,0-1.2.54-1.7,1.39-1.52,2.58-2.62,8.38-3.2,14.51-.32,3.41-.48,6.58-.48,9.25a34,34,0,0,0,.39,5.8A5.86,5.86,0,0,0,37,49.75c.19.38.44.62.74.62v-.15h0c-.21,0-.41-.18-.6-.54-.56-1.1-.85-3.79-.85-7.38,0-2.66.16-5.83.48-9.24A66.43,66.43,0,0,1,38.61,22.13Z" fill="url(#dg)"/>
                  <path d="M38.57,22.13a15.58,15.58,0,0,1,1.36-3.5c.49-.82,1-1.28,1.53-1.31,0,0,0-.05,0-.05v-.12c-.63,0-1.19.54-1.7,1.39-1.52,2.58-2.62,8.38-3.2,14.5-.32,3.41-.48,6.59-.48,9.26a34,34,0,0,0,.39,5.8A5.86,5.86,0,0,0,37,49.75c.2.38.44.62.74.63v-.17h0c-.21,0-.41-.17-.6-.54-.56-1.09-.85-3.78-.85-7.37,0-2.67.16-5.83.48-9.24A66.43,66.43,0,0,1,38.57,22.13Z" fill="url(#dh)"/>
                  <path d="M38.53,22.13a15.58,15.58,0,0,1,1.36-3.5c.49-.82,1-1.28,1.54-1.31,0,0,0-.05,0-.05v-.13c-.64,0-1.2.54-1.71,1.4-1.52,2.58-2.62,8.38-3.2,14.5-.32,3.41-.48,6.58-.48,9.25a34.14,34.14,0,0,0,.39,5.81,6.34,6.34,0,0,0,.48,1.65c.2.39.44.62.75.63V50.2h0c-.2,0-.4-.16-.59-.53-.56-1.09-.85-3.78-.85-7.38,0-2.66.16-5.83.48-9.23A66.43,66.43,0,0,1,38.53,22.13Z" fill="url(#di)"/>
                  <path d="M38.49,22.14a15.39,15.39,0,0,1,1.36-3.5c.49-.83,1-1.29,1.54-1.31,0,0,0-.07,0-.07v-.12c-.65,0-1.21.54-1.72,1.4-1.52,2.58-2.62,8.38-3.2,14.5-.32,3.41-.48,6.58-.48,9.25a34.22,34.22,0,0,0,.39,5.81,6.75,6.75,0,0,0,.48,1.65c.2.39.45.63.75.64V50.2h0c-.2,0-.4-.17-.59-.53-.56-1.1-.85-3.79-.85-7.38,0-2.66.16-5.83.48-9.23A66.29,66.29,0,0,1,38.49,22.14Z" fill="url(#dj)"/>
                  <path d="M38.45,22.14a15.58,15.58,0,0,1,1.36-3.5c.49-.83,1-1.29,1.54-1.31,0,0,0-.07,0-.07v-.13c-.64,0-1.21.55-1.72,1.41C38.12,21.12,37,26.92,36.44,33c-.32,3.41-.48,6.58-.48,9.25a34.22,34.22,0,0,0,.39,5.81,6.29,6.29,0,0,0,.49,1.65c.19.39.44.63.75.64v-.2h0c-.19,0-.39-.16-.58-.53-.56-1.09-.85-3.78-.85-7.37,0-2.67.16-5.83.48-9.23A66.29,66.29,0,0,1,38.45,22.14Z" fill="url(#dk)"/>
                  <path d="M38.41,22.14a15.58,15.58,0,0,1,1.36-3.5c.49-.83,1-1.28,1.55-1.3v-.21c-.65,0-1.22.55-1.73,1.41C38.07,21.12,37,26.92,36.39,33c-.32,3.41-.48,6.57-.48,9.24a34.27,34.27,0,0,0,.39,5.82,6.29,6.29,0,0,0,.49,1.65c.19.39.44.64.76.64v-.2h0c-.19,0-.39-.17-.58-.53-.56-1.09-.85-3.78-.85-7.38,0-2.66.16-5.82.48-9.22A66.47,66.47,0,0,1,38.41,22.14Z" fill="url(#dl)"/>
                  <path d="M37.51,50.18c-.19,0-.39-.16-.58-.52-.56-1.09-.85-3.79-.85-7.38,0-2.66.16-5.82.48-9.22a66.47,66.47,0,0,1,1.81-10.92,15.29,15.29,0,0,1,1.36-3.49c.5-.84,1-1.29,1.55-1.31v-.21c-.65,0-1.22.55-1.73,1.41C38,21.12,36.92,26.92,36.34,33c-.32,3.4-.48,6.57-.48,9.24a34.27,34.27,0,0,0,.39,5.82,6.29,6.29,0,0,0,.49,1.65c.2.39.45.64.76.65Z" fill="url(#da)"/>
                </g>
              </g>
            </g>
          </g>
          <g style="mix-blend-mode: multiply">
            <g clip-path="url(#dn)">
              <g>
                <g>
                  <path d="M34.69,50.19c-.24,0-.46-.19-.66-.58-.6-1.14-.9-3.91-.9-7.56,0-2.63.15-5.71.46-9a65.82,65.82,0,0,1,1.83-10.87,15.5,15.5,0,0,1,1.38-3.5c.51-.84,1.05-1.31,1.61-1.33v-.1c-.63,0-1.19.52-1.7,1.37-1.54,2.56-2.64,8.34-3.23,14.42-.31,3.29-.46,6.37-.46,9a34.5,34.5,0,0,0,.4,5.93,6.85,6.85,0,0,0,.51,1.69c.21.39.46.62.76.63Z" fill="url(#do)"/>
                  <path d="M34.73,50.19c-.23,0-.45-.2-.65-.58-.6-1.14-.9-3.9-.9-7.56,0-2.62.15-5.71.46-9a65.82,65.82,0,0,1,1.83-10.87,15.5,15.5,0,0,1,1.38-3.5c.5-.84,1-1.31,1.61-1.32v-.12c-.63,0-1.2.53-1.71,1.38-1.54,2.56-2.64,8.34-3.23,14.42-.31,3.29-.46,6.37-.46,9a34.5,34.5,0,0,0,.4,5.93A6.85,6.85,0,0,0,34,49.67c.21.39.46.63.76.63Z" fill="url(#dp)"/>
                  <path d="M34.78,50.18c-.24,0-.45-.19-.65-.57-.6-1.14-.91-3.9-.9-7.56,0-2.62.15-5.7.46-9a65.82,65.82,0,0,1,1.83-10.87,15,15,0,0,1,1.38-3.5c.5-.84,1-1.3,1.6-1.32v-.13c-.63,0-1.2.53-1.71,1.39-1.54,2.56-2.64,8.33-3.23,14.42-.31,3.29-.46,6.37-.46,9A34.42,34.42,0,0,0,33.5,48,6.85,6.85,0,0,0,34,49.67c.21.4.46.63.77.64Z" fill="url(#dq)"/>
                  <path d="M34.82,50.18c-.23,0-.45-.19-.65-.57-.59-1.13-.9-3.9-.89-7.56,0-2.62.15-5.7.46-9a65.82,65.82,0,0,1,1.83-10.87A14.61,14.61,0,0,1,37,18.69c.5-.84,1-1.3,1.6-1.31v-.14c-.63,0-1.2.53-1.71,1.38C35.29,21.19,34.19,27,33.6,33.05c-.31,3.29-.46,6.38-.46,9a34.63,34.63,0,0,0,.4,5.94,6.85,6.85,0,0,0,.51,1.69c.21.39.46.63.77.64Z" fill="url(#dr)"/>
                  <path d="M34.86,50.17c-.22,0-.44-.18-.64-.56-.59-1.13-.9-3.9-.89-7.55,0-2.63.15-5.71.46-9a65.82,65.82,0,0,1,1.83-10.87A14.35,14.35,0,0,1,37,18.7c.5-.84,1-1.31,1.59-1.32v-.15c-.64,0-1.21.54-1.72,1.39-1.54,2.56-2.64,8.34-3.23,14.43-.31,3.29-.46,6.38-.46,9a34.58,34.58,0,0,0,.4,5.93,6.85,6.85,0,0,0,.51,1.69c.21.39.46.63.77.64Z" fill="url(#ds)"/>
                  <path d="M34.91,50.17c-.22,0-.44-.18-.64-.56-.59-1.13-.9-3.9-.89-7.55,0-2.62.15-5.71.46-9a65.82,65.82,0,0,1,1.83-10.87,14.35,14.35,0,0,1,1.38-3.49c.5-.84,1-1.3,1.59-1.32v-.15c-.64,0-1.21.53-1.72,1.39-1.54,2.56-2.64,8.34-3.23,14.43-.31,3.29-.46,6.38-.46,9a34.5,34.5,0,0,0,.4,5.93,6.45,6.45,0,0,0,.51,1.69c.21.4.46.64.78.65Z" fill="url(#dt)"/>
                  <path d="M35,50.16c-.22,0-.43-.17-.63-.55-.59-1.13-.9-3.89-.9-7.55,0-2.62.16-5.71.47-9a65.77,65.77,0,0,1,1.83-10.88,15,15,0,0,1,1.37-3.49c.51-.84,1-1.3,1.59-1.31v-.17c-.65,0-1.22.54-1.73,1.39-1.54,2.57-2.64,8.35-3.23,14.44-.31,3.29-.46,6.38-.46,9a34.42,34.42,0,0,0,.4,5.93,6.45,6.45,0,0,0,.51,1.69c.21.4.46.64.78.65Z" fill="url(#du)"/>
                  <path d="M35,50.16c-.22,0-.44-.18-.63-.55-.59-1.13-.9-3.89-.9-7.54,0-2.63.16-5.71.47-9a65.77,65.77,0,0,1,1.83-10.88,15.16,15.16,0,0,1,1.37-3.49c.5-.84,1-1.29,1.59-1.31v-.18c-.65,0-1.22.54-1.73,1.4-1.54,2.57-2.64,8.35-3.23,14.44-.31,3.29-.46,6.39-.46,9A34.38,34.38,0,0,0,33.7,48a6.42,6.42,0,0,0,.51,1.7c.21.4.46.64.78.65Z" fill="url(#dv)"/>
                  <path d="M35,50.16c-.21,0-.43-.18-.62-.56-.59-1.12-.9-3.88-.9-7.53,0-2.63.16-5.71.47-9a65.77,65.77,0,0,1,1.83-10.88,15.16,15.16,0,0,1,1.37-3.49c.5-.84,1-1.29,1.58-1.31v-.18c-.65,0-1.22.54-1.73,1.4C35.49,21.18,34.39,27,33.8,33.05c-.31,3.29-.46,6.39-.46,9a34.58,34.58,0,0,0,.4,5.93,6.09,6.09,0,0,0,.51,1.69c.21.4.46.64.79.65Z" fill="url(#dw)"/>
                  <path d="M35.08,50.15c-.21,0-.42-.17-.61-.55-.59-1.12-.9-3.88-.9-7.53,0-2.62.16-5.71.47-9a65.77,65.77,0,0,1,1.83-10.88,15.16,15.16,0,0,1,1.37-3.49c.5-.83,1-1.29,1.57-1.3v-.2c-.65,0-1.22.55-1.74,1.4-1.54,2.58-2.64,8.35-3.23,14.45-.31,3.3-.46,6.39-.46,9a34.5,34.5,0,0,0,.4,5.93,6.09,6.09,0,0,0,.51,1.69c.21.4.46.65.79.66Z" fill="url(#dx)"/>
                  <path d="M35.13,50.15c-.21,0-.42-.17-.62-.55-.58-1.12-.89-3.88-.89-7.53,0-2.62.16-5.71.47-9a65.77,65.77,0,0,1,1.83-10.88,15.16,15.16,0,0,1,1.37-3.49c.5-.83,1-1.28,1.57-1.3v-.2c-.65,0-1.22.54-1.74,1.4-1.54,2.57-2.64,8.35-3.23,14.45-.31,3.3-.46,6.39-.46,9a34.42,34.42,0,0,0,.4,5.93,6.17,6.17,0,0,0,.51,1.7c.21.4.47.65.79.65Z" fill="url(#dy)"/>
                  <path d="M35.17,50.14c-.2,0-.41-.16-.61-.54-.58-1.12-.89-3.88-.89-7.52,0-2.63.16-5.72.47-9A65.77,65.77,0,0,1,36,22.19a14.88,14.88,0,0,1,1.37-3.48c.5-.84,1-1.29,1.56-1.3v-.22c-.66,0-1.23.55-1.75,1.4-1.54,2.58-2.64,8.36-3.23,14.46-.31,3.3-.46,6.39-.46,9a34.38,34.38,0,0,0,.4,5.92,6.06,6.06,0,0,0,.51,1.7c.21.4.47.65.8.66Z" fill="url(#dz)"/>
                </g>
                <g>
                  <path d="M35.65,50.21c-.24,0-.45-.19-.65-.57-.59-1.13-.89-3.88-.89-7.52,0-2.63.16-5.74.47-9.06a65.9,65.9,0,0,1,1.83-10.89,15.08,15.08,0,0,1,1.37-3.5c.5-.85,1-1.31,1.61-1.33v-.11c-.62,0-1.18.53-1.69,1.38-1.53,2.56-2.64,8.34-3.22,14.44-.31,3.32-.47,6.43-.47,9.07a35.07,35.07,0,0,0,.4,5.9,6.31,6.31,0,0,0,.5,1.67c.2.39.45.62.74.62v-.1Z" fill="url(#ea)"/>
                  <path d="M36.37,22.17a15.08,15.08,0,0,1,1.37-3.5c.48-.81,1-1.27,1.53-1.32h.07v-.11c-.63,0-1.19.53-1.7,1.38C36.11,21.17,35,27,34.42,33.05c-.31,3.32-.47,6.43-.47,9.07a35,35,0,0,0,.4,5.89,6.28,6.28,0,0,0,.5,1.68c.21.39.45.62.75.63V50.2h0c-.23,0-.44-.19-.64-.57-.59-1.13-.89-3.87-.89-7.51,0-2.63.16-5.74.47-9.06A65.9,65.9,0,0,1,36.37,22.17Z" fill="url(#eb)"/>
                  <path d="M36.33,22.17a15.26,15.26,0,0,1,1.37-3.5c.48-.81,1-1.27,1.53-1.31l.07,0v-.12c-.63,0-1.19.53-1.7,1.39C36.06,21.17,35,27,34.37,33.05c-.31,3.32-.47,6.43-.47,9.07A35,35,0,0,0,34.3,48a6.24,6.24,0,0,0,.51,1.68c.2.39.45.62.75.63v-.13h0c-.23,0-.44-.18-.64-.56-.59-1.13-.89-3.87-.89-7.51,0-2.64.16-5.74.47-9.06A65.9,65.9,0,0,1,36.33,22.17Z" fill="url(#ec)"/>
                  <path d="M36.29,22.17a15.16,15.16,0,0,1,1.37-3.49c.48-.81,1-1.27,1.54-1.32a.09.09,0,0,0,0,0v-.11c-.63,0-1.2.53-1.71,1.39C36,21.17,34.91,27,34.32,33.05c-.31,3.32-.47,6.42-.47,9.06a35.07,35.07,0,0,0,.4,5.9,6.24,6.24,0,0,0,.51,1.68c.2.39.45.63.75.64v-.14h0c-.23,0-.44-.19-.64-.56-.59-1.13-.89-3.88-.89-7.52,0-2.63.16-5.73.47-9A65.9,65.9,0,0,1,36.29,22.17Z" fill="url(#ed)"/>
                  <path d="M36.25,22.18a15.08,15.08,0,0,1,1.37-3.5c.49-.81,1-1.27,1.54-1.31,0,0,0,0,.05,0v-.11c-.64,0-1.21.53-1.72,1.38C36,21.17,34.86,27,34.27,33.05c-.31,3.31-.47,6.42-.47,9.06a35.15,35.15,0,0,0,.4,5.9,6.24,6.24,0,0,0,.51,1.68c.2.4.45.63.76.64v-.15h0c-.22,0-.43-.18-.63-.56-.58-1.12-.89-3.87-.89-7.51,0-2.63.16-5.74.47-9A66,66,0,0,1,36.25,22.18Z" fill="url(#ee)"/>
                  <path d="M36.21,22.18a15.08,15.08,0,0,1,1.37-3.5c.49-.81,1-1.27,1.54-1.31,0,0,0,0,.05,0v-.12c-.64,0-1.2.54-1.72,1.39-1.53,2.57-2.63,8.35-3.22,14.45-.31,3.31-.47,6.42-.47,9.05a35.29,35.29,0,0,0,.4,5.91,6.62,6.62,0,0,0,.51,1.68c.2.4.46.64.77.64v-.15h0c-.22,0-.43-.18-.63-.56-.58-1.12-.89-3.87-.89-7.52,0-2.63.16-5.73.47-9A66,66,0,0,1,36.21,22.18Z" fill="url(#ef)"/>
                  <path d="M36.17,22.18a15,15,0,0,1,1.37-3.49c.49-.82,1-1.28,1.55-1.31,0,0,0-.05,0-.05v-.12c-.64,0-1.21.54-1.73,1.39-1.53,2.57-2.63,8.35-3.22,14.45-.31,3.31-.47,6.41-.47,9.05A34.09,34.09,0,0,0,34.11,48a6.49,6.49,0,0,0,.5,1.69c.21.39.46.63.77.64v-.17h0c-.22,0-.43-.18-.63-.55-.58-1.13-.89-3.88-.89-7.52,0-2.63.16-5.73.47-9A66,66,0,0,1,36.17,22.18Z" fill="url(#eg)"/>
                  <path d="M36.13,22.18a15.16,15.16,0,0,1,1.37-3.49c.49-.82,1-1.28,1.55-1.31,0,0,0-.05,0-.05V17.2c-.64,0-1.21.55-1.72,1.4-1.54,2.57-2.64,8.35-3.23,14.45-.31,3.31-.47,6.41-.47,9A34.22,34.22,0,0,0,34.06,48a6.49,6.49,0,0,0,.5,1.69c.21.39.46.64.78.64v-.17h0c-.21,0-.42-.18-.62-.56-.58-1.12-.89-3.87-.89-7.52,0-2.62.16-5.72.47-9A65.9,65.9,0,0,1,36.13,22.18Z" fill="url(#eh)"/>
                  <path d="M36.09,22.18a14.88,14.88,0,0,1,1.37-3.48c.49-.83,1-1.29,1.55-1.31,0,0,0-.06,0-.06V17.2c-.65,0-1.22.54-1.73,1.4-1.54,2.57-2.64,8.35-3.23,14.45-.31,3.3-.46,6.4-.47,9A35.25,35.25,0,0,0,34,48a6.09,6.09,0,0,0,.51,1.69c.2.39.46.64.78.65v-.19h0c-.21,0-.42-.17-.62-.55-.58-1.12-.89-3.87-.89-7.52,0-2.63.16-5.72.47-9A65.9,65.9,0,0,1,36.09,22.18Z" fill="url(#ei)"/>
                  <path d="M36.05,22.19a14.8,14.8,0,0,1,1.37-3.49c.49-.83,1-1.28,1.56-1.31,0,0,0-.06,0-.06V17.2c-.65,0-1.22.54-1.73,1.4C35.71,21.17,34.61,27,34,33.05c-.31,3.3-.46,6.4-.47,9A35.25,35.25,0,0,0,34,48a6.09,6.09,0,0,0,.51,1.69c.2.4.46.64.78.65v-.19h0c-.21,0-.42-.18-.62-.55-.58-1.12-.89-3.88-.89-7.52,0-2.63.16-5.72.47-9A65.59,65.59,0,0,1,36.05,22.19Z" fill="url(#ej)"/>
                  <path d="M36,22.19a15.16,15.16,0,0,1,1.37-3.49c.5-.83,1-1.28,1.56-1.3v-.21c-.65,0-1.23.55-1.74,1.41C35.66,21.17,34.56,27,34,33.05c-.31,3.3-.46,6.4-.46,9a34.58,34.58,0,0,0,.4,5.93,6.09,6.09,0,0,0,.51,1.69c.2.4.46.65.79.66v-.21h0c-.2,0-.41-.17-.61-.55-.58-1.11-.89-3.87-.89-7.52,0-2.62.16-5.72.47-9A65.59,65.59,0,0,1,36,22.19Z" fill="url(#ek)"/>
                  <path d="M35.17,50.14c-.2,0-.41-.16-.61-.54-.58-1.12-.89-3.88-.89-7.52,0-2.63.16-5.72.47-9A65.77,65.77,0,0,1,36,22.19a14.88,14.88,0,0,1,1.37-3.48c.5-.84,1-1.29,1.56-1.3v-.22c-.66,0-1.23.55-1.75,1.4-1.54,2.58-2.64,8.36-3.23,14.46-.31,3.3-.46,6.39-.46,9a34.38,34.38,0,0,0,.4,5.92,6.06,6.06,0,0,0,.51,1.7c.21.4.47.65.8.66Z" fill="url(#dz)"/>
                </g>
              </g>
            </g>
          </g>
        </g>
      </g>
    </g>
  </g>
</svg>
