<svg xmlns="http://www.w3.org/2000/svg" viewBox="0 0 325.33 251.33">
  <title>_</title>
  <g>
    <g>
      <g>
        <g>
          <path d="M269.77,172.44c-8-17.75-22.55-44.46-27.15-47.93-12.73,8.5-18.08,16.47-16.7,18.69s16.16,18.16,29.75,32.53c6.16,6.51,7.08,15.39,14.1,23.09s16.41,14.44,20.07,19.77c1.07,1.57,1.72,3.61,1.4,4.89-1,5,.74,6.86,3,6.73,8.6-.47,22.5,1.72,24.14.53.94-1.27.4-2.06-.54-2.22-6.85-.85-11.71-4.12-15.9-8C292.06,211.46,269.77,172.44,269.77,172.44Z" fill="#f9bb6e"/>
          <path d="M170.49,173.77c8-17.75,22.9-45.79,27.5-49.26,12.73,8.5,17.64,15.9,16.26,18.12S198.59,161.19,185,175.56c-6.16,6.51-7.29,15.56-14.32,23.26s-15.93,14-19.58,19.31c-1.07,1.57-2,4.07-1.72,5.35,1,5-.74,6.86-3,6.73-8.6-.47-22.5,1.72-24.14.53-.94-1.27-.4-2.06.54-2.22,6.85-.85,11.71-4.12,15.9-8C148.55,211.46,170.49,173.77,170.49,173.77Z" fill="#f9bb6e"/>
          <path d="M297.81,215.88c-10.59-13.52-26.4-43.24-26.4-43.24A318.2,318.2,0,0,0,248.64,132h0l0,0c-.38-.56-.75-1.09-1.11-1.6l-.11-.15c-.75-1.05-1.44-2-2.08-2.8l0-.06c-.32-.4-.62-.77-.9-1.1h0a75.08,75.08,0,0,1-6-9.42l-37.29-.21C199,121.39,190.22,134.35,190,135a322,322,0,0,0-20.78,37.61S154.58,200.12,144,214.25c-2,2.67,5.64,5.87,7.05,3.88,3.67-5.17,13.94-11.67,20.61-19,7-7.7,7.5-16,13.66-22.51,9.73-10.28,18.7-20.17,25.55-26.8h0l.64-.63c2.48-2.38,5.22-4.29,8.66-4.08h.13a13,13,0,0,1,8.29,3.69h0c6.55,6.4,16.34,17,26.6,27.82,6.16,6.52,6.63,14.81,13.66,22.51,6.87,7.54,17.45,14.21,20.93,19.45C291,220.4,299.32,217.81,297.81,215.88Z" fill="#103754"/>
          <path d="M271.41,172.64A318.2,318.2,0,0,0,248.64,132h0l0,0c-.38-.56-.75-1.09-1.11-1.6l-.11-.15c-.75-1.05-1.44-2-2.08-2.8l0-.06c-.32-.4-.62-.77-.9-1.1h0a75.08,75.08,0,0,1-6-9.42l-37.15-.21c-.13.16,9.59,13.31,21.84,18.25a72.16,72.16,0,0,0,14.6,4.74c1.1,1.16,1.85,4.1,6.65,5.84.93.34,3.35.23,6.33-.1L254,150.7l1.52-.18c4.65,8,14.08,24.47,14.22,24.81l18.77,29.36c-.11,1.45-.32,5,0,5.94.47,1.18,2.58,3.32,3.88,5.4,1.17,1.89,2.58-.1,1.07-2.52-3-4.83-.84-3.58-.84-3.58l3,8.41c1.63-.68,2.8-1.63,2.15-2.46C287.22,202.36,271.41,172.64,271.41,172.64Z" fill="#1d1d1b" opacity="0.12"/>
          <path d="M270.69,25.72l3.62,41.4,2.35,36.65c.06.31-16.54,10-16.75,5.92,0,0,1.56-43.49,2.53-44.43L263.39,27c.81-3.15,1.08-4,3.56-4.4S270.32,23.24,270.69,25.72Z" fill="#f9bb6e"/>
          <path d="M299.69,205.66s-3.43-5.68-4.73-7.42l-11.64-29.17-11.8-25.54a9.55,9.55,0,0,1,0-6.9c.4-1,.81-1.27,2.5-.66l5.34,2,5.1-14-5.34-2c-2.95-1.08-4.82-4.93-4.16-8.6l1.71-9.66c.35-2-14-.41-20.74-2.1,0,0-35.62-11.79-54.84,15,13,16.52,41.69,20.57,41.69,20.57,1.8,1,10,5.06,12.08,6.58,1.06,1.68,18.45,32,16.56,28.84l18.91,29.57c-.11,1.45-.32,5,.05,5.93.47,1.19,2.58,3.33,3.88,5.41,1.17,1.88,2.58-.1,1.07-2.53-3-4.82-.84-3.58-.84-3.58l3.51,10a3,3,0,0,0,2.74,1.76h.39v-4.94Z" fill="#f9bb6e"/>
          <path d="M271.51,136.63c.4-1,.81-1.27,2.5-.66l5.34,2,5.1-14-5.34-2a5.44,5.44,0,0,1-1.59-1c-3.86.62-7.22,1.77-8,3.7-1.1,5.1-.23,9.19,1.79,12.41C271.39,137,271.44,136.81,271.51,136.63Z" fill="#774329" opacity="0.1"/>
          <polygon points="270.88 139.86 273.54 146.11 255.8 148.22 251.16 140.91 270.88 139.86" fill="#a9b641"/>
          <path d="M253.9,145.22c4.64-1.1,11.33-4.07,13.78-5l-.11-.22-16.41.88Z" fill="#774329" opacity="0.1"/>
          <path d="M258.43,94.11l-1.14,3.06A17,17,0,0,1,249,99.08c-11.66-.33-29.83-3-44.49,11.56,5.68,13.87,14.72,22,35,26.52,1.1,1.16,1.85,4.09,6.65,5.84,3.26,1.18,24.79-3.14,24.79-3.14s-15.71-1.66-11-12c3.09-6.74,15-14.46,15-14.46l1.51-4.07a21.86,21.86,0,0,0,1.38-7.63V95.44Z" fill="#a9b641"/>
          <path d="M269.77,175.33l-.13-.21C269.74,175.3,269.78,175.36,269.77,175.33Z" fill="#fff"/>
          <path d="M269.5,27.93l4.63-5.08a3.59,3.59,0,0,0,.9-1.28l2.84-6.43a.78.78,0,0,0-.69-1.09c-.87,0-1.47.42-2.28,1.3l-1.84,3a.75.75,0,0,1-1.39-.37l-.09-2.83c.4-5.74.49-9.23-.38-9.5-.31-.1-.91.08-1.17,1s-.35,8.28-1.34,7.86c-.27-.11-.86-6.21-1.21-9.76a1.17,1.17,0,0,0-1-1.14h0a1.13,1.13,0,0,0-1.19.87,7.27,7.27,0,0,1-.48,1.73c-.66-.14-1.56-.2-1.76,1.31l0,2.14c-.24-.73-1.65-.33-1.64.71a43.8,43.8,0,0,1-.37,6.58c0,.29-.25,2.77-.16,3.05l1.51,6.61A3.65,3.65,0,0,0,266.21,29l1.21-.13A3.65,3.65,0,0,0,269.5,27.93Z" fill="#f9bb6e"/>
          <path d="M275.94,138.9c-.92,7.23,24.74,30.69,35.62,10.07,8.69-9.6,1.94-21.22-5.85-24.8C286.4,115.29,279.69,124,275.94,138.9Z" fill="#5e6057"/>
          <path d="M304.39,162.7a10,10,0,1,1,13-5.7A10.05,10.05,0,0,1,304.39,162.7Z" fill="#5e6057"/>
          <path d="M283.05,148.26c-1.8-1.82-3.12-5.21-2.44-5.89s2.69.26,4.49,2.08,2.72,3.84,2,4.52S284.85,150.08,283.05,148.26Z" fill="#f9bb6e"/>
          <path d="M272,126.15c-4.9,22.72,29.15,25.62,30.67,19.14-5.57-11,.09-19.24-9.15-22.84C291.45,121.37,273.83,121.4,272,126.15Z" fill="#f9bb6e"/>
          <path d="M246.93,130.1a4.65,4.65,0,0,1-1.2-.14,9.53,9.53,0,0,1-6.64-6.65,9.65,9.65,0,0,1,.42-6.38.9.9,0,0,1,1.17-.46.88.88,0,0,1,.46,1.17,7.83,7.83,0,0,0,5.07,10.61,8.08,8.08,0,0,0,3-.24l.87-.16a.89.89,0,0,1,1,.73.88.88,0,0,1-.73,1l-.82.16A15.12,15.12,0,0,1,246.93,130.1Z" fill="#774329" opacity="0.1"/>
        </g>
        <g>
          <path d="M94.22,209.64c-4.9-10.85-14.78-27.28-17.59-29.39-7.77,5.19-11.75,11-10.9,12.32s12.49,11.81,20.79,20.59c3.76,4,3,8,7.26,12.66,5.64,6.19,13.41,11.42,12.55,14.86-.61,3,.45,4.19,1.85,4.11,5.25-.28,12.74,1.05,13.74.32.58-.77.24-1.25-.33-1.35-4.18-.52-6.15-2.51-8.71-4.86C106.83,233.34,94.22,209.64,94.22,209.64Z" fill="#f6d3a9"/>
          <path d="M31.8,209.64c4.9-10.85,14.77-27.28,17.58-29.39,7.77,5.19,11.75,11,10.91,12.32S47.8,204.38,39.5,213.16c-3.76,4-3,8-7.26,12.66C26.6,232,18.83,237.24,19.69,240.68c.61,3-.45,4.19-1.85,4.11-5.25-.28-12.74,1.05-13.74.32-.58-.77-.25-1.25.32-1.35,4.19-.52,6.16-2.51,8.72-4.86C19.19,233.34,31.8,209.64,31.8,209.64Z" fill="#f6d3a9"/>
          <path d="M80.31,184.84h0a41.86,41.86,0,0,0-2.6-3.51A46.06,46.06,0,0,1,74,175.57l-22.77-.13c-1.29,2.9-6.15,10-6.15,10h0a168.62,168.62,0,0,0-13,22.4s3.33,4.95,8.71,6.33c6.12-6.29,12.37-14.35,16.46-18.47,1.62-1.63,3.4-3,5.69-2.88H63a8,8,0,0,1,5.07,2.26c4,3.91,10.82,12.47,17.08,19.09,6.12-2.87,8.73-6.06,8.73-6.06C90.36,200.26,84.5,191,80.31,184.84Z" fill="#eb881e"/>
          <path d="M80.31,184.84h0a41.86,41.86,0,0,0-2.6-3.51A46.06,46.06,0,0,1,74,175.57l-22.77-.13c-1.29,2.9-6.15,10-6.15,10h0a168.62,168.62,0,0,0-13,22.4s3.33,4.95,8.71,6.33c6.12-6.29,12.37-14.35,16.46-18.47,1.62-1.63,3.4-3,5.69-2.88H63a8,8,0,0,1,5.07,2.26c4,3.91,10.82,12.47,17.08,19.09,6.12-2.87,8.73-6.06,8.73-6.06C90.36,200.26,84.5,191,80.31,184.84Z" fill="#eb881e"/>
          <path d="M69.42,190.86s4.37,2.35,7.29,2.8l.66.08c2.56,3.26,15.26,19.35,16,19.35l11.4,16.37a14.44,14.44,0,0,0,0,3.62c.28.73,2.14,3,2.93,4.3s2.19-1.26,1.73,2.14c-.12.89.41,1.43.85,1.12a4.64,4.64,0,0,0,.64-1.21l1.2-1.26c-.2-.21-.4-.43-.6-.67a25.61,25.61,0,0,1-1.81-2.24c-6.44-8.56-15.52-25.63-15.52-25.63q-.27-.6-.57-1.23l.27-.29A167,167,0,0,0,81,185.88c-.24-.36-.47-.71-.7-1h0v0c-.23-.34-.45-.66-.68-1l-.06-.1c-.46-.64-.88-1.21-1.27-1.7l0,0-.55-.67h0A46.06,46.06,0,0,1,74,175.57l-21.3-.12C55.33,180.56,63.19,187.56,69.42,190.86Z" fill="#1d1d1b" opacity="0.07"/>
          <path d="M93.78,119.91,96,145.19l1.52,22c0,.18-10.19,6.49-10.32,4,0,0,1-26.56,1.55-27.13l.58-23.34c.5-1.93.66-2.47,2.18-2.7S93.55,118.4,93.78,119.91Z" fill="#f6d3a9"/>
          <path d="M51.27,175.44C63,159.09,89.17,164,89.17,164c4.1,1,8.47,2.42,8.26,3.62l-1.05,5.89c-.4,2.25.74,4.6,2.54,5.26l3.26,1.19-3.11,8.52-3.27-1.2c-1.8-.66-4.19.41-5.33,2.37l-3,5.18c-.66,1.14-1-2.69-5-4.88C82.45,189.91,62,188.79,51.27,175.44Z" fill="#f6d3a9"/>
          <path d="M111.68,228.77c-1.18-1.28-2.29-2.44-3.08-3.5l-8.54-18-9.59-17.63c-4.3-1.57-12.23-.73-10.58,1.14,0,0,13.65,20.58,14.48,20.58l11.39,16.36a15,15,0,0,0,0,3.63c.28.72,2.13,3,2.92,4.3s1.58-.06.66-1.55c-1.82-2.94-1.07-3.18-1.07-3.18s2.61,3.46,2.15,6.87c-.12.89.41,1.43.85,1.11a4.46,4.46,0,0,0,.64-1.2l1.79-1.89.16-2.71A25,25,0,0,0,111.68,228.77Z" fill="#f6d3a9"/>
          <path d="M128.18,194.62c10.6-22.9-22.06-21.5-29.46-13.91a8.91,8.91,0,0,0-1.31,5.42C98,200.79,122.07,217.1,128.18,194.62Z" fill="#3e3431"/>
          <path d="M117.87,176c.1-.73-.38-1.93-2.34-2.2s-4.67.49-4.77,1.23-.46.71,1.5,1S117.76,176.75,117.87,176Z" fill="#f6d3a9"/>
          <path d="M109.15,197.05c.4-.63-3.72-2.84-4.61-4.26-1.05-1.67-1.05-.22-1.45.41s1.19,3,2.86,4S108.76,197.67,109.15,197.05Z" fill="#f6d3a9"/>
          <path d="M95.8,187.24l3.27,1.2,3.11-8.52-3.26-1.19a2.87,2.87,0,0,1-.4-.18A12.93,12.93,0,0,0,94.14,182a12,12,0,0,0-2.9,6.6,5,5,0,0,1,.65-.57A4.29,4.29,0,0,1,95.8,187.24Z" fill="#774329" opacity="0.1"/>
          <path d="M70.62,188.6S75,191,77.91,191.4c8.39,1.29,12.56-1.79,12.56-1.79s-5-2.46-2.3-9.9,8.21-6.24,8.21-6.24l.27-2.31-9-8.63s-21.68-3.3-34.35,9.25C59.1,176.21,63.8,185,70.62,188.6Z" fill="#745684"/>
          <path d="M115.66,198.12a21.13,21.13,0,0,1,4.93-6.09,28.3,28.3,0,0,1,.35-8.7,4.63,4.63,0,0,0-3.57-5.38c-2.2-.51-5-.64-5-2.29a49,49,0,0,0-5.37,0c-3.95.22-10.2,4.7-11.12,7.21s-.47,7.72,3.6,12.53a18.31,18.31,0,0,0,3.45,3A15.78,15.78,0,0,1,109.5,200,4.62,4.62,0,0,0,115.66,198.12Z" fill="#f6d3a9"/>
          <path d="M129.21,216.5c6.63-6.22-1.87-13.47-8.16-17.14a20,20,0,0,1,1.93,3.38c3.52,6.26-2.55,12.73-5.67,8.18C112.69,215.34,123.19,222.16,129.21,216.5Z" fill="#3e3431"/>
          <path d="M123.46,204.83l2.45-2.1a1,1,0,1,0-1.27-1.49l-2.45,2.1a1,1,0,0,0,1.27,1.49Z" fill="#f8f4e6"/>
          <path d="M143.42,191.35c-1.13-8.39-10-9.51-17.16-8.25,5,1.63,1.92,2.29,4.73,2.8,7.61,1.36,5.19,9.9-.13,8.45C130.19,200.7,144.7,200.79,143.42,191.35Z" fill="#3e3431"/>
          <path d="M131.67,185.64l-.52-3.18a1,1,0,1,0-1.92.31l.52,3.19a1,1,0,0,0,1.92-.32Z" fill="#f8f4e6"/>
          <path d="M93.82,122.54l3.33-3.65a2.55,2.55,0,0,0,.64-.92l2-4.62a.56.56,0,0,0-.51-.78c-.62,0-1,.3-1.63.93l-1.33,2.15a.53.53,0,0,1-1-.27l-.07-2c.29-4.12.35-6.63-.27-6.83-.22-.07-.65.06-.84.69s-.25,5.94-1,5.64c-.2-.08-.62-4.46-.87-7a.86.86,0,0,0-.7-.82h0a.82.82,0,0,0-.86.63c-.31,1.25-1.3,0-1.5,1.42,0,0,.32,6.91-.33,6.64s-1.48-4.27-1.48-4.27a.5.5,0,0,0-1,.14,19.13,19.13,0,0,0,.6,4.83c0,.21-.18,2-.11,2.19l1.68,5a2.63,2.63,0,0,0,2.77,1.76l.86-.09A2.65,2.65,0,0,0,93.82,122.54Z" fill="#f6d3a9"/>
        </g>
      </g>
      <path d="M107,184.81a2.83,2.83,0,0,0-1.15,1.52,1.7,1.7,0,0,0,0,.92,4.93,4.93,0,0,0,.4.92c-.13-.12-.24-.25-.36-.38a3.42,3.42,0,0,1-.26-.46,1.7,1.7,0,0,1-.11-1.07A2.13,2.13,0,0,1,107,184.81Z" fill="#e7ad8b"/>
      <path d="M111.77,184a1.22,1.22,0,1,1,1.76-.61A1.33,1.33,0,0,1,111.77,184Z" fill="#3a1e0a"/>
      <path d="M109,193.12a1.13,1.13,0,1,1,1.63-.56A1.23,1.23,0,0,1,109,193.12Z" fill="#3a1e0a"/>
      <path d="M115.08,181.65a.34.34,0,0,1,.2-.22.39.39,0,0,1,.53.19,3.48,3.48,0,0,1-1.06,3.75.4.4,0,0,1-.56-.1.41.41,0,0,1,.11-.56,2.69,2.69,0,0,0,.79-2.75A.37.37,0,0,1,115.08,181.65Z" fill="#3e3431"/>
      <path d="M111.19,194.69a.41.41,0,0,1,.22-.23,2.47,2.47,0,0,0,1-2.77.4.4,0,1,1,.77-.22,3.25,3.25,0,0,1-1.49,3.73.4.4,0,0,1-.53-.21A.39.39,0,0,1,111.19,194.69Z" fill="#3e3431"/>
      <path d="M100.83,185.35a4.34,4.34,0,0,1,1.74-2.63.42.42,0,0,1,.57.15.43.43,0,0,1-.15.57,3.93,3.93,0,0,0-1.5,2.84,2.23,2.23,0,0,0,.4,1.84.41.41,0,0,1,0,.58.42.42,0,0,1-.59,0,3,3,0,0,1-.65-2.54A5.26,5.26,0,0,1,100.83,185.35Z" fill="#dd9666"/>
    </g>
    <g>
      <path d="M283.38,131.42a5.84,5.84,0,0,0-.94.75,3,3,0,0,0-.66.93,2.27,2.27,0,0,0-.23,1.1,5.57,5.57,0,0,0,.19,1.18,2.78,2.78,0,0,1-.48-1.16,2.27,2.27,0,0,1,.17-1.28A2.89,2.89,0,0,1,283.38,131.42Z" fill="#d39000"/>
      <path d="M276.41,130.63a4.64,4.64,0,0,1,3-3,.45.45,0,0,1,.56.36.49.49,0,0,1-.36.59,3.77,3.77,0,0,0-2.35,2.58,3.87,3.87,0,0,0,0,3.29.49.49,0,0,1-.1.68.46.46,0,0,1-.66-.07,4.73,4.73,0,0,1-.17-4.22A1.07,1.07,0,0,1,276.41,130.63Z" fill="#d39000"/>
      <path d="M285.35,141.08c-1-.4-.45-.31.11-1.76s.08-1.78,1.11-1.37a1.7,1.7,0,1,1-1.22,3.13Z" fill="#103754"/>
      <path d="M289.19,131.13c-1-.4-.45-.31.11-1.76s.08-1.78,1.11-1.38a1.71,1.71,0,1,1-1.22,3.14Z" fill="#103754"/>
      <path d="M293.71,128.42a.5.5,0,0,1,.31-.35.52.52,0,0,1,.67.29c.44,1.1-.06,3.94-1.29,4.68a.51.51,0,1,1-.53-.88c.75-.45,1.15-2.7.86-3.42A.51.51,0,0,1,293.71,128.42Z" fill="#5e6057"/>
      <path d="M290,139a.51.51,0,0,1,.36-.32.52.52,0,0,1,.62.39,5.37,5.37,0,0,1-1.85,4.74.51.51,0,1,1-.59-.84,4.34,4.34,0,0,0,1.43-3.68A.48.48,0,0,1,290,139Z" fill="#5e6057"/>
    </g>
  </g>
</svg>
