<svg xmlns="http://www.w3.org/2000/svg" viewBox="0 0 150 75">
  <title>_</title>
  <g>
    <path d="M9.24,30.52c.14,0,.27.05.41.06.31,0,.62,0,.92,0a11.1,11.1,0,0,0,9.54-6.08A12.71,12.71,0,0,0,9.24,30.52Z" fill="none"/>
    <path d="M23.42,21.18c-.07.3-.14.6-.22.89s-.15.52-.23.77a15.12,15.12,0,0,1,2,.53A17.16,17.16,0,0,1,26.27,21a24,24,0,0,1-2.64-1.17c-.05.45-.12.89-.21,1.33Z" fill="none"/>
    <path d="M16.26,7.11a14.08,14.08,0,0,0,4.18,7.46,15.27,15.27,0,0,0,1.2,1.07,12.17,12.17,0,0,0-5.38-8.53" fill="none"/>
    <path d="M34.72,20.14A18.31,18.31,0,0,0,45.54,16.7a14.27,14.27,0,0,0-4.3-1.11q-.69-.06-1.38-.06a14.29,14.29,0,0,0-10,4,24.21,24.21,0,0,0,3,.49C33.47,20.11,34.1,20.14,34.72,20.14Z" fill="none"/>
    <path d="M28.84,39.21A14.36,14.36,0,0,0,32,42a12.19,12.19,0,0,0,1-3.86,12.39,12.39,0,0,0-6.94-12.21,14.1,14.1,0,0,0-.49,2.62A14.35,14.35,0,0,0,28.84,39.21Z" fill="none"/>
    <path d="M21.88,25.36c.12-.22.23-.44.34-.66h0Q22.06,25,21.88,25.36Z" fill="#39afc8"/>
    <path d="M21.5,20.77a13.08,13.08,0,0,1-.42,1.55h0A13.79,13.79,0,0,0,21.5,20.77Z" fill="#39afc8"/>
    <path d="M16.26,7.11a12.17,12.17,0,0,1,5.38,8.53,19.89,19.89,0,0,0,2.11,1.48A14.13,14.13,0,0,0,16,4.77" fill="#00a2c5"/>
    <path d="M23,22.84h0c.08-.25.16-.51.23-.77C23.13,22.33,23.05,22.59,23,22.84Z" fill="#39afc8"/>
    <path d="M34.72,20.14c-.62,0-1.25,0-1.87-.09a24.21,24.21,0,0,1-3-.49,14,14,0,0,0-1.77,2.07,25,25,0,0,0,4.53.85,20.94,20.94,0,0,0,2.1.1A20.59,20.59,0,0,0,47.85,18h0a14.84,14.84,0,0,0-2.31-1.27A18.31,18.31,0,0,1,34.72,20.14Z" fill="#fdb714"/>
    <path d="M13.68,6.45a16.42,16.42,0,0,0,5.05,9.88,20.59,20.59,0,0,0,3.05,2.43c.59.39,1.21.75,1.85,1.09A24,24,0,0,0,26.27,21a16.31,16.31,0,0,1,1.56-2,21.29,21.29,0,0,1-4.08-1.87,19.89,19.89,0,0,1-2.11-1.48,15.27,15.27,0,0,1-1.2-1.07,14.08,14.08,0,0,1-4.18-7.46" fill="#fdb714"/>
    <path d="M25,23.37a14.4,14.4,0,0,1,1.72.7,14.17,14.17,0,0,1,1.37-2.44,14,14,0,0,1,1.77-2.07,14.29,14.29,0,0,1,10-4q.69,0,1.38.06a14.27,14.27,0,0,1,4.3,1.11A14.84,14.84,0,0,1,47.85,18a21,21,0,0,0-.78-2.6,16.13,16.13,0,0,0-5.65-1.62c-.52-.05-1.05-.07-1.56-.07A16.11,16.11,0,0,0,26.27,21,17.16,17.16,0,0,0,25,23.37Z" fill="#f37421"/>
    <path d="M28.84,39.21a14.35,14.35,0,0,1-3.28-10.67,14.1,14.1,0,0,1,.49-2.62,13.79,13.79,0,0,0-1.72-.71,17.16,17.16,0,0,0-.62,3.16,16.23,16.23,0,0,0,3.71,12,16,16,0,0,0,3.64,3.19h0A11.41,11.41,0,0,0,32,42,14.36,14.36,0,0,1,28.84,39.21Z" fill="#f37421"/>
    <path d="M23,22.84h0s0,.07,0,.11a15.69,15.69,0,0,1-.72,1.75h0a13.26,13.26,0,0,1,2.11.51,13.79,13.79,0,0,1,1.72.71A12.39,12.39,0,0,1,33,38.13,12.19,12.19,0,0,1,32,42a11.41,11.41,0,0,1-.89,1.6,20.89,20.89,0,0,0,2.62-.65,14.06,14.06,0,0,0,1.26-4.63A14.62,14.62,0,0,0,25,23.37,15.12,15.12,0,0,0,23,22.84Z" fill="#c4d600"/>
    <path d="M20.11,24.54h0A13.46,13.46,0,0,0,21,22.6l-.82,0A14.66,14.66,0,0,0,7.28,30a22,22,0,0,0,1,2.38,12,12,0,0,1,.92-1.83A12.71,12.71,0,0,1,20.11,24.54Z" fill="#c4d600"/>
    <path d="M21.78,18.76l0,.41c-.06.54-.14,1.08-.25,1.6a13.79,13.79,0,0,1-.42,1.56h0a2.18,2.18,0,0,1-.11.27,13.46,13.46,0,0,1-.86,1.94h0a11.1,11.1,0,0,1-9.54,6.08c-.3,0-.61,0-.92,0-.14,0-.27,0-.41-.06a12,12,0,0,0-.92,1.83h0c.37.07.76.14,1.14.18s.75,0,1.11,0a13,13,0,0,0,11.22-7h0a1.51,1.51,0,0,0,.09-.18q.18-.33.33-.66A15.69,15.69,0,0,0,22.93,23s0-.07,0-.11c.08-.25.16-.51.23-.77s.15-.59.22-.89.16-.88.21-1.33C23,19.51,22.37,19.15,21.78,18.76Z" fill="#00a2c5"/>
    <g>
      <g>
        <path d="M38.13,30.64c0-4.13,2.93-5.39,5.22-5.39a4.28,4.28,0,0,1,4.51,3.16l-2.62.87c-.41-1.32-1-1.74-1.92-1.74-1.27,0-2.06,1.06-2.06,3.12,0,1.85.58,3.17,2,3.17.83,0,1.59-.45,2-1.85l2.58.89A4.66,4.66,0,0,1,43.22,36C40.79,36,38.13,34.66,38.13,30.64Z" fill="#00a2c5"/>
        <path d="M49.18,21.44H52.3v5.65a4.41,4.41,0,0,1,3.57-1.84,2.71,2.71,0,0,1,3,3v7.56H55.78V29.24c0-.93-.35-1.41-1.21-1.41a3.47,3.47,0,0,0-2.27,1v7H49.18Z" fill="#00a2c5"/>
        <path d="M61,21.54h3.14V24H61Zm0,3.92h3.1V35.81H61Z" fill="#00a2c5"/>
        <path d="M66.41,21.44h3.11V35.81H66.41Z" fill="#00a2c5"/>
        <path d="M71.15,30.72c0-3.57,1.65-5.47,4-5.47a3.62,3.62,0,0,1,3.14,1.51V21.44h3.13V33.28a6.47,6.47,0,0,0,.31,2.53H78.54a4.9,4.9,0,0,1-.23-1.56A3.77,3.77,0,0,1,75.13,36C72.78,36,71.15,34.29,71.15,30.72Zm7.16,1.88V28.78a2.8,2.8,0,0,0-2.06-1c-1.3,0-2,1-2,2.87s.62,2.91,2,2.91A2.91,2.91,0,0,0,78.31,32.6Z" fill="#00a2c5"/>
        <path d="M83.53,25.46h3.13v1.73h0a3.89,3.89,0,0,1,3.49-1.94h.1l0,2.77c-.12,0-.62-.06-.82-.06a3.44,3.44,0,0,0-2.75,1.42v6.43H83.53Z" fill="#00a2c5"/>
        <path d="M90.46,30.64a5.08,5.08,0,0,1,5.2-5.39c2.14,0,4.76,1.06,4.76,5.76v.47H93.57A2.24,2.24,0,0,0,96,33.84,4.75,4.75,0,0,0,99,32.6l1.2,1.87A6.65,6.65,0,0,1,95.74,36C93,36,90.46,34.64,90.46,30.64Zm7.16-1c-.15-1.45-.81-2.15-2-2.15-1,0-1.8.64-2,2.15Z" fill="#00a2c5"/>
        <path d="M102,25.46h3.13v1.63a4.4,4.4,0,0,1,3.57-1.84,2.71,2.71,0,0,1,3,3v7.56h-3.11V29.24c0-.93-.35-1.41-1.22-1.41a3.42,3.42,0,0,0-2.25,1v7H102Z" fill="#00a2c5"/>
        <path d="M114.66,24.45h-1.08v-3h3.2V24.2l-1.48,2.58h-1.45Z" fill="#00a2c5"/>
        <path d="M117.24,34.43l1.25-1.75A5.7,5.7,0,0,0,122.08,34c1,0,1.65-.33,1.65-1s-.55-1-2-1.24c-2-.35-4.06-.82-4.06-3.24,0-2.08,1.71-3.28,4-3.28a6.67,6.67,0,0,1,4.54,1.45l-1.22,1.77a5.54,5.54,0,0,0-3-1.13c-.89,0-1.4.35-1.4.91s.57.88,1.85,1.11c2,.35,4.19.82,4.19,3.16,0,2.51-2.17,3.5-4.56,3.5A7.17,7.17,0,0,1,117.24,34.43Z" fill="#00a2c5"/>
      </g>
      <g>
        <path d="M38.69,47c0-4.14,2.93-5.4,5.22-5.4a4.28,4.28,0,0,1,4.5,3.17l-2.62.87c-.41-1.32-1-1.75-1.92-1.75-1.26,0-2.06,1.07-2.06,3.13,0,1.84.59,3.16,2,3.16.84,0,1.59-.45,2-1.84l2.58.89a4.67,4.67,0,0,1-4.68,3.14C41.35,52.35,38.69,51,38.69,47Z" fill="#00a2c5"/>
        <path d="M49.28,47c0-4.06,2.78-5.4,5.3-5.4s5.28,1.34,5.28,5.4-2.77,5.37-5.28,5.37S49.28,51,49.28,47Zm7.46,0c0-1.73-.6-3.13-2.16-3.13S52.41,45.13,52.41,47s.58,3.16,2.17,3.16S56.74,48.88,56.74,47Z" fill="#00a2c5"/>
        <path d="M61.51,49.35V41.79h3.13v6.64c0,.94.34,1.44,1.22,1.44a3.54,3.54,0,0,0,2.25-1v-7h3.13V52.14H68.11V50.53a4.46,4.46,0,0,1-3.57,1.82A2.71,2.71,0,0,1,61.51,49.35Z" fill="#00a2c5"/>
        <path d="M73.56,41.79h3.13v1.64a4.4,4.4,0,0,1,3.57-1.85,2.71,2.71,0,0,1,3,3v7.55H80.16V45.58c0-.93-.35-1.42-1.22-1.42a3.51,3.51,0,0,0-2.25,1v7H73.56Z" fill="#00a2c5"/>
        <path d="M84.92,47c0-4.14,2.93-5.4,5.22-5.4a4.28,4.28,0,0,1,4.5,3.17L92,45.62c-.4-1.32-1-1.75-1.92-1.75C88.84,43.87,88,44.94,88,47c0,1.84.59,3.16,2,3.16.84,0,1.59-.45,2-1.84l2.58.89A4.67,4.67,0,0,1,90,52.35C87.58,52.35,84.92,51,84.92,47Z" fill="#00a2c5"/>
        <path d="M96.29,37.87h3.15v2.51H96.29Zm0,3.92h3.11V52.14H96.31Z" fill="#00a2c5"/>
        <path d="M102,37.78h3.11V52.14H102Z" fill="#00a2c5"/>
      </g>
      <g>
        <path d="M108.4,44.42l.75-.38a1.14,1.14,0,0,0,1,.72c.4,0,.6-.21.6-.52s-.37-.55-.8-.73c-.6-.26-1.33-.55-1.33-1.47A1.31,1.31,0,0,1,110,40.77a1.63,1.63,0,0,1,1.54,1l-.73.39a.94.94,0,0,0-.82-.64.46.46,0,0,0-.52.46c0,.36.35.54.76.72.61.27,1.38.56,1.38,1.48a1.35,1.35,0,0,1-1.52,1.3A1.75,1.75,0,0,1,108.4,44.42Z" fill="#00a2c5"/>
        <path d="M113.05,45.42h-.87l1.34-4.58h.9l1.33,4.58h-.94l-.25-1h-1.25Zm1.21-2.15c-.13-.48-.23-.82-.31-1.25h0c-.08.44-.18.76-.31,1.24l-.12.47h.87Z" fill="#00a2c5"/>
        <path d="M116.57,40.86h1l1,2a7.14,7.14,0,0,1,.37.78h0V40.86h.85v4.56H119l-1.19-2.21c-.13-.25-.19-.38-.33-.68h0v2.89h-.85Z" fill="#00a2c5"/>
        <path d="M108.61,47.59h2.56v.79h-1.63v1.13h1.17v.74h-1.17v1.9h-.93Z" fill="#00a2c5"/>
        <path d="M112,47.59h1.43c1,0,1.55.4,1.55,1.43a1.22,1.22,0,0,1-.76,1.21l.87,1.92h-1l-.77-1.69h-.43v1.69H112Zm1.4,2.16c.45,0,.68-.2.68-.71s-.23-.67-.68-.67h-.48v1.38Z" fill="#00a2c5"/>
        <path d="M116.62,52.15h-.88l1.34-4.58h.9l1.34,4.58h-.94l-.25-1h-1.26Zm1.2-2.15c-.12-.48-.22-.82-.31-1.25h0c-.08.43-.19.76-.32,1.24l-.12.47h.88Z" fill="#00a2c5"/>
        <path d="M120.13,47.59h1l1.05,2c.15.29.22.44.37.79h0V47.59h.85v4.56h-.87l-1.18-2.21c-.13-.25-.2-.38-.33-.68h0v2.89h-.85Z" fill="#00a2c5"/>
        <path d="M124.34,49.86c0-1.63.74-2.36,1.78-2.36s1.42.62,1.56,1.57l-.89.16c-.1-.63-.27-.93-.7-.93s-.8.55-.8,1.56.26,1.6.81,1.6.63-.28.74-1l.88.15c-.16.91-.59,1.61-1.62,1.61S124.34,51.51,124.34,49.86Z" fill="#00a2c5"/>
        <path d="M128.66,47.59h.94v4.56h-.94Z" fill="#00a2c5"/>
        <path d="M130.54,51.15l.76-.39a1.12,1.12,0,0,0,1,.73c.39,0,.6-.21.6-.52s-.37-.55-.81-.74c-.59-.25-1.33-.54-1.33-1.46a1.32,1.32,0,0,1,1.45-1.27,1.63,1.63,0,0,1,1.54,1l-.73.39a.94.94,0,0,0-.83-.64.46.46,0,0,0-.51.46c0,.36.35.53.75.72.61.27,1.39.55,1.39,1.48a1.35,1.35,0,0,1-1.52,1.3A1.76,1.76,0,0,1,130.54,51.15Z" fill="#00a2c5"/>
        <path d="M134.52,49.86c0-1.63.73-2.36,1.78-2.36s1.42.62,1.55,1.57l-.88.16c-.11-.63-.28-.93-.7-.93s-.8.55-.8,1.56.26,1.6.81,1.6.62-.28.74-1l.88.15c-.16.91-.6,1.61-1.63,1.61S134.52,51.51,134.52,49.86Z" fill="#00a2c5"/>
        <path d="M138.58,49.87c0-1.64.83-2.37,1.82-2.37s1.81.73,1.81,2.37-.83,2.37-1.81,2.37S138.58,51.5,138.58,49.87Zm2.68,0c0-1-.3-1.57-.86-1.57s-.87.56-.87,1.57.3,1.59.87,1.59S141.26,50.88,141.26,49.87Z" fill="#00a2c5"/>
      </g>
    </g>
    <g>
      <path d="M41,63.32v.54h-.68V58H41v2.29a1.79,1.79,0,0,1,1.4-.68c1,0,1.71.71,1.71,2.19s-.76,2.18-1.79,2.18A1.82,1.82,0,0,1,41,63.32Zm2.43-1.57c0-1.08-.52-1.6-1.19-1.6a1.71,1.71,0,0,0-1.24.64v1.94a1.67,1.67,0,0,0,1.23.64C42.92,63.37,43.39,62.87,43.39,61.75Z" fill="#f37421"/>
      <path d="M45,61.75a2,2,0,0,1,1.91-2.19c1,0,1.76.7,1.76,2.22v.15h-3c0,1,.57,1.46,1.27,1.46a1.44,1.44,0,0,0,1.27-.69l.4.36a2,2,0,0,1-1.72.89A2,2,0,0,1,45,61.75Zm3-.36c0-.75-.41-1.26-1.11-1.26s-1.1.39-1.2,1.26Z" fill="#f37421"/>
      <path d="M49.51,61.75a2,2,0,0,1,1.93-2.19,1.66,1.66,0,0,1,1.65,1.18l-.58.24a1.1,1.1,0,0,0-1.09-.84c-.6,0-1.22.42-1.22,1.61s.5,1.63,1.21,1.63c.53,0,.86-.24,1.13-.85l.57.22A1.8,1.8,0,0,1,51.38,64,2,2,0,0,1,49.51,61.75Z" fill="#f37421"/>
      <path d="M53.85,62.86c0-.85.73-1.46,2.82-1.75v-.2a.7.7,0,0,0-.8-.78,2.23,2.23,0,0,0-1.52.64L54,60.34a2.78,2.78,0,0,1,1.95-.78A1.23,1.23,0,0,1,57.35,61v1.86a2.82,2.82,0,0,0,.12,1h-.7a1.63,1.63,0,0,1-.1-.58,2.28,2.28,0,0,1-1.63.65A1,1,0,0,1,53.85,62.86Zm2.82-.09V61.59c-1.6.25-2.14.64-2.14,1.17s.27.62.71.62A2,2,0,0,0,56.67,62.77Z" fill="#f37421"/>
      <path d="M58.62,62.69v-3h.69v2.9c0,.56.24.83.77.83a2,2,0,0,0,1.37-.68v-3h.7v4.22h-.7v-.63a2.25,2.25,0,0,1-1.58.71A1.13,1.13,0,0,1,58.62,62.69Z" fill="#f37421"/>
      <path d="M63.19,63.22l.42-.41a1.73,1.73,0,0,0,1.31.58c.66,0,1-.23,1-.66s-.37-.58-1.09-.75c-.89-.22-1.51-.46-1.51-1.27,0-.64.56-1.15,1.48-1.15a2.25,2.25,0,0,1,1.62.6l-.36.46a1.83,1.83,0,0,0-1.23-.51c-.61,0-.85.28-.85.57s.33.54,1,.69c1,.23,1.6.46,1.6,1.33s-.72,1.24-1.68,1.24A2.22,2.22,0,0,1,63.19,63.22Z" fill="#f37421"/>
      <path d="M67.41,61.75a2,2,0,0,1,1.91-2.19c1,0,1.76.7,1.76,2.22v.15h-3c0,1,.57,1.46,1.27,1.46a1.44,1.44,0,0,0,1.27-.69l.4.36a2,2,0,0,1-1.72.89A2,2,0,0,1,67.41,61.75Zm3-.36c0-.75-.41-1.26-1.11-1.26s-1.1.39-1.2,1.26Z" fill="#f37421"/>
      <path d="M74,61.75a2,2,0,0,1,1.93-2.19,1.67,1.67,0,0,1,1.66,1.18L77,61a1.1,1.1,0,0,0-1.09-.84c-.61,0-1.22.42-1.22,1.61s.49,1.63,1.2,1.63A1.15,1.15,0,0,0,77,62.53l.56.22A1.78,1.78,0,0,1,75.84,64,2,2,0,0,1,74,61.75Z" fill="#f37421"/>
      <path d="M78.62,58h.69v2.32a2.32,2.32,0,0,1,1.59-.71,1.13,1.13,0,0,1,1.24,1.26v3h-.68V61c0-.56-.24-.82-.78-.82a2,2,0,0,0-1.37.68v3h-.69Z" fill="#f37421"/>
      <path d="M83.48,58.07h.72v.67h-.72Zm0,1.57h.69v4.22H83.5Z" fill="#f37421"/>
      <path d="M85.63,58h.69v5.91h-.69Z" fill="#f37421"/>
      <path d="M87.49,61.76c0-1.47.76-2.2,1.8-2.2a1.76,1.76,0,0,1,1.31.62V58h.68v4.87a2.57,2.57,0,0,0,.13,1h-.72a2,2,0,0,1-.09-.6,1.81,1.81,0,0,1-1.39.67C88.24,63.93,87.49,63.23,87.49,61.76Zm3.11,1V60.78a1.62,1.62,0,0,0-1.22-.64c-.73,0-1.21.52-1.21,1.63s.52,1.59,1.2,1.59A1.66,1.66,0,0,0,90.6,62.71Z" fill="#f37421"/>
      <path d="M94.41,61.75a2,2,0,0,1,1.93-2.19A1.66,1.66,0,0,1,98,60.74l-.58.24a1.09,1.09,0,0,0-1.09-.84c-.6,0-1.22.42-1.22,1.61s.5,1.63,1.21,1.63c.53,0,.86-.24,1.13-.85l.57.22A1.79,1.79,0,0,1,96.28,64,2,2,0,0,1,94.41,61.75Z" fill="#f37421"/>
      <path d="M98.75,62.86c0-.85.73-1.46,2.82-1.75v-.2a.7.7,0,0,0-.8-.78,2.23,2.23,0,0,0-1.52.64l-.36-.43a2.8,2.8,0,0,1,2-.78,1.23,1.23,0,0,1,1.4,1.4v1.86a2.82,2.82,0,0,0,.12,1h-.7a1.63,1.63,0,0,1-.1-.58,2.28,2.28,0,0,1-1.63.65A1,1,0,0,1,98.75,62.86Zm2.82-.09V61.59c-1.6.25-2.14.64-2.14,1.17s.27.62.71.62A2,2,0,0,0,101.57,62.77Z" fill="#f37421"/>
      <path d="M103.56,59.64h.69v.79h0a1.82,1.82,0,0,1,1.64-.87H106l0,.63h-.19a1.61,1.61,0,0,0-1.49,1v2.72h-.69Z" fill="#f37421"/>
      <path d="M106.44,61.75a2,2,0,0,1,1.91-2.19c1,0,1.76.7,1.76,2.22v.15h-3c0,1,.58,1.46,1.28,1.46a1.44,1.44,0,0,0,1.27-.69l.4.36a2,2,0,0,1-1.72.89A2,2,0,0,1,106.44,61.75Zm3-.36c-.06-.75-.42-1.26-1.11-1.26s-1.1.39-1.2,1.26Z" fill="#f37421"/>
      <path d="M113.23,59.64h.69v.64a2.11,2.11,0,0,1,1.51-.72,1,1,0,0,1,1.16.74,2.27,2.27,0,0,1,1.56-.74,1.11,1.11,0,0,1,1.22,1.26v3h-.68V61c0-.56-.19-.82-.74-.82a1.92,1.92,0,0,0-1.3.68v3H116V61c0-.56-.18-.82-.73-.82a1.94,1.94,0,0,0-1.31.68v3h-.69Z" fill="#f37421"/>
      <path d="M120.44,62.86c0-.85.72-1.46,2.82-1.75v-.2a.7.7,0,0,0-.8-.78,2.28,2.28,0,0,0-1.53.64l-.36-.43a2.8,2.8,0,0,1,2-.78,1.23,1.23,0,0,1,1.4,1.4v1.86a3.05,3.05,0,0,0,.12,1h-.7a1.91,1.91,0,0,1-.09-.58,2.3,2.3,0,0,1-1.63.65A1,1,0,0,1,120.44,62.86Zm2.82-.09V61.59c-1.61.25-2.15.64-2.15,1.17s.28.62.72.62A2,2,0,0,0,123.26,62.77Z" fill="#f37421"/>
      <path d="M125.55,62.84V60.21h-.74v-.57h.74v-1.5h.69v1.5h1.09v.57h-1.09v2.48c0,.45.14.67.65.67a1.4,1.4,0,0,0,.43-.06v.57a3.12,3.12,0,0,1-.6.05C125.84,63.92,125.55,63.58,125.55,62.84Z" fill="#f37421"/>
      <path d="M128.7,62.84V60.21H128v-.57h.74v-1.5h.68v1.5h1.1v.57h-1.1v2.48c0,.45.15.67.66.67a1.4,1.4,0,0,0,.43-.06v.57a3.12,3.12,0,0,1-.6.05C129,63.92,128.7,63.58,128.7,62.84Z" fill="#f37421"/>
      <path d="M131.24,61.75a2,2,0,0,1,1.91-2.19c1,0,1.76.7,1.76,2.22v.15h-3c0,1,.58,1.46,1.27,1.46a1.42,1.42,0,0,0,1.27-.69l.4.36a2,2,0,0,1-3.63-1.31Zm3-.36c-.06-.75-.42-1.26-1.11-1.26a1.23,1.23,0,0,0-1.2,1.26Z" fill="#f37421"/>
      <path d="M136,59.64h.69v.79h0a1.82,1.82,0,0,1,1.63-.87h.09l0,.63h-.2a1.61,1.61,0,0,0-1.48,1v2.72H136Z" fill="#f37421"/>
      <path d="M138.94,63.22l.41-.41a1.76,1.76,0,0,0,1.32.58c.66,0,1-.23,1-.66s-.37-.58-1.09-.75c-.89-.22-1.51-.46-1.51-1.27,0-.64.56-1.15,1.48-1.15a2.21,2.21,0,0,1,1.61.6l-.36.46a1.8,1.8,0,0,0-1.22-.51c-.61,0-.85.28-.85.57s.33.54,1,.69c.95.23,1.6.46,1.6,1.33s-.73,1.24-1.68,1.24A2.22,2.22,0,0,1,138.94,63.22Z" fill="#f37421"/>
    </g>
  </g>
</svg>
