<svg xmlns="http://www.w3.org/2000/svg" viewBox="0 0 185 280">
  <title>_</title>
  <g>
    <g>
      <path d="M57.09,80.64,62.57,84s-.45,9.74,0,11,1.35,44.27,2.23,44.52,23.73,13.29,23.73,13.29l2.9,6.6s-.67,6.78-1.62,6.75-7.56-5.83-7.56-5.83l-1.72-5.77L54.81,143.72l2.28-19.43Z" fill="#f9bb6e"/>
      <g>
        <path d="M66.56,178.58s7.78,67.62,7.87,70.11-1.2,4.59-4.29,4.59-4.55-.76-6.1-6.22-6.81-69.89-6.81-69.89Z" fill="#89a523"/>
        <path d="M67.89,192.11c0-.12,0-4.48-3.72-3.48s-2.23,45.85-2.23,45.85l-4.55-50.41,10-1.8Z" fill="#788e1a"/>
        <path d="M56.09,183.16s7.73,66.36,7.83,68.7-1.3,4.33-4.67,4.33-5-.72-6.64-5.86-7.23-68.06-7.23-68.06Z" fill="#97bc31"/>
        <path d="M27.21,178.58s-10.12,68-10.21,70.5,1.19,4.6,4.29,4.6,4.55-.77,6.09-6.22,9.16-70.29,9.16-70.29Z" fill="#89a523"/>
        <path d="M14.8,184.29S4.73,251.05,4.63,253.39s1.3,4.33,4.67,4.33,4.95-.72,6.64-5.86,9.58-68.46,9.58-68.46Z" fill="#97bc31"/>
        <rect x="14.05" y="174.21" width="55.47" height="10.2" fill="#97bc31"/>
        <ellipse cx="40.65" cy="183.27" rx="27.74" ry="2.35" fill="#97bc31"/>
        <ellipse cx="40.65" cy="173.08" rx="27.74" ry="2.35" fill="#afd658"/>
      </g>
      <g>
        <path d="M108.57,162.14c1.23,1.77-8.93,11.17-11.07,8.11a7,7,0,0,1,1.65-9.59A6.64,6.64,0,0,1,108.57,162.14Z" fill="#ced7d8"/>
        <path d="M108.93,164.92c-2.3,3.46-9.1,7.9-11.06,5.85l-.37-.51c4.4-.45,7.88-3.82,11.07-8.11l.36.52A1.65,1.65,0,0,1,108.93,164.92Z" fill="#5a626b"/>
        <path d="M121.24,162.9c1.29,1.73-8.6,11.43-10.83,8.43a7,7,0,0,1,1.37-9.63A6.64,6.64,0,0,1,121.24,162.9Z" fill="#ced7d8"/>
        <path d="M121.68,165.66c-2.2,3.53-8.87,8.17-10.89,6.19l-.37-.51c4.37-.58,7.76-4.05,10.82-8.43l.38.5A1.66,1.66,0,0,1,121.68,165.66Z" fill="#5a626b"/>
        <g>
          <polygon points="83.3 139.59 107.32 253.21 112.99 253.16 89.51 139.44 83.3 139.59" fill="#deddde"/>
          <polygon points="149.01 139.59 173.04 253.21 178.71 253.16 155.22 139.44 149.01 139.59" fill="#deddde"/>
          <path d="M154.05,139.59H90.84l12.21-53.54a11.34,11.34,0,0,1,11.41-8.78h34.42c9.45,0,17.27,9.28,15.25,18.12Z" fill="#deddde"/>
          <rect x="83.62" y="138.56" width="67.16" height="10.31" fill="#5a5758"/>
          <rect x="83.62" y="148.52" width="66.22" height="5.03" fill="#deddde"/>
          <path d="M150.11,135.13H96l10.47-45.87a9.71,9.71,0,0,1,9.77-7.53h29.49c8.1,0,14.79,8,13.06,15.53Z" fill="#5a5758"/>
          <path d="M108.8,135.92s-10.18,5.6-9.93,13.9c.22,7,18.12.38,22.33-9.37C126.19,128.89,108.8,135.92,108.8,135.92Z" fill="#5a626b"/>
          <path d="M105.66,144.82s-4.51-1.33-6.14,2-.08,13.7-.08,13.7l9.13,1.61s2.27-7.51,1.55-13.06S105.66,144.82,105.66,144.82Z" fill="#5a626b"/>
          <path d="M124,136.18s-12.71,8.91-12,14.81c.87,6.95,19.69.43,23.59-11.55S124,136.18,124,136.18Z" fill="#5a626b"/>
          <path d="M120.55,146.54s-8.49-.58-8.67,3.14c-.22,4.3-.1,12-.1,12l9.46,1.2s3.23-7.49,3-13.08S120.55,146.54,120.55,146.54Z" fill="#5a626b"/>
          <polygon points="155.52 139.59 135.38 253.26 129.71 253.2 149.31 139.44 155.52 139.59" fill="#deddde"/>
          <polygon points="89.45 138.96 69.19 253.26 63.52 253.2 83.12 139.44 89.45 138.96" fill="#deddde"/>
          <path d="M129.64,112s-2.24,8.28,1.87,20.3l6.39-.46s6.71-15.61-1.48-24.69C136.42,107.16,133.72,106.2,129.64,112Z" fill="#f4f4f4"/>
          <path d="M138.84,91.12s1.49-2.71,4.54-.73-.58,12.09-5.73,9.3S138.84,91.12,138.84,91.12Z" fill="#ffbe92"/>
          <path d="M123,103.19l4.75,1c7.5.49,12.39-6.45,14.53-13.4l.38-5.8a13.7,13.7,0,0,0-12.72-14.53l-4.76-.31c-5.27-.12-10.06,4.26-10.56,11.75l-1.43,7.19C109.91,96.17,115.5,102.7,123,103.19Z" fill="#ffbe92"/>
          <path d="M113.5,78.26a15.94,15.94,0,0,0-1.88,4.49s6.78-1.12,10.63-4.67A25.74,25.74,0,0,1,114.19,84s9,2.17,13.71-4.58c0,0-1.32,5-3,7.29,0,0,17.09-4.91,12.58-14.72C137.49,72,120,61.51,113.5,78.26Z" fill="#904c25"/>
          <path d="M140.74,94.74c-1.45,1.1-9.85-16.07-8.92-17L137.49,72A15.19,15.19,0,0,1,144,87.17C143,90.23,142.07,93.29,140.74,94.74Z" fill="#904c25"/>
          <rect x="120.7" y="97.32" width="10.28" height="11.96" fill="#ffbe92"/>
          <path d="M131.67,137.54H118.48c-3.55,0-11.83,1.22-11.83-2.06L112,111.23a6.2,6.2,0,0,1,6.44-5.92s1.54,7.84,13.19,0c4.14.26,6.44,2.65,6.44,5.92l-2.23,25.31C135.88,139.81,135.23,137.54,131.67,137.54Z" fill="#f4f4f4"/>
          <path d="M133.51,92.61c-.08.66-1.5,1-3.19.85s-3-.86-2.94-1.52,1.5-1,3.19-.85S133.58,92,133.51,92.61Z" fill="#ffbe92"/>
          <polygon points="155.51 139.59 83.12 139.44 82.83 131.85 155.51 131.85 155.51 139.59" fill="#deddde"/>
          <path d="M131.1,128.74a15.29,15.29,0,0,0-2.23.85c-1.39.79-2.5,1.41-1.72,2.15a1.75,1.75,0,0,0,1.42,0s1.05-.63,1.22,0,.08.83-.32,1.92-1.54,2.17-.92,2.8,1.49.71,2.18-1c0,0,.31-.69.52-.72.55-.07-.06,1.88.28,2.44,0,0,1.08,1.51,1.91-.1,0,0,1.12,1.77,2,.07s.37-1.54.37-1.54-.05.15.21.68.78.93,1.23.82c.92-.22.46-1.51.4-2.16s-.11-4-1.69-5.51C134.78,128.32,131.1,128.74,131.1,128.74Z" fill="#ffbe92"/>
          <path d="M107.46,128.2a15.62,15.62,0,0,1,2,1.35c1.16,1.09,2.09,2,1.15,2.5a1.73,1.73,0,0,1-1.38-.29s-.88-.86-1.18-.32-.28.79-.14,1.94,1,2.48.23,3-1.62.33-1.88-1.53c0,0-.14-.73-.33-.81-.51-.2-.38,1.84-.85,2.3,0,0-1.41,1.22-1.83-.55,0,0-1.51,1.46-1.93-.39s0-1.59,0-1.59,0,.16-.36.61a1.28,1.28,0,0,1-1.39.52c-.84-.44-.09-1.59.11-2.2s1-3.84,3-5C104,126.92,107.46,128.2,107.46,128.2Z" fill="#ffbe92"/>
          <path d="M115.67,105.58s-6.53-.47-14.26,22.79l6.64.2,5.41-9.69Z" fill="#f4f4f4"/>
          <path d="M137.05,107.58a33.39,33.39,0,0,0-9.76,10.66c-3.87,6.77-10.35,5.66-11.67-1.4a28,28,0,0,1-.12-11.25c1-.79,4-.67,4.86-.28,0,0-1.07,4.68,2.65,4.65s8.23-4.65,8.23-4.65C134.2,104.87,137.92,106.47,137.05,107.58Z" fill="#4ea1d3"/>
          <path d="M136.42,107.16a42.52,42.52,0,0,0-10,10.23c-3.94,6-8.8,4.33-9.92-1.62a36.18,36.18,0,0,1-.62-9.78,3.81,3.81,0,0,1,3.38-.29s-.89,6.07,3.54,6c3.14-.07,9.32-6,9.32-6C133.46,105.07,134.93,106,136.42,107.16Z" fill="#61d0f7"/>
        </g>
      </g>
      <g>
        <rect x="91.43" y="117.66" width="13.92" height="2.58" fill="#e10000"/>
        <path d="M86.34,116.33l-11,5.72L77,126.63s1.58,1.14,8.18-.88l.68-.26Z" fill="#f9bb6e"/>
        <rect x="88.47" y="112.93" width="2.68" height="9.29" rx="1.18" ry="1.18" transform="translate(205.08 24.84) rotate(88.56)" fill="#f9bb6e"/>
        <path d="M93,118.27h.09a1.1,1.1,0,0,1,1.1,1.1v3a1.11,1.11,0,0,1-1.11,1.11H93a1.11,1.11,0,0,1-1.11-1.11v-3A1.11,1.11,0,0,1,93,118.27Z" transform="translate(245.37 113.56) rotate(124.83)" fill="#f9bb6e"/>
        <path d="M88.65,121.31l0-.08a1.11,1.11,0,0,1,1.49-.48l2.7,1.37a1.09,1.09,0,0,1,.49,1.48l0,.09a1.12,1.12,0,0,1-1.49.48l-2.7-1.37A1.11,1.11,0,0,1,88.65,121.31Z" fill="#f9bb6e"/>
        <path d="M86.46,122.2l0-.09a1.11,1.11,0,0,1,1.49-.48L90.7,123a1.11,1.11,0,0,1,.48,1.49l0,.08a1.12,1.12,0,0,1-1.5.48l-2.7-1.37A1.1,1.1,0,0,1,86.46,122.2Z" fill="#f9bb6e"/>
        <path d="M92.56,116.69h0a1.23,1.23,0,0,1,1.69-.3l3,2.07a1.23,1.23,0,0,1,.3,1.69h0a1.22,1.22,0,0,1-1.69.31l-3-2.07A1.23,1.23,0,0,1,92.56,116.69Z" fill="#f9bb6e"/>
        <rect x="86.86" y="115.75" width="2.6" height="8.64" rx="1.12" ry="1.12" transform="translate(205.98 28.91) rotate(88.56)" fill="#f9bb6e"/>
        <polygon points="87.21 124.86 93.86 122.21 89.55 119.8 83.73 121.46 84.46 125.13 84.95 125.79 87.21 124.86" fill="#f9bb6e"/>
        <path d="M106.44,117.52a1.72,1.72,0,1,1-1.72-1.72A1.72,1.72,0,0,1,106.44,117.52Z" fill="#eab53f"/>
        <path d="M107.78,117.05a1.72,1.72,0,1,1-1.72-1.72A1.72,1.72,0,0,1,107.78,117.05Z" fill="#eab53f"/>
        <path d="M108.61,118.05a1.72,1.72,0,1,1-1.72-1.72A1.72,1.72,0,0,1,108.61,118.05Z" fill="#eab53f"/>
        <path d="M109.88,117.23a1.72,1.72,0,1,1-1.72-1.72A1.72,1.72,0,0,1,109.88,117.23Z" fill="#eab53f"/>
        <path d="M110.55,117.66a4.27,4.27,0,0,1-8.54,0Z" fill="#e10000"/>
      </g>
      <path d="M126.53,81.52c.11-.19,2.35-5.1,7.08-4.83,0,0-3.21,4.37-3,4.34a20,20,0,0,1,4-.88S132.31,83.32,132,85l-4.87-.75Z" fill="#904c25"/>
      <g>
        <path d="M86.82,250.53s-1.91,3.59-.55,6.87c.55,1.31,7.53,9.75,12.11,14.71,4.15,4.51,15.5,3.44,6.31-8.15-5.81-7.34-9.18-10.87-12.31-12.61C90.49,250.31,86.82,250.53,86.82,250.53Z" fill="#3e3431"/>
        <path d="M94.88,253.2s1.29,1.44,9.1,10.81c3,3.62-3.08,8.5-8.45.19-4.56-7.05-8.61-8.86-8.66-11.52S94.88,253.2,94.88,253.2Z" fill="#f9bb6e"/>
        <path d="M43.22,139.62l-.44,1.54c-3,10.72,10.48,21.33,2,27.47-6.68,4.86,45.08,11.63,45.08,11.63a136.57,136.57,0,0,0-3.24,31.11l.21,41.31s4.89,3.65,8,.52c0,0,12-71.6,12.86-74.21a14.2,14.2,0,0,0-2.86-14.49L62.51,145.64Z" fill="#333351"/>
        <path d="M64.93,252.68s-2.32,3.84-1.14,7.2c.47,1.34,6.7,11.51,11.51,15.11s16.43,3.67,6.74-7.72c-6-7.1-8.58-11.46-11.61-13.4C68.6,252.7,64.93,252.68,64.93,252.68Z" fill="#3e3431"/>
        <path d="M72.83,255.88s0,2.8,8.5,11.39c2.93,3-3.74,6.44-9,0s-7.59-9.79-7.5-12.45S72.83,255.88,72.83,255.88Z" fill="#f9bb6e"/>
        <path d="M20.13,148.53l-.43,1.55c-3,10.72-3.38,22.08,5.94,26.33l1,.46c12.95,5.51,47.2,5.56,47.2,5.56l-2.79,5.71c-3,5.36-4.1,16.36-4.21,19.68l-2,47s4.68,4,8,1.06c0,0,17.83-71.12,18.72-73.74,1.77-5.26.89-8.59-2.7-12.55L42,146.88Z" fill="#38385e"/>
      </g>
      <g>
        <path d="M50.39,74.81a5.32,5.32,0,0,0,1.34,3.81c1.52,1.48,5.89,1.93,5.89,1.93V95.81l-20,1-6.72-5.92,1.93-15.07a9.31,9.31,0,0,0,3.38-1.2c1-.82,1.66-3.53,1.66-3.53Z" fill="#f9bb6e"/>
        <path d="M36,16.09s-6.56,3.56-10.54,16.64C18.59,55.17,39.19,64.3,39.19,64.3l-1.28-7.9L63.8,60.79s3.56-.95,6.51-9.51,2.14-11.42,2.14-11.42Z" fill="#5e6057"/>
        <path d="M50.82,65.63l-.57,12.16A5.93,5.93,0,0,1,43.74,81,9.05,9.05,0,0,1,37,76l2.94-15.45Z" fill="#f9bb6e"/>
        <path d="M69.31,46.18l-.22,1.43a49.65,49.65,0,0,1-5.4,16.06c-2.28,4.19-7,8.14-9,8a22.93,22.93,0,0,1-17-9.44A34.27,34.27,0,0,1,34,54s-4.1.55-5.43-5.6,1.47-7,1.47-7a4.9,4.9,0,0,1,3.71.45c1.84,1.08,2.17,1.74,2.17,1.74s-1.59-12.55,1.25-18.32,16.35-9,26.29-1.63S69.31,46.18,69.31,46.18Z" fill="#f9bb6e"/>
        <path d="M45.32,28.2a13.09,13.09,0,0,1-1.47,9.5,13.93,13.93,0,0,1-8,5.93,10.59,10.59,0,0,0-3.53-2.09,7.42,7.42,0,0,0-1.95-.19S31.34,27.6,32,23.21A12.64,12.64,0,0,1,36,16.09s1.56-2.5,2.93-2.77a8.2,8.2,0,0,1,2.2-.2s-2.44.79-2.89,1.46a3.6,3.6,0,0,0-.54,1.28s9.13-3.38,22.73,2.25S74.57,31.25,74.57,36.34s-2.26,5.76-2.26,5.76S61.48,40.47,54.1,35.94,45.32,28.2,45.32,28.2Z" fill="#5e6057"/>
        <path d="M44.14,18S46,6.09,37.65,3.34,19,10.29,23,18.22,34.27,24,34.27,24Z" fill="#5e6057"/>
      </g>
      <path d="M57.09,80.64s5.1,1.69,5.67,3.75-.32,10.35.26,11.74,7.77,11.7,6,17-8.75,7.67-10.43,12.38.43,12.84.92,15.59,6.56,6.25,6.56,6.25l-12.4,12.28-3.1-6.55-.87,8.44a39.18,39.18,0,0,1-20,3.3c-11.1-1.22-12.08-5.05-12.08-5.05s3.31-16.09,4-25.49.11-31.35,0-38.39,1.57-17.62,1.57-17.62l9.75-2.43s7.39,19.69,15.32,18.79S57.09,80.64,57.09,80.64Z" fill="#5b4a3e"/>
      <path d="M27.56,104.63c2.26,10.81,9.89,23.77,16.61,26.13l1.47,10.65c-12.88.39-23.07-13-31.53-32.19C13.67,101.26,20.29,82.94,27.56,104.63Z" fill="#f9bb6e"/>
      <path d="M11.38,105s-.87-10,1.16-16.78S22,78.6,25.36,78s3.53,20.15,3.15,23.63a12.42,12.42,0,0,0,1.16,6.45,85.11,85.11,0,0,1-11.45,1.42c-4.81.11-6.76-1-6.76-1Z" fill="#5b4a3e"/>
      <path d="M82.25,125.81C63.69,137.27,50.45,143,41.5,141.13l-4.21-14.77c9.83,4.57,19,3.68,28.14,0,4.55-1.83,9.66-3.43,13.32-5.87Z" fill="#f9bb6e"/>
    </g>
    <g>
      <path d="M80.42,156.12a24.7,24.7,0,0,0,5.52,1.1,30.56,30.56,0,0,0,5.84.42v-.21l-11.3-1.52Z" fill="#d61d24"/>
      <path d="M91.78,151.45v6s-12.31-.11-14.08-3.37,0-3.59-1.88-5.65S91.78,151.45,91.78,151.45Z" fill="#d61d24"/>
      <path d="M77,150.35a8.9,8.9,0,0,0,.59,3.16c.62,1.56,3,2.44,6.24,3.05a42.22,42.22,0,0,0,6,.66,44.7,44.7,0,0,1-8-1.67,4.82,4.82,0,0,1-3.35-3.83,3.54,3.54,0,0,1,0-.93Z" fill="#be1b21"/>
      <path d="M103.14,156.12a24.7,24.7,0,0,1-5.52,1.1,30.56,30.56,0,0,1-5.84.42v-.21l11.3-1.52Z" fill="#76c127"/>
      <path d="M91.78,151.45v6s12.31-.11,14.08-3.37,0-3.59,1.88-5.65S91.78,151.45,91.78,151.45Z" fill="#d61d24"/>
      <path d="M91.78,151.28c-8.51,0-17.29-2.26-17.29-4.15v.72c0,2.37,7.74,4.28,17.29,4.28s17.3-1.91,17.3-4.28v-.68C109.08,149.06,100.29,151.28,91.78,151.28Z" fill="#e0555b"/>
      <path d="M91.78,150.59c8.51,0,15.41-1.53,15.41-3.42H76.37C76.37,149.06,83.27,150.59,91.78,150.59Z" fill="#daecef"/>
      <path d="M91.78,142.89c-9.55,0-17.29,1.91-17.29,4.28h1.88c0-1.89,6.9-3.43,15.41-3.43s15.41,1.54,15.41,3.43h1.89C109.08,144.8,101.33,142.89,91.78,142.89Z" fill="#d61d24"/>
      <path d="M91.78,143.74c-8.51,0-15.41,1.54-15.41,3.43h30.82C107.19,145.28,100.29,143.74,91.78,143.74Z" fill="#daecef"/>
      <path d="M107.07,146.74c-.12-.43-.54,0-.83,0s0,0-.4-.34a2.37,2.37,0,0,0-1.25-.34l-1.45-.12-1.24-.45c-.62-.21-1-.4-1.75-.63a19.5,19.5,0,0,0-2.69-.12c-1-.11-.47-.11-1.27-.81s-.56,0-1.59-.15a15.91,15.91,0,0,0-2.18,0,15.42,15.42,0,0,1-2.6-.47,2.37,2.37,0,0,0-1.23.06.28.28,0,0,0-.29,0,3.15,3.15,0,0,1-.29.22l-.32.15c-.68.3-.68.17-1,.45s-.4.23-.62.34a6.76,6.76,0,0,1-1.55.17c-.23,0-1.31.12-3.14.33s-.63.53-1.31,1.21-.57-.17-1.49,0a9.92,9.92,0,0,0-2.24.93s-.55,1.24,2.3,2.14,9.14,2,19.18,1.28,9.22-3,9.22-3A1.8,1.8,0,0,0,107.07,146.74Z" fill="#eab53f"/>
      <g>
        <path d="M86.91,145.22h0Z" fill="#d19828"/>
        <path d="M89,143.32c-.19.07-.37.14-.56.19s-.36.06-.54.09l-.54.1a3,3,0,0,0-.49.2,3.49,3.49,0,0,1-.53.22,2.47,2.47,0,0,1-.61,0,1.52,1.52,0,0,0-.59.12c-.18.09-.32.26-.5.35s-.37.09-.54.17a1.68,1.68,0,0,1-.63.17,9.65,9.65,0,0,0-1.07.09,10.65,10.65,0,0,1-1.13,0,2.32,2.32,0,0,0-.91.2.12.12,0,0,0-.15.13,1.81,1.81,0,0,1,0,.52.76.76,0,0,1-.24.34.73.73,0,0,0-.58,0,.66.66,0,0,1-.32.07l-.28,0c-.1,0-.18.07-.28.09a1.41,1.41,0,0,0-.45.07,2.11,2.11,0,0,0-.44.24.24.24,0,0,1-.09.06,1.46,1.46,0,0,0-.77.08,1,1,0,0,0-.39,1.17,2,2,0,0,0,.89,1,1,1,0,0,0,.67.16,1.51,1.51,0,0,0,.43-.11l.12.17a.7.7,0,0,0,.51.22,10.12,10.12,0,0,1,1.09-.13.42.42,0,0,0,.53,0c0,.06,0,.12.08.19s.07.17.08.21,0,.15,0,0a.78.78,0,0,0,1,.74,4.13,4.13,0,0,0,.85-.32c.26.06.52.07.78.12a1.68,1.68,0,0,0,.32.09.75.75,0,0,0,.21,0,.85.85,0,0,1,.24.08c.26,0,.53,0,.79,0a2.24,2.24,0,0,1,.74.29.44.44,0,0,0,.61-.13.27.27,0,0,0,.17-.06.35.35,0,0,0,.16-.2.11.11,0,0,1,0,0h0a.23.23,0,0,0,0-.1.15.15,0,0,0-.08-.16l-.06,0,0,0a.31.31,0,0,0-.21-.11.43.43,0,0,0-.16,0l-.09,0a3.23,3.23,0,0,0-.82-.1,2,2,0,0,1-.42,0,4.31,4.31,0,0,0-.49-.11c-.13,0-.24,0-.36,0a1.57,1.57,0,0,0-.43,0c-.29,0-.57-.05-.86,0a2.08,2.08,0,0,0-.55-.38c-.17-.07-.34-.22-.56-.3a1.05,1.05,0,0,0-.78,0h0a.44.44,0,0,0-.57-.27,3.88,3.88,0,0,0-.49-.11,1.36,1.36,0,0,0-.72.07h0l0,0a1.22,1.22,0,0,0-.15-.17,3.71,3.71,0,0,0-.41-.28s-.13-.17-.16-.2-.15-.12-.26-.22a4.18,4.18,0,0,1-.36-.34l0,0,0,0a1.81,1.81,0,0,0,.18-.21L78,147l.28-.08.07,0,0,.08a1.33,1.33,0,0,0,1,.48.88.88,0,0,0,.65-.29.87.87,0,0,0,.82.62,1.11,1.11,0,0,0,.74-.36l.12.08c.14.08.24.1.34.24l0,0h0a.36.36,0,0,0-.15.08.33.33,0,0,0-.09.23.32.32,0,0,0,.14.27.1.1,0,0,0,0,0,.33.33,0,0,0-.1.23.34.34,0,0,0,.1.23.33.33,0,0,0,.23.1.34.34,0,0,0,.33-.33.33.33,0,0,0-.1-.23.1.1,0,0,0,0,0,.29.29,0,0,0,.14-.27.28.28,0,0,0-.07-.19.38.38,0,0,0-.16-.12h0a.12.12,0,0,0,0-.1,1,1,0,0,0-.14-.56c-.12-.2-.36-.25-.52-.39a1.93,1.93,0,0,0-.6-.28h0a1.43,1.43,0,0,0-.38-.26.42.42,0,0,0-.4.1l.09-.34a1.46,1.46,0,0,0,.09-.62.14.14,0,0,0-.06-.11,2,2,0,0,1,1.13-.14,2.31,2.31,0,0,1,.69.11,2.23,2.23,0,0,0,.44.13,4.5,4.5,0,0,0,1.1,0c.19,0,.37,0,.56,0h.06a.38.38,0,0,0-.24.31.21.21,0,0,0-.17-.07.24.24,0,0,0,0,.47.21.21,0,0,0,.22-.18c.13.23.47.28.7.31a1.09,1.09,0,0,0,.54,0l.07,0a.62.62,0,0,0-.09.27.56.56,0,0,0,.16.41.56.56,0,0,0,.35.16h-.07l.06,0a.5.5,0,0,0,.47-.12c-.08,0-.07,0,0,0l0,0h0a.53.53,0,0,0,.15.15.52.52,0,0,0,.32.09.51.51,0,0,0,.37-.18.46.46,0,0,0,.1-.6.45.45,0,0,0-.24-.16.38.38,0,0,0-.21,0,.65.65,0,0,0-.27.08l-.12.09-.06.07a.21.21,0,0,0-.06-.1l0,0a.4.4,0,0,0-.1-.12l-.1-.08a.91.91,0,0,0,.27-.31l.09-.15.13-.23h0s0-.05,0-.05l.11-.08c-.08.06.13-.09.09-.05l.09-.08a.4.4,0,0,0,.06-.58.27.27,0,0,0-.07-.08h0l.44-.23c.16-.1.28-.24.44-.34a2.91,2.91,0,0,1,.45-.26,1.47,1.47,0,0,1,.66-.09C89.17,143.56,89.13,143.27,89,143.32Zm-3.89,2.09a1.31,1.31,0,0,0-.28-.09h.08l.22,0Z" fill="#d19828"/>
      </g>
      <path d="M83.82,148.57a.69.69,0,0,0-.2,0,.56.56,0,0,0-.79-.22.43.43,0,0,0-.15.59.56.56,0,0,0,.54.28.49.49,0,1,0,.6-.62Z" fill="#d19828"/>
      <g>
        <path d="M87.71,145.41a.36.36,0,0,0-.25-.11.41.41,0,0,0-.3.12.39.39,0,0,0-.12.25.46.46,0,0,0,.13.39l.11.08a.33.33,0,0,0,.24,0,.36.36,0,0,0,.16-.11.34.34,0,0,0,.07-.19h0l0-.06a.28.28,0,0,0,0-.13A.32.32,0,0,0,87.71,145.41Z" fill="#d19828"/>
        <polygon points="87.75 145.85 87.75 145.85 87.75 145.85 87.75 145.85" fill="#d19828"/>
      </g>
      <path d="M88.49,146.3a.45.45,0,0,0,0-.11.36.36,0,0,0-.1-.14.23.23,0,0,0-.14-.07.22.22,0,0,0-.16,0,.2.2,0,0,0-.09.09.26.26,0,0,0,0,.19.46.46,0,0,0,.07.16l.08.09a.24.24,0,0,0,.29,0,.3.3,0,0,0,.08-.08A.25.25,0,0,0,88.49,146.3Z" fill="#d19828"/>
      <path d="M88.86,146.89l0,0a.2.2,0,0,0-.11-.11l-.07,0a.28.28,0,0,0-.18,0,.24.24,0,0,0-.15.11.28.28,0,0,0,0,.18.2.2,0,0,0,.11.14l.08,0a.19.19,0,0,0,.13,0h.08a.19.19,0,0,0,.16-.09A.18.18,0,0,0,88.86,146.89Z" fill="#d19828"/>
      <path d="M97.79,145.23c0-.4-.41-.53-.66-.75s-.53-.28-.77-.47-.4-.39-.71-.41a5.6,5.6,0,0,0-1.09.08c-.1,0-.06.15,0,.16s.39.06.6.06.49-.06.68.08.25.47.3.74a.46.46,0,0,0-.21-.05h0a.43.43,0,0,0-.38.26.19.19,0,0,0,0,.08h0a.41.41,0,0,0-.31,0,.32.32,0,0,0-.17.37.27.27,0,0,0,.32.19h0a.13.13,0,0,0,.08,0,.22.22,0,0,0,.13,0,.24.24,0,0,0,.1-.1l.07.05a.43.43,0,0,0,.22.06H96a.35.35,0,0,0-.07.2s0,.05,0,.08a.41.41,0,0,0,0,.21l.12.16a.42.42,0,0,0,.41.11l.07,0,0,.05h0a.39.39,0,0,0,.1.08l.06,0a.31.31,0,0,0,.46-.24v-.07a.21.21,0,0,0,0-.11.41.41,0,0,0-.11-.19.39.39,0,0,0-.1-.08.29.29,0,0,0-.24,0,.39.39,0,0,0-.08-.1.69.69,0,0,0-.22-.17.55.55,0,0,0-.17,0h0l0,0a.39.39,0,0,0,.05-.14,1.69,1.69,0,0,0,.56.48.69.69,0,0,0,.47.05v0a.19.19,0,0,0,0,.1.12.12,0,0,0,.17,0,.21.21,0,0,0,.06-.1.23.23,0,0,0,0-.2A.43.43,0,0,0,97.79,145.23Z" fill="#d19828"/>
      <path d="M94.75,145.73s0,0,0,.05h-.19l-.12,0s0,0,0,0a.69.69,0,0,0-.32,0,.42.42,0,0,0-.32.32.45.45,0,0,0,.56.56.69.69,0,0,0,.42-.33A2.49,2.49,0,0,1,95,146C95.07,145.86,94.9,145.62,94.75,145.73Z" fill="#d19828"/>
      <path d="M93.21,146.38l0,0a.26.26,0,0,0-.11-.07h0a.18.18,0,0,0-.16,0,.19.19,0,0,0-.09.11.26.26,0,0,0,0,.15.2.2,0,0,0,.12.1H93a.25.25,0,0,0,.12,0l0,0a.17.17,0,0,0,.11-.11A.19.19,0,0,0,93.21,146.38Z" fill="#d19828"/>
      <path d="M92.37,146.07h0a.29.29,0,0,0-.16.11.32.32,0,0,0-.07.19.49.49,0,0,0,.05.16.32.32,0,0,0,.18.14h0a.32.32,0,1,0,0-.61Z" fill="#d19828"/>
      <path d="M93.9,150a.68.68,0,0,0-.4,0,1.36,1.36,0,0,1-.49,0c-.15,0-.29.08-.44.09l-.42.05a.14.14,0,0,0-.08.05c0-.39-.41-.54-.76-.6a1.45,1.45,0,0,0-.88-.29l-.28,0-.11.05h0l-.09,0-.24-.05a3,3,0,0,0-.69,0,.47.47,0,0,0,.12-.2.45.45,0,0,0,0-.23h0a.45.45,0,0,0-.3-.31.53.53,0,0,0-.35,0l-.09.07h0a.38.38,0,0,0-.18.31v.05h0a.72.72,0,0,0-.12.21.51.51,0,0,0,0,.3h-.21s0,0,0-.05l0-.2-.08-.18-.11-.15-.16-.11-.17-.08a.51.51,0,0,0-.3,0,.32.32,0,0,0-.19,0,.49.49,0,0,0-.24.15l0,0-.1.12h-.18a.35.35,0,0,0,.06-.14h0a.16.16,0,0,0,0-.07v0a.39.39,0,0,0-.06-.47.45.45,0,0,0-.6,0,.45.45,0,0,0-.13.22.59.59,0,0,0,0,.23.4.4,0,0,0,.34.38h0a.49.49,0,0,0-.14.23.44.44,0,0,0,0,.2.48.48,0,0,0,.07.2.45.45,0,0,0,.18.18h0l.13,0,.14,0a.52.52,0,0,0,.27-.07l0,0,.05,0a.37.37,0,0,0,.08.26c.29.37.86.32,1.28.32a3.87,3.87,0,0,1,1.22.12.33.33,0,0,0,.28,0,1.38,1.38,0,0,0,1,0,2.41,2.41,0,0,0,.47-.18l.18-.11a1,1,0,0,0,.5.12.44.44,0,0,0,.39-.28.1.1,0,0,0,0,0,1.38,1.38,0,0,0,.83.3.83.83,0,0,0,.44-.12c.16-.07.29,0,.47,0C94.16,150.6,94.27,150.07,93.9,150Z" fill="#d19828"/>
      <path d="M107.13,147c-.15-.36-.28-.65-.66-.73a5.4,5.4,0,0,1-.58-.09l-.53-.12c-.73-.16-1.48-.05-2.2-.26s-1.42-.45-2.15-.61c-.11,0-.18.12-.08.17a8,8,0,0,0,1.53.67l.09,0,0,0c-.06,0-.11.06-.12.13a.17.17,0,0,0,0,.17l.12.09a.43.43,0,0,0,.16.05.28.28,0,0,0,.13,0,.25.25,0,0,0,0,.22.48.48,0,0,0,.66.16,1.94,1.94,0,0,0,.29.28l.31.21,0,.05a.42.42,0,0,0-.06.19.45.45,0,0,0,0,.2.53.53,0,0,0,.24.31h0a.54.54,0,0,0,0,.11.61.61,0,0,0-.89.16l0,.05-.07.06c-.05,0-.16.12,0,0l-.22.18a.77.77,0,0,0-.12.93.9.9,0,0,0,.27.28.84.84,0,0,0,.6.08,1.45,1.45,0,0,0,.43-.26,1.06,1.06,0,0,0,.3-.75h.06a.7.7,0,0,0,.42.23.65.65,0,0,0,.67-.3.52.52,0,0,0,.06-.16l.15,0a.78.78,0,0,0,.31-.17C107.06,148.69,107.41,147.68,107.13,147Zm-4.14-.69a.34.34,0,0,0,0-.1l.14,0A.35.35,0,0,0,103,146.28Zm2.17,1.85a.52.52,0,0,0-.21,0h0a.94.94,0,0,0,0-.16l.07-.09.06-.13a.34.34,0,0,0,0-.2.33.33,0,0,0-.06-.19.29.29,0,0,0-.13-.14.37.37,0,0,0-.17-.1h-.16a1.74,1.74,0,0,0-.42-.39.87.87,0,0,0-.46-.13.77.77,0,0,0-.15-.26,6.18,6.18,0,0,1,.74.35,3.8,3.8,0,0,0,.79.37l.29.08a1.7,1.7,0,0,0-.15.45A1.25,1.25,0,0,0,105.16,148.13Z" fill="#d19828"/>
      <path d="M102.73,149.07a.49.49,0,0,0-.22-.29.53.53,0,0,0-.28-.07.56.56,0,0,0-.41.16.47.47,0,0,0-.12.45h0a.39.39,0,0,0,.15.23.67.67,0,0,0,.17.08h.1a.62.62,0,0,0,.33,0,.47.47,0,0,0,.19-.15A.46.46,0,0,0,102.73,149.07Z" fill="#d19828"/>
      <path d="M101.36,149.27l0,0h0a.48.48,0,0,0-.29,0,.4.4,0,0,0-.26.1.34.34,0,0,0-.11.26.37.37,0,0,0,.37.37.57.57,0,0,0,.25-.06l0,0,.08-.06,0-.05s0-.06.05-.07l0,0h0l.09-.07C101.81,149.46,101.56,149.14,101.36,149.27Z" fill="#d19828"/>
      <path d="M100.34,149.7a1.16,1.16,0,0,0-.49,0c-.21,0-.37.15-.57.19s-.44-.11-.61-.17a.91.91,0,0,0-.56-.06.21.21,0,0,0-.14.24c.08.38.63.5,1,.4a6.21,6.21,0,0,1,.61-.2,1.32,1.32,0,0,1,.71,0C100.46,150.13,100.56,149.76,100.34,149.7Z" fill="#d19828"/>
      <path d="M97.57,149.73l0,0a.4.4,0,0,0-.37,0,.37.37,0,0,0,0,.64.38.38,0,0,0,.37,0h0A.36.36,0,0,0,97.57,149.73Z" fill="#d19828"/>
      <path d="M99.19,145.08A.3.3,0,0,0,99,145a.29.29,0,0,0-.22,0l-.06,0a.31.31,0,0,0-.13.17.22.22,0,0,0,0,.16h-.13a.48.48,0,0,0-.3.17.22.22,0,0,0-.11.17.43.43,0,0,0,0,.05.59.59,0,0,0,0,.19.48.48,0,0,0,.58.33.53.53,0,0,0,.28-.21.5.5,0,0,0,0-.36.31.31,0,0,0-.06-.13l.1,0,.06,0a.29.29,0,0,0,.14-.17A.31.31,0,0,0,99.19,145.08Z" fill="#d19828"/>
      <path d="M95.65,146.8a.34.34,0,0,0-.22-.17.4.4,0,0,0-.28,0l-.06,0-.12.1a.37.37,0,0,0-.07.23v.09a.23.23,0,0,0,.06.12.38.38,0,0,0,.18.13.45.45,0,0,0,.2,0l.11,0,.06,0a.41.41,0,0,0,.17-.22A.39.39,0,0,0,95.65,146.8Z" fill="#d19828"/>
      <path d="M93.84,147.43a.25.25,0,0,0-.08-.14.23.23,0,0,0-.34,0,.34.34,0,0,0-.09.14.28.28,0,0,0,0,.13.24.24,0,0,0,.07.18.26.26,0,0,0,.45-.18A.29.29,0,0,0,93.84,147.43Z" fill="#d19828"/>
      <path d="M91.78,150.59c-8.51,0-15.41-1.53-15.41-3.42H74.49c0,2.36,7.74,4.28,17.29,4.28s17.3-1.92,17.3-4.28h-1.89C107.19,149.06,100.29,150.59,91.78,150.59Z" fill="#d61d24"/>
    </g>
    <g>
      <path d="M53.88,56a7.68,7.68,0,0,0,1.19.89,3.85,3.85,0,0,0,1.32.49,2.7,2.7,0,0,0,1.38-.08,6.37,6.37,0,0,0,1.35-.59,7,7,0,0,1-.55.54,4.14,4.14,0,0,1-.68.39,2.75,2.75,0,0,1-1.58.2,3.39,3.39,0,0,1-1.44-.66A3.61,3.61,0,0,1,53.88,56Z" fill="#d39000"/>
      <path d="M55.13,64.53a5.77,5.77,0,0,1-4.54-2.59.58.58,0,0,1,.25-.79.61.61,0,0,1,.82.25,4.68,4.68,0,0,0,3.82,2c1.69.14,3.3-.3,3.91-1.08a.61.61,0,0,1,.85-.11.57.57,0,0,1,.12.82c-.87,1.11-2.83,1.72-5,1.53Z" fill="#d39000"/>
      <path d="M64.79,50.56c-.16,1.36-.23.64-2.14.42s-2.15.47-2-.89a2.11,2.11,0,1,1,4.13.47Z" fill="#103754"/>
      <path d="M51.7,49.12c-.15,1.36-.22.64-2.14.42s-2.14.46-2-.89a2.11,2.11,0,1,1,4.13.47Z" fill="#103754"/>
      <path d="M47,44.58a.62.62,0,0,1-.51-.26.62.62,0,0,1,.13-.88c1.18-.87,4.72-1.18,6,.06a.63.63,0,0,1-.88.91c-.78-.76-3.6-.52-4.37.05A.63.63,0,0,1,47,44.58Z" fill="#5e6057"/>
      <path d="M60.82,45.63a.62.62,0,0,1-.49-.34.63.63,0,0,1,.27-.85,6.56,6.56,0,0,1,6.24.71.63.63,0,0,1-.82,1,5.43,5.43,0,0,0-4.84-.55A.57.57,0,0,1,60.82,45.63Z" fill="#5e6057"/>
    </g>
    <g>
      <path d="M121,92.26a4,4,0,0,0,1.66.73,4.51,4.51,0,0,0,1.82-.09,2.82,2.82,0,0,1-.89.38,2.69,2.69,0,0,1-1,0A2.45,2.45,0,0,1,121,92.26Z" fill="#c28670"/>
      <path d="M122,98.25a3.67,3.67,0,0,1-2.84-1.86.4.4,0,0,1,.19-.52.39.39,0,0,1,.52.19,3,3,0,0,0,2.4,1.44,3.07,3.07,0,0,0,2.56-.61.39.39,0,0,1,.6.5,3.7,3.7,0,0,1-3.27.88Z" fill="#e39b7e"/>
      <path d="M130,91.14c-.15.9-.17.42-1.44.21s-1.45.24-1.3-.66a1.41,1.41,0,1,1,2.74.45Z" fill="#103754"/>
      <path d="M119.94,89.49c-.15.9-.17.42-1.44.21s-1.45.24-1.3-.66a1.41,1.41,0,1,1,2.74.45Z" fill="#103754"/>
    </g>
  </g>
</svg>
