<svg xmlns="http://www.w3.org/2000/svg" viewBox="0 0 160 200">
  <title>_</title>
  <g>
    <g>
      <path d="M114.92,121.53a2.07,2.07,0,0,0,2-.84c.61-.87,1.34-2,1.22-2.35a4.1,4.1,0,0,0-.38-.84,18.29,18.29,0,0,0,.87-2.81c.38-1.68,0-2.19-.74-1.13a8.37,8.37,0,0,0-1,2.12s-.57-.84-1-.76a1.35,1.35,0,0,0-.69.3s-.6-.51-.93-.46-.85.64-.85.64a3.58,3.58,0,0,0-1.33.47c-.49.36-.23,2.84-.22,3.44v0a2,2,0,0,0,1.68,2Z" fill="#f4c092"/>
      <g>
        <path d="M153.2,164s4.44,23,4.51,25-.92,3.64-3.28,3.64-3.48-.61-4.66-4.93-3.7-24.8-3.7-24.8Z" fill="#89a523"/>
        <path d="M145.2,167.61s4.4,22,4.48,23.85-1,3.43-3.58,3.43-3.78-.57-5.07-4.64-4-23.35-4-23.35Z" fill="#97bc31"/>
        <path d="M123.12,164s-4.43,23-4.5,25,.91,3.64,3.28,3.64,3.47-.61,4.66-4.93,3.69-24.8,3.69-24.8Z" fill="#89a523"/>
        <path d="M112.77,167.61s-4.4,22-4.47,23.85,1,3.43,3.57,3.43,3.78-.57,5.07-4.64,4-23.35,4-23.35Z" fill="#97bc31"/>
        <rect x="112.19" y="159.62" width="42.41" height="8.08" fill="#97bc31"/>
        <ellipse cx="133.4" cy="167.7" rx="21.21" ry="1.86" fill="#97bc31"/>
        <ellipse cx="133.4" cy="159.62" rx="21.21" ry="1.86" fill="#afd658"/>
      </g>
      <g>
        <path d="M145.9,153.55s3-3.52,3.44-3.38a6.91,6.91,0,0,1,2.43,1.53c.8.8,1.26,1.17,1.26,1.17a13.71,13.71,0,0,1,3.52,2.71c1.93,2,2,2.73,1.91,3a5.2,5.2,0,0,1-1.85,2,5.13,5.13,0,0,1-3.39-.62c-1.05-.54-1.54-.82-1.54-.82l-.77.13a3.28,3.28,0,0,1-1.78-.17c-.61-.22-.94-.23-1.62-1.55a1.68,1.68,0,0,1,.21-2.15A2,2,0,0,1,145.9,153.55Z" fill="#51564b"/>
        <path d="M148.31,151.06s.43,0,1.58.89,1.77,1.62,2.09,1.85a17.75,17.75,0,0,1,3.58,2.72,11,11,0,0,1,2.27,2.8,4,4,0,0,0,.58-.89c0-.16-.46-1.36-2.45-3.18a24.43,24.43,0,0,0-3.26-2.49,10.13,10.13,0,0,0-2-1.77,4.51,4.51,0,0,0-1.49-.72C149.08,150.26,148.31,151.06,148.31,151.06Z" fill="#fff8ee"/>
        <path d="M151.68,159.11s-.54-.08-1.14-1.21a2.65,2.65,0,0,1-.12-2.45c.18-.15.51.13.51.48a2.52,2.52,0,0,0,0,1.78,3,3,0,0,0,1.11,1.61Z" fill="#fff8ee"/>
        <path d="M152.76,159.69a2.75,2.75,0,0,1-.7-1.32,2.66,2.66,0,0,1,.24-1.82c.16-.19.54-.12.54.33s-.41,1-.16,1.89a2.49,2.49,0,0,0,.78,1.27Z" fill="#fff8ee"/>
        <path d="M146.63,152.71a2,2,0,0,0,1.65.25,4.57,4.57,0,0,0,2-1.05l-.2-.09a4.69,4.69,0,0,1-1.82,1,2.09,2.09,0,0,1-1.51-.2Z" fill="#fff8ee"/>
      </g>
      <path d="M124,146.38s-6.26.77-8.12,2.13-2.22,4.53-.78,7.49,7.56,2.52,7.56,2.52l4.19-10.06S125.09,146.33,124,146.38Z" fill="#5793c9"/>
      <path d="M125.48,147.63s-6.15-.38-6.62,6.37,11.34,6.45,18.88,6.45,11.9-.48,11.9-.48a22.32,22.32,0,0,1,0-3.77c.19-1.65-1.26-4-1.26-4s1.78-1.62,1.28-5.11a10.12,10.12,0,0,0-2.63-5.51Z" fill="#5793c9"/>
      <path d="M128.7,119.72s-7.35,7.89-9.54,7.48-2.59-6.48-2.59-6.48l-4.35-1s.21,10.15,4.27,12.64,9.8-1.57,9.8-1.57Z" fill="#f4c092"/>
      <path d="M131.8,118.51a6,6,0,0,0-3.1,1.21c-1,1-3.38,9.75-3.55,13s-.58,13.78-.58,13.78a68,68,0,0,0,12.75.36A23.69,23.69,0,0,0,149.13,143s-2.28-18.43-3.95-21.41-6.65-2.57-6.65-2.57Z" fill="#ed4a2f"/>
      <path d="M139.32,119.05a36.84,36.84,0,0,1-3.58,3c-1.88,1.33-3.86,2-5.07.59s.53-4,.53-4,.45-.12.52-.22a1.45,1.45,0,0,0,.11-.3l.84.43,4,.28Z" fill="#f4c092"/>
      <path d="M148.38,152.21s-.87,2.18-9.06,3-11.34,0-11.34,0l-1.17,1.22,2.36.91,5.13-.71s3.93-.16,8.09-.74a21.37,21.37,0,0,0,6.8-2.06Z" fill="#5793c9"/>
      <path d="M140.34,118.74a4.83,4.83,0,0,1-1-1.82,8.22,8.22,0,0,1,.37-3l-7.79,1.94a16.08,16.08,0,0,1-.09,3.09,1.72,1.72,0,0,1-.7.75,22.29,22.29,0,0,0,2,1.39,16.33,16.33,0,0,0,4.15-.75c.29-.11.82-1,.82-1Z" fill="#f4c092"/>
      <path d="M121.08,95.34c.79-1.68.54-8.39,9.36-11.46s19.18,1.41,21,9.23-4.3,12.59-4.3,12.59a1.64,1.64,0,0,1,.83.39c.47.36,2.13,1.08,1,3.67a5,5,0,0,1-4.64,3.19,2.22,2.22,0,0,1-1.72-1.3,18.24,18.24,0,0,1-2,2,12.74,12.74,0,0,1-10.71,3.11c-5.9-.8-7.19-2.78-8.4-6.18C121.49,110.59,118.12,101.73,121.08,95.34Z" fill="#f4c092"/>
      <path d="M143,91.76s.55,3.25-3.44,5-6.49.34-6.49.34a13.17,13.17,0,0,0,3.69-.22,6.71,6.71,0,0,0,2.48-2,6.05,6.05,0,0,1-5.27,1.29,8,8,0,0,1-4.8-2.32,20.72,20.72,0,0,0,4.13,1.07,3.3,3.3,0,0,0,2.08-.42,5.4,5.4,0,0,1-3.37,0,14,14,0,0,1-2.49-.9s3.14.32,4.37-.32a5.86,5.86,0,0,0,1.93-1.65,6.58,6.58,0,0,1-4.49,1.82c-2.68-.05-4.28-1.31-7.77-.79s-3.44,4.47-3.44,4.47-1.93-3.69.54-6.9,5-3.61,5-3.61a8,8,0,0,0-4,2.39c-2.12,2.11-2.14,2.89-2.14,2.89s-.79-2.37,1.59-5.32,7-4.09,7-4.09a10.49,10.49,0,0,1-2.45.27.41.41,0,0,1-.32-.65s.94.82,2.56-.5,6.82-4.81,14.71-.87S150,86.91,150,86.91l.72-2.4a4.11,4.11,0,0,1,.25,1.65,4.61,4.61,0,0,1-.35,1.15,4.17,4.17,0,0,1,1.91.75,3.44,3.44,0,0,1,1.43,1.48,5.41,5.41,0,0,0-1.27-.86c-.43-.13-1.3-.44-1.3-.44s3.81,1.45,3.43,7.18-4.53,7.86-4.5,10.15,2,1.82,2,1.82-1,1.6-3.12.24-2-2.95-2-2.95a9.33,9.33,0,0,0,.19,1.58,2.3,2.3,0,0,0,.49.8,3.84,3.84,0,0,1-1.64-3.57c.24-2.41.75-4.47.88-6.29s-2.3-4.7-2.3-4.7a8.44,8.44,0,0,1,1.81,5,18.45,18.45,0,0,1-1.32,5.4s.08-3.29,0-5.24a10.21,10.21,0,0,0-1-3.66,16.14,16.14,0,0,1,.71,3.31,20.75,20.75,0,0,1-.3,2.06,15.63,15.63,0,0,1-1.26-4C143.17,93.45,143,91.76,143,91.76Z" fill="#935c37"/>
      <path d="M143.27,123.53s-3.09-2.63-6.5,1.11-4.86,11.47-8.89,17.28c-3.45,5-4,5.09-4,5.09s-1.47-.06-3.23-.24-4.79.92-4.37,1.75,1,.57,1,.57a.74.74,0,0,0,.33,1,1.92,1.92,0,0,0,1,.23s.26.72.75.9a1.23,1.23,0,0,0,.87,0s-.33.32.84.67c.85.26,4.22-.48,5.35-1.15A34.69,34.69,0,0,0,139,138.57C143.48,130.93,144.9,126.86,143.27,123.53Z" fill="#f4c092"/>
    </g>
    <g>
      <path d="M127.2,105.05a2.1,2.1,0,0,1-1.87.83,1.65,1.65,0,0,1-1-.49,2.57,2.57,0,0,1-.34-.4,5,5,0,0,1-.22-.47,5.21,5.21,0,0,0,.71.7,1.73,1.73,0,0,0,.85.36A2.87,2.87,0,0,0,127.2,105.05Z" fill="#e7ad8b"/>
      <path d="M131.12,101.93a1.22,1.22,0,1,0,1.33-1.31A1.33,1.33,0,0,0,131.12,101.93Z" fill="#3a1e0a"/>
      <path d="M121.74,100.56a1.13,1.13,0,1,0,1.23-1.2A1.23,1.23,0,0,0,121.74,100.56Z" fill="#3a1e0a"/>
      <path d="M134.58,100a.37.37,0,0,0,.28-.09.39.39,0,0,0,.07-.56,3.49,3.49,0,0,0-3.83-.72.4.4,0,0,0-.16.55.41.41,0,0,0,.55.15,2.71,2.71,0,0,1,2.81.51A.4.4,0,0,0,134.58,100Z" fill="#935c37"/>
      <path d="M121.33,97.93a.41.41,0,0,0,.3-.1,2.48,2.48,0,0,1,3,.31.4.4,0,0,0,.56,0,.41.41,0,0,0,0-.57,3.25,3.25,0,0,0-4-.33.41.41,0,0,0,.22.71Z" fill="#935c37"/>
      <path d="M125.84,111.11a4.71,4.71,0,0,0,3.6-1,.61.61,0,0,0,.08-.78.42.42,0,0,0-.67-.07,4.24,4.24,0,0,1-3.73.57,2.56,2.56,0,0,1-1.83-1.35.45.45,0,0,0-.62-.29.6.6,0,0,0-.27.73,3.39,3.39,0,0,0,2.47,2A5.76,5.76,0,0,0,125.84,111.11Z" fill="#dd9666"/>
    </g>
    <g>
      <path d="M91.63,196.59l.13,0a5,5,0,0,0,2.93-3l0-2.47-12.17-2.75-20.67-2.09,0,5.71a5.19,5.19,0,0,0,2.51,4.47S90.23,197.14,91.63,196.59Z" fill="#352c2a"/>
      <path d="M101.15,196.36l.13-.05a4.9,4.9,0,0,0,2.92-3l0-2.47L92,188.08,71.33,186l0,5.71a5.2,5.2,0,0,0,2.51,4.47S99.75,196.91,101.15,196.36Z" fill="#3e3431"/>
      <g>
        <path d="M61.68,137.3s4.47,45.06,4.56,47.55-1.19,4.6-4.29,4.6-4.55-.77-6.09-6.22-3.51-47.34-3.51-47.34Z" fill="#89a523"/>
        <path d="M63,150.83c0-.12.05-4.49-3.73-3.48S54.64,173,54.64,173L52.5,142.78l10-1.8Z" fill="#788e1a"/>
        <path d="M51.21,141.88s4.43,43.8,4.53,46.15-1.3,4.32-4.68,4.32-5-.72-6.63-5.85S40.49,141,40.49,141Z" fill="#97bc31"/>
        <path d="M22.33,137.3s-7.13,45.06-7.22,47.55,1.2,4.6,4.3,4.6,4.54-.77,6.09-6.22,6.15-47.34,6.15-47.34Z" fill="#89a523"/>
        <path d="M8.79,141.88S1.71,185.68,1.61,188s1.3,4.32,4.68,4.32,4.94-.72,6.63-5.85S19.5,141,19.5,141Z" fill="#97bc31"/>
        <rect x="8.03" y="131.79" width="55.47" height="10.2" fill="#97bc31"/>
        <ellipse cx="35.77" cy="141.99" rx="27.74" ry="2.35" fill="#97bc31"/>
        <ellipse cx="35.77" cy="131.79" rx="27.74" ry="2.35" fill="#afd658"/>
      </g>
      <path d="M43.17,108.11a3.48,3.48,0,0,0,1.42,1.23c.73.2,1.73.38,1.73.38l-.08-.5a5.09,5.09,0,0,1-1.63-.39,4,4,0,0,1-1-1Z" fill="#7c6e65"/>
      <path d="M36.19,108.51l43.1,5.88s8.45,2.27,8.26,7.17c0,0-4.93,29.26-4.34,30.83s-1.57,20-1.57,20l-.2,6.66a11.12,11.12,0,0,0-.62,3.9,7.75,7.75,0,0,1-.75,3.55l.39.46H76.15s-14.49,5.29-14.69,4.7a30.68,30.68,0,0,1,0-4.31l-2.55-.07,2.55-16.85s1.57-8.61,2.35-11,.79-15.67,1-16.65.2-10,.2-10L56.17,132s-30.75,2.55-40.35-1.76c0,0-9-5.71-7.64-14.11Z" fill="#231f20"/>
      <path d="M45,109.31l43.1,5.87s8.46,2.28,8.26,7.17c0,0-4.93,29.27-4.34,30.84s-1.57,20-1.57,20l-.19,6.66a10.83,10.83,0,0,0-.62,3.9,7.82,7.82,0,0,1-.76,3.54l.4.47H85s-14.5,5.28-14.69,4.7a30.67,30.67,0,0,1,0-4.31l-2.55-.07,2.55-16.85s1.56-8.62,2.35-11,.78-15.67,1-16.65.2-10,.2-10L65,132.81s-30.76,2.55-40.36-1.76c0,0-9-5.7-7.64-14.1Z" fill="#231f20"/>
      <path d="M51.74,43.57l1.14-5.33L39,35.29s-.51,2.38-1.13,5.33-3.68,4.47-7,5.1c0,0-3,5.89-3.78,9.38,0,0,29,8.2,25.68,6.86L56.6,51.33C53.29,50,51.12,46.52,51.74,43.57Z" fill="#efcaa3"/>
      <path d="M39,35.29s-.51,2.38-1.13,5.33a5.53,5.53,0,0,1-.2.66,20.34,20.34,0,0,0,6.33,6c3.88,2.35,8,3.33,10.89,3-2.29-1.66-3.62-4.4-3.12-6.79l1.14-5.33Z" opacity="0.1"/>
      <path d="M55.16,50.56h0C52.35,56.12,34,55.15,30.87,45.72l-4,.85c-8.08,1.74-11.79,3-14.58,10.83-2.13,5.93-3.14,18.12-1.65,23.85L9.34,97.19,7.88,116.92c15.59-3.26,30-7,43.49-5.56l.91-8.52,2.58-15.92,6.21-23.74A13.54,13.54,0,0,0,55.16,50.56Z" fill="#5cd6ea"/>
      <path d="M59.19,90.8l2.73-24L60,67.2,54.86,86.92l-3.15,14,34.13,6.68,1.79-5.15Z" fill="#e3c09c"/>
      <path d="M89,100.39l5.35-.47L99.57,101h0a3.34,3.34,0,0,1-3.19,2.11l-1.75,0s4.57,1.2,4.66,1.85a3,3,0,0,1-.63,1.61,2.23,2.23,0,0,0-.34,1.33h0A2.33,2.33,0,0,1,97.2,110l-.61.36a2.33,2.33,0,0,0-.77.76l0,0a2.3,2.3,0,0,1-2.51,1L88.85,111a4.25,4.25,0,0,1-2.34-1.55l-4.34-5.71Z" fill="#e3c09c"/>
      <path d="M63.74,22.54c-2.4,11.4-7.16,20.51-13.5,19.18-5.91-1.25-17.06-13.25-14.66-24.65-.09-14,9.73-4.27,8.11-13.15C66.73,4.73,70.24,9.82,63.74,22.54Z" fill="#3c3c3b"/>
      <path d="M62.58,16.32C56,16.66,49.08,11,45,18.14c-1.24,2.42-2.18,9-8.56,7.25,0,0,.56,15.43,14.09,20.53,3.44,1.29,9.21-4.57,12-10.21C63.69,33.27,66.92,16.09,62.58,16.32Z" fill="#efcaa3"/>
      <path d="M38,23.81c0,2.77,1.61,6.38,2.65,6.37s1.86-2.26,1.84-5-.88-5-1.92-5S38,21,38,23.81Z" fill="#efcaa3"/>
      <path d="M31.18,68.13,40.85,93l22.75,7.58,5.54-.92L74,101.37h0c-.58,1.17-.43,1.83-1.7,2l-4.18.45,8.84,2.78h0a4.06,4.06,0,0,1-2.75,3.86l-3.44,1.11a3.79,3.79,0,0,1-1.83.14l-5-.83a2.78,2.78,0,0,1-1.55-.83l-1.74-2.49-25.54-6A8.21,8.21,0,0,1,29.61,97L17.87,72.18Z" fill="#efcaa3"/>
      <path d="M55.34,75.52h7.09l.62-14.64a9.67,9.67,0,0,0-4.9-8.64l-3.29-1.88Z" fill="#5cd6ea"/>
      <g>
        <path d="M54.74,33.93a4.14,4.14,0,0,0,2,.91,3.18,3.18,0,0,0,2.1-.61,2.64,2.64,0,0,1-.93.75,2.28,2.28,0,0,1-1.21.22A2.81,2.81,0,0,1,54.74,33.93Z" fill="#c99357"/>
        <path d="M49.11,24.62A4.46,4.46,0,0,1,52,23.32a3.49,3.49,0,0,1,1.63.31,3,3,0,0,1,1.23,1.05,5.94,5.94,0,0,0-1.4-.58A4.61,4.61,0,0,0,52.05,24,11.08,11.08,0,0,0,49.11,24.62Z" fill="#1f160f"/>
        <path d="M64.48,26.4a3.53,3.53,0,0,0-2.41-1.16,5.22,5.22,0,0,0-1.35.12l-1.42.36c.18-.17.39-.31.59-.47a7.3,7.3,0,0,1,.68-.36,3.57,3.57,0,0,1,1.53-.29,2.82,2.82,0,0,1,1.51.54A2.34,2.34,0,0,1,64.48,26.4Z" fill="#1f160f"/>
        <path d="M52.86,38.42c-.07,0,2.48,2.58,5.42.76" fill="none" stroke="#c28670" stroke-linecap="round" stroke-linejoin="round" stroke-width="1.09"/>
        <path d="M62.91,29.32a1.35,1.35,0,1,1-.85-1.87A1.47,1.47,0,0,1,62.91,29.32Z" fill="#896349"/>
        <path d="M53.68,27.69a1.35,1.35,0,1,1-.84-1.88A1.46,1.46,0,0,1,53.68,27.69Z" fill="#896349"/>
      </g>
    </g>
  </g>
</svg>
