<svg xmlns="http://www.w3.org/2000/svg" viewBox="0 0 475 315">
  <title>_</title>
  <g>
    <path d="M22.42,63c.06,3.07.11,2.34.11,2.34l-.43,26.3-2.33.56L22,97.75v0c40.92,2.46,73,27.17,72.46,56.87s-33.31,53.8-74.3,55.48L19,280.06l-2.3.56,2.2,5.46v.05l108.11,1c3.57-29,38.11-51.65,79.65-51.26,38.74.37,70.72,20.64,77,46.95l-1.23.3,2.18,5.41s0,.07,0,.1h0v0l.1,0,99.28,1c8.36-35.16,10.68-70.71,5.74-104.33C368.42,39.79,189.75-13.48,22.42,63Z" fill="#d61d24" opacity="0.5"/>
    <path d="M20.31,59.89l-.53,32.4c40.92,2.46,73,27.18,72.47,56.88S58.93,203,18,204.65l-1.25,76,108.11,1c3.58-29,38.11-51.65,79.66-51.26s75.33,23.68,78,52.76l99.41.94c8.36-35.15,10.68-70.7,5.74-104.33C366.2,34.3,187.53-19,20.2,57.54c.07,3.08.11,2.35.11,2.35" fill="#a71c20"/>
  </g>
</svg>
