<svg xmlns="http://www.w3.org/2000/svg" viewBox="0 0 475 315">
  <title>_</title>
  <g>
    <path d="M380.31,61.44V55.75l-5.2,0v5.64H277.54c-3.13,0-5.66-1.93-5.66-4.31,0-26.3-30.39-47.7-67.74-47.7s-67.73,21.4-67.73,47.7c0,2.38-2.54,4.31-5.66,4.31H17.22v76c41.28,1.83,74.08,26.34,74.08,56.21S58.5,248,17.22,249.83v44.22c168.9,68.36,324.33-76.89,363.13-232.61Z" fill="#bf272e" opacity="0.5"/>
    <path d="M271.88,51.38c0-26.3-30.39-47.7-67.74-47.7s-67.73,21.4-67.73,47.7c0,2.38-2.54,4.31-5.66,4.31H17.22v76C58.5,133.48,91.3,158,91.3,187.87s-32.8,54.38-74.08,56.21V288.3c168.9,68.37,324.33-76.89,363.13-232.61H277.54C274.41,55.69,271.88,53.76,271.88,51.38Z" fill="#a71c20"/>
  </g>
</svg>
