<svg xmlns="http://www.w3.org/2000/svg" viewBox="0 0 260 400">
  <title>_</title>
  <g>
    <rect x="14.04" y="81.77" width="231.43" height="248.54" fill="#fff" stroke="#029ab3" stroke-miterlimit="10" stroke-width="1.06"/>
    <polyline points="13.5 330.31 245.93 330.31 245.93 386.54 13.5 386.54" fill="#f0f5eb"/>
    <g>
      <g>
        <path d="M53.49,62l0-.68a6.83,6.83,0,0,1,.94-3.68,4.54,4.54,0,0,1,2.69-1.67A5.31,5.31,0,0,1,62.79,58c1.91,2.79.52,6.92-.81,9.63-.86,1.74-2,3.54-3.79,4.24a5.78,5.78,0,0,1-5.65-1.23C50.72,69.19,49.75,67,48,65.52A1.74,1.74,0,0,0,46.92,65c-.37,0-.74.2-1.08.06a1,1,0,0,1-.45-.93,3.07,3.07,0,0,1,2.28-2.93,2.32,2.32,0,0,1,1.58,0c.84.36,1.24,1.29,1.71,2.08.26.43,1.6,2.53,2.27,2.06.27-.19.13-1,.15-1.31C53.41,63.35,53.46,62.65,53.49,62Z" fill="#fdd2b9"/>
        <path d="M90.72,65.7a1.3,1.3,0,0,1,.43.15.51.51,0,0,1,.25.38.54.54,0,0,1-.24.45,3.59,3.59,0,0,1-2,.3,7,7,0,0,1,2.28.35.55.55,0,0,1,.38.36c.33,1.08-2.3.67-2.76.62l1,.17a4.1,4.1,0,0,1,.87.21c.28.11.47.38.25.66a.88.88,0,0,1-.5.25,4.47,4.47,0,0,1-2-.08h0a2.34,2.34,0,0,1,1.1.52c.12.13.2.33.06.47a1.15,1.15,0,0,1-.92.21,3.75,3.75,0,0,1-.82-.18,7,7,0,0,0-.79-.2c-1.58-.33-3.16-.37-4.75-.59a15.77,15.77,0,0,1-4.48-1.23l-.06,0a13.36,13.36,0,0,1-6.85-8.07c-.42-1.41-.66-3.32.6-4.38a3,3,0,0,1,2.56-.72,2.7,2.7,0,0,1,1.55,1,5.5,5.5,0,0,1,.78,1.45,17.17,17.17,0,0,0,3,5.68,13.55,13.55,0,0,0,2.26,2,5.06,5.06,0,0,0,2.38,1c1,.09,1.79-.84,2.3-1.55a3.72,3.72,0,0,1,1.1-1.2.63.63,0,0,1,.74.12,1,1,0,0,1,.06.91,2,2,0,0,1-.57.89,1.06,1.06,0,0,1,.31,0l.36,0c.23,0,.47,0,.71,0a7.05,7.05,0,0,1,1.3.1Z" fill="#fddbbb"/>
        <path d="M64.4,48a11.53,11.53,0,0,0-1.44,0,10,10,0,0,0-6.42,2.8c-1.79,1.76-2.1,3.83-3.14,6a6.78,6.78,0,0,0,0,5.66,9.12,9.12,0,0,0,5.35,5.1c2.86,1,6.05.51,8.89-.54,2-.76,4-1.67,6-2.57a27.09,27.09,0,0,0,6-3.61c1-.79,2-1.59,1.89-2.84A4.07,4.07,0,0,0,81,56.31c-.25-.5-.38-1-.63-1.54a7,7,0,0,0-2.34-2.65,25.9,25.9,0,0,0-8.12-3.18A30.08,30.08,0,0,0,64.4,48Z" fill="#fdd2b9"/>
        <path d="M53.28,49a11.2,11.2,0,0,0-4.6,4.89,10.11,10.11,0,0,0-.46,7.45,16.24,16.24,0,0,0,1.72,3.34,14.92,14.92,0,0,0,2.73,3,6.9,6.9,0,0,0,1.89,1.27,6.7,6.7,0,0,0,2,.39,13,13,0,0,0,4.72-.49c.21-.06,2-.61,1.94-.82a12.48,12.48,0,0,1-.39-2.71c0-.89-.16-1.77-.14-2.66a42.86,42.86,0,0,1,2-12.51c.12-.37.25-.74.38-1.11.06-.17.43-.87.32-1a.35.35,0,0,0-.19-.1,17.07,17.07,0,0,0-4.62-.58,15.71,15.71,0,0,0-4.53.49A11.93,11.93,0,0,0,53.28,49Z" fill="#9dccd8"/>
        <path d="M50.25,58.11l.33-.66a7.31,7.31,0,0,1,2.47-3.29,5,5,0,0,1,3.39-.54,5.75,5.75,0,0,1,4.75,4.43c.74,3.58-2.38,7.12-4.84,9.27-1.58,1.39-3.82,2.87-5.92,2.82A7.3,7.3,0,0,1,45.91,68a17,17,0,0,1-2.44-3.41c-.58-.82-1.14-2.77-2.41-2.18a7.32,7.32,0,0,0-1,.72,1.42,1.42,0,0,1-1.18.28,1.15,1.15,0,0,1-.73-1.06A2.77,2.77,0,0,1,38.48,61a8.36,8.36,0,0,1,2.39-2.86c.84-.65,1.81-1.34,2.9-.79.84.42.62,1,.72,1.78a1.71,1.71,0,0,0,.37.72,10.63,10.63,0,0,0,1.24,1.27c.47.47,1.06,1,1.7.82s.92-.73,1.18-1.27C49.41,59.84,49.83,59,50.25,58.11Z" fill="#fdd2b9"/>
      </g>
      <g>
        <path d="M101.11,49.4a11.87,11.87,0,0,1-1.62,3.51c-.43.63-.81,1.31-1.28,1.91a14.13,14.13,0,0,0-1.69,2.46,6.35,6.35,0,0,1-.39.88c-.08.12-.21.24-.3.35-3.48,4.32-9.59,4.76-14.24,2.19a8.8,8.8,0,0,1-2.75-3.15A16.51,16.51,0,0,1,77,52.49a21.28,21.28,0,0,0-.77-3.05c-.22-.64-.57-1.22-.84-1.83-.87-2-.15-4.27.42-6.27a17.93,17.93,0,0,1,1-2.38,6.47,6.47,0,0,1,1.68-1.9,13,13,0,0,1,3.34-2.48c5.32-2.39,12.09-1.69,16.24,2.6.19.2.37.4.55.61A12.6,12.6,0,0,1,101.42,46,16.43,16.43,0,0,1,101.11,49.4Z" fill="#fdd2b9"/>
        <path d="M92.82,52.92a.7.7,0,0,0-.25,0c-.6.11-1.35.86-1.2,1.44a.36.36,0,0,0,.19.24c.63.29,1.92-1.32,1.36-1.64Z" fill="#231f20"/>
        <g>
          <path d="M95.56,58.16a1.55,1.55,0,0,1-.37,0,2,2,0,0,0-.36-.13c-.25,0,0,.5,0,.6a1,1,0,0,0,.52.38h0c.14-.15.27-.31.4-.47l.23-.3A1.64,1.64,0,0,0,95.56,58.16Z" fill="#fab77d"/>
          <path d="M96.49,56.91a1.34,1.34,0,0,0-.31.36.44.44,0,0,0-.05.37c.07.14.17.09.24,0l.15-.36c.1-.21.22-.41.34-.61A1.31,1.31,0,0,0,96.49,56.91Z" fill="#fdd4af"/>
          <path d="M96,58.62c-.4.11-1.37,0-1.35-.59a.84.84,0,0,1,.28-.54,2.06,2.06,0,0,1,.78-.49A.39.39,0,0,1,96,57c.18.06.2.31.33.45a2.83,2.83,0,0,0,.28.2C97,58,96.33,58.53,96,58.62Z" fill="#fdd2b9"/>
        </g>
        <path d="M91,60.49a1.91,1.91,0,0,1-.5-1,6.89,6.89,0,0,0-.7.62,1.87,1.87,0,0,0-.43.68c-.34,1.12,1.22.86,1.84.6a5,5,0,0,0,1.09-.58,1.51,1.51,0,0,1-1.12-.22A.65.65,0,0,1,91,60.49Z" fill="#fab77d"/>
        <path d="M78,37.07a11.56,11.56,0,0,0-2.54,3.74,9.26,9.26,0,0,0-.9,4.37c0,.71,0,1.42.09,2.13,0,.4.21,2.43-.54,1.68-.07-.07-.2-.1-.25,0s0,.05,0,.08a1,1,0,0,0,.3.84,1.88,1.88,0,0,0,.79.38c-.64-.19-.72.59-.35.92a2.63,2.63,0,0,0,1.74.35A5.67,5.67,0,0,0,78.26,51a19.41,19.41,0,0,0,1.93-.84,14.8,14.8,0,0,1,1.86-1l2.56-1c.84-.36,1.46-.61,2.59-1.11,1.86-.8,4.18-1.84,6-2.66.67-.3,1.35-.7,2.06-.95.08,0,1,.64,1.18.7a2.78,2.78,0,0,0,1.54.08,2.58,2.58,0,0,0,1,2.48,1.4,1.4,0,0,0,.74.32.82.82,0,0,0,.73-.26,3.66,3.66,0,0,1-.93-.51,1.74,1.74,0,0,1-.19-2.33c.1,1.43,1.58,3.06,3.06,2.23a1.82,1.82,0,0,0,.7-.59c.17-.31,0-.49,0-.76a.59.59,0,0,1-.82.34,1.44,1.44,0,0,1-.65-.76c-.5-1.11-.37-2.31-.74-3.46l0-.09A10.31,10.31,0,0,0,98,36.31a21.77,21.77,0,0,0-3.88-2.74,14.53,14.53,0,0,0-4.4-1.21,11.46,11.46,0,0,0-6.3.78A17.69,17.69,0,0,0,78,37.07Z" fill="#e3ab47"/>
        <path d="M77.09,50.87a1.3,1.3,0,0,0,.49.38c.68.3,1.47-.07,2.15-.16a2.5,2.5,0,0,0,1.85-.9c1-1.51-.44-4.38-2.36-4.07a2.69,2.69,0,0,0-1.42.79,3.82,3.82,0,0,0-1.11,2.45,2.51,2.51,0,0,0,.15,1.09A1.79,1.79,0,0,0,77.09,50.87Z" fill="#fdd2b9"/>
        <path d="M82.11,31.32a1.16,1.16,0,0,0-.07.8,2.53,2.53,0,0,0,2,1.82,3.69,3.69,0,0,0,2.71-.63A6,6,0,0,1,84,33.17a3.16,3.16,0,0,1-1.16-.71C82.64,32.31,82,31.56,82.11,31.32Z" fill="#e3ab47"/>
      </g>
      <path d="M90.88,66.46a1.54,1.54,0,0,1,.46.19.56.56,0,0,1,.25.43.59.59,0,0,1-.31.48,4,4,0,0,1-2.16.2,7.62,7.62,0,0,1,2.45.53.61.61,0,0,1,.38.42c.28,1.19-2.56.57-3,.49l1.1.25a5,5,0,0,1,.93.28c.29.14.48.45.21.74a.92.92,0,0,1-.56.24,5,5,0,0,1-2.16-.22h0a2.57,2.57,0,0,1,1.16.65c.11.14.19.37,0,.51a1.35,1.35,0,0,1-1,.16,3.85,3.85,0,0,1-.88-.25,7.32,7.32,0,0,0-.83-.27,35.36,35.36,0,0,0-3.51-.75,26.29,26.29,0,0,1-3.61-.75,22.26,22.26,0,0,1-4-1.61,32.71,32.71,0,0,1-8.12-6.4c-1.21-1.43-2-2.54-1.17-4.57a3,3,0,0,1,2.65-1.84A5.15,5.15,0,0,1,72.55,57c1.58,1.39,2.8,3.09,4.3,4.55a60,60,0,0,0,4.59,4.14,5.57,5.57,0,0,0,2.5,1.27c1,.16,2-.8,2.62-1.53a4,4,0,0,1,1.3-1.23.65.65,0,0,1,.79.17,1.15,1.15,0,0,1,0,1,2.19,2.19,0,0,1-.68.93.91.91,0,0,1,.33,0h.39c.26,0,.52,0,.77,0a8.25,8.25,0,0,1,1.41.19Z" fill="#fdd2b9"/>
    </g>
    <g>
      <path d="M107.92,67.16a2.72,2.72,0,0,1-.75-1.34c0-.27.36-2.32,1.09-6.12a70.85,70.85,0,0,0,1.13-7c0-.48.26-.72.68-.72s.83.35,1.41,1.05a3.17,3.17,0,0,1,.88,2,25.54,25.54,0,0,1-.6,3c-.41,1.73-.68,2.93-.82,3.61s-.26,1.29-.36,1.83l-.24,1.26a11.47,11.47,0,0,1-1,3.23.36.36,0,0,1-.26.16C108.81,68.07,108.42,67.76,107.92,67.16Z"/>
      <path d="M121.51,56.74a2.59,2.59,0,0,1,2,1A3.32,3.32,0,0,1,124.4,60a13.86,13.86,0,0,1-.61,3.91A12.11,12.11,0,0,1,122.47,67c-.48.73-1,1.1-1.45,1.1s-.74-.34-.74-1a14,14,0,0,1,.73-3.19,12.7,12.7,0,0,0,.55-2.84c0-.57-.08-.86-.22-.86a.79.79,0,0,0-.56.29,5.74,5.74,0,0,0-.45.5c-.12.15-.26.34-.41.56l-.4.62-.41.7c-.17.29-.31.52-.41.71l-.4.71q-2,3.83-3.21,3.83c-.31,0-.7-.27-1.17-.8a2.33,2.33,0,0,1-.7-1.18,4,4,0,0,1,.32-1c.21-.54.36-.95.46-1.24a6,6,0,0,0,.24-.91c.07-.32.12-.67.17-1s.07-.67.1-.87,0-.53.07-1a21.69,21.69,0,0,1,.34-3.17c.1-.2.21-.31.32-.31a2.36,2.36,0,0,1,1.61.7,1.87,1.87,0,0,1,.77,1.26,16,16,0,0,1-.7,3.92,42.87,42.87,0,0,1,2.6-4.11C120.31,57.27,121,56.74,121.51,56.74Z"/>
      <path d="M134.13,55a3.82,3.82,0,0,0-.3-.92c-.13-.27-.29-.41-.47-.41a.74.74,0,0,0-.55.39,5.11,5.11,0,0,0-.54,1.3c-.28.94-.56,2-.83,3.28,1.11-.06,1.95-.09,2.51-.09a2.61,2.61,0,0,1,1.27.25.72.72,0,0,1,.42.61c0,.45-.41.81-1.24,1a25.62,25.62,0,0,1-3.56.73c-.73,3.07-1.25,5-1.54,5.75s-.61,1.16-1,1.16-.6-.23-1-.69a2.09,2.09,0,0,1-.56-1,2.72,2.72,0,0,1,.16-.84,25.71,25.71,0,0,0,1-3.69,4.47,4.47,0,0,1-1.18.17,1.69,1.69,0,0,1-1.53-1.62c0-.53,1.06-1,3.17-1.37a17.47,17.47,0,0,1,1.79-6.12A3.63,3.63,0,0,1,133.52,51a2.47,2.47,0,0,1,1.9,1,3.57,3.57,0,0,1,.85,2.39,3,3,0,0,1-.28,1.42.84.84,0,0,1-.75.52.85.85,0,0,1-.74-.42A2.69,2.69,0,0,1,134.13,55Z"/>
      <path d="M144.53,61.84a1,1,0,0,1,.39.64,5.86,5.86,0,0,1-.26,1.19,11.19,11.19,0,0,0-.35,1.4q-.09.5-.15.78c0,.19-.06.34-.07.45s0,.24-.08.4-.07.29-.09.39a3.4,3.4,0,0,1-.09.33.87.87,0,0,1-.12.29,2.08,2.08,0,0,1-.15.2.52.52,0,0,1-.44.18c-.21,0-.46-.2-.76-.62a4.08,4.08,0,0,1-.67-1.49c-1.38,1.41-2.54,2.11-3.48,2.11a3.13,3.13,0,0,1-2-1,3,3,0,0,1-1.1-2.09,7.6,7.6,0,0,1,.94-3,13.31,13.31,0,0,1,2.59-3.58,4.67,4.67,0,0,1,3.24-1.65A3.46,3.46,0,0,1,144,57.82a2.92,2.92,0,0,1,1.21,2A4.27,4.27,0,0,1,144.53,61.84Zm-6.41,3.48a4.27,4.27,0,0,0,2.35-1.2,5,5,0,0,0,1.81-3c0-.17.14-.27.38-.3q-.07-1.26-.42-1.26a2.93,2.93,0,0,0-2,1.15,10.8,10.8,0,0,0-1.78,2.44,4.65,4.65,0,0,0-.7,1.91c0,.12,0,.2.06.23A.41.41,0,0,0,138.12,65.32Z"/>
      <path d="M154.49,56.74a2.59,2.59,0,0,1,2,1,3.32,3.32,0,0,1,.87,2.19,13.83,13.83,0,0,1-.6,3.91A12.85,12.85,0,0,1,155.45,67c-.48.73-1,1.1-1.45,1.1s-.74-.34-.74-1a14.31,14.31,0,0,1,.72-3.19,12.3,12.3,0,0,0,.56-2.84c0-.57-.08-.86-.23-.86a.81.81,0,0,0-.56.29c-.18.19-.33.36-.45.5l-.4.56c-.16.23-.29.44-.4.62l-.42.7c-.17.29-.3.52-.4.71s-.24.42-.4.71c-1.36,2.55-2.44,3.83-3.21,3.83-.31,0-.7-.27-1.17-.8a2.33,2.33,0,0,1-.7-1.18,3.59,3.59,0,0,1,.32-1c.21-.54.36-.95.46-1.24s.17-.59.24-.91.12-.67.17-1l.09-.87c0-.21.05-.53.08-1a20.17,20.17,0,0,1,.34-3.17c.1-.2.2-.31.32-.31a2.37,2.37,0,0,1,1.61.7,1.87,1.87,0,0,1,.77,1.26,16.08,16.08,0,0,1-.71,3.92,44.77,44.77,0,0,1,2.61-4.11C153.28,57.27,154,56.74,154.49,56.74Z"/>
      <path d="M163.76,61l-.83,2.67c-.33,1.07-.5,1.64-.5,1.71s.12.09.37.09a7.24,7.24,0,0,0,1.72-.49,8.45,8.45,0,0,1,1.61-.49c.37,0,.55.24.55.74s-.49,1.1-1.48,1.8a5.28,5.28,0,0,1-3.08,1,2.91,2.91,0,0,1-1.67-.77,2.1,2.1,0,0,1-1-1.56,12.26,12.26,0,0,1,.68-2.78c.44-1.42.75-2.39.91-2.92a5.33,5.33,0,0,1-1.3.24,1.29,1.29,0,0,1-.92-.6,1.87,1.87,0,0,1-.49-1.16c0-.47,1.14-.86,3.41-1.19a17.9,17.9,0,0,0,.42-3.54.58.58,0,0,1,.66-.66,2.6,2.6,0,0,1,1.46.7,1.83,1.83,0,0,1,.89,1.36,8.75,8.75,0,0,1-.28,1.88c.7,0,1.24,0,1.6,0q1.65,0,1.65.75c0,.32-.31.59-.95.82a23.45,23.45,0,0,1-2.94.74C164.16,59.75,164,60.31,163.76,61Z"/>
      <path d="M175.52,56.76a2.22,2.22,0,0,1,1.65,1,2.93,2.93,0,0,1,.82,1.78c0,.36-.16.53-.47.53a2.28,2.28,0,0,1-.77-.21,2.59,2.59,0,0,0-1-.21,5.26,5.26,0,0,0-1.52.35c-.66.24-1,.55-1,.93,0,.15.2.36.6.64s.83.56,1.3.85a5.13,5.13,0,0,1,1.29,1.23,2.71,2.71,0,0,1,.6,1.69c0,.61-.45,1.22-1.33,1.84a5.4,5.4,0,0,1-3.13.92,5.62,5.62,0,0,1-3.07-.81c-.85-.55-1.27-1.1-1.27-1.68s.23-.85.7-.85a1.41,1.41,0,0,1,.68.22,5.47,5.47,0,0,0,2.74.63c1.09,0,1.64-.14,1.64-.44a1.43,1.43,0,0,0-.63-1,10.9,10.9,0,0,0-1.36-1,6.29,6.29,0,0,1-1.36-1.13,2,2,0,0,1-.63-1.31c0-.79.72-1.65,2.15-2.58A7.06,7.06,0,0,1,175.52,56.76Z"/>
    </g>
    <g>
      <g>
        <path d="M122.78,163.87a36.06,36.06,0,1,0-36.07-36.06,36.06,36.06,0,0,0,36.07,36.06" fill="#bfe3e9"/>
        <path d="M122.77,157.84a30.22,30.22,0,1,0-30.21-30.22,30.22,30.22,0,0,0,30.21,30.22" fill="#fff"/>
        <path d="M122.77,98.84a28.78,28.78,0,1,0,28.79,28.78,28.81,28.81,0,0,0-28.79-28.78m0,60.43a31.65,31.65,0,1,1,31.65-31.65,31.68,31.68,0,0,1-31.65,31.65" fill="#029ab3"/>
        <rect x="121.34" y="100.67" width="2.87" height="5.6" fill="#029ab3"/>
        <rect x="132.05" y="105.28" width="5.6" height="2.87" transform="matrix(0.5, -0.87, 0.87, 0.5, -24.99, 170.14)" fill="#029ab3"/>
        <rect x="140.89" y="114.11" width="5.6" height="2.87" transform="translate(-38.52 87.29) rotate(-29.99)" fill="#029ab3"/>
        <rect x="144.38" y="126.19" width="5.6" height="2.87" fill="#029ab3"/>
        <rect x="142.26" y="136.9" width="2.87" height="5.6" transform="translate(-49.14 194.26) rotate(-59.99)" fill="#029ab3"/>
        <rect x="133.42" y="145.74" width="2.87" height="5.6" transform="translate(-56.21 87.34) rotate(-30)" fill="#029ab3"/>
        <rect x="121.6" y="148.97" width="2.87" height="5.6" fill="#029ab3"/>
        <polygon points="110.79 151.68 108.06 150.25 110.86 145.4 113.59 146.83 110.79 151.68" fill="#029ab3"/>
        <rect x="99.31" y="138.27" width="5.6" height="2.87" transform="translate(-56.16 69.74) rotate(-29.99)" fill="#029ab3"/>
        <rect x="96.08" y="126.19" width="5.6" height="2.87" fill="#029ab3"/>
        <rect x="100.43" y="112.75" width="2.87" height="5.6" transform="matrix(0.5, -0.87, 0.87, 0.5, -49.15, 145.95)" fill="#029ab3"/>
        <rect x="109.27" y="103.91" width="2.87" height="5.6" transform="translate(-38.52 69.61) rotate(-29.99)" fill="#029ab3"/>
        <path d="M122.78,127.37a.27.27,0,0,0-.26.27.28.28,0,0,0,.09.17.22.22,0,0,0,.35,0,.25.25,0,0,0,0-.36.23.23,0,0,0-.16-.06m0,3.37h0a3.12,3.12,0,1,1,2.33-1,3.11,3.11,0,0,1-2.33,1" fill="#029ab3"/>
        <rect x="120.97" y="118.38" width="17.59" height="2.87" transform="translate(-46.05 136.65) rotate(-48.19)" fill="#029ab3"/>
        <rect x="114.84" y="114.05" width="2.87" height="15.49" transform="translate(-52.02 127.28) rotate(-48.19)" fill="#029ab3"/>
      </g>
      <g>
        <path d="M194.55,130.74A28.53,28.53,0,1,1,166,102.39a28.44,28.44,0,0,1,28.53,28.35" fill="#e10000"/>
        <g>
          <path d="M165.08,127.57h-8.29v-2l2.79-2.82c.79-.83,1.32-1.4,1.56-1.7a3.4,3.4,0,0,0,.51-.79,1.65,1.65,0,0,0,.15-.69.9.9,0,0,0-.29-.7,1.22,1.22,0,0,0-.82-.26,2.15,2.15,0,0,0-1.08.31,7.87,7.87,0,0,0-1.25.91l-1.7-2a8.68,8.68,0,0,1,1.49-1.13,5,5,0,0,1,1.31-.52,6.44,6.44,0,0,1,1.59-.18,4.79,4.79,0,0,1,2,.39,3.1,3.1,0,0,1,1.35,1.11,2.85,2.85,0,0,1,.48,1.62,4.5,4.5,0,0,1-.17,1.25,4.18,4.18,0,0,1-.52,1.12,7.85,7.85,0,0,1-.93,1.16c-.39.4-1.22,1.17-2.48,2.31V125h4.32Z" fill="#fff"/>
          <path d="M168.62,123.06l-2.71-4.34h3.47l1.35,2.49,1.37-2.49h3.48l-2.78,4.34,2.89,4.51h-3.47l-1.49-2.68-1.49,2.68h-3.47Z" fill="#fff"/>
          <path d="M155.81,140.43h-.07a3,3,0,0,1-2.69,1.3,3.16,3.16,0,0,1-2.61-1.15,5,5,0,0,1-.93-3.26,5.17,5.17,0,0,1,.93-3.29,3.17,3.17,0,0,1,2.61-1.17,3.12,3.12,0,0,1,2.68,1.26h.1l-.06-.62,0-.6v-3.48H157v12.15H156Zm-2.59.21a2.35,2.35,0,0,0,1.92-.72,3.64,3.64,0,0,0,.6-2.33v-.27a4.33,4.33,0,0,0-.6-2.6,2.31,2.31,0,0,0-1.94-.78,2,2,0,0,0-1.74.89,4.34,4.34,0,0,0-.61,2.5,4.24,4.24,0,0,0,.6,2.48A2,2,0,0,0,153.22,140.64Z" fill="#fff"/>
          <path d="M165.05,141.57l-.25-1.21h-.07a3.63,3.63,0,0,1-1.27,1.09,3.94,3.94,0,0,1-1.59.28,2.86,2.86,0,0,1-2-.66,2.38,2.38,0,0,1-.72-1.86q0-2.6,4.15-2.72l1.45-.05v-.53a2.17,2.17,0,0,0-.43-1.49,1.8,1.8,0,0,0-1.39-.48,5.63,5.63,0,0,0-2.42.66l-.4-1a6.32,6.32,0,0,1,2.9-.74,3.29,3.29,0,0,1,2.27.68,2.84,2.84,0,0,1,.74,2.18v5.84Zm-2.93-.91A2.66,2.66,0,0,0,164,140a2.48,2.48,0,0,0,.69-1.86v-.78l-1.3.06a4.58,4.58,0,0,0-2.23.48,1.43,1.43,0,0,0-.68,1.32,1.34,1.34,0,0,0,.42,1.07A1.75,1.75,0,0,0,162.12,140.66Z" fill="#fff"/>
          <path d="M168.58,130.69a.84.84,0,0,1,.22-.65.73.73,0,0,1,.54-.21.76.76,0,0,1,.54.21,1,1,0,0,1,0,1.3.73.73,0,0,1-.54.22.7.7,0,0,1-.54-.22A.85.85,0,0,1,168.58,130.69Zm1.4,10.88h-1.29V133H170Z" fill="#fff"/>
          <path d="M174,141.57h-1.3V129.42H174Z" fill="#fff"/>
          <path d="M175.42,133h1.39l1.88,4.88a18.72,18.72,0,0,1,.76,2.42h.07c.06-.27.21-.72.42-1.36s.92-2.63,2.12-5.94h1.39l-3.68,9.75a4.81,4.81,0,0,1-1.27,2.05,2.71,2.71,0,0,1-1.8.61,5.82,5.82,0,0,1-1.17-.13v-1a4.75,4.75,0,0,0,1,.09,2,2,0,0,0,1.91-1.5l.47-1.22Z" fill="#fff"/>
        </g>
      </g>
    </g>
    <g>
      <path d="M41.89,246.64A2.36,2.36,0,0,1,44,247.76a5.06,5.06,0,0,1,.72,2.8,5.9,5.9,0,0,1-.83,3.08A2.34,2.34,0,0,1,42,255a1.2,1.2,0,0,1-1.13-.87,8.22,8.22,0,0,1-.47-2.46c-.33.48-.72,1-1.15,1.61-.83,1.15-1.41,1.73-1.75,1.73-.13,0-.28-.1-.44-.31a1.21,1.21,0,0,1-.26-.79c0-.31.11-1.3.33-3a33.34,33.34,0,0,0,.32-3.88q0-.45.27-.45a1,1,0,0,1,.61.31.84.84,0,0,1,.36.57c0,.18-.14,1-.4,2.54s-.44,2.71-.5,3.58a15.35,15.35,0,0,1,1.65-2.29c.61-.7,1.05-1.05,1.31-1.05s.46.6.57,1.8a5.81,5.81,0,0,0,.23,1.24c.12.37.27.56.47.56.45,0,.84-.36,1.17-1.09a5.55,5.55,0,0,0,.5-2.4,3.44,3.44,0,0,0-.65-2.26.94.94,0,0,0-.73-.42,1,1,0,0,1-.69-.27.77.77,0,0,1-.28-.48C41.31,246.76,41.5,246.64,41.89,246.64Z" fill="#231f20"/>
      <path d="M50.45,251.12a1.2,1.2,0,0,1-.69,1,3.12,3.12,0,0,1-1.56.4,6.31,6.31,0,0,1-1.57-.19,2.89,2.89,0,0,0-.17.94.79.79,0,0,0,.26.64,1.27,1.27,0,0,0,.85.23,3.87,3.87,0,0,0,1.22-.21,6.13,6.13,0,0,1,.69-.21c.21,0,.31.08.31.24s-.24.45-.73.7a3.12,3.12,0,0,1-1.43.38,2.13,2.13,0,0,1-1.52-.56,1.86,1.86,0,0,1-.59-1.41,4,4,0,0,1,.46-1.78,5,5,0,0,1,1.17-1.57,2.2,2.2,0,0,1,1.43-.63,1.69,1.69,0,0,1,1.29.67A2,2,0,0,1,50.45,251.12Zm-1.81-1a1.39,1.39,0,0,0-.92.47,4.12,4.12,0,0,0-.82,1.14,5.15,5.15,0,0,0,1.09.11,2.69,2.69,0,0,0,1.07-.2c.31-.13.46-.3.46-.52a1,1,0,0,0-.3-.66A.82.82,0,0,0,48.64,250.08Z" fill="#231f20"/>
      <path d="M60.67,251.12a1.2,1.2,0,0,1-.69,1,3.12,3.12,0,0,1-1.56.4,6.39,6.39,0,0,1-1.58-.19,3.18,3.18,0,0,0-.17.94.82.82,0,0,0,.26.64,1.27,1.27,0,0,0,.85.23A3.82,3.82,0,0,0,59,254a6.13,6.13,0,0,1,.69-.21c.21,0,.32.08.32.24s-.25.45-.74.7a3.09,3.09,0,0,1-1.42.38,2.13,2.13,0,0,1-1.53-.56,1.86,1.86,0,0,1-.59-1.41,4.1,4.1,0,0,1,.46-1.78,5,5,0,0,1,1.18-1.57,2.17,2.17,0,0,1,1.42-.63,1.67,1.67,0,0,1,1.29.67A2,2,0,0,1,60.67,251.12Zm-1.82-1a1.39,1.39,0,0,0-.92.47,4.12,4.12,0,0,0-.82,1.14,5.18,5.18,0,0,0,1.1.11,2.67,2.67,0,0,0,1.06-.2c.31-.13.46-.3.46-.52a1,1,0,0,0-.29-.66A.84.84,0,0,0,58.85,250.08Z" fill="#231f20"/>
      <path d="M64.33,250.09c.49-.64.88-1,1.19-1a1.16,1.16,0,0,1,.88.49,1.61,1.61,0,0,1,.41,1,7,7,0,0,1-.4,2.11q-.72,2.31-1.29,2.31-.27,0-.27-.36a4.42,4.42,0,0,1,.26-1c.17-.51.33-1,.48-1.52a4.32,4.32,0,0,0,.22-1.13,1,1,0,0,0-.11-.56c-.08-.12-.15-.18-.23-.18a.55.55,0,0,0-.23.07,1.37,1.37,0,0,0-.27.24l-.28.33a5.7,5.7,0,0,0-.33.47q-.21.3-.33.51l-.39.6c-.17.27-.29.47-.38.6s-.21.32-.35.55-.26.42-.34.54l-.28.42q-.3.45-.48.45a.61.61,0,0,1-.4-.27.81.81,0,0,1-.23-.48,1.64,1.64,0,0,1,.09-.32c.15-.46.32-1,.5-1.72a10.15,10.15,0,0,0,.3-2.34c0-.58.11-.87.25-.87a.76.76,0,0,1,.53.27.86.86,0,0,1,.26.61,7.61,7.61,0,0,1-.19,1.27,17.87,17.87,0,0,1-.47,1.76A34.12,34.12,0,0,1,64.33,250.09Z" fill="#231f20"/>
      <path d="M69.61,255.09a1.91,1.91,0,0,1-1.31-.55,1.66,1.66,0,0,1-.61-1.3,3.88,3.88,0,0,1,.5-1.73,5.66,5.66,0,0,1,1.3-1.68,2.41,2.41,0,0,1,1.56-.69,1.09,1.09,0,0,1,.86.44,1.3,1.3,0,0,1,.37.78.23.23,0,0,1-.06.16.21.21,0,0,1-.17.07.83.83,0,0,1-.4-.22,1,1,0,0,0-.52-.21c-.43,0-.94.37-1.51,1.14a3.47,3.47,0,0,0-.87,2,.78.78,0,0,0,.24.59,1.1,1.1,0,0,0,.75.21,3.6,3.6,0,0,0,1-.12,3.48,3.48,0,0,0,.68-.26,1,1,0,0,1,.37-.12.2.2,0,0,1,.23.23c0,.23-.28.5-.83.81A3.32,3.32,0,0,1,69.61,255.09Z" fill="#231f20"/>
      <path d="M73.49,251.28a4.47,4.47,0,0,1,1.09-1.54,2.08,2.08,0,0,1,1.39-.6,1.48,1.48,0,0,1,1.2.6,2.39,2.39,0,0,1,.48,1.48,4.4,4.4,0,0,1-1.58,3.27,2.47,2.47,0,0,1-1.57.6,1.21,1.21,0,0,1-1-.57,2.37,2.37,0,0,1-.41-1.43A4.44,4.44,0,0,1,73.49,251.28Zm3.15-.1a2.5,2.5,0,0,0-.13-.78,1,1,0,0,0-.39-.53,2.47,2.47,0,0,0-1.42,1.28,4,4,0,0,0-.59,2c0,.62.15,1,.45,1.15A2.22,2.22,0,0,0,76,253.09,3.71,3.71,0,0,0,76.64,251.18Z" fill="#231f20"/>
      <path d="M82.79,249.21c0-.05.11-.07.21-.07s.24.1.4.31a1.05,1.05,0,0,1,.23.6,17.36,17.36,0,0,1-.52,1.85c-.36,1.12-.63,2-.82,2.68-.1.34-.23.51-.41.51a.35.35,0,0,1-.26-.13.74.74,0,0,1-.11-.48,5.24,5.24,0,0,1,.27-1.26,6,6,0,0,1-1.09,1.34,1.71,1.71,0,0,1-1.07.53,1.24,1.24,0,0,1-.92-.46,1.33,1.33,0,0,1-.43-.93,8.09,8.09,0,0,1,.67-2.85c.44-1.14.81-1.71,1.1-1.71a.47.47,0,0,1,.38.19.71.71,0,0,1,.16.45,3.23,3.23,0,0,1-.32.78,15.42,15.42,0,0,0-.65,1.56,4.81,4.81,0,0,0-.32,1.56.44.44,0,0,0,.12.32.36.36,0,0,0,.29.13q.45,0,1.08-.81a10.45,10.45,0,0,0,1.15-1.87,12.3,12.3,0,0,0,.77-2A.93.93,0,0,1,82.79,249.21Z" fill="#231f20"/>
      <path d="M84.94,250.6l0-.9c0-.38.09-.56.27-.56a.56.56,0,0,1,.44.29,1.18,1.18,0,0,1,.21.7,4.43,4.43,0,0,1,0,.6c.7-1,1.36-1.58,2-1.58.39,0,.59.09.59.29a.35.35,0,0,1-.13.26,2.73,2.73,0,0,1-.42.28,2.67,2.67,0,0,0-1.08.84,5,5,0,0,0-.71,1.29c-.18.48-.33.89-.44,1.21s-.19.59-.24.77a4.3,4.3,0,0,1-.2.54c-.12.32-.27.48-.44.48a.37.37,0,0,1-.33-.23,1,1,0,0,1-.13-.46,3.71,3.71,0,0,1,.21-.88A9.43,9.43,0,0,0,84.94,250.6Z" fill="#231f20"/>
      <path d="M92.38,249.68a1.66,1.66,0,0,1,.46,1,1.61,1.61,0,0,1-.3.89.56.56,0,0,1,.14.31,7.28,7.28,0,0,1-.15,1.15c-.1.55-.16.9-.18,1.07s0,.3,0,.4l-.06.3c0,.2-.11.3-.22.3s-.26-.13-.35-.38a3.14,3.14,0,0,1-.17-1c-.71.91-1.37,1.36-2,1.36a1.62,1.62,0,0,1-1.08-.48,1.31,1.31,0,0,1-.54-1,4.28,4.28,0,0,1,.53-1.79A7.25,7.25,0,0,1,89.8,250a2.36,2.36,0,0,1,1.58-.82A1.3,1.3,0,0,1,92.38,249.68Zm-.44,1.57c0-.75-.15-1.12-.45-1.12a1.68,1.68,0,0,0-1.09.67,6.44,6.44,0,0,0-1.06,1.5,3.31,3.31,0,0,0-.43,1.34.42.42,0,0,0,.17.33.65.65,0,0,0,.4.12,1.91,1.91,0,0,0,1.27-.76,4.19,4.19,0,0,0,1-1.85.25.25,0,0,1,.21-.22Z" fill="#231f20"/>
      <path d="M98.57,251.85a2,2,0,0,1-.42,1.09,15.33,15.33,0,0,0-.69,2.11,16.44,16.44,0,0,1-.63,2,1.65,1.65,0,0,1-1.55,1.22,2.23,2.23,0,0,1-1.43-.46,1.23,1.23,0,0,1-.58-.92.79.79,0,0,1,.11-.38c.08-.13.16-.19.24-.19a.39.39,0,0,1,.28.18,2,2,0,0,1,.3.39,1.33,1.33,0,0,0,.42.39,1,1,0,0,0,.54.18.83.83,0,0,0,.4-.08,1,1,0,0,0,.25-.25c.08-.12.15-.24.21-.35s.11-.28.18-.5.12-.39.16-.54l.17-.64c.07-.28.13-.5.18-.67a2.8,2.8,0,0,1-1.52.7,1.34,1.34,0,0,1-1-.48,1.56,1.56,0,0,1-.43-1.1,4.22,4.22,0,0,1,.47-1.67A6.66,6.66,0,0,1,95.49,250a2.25,2.25,0,0,1,1.57-.82,1.07,1.07,0,0,1,.83.37,2.51,2.51,0,0,1,.55,1.74,1,1,0,0,1,0,.2A.75.75,0,0,1,98.57,251.85Zm-3.86,1.79a.44.44,0,0,0,.13.33.49.49,0,0,0,.34.12,2.34,2.34,0,0,0,1.41-.71,3.88,3.88,0,0,0,1.15-1.66,2.94,2.94,0,0,1-.08-.48c0-.22,0-.39-.07-.52a1.29,1.29,0,0,0-.16-.39.36.36,0,0,0-.31-.2,1.63,1.63,0,0,0-1.06.67,6.54,6.54,0,0,0-1,1.5A3.54,3.54,0,0,0,94.71,253.64Z" fill="#231f20"/>
      <path d="M104.31,251.12a1.2,1.2,0,0,1-.69,1,3.12,3.12,0,0,1-1.56.4,6.39,6.39,0,0,1-1.58-.19,3.18,3.18,0,0,0-.17.94.82.82,0,0,0,.26.64,1.29,1.29,0,0,0,.85.23,3.88,3.88,0,0,0,1.23-.21,6.13,6.13,0,0,1,.69-.21c.2,0,.31.08.31.24s-.25.45-.73.7a3.16,3.16,0,0,1-1.43.38,2.15,2.15,0,0,1-1.53-.56,1.86,1.86,0,0,1-.58-1.41,4.08,4.08,0,0,1,.45-1.78,5.19,5.19,0,0,1,1.18-1.57,2.18,2.18,0,0,1,1.43-.63,1.69,1.69,0,0,1,1.29.67A2.06,2.06,0,0,1,104.31,251.12Zm-1.81-1a1.39,1.39,0,0,0-.93.47,3.9,3.9,0,0,0-.81,1.14,5.08,5.08,0,0,0,1.09.11,2.72,2.72,0,0,0,1.07-.2c.3-.13.45-.3.45-.52a1,1,0,0,0-.29-.66A.84.84,0,0,0,102.5,250.08Z" fill="#231f20"/>
      <path d="M34.17,258.78c.13,0,.29.11.48.35a1.16,1.16,0,0,1,.28.67,14.28,14.28,0,0,1-.3,1.77c-.2,1-.44,2-.7,3-.57,2.34-1,3.51-1.14,3.51a.74.74,0,0,1-.56-.58,3.73,3.73,0,0,1,.08-.62,3.2,3.2,0,0,1-2.05,1.2,1.28,1.28,0,0,1-1-.48,1.5,1.5,0,0,1-.42-1,5,5,0,0,1,.4-1.77A6.12,6.12,0,0,1,30.44,263a2.17,2.17,0,0,1,1.61-.84c.56,0,1,.34,1.18,1a22.23,22.23,0,0,0,.68-4C33.91,258.9,34,258.78,34.17,258.78Zm-1.32,5.89a2.45,2.45,0,0,0-.22-1.1c-.15-.29-.33-.44-.54-.44a1.45,1.45,0,0,0-1.05.64,4.94,4.94,0,0,0-.86,1.46,4.05,4.05,0,0,0-.32,1.42A.4.4,0,0,0,30,267a.55.55,0,0,0,.37.14,2.39,2.39,0,0,0,1.27-.67,4,4,0,0,0,1.15-1.59l0-.14Z" fill="#231f20"/>
      <path d="M39.21,262.68a1.37,1.37,0,0,1,.16,1.88.56.56,0,0,1,.14.31,7.28,7.28,0,0,1-.15,1.15c-.1.55-.16.9-.18,1.07s0,.3,0,.4l-.06.3c0,.2-.11.3-.22.3s-.26-.13-.35-.38a3.14,3.14,0,0,1-.17-1c-.71.91-1.37,1.36-2,1.36a1.62,1.62,0,0,1-1.09-.48,1.31,1.31,0,0,1-.54-1,4.28,4.28,0,0,1,.53-1.79A7.25,7.25,0,0,1,36.63,263a2.36,2.36,0,0,1,1.59-.82A1.3,1.3,0,0,1,39.21,262.68Zm-.44,1.57c0-.75-.15-1.12-.45-1.12a1.68,1.68,0,0,0-1.09.67,6.12,6.12,0,0,0-1,1.5,3.21,3.21,0,0,0-.44,1.34.42.42,0,0,0,.17.33.65.65,0,0,0,.4.12,1.91,1.91,0,0,0,1.27-.76,4.19,4.19,0,0,0,1-1.85.25.25,0,0,1,.21-.22Z" fill="#231f20"/>
      <path d="M42.13,262.14a.57.57,0,0,1,.43.27,1,1,0,0,1,.2.54,9.32,9.32,0,0,1-.35,1.58c-.23.88-.52,1.86-.87,3-.14.4-.31.59-.52.59a.37.37,0,0,1-.29-.13.47.47,0,0,1-.12-.31,3.62,3.62,0,0,1,.09-.56c.07-.25.15-.58.27-1s.21-.77.27-1,.14-.56.21-.89.13-.6.18-.81.09-.41.15-.62C41.89,262.33,42,262.14,42.13,262.14Zm.06-1.71a.65.65,0,0,1,.19-.45.53.53,0,0,1,.39-.22c.13,0,.29.16.47.48a1.73,1.73,0,0,1,.28.82.28.28,0,0,1-.11.21.32.32,0,0,1-.23.1,1,1,0,0,1-.64-.35A1,1,0,0,1,42.19,260.43Z" fill="#231f20"/>
      <path d="M45.87,259.78a24.13,24.13,0,0,1-.94,5.86c-.4,1.63-.68,2.45-.84,2.45s-.24-.09-.39-.27a.8.8,0,0,1-.22-.4,15.14,15.14,0,0,1,.35-1.49c.23-.9.46-2,.7-3.31a20.51,20.51,0,0,0,.34-3.53.48.48,0,0,1,.05-.24c0-.05.1-.07.21-.07s.25.11.45.34A1.07,1.07,0,0,1,45.87,259.78Z" fill="#231f20"/>
      <path d="M51.14,262.14c.13,0,.26.09.41.28a1,1,0,0,1,.22.63,8.88,8.88,0,0,1-.49,1.63q-.49,1.4-.66,1.89c-.12.33-.28.77-.47,1.32s-.39,1.08-.57,1.6c-.4,1.15-1,1.72-1.8,1.72a2.31,2.31,0,0,1-1.31-.42c-.41-.27-.62-.56-.62-.85a.66.66,0,0,1,.15-.38c.1-.13.18-.2.25-.2s.19.09.35.26c.47.53.86.8,1.19.8s.47-.22.67-.66a14.39,14.39,0,0,0,.57-1.48l.3-.9a1.94,1.94,0,0,0,.07-.22l.08-.24c-.57.78-1.12,1.17-1.68,1.17a1.28,1.28,0,0,1-.93-.47,1.59,1.59,0,0,1-.42-1.1,6.46,6.46,0,0,1,.31-1.72,10,10,0,0,1,.73-1.87c.28-.53.51-.79.68-.79a.56.56,0,0,1,.41.19.63.63,0,0,1,.18.41,2.66,2.66,0,0,1-.31.85,7.78,7.78,0,0,0-1,3.09.44.44,0,0,0,.12.32.36.36,0,0,0,.29.13c.28,0,.63-.26,1-.77a9.33,9.33,0,0,0,1.1-1.83,21.17,21.17,0,0,0,.88-2.26C50.93,262.18,51,262.14,51.14,262.14Z" fill="#231f20"/>
      <path d="M61.07,262.68a1.37,1.37,0,0,1,.16,1.88.49.49,0,0,1,.14.31,7.28,7.28,0,0,1-.15,1.15c-.1.55-.16.9-.18,1.07s0,.3,0,.4l-.06.3c0,.2-.1.3-.22.3s-.26-.13-.35-.38a3.17,3.17,0,0,1-.16-1c-.71.91-1.37,1.36-2,1.36a1.64,1.64,0,0,1-1.09-.48,1.33,1.33,0,0,1-.53-1,4.13,4.13,0,0,1,.53-1.79A7.21,7.21,0,0,1,58.49,263a2.36,2.36,0,0,1,1.59-.82A1.29,1.29,0,0,1,61.07,262.68Zm-.44,1.57c0-.75-.15-1.12-.44-1.12a1.67,1.67,0,0,0-1.1.67A6.72,6.72,0,0,0,58,265.3a3.16,3.16,0,0,0-.43,1.34.41.41,0,0,0,.16.33.7.7,0,0,0,.4.12,1.89,1.89,0,0,0,1.27-.76,4.31,4.31,0,0,0,1-1.85.25.25,0,0,1,.2-.22Z" fill="#231f20"/>
      <path d="M64.45,268.09a1.91,1.91,0,0,1-1.31-.55,1.66,1.66,0,0,1-.61-1.3,3.88,3.88,0,0,1,.5-1.73,5.82,5.82,0,0,1,1.3-1.68,2.41,2.41,0,0,1,1.56-.69,1.09,1.09,0,0,1,.86.44,1.3,1.3,0,0,1,.37.78.23.23,0,0,1-.06.16.21.21,0,0,1-.17.07.83.83,0,0,1-.4-.22,1,1,0,0,0-.52-.21c-.43,0-.94.37-1.51,1.14a3.47,3.47,0,0,0-.87,2,.78.78,0,0,0,.24.59,1.1,1.1,0,0,0,.75.21,3.6,3.6,0,0,0,1-.12,3.48,3.48,0,0,0,.68-.26,1,1,0,0,1,.37-.12c.16,0,.23.07.23.23s-.28.5-.83.81A3.32,3.32,0,0,1,64.45,268.09Z" fill="#231f20"/>
      <path d="M69.2,266.89c0,.15.09.23.26.23a3.13,3.13,0,0,0,1.11-.26,5.69,5.69,0,0,1,.73-.26c.14,0,.21.08.21.23s-.23.5-.71.8a2.44,2.44,0,0,1-1.3.46,1.46,1.46,0,0,1-1-.32.87.87,0,0,1-.39-.65,3.23,3.23,0,0,1,.15-.86c.09-.35.23-.81.41-1.38s.32-1.05.43-1.42a5.06,5.06,0,0,1-.76.13.55.55,0,0,1-.38-.2.58.58,0,0,1-.18-.38c0-.19.52-.37,1.56-.55a8.62,8.62,0,0,0,.21-1.76q0-.36.24-.36a.85.85,0,0,1,.51.25.78.78,0,0,1,.3.59,5.58,5.58,0,0,1-.21,1.14c.46,0,.82-.06,1.1-.06.48,0,.72.1.72.31s-.13.22-.39.3-.81.2-1.64.37c-.17.63-.38,1.35-.64,2.17A8.13,8.13,0,0,0,69.2,266.89Z" fill="#231f20"/>
      <path d="M74,262.14a.57.57,0,0,1,.44.27,1,1,0,0,1,.2.54,10.57,10.57,0,0,1-.35,1.58c-.23.88-.52,1.86-.87,3-.14.4-.31.59-.52.59a.37.37,0,0,1-.29-.13.47.47,0,0,1-.12-.31,2.69,2.69,0,0,1,.09-.56c.06-.25.15-.58.27-1l.27-1c.07-.26.14-.56.21-.89s.13-.6.18-.81.09-.41.15-.62C73.74,262.33,73.85,262.14,74,262.14Zm.06-1.71a.66.66,0,0,1,.2-.45.5.5,0,0,1,.39-.22c.13,0,.29.16.47.48a1.85,1.85,0,0,1,.28.82.28.28,0,0,1-.11.21.32.32,0,0,1-.23.1,1,1,0,0,1-.64-.35A.94.94,0,0,1,74,260.43Z" fill="#231f20"/>
      <path d="M79.49,262.14a.69.69,0,0,1,.4.14.43.43,0,0,1,.19.34,10.81,10.81,0,0,1-.87,2.24c-.58,1.28-1,2.14-1.23,2.59s-.46.66-.65.66a.64.64,0,0,1-.38-.23,1.6,1.6,0,0,1-.34-.49,14.68,14.68,0,0,1-.69-2.43,12.59,12.59,0,0,1-.37-2.47c0-.23.07-.35.21-.35a.84.84,0,0,1,.54.22,1.24,1.24,0,0,1,.39.56q0,.18.09,1a10.34,10.34,0,0,0,.58,2.91c.21-.46.49-1.12.83-2s.6-1.51.82-2S79.38,262.14,79.49,262.14Z" fill="#231f20"/>
      <path d="M81.89,262.14a.57.57,0,0,1,.44.27,1,1,0,0,1,.2.54,10.57,10.57,0,0,1-.35,1.58c-.23.88-.52,1.86-.87,3-.14.4-.31.59-.52.59a.37.37,0,0,1-.29-.13.47.47,0,0,1-.12-.31,2.69,2.69,0,0,1,.09-.56c.06-.25.15-.58.27-1l.27-1c.07-.26.14-.56.21-.89s.13-.6.18-.81.09-.41.15-.62C81.66,262.33,81.77,262.14,81.89,262.14Zm.06-1.71a.66.66,0,0,1,.2-.45.5.5,0,0,1,.39-.22c.13,0,.29.16.47.48a1.85,1.85,0,0,1,.28.82.28.28,0,0,1-.11.21.32.32,0,0,1-.23.1,1,1,0,0,1-.64-.35A.94.94,0,0,1,82,260.43Z" fill="#231f20"/>
      <path d="M84.62,266.89c0,.15.08.23.26.23a3.13,3.13,0,0,0,1.11-.26,5.69,5.69,0,0,1,.73-.26c.14,0,.21.08.21.23s-.24.5-.71.8a2.44,2.44,0,0,1-1.3.46,1.44,1.44,0,0,1-1-.32.87.87,0,0,1-.39-.65,3.23,3.23,0,0,1,.15-.86c.09-.35.23-.81.41-1.38s.32-1.05.43-1.42a5.06,5.06,0,0,1-.76.13.55.55,0,0,1-.38-.2.58.58,0,0,1-.18-.38c0-.19.52-.37,1.56-.55A8.62,8.62,0,0,0,85,260.7q0-.36.24-.36a.85.85,0,0,1,.51.25.78.78,0,0,1,.3.59,5.58,5.58,0,0,1-.21,1.14c.46,0,.82-.06,1.09-.06.49,0,.72.1.72.31s-.13.22-.39.3-.8.2-1.63.37c-.17.63-.38,1.35-.64,2.17A7.3,7.3,0,0,0,84.62,266.89Z" fill="#231f20"/>
      <path d="M92.61,262.14c.13,0,.26.09.41.28a1,1,0,0,1,.22.63,8.88,8.88,0,0,1-.49,1.63q-.5,1.4-.66,1.89c-.12.33-.28.77-.47,1.32s-.39,1.08-.57,1.6c-.4,1.15-1,1.72-1.8,1.72a2.31,2.31,0,0,1-1.31-.42c-.42-.27-.62-.56-.62-.85a.66.66,0,0,1,.15-.38c.1-.13.18-.2.25-.2s.19.09.35.26c.47.53.86.8,1.19.8s.47-.22.67-.66a14.39,14.39,0,0,0,.57-1.48l.3-.9a1.94,1.94,0,0,0,.07-.22l.08-.24q-.86,1.17-1.68,1.17a1.28,1.28,0,0,1-.93-.47,1.59,1.59,0,0,1-.42-1.1,6.46,6.46,0,0,1,.31-1.72,10,10,0,0,1,.73-1.87c.28-.53.51-.79.68-.79a.56.56,0,0,1,.41.19.63.63,0,0,1,.18.41,2.66,2.66,0,0,1-.31.85,7.78,7.78,0,0,0-1,3.09.44.44,0,0,0,.12.32.36.36,0,0,0,.29.13c.28,0,.63-.26,1-.77a9.33,9.33,0,0,0,1.1-1.83,21.17,21.17,0,0,0,.88-2.26C92.4,262.18,92.48,262.14,92.61,262.14Z" fill="#231f20"/>
      <path d="M99.22,268.11a.5.5,0,0,1-.34-.23.65.65,0,0,1-.18-.37,2.65,2.65,0,0,1,.12-.56c.4-1.44.68-2.47.82-3.09a3.74,3.74,0,0,1-.71.12.57.57,0,0,1-.38-.16.5.5,0,0,1-.19-.38q0-.19.54-.36l1-.21c.08-.39.14-.68.18-.89a6.43,6.43,0,0,1,.78-2.39,1.51,1.51,0,0,1,1.33-.73,1.21,1.21,0,0,1,1,.47,1.72,1.72,0,0,1,.39,1.12c0,.43-.12.64-.34.64s-.35-.21-.47-.65a1.46,1.46,0,0,0-.2-.44.41.41,0,0,0-.35-.2.49.49,0,0,0-.37.18,1.79,1.79,0,0,0-.3.54,10.53,10.53,0,0,0-.48,1.77l-.1.42a6.62,6.62,0,0,1,.88-.06,1.44,1.44,0,0,1,.64.1c.13.06.2.14.2.24s-.13.27-.4.35a15.39,15.39,0,0,1-1.55.31,32.19,32.19,0,0,1-1.16,4.11C99.41,268,99.31,268.11,99.22,268.11Z" fill="#231f20"/>
      <path d="M103.34,264.28a4.61,4.61,0,0,1,1.09-1.54,2.12,2.12,0,0,1,1.4-.6,1.47,1.47,0,0,1,1.19.6,2.33,2.33,0,0,1,.48,1.48,4.16,4.16,0,0,1-.42,1.77,4,4,0,0,1-1.16,1.5,2.43,2.43,0,0,1-1.56.6,1.21,1.21,0,0,1-1-.57,2.31,2.31,0,0,1-.41-1.43A4.59,4.59,0,0,1,103.34,264.28Zm3.15-.1a2.24,2.24,0,0,0-.13-.78,1.09,1.09,0,0,0-.38-.53,2.45,2.45,0,0,0-1.43,1.28,4.07,4.07,0,0,0-.59,2c0,.62.15,1,.46,1.15a2.26,2.26,0,0,0,1.47-1.18A3.78,3.78,0,0,0,106.49,264.18Z" fill="#231f20"/>
      <path d="M109,263.6l0-.9c0-.38.08-.56.26-.56a.56.56,0,0,1,.44.29,1.18,1.18,0,0,1,.21.7c0,.26,0,.47,0,.6.69-1.05,1.35-1.58,2-1.58.39,0,.58.09.58.29a.35.35,0,0,1-.13.26,2.73,2.73,0,0,1-.42.28,2.64,2.64,0,0,0-1.07.84,5.05,5.05,0,0,0-.72,1.29c-.18.48-.33.89-.43,1.21l-.25.77c-.06.19-.12.37-.19.54s-.28.48-.45.48a.39.39,0,0,1-.33-.23,1,1,0,0,1-.12-.46,4.07,4.07,0,0,1,.2-.88A9.43,9.43,0,0,0,109,263.6Z" fill="#231f20"/>
      <path d="M39,277.85a2,2,0,0,1-.42,1.09,15.12,15.12,0,0,0-.7,2.11,16.87,16.87,0,0,1-.62,2,1.66,1.66,0,0,1-1.55,1.22,2.19,2.19,0,0,1-1.43-.46,1.25,1.25,0,0,1-.59-.92.71.71,0,0,1,.12-.38c.07-.13.15-.19.24-.19a.41.41,0,0,1,.28.18,2.47,2.47,0,0,1,.29.39,1.59,1.59,0,0,0,.42.39,1,1,0,0,0,.55.18.83.83,0,0,0,.4-.08,1.18,1.18,0,0,0,.25-.25,2.57,2.57,0,0,0,.2-.35,3.58,3.58,0,0,0,.19-.5c.07-.21.12-.39.16-.54l.17-.64c.07-.28.13-.5.18-.67a2.82,2.82,0,0,1-1.53.7,1.34,1.34,0,0,1-1-.48,1.6,1.6,0,0,1-.43-1.1,4.27,4.27,0,0,1,.48-1.67A6.63,6.63,0,0,1,36,276a2.27,2.27,0,0,1,1.58-.82,1.05,1.05,0,0,1,.82.37,2.51,2.51,0,0,1,.56,1.74.88.88,0,0,1,0,.2A.69.69,0,0,1,39,277.85Zm-3.87,1.79a.45.45,0,0,0,.14.33.46.46,0,0,0,.33.12,2.38,2.38,0,0,0,1.42-.71,4,4,0,0,0,1.15-1.66,2.94,2.94,0,0,1-.08-.48c0-.22-.05-.39-.08-.52a1,1,0,0,0-.15-.39.37.37,0,0,0-.31-.2,1.58,1.58,0,0,0-1.06.67,6.22,6.22,0,0,0-1,1.5A3.41,3.41,0,0,0,35.17,279.64Z" fill="#231f20"/>
      <path d="M40.71,276.6l0-.9c0-.38.09-.56.26-.56a.55.55,0,0,1,.44.29,1.18,1.18,0,0,1,.21.7c0,.26,0,.47,0,.6.69-1.05,1.35-1.58,2-1.58.39,0,.59.09.59.29a.36.36,0,0,1-.14.26,2,2,0,0,1-.42.28,2.64,2.64,0,0,0-1.07.84,5,5,0,0,0-.71,1.29c-.19.48-.33.89-.44,1.21l-.25.77a4.29,4.29,0,0,1-.19.54c-.13.32-.28.48-.44.48a.37.37,0,0,1-.33-.23.92.92,0,0,1-.13-.46,4.07,4.07,0,0,1,.2-.88A9.45,9.45,0,0,0,40.71,276.6Z" fill="#231f20"/>
      <path d="M44.43,277.28a4.61,4.61,0,0,1,1.09-1.54,2.12,2.12,0,0,1,1.4-.6,1.47,1.47,0,0,1,1.19.6,2.33,2.33,0,0,1,.48,1.48,4.16,4.16,0,0,1-.42,1.77,4,4,0,0,1-1.16,1.5,2.43,2.43,0,0,1-1.56.6,1.21,1.21,0,0,1-1-.57,2.31,2.31,0,0,1-.41-1.43A4.59,4.59,0,0,1,44.43,277.28Zm3.15-.1a2.24,2.24,0,0,0-.13-.78,1.09,1.09,0,0,0-.38-.53,2.45,2.45,0,0,0-1.43,1.28,4.07,4.07,0,0,0-.59,2c0,.62.15,1,.46,1.15A2.26,2.26,0,0,0,47,279.09,3.78,3.78,0,0,0,47.58,277.18Z" fill="#231f20"/>
      <path d="M54.22,276.41l-.09,2.25a7.21,7.21,0,0,0,.09,1.36,5.43,5.43,0,0,0,.89-1.27,8.2,8.2,0,0,0,.57-1.35c.12-.41.23-.8.32-1.17a8.9,8.9,0,0,1,.26-.87c.08-.21.17-.32.27-.32a.53.53,0,0,1,.41.19.58.58,0,0,1,.18.42,6.43,6.43,0,0,1-.55,2A10.21,10.21,0,0,1,55.35,280c-.51.71-.9,1.07-1.18,1.07a.67.67,0,0,1-.63-.47,5.15,5.15,0,0,1-.23-1.79c0-.88,0-1.65,0-2.3A26.15,26.15,0,0,1,51.88,280c-.43.77-.76,1.15-1,1.15a.56.56,0,0,1-.35-.15,1,1,0,0,1-.3-.41,10.91,10.91,0,0,1-.45-2.43c-.12-1.2-.18-2.05-.18-2.56,0-.33.1-.5.3-.5a.62.62,0,0,1,.48.3,1.21,1.21,0,0,1,.26.6c0,.19,0,.74.06,1.63a16,16,0,0,0,.23,2.38,18.3,18.3,0,0,0,1-2.13c.33-.86.6-1.53.81-2s.41-.73.59-.73a.77.77,0,0,1,.65.36A1.67,1.67,0,0,1,54.22,276.41Z" fill="#231f20"/>
      <path d="M58.94,275.14a.57.57,0,0,1,.44.27,1,1,0,0,1,.2.54,9.32,9.32,0,0,1-.35,1.58c-.23.88-.52,1.86-.87,3-.14.4-.31.59-.52.59a.37.37,0,0,1-.29-.13.47.47,0,0,1-.12-.31,2.69,2.69,0,0,1,.09-.56c.06-.25.15-.58.27-1l.27-1c.07-.26.14-.56.21-.89s.13-.6.18-.81.09-.41.15-.62C58.71,275.33,58.82,275.14,58.94,275.14Zm.07-1.71a.65.65,0,0,1,.19-.45.51.51,0,0,1,.39-.22c.13,0,.29.16.47.48a1.85,1.85,0,0,1,.28.82.28.28,0,0,1-.11.21.32.32,0,0,1-.23.1,1,1,0,0,1-.64-.35A.92.92,0,0,1,59,273.43Z" fill="#231f20"/>
      <path d="M63.38,276.09c.48-.64.88-.95,1.19-.95a1.15,1.15,0,0,1,.87.49,1.58,1.58,0,0,1,.42,1,7,7,0,0,1-.4,2.11c-.48,1.54-.91,2.31-1.3,2.31-.17,0-.26-.12-.26-.36a4.42,4.42,0,0,1,.26-1c.17-.51.33-1,.48-1.52a4.32,4.32,0,0,0,.22-1.13,1.15,1.15,0,0,0-.11-.56c-.08-.12-.16-.18-.23-.18a.55.55,0,0,0-.24.07,1.37,1.37,0,0,0-.27.24l-.28.33a5.7,5.7,0,0,0-.33.47l-.33.51-.38.6-.39.6c-.08.14-.2.32-.34.55s-.26.42-.35.54-.17.27-.28.42c-.2.3-.36.45-.47.45s-.25-.09-.4-.27a.75.75,0,0,1-.23-.48,2.21,2.21,0,0,1,.08-.32c.15-.46.32-1,.51-1.72a10.15,10.15,0,0,0,.3-2.34c0-.58.11-.87.25-.87a.78.78,0,0,1,.53.27.9.9,0,0,1,.26.61,8,8,0,0,1-.2,1.27A15.51,15.51,0,0,1,61.5,279,31.8,31.8,0,0,1,63.38,276.09Z" fill="#231f20"/>
      <path d="M71.47,277.85a2,2,0,0,1-.42,1.09,15.33,15.33,0,0,0-.69,2.11,16.44,16.44,0,0,1-.63,2,1.65,1.65,0,0,1-1.55,1.22,2.23,2.23,0,0,1-1.43-.46,1.23,1.23,0,0,1-.58-.92.79.79,0,0,1,.11-.38c.08-.13.16-.19.24-.19a.39.39,0,0,1,.28.18,2,2,0,0,1,.3.39,1.33,1.33,0,0,0,.42.39,1,1,0,0,0,.54.18.83.83,0,0,0,.4-.08,1,1,0,0,0,.25-.25c.08-.12.15-.24.21-.35s.11-.28.18-.5.12-.39.16-.54l.17-.64c.07-.28.13-.5.18-.67a2.8,2.8,0,0,1-1.52.7,1.34,1.34,0,0,1-1-.48,1.56,1.56,0,0,1-.43-1.1,4.22,4.22,0,0,1,.47-1.67A6.66,6.66,0,0,1,68.39,276a2.25,2.25,0,0,1,1.57-.82,1.07,1.07,0,0,1,.83.37,2.51,2.51,0,0,1,.55,1.74,1,1,0,0,1,0,.2A.75.75,0,0,1,71.47,277.85Zm-3.86,1.79a.44.44,0,0,0,.13.33.49.49,0,0,0,.34.12,2.34,2.34,0,0,0,1.41-.71,3.88,3.88,0,0,0,1.15-1.66,2.94,2.94,0,0,1-.08-.48c0-.22,0-.39-.07-.52a1.29,1.29,0,0,0-.16-.39.36.36,0,0,0-.31-.2,1.63,1.63,0,0,0-1.06.67,6.54,6.54,0,0,0-1,1.5A3.54,3.54,0,0,0,67.61,279.64Z" fill="#231f20"/>
      <path d="M85,275.14c.24,0,.45.16.64.49a2.26,2.26,0,0,1,.28,1.13,7.81,7.81,0,0,1-.22,1.64,9.79,9.79,0,0,1-.6,1.85c-.24.56-.49.84-.73.84s-.25-.11-.25-.33a8.07,8.07,0,0,1,.41-1.62,7.11,7.11,0,0,0,.42-2.05c0-.51-.08-.77-.24-.77s-.43.18-.69.53-.54.78-.84,1.27-.45.77-.48.8l-.09.15a1.57,1.57,0,0,1-.12.21c0,.07-.15.28-.33.64a7.14,7.14,0,0,1-.48.85c-.13.2-.25.3-.35.3a.48.48,0,0,1-.33-.19.52.52,0,0,1-.18-.36,2.31,2.31,0,0,1,.22-.69,8,8,0,0,0,.62-2.91.79.79,0,0,0-.11-.42q-.1-.18-.24-.18a.41.41,0,0,0-.27.12,1.74,1.74,0,0,0-.36.41c-.15.19-.28.38-.39.55l-.51.83-.51.82-.41.63-.35.54-.28.42q-.33.45-.48.45t-.39-.27a.78.78,0,0,1-.24-.41,1.64,1.64,0,0,1,0-.34c0-.14.07-.27.1-.4s.1-.32.17-.57.17-.55.27-.89a7.35,7.35,0,0,0,.22-1.4c.06-.6.09-1,.12-1.31s.09-.41.2-.41a.72.72,0,0,1,.52.27.8.8,0,0,1,.26.56,13,13,0,0,1-.79,3.48c.9-1.68,1.46-2.68,1.69-3s.43-.57.6-.76a1.32,1.32,0,0,1,1-.51c.19,0,.42.16.69.49a1.61,1.61,0,0,1,.4,1,7.2,7.2,0,0,1-.14,1.24C83.37,276.05,84.23,275.14,85,275.14Z" fill="#231f20"/>
      <path d="M88.26,275.14a.55.55,0,0,1,.43.27.92.92,0,0,1,.21.54,10.57,10.57,0,0,1-.35,1.58c-.23.88-.53,1.86-.88,3-.13.4-.31.59-.51.59a.36.36,0,0,1-.29-.13.47.47,0,0,1-.12-.31,2.69,2.69,0,0,1,.09-.56c.06-.25.15-.58.26-1s.21-.77.28-1,.14-.56.21-.89.13-.6.17-.81l.15-.62C88,275.33,88.14,275.14,88.26,275.14Zm.06-1.71a.65.65,0,0,1,.19-.45.53.53,0,0,1,.39-.22q.19,0,.48.48a1.81,1.81,0,0,1,.27.82.25.25,0,0,1-.11.21.3.3,0,0,1-.22.1,1,1,0,0,1-.65-.35A1,1,0,0,1,88.32,273.43Z" fill="#231f20"/>
      <path d="M92.69,276.09c.49-.64.88-.95,1.19-.95a1.16,1.16,0,0,1,.88.49,1.61,1.61,0,0,1,.41,1,7,7,0,0,1-.4,2.11c-.47,1.54-.91,2.31-1.29,2.31-.18,0-.26-.12-.26-.36a4.22,4.22,0,0,1,.25-1c.18-.51.34-1,.48-1.52a4.44,4.44,0,0,0,.23-1.13,1,1,0,0,0-.12-.56c-.08-.12-.15-.18-.23-.18a.55.55,0,0,0-.23.07,1.37,1.37,0,0,0-.27.24l-.28.33a5.7,5.7,0,0,0-.33.47l-.33.51-.39.6c-.16.27-.29.47-.38.6l-.35.55c-.14.24-.26.42-.34.54l-.28.42q-.3.45-.48.45a.61.61,0,0,1-.4-.27.81.81,0,0,1-.23-.48,1.64,1.64,0,0,1,.09-.32c.15-.46.32-1,.5-1.72a10.15,10.15,0,0,0,.3-2.34c0-.58.11-.87.25-.87a.76.76,0,0,1,.53.27.87.87,0,0,1,.27.61,8,8,0,0,1-.2,1.27,15.46,15.46,0,0,1-.47,1.76A34.12,34.12,0,0,1,92.69,276.09Z" fill="#231f20"/>
      <path d="M101.17,271.78c.13,0,.29.11.48.35a1.16,1.16,0,0,1,.28.67,14.28,14.28,0,0,1-.3,1.77c-.2,1-.44,2-.7,3-.57,2.34-1,3.51-1.14,3.51a.74.74,0,0,1-.56-.58,3.73,3.73,0,0,1,.08-.62,3.2,3.2,0,0,1-2,1.2,1.28,1.28,0,0,1-1-.48,1.5,1.5,0,0,1-.42-1,5,5,0,0,1,.4-1.77A6.12,6.12,0,0,1,97.44,276a2.17,2.17,0,0,1,1.61-.84c.56,0,1,.34,1.18,1a22.23,22.23,0,0,0,.68-4C100.91,271.9,101,271.78,101.17,271.78Zm-1.32,5.89a2.45,2.45,0,0,0-.22-1.1c-.15-.29-.33-.44-.54-.44a1.45,1.45,0,0,0-1,.64,4.94,4.94,0,0,0-.86,1.46,4.05,4.05,0,0,0-.32,1.42A.4.4,0,0,0,97,280a.55.55,0,0,0,.37.14,2.39,2.39,0,0,0,1.27-.67,4,4,0,0,0,1.15-1.59l0-.14Z" fill="#231f20"/>
      <path d="M105.45,275.14a1,1,0,0,1,.77.45,1.34,1.34,0,0,1,.36.78c0,.14-.06.2-.19.2a.81.81,0,0,1-.41-.2.91.91,0,0,0-.56-.21,2.34,2.34,0,0,0-.91.33c-.41.23-.61.46-.61.71s.36.5,1.1.95a3.18,3.18,0,0,1,.76.67,1.38,1.38,0,0,1,.34.89,1.2,1.2,0,0,1-.65.93,2.64,2.64,0,0,1-1.52.45,2.82,2.82,0,0,1-1.54-.42c-.45-.28-.67-.55-.67-.79a.37.37,0,0,1,.08-.25.25.25,0,0,1,.2-.09.6.6,0,0,1,.33.16,2.57,2.57,0,0,0,2.37.3.48.48,0,0,0,.31-.43.82.82,0,0,0-.35-.58,4.72,4.72,0,0,0-.76-.54,3.61,3.61,0,0,1-.76-.59,1,1,0,0,1-.35-.71c0-.42.33-.86,1-1.33A3.27,3.27,0,0,1,105.45,275.14Z" fill="#231f20"/>
      <path d="M48,288.68a1.63,1.63,0,0,1,.45,1,1.61,1.61,0,0,1-.3.89.52.52,0,0,1,.15.31,7.28,7.28,0,0,1-.15,1.15c-.1.55-.16.9-.18,1.07s0,.3-.06.4a1.59,1.59,0,0,1-.06.3q0,.3-.21.3c-.15,0-.27-.13-.36-.38a3.5,3.5,0,0,1-.16-1c-.71.91-1.37,1.36-2,1.36a1.64,1.64,0,0,1-1.09-.48,1.33,1.33,0,0,1-.53-1,4.28,4.28,0,0,1,.53-1.79A7.25,7.25,0,0,1,45.42,289a2.34,2.34,0,0,1,1.58-.82A1.32,1.32,0,0,1,48,288.68Zm-.45,1.57c0-.75-.15-1.12-.44-1.12a1.66,1.66,0,0,0-1.09.67A6.44,6.44,0,0,0,45,291.3a3.16,3.16,0,0,0-.43,1.34.39.39,0,0,0,.17.33.65.65,0,0,0,.39.12,1.89,1.89,0,0,0,1.27-.76,4.2,4.2,0,0,0,1-1.85.25.25,0,0,1,.2-.22Z" fill="#231f20"/>
      <path d="M52.49,289.09c.48-.64.88-.95,1.19-.95a1.13,1.13,0,0,1,.87.49,1.58,1.58,0,0,1,.42,1,7,7,0,0,1-.4,2.11q-.72,2.31-1.29,2.31-.27,0-.27-.36a4.42,4.42,0,0,1,.26-1c.17-.51.33-1,.48-1.52a4.32,4.32,0,0,0,.22-1.13,1.15,1.15,0,0,0-.11-.56c-.08-.12-.15-.18-.23-.18a.51.51,0,0,0-.23.07,1.37,1.37,0,0,0-.27.24l-.29.33-.33.47-.33.51c-.08.14-.21.34-.38.6l-.38.6-.35.55-.34.54-.29.42c-.2.3-.35.45-.47.45s-.25-.09-.4-.27a.81.81,0,0,1-.23-.48,2.21,2.21,0,0,1,.08-.32c.16-.46.32-1,.51-1.72a10.15,10.15,0,0,0,.3-2.34c0-.58.11-.87.25-.87a.76.76,0,0,1,.53.27.9.9,0,0,1,.26.61,7,7,0,0,1-.2,1.27,15.51,15.51,0,0,1-.46,1.76A34.12,34.12,0,0,1,52.49,289.09Z" fill="#231f20"/>
      <path d="M61,284.78c.13,0,.28.11.47.35a1.09,1.09,0,0,1,.28.67,14.28,14.28,0,0,1-.3,1.77c-.2,1-.43,2-.69,3q-.87,3.51-1.14,3.51a.55.55,0,0,1-.37-.21.59.59,0,0,1-.2-.37,4.18,4.18,0,0,1,.09-.62,3.23,3.23,0,0,1-2,1.2,1.27,1.27,0,0,1-1-.48,1.5,1.5,0,0,1-.42-1,5,5,0,0,1,.4-1.77A5.93,5.93,0,0,1,57.24,289a2.15,2.15,0,0,1,1.6-.84,1.23,1.23,0,0,1,1.19,1,22,22,0,0,0,.67-4Q60.7,284.78,61,284.78Zm-1.32,5.89a2.6,2.6,0,0,0-.22-1.1c-.15-.29-.33-.44-.54-.44a1.45,1.45,0,0,0-1,.64,4.94,4.94,0,0,0-.86,1.46,4.05,4.05,0,0,0-.32,1.42.4.4,0,0,0,.16.34.53.53,0,0,0,.37.14,2.33,2.33,0,0,0,1.26-.67,3.9,3.9,0,0,0,1.16-1.59l0-.14Z" fill="#231f20"/>
      <path d="M67.15,294.09c-.12,0-.25-.09-.4-.26a.76.76,0,0,1-.23-.49,11,11,0,0,1,.38-1.56c.25-.88.51-1.95.76-3.21a17.61,17.61,0,0,0,.38-3.43c0-.24.08-.36.26-.36s.28.11.47.35a1.16,1.16,0,0,1,.27.69A19.78,19.78,0,0,1,68.4,290c.95-1.29,1.81-1.93,2.59-1.93a1.14,1.14,0,0,1,1,.55,2.24,2.24,0,0,1,.39,1.32,4.24,4.24,0,0,1-.44,1.74,5.09,5.09,0,0,1-1.18,1.69,2.25,2.25,0,0,1-1.56.7,2.29,2.29,0,0,1-1.61-.83h0C67.36,293.82,67.23,294.09,67.15,294.09Zm1.91-.93a2,2,0,0,0,1.53-1.06,3.81,3.81,0,0,0,.75-2.24c0-.47-.15-.7-.44-.7a2.29,2.29,0,0,0-1.55,1,9.54,9.54,0,0,0-1.48,2.31A1.54,1.54,0,0,0,69.06,293.16Z" fill="#231f20"/>
      <path d="M73.4,290.28a4.63,4.63,0,0,1,1.1-1.54,2.08,2.08,0,0,1,1.39-.6,1.47,1.47,0,0,1,1.19.6,2.33,2.33,0,0,1,.48,1.48,4.16,4.16,0,0,1-.42,1.77,3.94,3.94,0,0,1-1.16,1.5,2.43,2.43,0,0,1-1.56.6,1.21,1.21,0,0,1-1-.57,2.37,2.37,0,0,1-.41-1.43A4.59,4.59,0,0,1,73.4,290.28Zm3.16-.1a2.25,2.25,0,0,0-.14-.78,1,1,0,0,0-.38-.53,2.44,2.44,0,0,0-1.42,1.28,4,4,0,0,0-.6,2c0,.62.16,1,.46,1.15A2.22,2.22,0,0,0,76,292.09,3.8,3.8,0,0,0,76.56,290.18Z" fill="#231f20"/>
      <path d="M83.5,284.78c.13,0,.29.11.48.35a1.16,1.16,0,0,1,.28.67,14.28,14.28,0,0,1-.3,1.77c-.2,1-.43,2-.7,3q-.86,3.51-1.14,3.51a.53.53,0,0,1-.36-.21.55.55,0,0,1-.2-.37,5.36,5.36,0,0,1,.08-.62,3.2,3.2,0,0,1-2,1.2,1.25,1.25,0,0,1-1-.48,1.47,1.47,0,0,1-.43-1,5,5,0,0,1,.4-1.77A6.12,6.12,0,0,1,79.77,289a2.17,2.17,0,0,1,1.61-.84c.57,0,1,.34,1.19,1a22,22,0,0,0,.67-4C83.24,284.9,83.33,284.78,83.5,284.78Zm-1.32,5.89a2.45,2.45,0,0,0-.22-1.1c-.15-.29-.33-.44-.53-.44a1.45,1.45,0,0,0-1.06.64,4.94,4.94,0,0,0-.86,1.46,4.05,4.05,0,0,0-.32,1.42.43.43,0,0,0,.16.34.55.55,0,0,0,.37.14,2.35,2.35,0,0,0,1.27-.67,4,4,0,0,0,1.16-1.59l0-.14Z" fill="#231f20"/>
      <path d="M85.83,288.14a.55.55,0,0,1,.43.27.92.92,0,0,1,.21.54,10.57,10.57,0,0,1-.35,1.58c-.23.88-.52,1.86-.88,3-.13.4-.3.59-.51.59a.36.36,0,0,1-.29-.13.47.47,0,0,1-.12-.31,2.69,2.69,0,0,1,.09-.56c.06-.25.15-.58.26-1s.21-.77.28-1,.14-.56.21-.89.13-.6.17-.81l.15-.62C85.6,288.33,85.71,288.14,85.83,288.14Zm.06-1.71a.65.65,0,0,1,.19-.45.53.53,0,0,1,.39-.22c.14,0,.29.16.48.48a1.81,1.81,0,0,1,.27.82.25.25,0,0,1-.11.21.3.3,0,0,1-.22.1,1,1,0,0,1-.65-.35A1,1,0,0,1,85.89,286.43Z" fill="#231f20"/>
      <path d="M92,290.12a1.2,1.2,0,0,1-.69,1.05,3.12,3.12,0,0,1-1.56.4,6.39,6.39,0,0,1-1.58-.19,3.18,3.18,0,0,0-.17.94.82.82,0,0,0,.26.64,1.29,1.29,0,0,0,.85.23,3.88,3.88,0,0,0,1.23-.21,6.13,6.13,0,0,1,.69-.21c.2,0,.31.08.31.24s-.25.45-.73.7a3.16,3.16,0,0,1-1.43.38,2.15,2.15,0,0,1-1.53-.56,1.86,1.86,0,0,1-.58-1.41,4.08,4.08,0,0,1,.45-1.78,5.19,5.19,0,0,1,1.18-1.57,2.18,2.18,0,0,1,1.43-.63,1.69,1.69,0,0,1,1.29.67A2.06,2.06,0,0,1,92,290.12Zm-1.81-1a1.39,1.39,0,0,0-.93.47,3.9,3.9,0,0,0-.81,1.14,5.08,5.08,0,0,0,1.09.11,2.72,2.72,0,0,0,1.07-.2c.3-.13.45-.3.45-.52a1,1,0,0,0-.29-.66A.84.84,0,0,0,90.19,289.08Z" fill="#231f20"/>
      <path d="M96,288.14a1,1,0,0,1,.77.45,1.34,1.34,0,0,1,.36.78c0,.14-.06.2-.19.2a.78.78,0,0,1-.41-.2.91.91,0,0,0-.56-.21,2.23,2.23,0,0,0-.91.33c-.41.23-.62.46-.62.71s.37.5,1.11.95a3.18,3.18,0,0,1,.76.67,1.38,1.38,0,0,1,.34.89,1.22,1.22,0,0,1-.65.93,2.65,2.65,0,0,1-1.53.45,2.79,2.79,0,0,1-1.53-.42c-.45-.28-.67-.55-.67-.79a.37.37,0,0,1,.08-.25.25.25,0,0,1,.2-.09.6.6,0,0,1,.33.16,2.31,2.31,0,0,0,1.35.46,2.34,2.34,0,0,0,1-.16.5.5,0,0,0,.31-.43.86.86,0,0,0-.35-.58,4.72,4.72,0,0,0-.76-.54,3.61,3.61,0,0,1-.76-.59,1,1,0,0,1-.35-.71c0-.42.33-.86,1-1.33A3.24,3.24,0,0,1,96,288.14Z" fill="#231f20"/>
    </g>
    <g>
      <path d="M50.9,354H48.83l-1.16-4.5c-.05-.16-.12-.49-.22-1a8.12,8.12,0,0,1-.18-1,10.24,10.24,0,0,1-.18,1c-.09.46-.16.8-.21,1L45.72,354H43.66l-2.19-8.56h1.79l1.1,4.67c.19.87.33,1.61.41,2.25,0-.23.08-.57.16-1s.17-.83.24-1.08l1.25-4.8h1.72l1.24,4.8c.06.21.13.54.21,1s.14.82.19,1.14q.06-.47.18-1.14t.24-1.11l1.09-4.67h1.79Z" fill="#018da4"/>
      <path d="M57,354.14a3.37,3.37,0,0,1-2.47-.87,3.29,3.29,0,0,1-.9-2.48,3.63,3.63,0,0,1,.83-2.54,2.93,2.93,0,0,1,2.27-.9,2.89,2.89,0,0,1,2.17.79,3,3,0,0,1,.77,2.19v.86H55.43a1.67,1.67,0,0,0,.45,1.19,1.56,1.56,0,0,0,1.18.43,5.06,5.06,0,0,0,1.12-.12,5.46,5.46,0,0,0,1.1-.4v1.39a4.73,4.73,0,0,1-1,.35A6.85,6.85,0,0,1,57,354.14Zm-.25-5.52a1.12,1.12,0,0,0-.89.36,1.63,1.63,0,0,0-.37,1H58a1.46,1.46,0,0,0-.34-1A1.16,1.16,0,0,0,56.73,348.62Z" fill="#018da4"/>
      <path d="M70.09,354H68.3V350.2a1.93,1.93,0,0,0-.24-1.07.85.85,0,0,0-.75-.35,1.08,1.08,0,0,0-1,.5,3.29,3.29,0,0,0-.31,1.66V354H64.22v-6.55h1.37l.24.84h.1a1.8,1.8,0,0,1,.76-.71,2.45,2.45,0,0,1,1.14-.25,2.06,2.06,0,0,1,2,1H70a1.8,1.8,0,0,1,.78-.71,2.52,2.52,0,0,1,1.15-.25,2.29,2.29,0,0,1,1.69.57,2.51,2.51,0,0,1,.57,1.83V354H72.38V350.2a1.93,1.93,0,0,0-.24-1.07.85.85,0,0,0-.75-.35,1.12,1.12,0,0,0-1,.47,2.64,2.64,0,0,0-.32,1.49Z" fill="#018da4"/>
      <path d="M80.16,354l-.34-.89h0a2.65,2.65,0,0,1-.93.79,2.93,2.93,0,0,1-1.24.22,2,2,0,0,1-1.49-.54,2.07,2.07,0,0,1-.54-1.53,1.72,1.72,0,0,1,.73-1.54,4.28,4.28,0,0,1,2.2-.55l1.14,0v-.29a.89.89,0,0,0-1-1,4.61,4.61,0,0,0-1.85.48l-.59-1.21a5.25,5.25,0,0,1,2.51-.59,3.14,3.14,0,0,1,2,.57,2.12,2.12,0,0,1,.7,1.75V354Zm-.52-3-.7,0a2.32,2.32,0,0,0-1.16.28.9.9,0,0,0-.38.79q0,.75.87.75a1.37,1.37,0,0,0,1-.35,1.27,1.27,0,0,0,.38-1Z" fill="#018da4"/>
      <path d="M85,350.46l.78-1,1.83-2h2L87,350.31,89.76,354H87.69l-1.88-2.65L85,352v2H83.25v-9.11H85V349l-.1,1.49Z" fill="#018da4"/>
      <path d="M93.66,354.14a3.37,3.37,0,0,1-2.47-.87,3.29,3.29,0,0,1-.9-2.48,3.63,3.63,0,0,1,.83-2.54,2.93,2.93,0,0,1,2.27-.9,2.89,2.89,0,0,1,2.17.79,3,3,0,0,1,.77,2.19v.86H92.11a1.63,1.63,0,0,0,.45,1.19,1.56,1.56,0,0,0,1.18.43,5.06,5.06,0,0,0,1.12-.12,5.46,5.46,0,0,0,1.1-.4v1.39a4.73,4.73,0,0,1-1,.35A6.85,6.85,0,0,1,93.66,354.14Zm-.25-5.52a1.12,1.12,0,0,0-.89.36,1.63,1.63,0,0,0-.37,1h2.5a1.46,1.46,0,0,0-.34-1A1.18,1.18,0,0,0,93.41,348.62Z" fill="#018da4"/>
      <path d="M105.47,352.08a1.79,1.79,0,0,1-.7,1.53,3.46,3.46,0,0,1-2.09.53,6.06,6.06,0,0,1-1.22-.1,4.76,4.76,0,0,1-.95-.28v-1.48a6.49,6.49,0,0,0,1.13.4,4.71,4.71,0,0,0,1.09.15c.65,0,1-.18,1-.56a.49.49,0,0,0-.13-.34,1.92,1.92,0,0,0-.45-.3q-.31-.17-.84-.39a4.92,4.92,0,0,1-1.11-.59,1.65,1.65,0,0,1-.52-.61,2.2,2.2,0,0,1-.16-.86,1.56,1.56,0,0,1,.68-1.35,3.28,3.28,0,0,1,1.92-.48,5.36,5.36,0,0,1,2.3.52l-.54,1.28a9.7,9.7,0,0,0-.92-.34,2.88,2.88,0,0,0-.87-.14c-.53,0-.79.15-.79.43a.51.51,0,0,0,.25.42,7.45,7.45,0,0,0,1.12.52,5.33,5.33,0,0,1,1.12.58,1.71,1.71,0,0,1,.53.62A1.93,1.93,0,0,1,105.47,352.08Z" fill="#018da4"/>
      <path d="M111.51,354l-.24-.83h-.1a1.85,1.85,0,0,1-.81.7,2.71,2.71,0,0,1-1.2.25,2.29,2.29,0,0,1-1.74-.62,2.44,2.44,0,0,1-.59-1.78v-4.27h1.79v3.83a1.8,1.8,0,0,0,.25,1.06.91.91,0,0,0,.8.36,1.23,1.23,0,0,0,1.09-.5,3.17,3.17,0,0,0,.33-1.67v-3.08h1.79V354Z" fill="#018da4"/>
      <path d="M118.41,347.35a3.28,3.28,0,0,1,.6,0l-.13,1.68a2,2,0,0,0-.53-.06,1.89,1.89,0,0,0-1.33.44,1.58,1.58,0,0,0-.48,1.23V354h-1.79v-6.55h1.36l.26,1.1h.09a2.39,2.39,0,0,1,.82-.88A2,2,0,0,1,118.41,347.35Z" fill="#018da4"/>
      <path d="M123.17,354.14a3.41,3.41,0,0,1-2.48-.87,3.33,3.33,0,0,1-.89-2.48,3.63,3.63,0,0,1,.83-2.54,2.9,2.9,0,0,1,2.27-.9,2.85,2.85,0,0,1,2.16.79,3,3,0,0,1,.78,2.19v.86h-4.23a1.72,1.72,0,0,0,.45,1.19,1.6,1.6,0,0,0,1.19.43,5.06,5.06,0,0,0,1.12-.12,5.46,5.46,0,0,0,1.1-.4v1.39a4.73,4.73,0,0,1-1,.35A6.85,6.85,0,0,1,123.17,354.14Zm-.26-5.52a1.14,1.14,0,0,0-.89.36,1.75,1.75,0,0,0-.37,1h2.51a1.51,1.51,0,0,0-.34-1A1.2,1.2,0,0,0,122.91,348.62Z" fill="#018da4"/>
      <path d="M136.36,350.74a3.53,3.53,0,0,1-.84,2.5,3.08,3.08,0,0,1-2.35.9,3.36,3.36,0,0,1-1.67-.41,2.7,2.7,0,0,1-1.1-1.19,3.94,3.94,0,0,1-.39-1.8,3.5,3.5,0,0,1,.84-2.5,3.08,3.08,0,0,1,2.35-.89,3.36,3.36,0,0,1,1.67.41,2.68,2.68,0,0,1,1.1,1.18A3.92,3.92,0,0,1,136.36,350.74Zm-4.53,0a2.81,2.81,0,0,0,.32,1.47,1.14,1.14,0,0,0,1,.49,1.12,1.12,0,0,0,1-.49,2.77,2.77,0,0,0,.31-1.47,2.71,2.71,0,0,0-.31-1.46,1.35,1.35,0,0,0-2.07,0A2.74,2.74,0,0,0,131.83,350.74Z" fill="#018da4"/>
      <path d="M142.48,354l-.24-.83h-.1a1.85,1.85,0,0,1-.81.7,2.71,2.71,0,0,1-1.2.25,2.29,2.29,0,0,1-1.74-.62,2.48,2.48,0,0,1-.59-1.78v-4.27h1.79v3.83a1.8,1.8,0,0,0,.25,1.06.92.92,0,0,0,.8.36,1.22,1.22,0,0,0,1.09-.5,3.17,3.17,0,0,0,.33-1.67v-3.08h1.79V354Z" fill="#018da4"/>
      <path d="M149.38,347.35a3.28,3.28,0,0,1,.6,0l-.13,1.68a2,2,0,0,0-.53-.06,1.9,1.9,0,0,0-1.33.44,1.58,1.58,0,0,0-.48,1.23V354h-1.79v-6.55h1.36l.26,1.1h.09a2.47,2.47,0,0,1,.82-.88A2,2,0,0,1,149.38,347.35Z" fill="#018da4"/>
      <path d="M154.21,345.78c0-.58.33-.87,1-.87s1,.29,1,.87a.87.87,0,0,1-.24.65,1.06,1.06,0,0,1-.73.23C154.54,346.66,154.21,346.37,154.21,345.78Zm1.87,8.24h-1.79v-6.55h1.79Z" fill="#018da4"/>
      <path d="M164,354h-1.79V350.2a1.84,1.84,0,0,0-.25-1.07.94.94,0,0,0-.8-.35,1.23,1.23,0,0,0-1.09.5,3.13,3.13,0,0,0-.33,1.66V354H158v-6.55h1.37l.24.84h.1a1.85,1.85,0,0,1,.82-.72,2.84,2.84,0,0,1,1.19-.24,2.31,2.31,0,0,1,1.74.62,2.48,2.48,0,0,1,.59,1.78Z" fill="#018da4"/>
      <path d="M169.46,348.81h-1.55V354h-1.78v-5.21h-1V348l1-.48V347a2.13,2.13,0,0,1,.55-1.63,2.47,2.47,0,0,1,1.76-.52,4.46,4.46,0,0,1,1.65.28l-.46,1.31a3.44,3.44,0,0,0-1-.17.63.63,0,0,0-.55.23.94.94,0,0,0-.17.57v.41h1.55Z" fill="#018da4"/>
      <path d="M174.65,354l-.35-.89h-.05a2.65,2.65,0,0,1-.93.79,2.9,2.9,0,0,1-1.24.22,2,2,0,0,1-1.49-.54,2.07,2.07,0,0,1-.54-1.53,1.74,1.74,0,0,1,.73-1.54A4.28,4.28,0,0,1,173,350l1.14,0v-.29a.89.89,0,0,0-1-1,4.65,4.65,0,0,0-1.85.48l-.59-1.21a5.28,5.28,0,0,1,2.51-.59,3.14,3.14,0,0,1,2,.57,2.12,2.12,0,0,1,.7,1.75V354Zm-.53-3-.69,0a2.26,2.26,0,0,0-1.16.28.88.88,0,0,0-.38.79c0,.5.29.75.86.75a1.42,1.42,0,0,0,1-.35,1.3,1.3,0,0,0,.37-1Z" fill="#018da4"/>
      <path d="M183.78,354H182V350.2a1.84,1.84,0,0,0-.25-1.07.92.92,0,0,0-.8-.35,1.2,1.2,0,0,0-1.08.5,3,3,0,0,0-.34,1.66V354h-1.79v-6.55h1.37l.24.84h.1a1.85,1.85,0,0,1,.82-.72,2.84,2.84,0,0,1,1.19-.24,2.31,2.31,0,0,1,1.74.62,2.48,2.48,0,0,1,.59,1.78Z" fill="#018da4"/>
      <path d="M188.38,352.72a3.85,3.85,0,0,0,1.13-.21v1.33a4.05,4.05,0,0,1-1.65.3,2,2,0,0,1-1.56-.54,2.39,2.39,0,0,1-.49-1.63v-3.16H185v-.75l1-.6.52-1.38h1.14v1.39h1.84v1.34H187.6V352a.69.69,0,0,0,.21.56A.84.84,0,0,0,188.38,352.72Z" fill="#018da4"/>
      <path d="M195.4,352.08a1.79,1.79,0,0,1-.7,1.53,3.48,3.48,0,0,1-2.09.53,6.06,6.06,0,0,1-1.22-.1,4.76,4.76,0,0,1-.95-.28v-1.48a6.38,6.38,0,0,0,1.12.4,4.86,4.86,0,0,0,1.1.15c.65,0,1-.18,1-.56a.49.49,0,0,0-.13-.34,1.92,1.92,0,0,0-.45-.3q-.31-.17-.84-.39a4.92,4.92,0,0,1-1.11-.59,1.65,1.65,0,0,1-.52-.61,2,2,0,0,1-.16-.86,1.56,1.56,0,0,1,.68-1.35,3.28,3.28,0,0,1,1.92-.48,5.36,5.36,0,0,1,2.3.52l-.54,1.28a9.7,9.7,0,0,0-.92-.34,2.88,2.88,0,0,0-.87-.14c-.53,0-.79.15-.79.43a.51.51,0,0,0,.25.42,7.45,7.45,0,0,0,1.12.52,5.33,5.33,0,0,1,1.12.58,1.71,1.71,0,0,1,.53.62A1.93,1.93,0,0,1,195.4,352.08Z" fill="#018da4"/>
      <path d="M205.61,347.47v.91l-1,.26a1.9,1.9,0,0,1,.28,1,2,2,0,0,1-.74,1.64,3.2,3.2,0,0,1-2,.59l-.32,0-.26,0a.59.59,0,0,0-.28.47c0,.26.33.39,1,.39h1.12a2.52,2.52,0,0,1,1.64.46,1.65,1.65,0,0,1,.57,1.36,2,2,0,0,1-1,1.78,4.93,4.93,0,0,1-2.75.64,3.82,3.82,0,0,1-2.1-.48,1.53,1.53,0,0,1-.72-1.34,1.4,1.4,0,0,1,.37-1,2,2,0,0,1,1.08-.57,1.33,1.33,0,0,1-.48-.38,1,1,0,0,1-.2-.57A.91.91,0,0,1,200,352a2.6,2.6,0,0,1,.63-.49,1.79,1.79,0,0,1-.82-.72,2.15,2.15,0,0,1-.3-1.16,2,2,0,0,1,.7-1.65,3,3,0,0,1,2-.59,5.74,5.74,0,0,1,.65,0l.49.07ZM200.56,355a.63.63,0,0,0,.35.58,2,2,0,0,0,1,.21,3.63,3.63,0,0,0,1.51-.26.81.81,0,0,0,.54-.72.5.5,0,0,0-.32-.51,2.47,2.47,0,0,0-1-.14h-.93a1.35,1.35,0,0,0-.82.23A.71.71,0,0,0,200.56,355Zm.65-5.33a1.35,1.35,0,0,0,.24.84.87.87,0,0,0,.74.31.86.86,0,0,0,.74-.31,1.35,1.35,0,0,0,.23-.84c0-.79-.32-1.19-1-1.19S201.21,348.83,201.21,349.62Z" fill="#018da4"/>
      <path d="M209.66,354.14a3.41,3.41,0,0,1-2.48-.87,3.33,3.33,0,0,1-.89-2.48,3.63,3.63,0,0,1,.83-2.54,2.9,2.9,0,0,1,2.27-.9,2.85,2.85,0,0,1,2.16.79,3,3,0,0,1,.78,2.19v.86H208.1a1.72,1.72,0,0,0,.45,1.19,1.6,1.6,0,0,0,1.19.43,5.06,5.06,0,0,0,1.12-.12,5.46,5.46,0,0,0,1.1-.4v1.39a4.73,4.73,0,0,1-1,.35A6.85,6.85,0,0,1,209.66,354.14Zm-.26-5.52a1.14,1.14,0,0,0-.89.36,1.75,1.75,0,0,0-.37,1h2.51a1.51,1.51,0,0,0-.34-1A1.2,1.2,0,0,0,209.4,348.62Z" fill="#018da4"/>
      <path d="M216.54,352.72a3.85,3.85,0,0,0,1.13-.21v1.33a4.05,4.05,0,0,1-1.65.3,2,2,0,0,1-1.56-.54A2.39,2.39,0,0,1,214,352v-3.16h-.85v-.75l1-.6.52-1.38h1.14v1.39h1.84v1.34h-1.84V352a.66.66,0,0,0,.22.56A.79.79,0,0,0,216.54,352.72Z" fill="#018da4"/>
      <path d="M61.67,364.74a3.53,3.53,0,0,1-.84,2.5,3.07,3.07,0,0,1-2.35.9,3.32,3.32,0,0,1-1.66-.41,2.78,2.78,0,0,1-1.11-1.19,3.94,3.94,0,0,1-.39-1.8,3.5,3.5,0,0,1,.84-2.5,3.09,3.09,0,0,1,2.36-.89,3.32,3.32,0,0,1,1.66.41,2.75,2.75,0,0,1,1.11,1.18A3.91,3.91,0,0,1,61.67,364.74Zm-4.52,0a2.82,2.82,0,0,0,.31,1.47,1.15,1.15,0,0,0,1,.49,1.12,1.12,0,0,0,1-.49,2.76,2.76,0,0,0,.32-1.47,2.7,2.7,0,0,0-.32-1.46,1.35,1.35,0,0,0-2.07,0A2.75,2.75,0,0,0,57.15,364.74Z" fill="#018da4"/>
      <path d="M67.79,368l-.24-.83h-.09a1.88,1.88,0,0,1-.82.7,2.71,2.71,0,0,1-1.2.25,2.29,2.29,0,0,1-1.74-.62,2.48,2.48,0,0,1-.58-1.78v-4.27H64.9v3.83a1.88,1.88,0,0,0,.25,1.06.92.92,0,0,0,.81.36,1.2,1.2,0,0,0,1.08-.5,3.16,3.16,0,0,0,.34-1.67v-3.08h1.78V368Z" fill="#018da4"/>
      <path d="M73.8,366.72a3.79,3.79,0,0,0,1.12-.21v1.33a4,4,0,0,1-1.64.3,2,2,0,0,1-1.56-.54,2.34,2.34,0,0,1-.49-1.63v-3.16h-.85v-.75l1-.6.52-1.38H73v1.39h1.83v1.34H73V366a.69.69,0,0,0,.21.56A.8.8,0,0,0,73.8,366.72Z" fill="#018da4"/>
      <path d="M78.32,368.14a2.12,2.12,0,0,1-1.81-.9,5,5,0,0,1,0-5,2.18,2.18,0,0,1,1.85-.9,2.13,2.13,0,0,1,1.88,1h.06a7.24,7.24,0,0,1-.13-1.31v-2.09H82V368H80.6l-.35-.85h-.07A2,2,0,0,1,78.32,368.14Zm.63-1.42a1.22,1.22,0,0,0,1-.4A2.29,2.29,0,0,0,80.3,365v-.19a2.73,2.73,0,0,0-.32-1.51,1.2,1.2,0,0,0-1.06-.46,1,1,0,0,0-.93.51,2.71,2.71,0,0,0-.33,1.47,2.57,2.57,0,0,0,.33,1.45A1.09,1.09,0,0,0,79,366.72Z" fill="#018da4"/>
      <path d="M89.79,364.74a3.53,3.53,0,0,1-.84,2.5,3.07,3.07,0,0,1-2.35.9,3.32,3.32,0,0,1-1.66-.41,2.78,2.78,0,0,1-1.11-1.19,3.94,3.94,0,0,1-.39-1.8,3.5,3.5,0,0,1,.84-2.5,3.09,3.09,0,0,1,2.36-.89,3.35,3.35,0,0,1,1.66.41,2.75,2.75,0,0,1,1.11,1.18A4,4,0,0,1,89.79,364.74Zm-4.53,0a2.81,2.81,0,0,0,.32,1.47,1.15,1.15,0,0,0,1,.49,1.12,1.12,0,0,0,1-.49,2.76,2.76,0,0,0,.32-1.47,2.7,2.7,0,0,0-.32-1.46,1.35,1.35,0,0,0-2.07,0A2.74,2.74,0,0,0,85.26,364.74Z" fill="#018da4"/>
      <path d="M97.22,364.74a3.53,3.53,0,0,1-.84,2.5,3.07,3.07,0,0,1-2.35.9,3.32,3.32,0,0,1-1.66-.41,2.78,2.78,0,0,1-1.11-1.19,3.94,3.94,0,0,1-.39-1.8,3.5,3.5,0,0,1,.84-2.5,3.08,3.08,0,0,1,2.35-.89,3.36,3.36,0,0,1,1.67.41,2.75,2.75,0,0,1,1.11,1.18A4,4,0,0,1,97.22,364.74Zm-4.53,0a2.81,2.81,0,0,0,.32,1.47,1.15,1.15,0,0,0,1,.49,1.12,1.12,0,0,0,1-.49,2.76,2.76,0,0,0,.32-1.47,2.7,2.7,0,0,0-.32-1.46,1.35,1.35,0,0,0-2.07,0A2.74,2.74,0,0,0,92.69,364.74Z" fill="#018da4"/>
      <path d="M102.36,361.35a3.28,3.28,0,0,1,.6,0l-.14,1.68a2,2,0,0,0-.52-.06,1.93,1.93,0,0,0-1.34.44,1.6,1.6,0,0,0-.47,1.23V368H98.7v-6.55h1.35l.27,1.1h.08a2.5,2.5,0,0,1,.83-.88A2,2,0,0,1,102.36,361.35Z" fill="#018da4"/>
      <path d="M110,366.72a3.79,3.79,0,0,0,1.12-.21v1.33a4,4,0,0,1-1.64.3,2,2,0,0,1-1.56-.54,2.34,2.34,0,0,1-.49-1.63v-3.16h-.86v-.75l1-.6.51-1.38h1.15v1.39h1.83v1.34h-1.83V366a.69.69,0,0,0,.21.56A.8.8,0,0,0,110,366.72Z" fill="#018da4"/>
      <path d="M112.4,359.78c0-.58.32-.87,1-.87s1,.29,1,.87a.87.87,0,0,1-.24.65,1,1,0,0,1-.73.23C112.72,360.66,112.4,360.37,112.4,359.78Zm1.86,8.24h-1.78v-6.55h1.78Z" fill="#018da4"/>
      <path d="M122,368h-1.78V364.2a1.93,1.93,0,0,0-.24-1.07.85.85,0,0,0-.75-.35,1.1,1.1,0,0,0-1,.5,3.4,3.4,0,0,0-.31,1.66V368h-1.78v-6.55h1.36l.24.84h.1a1.86,1.86,0,0,1,.76-.71,2.52,2.52,0,0,1,1.15-.25,2.06,2.06,0,0,1,2,1h.16a1.77,1.77,0,0,1,.77-.71,2.6,2.6,0,0,1,1.16-.25,2.32,2.32,0,0,1,1.69.57,2.51,2.51,0,0,1,.57,1.83V368h-1.8V364.2a2,2,0,0,0-.23-1.07.85.85,0,0,0-.75-.35,1.11,1.11,0,0,0-1,.47,2.63,2.63,0,0,0-.33,1.49Z" fill="#018da4"/>
      <path d="M130.89,368.14a3.41,3.41,0,0,1-2.48-.87,3.33,3.33,0,0,1-.89-2.48,3.63,3.63,0,0,1,.83-2.54,2.9,2.9,0,0,1,2.27-.9,2.85,2.85,0,0,1,2.16.79,3,3,0,0,1,.78,2.19v.86h-4.23a1.72,1.72,0,0,0,.45,1.19,1.58,1.58,0,0,0,1.19.43,5.13,5.13,0,0,0,1.12-.12,5.46,5.46,0,0,0,1.1-.4v1.39a4.73,4.73,0,0,1-1,.35A6.85,6.85,0,0,1,130.89,368.14Zm-.26-5.52a1.14,1.14,0,0,0-.89.36,1.69,1.69,0,0,0-.37,1h2.51a1.51,1.51,0,0,0-.34-1A1.2,1.2,0,0,0,130.63,362.62Z" fill="#018da4"/>
      <path d="M140.89,366.72a3.79,3.79,0,0,0,1.12-.21v1.33a4,4,0,0,1-1.64.3,2,2,0,0,1-1.56-.54,2.34,2.34,0,0,1-.49-1.63v-3.16h-.85v-.75l1-.6.52-1.38h1.14v1.39h1.83v1.34h-1.83V366a.69.69,0,0,0,.21.56A.8.8,0,0,0,140.89,366.72Z" fill="#018da4"/>
      <path d="M148.72,368l-.5-2.29-.68-2.89h0L146.3,368h-1.92l-1.86-6.55h1.78l.75,2.9c.12.52.25,1.24.37,2.15h0a11.15,11.15,0,0,1,.2-1.41l.1-.5.8-3.14h2l.77,3.14c0,.09,0,.22.07.38s.07.35.1.54l.09.56c0,.18,0,.32,0,.43h0c0-.28.09-.66.18-1.15s.16-.83.2-1l.78-2.9h1.75L150.67,368Z" fill="#018da4"/>
      <path d="M153.53,359.78c0-.58.33-.87,1-.87s1,.29,1,.87a.84.84,0,0,1-.25.65,1,1,0,0,1-.73.23C153.86,360.66,153.53,360.37,153.53,359.78ZM155.4,368h-1.79v-6.55h1.79Z" fill="#018da4"/>
      <path d="M159.93,368.14q-3.06,0-3.06-3.36a3.61,3.61,0,0,1,.83-2.55,3.13,3.13,0,0,1,2.39-.88,4.63,4.63,0,0,1,2,.44l-.53,1.39a6.31,6.31,0,0,0-.79-.28,2.57,2.57,0,0,0-.72-.11c-.93,0-1.4.66-1.4,2s.47,1.92,1.4,1.92a3.21,3.21,0,0,0,.95-.13,3.45,3.45,0,0,0,.88-.44v1.53a2.75,2.75,0,0,1-.87.38A4.46,4.46,0,0,1,159.93,368.14Z" fill="#018da4"/>
      <path d="M166.4,368.14a3.4,3.4,0,0,1-2.47-.87,3.33,3.33,0,0,1-.89-2.48,3.67,3.67,0,0,1,.82-2.54,2.94,2.94,0,0,1,2.28-.9,2.85,2.85,0,0,1,2.16.79,3,3,0,0,1,.78,2.19v.86h-4.23a1.72,1.72,0,0,0,.45,1.19,1.58,1.58,0,0,0,1.19.43,5.13,5.13,0,0,0,1.12-.12,5.69,5.69,0,0,0,1.1-.4v1.39a4.73,4.73,0,0,1-1,.35A6.89,6.89,0,0,1,166.4,368.14Zm-.25-5.52a1.14,1.14,0,0,0-.89.36,1.69,1.69,0,0,0-.37,1h2.51a1.51,1.51,0,0,0-.34-1A1.2,1.2,0,0,0,166.15,362.62Z" fill="#018da4"/>
      <path d="M177.81,368l-.35-.89h-.05a2.72,2.72,0,0,1-.92.79,3,3,0,0,1-1.25.22,2,2,0,0,1-1.48-.54,2,2,0,0,1-.55-1.53,1.74,1.74,0,0,1,.73-1.54,4.28,4.28,0,0,1,2.2-.55l1.14,0v-.29a.89.89,0,0,0-1-1,4.65,4.65,0,0,0-1.85.48l-.59-1.21a5.28,5.28,0,0,1,2.51-.59,3.14,3.14,0,0,1,2,.57,2.13,2.13,0,0,1,.71,1.75V368Zm-.53-3-.69,0a2.26,2.26,0,0,0-1.16.28.88.88,0,0,0-.38.79c0,.5.29.75.86.75a1.42,1.42,0,0,0,1-.35,1.26,1.26,0,0,0,.37-1Z" fill="#018da4"/>
      <path d="M186.09,368.14a2.14,2.14,0,0,1-1.82-.9,4.08,4.08,0,0,1-.66-2.48,4.18,4.18,0,0,1,.67-2.51,2.19,2.19,0,0,1,1.85-.9,2.13,2.13,0,0,1,1.89,1h.06a7.32,7.32,0,0,1-.14-1.31v-2.09h1.8V368h-1.37l-.35-.85h-.08A2,2,0,0,1,186.09,368.14Zm.62-1.42a1.23,1.23,0,0,0,1-.4,2.37,2.37,0,0,0,.35-1.36v-.19a2.64,2.64,0,0,0-.33-1.51,1.2,1.2,0,0,0-1.06-.46,1,1,0,0,0-.92.51,2.62,2.62,0,0,0-.34,1.47,2.56,2.56,0,0,0,.34,1.45A1.07,1.07,0,0,0,186.71,366.72Z" fill="#018da4"/>
      <path d="M195.77,368l-.35-.89h0a2.65,2.65,0,0,1-.93.79,2.9,2.9,0,0,1-1.24.22,2,2,0,0,1-1.49-.54,2.07,2.07,0,0,1-.54-1.53,1.74,1.74,0,0,1,.73-1.54,4.28,4.28,0,0,1,2.2-.55l1.14,0v-.29a.89.89,0,0,0-1-1,4.65,4.65,0,0,0-1.85.48l-.59-1.21a5.28,5.28,0,0,1,2.51-.59,3.14,3.14,0,0,1,2,.57,2.12,2.12,0,0,1,.7,1.75V368Zm-.53-3-.69,0a2.26,2.26,0,0,0-1.16.28.88.88,0,0,0-.38.79c0,.5.29.75.86.75a1.42,1.42,0,0,0,1-.35,1.3,1.3,0,0,0,.37-1Z" fill="#018da4"/>
      <path d="M197.92,361.47h2l1.24,3.69a4.92,4.92,0,0,1,.22,1.13h0a5,5,0,0,1,.25-1.13l1.22-3.69h1.91L202,368.86a3.15,3.15,0,0,1-1.09,1.54,2.74,2.74,0,0,1-1.65.51,4.51,4.51,0,0,1-.9-.1v-1.42a3.08,3.08,0,0,0,.7.07,1.24,1.24,0,0,0,.83-.29,1.79,1.79,0,0,0,.55-.87l.11-.32Z" fill="#018da4"/>
    </g>
    <g>
      <path d="M140.31,259.29a1.71,1.71,0,0,1-1.38-.78,2.56,2.56,0,0,1-.6-1.58,6.53,6.53,0,0,1,.41-2.22,7.75,7.75,0,0,1,1-2,6,6,0,0,1,1.34-1.37,2.35,2.35,0,0,1,1.36-.54,2,2,0,0,1,1.68.92,3.42,3.42,0,0,1,.67,2.07,5.31,5.31,0,0,1-.64,2.42,6.87,6.87,0,0,1-1.69,2.16A3.32,3.32,0,0,1,140.31,259.29Zm1.46-1.65a6.28,6.28,0,0,0,1.35-1.75,4.07,4.07,0,0,0,.57-2,2.82,2.82,0,0,0-.36-1.5,1,1,0,0,0-.83-.57,1.92,1.92,0,0,0-1.2.74,7.27,7.27,0,0,0-1.3,2,5.38,5.38,0,0,0-.57,2.31,1.83,1.83,0,0,0,.28,1.07.83.83,0,0,0,.68.42A2.23,2.23,0,0,0,141.77,257.64Z" fill="#231f20"/>
      <path d="M149.76,253.44c0-.05.1-.07.21-.07s.24.1.39.31a1,1,0,0,1,.24.6,19.2,19.2,0,0,1-.53,1.85c-.35,1.12-.62,2-.82,2.69-.09.33-.23.5-.4.5a.32.32,0,0,1-.27-.13.8.8,0,0,1-.11-.48,4.92,4.92,0,0,1,.28-1.26,6.28,6.28,0,0,1-1.09,1.34,1.7,1.7,0,0,1-1.08.53,1.22,1.22,0,0,1-.91-.46,1.35,1.35,0,0,1-.44-.93,8.31,8.31,0,0,1,.67-2.85q.66-1.71,1.11-1.71a.47.47,0,0,1,.38.2.66.66,0,0,1,.16.44,3.79,3.79,0,0,1-.32.78,13.41,13.41,0,0,0-.65,1.56,4.65,4.65,0,0,0-.33,1.56.44.44,0,0,0,.12.32.37.37,0,0,0,.29.13c.31,0,.67-.27,1.09-.81a9.58,9.58,0,0,0,1.14-1.87,11.43,11.43,0,0,0,.77-2A.87.87,0,0,1,149.76,253.44Z" fill="#231f20"/>
      <path d="M151.9,254.83l0-.9c0-.38.09-.56.26-.56a.56.56,0,0,1,.44.29,1.18,1.18,0,0,1,.21.7c0,.26,0,.47,0,.6.69-1.05,1.35-1.58,2-1.58.39,0,.58.09.58.29a.35.35,0,0,1-.13.26,2,2,0,0,1-.42.28,2.64,2.64,0,0,0-1.07.84,5.37,5.37,0,0,0-.72,1.29c-.18.48-.33.89-.43,1.21l-.25.77c-.06.19-.12.37-.19.54s-.28.48-.45.48a.37.37,0,0,1-.32-.23.92.92,0,0,1-.13-.46,4.07,4.07,0,0,1,.2-.88A9.43,9.43,0,0,0,151.9,254.83Z" fill="#231f20"/>
      <path d="M160.48,259.32c-.11,0-.24-.09-.39-.26a.76.76,0,0,1-.23-.49,11,11,0,0,1,.38-1.56q.38-1.32.75-3.21a16.87,16.87,0,0,0,.38-3.43q0-.36.27-.36c.12,0,.28.11.46.35a1.12,1.12,0,0,1,.28.69,19.93,19.93,0,0,1-.65,4.21c1-1.29,1.82-1.93,2.59-1.93a1.16,1.16,0,0,1,1,.55,2.24,2.24,0,0,1,.39,1.32,4.4,4.4,0,0,1-.44,1.74,5.24,5.24,0,0,1-1.18,1.69,2,2,0,0,1-3.17-.13h0Q160.6,259.32,160.48,259.32Zm1.91-.92a2,2,0,0,0,1.53-1.07,3.81,3.81,0,0,0,.75-2.24c0-.47-.14-.7-.43-.7a2.29,2.29,0,0,0-1.55,1,9.56,9.56,0,0,0-1.49,2.31A1.56,1.56,0,0,0,162.39,258.4Z" fill="#231f20"/>
      <path d="M170.46,253.91a1.66,1.66,0,0,1,.45,1,1.61,1.61,0,0,1-.3.89.52.52,0,0,1,.15.31,7.28,7.28,0,0,1-.15,1.15c-.1.55-.16.91-.18,1.07s0,.3-.06.4a1.59,1.59,0,0,1-.06.3q0,.3-.21.3c-.15,0-.27-.13-.36-.38a3.5,3.5,0,0,1-.16-1c-.71.91-1.37,1.36-2,1.36a1.64,1.64,0,0,1-1.09-.48,1.33,1.33,0,0,1-.53-1,4.28,4.28,0,0,1,.53-1.79,7,7,0,0,1,1.37-1.88,2.32,2.32,0,0,1,1.58-.83A1.32,1.32,0,0,1,170.46,253.91Zm-.45,1.57c0-.74-.15-1.12-.44-1.12a1.66,1.66,0,0,0-1.09.67,6.66,6.66,0,0,0-1.06,1.5,3.16,3.16,0,0,0-.43,1.34.39.39,0,0,0,.17.33.65.65,0,0,0,.39.12,1.89,1.89,0,0,0,1.27-.76,4.15,4.15,0,0,0,1-1.85.25.25,0,0,1,.2-.22Z" fill="#231f20"/>
      <path d="M172.41,259.32c-.11,0-.24-.09-.39-.26a.71.71,0,0,1-.23-.49,9.64,9.64,0,0,1,.38-1.56q.38-1.32.75-3.21a17.61,17.61,0,0,0,.38-3.43c0-.24.09-.36.26-.36s.29.11.47.35a1.12,1.12,0,0,1,.28.69,19.93,19.93,0,0,1-.65,4.21c1-1.29,1.82-1.93,2.59-1.93a1.16,1.16,0,0,1,1,.55,2.24,2.24,0,0,1,.39,1.32,4.4,4.4,0,0,1-.44,1.74,5.24,5.24,0,0,1-1.18,1.69,2,2,0,0,1-3.17-.13h0Q172.53,259.32,172.41,259.32Zm1.91-.92a2,2,0,0,0,1.53-1.07,3.81,3.81,0,0,0,.75-2.24c0-.47-.14-.7-.43-.7a2.3,2.3,0,0,0-1.56,1,9.85,9.85,0,0,0-1.48,2.31A1.54,1.54,0,0,0,174.32,258.4Z" fill="#231f20"/>
      <path d="M179.67,253.37a.55.55,0,0,1,.43.27.92.92,0,0,1,.21.54,10.57,10.57,0,0,1-.35,1.58c-.23.88-.52,1.86-.88,2.95q-.2.6-.51.6a.38.38,0,0,1-.29-.14.47.47,0,0,1-.12-.31,2.79,2.79,0,0,1,.09-.56c.06-.25.15-.58.26-1s.21-.77.28-1,.14-.56.21-.89.13-.6.17-.81l.15-.62C179.44,253.56,179.55,253.37,179.67,253.37Zm.06-1.71a.69.69,0,0,1,.19-.45.53.53,0,0,1,.39-.22c.14,0,.29.16.48.49a1.74,1.74,0,0,1,.27.81.26.26,0,0,1-.1.21.34.34,0,0,1-.23.1,1,1,0,0,1-.64-.35A.94.94,0,0,1,179.73,251.66Z" fill="#231f20"/>
      <path d="M185.84,255.35a1.2,1.2,0,0,1-.69,1,3.12,3.12,0,0,1-1.56.4,6,6,0,0,1-1.58-.19,3.18,3.18,0,0,0-.17.94.82.82,0,0,0,.26.64,1.29,1.29,0,0,0,.85.23,3.88,3.88,0,0,0,1.23-.21,6.13,6.13,0,0,1,.69-.21c.2,0,.31.08.31.24s-.24.45-.73.7a3.16,3.16,0,0,1-1.43.38,2.13,2.13,0,0,1-1.52-.56,1.83,1.83,0,0,1-.59-1.41,4.08,4.08,0,0,1,.45-1.78,5.19,5.19,0,0,1,1.18-1.57,2.18,2.18,0,0,1,1.43-.63,1.69,1.69,0,0,1,1.29.67A2,2,0,0,1,185.84,255.35Zm-1.81-1a1.37,1.37,0,0,0-.93.46,3.9,3.9,0,0,0-.81,1.14,5.08,5.08,0,0,0,1.09.11,2.72,2.72,0,0,0,1.07-.2c.3-.13.45-.3.45-.52a1,1,0,0,0-.29-.66A.82.82,0,0,0,184,254.32Z" fill="#231f20"/>
      <path d="M189.88,253.37a1,1,0,0,1,.77.45,1.34,1.34,0,0,1,.36.78c0,.14-.06.21-.19.21a.86.86,0,0,1-.41-.21.91.91,0,0,0-.56-.21,2.28,2.28,0,0,0-.91.33c-.41.23-.62.46-.62.71s.37.5,1.11.95a3,3,0,0,1,.76.68,1.34,1.34,0,0,1,.34.89c0,.31-.22.62-.65.92a2.65,2.65,0,0,1-1.53.45,2.79,2.79,0,0,1-1.53-.42c-.45-.28-.67-.54-.67-.79a.37.37,0,0,1,.08-.25.25.25,0,0,1,.2-.09.6.6,0,0,1,.33.16,2.49,2.49,0,0,0,2.37.3.48.48,0,0,0,.31-.43.86.86,0,0,0-.35-.58,4.72,4.72,0,0,0-.76-.54,3.61,3.61,0,0,1-.76-.59,1,1,0,0,1-.35-.71c0-.42.33-.86,1-1.32A3.18,3.18,0,0,1,189.88,253.37Z" fill="#231f20"/>
      <path d="M201.16,255.35a1.2,1.2,0,0,1-.69,1,3.12,3.12,0,0,1-1.56.4,5.87,5.87,0,0,1-1.57-.19,2.89,2.89,0,0,0-.17.94.79.79,0,0,0,.26.64,1.27,1.27,0,0,0,.85.23,3.87,3.87,0,0,0,1.22-.21,6.13,6.13,0,0,1,.69-.21c.21,0,.31.08.31.24s-.24.45-.73.7a3.12,3.12,0,0,1-1.43.38,2.13,2.13,0,0,1-1.52-.56,1.86,1.86,0,0,1-.59-1.41,4,4,0,0,1,.46-1.78,5,5,0,0,1,1.17-1.57,2.2,2.2,0,0,1,1.43-.63,1.69,1.69,0,0,1,1.29.67A2,2,0,0,1,201.16,255.35Zm-1.81-1a1.37,1.37,0,0,0-.92.46,4.12,4.12,0,0,0-.82,1.14,5.15,5.15,0,0,0,1.09.11,2.69,2.69,0,0,0,1.07-.2c.31-.13.46-.3.46-.52a1,1,0,0,0-.3-.66A.8.8,0,0,0,199.35,254.32Z" fill="#231f20"/>
      <path d="M205.33,253.9c.32-.36.55-.53.71-.53a.68.68,0,0,1,.45.19c.14.13.22.24.22.33a.32.32,0,0,1-.09.23,1.82,1.82,0,0,1-.27.24c-.12.11-.24.22-.34.33l-.42.48-.6.76-.59.73.23.35.25.42c.07.12.15.26.26.43l.27.42.21.33a1.21,1.21,0,0,1,.19.43.25.25,0,0,1-.09.2.28.28,0,0,1-.2.08c-.36,0-.94-.65-1.73-1.93-1,1.28-1.68,1.93-1.91,1.93a.59.59,0,0,1-.39-.2.53.53,0,0,1-.21-.37s.09-.14.27-.32a23.85,23.85,0,0,0,1.74-1.9c-.37-.65-.68-1.26-.94-1.82a4.51,4.51,0,0,1-.38-1,1.23,1.23,0,0,1,0-.23c0-.07.1-.1.26-.1a1.51,1.51,0,0,1,.59.14c.23.1.35.21.35.35a5.29,5.29,0,0,0,.71,1.87Q204.87,254.43,205.33,253.9Z" fill="#231f20"/>
      <path d="M210.82,253.33a1.07,1.07,0,0,1,.9.66,2.72,2.72,0,0,1,.38,1.36,2.82,2.82,0,0,1-.41,1.41,5.66,5.66,0,0,1-2.34,2.17,3,3,0,0,1-1.33.36,1.71,1.71,0,0,1-.46-.05l-.17.73c-.08.35-.15.64-.2.87l-.19.75q-.23.81-.39.81c-.11,0-.23-.08-.35-.25a.82.82,0,0,1-.19-.47,15.66,15.66,0,0,1,.39-1.75,33.48,33.48,0,0,0,1.15-6.29c0-.24.09-.36.26-.36a.82.82,0,0,1,.52.32,1,1,0,0,1,.31.7,2.18,2.18,0,0,1,0,.42A2.89,2.89,0,0,1,210.82,253.33Zm-2.92,5a2.82,2.82,0,0,0,1.37-.43,4.18,4.18,0,0,0,1.26-1.15,2.4,2.4,0,0,0,.52-1.42c0-.66-.15-1-.47-1s-.73.27-1.26.81a5.64,5.64,0,0,0-1.27,2.08l-.27,1.11Z" fill="#231f20"/>
      <path d="M215,251a24.13,24.13,0,0,1-.94,5.86c-.4,1.63-.68,2.45-.84,2.45s-.24-.09-.39-.27a.8.8,0,0,1-.22-.4,15.14,15.14,0,0,1,.35-1.49c.23-.9.46-2,.7-3.31a20.51,20.51,0,0,0,.34-3.53.48.48,0,0,1,.05-.24c0-.05.1-.07.21-.07s.25.11.45.34A1.07,1.07,0,0,1,215,251Z" fill="#231f20"/>
      <path d="M216.05,255.51a4.61,4.61,0,0,1,1.09-1.54,2.1,2.1,0,0,1,1.39-.6,1.48,1.48,0,0,1,1.2.6,2.33,2.33,0,0,1,.48,1.48,4.16,4.16,0,0,1-.42,1.77,4,4,0,0,1-1.16,1.5,2.43,2.43,0,0,1-1.57.6,1.24,1.24,0,0,1-1-.57,2.37,2.37,0,0,1-.4-1.43A4.42,4.42,0,0,1,216.05,255.51Zm3.15-.1a2.24,2.24,0,0,0-.13-.78,1,1,0,0,0-.39-.53,2.47,2.47,0,0,0-1.42,1.28,4.1,4.1,0,0,0-.59,2c0,.62.15,1,.45,1.15a2.22,2.22,0,0,0,1.47-1.18A3.68,3.68,0,0,0,219.2,255.41Z" fill="#231f20"/>
      <path d="M221.73,254.83l0-.9c0-.38.09-.56.27-.56a.56.56,0,0,1,.44.29,1.18,1.18,0,0,1,.21.7,4.43,4.43,0,0,1,0,.6c.7-1.05,1.36-1.58,2-1.58.39,0,.59.09.59.29a.35.35,0,0,1-.13.26,2.73,2.73,0,0,1-.42.28,2.74,2.74,0,0,0-1.08.84,5,5,0,0,0-.71,1.29c-.18.48-.33.89-.44,1.21s-.19.59-.24.77-.12.37-.19.54-.28.48-.45.48a.39.39,0,0,1-.33-.23,1,1,0,0,1-.12-.46,3.52,3.52,0,0,1,.2-.88A9.43,9.43,0,0,0,221.73,254.83Z" fill="#231f20"/>
      <path d="M229.77,255.35a1.2,1.2,0,0,1-.69,1,3.12,3.12,0,0,1-1.56.4,6,6,0,0,1-1.58-.19,3.18,3.18,0,0,0-.17.94.82.82,0,0,0,.26.64,1.3,1.3,0,0,0,.86.23,3.87,3.87,0,0,0,1.22-.21,6.13,6.13,0,0,1,.69-.21c.21,0,.31.08.31.24s-.24.45-.73.7a3.16,3.16,0,0,1-1.43.38,2.13,2.13,0,0,1-1.52-.56,1.83,1.83,0,0,1-.59-1.41,4.08,4.08,0,0,1,.45-1.78,5.19,5.19,0,0,1,1.18-1.57,2.2,2.2,0,0,1,1.43-.63,1.69,1.69,0,0,1,1.29.67A2,2,0,0,1,229.77,255.35Zm-1.81-1a1.39,1.39,0,0,0-.93.46,3.9,3.9,0,0,0-.81,1.14,5.08,5.08,0,0,0,1.09.11,2.72,2.72,0,0,0,1.07-.2c.3-.13.45-.3.45-.52a1,1,0,0,0-.29-.66A.82.82,0,0,0,228,254.32Z" fill="#231f20"/>
      <path d="M142.77,271.12c0,.15.09.23.26.23a3.13,3.13,0,0,0,1.11-.26,5.69,5.69,0,0,1,.73-.26.2.2,0,0,1,.22.23c0,.23-.24.5-.72.8a2.41,2.41,0,0,1-1.29.46,1.47,1.47,0,0,1-1-.32.86.86,0,0,1-.38-.65,3.16,3.16,0,0,1,.14-.86c.1-.35.23-.81.41-1.38s.33-1.05.43-1.42a4,4,0,0,1-.76.13.51.51,0,0,1-.37-.2.55.55,0,0,1-.19-.38c0-.19.52-.37,1.56-.55a8.7,8.7,0,0,0,.22-1.76c0-.24.07-.36.23-.36a.85.85,0,0,1,.51.25.78.78,0,0,1,.3.59,6.11,6.11,0,0,1-.2,1.14c.45,0,.81-.06,1.09-.06.48,0,.72.1.72.31s-.13.22-.39.3-.81.2-1.64.37c-.17.63-.38,1.35-.64,2.17A8.13,8.13,0,0,0,142.77,271.12Z" fill="#231f20"/>
      <path d="M147.48,263.47c0-.31.1-.46.29-.46s.32.12.49.36a1.21,1.21,0,0,1,.26.69,15.23,15.23,0,0,1-.39,2.66,32.63,32.63,0,0,1-1,3.75,21.28,21.28,0,0,1,2-3.14c.54-.64,1-1,1.39-1q.31,0,.72.54a1.76,1.76,0,0,1,.42,1.08,6.71,6.71,0,0,1-.3,1.62c-.5,1.8-1,2.71-1.41,2.71-.17,0-.26-.12-.26-.36a4.58,4.58,0,0,1,.29-1.21,10.14,10.14,0,0,0,.64-2.51.57.57,0,0,0-.11-.36.32.32,0,0,0-.27-.14.69.69,0,0,0-.38.16,3.27,3.27,0,0,0-.55.59c-.28.36-.56.76-.85,1.21l-.53.81-.31.5-.33.53a3.69,3.69,0,0,1-.26.38c-.19.27-.33.4-.42.4s-.23-.09-.39-.27a.76.76,0,0,1-.24-.46,3.69,3.69,0,0,1,.14-.7c.39-1.53.65-2.59.75-3.15A25.82,25.82,0,0,0,147.48,263.47Z" fill="#231f20"/>
      <path d="M157.29,268.35a1.2,1.2,0,0,1-.69,1,3.12,3.12,0,0,1-1.56.4,6,6,0,0,1-1.58-.19,3.18,3.18,0,0,0-.17.94.82.82,0,0,0,.26.64,1.29,1.29,0,0,0,.85.23,3.88,3.88,0,0,0,1.23-.21,6.13,6.13,0,0,1,.69-.21c.2,0,.31.08.31.24s-.25.45-.73.7a3.16,3.16,0,0,1-1.43.38,2.15,2.15,0,0,1-1.53-.56,1.86,1.86,0,0,1-.58-1.41,4.08,4.08,0,0,1,.45-1.78A5.19,5.19,0,0,1,154,267a2.18,2.18,0,0,1,1.43-.63,1.69,1.69,0,0,1,1.29.67A2.06,2.06,0,0,1,157.29,268.35Zm-1.81-1a1.37,1.37,0,0,0-.93.46,3.9,3.9,0,0,0-.81,1.14,5.08,5.08,0,0,0,1.09.11,2.72,2.72,0,0,0,1.07-.2c.3-.13.45-.3.45-.52a1,1,0,0,0-.29-.66A.82.82,0,0,0,155.48,267.32Z" fill="#231f20"/>
      <path d="M167.54,267.64l-.09,2.26a7.16,7.16,0,0,0,.09,1.35,5.58,5.58,0,0,0,.89-1.26,7.7,7.7,0,0,0,.56-1.36q.19-.61.33-1.17a8.9,8.9,0,0,1,.26-.87c.08-.21.17-.32.27-.32a.54.54,0,0,1,.41.19.58.58,0,0,1,.18.42,6.43,6.43,0,0,1-.55,2,9.86,9.86,0,0,1-1.23,2.37c-.5.72-.89,1.07-1.17,1.07a.67.67,0,0,1-.63-.47,5.33,5.33,0,0,1-.24-1.79c0-.88,0-1.65,0-2.3a26.15,26.15,0,0,1-1.46,3.41c-.43.77-.76,1.15-1,1.15a.61.61,0,0,1-.36-.15,1.13,1.13,0,0,1-.29-.41,9.74,9.74,0,0,1-.45-2.43c-.12-1.2-.19-2.05-.19-2.56,0-.33.1-.5.3-.5a.65.65,0,0,1,.49.3,1.31,1.31,0,0,1,.26.6c0,.19,0,.74.06,1.63a14.78,14.78,0,0,0,.23,2.38,18.3,18.3,0,0,0,1-2.13c.33-.86.6-1.53.81-2s.41-.73.58-.73a.78.78,0,0,1,.66.36A1.67,1.67,0,0,1,167.54,267.64Z" fill="#231f20"/>
      <path d="M171.26,268.51a4.49,4.49,0,0,1,1.1-1.54,2.08,2.08,0,0,1,1.39-.6,1.47,1.47,0,0,1,1.19.6,2.33,2.33,0,0,1,.48,1.48,4.16,4.16,0,0,1-.42,1.77,4,4,0,0,1-1.16,1.5,2.43,2.43,0,0,1-1.56.6,1.21,1.21,0,0,1-1-.57,2.31,2.31,0,0,1-.41-1.43A4.59,4.59,0,0,1,171.26,268.51Zm3.15-.1a2.24,2.24,0,0,0-.13-.78,1.09,1.09,0,0,0-.38-.53,2.45,2.45,0,0,0-1.43,1.28,4.1,4.1,0,0,0-.59,2c0,.62.15,1,.46,1.15a2.26,2.26,0,0,0,1.47-1.18A3.75,3.75,0,0,0,174.41,268.41Z" fill="#231f20"/>
      <path d="M176.94,267.83l0-.9c0-.38.09-.56.26-.56a.56.56,0,0,1,.44.29,1.18,1.18,0,0,1,.21.7c0,.26,0,.47,0,.6.69-1,1.35-1.58,2-1.58.39,0,.58.09.58.29a.35.35,0,0,1-.13.26,2.73,2.73,0,0,1-.42.28,2.64,2.64,0,0,0-1.07.84,5.37,5.37,0,0,0-.72,1.29c-.18.48-.33.89-.43,1.21l-.25.77c-.06.19-.12.37-.19.54s-.28.48-.45.48a.39.39,0,0,1-.33-.23,1,1,0,0,1-.12-.46,4.07,4.07,0,0,1,.2-.88A9.43,9.43,0,0,0,176.94,267.83Z" fill="#231f20"/>
      <path d="M182.56,264a24.13,24.13,0,0,1-.94,5.86c-.4,1.63-.68,2.45-.84,2.45s-.24-.09-.39-.27a.8.8,0,0,1-.22-.4,15.14,15.14,0,0,1,.35-1.49c.23-.9.46-2,.7-3.31a20.51,20.51,0,0,0,.34-3.53.48.48,0,0,1,.05-.24c0-.05.1-.07.21-.07s.25.11.45.34A1.07,1.07,0,0,1,182.56,264Z" fill="#231f20"/>
      <path d="M188.27,263c.13,0,.29.11.48.35a1.16,1.16,0,0,1,.28.67,14,14,0,0,1-.3,1.77c-.2,1-.43,2-.7,3-.57,2.33-.95,3.5-1.14,3.5a.53.53,0,0,1-.36-.21.55.55,0,0,1-.2-.37,5.36,5.36,0,0,1,.08-.62,3.2,3.2,0,0,1-2,1.2,1.25,1.25,0,0,1-1-.48,1.47,1.47,0,0,1-.43-1,5,5,0,0,1,.4-1.77,6.24,6.24,0,0,1,1.16-1.86,2.17,2.17,0,0,1,1.61-.84c.57,0,1,.34,1.19,1a23,23,0,0,0,.67-4C188,263.13,188.1,263,188.27,263ZM187,268.9a2.38,2.38,0,0,0-.22-1.09c-.15-.3-.33-.45-.53-.45a1.45,1.45,0,0,0-1.06.64,4.94,4.94,0,0,0-.86,1.46,4.05,4.05,0,0,0-.32,1.42.46.46,0,0,0,.16.35.54.54,0,0,0,.37.13,2.35,2.35,0,0,0,1.27-.67,4,4,0,0,0,1.16-1.59l0-.14Z" fill="#231f20"/>
      <path d="M198.12,266.91a1.37,1.37,0,0,1,.16,1.88.49.49,0,0,1,.14.31,7.28,7.28,0,0,1-.15,1.15c-.1.55-.16.91-.18,1.07s0,.3-.05.4l-.06.3c0,.2-.1.3-.22.3s-.26-.13-.35-.38a3.17,3.17,0,0,1-.16-1c-.71.91-1.37,1.36-2,1.36a1.64,1.64,0,0,1-1.09-.48,1.33,1.33,0,0,1-.53-1,4.13,4.13,0,0,1,.53-1.79,7,7,0,0,1,1.36-1.88,2.34,2.34,0,0,1,1.59-.83A1.29,1.29,0,0,1,198.12,266.91Zm-.44,1.57c0-.74-.15-1.12-.44-1.12a1.67,1.67,0,0,0-1.1.67,7,7,0,0,0-1,1.5,3.16,3.16,0,0,0-.43,1.34.41.41,0,0,0,.16.33.7.7,0,0,0,.4.12,1.89,1.89,0,0,0,1.27-.76,4.25,4.25,0,0,0,1-1.85.25.25,0,0,1,.2-.22Z" fill="#231f20"/>
      <path d="M200.28,267.83l0-.9c0-.38.09-.56.26-.56a.56.56,0,0,1,.44.29,1.18,1.18,0,0,1,.21.7c0,.26,0,.47,0,.6.69-1,1.35-1.58,2-1.58.39,0,.58.09.58.29a.35.35,0,0,1-.13.26,2.73,2.73,0,0,1-.42.28,2.64,2.64,0,0,0-1.07.84,5.37,5.37,0,0,0-.72,1.29c-.18.48-.33.89-.43,1.21l-.25.77c-.06.19-.12.37-.19.54s-.28.48-.45.48a.39.39,0,0,1-.33-.23,1,1,0,0,1-.12-.46,4.07,4.07,0,0,1,.2-.88A9.43,9.43,0,0,0,200.28,267.83Z" fill="#231f20"/>
      <path d="M204,268.51A4.61,4.61,0,0,1,205.1,267a2.1,2.1,0,0,1,1.39-.6,1.48,1.48,0,0,1,1.2.6,2.33,2.33,0,0,1,.48,1.48,4.16,4.16,0,0,1-.42,1.77,4,4,0,0,1-1.16,1.5,2.43,2.43,0,0,1-1.57.6,1.24,1.24,0,0,1-1-.57,2.37,2.37,0,0,1-.4-1.43A4.42,4.42,0,0,1,204,268.51Zm3.15-.1a2.24,2.24,0,0,0-.13-.78,1,1,0,0,0-.39-.53,2.47,2.47,0,0,0-1.42,1.28,4.1,4.1,0,0,0-.59,2c0,.62.15,1,.45,1.15a2.22,2.22,0,0,0,1.47-1.18A3.68,3.68,0,0,0,207.16,268.41Z" fill="#231f20"/>
      <path d="M213.31,266.44a.25.25,0,0,1,.21-.07c.11,0,.25.1.4.31a1,1,0,0,1,.23.6,17.36,17.36,0,0,1-.52,1.85c-.36,1.12-.63,2-.82,2.69-.09.33-.23.5-.41.5a.32.32,0,0,1-.26-.13.8.8,0,0,1-.11-.48,4.92,4.92,0,0,1,.28-1.26,6.28,6.28,0,0,1-1.09,1.34,1.73,1.73,0,0,1-1.08.53,1.26,1.26,0,0,1-.92-.46,1.38,1.38,0,0,1-.43-.93,8.09,8.09,0,0,1,.67-2.85q.66-1.71,1.11-1.71a.44.44,0,0,1,.37.2.67.67,0,0,1,.17.44,3.52,3.52,0,0,1-.33.78,15.55,15.55,0,0,0-.64,1.56,4.65,4.65,0,0,0-.33,1.56.44.44,0,0,0,.12.32.37.37,0,0,0,.29.13c.3,0,.67-.27,1.09-.81a9.58,9.58,0,0,0,1.14-1.87,11.43,11.43,0,0,0,.77-2A.93.93,0,0,1,213.31,266.44Z" fill="#231f20"/>
      <path d="M217.8,267.32c.48-.64.88-.95,1.18-.95a1.16,1.16,0,0,1,.88.49,1.56,1.56,0,0,1,.41,1,7.26,7.26,0,0,1-.39,2.11c-.48,1.54-.91,2.31-1.3,2.31-.17,0-.26-.12-.26-.36a3.94,3.94,0,0,1,.26-1c.17-.51.33-1,.48-1.52a4.79,4.79,0,0,0,.22-1.13,1,1,0,0,0-.12-.56c-.07-.12-.15-.18-.22-.18a.46.46,0,0,0-.24.08.93.93,0,0,0-.27.24l-.28.32a5.7,5.7,0,0,0-.33.47l-.33.51-.38.6-.39.6-.35.55a6.14,6.14,0,0,1-.34.54l-.28.42c-.2.3-.36.45-.47.45s-.25-.09-.41-.27a.78.78,0,0,1-.22-.48,1.33,1.33,0,0,1,.08-.32c.15-.46.32-1,.5-1.72a9.14,9.14,0,0,0,.3-2.33c0-.59.11-.88.26-.88a.74.74,0,0,1,.52.27.87.87,0,0,1,.27.61,8,8,0,0,1-.2,1.27,17.94,17.94,0,0,1-.46,1.76A31.8,31.8,0,0,1,217.8,267.32Z" fill="#231f20"/>
      <path d="M226.27,263c.13,0,.29.11.48.35a1.09,1.09,0,0,1,.28.67,14,14,0,0,1-.3,1.77c-.2,1-.43,2-.7,3-.57,2.33-.95,3.5-1.14,3.5a.53.53,0,0,1-.36-.21.59.59,0,0,1-.2-.37,5.36,5.36,0,0,1,.08-.62,3.18,3.18,0,0,1-2,1.2,1.25,1.25,0,0,1-1-.48,1.47,1.47,0,0,1-.43-1,5.22,5.22,0,0,1,.4-1.77,6.24,6.24,0,0,1,1.16-1.86,2.18,2.18,0,0,1,1.61-.84c.57,0,1,.34,1.19,1a22,22,0,0,0,.67-4C226,263.13,226.1,263,226.27,263ZM225,268.9a2.38,2.38,0,0,0-.22-1.09c-.15-.3-.32-.45-.53-.45a1.45,1.45,0,0,0-1.06.64,5.16,5.16,0,0,0-.86,1.46,4,4,0,0,0-.31,1.42.45.45,0,0,0,.15.35.56.56,0,0,0,.37.13,2.32,2.32,0,0,0,1.27-.67,4,4,0,0,0,1.16-1.59l0-.14Z" fill="#231f20"/>
      <path d="M146.5,284.12c0,.15.08.23.26.23a3.23,3.23,0,0,0,1.11-.26,5.69,5.69,0,0,1,.73-.26c.14,0,.21.08.21.23s-.24.5-.71.8a2.44,2.44,0,0,1-1.3.46,1.44,1.44,0,0,1-1-.32.87.87,0,0,1-.39-.65,3.23,3.23,0,0,1,.15-.86c.09-.35.23-.81.41-1.38s.32-1.05.43-1.42a4,4,0,0,1-.76.13.55.55,0,0,1-.38-.2.58.58,0,0,1-.18-.38c0-.19.52-.37,1.56-.55a8.62,8.62,0,0,0,.21-1.76q0-.36.24-.36a.85.85,0,0,1,.51.25.78.78,0,0,1,.3.59,5.58,5.58,0,0,1-.21,1.14c.46,0,.82-.06,1.09-.06.48,0,.72.1.72.31s-.13.22-.39.3-.8.2-1.63.37c-.17.63-.38,1.35-.64,2.17A7.3,7.3,0,0,0,146.5,284.12Z" fill="#231f20"/>
      <path d="M151.21,276.47c0-.31.1-.46.29-.46s.31.12.48.36a1.15,1.15,0,0,1,.26.69,15.23,15.23,0,0,1-.39,2.66,32.57,32.57,0,0,1-1,3.75,21.28,21.28,0,0,1,2-3.14q.81-1,1.38-1c.21,0,.46.18.73.54a1.76,1.76,0,0,1,.42,1.08,7.25,7.25,0,0,1-.3,1.62c-.5,1.8-1,2.71-1.41,2.71-.17,0-.26-.12-.26-.36a4.2,4.2,0,0,1,.29-1.21,10,10,0,0,0,.63-2.51.52.52,0,0,0-.11-.36.3.3,0,0,0-.26-.14.69.69,0,0,0-.38.16,3.25,3.25,0,0,0-.56.59c-.27.36-.55.76-.84,1.21l-.53.81c-.06.1-.17.26-.31.5l-.33.53a2.7,2.7,0,0,1-.27.38c-.18.27-.32.4-.42.4s-.22-.09-.38-.27a.76.76,0,0,1-.24-.46,3.41,3.41,0,0,1,.13-.7c.4-1.53.65-2.59.76-3.15A27,27,0,0,0,151.21,276.47Z" fill="#231f20"/>
      <path d="M161,281.35a1.21,1.21,0,0,1-.7,1,3.08,3.08,0,0,1-1.55.4,6,6,0,0,1-1.58-.19,2.89,2.89,0,0,0-.17.94.82.82,0,0,0,.26.64,1.27,1.27,0,0,0,.85.23,3.87,3.87,0,0,0,1.22-.21A6.13,6.13,0,0,1,160,284c.21,0,.32.08.32.24s-.25.45-.74.7a3.09,3.09,0,0,1-1.43.38,2.13,2.13,0,0,1-1.52-.56,1.86,1.86,0,0,1-.59-1.41,4,4,0,0,1,.46-1.78,4.88,4.88,0,0,1,1.18-1.57,2.15,2.15,0,0,1,1.42-.63,1.69,1.69,0,0,1,1.29.67A2,2,0,0,1,161,281.35Zm-1.82-1a1.37,1.37,0,0,0-.92.46,4.12,4.12,0,0,0-.82,1.14,5.18,5.18,0,0,0,1.1.11,2.67,2.67,0,0,0,1.06-.2c.31-.13.46-.3.46-.52a1,1,0,0,0-.3-.66A.78.78,0,0,0,159.2,280.32Z" fill="#231f20"/>
      <path d="M169.39,279.37c.24,0,.46.16.64.5a2.19,2.19,0,0,1,.28,1.12,7.81,7.81,0,0,1-.22,1.64,9.78,9.78,0,0,1-.59,1.85c-.25.56-.49.84-.73.84s-.25-.11-.25-.33a7.38,7.38,0,0,1,.41-1.62,7,7,0,0,0,.41-2.05c0-.51-.08-.77-.24-.77s-.43.18-.69.53-.53.78-.83,1.28l-.48.79-.09.15-.12.21c0,.07-.16.28-.34.65a8,8,0,0,1-.47.84c-.14.2-.25.31-.35.31a.68.68,0,0,1-.51-.56,2.51,2.51,0,0,1,.21-.69,7.8,7.8,0,0,0,.63-2.9.81.81,0,0,0-.11-.43q-.1-.18-.24-.18a.45.45,0,0,0-.28.12,2.36,2.36,0,0,0-.36.41c-.14.19-.27.38-.38.55l-.51.83c-.23.37-.4.65-.52.82l-.4.63-.35.54-.29.42c-.21.3-.37.45-.47.45s-.23-.09-.39-.27a.78.78,0,0,1-.24-.41,1.74,1.74,0,0,1,0-.34c0-.14.06-.27.1-.4s.09-.32.17-.57.16-.55.26-.88a7.35,7.35,0,0,0,.23-1.41c0-.59.09-1,.11-1.31s.1-.41.21-.41a.74.74,0,0,1,.52.27.85.85,0,0,1,.26.56,13.42,13.42,0,0,1-.79,3.48c.89-1.68,1.46-2.68,1.69-3s.43-.57.6-.76a1.32,1.32,0,0,1,.95-.51c.19,0,.42.16.68.5a1.58,1.58,0,0,1,.41,1,6.62,6.62,0,0,1-.15,1.25C167.77,280.28,168.62,279.37,169.39,279.37Z" fill="#231f20"/>
      <path d="M180.78,281.35a1.2,1.2,0,0,1-.69,1,3.12,3.12,0,0,1-1.56.4,6,6,0,0,1-1.58-.19,3.18,3.18,0,0,0-.17.94.82.82,0,0,0,.26.64,1.29,1.29,0,0,0,.85.23,3.88,3.88,0,0,0,1.23-.21,6.13,6.13,0,0,1,.69-.21c.2,0,.31.08.31.24s-.25.45-.73.7a3.16,3.16,0,0,1-1.43.38,2.11,2.11,0,0,1-1.52-.56,1.83,1.83,0,0,1-.59-1.41,4.08,4.08,0,0,1,.45-1.78,5.19,5.19,0,0,1,1.18-1.57,2.18,2.18,0,0,1,1.43-.63,1.69,1.69,0,0,1,1.29.67A2.06,2.06,0,0,1,180.78,281.35Zm-1.81-1a1.37,1.37,0,0,0-.93.46,3.9,3.9,0,0,0-.81,1.14,5.08,5.08,0,0,0,1.09.11,2.72,2.72,0,0,0,1.07-.2c.3-.13.45-.3.45-.52a1,1,0,0,0-.29-.66A.82.82,0,0,0,179,280.32Z" fill="#231f20"/>
      <path d="M185.53,279.37a.64.64,0,0,1,.4.15.41.41,0,0,1,.19.33,10.81,10.81,0,0,1-.87,2.24c-.58,1.28-1,2.14-1.24,2.59s-.45.66-.64.66a.61.61,0,0,1-.38-.22,1.59,1.59,0,0,1-.34-.5,15.51,15.51,0,0,1-.7-2.43,13.46,13.46,0,0,1-.37-2.46c0-.24.07-.36.22-.36a.86.86,0,0,1,.54.22,1.15,1.15,0,0,1,.38.56,9.27,9.27,0,0,1,.1,1,10.34,10.34,0,0,0,.58,2.91c.21-.46.49-1.12.82-2s.61-1.51.83-2S185.42,279.37,185.53,279.37Z" fill="#231f20"/>
      <path d="M191.24,281.35a1.2,1.2,0,0,1-.69,1,3.12,3.12,0,0,1-1.56.4,6,6,0,0,1-1.58-.19,3.14,3.14,0,0,0-.16.94.81.81,0,0,0,.25.64,1.32,1.32,0,0,0,.86.23,3.87,3.87,0,0,0,1.22-.21,6.13,6.13,0,0,1,.69-.21c.21,0,.31.08.31.24s-.24.45-.73.7a3.12,3.12,0,0,1-1.43.38,2.13,2.13,0,0,1-1.52-.56,1.86,1.86,0,0,1-.59-1.41,4,4,0,0,1,.46-1.78,5,5,0,0,1,1.17-1.57,2.2,2.2,0,0,1,1.43-.63,1.69,1.69,0,0,1,1.29.67A2,2,0,0,1,191.24,281.35Zm-1.81-1a1.35,1.35,0,0,0-.92.46,3.92,3.92,0,0,0-.82,1.14,5.08,5.08,0,0,0,1.09.11,2.69,2.69,0,0,0,1.07-.2c.3-.13.46-.3.46-.52a1,1,0,0,0-.3-.66A.8.8,0,0,0,189.43,280.32Z" fill="#231f20"/>
      <path d="M192.57,280.83l0-.9c0-.38.09-.56.26-.56a.56.56,0,0,1,.44.29,1.18,1.18,0,0,1,.21.7c0,.26,0,.47,0,.6.69-1,1.35-1.58,2-1.58.39,0,.58.09.58.29a.35.35,0,0,1-.13.26,2.3,2.3,0,0,1-.42.28,2.64,2.64,0,0,0-1.07.84,5.37,5.37,0,0,0-.72,1.29c-.18.48-.33.89-.43,1.21l-.25.77c-.06.19-.12.37-.19.54s-.28.48-.45.48a.37.37,0,0,1-.32-.23.92.92,0,0,1-.13-.46,4.07,4.07,0,0,1,.2-.88A9.43,9.43,0,0,0,192.57,280.83Z" fill="#231f20"/>
      <path d="M200.52,279.37c.13,0,.26.09.41.28a1,1,0,0,1,.22.63,8.88,8.88,0,0,1-.49,1.63q-.49,1.39-.66,1.89c-.12.33-.28.77-.47,1.32s-.39,1.08-.57,1.6c-.4,1.15-1,1.72-1.8,1.72a2.38,2.38,0,0,1-1.31-.41c-.41-.28-.62-.57-.62-.86a.66.66,0,0,1,.15-.38c.1-.13.18-.2.25-.2s.19.09.35.27c.47.52.86.79,1.19.79s.47-.22.67-.66a14.17,14.17,0,0,0,.57-1.47l.3-.91c0-.06,0-.13.07-.21l.08-.24c-.57.77-1.13,1.16-1.68,1.16a1.28,1.28,0,0,1-.93-.47,1.59,1.59,0,0,1-.42-1.1,6.46,6.46,0,0,1,.31-1.72,10,10,0,0,1,.73-1.87c.28-.53.51-.79.68-.79a.54.54,0,0,1,.41.2.58.58,0,0,1,.18.4,2.66,2.66,0,0,1-.31.85,7.78,7.78,0,0,0-1,3.09.44.44,0,0,0,.12.32.36.36,0,0,0,.29.13c.28,0,.63-.26,1-.77a9.54,9.54,0,0,0,1.1-1.82,22.34,22.34,0,0,0,.88-2.27C200.31,279.41,200.39,279.37,200.52,279.37Z" fill="#231f20"/>
      <path d="M211.4,276c.13,0,.29.11.48.35a1.16,1.16,0,0,1,.28.67,14,14,0,0,1-.3,1.77c-.2,1-.43,2-.7,3-.57,2.33-.95,3.5-1.14,3.5a.53.53,0,0,1-.36-.21.55.55,0,0,1-.2-.37,5.36,5.36,0,0,1,.08-.62,3.2,3.2,0,0,1-2,1.2,1.25,1.25,0,0,1-1-.48,1.47,1.47,0,0,1-.43-1,5,5,0,0,1,.4-1.77,6.24,6.24,0,0,1,1.16-1.86,2.17,2.17,0,0,1,1.61-.84c.57,0,1,.34,1.19,1a23,23,0,0,0,.67-4C211.14,276.13,211.23,276,211.4,276Zm-1.32,5.89a2.38,2.38,0,0,0-.22-1.09c-.15-.3-.33-.45-.53-.45a1.45,1.45,0,0,0-1.06.64,4.94,4.94,0,0,0-.86,1.46,4.05,4.05,0,0,0-.32,1.42.46.46,0,0,0,.16.35.54.54,0,0,0,.37.13,2.35,2.35,0,0,0,1.27-.67,4,4,0,0,0,1.16-1.59l0-.14Z" fill="#231f20"/>
      <path d="M216.44,279.91a1.37,1.37,0,0,1,.16,1.88.56.56,0,0,1,.14.31,7.28,7.28,0,0,1-.15,1.15c-.1.55-.16.91-.18,1.07s0,.3,0,.4l-.06.3c0,.2-.11.3-.22.3s-.26-.13-.35-.38a3.17,3.17,0,0,1-.16-1c-.72.91-1.38,1.36-2,1.36a1.64,1.64,0,0,1-1.09-.48,1.3,1.3,0,0,1-.53-1,4.24,4.24,0,0,1,.52-1.79,7.26,7.26,0,0,1,1.37-1.88,2.34,2.34,0,0,1,1.59-.83A1.29,1.29,0,0,1,216.44,279.91Zm-.44,1.57c0-.74-.15-1.12-.45-1.12a1.68,1.68,0,0,0-1.09.67,6.62,6.62,0,0,0-1.05,1.5,3.21,3.21,0,0,0-.44,1.34.42.42,0,0,0,.17.33.68.68,0,0,0,.4.12,1.91,1.91,0,0,0,1.27-.76,4.13,4.13,0,0,0,1-1.85.27.27,0,0,1,.21-.22Z" fill="#231f20"/>
      <path d="M222.57,279.37a.59.59,0,0,1,.42.28,1,1,0,0,1,.22.63,8.88,8.88,0,0,1-.49,1.63l-.67,1.89c-.11.33-.27.77-.47,1.32s-.38,1.08-.57,1.6c-.4,1.15-1,1.72-1.8,1.72a2.35,2.35,0,0,1-1.3-.41c-.42-.28-.63-.57-.63-.86a.66.66,0,0,1,.15-.38c.1-.13.19-.2.26-.2s.19.09.35.27c.46.52.86.79,1.19.79s.47-.22.67-.66a14.17,14.17,0,0,0,.57-1.47l.3-.91.07-.21c0-.09,0-.17.08-.24-.57.77-1.13,1.16-1.68,1.16a1.24,1.24,0,0,1-.93-.47,1.56,1.56,0,0,1-.43-1.1,6.9,6.9,0,0,1,.31-1.72,10,10,0,0,1,.74-1.87c.28-.53.5-.79.68-.79a.52.52,0,0,1,.4.2.56.56,0,0,1,.19.4,3,3,0,0,1-.31.85,7.83,7.83,0,0,0-1,3.09.44.44,0,0,0,.12.32.37.37,0,0,0,.29.13c.29,0,.63-.26,1-.77a10.1,10.1,0,0,0,1.11-1.82,20.39,20.39,0,0,0,.87-2.27A.23.23,0,0,1,222.57,279.37Z" fill="#231f20"/>
    </g>
    <rect x="14.04" y="173.91" width="231.43" height="45" fill="#029ab3"/>
    <line x1="14.04" y1="183.51" x2="245.47" y2="183.51" fill="none" stroke="#029ab3" stroke-miterlimit="10"/>
    <g>
      <path d="M46.31,192.32H44.5v-7H42.17v-1.51h6.47v1.51H46.31Z" fill="#fff"/>
      <path d="M52.78,192.44a3.38,3.38,0,0,1-2.47-.87,3.34,3.34,0,0,1-.89-2.48,3.63,3.63,0,0,1,.82-2.54,2.94,2.94,0,0,1,2.28-.9,2.89,2.89,0,0,1,2.16.79,3,3,0,0,1,.77,2.18v.87H51.23a1.72,1.72,0,0,0,.45,1.19,1.57,1.57,0,0,0,1.18.43A5,5,0,0,0,54,191a6.15,6.15,0,0,0,1.1-.4V192a4.07,4.07,0,0,1-1,.34A6,6,0,0,1,52.78,192.44Zm-.25-5.52a1.12,1.12,0,0,0-.89.36,1.63,1.63,0,0,0-.37,1h2.51a1.51,1.51,0,0,0-.35-1A1.16,1.16,0,0,0,52.53,186.92Z" fill="#fff"/>
      <path d="M61.07,192.32l-.35-.89h0a2.72,2.72,0,0,1-.92.79,3,3,0,0,1-1.25.22A2,2,0,0,1,57,191.9a2,2,0,0,1-.55-1.53,1.74,1.74,0,0,1,.73-1.54,4.19,4.19,0,0,1,2.2-.55l1.14,0V188a.89.89,0,0,0-1-1,4.65,4.65,0,0,0-1.85.48l-.59-1.21a5.28,5.28,0,0,1,2.51-.59,3.14,3.14,0,0,1,2,.57,2.12,2.12,0,0,1,.7,1.75v4.36Zm-.53-3-.69,0a2.26,2.26,0,0,0-1.16.28.88.88,0,0,0-.38.79c0,.5.29.75.86.75a1.42,1.42,0,0,0,1-.35,1.26,1.26,0,0,0,.37-.95Z" fill="#fff"/>
      <path d="M66.81,192.44q-3,0-3.05-3.36a3.56,3.56,0,0,1,.83-2.55,3.1,3.1,0,0,1,2.38-.88,4.63,4.63,0,0,1,2,.44l-.53,1.39a6.81,6.81,0,0,0-.78-.28,2.58,2.58,0,0,0-.73-.11c-.93,0-1.39.66-1.39,2S66,191,67,191a2.93,2.93,0,0,0,1-.14,3.4,3.4,0,0,0,.88-.43V192a2.7,2.7,0,0,1-.88.38A4.91,4.91,0,0,1,66.81,192.44Z" fill="#fff"/>
      <path d="M76.37,192.32H74.58V188.5c0-.95-.35-1.42-1-1.42a1.19,1.19,0,0,0-1.08.51,3,3,0,0,0-.34,1.65v3.08H70.32V183.2h1.79v1.86c0,.15,0,.49,0,1l0,.53h.09a2.07,2.07,0,0,1,1.9-1,2.32,2.32,0,0,1,1.75.62,2.46,2.46,0,0,1,.6,1.78Z" fill="#fff"/>
      <path d="M81.18,192.44a3.41,3.41,0,0,1-2.48-.87,3.34,3.34,0,0,1-.89-2.48,3.63,3.63,0,0,1,.83-2.54,2.92,2.92,0,0,1,2.27-.9,2.85,2.85,0,0,1,2.16.79,3,3,0,0,1,.78,2.18v.87H79.62a1.72,1.72,0,0,0,.45,1.19,1.6,1.6,0,0,0,1.19.43,5.06,5.06,0,0,0,1.12-.12,6.15,6.15,0,0,0,1.1-.4V192a4.21,4.21,0,0,1-1,.34A6.06,6.06,0,0,1,81.18,192.44Zm-.26-5.52a1.15,1.15,0,0,0-.89.36,1.75,1.75,0,0,0-.37,1h2.51a1.51,1.51,0,0,0-.34-1A1.2,1.2,0,0,0,80.92,186.92Z" fill="#fff"/>
      <path d="M89,185.65a3.28,3.28,0,0,1,.6,0l-.13,1.68a2,2,0,0,0-.53-.06,1.84,1.84,0,0,0-1.33.44,1.58,1.58,0,0,0-.48,1.23v3.33H85.3v-6.55h1.35l.27,1.1H87a2.39,2.39,0,0,1,.82-.88A2,2,0,0,1,89,185.65Z" fill="#fff"/>
      <path d="M95.32,190.38a1.79,1.79,0,0,1-.7,1.53,3.46,3.46,0,0,1-2.09.53,6.06,6.06,0,0,1-1.22-.1,4.76,4.76,0,0,1-1-.28v-1.48a5.76,5.76,0,0,0,1.13.39,4.28,4.28,0,0,0,1.09.16c.65,0,1-.18,1-.56a.49.49,0,0,0-.13-.34,1.92,1.92,0,0,0-.45-.3q-.32-.17-.84-.39A5.42,5.42,0,0,1,91,189a1.6,1.6,0,0,1-.52-.62,2.11,2.11,0,0,1-.16-.85,1.54,1.54,0,0,1,.68-1.35,3.28,3.28,0,0,1,1.92-.48,5.49,5.49,0,0,1,2.3.51l-.54,1.29a9.7,9.7,0,0,0-.92-.34,2.83,2.83,0,0,0-.87-.14c-.53,0-.79.15-.79.43a.51.51,0,0,0,.25.42,7.45,7.45,0,0,0,1.12.52,4.69,4.69,0,0,1,1.12.58,1.63,1.63,0,0,1,.53.62A1.93,1.93,0,0,1,95.32,190.38Z" fill="#fff"/>
      <path d="M46.41,206.32v-8.56h1.82v7.06H51.7v1.5Z" fill="#fff"/>
      <path d="M56,206.44a3.41,3.41,0,0,1-2.48-.87,3.34,3.34,0,0,1-.89-2.48,3.63,3.63,0,0,1,.83-2.54,2.9,2.9,0,0,1,2.27-.9,2.85,2.85,0,0,1,2.16.79,3,3,0,0,1,.78,2.18v.87H54.46a1.72,1.72,0,0,0,.45,1.19,1.6,1.6,0,0,0,1.19.43,5.06,5.06,0,0,0,1.12-.12,6.15,6.15,0,0,0,1.1-.4V206a4.21,4.21,0,0,1-1,.34A6.06,6.06,0,0,1,56,206.44Zm-.26-5.52a1.15,1.15,0,0,0-.89.36,1.75,1.75,0,0,0-.37,1H57a1.51,1.51,0,0,0-.34-1A1.2,1.2,0,0,0,55.76,200.92Z" fill="#fff"/>
      <path d="M64.3,206.32l-.34-.89h-.05a2.65,2.65,0,0,1-.93.79,3,3,0,0,1-1.25.22,2,2,0,0,1-1.48-.54,2.07,2.07,0,0,1-.54-1.53,1.72,1.72,0,0,1,.73-1.54,4.16,4.16,0,0,1,2.2-.55l1.13,0V202a.89.89,0,0,0-1-1,4.61,4.61,0,0,0-1.84.48l-.59-1.21a5.24,5.24,0,0,1,2.5-.59,3.17,3.17,0,0,1,2,.57,2.15,2.15,0,0,1,.7,1.75v4.36Zm-.53-3-.69,0a2.29,2.29,0,0,0-1.16.28.9.9,0,0,0-.38.79q0,.75.87.75a1.41,1.41,0,0,0,1-.35,1.26,1.26,0,0,0,.37-.95Z" fill="#fff"/>
      <path d="M69.46,206.44a2.12,2.12,0,0,1-1.81-.9,5,5,0,0,1,0-5,2.19,2.19,0,0,1,1.85-.9,2.16,2.16,0,0,1,1.89,1h.06a7.32,7.32,0,0,1-.14-1.31v-2.1h1.79v9.12H71.74l-.34-.85h-.08A2,2,0,0,1,69.46,206.44Zm.63-1.42a1.25,1.25,0,0,0,1-.4,2.38,2.38,0,0,0,.34-1.36v-.19a2.65,2.65,0,0,0-.32-1.51,1.2,1.2,0,0,0-1.06-.46,1,1,0,0,0-.93.51,2.71,2.71,0,0,0-.33,1.47,2.48,2.48,0,0,0,.34,1.45A1.09,1.09,0,0,0,70.09,205Z" fill="#fff"/>
      <path d="M74.91,198.08c0-.58.32-.88,1-.88s1,.3,1,.88a.87.87,0,0,1-.24.65,1,1,0,0,1-.73.23C75.23,199,74.91,198.66,74.91,198.08Zm1.86,8.24H75v-6.55h1.79Z" fill="#fff"/>
      <path d="M84.69,206.32H82.9V202.5a1.84,1.84,0,0,0-.25-1.07.92.92,0,0,0-.8-.35,1.18,1.18,0,0,0-1.08.5,3,3,0,0,0-.34,1.66v3.08H78.65v-6.55H80l.24.84h.1a1.85,1.85,0,0,1,.82-.72,2.86,2.86,0,0,1,1.2-.24,2.25,2.25,0,0,1,1.73.62,2.48,2.48,0,0,1,.59,1.78Z" fill="#fff"/>
      <path d="M92.23,199.77v.91l-1,.26a1.79,1.79,0,0,1,.28,1,2,2,0,0,1-.74,1.64,3.2,3.2,0,0,1-2,.59l-.32,0-.26,0a.59.59,0,0,0-.28.47c0,.26.33.39,1,.39H90a2.52,2.52,0,0,1,1.64.46,1.65,1.65,0,0,1,.57,1.36,2,2,0,0,1-1,1.78,5,5,0,0,1-2.75.63,3.82,3.82,0,0,1-2.1-.47,1.53,1.53,0,0,1-.72-1.34,1.37,1.37,0,0,1,.37-1,2,2,0,0,1,1.08-.57,1.33,1.33,0,0,1-.48-.38,1,1,0,0,1-.2-.57.91.91,0,0,1,.21-.62,2.6,2.6,0,0,1,.63-.49,1.79,1.79,0,0,1-.82-.72,2.18,2.18,0,0,1-.3-1.16,2,2,0,0,1,.7-1.66,3,3,0,0,1,2-.58,4.08,4.08,0,0,1,.65,0l.49.07Zm-5,7.48a.64.64,0,0,0,.35.58,2,2,0,0,0,1,.21,3.63,3.63,0,0,0,1.51-.26.81.81,0,0,0,.54-.73.51.51,0,0,0-.32-.51,2.66,2.66,0,0,0-1-.14h-.93a1.35,1.35,0,0,0-.82.24A.7.7,0,0,0,87.18,207.25Zm.65-5.33a1.35,1.35,0,0,0,.24.84.87.87,0,0,0,.74.31.86.86,0,0,0,.74-.31,1.35,1.35,0,0,0,.23-.84c0-.79-.32-1.19-1-1.19S87.83,201.13,87.83,201.92Z" fill="#fff"/>
    </g>
    <g>
      <path d="M161.48,200.4h-1.79v-8.57h4.91v1.49h-3.12v2.21h2.9V197h-2.9Z" fill="#fff"/>
      <path d="M169.79,193.73a2.58,2.58,0,0,1,.6.05l-.13,1.67a2.07,2.07,0,0,0-.53,0,1.9,1.9,0,0,0-1.33.43,1.61,1.61,0,0,0-.48,1.24v3.33h-1.79v-6.55h1.36l.26,1.1h.09a2.5,2.5,0,0,1,.82-.89A2.07,2.07,0,0,1,169.79,193.73Z" fill="#fff"/>
      <path d="M174.55,200.52a3.33,3.33,0,0,1-2.47-.88,3.27,3.27,0,0,1-.9-2.47,3.64,3.64,0,0,1,.83-2.55,3,3,0,0,1,2.27-.89,2.89,2.89,0,0,1,2.17.79,3,3,0,0,1,.77,2.18v.87H173a1.69,1.69,0,0,0,.45,1.19,1.59,1.59,0,0,0,1.18.43,4.52,4.52,0,0,0,1.12-.13,5.4,5.4,0,0,0,1.1-.39v1.38a3.83,3.83,0,0,1-1,.35A6.06,6.06,0,0,1,174.55,200.52ZM174.3,195a1.12,1.12,0,0,0-.89.36,1.63,1.63,0,0,0-.37,1h2.5a1.46,1.46,0,0,0-.34-1A1.18,1.18,0,0,0,174.3,195Z" fill="#fff"/>
      <path d="M181.64,200.52a3.33,3.33,0,0,1-2.47-.88,3.27,3.27,0,0,1-.9-2.47,3.64,3.64,0,0,1,.83-2.55,3,3,0,0,1,2.27-.89,2.89,2.89,0,0,1,2.17.79,3,3,0,0,1,.77,2.18v.87h-4.22a1.65,1.65,0,0,0,.45,1.19,1.59,1.59,0,0,0,1.18.43,4.52,4.52,0,0,0,1.12-.13,5.4,5.4,0,0,0,1.1-.39v1.38a3.83,3.83,0,0,1-1,.35A6.06,6.06,0,0,1,181.64,200.52Zm-.25-5.52a1.12,1.12,0,0,0-.89.36,1.63,1.63,0,0,0-.37,1h2.5a1.46,1.46,0,0,0-.34-1A1.18,1.18,0,0,0,181.39,195Z" fill="#fff"/>
      <path d="M194.94,194.5a2.61,2.61,0,0,1-.87,2.12,3.66,3.66,0,0,1-2.45.73h-.78v3.05H189v-8.57h2.74a3.68,3.68,0,0,1,2.37.67A2.46,2.46,0,0,1,194.94,194.5Zm-4.1,1.36h.59a2,2,0,0,0,1.26-.33,1.14,1.14,0,0,0,.41-1,1.18,1.18,0,0,0-.34-.94,1.62,1.62,0,0,0-1.1-.31h-.82Z" fill="#fff"/>
      <path d="M198.2,200.4h-1.78v-9.12h1.78Z" fill="#fff"/>
      <path d="M204.24,200.4l-.35-.89h0a2.72,2.72,0,0,1-.92.79,3.15,3.15,0,0,1-1.25.22,2,2,0,0,1-1.48-.54,2,2,0,0,1-.55-1.54,1.75,1.75,0,0,1,.73-1.54,4.2,4.2,0,0,1,2.2-.54l1.14,0V196a.89.89,0,0,0-1-1,4.79,4.79,0,0,0-1.85.47l-.59-1.2a5.29,5.29,0,0,1,2.51-.6,3.14,3.14,0,0,1,2,.58,2.11,2.11,0,0,1,.71,1.74v4.37Zm-.53-3-.69,0a2.17,2.17,0,0,0-1.16.28.86.86,0,0,0-.38.78c0,.51.29.76.86.76a1.38,1.38,0,0,0,1-.36,1.24,1.24,0,0,0,.37-.95Z" fill="#fff"/>
      <path d="M206.39,193.85h2l1.24,3.68a4.91,4.91,0,0,1,.22,1.14h0a5.26,5.26,0,0,1,.26-1.14l1.21-3.68h1.91l-2.77,7.39a3.17,3.17,0,0,1-1.08,1.53,2.76,2.76,0,0,1-1.65.51,3.91,3.91,0,0,1-.91-.1v-1.42a2.59,2.59,0,0,0,.7.08,1.29,1.29,0,0,0,.83-.29,1.78,1.78,0,0,0,.55-.88l.11-.32Z" fill="#fff"/>
    </g>
    <line x1="125.89" y1="219.64" x2="125.89" y2="330.31" fill="none" stroke="#029ab3" stroke-miterlimit="10" stroke-width="1.33"/>
    <line x1="125.89" y1="175.46" x2="125.89" y2="215.55" fill="none" stroke="#fff" stroke-miterlimit="10" stroke-width="1.22"/>
  </g>
</svg>
