<svg xmlns="http://www.w3.org/2000/svg" viewBox="0 0 460 650">
  <title>_</title>
  <rect x="1.31" y="1.73" width="456.42" height="644.36" rx="13.23" ry="13.23" fill="#fff"/>
  <g>
    <rect x="44.6" y="117.45" width="370.29" height="397.67" fill="#fff" stroke="#029ab3" stroke-miterlimit="10" stroke-width="1.69"/>
    <polyline points="43.73 515.12 415.63 515.12 415.63 605.09 43.73 605.09" fill="#f0f5eb"/>
    <g>
      <g>
        <path d="M107.73,85.75l.06-1.09c.11-2,.27-4.19,1.49-5.89a7.4,7.4,0,0,1,4.3-2.67,8.48,8.48,0,0,1,9,3.32c3.06,4.45.84,11.06-1.29,15.4-1.37,2.79-3.17,5.66-6.06,6.79-3.18,1.24-6.48,0-9-2-2.92-2.31-4.47-5.76-7.27-8.18a2.77,2.77,0,0,0-1.73-.85c-.58,0-1.18.32-1.72.09a1.53,1.53,0,0,1-.72-1.48,4.9,4.9,0,0,1,3.65-4.69,3.67,3.67,0,0,1,2.53,0c1.34.57,2,2.07,2.73,3.33.41.68,2.56,4,3.62,3.3.44-.3.23-1.64.25-2.1C107.59,88,107.66,86.86,107.73,85.75Z" fill="#fdd2b9"/>
        <path d="M167.28,91.73A2.1,2.1,0,0,1,168,92a.83.83,0,0,1,.41.61.85.85,0,0,1-.4.72,5.73,5.73,0,0,1-3.15.49,11,11,0,0,1,3.64.56.9.9,0,0,1,.62.58c.52,1.72-3.7,1.07-4.42,1l1.63.28a6,6,0,0,1,1.39.33c.45.17.75.61.39,1a1.38,1.38,0,0,1-.79.41,7.32,7.32,0,0,1-3.19-.13h0a3.7,3.7,0,0,1,1.76.84c.19.2.32.53.09.75a1.91,1.91,0,0,1-1.47.33,5.47,5.47,0,0,1-1.32-.29,10.91,10.91,0,0,0-1.25-.32c-2.54-.53-5.06-.59-7.61-.94a25.45,25.45,0,0,1-7.17-2l-.09,0a21.27,21.27,0,0,1-11-12.91c-.67-2.25-1.05-5.3,1-7a4.86,4.86,0,0,1,4.09-1.15,4.27,4.27,0,0,1,2.49,1.63,9.05,9.05,0,0,1,1.25,2.31c1.21,3.16,2.49,6.58,4.82,9.09a21.74,21.74,0,0,0,3.62,3.23A8.33,8.33,0,0,0,157.16,93c1.54.14,2.86-1.35,3.68-2.48a5.6,5.6,0,0,1,1.76-1.92,1,1,0,0,1,1.18.19,1.61,1.61,0,0,1,.09,1.45,3,3,0,0,1-.9,1.42c.09-.07.38,0,.5-.06l.56,0q.57,0,1.14,0a11.09,11.09,0,0,1,2.08.16Z" fill="#fddbbb"/>
        <path d="M125.18,63.33c-.78,0-1.55,0-2.31,0a15.94,15.94,0,0,0-10.26,4.49c-2.87,2.81-3.38,6.12-5,9.54a10.86,10.86,0,0,0,0,9.06,14.62,14.62,0,0,0,8.56,8.16c4.58,1.61,9.68.81,14.22-.87,3.29-1.22,6.49-2.67,9.68-4.11a43.82,43.82,0,0,0,9.62-5.78c1.56-1.26,3.13-2.54,3-4.54a6.45,6.45,0,0,0-.87-2.55c-.41-.8-.6-1.66-1-2.46A11.24,11.24,0,0,0,147,70c-3.8-2.58-8.6-4-13-5.08A47.37,47.37,0,0,0,125.18,63.33Z" fill="#fdd2b9"/>
        <path d="M107.39,65A18,18,0,0,0,100,72.79a16.18,16.18,0,0,0-.73,11.92A26.23,26.23,0,0,0,102,90.06a23.6,23.6,0,0,0,4.37,4.77,11.16,11.16,0,0,0,3,2,10.5,10.5,0,0,0,3.19.62,20.9,20.9,0,0,0,7.55-.77c.34-.11,3.21-1,3.12-1.32a20,20,0,0,1-.64-4.34c0-1.42-.24-2.83-.23-4.26a68.36,68.36,0,0,1,3.27-20c.19-.59.39-1.19.6-1.78.09-.27.68-1.39.51-1.6a.62.62,0,0,0-.3-.16,28.25,28.25,0,0,0-7.39-.93,25.26,25.26,0,0,0-7.25.79A19,19,0,0,0,107.39,65Z" fill="#9dccd8"/>
        <path d="M102.54,79.59l.52-1.06c1-2,2-4.07,4-5.26a8,8,0,0,1,5.42-.87A9.22,9.22,0,0,1,120,79.49c1.18,5.73-3.8,11.39-7.74,14.84-2.54,2.21-6.11,4.59-9.47,4.51-2.73-.07-5.21-1.59-7.24-3.42C93.88,93.89,93,91.85,91.68,90c-.92-1.32-1.82-4.45-3.85-3.5a12.49,12.49,0,0,0-1.65,1.15,2.27,2.27,0,0,1-1.89.46,1.87,1.87,0,0,1-1.16-1.71,4.29,4.29,0,0,1,.58-2.1,13.35,13.35,0,0,1,3.81-4.57c1.36-1,2.9-2.14,4.64-1.26,1.35.68,1,1.66,1.16,2.84a2.73,2.73,0,0,0,.59,1.16,19.17,19.17,0,0,0,2,2c.75.74,1.69,1.53,2.71,1.3s1.48-1.16,1.9-2Q101.52,81.68,102.54,79.59Z" fill="#fdd2b9"/>
      </g>
      <g>
        <path d="M183.9,65.66a18.82,18.82,0,0,1-2.57,5.62c-.7,1-1.31,2.08-2.07,3a22.31,22.31,0,0,0-2.69,3.94,13.68,13.68,0,0,1-.62,1.41c-.13.19-.34.37-.49.55-5.56,6.92-15.34,7.62-22.78,3.51-1.92-1.06-3.26-3.25-4.4-5a26.39,26.39,0,0,1-3-8.09A33.9,33.9,0,0,0,144,65.72c-.35-1-.9-1.95-1.34-2.94-1.4-3.2-.23-6.82.68-10A27.52,27.52,0,0,1,145.05,49a10.48,10.48,0,0,1,2.68-3,21.26,21.26,0,0,1,5.35-4c8.51-3.82,19.35-2.7,26,4.17.3.31.59.64.87,1a20.15,20.15,0,0,1,4.47,13.11A26.66,26.66,0,0,1,183.9,65.66Z" fill="#fdd2b9"/>
        <path d="M170.64,71.29a1.07,1.07,0,0,0-.4,0c-1,.17-2.15,1.37-1.91,2.3a.59.59,0,0,0,.31.39c1,.46,3.07-2.11,2.17-2.63A.49.49,0,0,0,170.64,71.29Z" fill="#231f20"/>
        <g>
          <path d="M175,79.68a2.47,2.47,0,0,1-.6-.08c-.16,0-.41-.21-.58-.19-.39,0,0,.78.09,1a1.64,1.64,0,0,0,.84.6h0c.22-.24.43-.49.64-.75l.37-.47A1.94,1.94,0,0,0,175,79.68Z" fill="#fab77d"/>
          <path d="M176.52,77.67a2.1,2.1,0,0,0-.5.57.75.75,0,0,0-.09.6c.13.23.28.14.4,0s.15-.4.24-.58c.16-.34.34-.66.53-1A2.42,2.42,0,0,0,176.52,77.67Z" fill="#fdd4af"/>
          <path d="M175.78,80.4c-.64.18-2.19,0-2.16-.94a1.35,1.35,0,0,1,.45-.86,3.15,3.15,0,0,1,1.25-.78.58.58,0,0,1,.41,0c.29.09.33.49.53.71a2.91,2.91,0,0,0,.46.32C177.38,79.37,176.27,80.26,175.78,80.4Z" fill="#fdd2b9"/>
        </g>
        <path d="M167.75,83.41a3.14,3.14,0,0,1-.8-1.54,10.66,10.66,0,0,0-1.12,1,2.83,2.83,0,0,0-.68,1.09c-.56,1.79,1.94,1.37,2.94,1a8.08,8.08,0,0,0,1.74-.93,2.49,2.49,0,0,1-1.8-.34A2.09,2.09,0,0,1,167.75,83.41Z" fill="#fab77d"/>
        <path d="M147,45.94a18.57,18.57,0,0,0-4.07,6,14.74,14.74,0,0,0-1.44,7c0,1.14,0,2.27.14,3.41.06.65.34,3.9-.85,2.69-.11-.1-.32-.16-.4,0a.56.56,0,0,0,0,.12,1.63,1.63,0,0,0,.49,1.35,3.11,3.11,0,0,0,1.25.61c-1-.31-1.15.94-.55,1.47a4.18,4.18,0,0,0,2.78.57,9.82,9.82,0,0,0,3.08-.85,32.12,32.12,0,0,0,3.07-1.35,27.91,27.91,0,0,1,3-1.53c1.37-.54,2.73-1.11,4.09-1.68s2.34-1,4.15-1.77c3-1.27,6.69-2.94,9.65-4.25,1.07-.48,2.17-1.13,3.3-1.53.12,0,1.63,1,1.88,1.12a4.34,4.34,0,0,0,2.47.13,4.16,4.16,0,0,0,1.57,4,2.4,2.4,0,0,0,1.18.51,1.36,1.36,0,0,0,1.18-.42,5.46,5.46,0,0,1-1.5-.82,2.79,2.79,0,0,1-.31-3.72c.17,2.27,2.53,4.9,4.91,3.57a3.07,3.07,0,0,0,1.11-.94c.28-.52,0-.8,0-1.23a1,1,0,0,1-1.32.55,2.25,2.25,0,0,1-1-1.23c-.81-1.77-.6-3.69-1.2-5.52l0-.14a16.3,16.3,0,0,0-4.65-7.25,34.44,34.44,0,0,0-6.22-4.39,23,23,0,0,0-7-1.94,18.41,18.41,0,0,0-10.09,1.25C152.09,41.08,149.63,43.42,147,45.94Z" fill="#e3ab47"/>
        <path d="M145.48,68a2.16,2.16,0,0,0,.79.61c1.08.47,2.34-.12,3.43-.26a4,4,0,0,0,3-1.44c1.62-2.42-.7-7-3.77-6.51a4.22,4.22,0,0,0-2.28,1.26,6.09,6.09,0,0,0-1.77,3.92,4,4,0,0,0,.24,1.75A2.53,2.53,0,0,0,145.48,68Z" fill="#fdd2b9"/>
        <path d="M153.51,36.73A1.88,1.88,0,0,0,153.4,38a4.07,4.07,0,0,0,3.19,2.91,5.89,5.89,0,0,0,4.33-1,9.61,9.61,0,0,1-4.46-.23,5,5,0,0,1-1.86-1.14C154.35,38.31,153.3,37.12,153.51,36.73Z" fill="#e3ab47"/>
      </g>
      <path d="M167.54,93a2.27,2.27,0,0,1,.73.31.87.87,0,0,1,.4.69.92.92,0,0,1-.48.76c-1,.58-2.4.39-3.47.32a12,12,0,0,1,3.92.85,1,1,0,0,1,.62.67c.43,1.91-4.1.92-4.88.78l1.75.41a6.93,6.93,0,0,1,1.49.45c.47.22.77.72.34,1.17a1.61,1.61,0,0,1-.9.4,8,8,0,0,1-3.45-.36h0a3.88,3.88,0,0,1,1.85,1c.19.23.31.6,0,.82a2.07,2.07,0,0,1-1.63.27,6.22,6.22,0,0,1-1.4-.4,13.11,13.11,0,0,0-1.34-.44,56.58,56.58,0,0,0-5.61-1.21,42.61,42.61,0,0,1-5.78-1.18,38.62,38.62,0,0,1-6.32-2.58,52.46,52.46,0,0,1-13-10.25c-1.94-2.29-3.18-4.07-1.87-7.3a4.81,4.81,0,0,1,4.23-3c2-.06,3.86,1.21,5.38,2.56,2.52,2.22,4.48,4.94,6.88,7.28a95.73,95.73,0,0,0,7.34,6.62,8.85,8.85,0,0,0,4,2c1.67.26,3.22-1.28,4.19-2.45a6.48,6.48,0,0,1,2.07-2,1.06,1.06,0,0,1,1.27.29,1.76,1.76,0,0,1,0,1.58,3.23,3.23,0,0,1-1.09,1.48,2,2,0,0,1,.55,0H164c.42,0,.83,0,1.24,0a13,13,0,0,1,2.25.31Z" fill="#fdd2b9"/>
    </g>
    <g>
      <path d="M194.8,94.06a4.26,4.26,0,0,1-1.19-2.13q0-.66,1.74-9.8a112,112,0,0,0,1.81-11.21c.05-.77.41-1.16,1.09-1.16s1.32.56,2.26,1.69a5.11,5.11,0,0,1,1.4,3.17,41,41,0,0,1-1,4.77c-.65,2.75-1.08,4.68-1.31,5.77s-.41,2.06-.58,2.92-.29,1.53-.39,2c-.65,3-1.17,4.73-1.54,5.18a.6.6,0,0,1-.43.24C196.23,95.52,195.6,95,194.8,94.06Z"/>
      <path d="M216.56,77.4A4.13,4.13,0,0,1,219.78,79a5.36,5.36,0,0,1,1.39,3.51,22.07,22.07,0,0,1-1,6.24,19.85,19.85,0,0,1-2.11,5c-.77,1.17-1.54,1.76-2.33,1.76s-1.18-.55-1.18-1.65a22.59,22.59,0,0,1,1.17-5.11,20,20,0,0,0,.88-4.54c0-.91-.12-1.37-.36-1.37a1.24,1.24,0,0,0-.89.46,7.81,7.81,0,0,0-.72.81c-.19.23-.41.53-.66.89l-.63,1c-.18.29-.4.67-.67,1.13s-.49.83-.65,1.12-.38.68-.63,1.15q-3.28,6.12-5.14,6.12c-.49,0-1.12-.43-1.87-1.28a3.73,3.73,0,0,1-1.12-1.89,6.25,6.25,0,0,1,.51-1.67c.34-.86.58-1.51.74-2a12.45,12.45,0,0,0,.38-1.46c.11-.52.2-1.08.27-1.67s.12-1.07.16-1.39.07-.85.12-1.55a32,32,0,0,1,.54-5.07c.16-.33.33-.49.51-.49a3.78,3.78,0,0,1,2.57,1.1,3,3,0,0,1,1.24,2,25.72,25.72,0,0,1-1.13,6.26A68.32,68.32,0,0,1,213.37,80C214.63,78.25,215.69,77.4,216.56,77.4Z"/>
      <path d="M236.74,74.56a6.24,6.24,0,0,0-.47-1.46c-.21-.44-.47-.67-.76-.67s-.59.22-.88.64a7.57,7.57,0,0,0-.86,2.07c-.45,1.51-.89,3.25-1.34,5.25,1.78-.09,3.13-.14,4-.14a4,4,0,0,1,2,.4,1.16,1.16,0,0,1,.66,1c0,.73-.65,1.29-2,1.69a41.72,41.72,0,0,1-5.7,1.16c-1.17,4.91-2,8-2.46,9.21s-1,1.84-1.55,1.84-1-.36-1.57-1.1a3.26,3.26,0,0,1-.9-1.68,4.63,4.63,0,0,1,.25-1.33,41.1,41.1,0,0,0,1.65-5.92,7.26,7.26,0,0,1-1.88.28,2.66,2.66,0,0,1-2.44-2.6c0-.85,1.68-1.57,5.06-2.18q1-6.76,2.86-9.81a5.8,5.8,0,0,1,5.27-3,3.94,3.94,0,0,1,3,1.62,5.73,5.73,0,0,1,1.38,3.84,4.8,4.8,0,0,1-.46,2.27,1.36,1.36,0,0,1-1.2.82,1.34,1.34,0,0,1-1.18-.67A4.18,4.18,0,0,1,236.74,74.56Z"/>
      <path d="M253.38,85.56a1.53,1.53,0,0,1,.63,1,8.83,8.83,0,0,1-.42,1.9,23,23,0,0,0-.57,2.24c-.09.53-.17,1-.23,1.25s-.1.55-.12.72a5.82,5.82,0,0,1-.12.65c-.06.26-.11.47-.14.62s-.09.33-.14.53a1.61,1.61,0,0,1-.2.45c-.07.11-.15.22-.24.34a.83.83,0,0,1-.71.28c-.33,0-.73-.33-1.21-1a6.83,6.83,0,0,1-1.08-2.39c-2.2,2.25-4.06,3.38-5.56,3.38A5,5,0,0,1,240,93.89a4.75,4.75,0,0,1-1.76-3.35,12.12,12.12,0,0,1,1.51-4.77A21.62,21.62,0,0,1,243.89,80q2.63-2.64,5.19-2.64a5.54,5.54,0,0,1,3.42,1.72c1.29,1.15,1.93,2.2,1.93,3.15A6.9,6.9,0,0,1,253.38,85.56Zm-10.25,5.56c.94,0,2.19-.63,3.75-1.91a8.06,8.06,0,0,0,2.9-4.84c0-.29.23-.45.6-.5-.07-1.33-.29-2-.67-2q-1.4,0-3.15,1.83a18,18,0,0,0-2.85,3.9,7.66,7.66,0,0,0-1.11,3.07.53.53,0,0,0,.09.37C242.75,91.1,242.9,91.12,243.13,91.12Z"/>
      <path d="M269.32,77.4A4.13,4.13,0,0,1,272.54,79a5.31,5.31,0,0,1,1.39,3.51,21.72,21.72,0,0,1-1,6.24,19.49,19.49,0,0,1-2.11,5c-.76,1.17-1.54,1.76-2.32,1.76s-1.18-.55-1.18-1.65a23,23,0,0,1,1.16-5.11,19.41,19.41,0,0,0,.88-4.54c0-.91-.12-1.37-.35-1.37a1.24,1.24,0,0,0-.9.46q-.43.45-.72.81c-.19.23-.41.53-.65.89s-.46.7-.64,1l-.66,1.13-.66,1.12-.63,1.15q-3.27,6.12-5.14,6.12c-.49,0-1.11-.43-1.86-1.28a3.77,3.77,0,0,1-1.13-1.89,6.25,6.25,0,0,1,.51-1.67c.34-.86.59-1.51.74-2a14.77,14.77,0,0,0,.39-1.46c.1-.52.19-1.08.26-1.67s.12-1.07.16-1.39.08-.85.12-1.55a30,30,0,0,1,.55-5.07c.15-.33.32-.49.51-.49a3.8,3.8,0,0,1,2.57,1.1,3,3,0,0,1,1.23,2A25.72,25.72,0,0,1,262,86.51,70.34,70.34,0,0,1,266.13,80C267.39,78.25,268.45,77.4,269.32,77.4Z"/>
      <path d="M284.16,84.24c-.37,1.14-.81,2.57-1.34,4.28s-.79,2.62-.79,2.73.19.16.58.16a11.72,11.72,0,0,0,2.76-.8,14.52,14.52,0,0,1,2.57-.79c.59,0,.88.4.88,1.2s-.79,1.75-2.36,2.87a8.41,8.41,0,0,1-4.93,1.67,4.61,4.61,0,0,1-2.67-1.23,3.37,3.37,0,0,1-1.55-2.5,19.76,19.76,0,0,1,1.07-4.45c.72-2.27,1.21-3.82,1.46-4.67a8.28,8.28,0,0,1-2.07.39,2.07,2.07,0,0,1-1.48-1,3,3,0,0,1-.77-1.85c0-.75,1.81-1.38,5.45-1.9a28.55,28.55,0,0,0,.67-5.66.93.93,0,0,1,1.06-1.06A4.24,4.24,0,0,1,285,72.77,3,3,0,0,1,286.46,75a13.75,13.75,0,0,1-.46,3c1.13,0,2-.07,2.57-.07q2.64,0,2.64,1.2,0,.76-1.53,1.32a38.08,38.08,0,0,1-4.7,1.18C284.8,82.22,284.52,83.11,284.16,84.24Z"/>
      <path d="M303,77.43A3.57,3.57,0,0,1,305.61,79a4.68,4.68,0,0,1,1.3,2.85c0,.56-.24.84-.74.84a3.63,3.63,0,0,1-1.23-.33,4.11,4.11,0,0,0-1.63-.34,7.93,7.93,0,0,0-2.43.57c-1.07.37-1.61.87-1.61,1.47,0,.24.32.58,1,1s1.32.9,2.07,1.37a7.91,7.91,0,0,1,2.08,2,4.43,4.43,0,0,1,.95,2.71q0,1.47-2.13,2.94a8.53,8.53,0,0,1-5,1.48,8.93,8.93,0,0,1-4.91-1.3c-1.36-.87-2-1.76-2-2.68s.37-1.37,1.13-1.37a2.43,2.43,0,0,1,1.09.35,8.6,8.6,0,0,0,4.38,1c1.75,0,2.62-.23,2.62-.7a2.31,2.31,0,0,0-1-1.57,18.83,18.83,0,0,0-2.18-1.6,11,11,0,0,1-2.19-1.81,3.19,3.19,0,0,1-1-2.1q0-1.89,3.45-4.13T303,77.43Z"/>
    </g>
    <g>
      <g>
        <path d="M218.58,248.81a57.7,57.7,0,1,0-57.71-57.7,57.7,57.7,0,0,0,57.71,57.7" fill="#bfe3e9"/>
        <path d="M218.57,239.15a48.34,48.34,0,1,0-48.34-48.34,48.35,48.35,0,0,0,48.34,48.34" fill="#fff"/>
        <path d="M218.57,144.77a46,46,0,1,0,46.05,46,46.09,46.09,0,0,0-46.05-46m0,96.68a50.64,50.64,0,1,1,50.64-50.64,50.69,50.69,0,0,1-50.64,50.64" fill="#029ab3"/>
        <rect x="216.28" y="147.69" width="4.59" height="8.96" fill="#029ab3"/>
        <rect x="233.42" y="155.06" width="8.96" height="4.58" transform="matrix(0.5, -0.87, 0.87, 0.5, -17.32, 284.69)" fill="#029ab3"/>
        <rect x="247.56" y="169.2" width="8.96" height="4.59" transform="translate(-51.98 148.94) rotate(-29.99)" fill="#029ab3"/>
        <rect x="253.14" y="188.52" width="8.96" height="4.59" fill="#029ab3"/>
        <rect x="249.75" y="205.65" width="4.59" height="8.96" transform="translate(-55.98 323.29) rotate(-59.99)" fill="#029ab3"/>
        <rect x="235.6" y="219.8" width="4.58" height="8.96" transform="translate(-80.27 149.02) rotate(-30)" fill="#029ab3"/>
        <rect x="216.69" y="224.98" width="4.59" height="8.96" fill="#029ab3"/>
        <polygon points="199.4 229.3 195.03 227.01 199.51 219.25 203.88 221.55 199.4 229.3" fill="#029ab3"/>
        <rect x="181.04" y="207.84" width="8.96" height="4.59" transform="translate(-80.2 120.86) rotate(-29.99)" fill="#029ab3"/>
        <rect x="175.86" y="188.52" width="8.96" height="4.59" fill="#029ab3"/>
        <rect x="182.82" y="167.02" width="4.59" height="8.96" transform="translate(-55.98 245.99) rotate(-59.98)" fill="#029ab3"/>
        <rect x="196.96" y="152.87" width="4.59" height="8.96" transform="translate(-51.97 120.65) rotate(-29.99)" fill="#029ab3"/>
        <path d="M218.58,190.41a.4.4,0,0,0-.31.13.44.44,0,0,0-.1.29.39.39,0,0,0,.14.28.36.36,0,0,0,.57,0,.41.41,0,0,0,0-.57.35.35,0,0,0-.26-.1m0,5.39h0a5,5,0,0,1-3.32-1.27,5,5,0,1,1,3.32,1.27" fill="#029ab3"/>
        <rect x="215.68" y="176.02" width="28.15" height="4.59" transform="translate(-56.32 230.67) rotate(-48.19)" fill="#029ab3"/>
        <rect x="205.87" y="169.1" width="4.59" height="24.79" transform="translate(-65.88 215.68) rotate(-48.19)" fill="#029ab3"/>
      </g>
      <g>
        <path d="M333.41,195.8a45.65,45.65,0,1,1-45.65-45.36,45.51,45.51,0,0,1,45.65,45.36" fill="#e10000"/>
        <g>
          <path d="M286.26,190.74H273v-3.25l4.46-4.52c1.27-1.33,2.11-2.24,2.5-2.73a6.38,6.38,0,0,0,.82-1.25,2.78,2.78,0,0,0,.23-1.1,1.47,1.47,0,0,0-.46-1.13,1.93,1.93,0,0,0-1.3-.41,3.55,3.55,0,0,0-1.75.49,13,13,0,0,0-2,1.46l-2.71-3.18a14.48,14.48,0,0,1,2.37-1.8,8.07,8.07,0,0,1,2.1-.83,9.91,9.91,0,0,1,2.54-.29,7.8,7.8,0,0,1,3.17.62,5,5,0,0,1,2.16,1.78,4.64,4.64,0,0,1,.77,2.6,7,7,0,0,1-.27,2,7.38,7.38,0,0,1-.83,1.79,12.11,12.11,0,0,1-1.5,1.86q-.93,1-4,3.7v.12h6.91Z" fill="#fff"/>
          <path d="M291.92,183.51l-4.32-6.94h5.55l2.15,4,2.2-4h5.56l-4.44,6.94,4.61,7.23h-5.55l-2.38-4.3-2.38,4.3h-5.56Z" fill="#fff"/>
          <path d="M271.43,211.3h-.11a4.88,4.88,0,0,1-4.3,2.09,5.11,5.11,0,0,1-4.18-1.84,8.08,8.08,0,0,1-1.49-5.23,8.21,8.21,0,0,1,1.5-5.26,5.56,5.56,0,0,1,8.45.15h.16l-.09-1-.05-1v-5.57h2.08v19.45h-1.69Zm-4.15.35a3.76,3.76,0,0,0,3.08-1.16,5.81,5.81,0,0,0,1-3.73v-.44a6.83,6.83,0,0,0-1-4.15,3.66,3.66,0,0,0-3.09-1.25,3.2,3.2,0,0,0-2.8,1.42,7.12,7.12,0,0,0-1,4,6.76,6.76,0,0,0,1,4A3.26,3.26,0,0,0,267.28,211.65Z" fill="#fff"/>
          <path d="M286.22,213.14l-.41-1.95h-.1a5.94,5.94,0,0,1-2,1.74,6.32,6.32,0,0,1-2.55.46,4.56,4.56,0,0,1-3.19-1,3.84,3.84,0,0,1-1.16-3q0-4.15,6.64-4.35l2.32-.08v-.85a3.49,3.49,0,0,0-.69-2.38,2.86,2.86,0,0,0-2.22-.77A9,9,0,0,0,279,202l-.64-1.58a9.83,9.83,0,0,1,4.64-1.18,5.2,5.2,0,0,1,3.63,1.09,4.57,4.57,0,0,1,1.18,3.49v9.35Zm-4.69-1.47a4.21,4.21,0,0,0,3.05-1.06,4,4,0,0,0,1.1-3V206.4l-2.07.09a7.52,7.52,0,0,0-3.57.76,2.32,2.32,0,0,0-1.09,2.12,2.15,2.15,0,0,0,.68,1.72A2.82,2.82,0,0,0,281.53,211.67Z" fill="#fff"/>
          <path d="M291.86,195.72a1.39,1.39,0,0,1,.35-1,1.21,1.21,0,0,1,.87-.33,1.22,1.22,0,0,1,.87.34,1.34,1.34,0,0,1,.36,1,1.39,1.39,0,0,1-.36,1.05,1.22,1.22,0,0,1-.87.34,1.18,1.18,0,0,1-.87-.34A1.43,1.43,0,0,1,291.86,195.72Zm2.25,17.42H292v-13.7h2.08Z" fill="#fff"/>
          <path d="M300.58,213.14h-2.07V193.69h2.07Z" fill="#fff"/>
          <path d="M302.81,199.44H305l3,7.81a29.87,29.87,0,0,1,1.23,3.86h.1c.11-.42.33-1.15.68-2.18s1.48-4.19,3.39-9.49h2.23L309.77,215a7.77,7.77,0,0,1-2,3.28,4.39,4.39,0,0,1-2.87,1,8.54,8.54,0,0,1-1.88-.22v-1.66a7.25,7.25,0,0,0,1.54.15,3.17,3.17,0,0,0,3.05-2.4l.76-1.95Z" fill="#fff"/>
        </g>
      </g>
    </g>
    <g>
      <path d="M89.15,381.24a3.78,3.78,0,0,1,3.4,1.78,8.13,8.13,0,0,1,1.15,4.5,9.36,9.36,0,0,1-1.33,4.92c-.89,1.48-1.92,2.22-3.08,2.22a1.92,1.92,0,0,1-1.81-1.38,13.2,13.2,0,0,1-.75-3.94c-.53.76-1.15,1.61-1.84,2.57-1.33,1.85-2.27,2.77-2.8,2.77-.21,0-.45-.17-.71-.5a1.93,1.93,0,0,1-.41-1.26c0-.5.18-2.08.52-4.74A50.68,50.68,0,0,0,82,382c0-.48.14-.71.42-.71a1.6,1.6,0,0,1,1,.5,1.32,1.32,0,0,1,.57.91c0,.27-.22,1.63-.65,4.06s-.69,4.34-.79,5.72a24.36,24.36,0,0,1,2.64-3.66q1.47-1.68,2.1-1.68c.43,0,.74,1,.9,2.88a9.66,9.66,0,0,0,.38,2q.27.9.75.9c.72,0,1.35-.58,1.88-1.73a9.18,9.18,0,0,0,.79-3.85,5.57,5.57,0,0,0-1-3.61,1.54,1.54,0,0,0-1.18-.68,1.49,1.49,0,0,1-1.1-.44,1.2,1.2,0,0,1-.45-.76C88.23,381.42,88.54,381.24,89.15,381.24Z" fill="#231f20"/>
      <path d="M102.86,388.41a1.92,1.92,0,0,1-1.1,1.67,4.87,4.87,0,0,1-2.5.64,9.78,9.78,0,0,1-2.52-.3,5,5,0,0,0-.27,1.5,1.27,1.27,0,0,0,.41,1,2,2,0,0,0,1.36.37,6.27,6.27,0,0,0,2-.34,10.78,10.78,0,0,1,1.11-.34c.33,0,.49.13.49.39s-.39.72-1.17,1.12a5,5,0,0,1-2.28.61,3.39,3.39,0,0,1-2.44-.9,2.94,2.94,0,0,1-.94-2.25,6.41,6.41,0,0,1,.73-2.85,8,8,0,0,1,1.88-2.51,3.49,3.49,0,0,1,2.29-1,2.7,2.7,0,0,1,2.06,1.08A3.25,3.25,0,0,1,102.86,388.41Zm-2.9-1.66a2.22,2.22,0,0,0-1.48.74,6.47,6.47,0,0,0-1.3,1.83,7.66,7.66,0,0,0,1.74.17,4.25,4.25,0,0,0,1.71-.31c.49-.21.73-.49.73-.84a1.59,1.59,0,0,0-.47-1A1.28,1.28,0,0,0,100,386.75Z" fill="#231f20"/>
      <path d="M119.2,388.41a1.92,1.92,0,0,1-1.1,1.67,4.87,4.87,0,0,1-2.5.64,9.92,9.92,0,0,1-2.53-.3,5.26,5.26,0,0,0-.26,1.5,1.27,1.27,0,0,0,.41,1,2,2,0,0,0,1.36.37,6.27,6.27,0,0,0,2-.34c.67-.22,1-.34,1.1-.34.34,0,.5.13.5.39s-.39.72-1.17,1.12a5,5,0,0,1-2.28.61,3.39,3.39,0,0,1-2.44-.9,2.94,2.94,0,0,1-.94-2.25,6.41,6.41,0,0,1,.73-2.85,7.81,7.81,0,0,1,1.88-2.51,3.48,3.48,0,0,1,2.28-1,2.71,2.71,0,0,1,2.07,1.08A3.25,3.25,0,0,1,119.2,388.41Zm-2.9-1.66a2.22,2.22,0,0,0-1.48.74,6.28,6.28,0,0,0-1.3,1.83,7.66,7.66,0,0,0,1.74.17,4.25,4.25,0,0,0,1.71-.31c.49-.21.73-.49.73-.84a1.64,1.64,0,0,0-.47-1A1.28,1.28,0,0,0,116.3,386.75Z" fill="#231f20"/>
      <path d="M125.06,386.76c.78-1,1.41-1.53,1.91-1.53a1.85,1.85,0,0,1,1.4.79,2.55,2.55,0,0,1,.66,1.67,11.6,11.6,0,0,1-.63,3.38c-.77,2.46-1.46,3.69-2.08,3.69-.28,0-.42-.2-.42-.58a6.91,6.91,0,0,1,.41-1.64c.28-.83.53-1.64.77-2.44a6.94,6.94,0,0,0,.36-1.81,1.61,1.61,0,0,0-.19-.89c-.12-.19-.24-.29-.36-.29a.73.73,0,0,0-.38.12,2.24,2.24,0,0,0-.43.38l-.45.53a8.92,8.92,0,0,0-.53.74c-.21.32-.38.59-.52.82s-.35.54-.62,1l-.61,1c-.14.21-.33.51-.56.88s-.41.66-.55.86-.28.43-.45.67c-.32.48-.57.72-.76.72s-.4-.15-.64-.44a1.27,1.27,0,0,1-.37-.76,2.91,2.91,0,0,1,.14-.51c.24-.75.51-1.66.81-2.76a15.93,15.93,0,0,0,.48-3.73c0-.94.17-1.4.4-1.4a1.17,1.17,0,0,1,.84.44,1.33,1.33,0,0,1,.43,1,12.47,12.47,0,0,1-.32,2,27.23,27.23,0,0,1-.74,2.81A53,53,0,0,1,125.06,386.76Z" fill="#231f20"/>
      <path d="M133.51,394.76a3.12,3.12,0,0,1-2.1-.88,2.69,2.69,0,0,1-1-2.07,6.25,6.25,0,0,1,.81-2.78,8.9,8.9,0,0,1,2.08-2.68,3.82,3.82,0,0,1,2.49-1.12,1.78,1.78,0,0,1,1.38.71,2.06,2.06,0,0,1,.59,1.25.39.39,0,0,1-.09.26.38.38,0,0,1-.28.11,1.44,1.44,0,0,1-.64-.35,1.48,1.48,0,0,0-.83-.35c-.69,0-1.5.61-2.42,1.83a5.59,5.59,0,0,0-1.38,3.19,1.26,1.26,0,0,0,.37.94,1.77,1.77,0,0,0,1.21.34,6,6,0,0,0,2.62-.6,1.38,1.38,0,0,1,.6-.2.32.32,0,0,1,.36.36c0,.37-.44.8-1.33,1.3A5.18,5.18,0,0,1,133.51,394.76Z" fill="#231f20"/>
      <path d="M139.71,388.67a7.3,7.3,0,0,1,1.75-2.47,3.37,3.37,0,0,1,2.23-1,2.36,2.36,0,0,1,1.91,1,3.72,3.72,0,0,1,.77,2.36,6.89,6.89,0,0,1-.67,2.85,6.7,6.7,0,0,1-1.86,2.4,3.93,3.93,0,0,1-2.5.95,1.92,1.92,0,0,1-1.63-.91,3.77,3.77,0,0,1-.66-2.29A7.15,7.15,0,0,1,139.71,388.67Zm5-.17a3.63,3.63,0,0,0-.21-1.24,1.66,1.66,0,0,0-.61-.86,4,4,0,0,0-2.28,2.05,6.49,6.49,0,0,0-1,3.16c0,1,.25,1.6.73,1.84a3.6,3.6,0,0,0,2.35-1.89A6,6,0,0,0,144.75,388.5Z" fill="#231f20"/>
      <path d="M154.6,385.35c.05-.08.17-.12.34-.12s.38.17.63.5a1.61,1.61,0,0,1,.38,1,27.31,27.31,0,0,1-.85,3c-.56,1.8-1,3.24-1.3,4.3-.16.54-.37.81-.66.81a.52.52,0,0,1-.42-.22,1.27,1.27,0,0,1-.17-.76,8.68,8.68,0,0,1,.44-2,9.67,9.67,0,0,1-1.75,2.15,2.72,2.72,0,0,1-1.71.85,2,2,0,0,1-1.47-.73,2.2,2.2,0,0,1-.69-1.5,13.07,13.07,0,0,1,1.06-4.56c.71-1.83,1.3-2.74,1.78-2.74a.76.76,0,0,1,.6.32,1.12,1.12,0,0,1,.26.72,5.69,5.69,0,0,1-.52,1.24,26.3,26.3,0,0,0-1,2.49,7.44,7.44,0,0,0-.52,2.51.72.72,0,0,0,.19.51.63.63,0,0,0,.46.2q.73,0,1.74-1.29a16.17,16.17,0,0,0,1.83-3,19.29,19.29,0,0,0,1.23-3.17A1.46,1.46,0,0,1,154.6,385.35Z" fill="#231f20"/>
      <path d="M158,387.57l-.06-1.44q0-.9.42-.9a.93.93,0,0,1,.71.47,1.92,1.92,0,0,1,.33,1.12,7.93,7.93,0,0,1,0,1c1.12-1.69,2.17-2.54,3.17-2.54.63,0,.94.16.94.46a.54.54,0,0,1-.21.42,3.46,3.46,0,0,1-.67.45,4.25,4.25,0,0,0-1.72,1.35,8.07,8.07,0,0,0-1.14,2.06c-.3.77-.53,1.42-.7,1.94s-.31.94-.4,1.23-.19.58-.3.87c-.21.51-.45.76-.71.76a.59.59,0,0,1-.53-.37,1.46,1.46,0,0,1-.2-.73,6.34,6.34,0,0,1,.32-1.41A15,15,0,0,0,158,387.57Z" fill="#231f20"/>
      <path d="M169.94,386.11a2.54,2.54,0,0,1,.73,1.57,2.6,2.6,0,0,1-.48,1.43.82.82,0,0,1,.23.5,11.84,11.84,0,0,1-.24,1.84c-.16.87-.25,1.44-.28,1.71s-.07.49-.09.65-.06.31-.1.47c-.05.32-.16.48-.34.48s-.42-.21-.57-.61a5.26,5.26,0,0,1-.26-1.56c-1.14,1.44-2.19,2.17-3.17,2.17a2.65,2.65,0,0,1-1.73-.76,2.15,2.15,0,0,1-.86-1.57,6.63,6.63,0,0,1,.85-2.85,11.07,11.07,0,0,1,2.19-3,3.75,3.75,0,0,1,2.53-1.33A2,2,0,0,1,169.94,386.11Zm-.71,2.5c0-1.19-.23-1.78-.71-1.78a2.66,2.66,0,0,0-1.74,1.06,10.54,10.54,0,0,0-1.69,2.41,5.13,5.13,0,0,0-.69,2.13.61.61,0,0,0,.26.53,1.06,1.06,0,0,0,.64.2,3,3,0,0,0,2-1.22,6.68,6.68,0,0,0,1.58-3,.39.39,0,0,1,.32-.35Z" fill="#231f20"/>
      <path d="M179.85,389.57a3.19,3.19,0,0,1-.67,1.75,23.16,23.16,0,0,0-1.11,3.37,27.3,27.3,0,0,1-1,3.14,2.67,2.67,0,0,1-2.48,2,3.57,3.57,0,0,1-2.29-.74,2,2,0,0,1-.94-1.47,1.24,1.24,0,0,1,.19-.62c.12-.2.25-.3.38-.3a.63.63,0,0,1,.45.28,4.91,4.91,0,0,1,.47.63,2.25,2.25,0,0,0,.67.62,1.7,1.7,0,0,0,.88.29,1.3,1.3,0,0,0,.63-.12,1.45,1.45,0,0,0,.41-.41,5.21,5.21,0,0,0,.32-.55,6.78,6.78,0,0,0,.3-.79c.11-.34.19-.63.26-.88s.15-.58.27-1,.21-.8.29-1.07a4.62,4.62,0,0,1-2.44,1.12,2.19,2.19,0,0,1-1.64-.76,2.56,2.56,0,0,1-.69-1.77,7.12,7.12,0,0,1,.76-2.68,10.54,10.54,0,0,1,2-3,3.58,3.58,0,0,1,2.51-1.33,1.71,1.71,0,0,1,1.33.6,4,4,0,0,1,.88,2.78,2.27,2.27,0,0,1,0,.33A1.14,1.14,0,0,1,179.85,389.57Zm-6.18,2.86a.69.69,0,0,0,.21.53.77.77,0,0,0,.54.2,3.73,3.73,0,0,0,2.26-1.14,6.34,6.34,0,0,0,1.85-2.66,4.73,4.73,0,0,1-.14-.77c0-.34-.07-.62-.11-.82a1.84,1.84,0,0,0-.25-.63.57.57,0,0,0-.5-.31,2.5,2.5,0,0,0-1.69,1.07,10.1,10.1,0,0,0-1.56,2.4A5.38,5.38,0,0,0,173.67,392.43Z" fill="#231f20"/>
      <path d="M189,388.41a1.91,1.91,0,0,1-1.11,1.67,4.81,4.81,0,0,1-2.49.64,9.92,9.92,0,0,1-2.53-.3,5,5,0,0,0-.27,1.5,1.28,1.28,0,0,0,.42,1,2,2,0,0,0,1.36.37,6.32,6.32,0,0,0,2-.34c.67-.22,1-.34,1.1-.34.34,0,.5.13.5.39s-.39.72-1.17,1.12a5,5,0,0,1-2.28.61,3.39,3.39,0,0,1-2.44-.9,2.94,2.94,0,0,1-.94-2.25,6.41,6.41,0,0,1,.73-2.85,7.81,7.81,0,0,1,1.88-2.51,3.48,3.48,0,0,1,2.28-1,2.71,2.71,0,0,1,2.07,1.08A3.25,3.25,0,0,1,189,388.41Zm-2.9-1.66a2.22,2.22,0,0,0-1.48.74,6.28,6.28,0,0,0-1.3,1.83,7.66,7.66,0,0,0,1.74.17,4.28,4.28,0,0,0,1.71-.31c.49-.21.73-.49.73-.84a1.64,1.64,0,0,0-.47-1A1.28,1.28,0,0,0,186.13,386.75Z" fill="#231f20"/>
      <path d="M76.81,400.66c.2,0,.46.19.76.56a1.78,1.78,0,0,1,.45,1.07,22.3,22.3,0,0,1-.48,2.83c-.32,1.56-.69,3.17-1.12,4.83q-1.38,5.61-1.82,5.61a1.21,1.21,0,0,1-.9-.93,6.73,6.73,0,0,1,.13-1c-1.25,1.28-2.35,1.92-3.28,1.92a2,2,0,0,1-1.53-.77,2.42,2.42,0,0,1-.68-1.6,8,8,0,0,1,.64-2.83,9.68,9.68,0,0,1,1.86-3A3.45,3.45,0,0,1,73.41,406c.91,0,1.54.55,1.9,1.63a36.19,36.19,0,0,0,1.08-6.43Q76.39,400.66,76.81,400.66Zm-2.11,9.42a3.8,3.8,0,0,0-.36-1.74c-.24-.48-.52-.71-.85-.71a2.32,2.32,0,0,0-1.69,1A8,8,0,0,0,70.42,411a6.37,6.37,0,0,0-.5,2.27.71.71,0,0,0,.24.56.91.91,0,0,0,.6.21,3.7,3.7,0,0,0,2-1.08,6.34,6.34,0,0,0,1.85-2.53l.06-.23Z" fill="#231f20"/>
      <path d="M84.87,406.91a2.54,2.54,0,0,1,.73,1.57,2.6,2.6,0,0,1-.48,1.43.88.88,0,0,1,.23.5,11.84,11.84,0,0,1-.24,1.84c-.16.87-.25,1.44-.29,1.71s-.06.48-.08.64-.06.32-.1.48c0,.32-.17.48-.34.48s-.42-.21-.57-.61a5.26,5.26,0,0,1-.26-1.56c-1.14,1.44-2.2,2.17-3.17,2.17a2.65,2.65,0,0,1-1.74-.76,2.14,2.14,0,0,1-.85-1.57,6.73,6.73,0,0,1,.84-2.85,11.51,11.51,0,0,1,2.19-3A3.77,3.77,0,0,1,83.28,406,2.06,2.06,0,0,1,84.87,406.91Zm-.71,2.5c0-1.19-.24-1.78-.71-1.78a2.7,2.7,0,0,0-1.75,1.06A11.2,11.2,0,0,0,80,411.1a5.13,5.13,0,0,0-.69,2.13.62.62,0,0,0,.27.53,1.06,1.06,0,0,0,.64.2,3,3,0,0,0,2-1.22,6.57,6.57,0,0,0,1.57-3,.4.4,0,0,1,.33-.35Z" fill="#231f20"/>
      <path d="M89.54,406a.91.91,0,0,1,.69.44,1.48,1.48,0,0,1,.33.87,16.63,16.63,0,0,1-.56,2.52c-.37,1.4-.84,3-1.4,4.72-.22.64-.5,1-.83,1a.61.61,0,0,1-.46-.22.75.75,0,0,1-.19-.5,4.77,4.77,0,0,1,.14-.89c.1-.4.24-.94.42-1.61s.34-1.22.45-1.64.22-.9.33-1.43.21-1,.28-1.29.15-.65.24-1C89.16,406.35,89.35,406,89.54,406Zm.09-2.72a1.11,1.11,0,0,1,.31-.73.87.87,0,0,1,.62-.35c.22,0,.47.26.76.78a2.73,2.73,0,0,1,.44,1.29.44.44,0,0,1-.17.35.54.54,0,0,1-.36.15,1.57,1.57,0,0,1-1-.55A1.52,1.52,0,0,1,89.63,403.31Z" fill="#231f20"/>
      <path d="M95.53,402.27a39,39,0,0,1-1.5,9.37c-.64,2.61-1.09,3.92-1.34,3.92s-.39-.15-.63-.43a1.18,1.18,0,0,1-.35-.65,22.94,22.94,0,0,1,.55-2.38c.37-1.43.75-3.2,1.12-5.29a32.74,32.74,0,0,0,.55-5.65.76.76,0,0,1,.08-.39c0-.08.16-.11.33-.11s.4.18.72.54A1.69,1.69,0,0,1,95.53,402.27Z" fill="#231f20"/>
      <path d="M104,406q.3,0,.66.45a1.57,1.57,0,0,1,.35,1,14.46,14.46,0,0,1-.78,2.61c-.53,1.49-.88,2.5-1.07,3s-.43,1.23-.75,2.11-.62,1.73-.91,2.56c-.64,1.83-1.6,2.75-2.88,2.75a3.65,3.65,0,0,1-2.09-.67c-.67-.44-1-.89-1-1.37a1,1,0,0,1,.24-.59c.16-.22.3-.33.41-.33s.3.14.56.42c.74.85,1.37,1.27,1.9,1.27s.75-.35,1.07-1a22,22,0,0,0,.92-2.36c.29-.87.44-1.36.48-1.45s.07-.2.11-.34l.13-.39c-.91,1.24-1.81,1.87-2.69,1.87a2,2,0,0,1-1.49-.75,2.56,2.56,0,0,1-.68-1.77,10.73,10.73,0,0,1,.5-2.75,15.28,15.28,0,0,1,1.17-3c.45-.85.81-1.27,1.09-1.27a.9.9,0,0,1,.65.32.91.91,0,0,1,.29.64,4.37,4.37,0,0,1-.49,1.37,12.41,12.41,0,0,0-1.56,4.95.72.72,0,0,0,.19.51.63.63,0,0,0,.46.2q.69,0,1.65-1.23a15.8,15.8,0,0,0,1.77-2.92,30.74,30.74,0,0,0,1.4-3.63Q103.65,406,104,406Z" fill="#231f20"/>
      <path d="M119.85,406.91a2.54,2.54,0,0,1,.73,1.57,2.6,2.6,0,0,1-.48,1.43.82.82,0,0,1,.23.5,11.84,11.84,0,0,1-.24,1.84c-.16.87-.25,1.44-.28,1.71s-.07.48-.09.64-.06.32-.1.48c-.05.32-.16.48-.34.48s-.42-.21-.57-.61a5.26,5.26,0,0,1-.26-1.56c-1.14,1.44-2.19,2.17-3.17,2.17a2.65,2.65,0,0,1-1.73-.76,2.15,2.15,0,0,1-.86-1.57,6.63,6.63,0,0,1,.85-2.85,11.07,11.07,0,0,1,2.19-3,3.75,3.75,0,0,1,2.53-1.33A2,2,0,0,1,119.85,406.91Zm-.71,2.5c0-1.19-.23-1.78-.71-1.78a2.66,2.66,0,0,0-1.74,1.06A10.54,10.54,0,0,0,115,411.1a5.18,5.18,0,0,0-.7,2.13.62.62,0,0,0,.27.53,1.06,1.06,0,0,0,.64.2,3,3,0,0,0,2-1.22,6.68,6.68,0,0,0,1.58-3,.38.38,0,0,1,.32-.35Z" fill="#231f20"/>
      <path d="M125.26,415.56a3.12,3.12,0,0,1-2.1-.88,2.66,2.66,0,0,1-1-2.07,6.36,6.36,0,0,1,.8-2.78,8.93,8.93,0,0,1,2.09-2.68,3.81,3.81,0,0,1,2.48-1.12,1.79,1.79,0,0,1,1.39.71,2.12,2.12,0,0,1,.59,1.25.35.35,0,0,1-.1.26.34.34,0,0,1-.27.11,1.46,1.46,0,0,1-.65-.35,1.42,1.42,0,0,0-.82-.35c-.69,0-1.5.61-2.42,1.83a5.59,5.59,0,0,0-1.38,3.19,1.22,1.22,0,0,0,.37.94,1.75,1.75,0,0,0,1.21.34,5.74,5.74,0,0,0,1.54-.2,6.28,6.28,0,0,0,1.08-.4,1.34,1.34,0,0,1,.6-.2.32.32,0,0,1,.36.36c0,.37-.44.8-1.33,1.3A5.18,5.18,0,0,1,125.26,415.56Z" fill="#231f20"/>
      <path d="M132.85,413.64q0,.36.42.36a5.13,5.13,0,0,0,1.78-.41,8.59,8.59,0,0,1,1.16-.42.32.32,0,0,1,.35.37q0,.56-1.14,1.29a4.05,4.05,0,0,1-2.08.73,2.33,2.33,0,0,1-1.54-.51,1.42,1.42,0,0,1-.62-1.05,5.47,5.47,0,0,1,.23-1.37c.16-.56.38-1.3.66-2.21s.52-1.67.69-2.28a6.34,6.34,0,0,1-1.21.22.86.86,0,0,1-.61-.32.9.9,0,0,1-.3-.61c0-.3.84-.6,2.5-.88a13.52,13.52,0,0,0,.35-2.82c0-.39.12-.58.38-.58a1.4,1.4,0,0,1,.81.41,1.23,1.23,0,0,1,.48.94,8.9,8.9,0,0,1-.33,1.82c.73-.06,1.31-.1,1.75-.1.76,0,1.15.17,1.15.5s-.21.36-.63.48-1.29.33-2.62.6c-.26,1-.6,2.16-1,3.46A12.68,12.68,0,0,0,132.85,413.64Z" fill="#231f20"/>
      <path d="M140.49,406a.88.88,0,0,1,.69.44,1.48,1.48,0,0,1,.33.87,15.36,15.36,0,0,1-.56,2.52c-.37,1.4-.83,3-1.4,4.72-.22.64-.49,1-.82,1a.6.6,0,0,1-.46-.22.76.76,0,0,1-.2-.5,4.22,4.22,0,0,1,.15-.89c.09-.4.24-.94.42-1.61s.33-1.22.44-1.64.22-.9.34-1.43.21-1,.28-1.29.15-.65.24-1C140.12,406.35,140.3,406,140.49,406Zm.1-2.72a1.06,1.06,0,0,1,.31-.73.85.85,0,0,1,.62-.35c.21,0,.46.26.76.78a2.84,2.84,0,0,1,.44,1.29.47.47,0,0,1-.17.35.57.57,0,0,1-.37.15,1.55,1.55,0,0,1-1-.55A1.52,1.52,0,0,1,140.59,403.31Z" fill="#231f20"/>
      <path d="M149.33,406a1,1,0,0,1,.63.24.7.7,0,0,1,.31.53,17.17,17.17,0,0,1-1.4,3.59q-1.38,3.08-2,4.14c-.39.71-.74,1.06-1,1.06a1,1,0,0,1-.62-.36,2.34,2.34,0,0,1-.53-.79,23.34,23.34,0,0,1-1.12-3.9,20.92,20.92,0,0,1-.59-3.93c0-.39.11-.58.34-.58a1.39,1.39,0,0,1,.87.36,1.79,1.79,0,0,1,.61.89c0,.2.09.72.16,1.54a17,17,0,0,0,.92,4.66c.34-.74.78-1.79,1.32-3.16s1-2.42,1.32-3.16S149.15,406,149.33,406Z" fill="#231f20"/>
      <path d="M153.17,406a.91.91,0,0,1,.69.44,1.53,1.53,0,0,1,.32.87,16,16,0,0,1-.55,2.52c-.38,1.4-.84,3-1.41,4.72-.21.64-.49,1-.82,1a.61.61,0,0,1-.46-.22.75.75,0,0,1-.19-.5,4,4,0,0,1,.14-.89c.1-.4.24-.94.42-1.61s.34-1.22.44-1.64.23-.9.34-1.43.21-1,.28-1.29.15-.65.24-1C152.79,406.35,153,406,153.17,406Zm.09-2.72a1.06,1.06,0,0,1,.31-.73.85.85,0,0,1,.62-.35c.21,0,.47.26.76.78a2.73,2.73,0,0,1,.44,1.29.47.47,0,0,1-.17.35.57.57,0,0,1-.37.15,1.57,1.57,0,0,1-1-.55A1.52,1.52,0,0,1,153.26,403.31Z" fill="#231f20"/>
      <path d="M157.52,413.64c0,.24.14.36.43.36a5.13,5.13,0,0,0,1.77-.41,8.59,8.59,0,0,1,1.16-.42.32.32,0,0,1,.35.37q0,.56-1.14,1.29a4.05,4.05,0,0,1-2.08.73,2.33,2.33,0,0,1-1.54-.51,1.42,1.42,0,0,1-.62-1.05,5.47,5.47,0,0,1,.23-1.37c.16-.56.38-1.3.67-2.21s.51-1.67.68-2.28a6.21,6.21,0,0,1-1.21.22.86.86,0,0,1-.61-.32.89.89,0,0,1-.29-.61c0-.3.83-.6,2.49-.88a13.52,13.52,0,0,0,.35-2.82c0-.39.12-.58.38-.58a1.4,1.4,0,0,1,.81.41,1.23,1.23,0,0,1,.48.94,8.9,8.9,0,0,1-.33,1.82c.73-.06,1.31-.1,1.75-.1.77,0,1.15.17,1.15.5s-.21.36-.62.48-1.29.33-2.62.6c-.27,1-.61,2.16-1,3.46A12.68,12.68,0,0,0,157.52,413.64Z" fill="#231f20"/>
      <path d="M170.31,406q.31,0,.66.45a1.58,1.58,0,0,1,.36,1,14,14,0,0,1-.79,2.61c-.52,1.49-.88,2.5-1.06,3l-.75,2.11c-.32.88-.62,1.73-.92,2.56-.64,1.83-1.6,2.75-2.88,2.75a3.67,3.67,0,0,1-2.09-.67c-.66-.44-1-.89-1-1.37a1,1,0,0,1,.24-.59q.24-.33.42-.33c.11,0,.3.14.55.42.74.85,1.38,1.27,1.9,1.27s.76-.35,1.08-1a22.1,22.1,0,0,0,.91-2.36l.48-1.45.12-.34.12-.39c-.91,1.24-1.8,1.87-2.69,1.87a2,2,0,0,1-1.49-.75,2.56,2.56,0,0,1-.68-1.77,10.73,10.73,0,0,1,.5-2.75,16.66,16.66,0,0,1,1.17-3c.45-.85.82-1.27,1.1-1.27a.88.88,0,0,1,.64.32.93.93,0,0,1,.3.64,4.5,4.5,0,0,1-.5,1.37,12.41,12.41,0,0,0-1.56,4.95.73.73,0,0,0,.2.51.61.61,0,0,0,.46.2q.69,0,1.65-1.23a15.26,15.26,0,0,0,1.76-2.92,32.41,32.41,0,0,0,1.41-3.63C170,406.1,170.11,406,170.31,406Z" fill="#231f20"/>
      <path d="M180.89,415.59a.76.76,0,0,1-.54-.36,1.08,1.08,0,0,1-.29-.6,4.28,4.28,0,0,1,.2-.9c.64-2.3,1.07-4,1.3-4.93a6.86,6.86,0,0,1-1.13.19,1,1,0,0,1-.62-.27.8.8,0,0,1-.3-.6c0-.21.28-.4.86-.57.74-.18,1.25-.3,1.54-.35.12-.61.22-1.08.28-1.42a10.5,10.5,0,0,1,1.25-3.82,2.46,2.46,0,0,1,2.13-1.17,1.94,1.94,0,0,1,1.58.76,2.73,2.73,0,0,1,.61,1.78c0,.69-.18,1-.53,1s-.56-.34-.75-1a2.41,2.41,0,0,0-.33-.71.68.68,0,0,0-.56-.32.79.79,0,0,0-.59.3,2.57,2.57,0,0,0-.48.85,16.48,16.48,0,0,0-.77,2.84l-.15.67a11.12,11.12,0,0,1,1.41-.09,2.6,2.6,0,0,1,1,.15c.21.1.31.23.31.39s-.21.42-.63.55a22,22,0,0,1-2.48.5,55.43,55.43,0,0,1-1.86,6.59C181.19,415.41,181,415.59,180.89,415.59Z" fill="#231f20"/>
      <path d="M187.48,409.47a7.3,7.3,0,0,1,1.75-2.47,3.37,3.37,0,0,1,2.23-1,2.36,2.36,0,0,1,1.91,1,3.72,3.72,0,0,1,.77,2.36,6.89,6.89,0,0,1-.67,2.85,6.58,6.58,0,0,1-1.86,2.39,3.89,3.89,0,0,1-2.5,1,1.94,1.94,0,0,1-1.63-.91,3.77,3.77,0,0,1-.66-2.29A7.15,7.15,0,0,1,187.48,409.47Zm5-.17a3.63,3.63,0,0,0-.21-1.24,1.66,1.66,0,0,0-.61-.86,4,4,0,0,0-2.28,2.05,6.49,6.49,0,0,0-.95,3.16c0,1,.25,1.6.73,1.84a3.6,3.6,0,0,0,2.35-1.89A6,6,0,0,0,192.52,409.3Z" fill="#231f20"/>
      <path d="M196.58,408.37l-.06-1.44q0-.9.42-.9a.92.92,0,0,1,.7.47,1.93,1.93,0,0,1,.34,1.12c0,.42,0,.75,0,1,1.11-1.69,2.17-2.54,3.17-2.54.62,0,.94.16.94.46a.54.54,0,0,1-.21.42,3.59,3.59,0,0,1-.68.45,4.22,4.22,0,0,0-1.71,1.35,8.41,8.41,0,0,0-1.15,2.06c-.29.77-.52,1.42-.7,1.94l-.39,1.23a9,9,0,0,1-.31.87c-.2.51-.44.76-.71.76a.6.6,0,0,1-.53-.37,1.58,1.58,0,0,1-.2-.73,6,6,0,0,1,.33-1.41A15.3,15.3,0,0,0,196.58,408.37Z" fill="#231f20"/>
      <path d="M84.59,431.17a3.19,3.19,0,0,1-.67,1.75,25.91,25.91,0,0,0-1.11,3.37,27.3,27.3,0,0,1-1,3.14,2.66,2.66,0,0,1-2.48,2,3.57,3.57,0,0,1-2.29-.74,2,2,0,0,1-.93-1.47,1.23,1.23,0,0,1,.18-.62c.12-.2.25-.3.38-.3a.67.67,0,0,1,.46.28c.16.2.32.4.47.63a2.14,2.14,0,0,0,.67.62,1.64,1.64,0,0,0,.87.29,1.37,1.37,0,0,0,.64-.12,1.43,1.43,0,0,0,.4-.41,3.13,3.13,0,0,0,.32-.55,6.78,6.78,0,0,0,.3-.79c.11-.34.2-.63.26-.88s.16-.58.27-1,.21-.8.29-1.07a4.59,4.59,0,0,1-2.44,1.12,2.15,2.15,0,0,1-1.63-.76,2.56,2.56,0,0,1-.69-1.77,6.94,6.94,0,0,1,.76-2.68,10.31,10.31,0,0,1,2-3,3.62,3.62,0,0,1,2.52-1.33,1.71,1.71,0,0,1,1.32.6,4,4,0,0,1,.88,2.78,1.38,1.38,0,0,1,0,.33A1.07,1.07,0,0,1,84.59,431.17ZM78.41,434a.69.69,0,0,0,.21.53.77.77,0,0,0,.54.2,3.75,3.75,0,0,0,2.27-1.14A6.31,6.31,0,0,0,83.27,431a4,4,0,0,1-.13-.77c0-.34-.08-.62-.12-.82a1.84,1.84,0,0,0-.25-.63.56.56,0,0,0-.5-.31,2.5,2.5,0,0,0-1.69,1.07A10.07,10.07,0,0,0,79,431.9,5.43,5.43,0,0,0,78.41,434Z" fill="#231f20"/>
      <path d="M87.26,429.17l-.05-1.44q0-.9.42-.9a.93.93,0,0,1,.7.47,1.92,1.92,0,0,1,.33,1.12c0,.43,0,.75,0,1,1.11-1.69,2.17-2.54,3.16-2.54.63,0,.94.16.94.46a.54.54,0,0,1-.21.42,3.46,3.46,0,0,1-.67.45,4.25,4.25,0,0,0-1.72,1.35A8.73,8.73,0,0,0,89,431.59c-.29.77-.53,1.42-.7,1.94l-.39,1.23c-.09.3-.2.58-.31.87-.21.51-.44.76-.71.76a.6.6,0,0,1-.53-.37,1.58,1.58,0,0,1-.2-.73,6,6,0,0,1,.33-1.41A15.28,15.28,0,0,0,87.26,429.17Z" fill="#231f20"/>
      <path d="M93.22,430.27A7.3,7.3,0,0,1,95,427.8a3.37,3.37,0,0,1,2.23-1,2.36,2.36,0,0,1,1.91,1,3.72,3.72,0,0,1,.77,2.36,6.89,6.89,0,0,1-.67,2.85,6.7,6.7,0,0,1-1.86,2.4,4,4,0,0,1-2.5.95,2,2,0,0,1-1.64-.91,3.83,3.83,0,0,1-.65-2.29A7.15,7.15,0,0,1,93.22,430.27Zm5-.17a3.63,3.63,0,0,0-.21-1.24,1.66,1.66,0,0,0-.61-.86,4,4,0,0,0-2.28,2.05,6.49,6.49,0,0,0-1,3.16c0,1,.25,1.6.73,1.84a3.6,3.6,0,0,0,2.35-1.89A6,6,0,0,0,98.26,430.1Z" fill="#231f20"/>
      <path d="M108.88,428.87l-.13,3.61a12.41,12.41,0,0,0,.13,2.17,8.68,8.68,0,0,0,1.43-2,11.74,11.74,0,0,0,.9-2.16c.2-.66.38-1.29.52-1.87a13.78,13.78,0,0,1,.42-1.39c.12-.35.27-.52.44-.52a.88.88,0,0,1,.65.3.94.94,0,0,1,.29.68,10.35,10.35,0,0,1-.89,3.22,15.85,15.85,0,0,1-2,3.8q-1.22,1.71-1.89,1.71a1.08,1.08,0,0,1-1-.74,8.43,8.43,0,0,1-.38-2.88c0-1.41,0-2.64.06-3.67a41.36,41.36,0,0,1-2.34,5.45c-.68,1.23-1.22,1.84-1.62,1.84a.89.89,0,0,1-.56-.25,1.59,1.59,0,0,1-.47-.65,16.31,16.31,0,0,1-.72-3.89c-.2-1.91-.3-3.28-.3-4.1q0-.78.48-.78a1,1,0,0,1,.78.48,2.07,2.07,0,0,1,.41.95c0,.31.07,1.18.11,2.61a24.53,24.53,0,0,0,.35,3.81,25.5,25.5,0,0,0,1.59-3.42c.53-1.37,1-2.44,1.3-3.22s.65-1.17.93-1.17a1.25,1.25,0,0,1,1,.58A2.64,2.64,0,0,1,108.88,428.87Z" fill="#231f20"/>
      <path d="M116.45,426.83a.91.91,0,0,1,.69.44,1.53,1.53,0,0,1,.32.87,16,16,0,0,1-.55,2.52c-.37,1.4-.84,3-1.4,4.72-.22.64-.5,1-.83,1a.61.61,0,0,1-.46-.22.75.75,0,0,1-.19-.5,4,4,0,0,1,.14-.89c.1-.4.24-.94.42-1.61s.34-1.22.44-1.64.23-.9.34-1.43.21-1,.28-1.29.15-.65.24-1C116.07,427.15,116.25,426.83,116.45,426.83Zm.09-2.72a1.06,1.06,0,0,1,.31-.73.85.85,0,0,1,.62-.35c.21,0,.47.26.76.78a2.73,2.73,0,0,1,.44,1.29.44.44,0,0,1-.17.35.54.54,0,0,1-.36.15,1.57,1.57,0,0,1-1-.55A1.52,1.52,0,0,1,116.54,424.11Z" fill="#231f20"/>
      <path d="M123.54,428.36c.77-1,1.41-1.53,1.9-1.53a1.85,1.85,0,0,1,1.4.79,2.55,2.55,0,0,1,.66,1.67,11.6,11.6,0,0,1-.63,3.38q-1.16,3.69-2.07,3.69c-.28,0-.42-.2-.42-.58a6.43,6.43,0,0,1,.41-1.64c.27-.83.53-1.64.77-2.44a7.27,7.27,0,0,0,.35-1.81,1.72,1.72,0,0,0-.18-.89c-.12-.19-.24-.29-.37-.29a.7.7,0,0,0-.37.12,2,2,0,0,0-.43.38l-.45.53a8.92,8.92,0,0,0-.53.74c-.21.32-.39.59-.53.82l-.61,1-.62,1c-.14.21-.32.51-.55.88l-.55.86-.45.68c-.32.47-.58.71-.76.71s-.4-.15-.64-.44a1.22,1.22,0,0,1-.37-.75,2.38,2.38,0,0,1,.13-.52c.25-.75.52-1.66.81-2.76a14.94,14.94,0,0,0,.48-3.73c0-.94.17-1.4.4-1.4a1.17,1.17,0,0,1,.85.44,1.36,1.36,0,0,1,.42,1,11.41,11.41,0,0,1-.32,2,27.28,27.28,0,0,1-.73,2.81A50.75,50.75,0,0,1,123.54,428.36Z" fill="#231f20"/>
      <path d="M136.49,431.17a3.19,3.19,0,0,1-.67,1.75,24.24,24.24,0,0,0-1.12,3.37,25.82,25.82,0,0,1-1,3.14,2.67,2.67,0,0,1-2.48,2,3.57,3.57,0,0,1-2.29-.74,2,2,0,0,1-.94-1.47,1.15,1.15,0,0,1,.19-.62c.12-.2.25-.3.38-.3a.67.67,0,0,1,.45.28,6.07,6.07,0,0,1,.47.63,2.25,2.25,0,0,0,.67.62,1.67,1.67,0,0,0,.88.29,1,1,0,0,0,1-.53,4,4,0,0,0,.33-.55,6.78,6.78,0,0,0,.3-.79c.11-.34.19-.63.26-.88s.15-.58.27-1,.21-.8.28-1.07a4.57,4.57,0,0,1-2.43,1.12,2.17,2.17,0,0,1-1.64-.76,2.56,2.56,0,0,1-.69-1.77,7.12,7.12,0,0,1,.76-2.68,10.54,10.54,0,0,1,2.05-3,3.58,3.58,0,0,1,2.51-1.33,1.71,1.71,0,0,1,1.33.6,4,4,0,0,1,.88,2.78,2.27,2.27,0,0,1,0,.33A1.14,1.14,0,0,1,136.49,431.17ZM130.31,434a.69.69,0,0,0,.21.53.77.77,0,0,0,.54.2,3.73,3.73,0,0,0,2.26-1.14,6.34,6.34,0,0,0,1.85-2.66,3.84,3.84,0,0,1-.14-.77c0-.34-.08-.62-.11-.82a2.07,2.07,0,0,0-.25-.63.57.57,0,0,0-.5-.31,2.48,2.48,0,0,0-1.69,1.07,10.1,10.1,0,0,0-1.56,2.4A5.38,5.38,0,0,0,130.31,434Z" fill="#231f20"/>
      <path d="M158.13,426.83c.38,0,.72.27,1,.8a3.59,3.59,0,0,1,.45,1.8,12.48,12.48,0,0,1-.36,2.62,15.33,15.33,0,0,1-.95,3q-.6,1.35-1.17,1.35c-.27,0-.4-.18-.4-.53a12.39,12.39,0,0,1,.66-2.59,11.51,11.51,0,0,0,.66-3.29c0-.81-.13-1.22-.38-1.22s-.69.28-1.11.85-.86,1.24-1.33,2l-.77,1.28a2.21,2.21,0,0,0-.14.24l-.2.33c-.07.11-.24.46-.53,1a13.11,13.11,0,0,1-.76,1.36c-.22.32-.41.49-.57.49a.83.83,0,0,1-.53-.31.89.89,0,0,1-.28-.58,3.84,3.84,0,0,1,.34-1.11,12.46,12.46,0,0,0,1-4.65,1.32,1.32,0,0,0-.17-.68.51.51,0,0,0-.39-.28.7.7,0,0,0-.44.19,3.38,3.38,0,0,0-.57.65c-.23.31-.44.61-.62.89s-.45.72-.81,1.32-.64,1-.83,1.32l-.64,1-.57.87c-.13.21-.28.43-.45.68-.35.47-.6.71-.76.71s-.37-.15-.62-.44a1.19,1.19,0,0,1-.39-.65,2.59,2.59,0,0,1,.08-.55c0-.21.11-.43.16-.63l.27-.91.42-1.42a11.89,11.89,0,0,0,.37-2.25c.08-.95.14-1.65.18-2.09s.15-.66.33-.66a1.13,1.13,0,0,1,.83.44,1.29,1.29,0,0,1,.42.88,21.12,21.12,0,0,1-1.27,5.57,53.81,53.81,0,0,1,2.71-4.78c.37-.5.69-.9,1-1.21a2.08,2.08,0,0,1,1.51-.83c.31,0,.68.27,1.11.8a2.52,2.52,0,0,1,.64,1.6,11.13,11.13,0,0,1-.23,2Q156.29,426.84,158.13,426.83Z" fill="#231f20"/>
      <path d="M163.35,426.83a.91.91,0,0,1,.69.44,1.48,1.48,0,0,1,.33.87,16.63,16.63,0,0,1-.56,2.52c-.37,1.4-.84,3-1.4,4.72-.22.64-.49,1-.83,1a.61.61,0,0,1-.46-.22.8.8,0,0,1-.19-.5,4.22,4.22,0,0,1,.15-.89c.09-.4.23-.94.42-1.61l.44-1.64c.11-.42.22-.9.34-1.43l.27-1.29q.1-.48.24-1C163,427.15,163.16,426.83,163.35,426.83Zm.1-2.72a1.09,1.09,0,0,1,.3-.73.89.89,0,0,1,.63-.35c.21,0,.46.26.76.78a2.84,2.84,0,0,1,.44,1.29.45.45,0,0,1-.18.35.53.53,0,0,1-.36.15,1.57,1.57,0,0,1-1-.55A1.55,1.55,0,0,1,163.45,424.11Z" fill="#231f20"/>
      <path d="M170.44,428.36c.78-1,1.41-1.53,1.91-1.53a1.85,1.85,0,0,1,1.4.79,2.55,2.55,0,0,1,.66,1.67,11.6,11.6,0,0,1-.63,3.38c-.77,2.46-1.46,3.69-2.08,3.69-.28,0-.42-.2-.42-.58a6.91,6.91,0,0,1,.41-1.64c.28-.83.53-1.64.77-2.44a6.94,6.94,0,0,0,.36-1.81,1.71,1.71,0,0,0-.19-.89c-.12-.19-.24-.29-.36-.29a.73.73,0,0,0-.38.12,2.24,2.24,0,0,0-.43.38l-.45.53a8.92,8.92,0,0,0-.53.74c-.21.32-.38.59-.52.82s-.35.54-.62,1l-.61,1c-.15.21-.33.51-.56.88s-.41.66-.55.86-.28.43-.45.68c-.32.47-.57.71-.76.71s-.4-.15-.64-.44a1.27,1.27,0,0,1-.37-.75,2.7,2.7,0,0,1,.14-.52c.24-.75.51-1.66.81-2.76a15.93,15.93,0,0,0,.48-3.73c0-.94.17-1.4.4-1.4a1.17,1.17,0,0,1,.84.44,1.37,1.37,0,0,1,.43,1,12.47,12.47,0,0,1-.32,2,27.23,27.23,0,0,1-.74,2.81A53,53,0,0,1,170.44,428.36Z" fill="#231f20"/>
      <path d="M184,421.46c.2,0,.46.19.76.56a1.78,1.78,0,0,1,.45,1.07,22,22,0,0,1-.48,2.83c-.32,1.56-.69,3.17-1.12,4.83-.92,3.74-1.52,5.61-1.82,5.61a.88.88,0,0,1-.58-.34.89.89,0,0,1-.32-.59,6.73,6.73,0,0,1,.13-1c-1.25,1.28-2.35,1.92-3.28,1.92a2,2,0,0,1-1.53-.77,2.42,2.42,0,0,1-.68-1.6,8,8,0,0,1,.65-2.83,9.47,9.47,0,0,1,1.85-3,3.45,3.45,0,0,1,2.57-1.35c.91,0,1.54.55,1.9,1.63a36.19,36.19,0,0,0,1.08-6.43Q183.59,421.46,184,421.46Zm-2.11,9.42a3.8,3.8,0,0,0-.36-1.74c-.24-.48-.52-.71-.85-.71a2.35,2.35,0,0,0-1.69,1,8,8,0,0,0-1.38,2.34,6.59,6.59,0,0,0-.5,2.27.69.69,0,0,0,.25.56.87.87,0,0,0,.59.21,3.67,3.67,0,0,0,2-1.08,6.24,6.24,0,0,0,1.85-2.53l.06-.23Z" fill="#231f20"/>
      <path d="M190.86,426.83a1.59,1.59,0,0,1,1.23.72,2.12,2.12,0,0,1,.58,1.26c0,.22-.1.33-.31.33a1.37,1.37,0,0,1-.65-.34,1.53,1.53,0,0,0-.9-.34,3.57,3.57,0,0,0-1.45.54c-.66.36-1,.74-1,1.13s.59.81,1.76,1.52a4.81,4.81,0,0,1,1.22,1.09,2.15,2.15,0,0,1,.55,1.42c0,.5-.35,1-1.05,1.48a4.17,4.17,0,0,1-2.43.72,4.5,4.5,0,0,1-2.46-.68c-.71-.44-1.07-.87-1.07-1.26a.57.57,0,0,1,.13-.4.41.41,0,0,1,.31-.14,1,1,0,0,1,.54.25,3.63,3.63,0,0,0,2.16.75,3.75,3.75,0,0,0,1.62-.26.77.77,0,0,0,.5-.69,1.3,1.3,0,0,0-.55-.92,8.23,8.23,0,0,0-1.22-.88,5.76,5.76,0,0,1-1.22-.94,1.63,1.63,0,0,1-.56-1.13c0-.68.54-1.39,1.6-2.12A5.09,5.09,0,0,1,190.86,426.83Z" fill="#231f20"/>
      <path d="M98.93,448.51a2.19,2.19,0,0,1,.25,3,.88.88,0,0,1,.23.5,11.84,11.84,0,0,1-.24,1.84c-.16.87-.26,1.44-.29,1.71s-.06.48-.09.65a3.89,3.89,0,0,1-.09.47c0,.32-.17.48-.35.48s-.42-.21-.56-.61a5,5,0,0,1-.26-1.56c-1.14,1.44-2.2,2.17-3.17,2.17a2.65,2.65,0,0,1-1.74-.76,2.14,2.14,0,0,1-.85-1.57,6.73,6.73,0,0,1,.84-2.85,11.07,11.07,0,0,1,2.19-3,3.77,3.77,0,0,1,2.53-1.33A2.08,2.08,0,0,1,98.93,448.51Zm-.71,2.5c0-1.19-.24-1.78-.71-1.78a2.7,2.7,0,0,0-1.75,1.06,10.54,10.54,0,0,0-1.69,2.41,5.13,5.13,0,0,0-.69,2.13.62.62,0,0,0,.27.53,1.05,1.05,0,0,0,.63.2,3.06,3.06,0,0,0,2-1.22,6.67,6.67,0,0,0,1.57-3,.4.4,0,0,1,.33-.35Z" fill="#231f20"/>
      <path d="M106.12,449.16c.77-1,1.41-1.53,1.9-1.53a1.85,1.85,0,0,1,1.4.79,2.55,2.55,0,0,1,.66,1.67,11.6,11.6,0,0,1-.63,3.38q-1.15,3.69-2.07,3.69c-.29,0-.43-.2-.43-.58a6.61,6.61,0,0,1,.42-1.64c.27-.83.53-1.64.76-2.44a6.94,6.94,0,0,0,.36-1.81,1.72,1.72,0,0,0-.18-.89c-.12-.19-.25-.29-.37-.29a.7.7,0,0,0-.37.12,2,2,0,0,0-.43.38l-.45.53a7,7,0,0,0-.53.74c-.21.32-.39.59-.53.82l-.62,1c-.26.42-.47.74-.61,1l-.56.88-.54.86-.45.67c-.33.48-.58.72-.76.72s-.4-.15-.65-.44a1.25,1.25,0,0,1-.36-.76,2.5,2.5,0,0,1,.13-.51c.25-.75.52-1.66.81-2.76a15.93,15.93,0,0,0,.48-3.73c0-.94.17-1.4.4-1.4a1.18,1.18,0,0,1,.85.44,1.36,1.36,0,0,1,.42,1,12.47,12.47,0,0,1-.32,2,24.9,24.9,0,0,1-.74,2.81A50.41,50.41,0,0,1,106.12,449.16Z" fill="#231f20"/>
      <path d="M119.68,442.26c.21,0,.46.19.76.56a1.78,1.78,0,0,1,.45,1.07,22,22,0,0,1-.48,2.83q-.48,2.34-1.11,4.83-1.38,5.61-1.82,5.61a.89.89,0,0,1-.59-.34.94.94,0,0,1-.32-.59,7.27,7.27,0,0,1,.14-1c-1.26,1.28-2.35,1.92-3.29,1.92a2,2,0,0,1-1.52-.77,2.37,2.37,0,0,1-.68-1.6,8,8,0,0,1,.64-2.83,9.85,9.85,0,0,1,1.85-3,3.49,3.49,0,0,1,2.58-1.35c.9,0,1.54.55,1.9,1.63a35.1,35.1,0,0,0,1.07-6.43Q119.26,442.26,119.68,442.26Zm-2.11,9.42a3.94,3.94,0,0,0-.35-1.74c-.24-.48-.53-.71-.86-.71a2.34,2.34,0,0,0-1.69,1,8.24,8.24,0,0,0-1.37,2.34,6.41,6.41,0,0,0-.51,2.27.69.69,0,0,0,.25.56.9.9,0,0,0,.6.21,3.68,3.68,0,0,0,2-1.08,6.24,6.24,0,0,0,1.85-2.53l.06-.23Z" fill="#231f20"/>
      <path d="M129.57,457.16q-.27,0-.63-.42a1.17,1.17,0,0,1-.37-.78,16.21,16.21,0,0,1,.61-2.49q.6-2.13,1.21-5.14a28.19,28.19,0,0,0,.6-5.5q0-.57.42-.57c.21,0,.46.19.75.56a1.79,1.79,0,0,1,.44,1.11,31.69,31.69,0,0,1-1,6.74q2.28-3.1,4.14-3.1a1.82,1.82,0,0,1,1.53.89,3.53,3.53,0,0,1,.63,2.1,7,7,0,0,1-.71,2.79,8.12,8.12,0,0,1-1.89,2.7,3.59,3.59,0,0,1-2.49,1.12,3.65,3.65,0,0,1-2.58-1.32v0C129.9,456.73,129.7,457.16,129.57,457.16Zm3.05-1.48a3.23,3.23,0,0,0,2.45-1.7,6.13,6.13,0,0,0,1.2-3.58q0-1.14-.69-1.14a3.7,3.7,0,0,0-2.49,1.56,15.66,15.66,0,0,0-2.37,3.7A2.5,2.5,0,0,0,132.62,455.68Z" fill="#231f20"/>
      <path d="M139.58,451.07a7.3,7.3,0,0,1,1.75-2.47,3.37,3.37,0,0,1,2.23-1,2.36,2.36,0,0,1,1.91,1,3.72,3.72,0,0,1,.77,2.36,6.75,6.75,0,0,1-.68,2.85,6.57,6.57,0,0,1-1.85,2.4,4,4,0,0,1-2.5,1,2,2,0,0,1-1.64-.91,3.83,3.83,0,0,1-.65-2.29A7.15,7.15,0,0,1,139.58,451.07Zm5-.17a3.63,3.63,0,0,0-.21-1.24,1.66,1.66,0,0,0-.61-.86,4,4,0,0,0-2.28,2.05,6.49,6.49,0,0,0-1,3.16c0,1,.25,1.6.73,1.84a3.6,3.6,0,0,0,2.35-1.89A6,6,0,0,0,144.62,450.9Z" fill="#231f20"/>
      <path d="M155.74,442.26c.2,0,.46.19.76.56a1.78,1.78,0,0,1,.45,1.07,22,22,0,0,1-.48,2.83q-.48,2.34-1.11,4.83c-.93,3.74-1.53,5.61-1.83,5.61a.88.88,0,0,1-.58-.34.94.94,0,0,1-.32-.59,6.73,6.73,0,0,1,.13-1c-1.25,1.28-2.34,1.92-3.28,1.92a2,2,0,0,1-1.53-.77,2.42,2.42,0,0,1-.68-1.6,8,8,0,0,1,.65-2.83,9.47,9.47,0,0,1,1.85-3,3.47,3.47,0,0,1,2.57-1.35c.91,0,1.54.55,1.9,1.63a35.28,35.28,0,0,0,1.08-6.43Q155.32,442.26,155.74,442.26Zm-2.11,9.42a3.8,3.8,0,0,0-.36-1.74c-.23-.48-.52-.71-.85-.71a2.32,2.32,0,0,0-1.69,1,7.79,7.79,0,0,0-1.37,2.34,6.41,6.41,0,0,0-.51,2.27.69.69,0,0,0,.25.56.87.87,0,0,0,.59.21,3.67,3.67,0,0,0,2-1.08,6.24,6.24,0,0,0,1.85-2.53l.06-.23Z" fill="#231f20"/>
      <path d="M159.46,447.63a.91.91,0,0,1,.7.44,1.53,1.53,0,0,1,.32.87,16,16,0,0,1-.55,2.52c-.38,1.4-.84,3-1.41,4.72-.21.64-.49,1-.82,1a.61.61,0,0,1-.46-.22.75.75,0,0,1-.19-.5,4,4,0,0,1,.14-.89c.1-.4.24-.94.42-1.61s.33-1.22.44-1.64.22-.9.34-1.43.21-1,.28-1.29.15-.65.24-1C159.09,448,159.27,447.63,159.46,447.63Zm.1-2.72a1.06,1.06,0,0,1,.31-.73.85.85,0,0,1,.62-.35c.21,0,.47.26.76.78a2.84,2.84,0,0,1,.44,1.29.47.47,0,0,1-.17.35.57.57,0,0,1-.37.15,1.55,1.55,0,0,1-1-.55A1.52,1.52,0,0,1,159.56,444.91Z" fill="#231f20"/>
      <path d="M169.33,450.81a1.92,1.92,0,0,1-1.1,1.67,4.87,4.87,0,0,1-2.5.64,9.84,9.84,0,0,1-2.52-.3,5,5,0,0,0-.27,1.5,1.3,1.3,0,0,0,.41,1,2.08,2.08,0,0,0,1.37.37,6.26,6.26,0,0,0,1.95-.34c.68-.22,1-.34,1.11-.34.33,0,.5.13.5.39s-.39.72-1.17,1.12a5,5,0,0,1-2.29.61,3.39,3.39,0,0,1-2.44-.9,3,3,0,0,1-.94-2.25,6.55,6.55,0,0,1,.73-2.85,8.11,8.11,0,0,1,1.88-2.51,3.49,3.49,0,0,1,2.29-1,2.7,2.7,0,0,1,2.06,1.08A3.23,3.23,0,0,1,169.33,450.81Zm-2.9-1.66a2.2,2.2,0,0,0-1.47.74,6.3,6.3,0,0,0-1.31,1.83,7.69,7.69,0,0,0,1.75.17,4.31,4.31,0,0,0,1.71-.31c.48-.21.73-.49.73-.84a1.62,1.62,0,0,0-.47-1.05A1.31,1.31,0,0,0,166.43,449.15Z" fill="#231f20"/>
      <path d="M175.8,447.63a1.59,1.59,0,0,1,1.23.72,2.12,2.12,0,0,1,.58,1.26c0,.22-.1.33-.31.33a1.37,1.37,0,0,1-.65-.34,1.53,1.53,0,0,0-.9-.34,3.57,3.57,0,0,0-1.45.54c-.66.36-1,.74-1,1.13s.59.8,1.76,1.52a4.81,4.81,0,0,1,1.22,1.09,2.15,2.15,0,0,1,.55,1.42c0,.5-.35,1-1.05,1.48a4.17,4.17,0,0,1-2.43.72,4.5,4.5,0,0,1-2.46-.68c-.71-.44-1.07-.87-1.07-1.26a.57.57,0,0,1,.13-.4.41.41,0,0,1,.31-.14,1,1,0,0,1,.54.25,3.63,3.63,0,0,0,2.16.75,3.75,3.75,0,0,0,1.62-.26.77.77,0,0,0,.5-.69,1.3,1.3,0,0,0-.55-.92,7.74,7.74,0,0,0-1.22-.88,5.76,5.76,0,0,1-1.22-.94,1.63,1.63,0,0,1-.56-1.13c0-.68.54-1.39,1.6-2.12A5.09,5.09,0,0,1,175.8,447.63Z" fill="#231f20"/>
    </g>
    <g>
      <path d="M103.57,553.05h-3.31l-1.86-7.2c-.07-.25-.18-.78-.35-1.59s-.26-1.34-.28-1.61c0,.33-.14.88-.29,1.62s-.26,1.28-.34,1.6l-1.85,7.18H92l-3.5-13.7h2.86l1.76,7.48c.3,1.38.52,2.58.66,3.59,0-.36.12-.91.26-1.66a17.77,17.77,0,0,1,.38-1.74l2-7.67h2.74l2,7.67c.09.35.2.87.33,1.58s.23,1.31.3,1.82q.09-.74.3-1.83c.13-.72.26-1.31.37-1.76l1.75-7.48h2.86Z" fill="#018da4"/>
      <path d="M113.3,553.24a5.42,5.42,0,0,1-4-1.4,5.28,5.28,0,0,1-1.42-4,5.82,5.82,0,0,1,1.32-4.08,5.33,5.33,0,0,1,7.1-.17,4.8,4.8,0,0,1,1.23,3.5v1.38h-6.76a2.81,2.81,0,0,0,.73,1.91,2.56,2.56,0,0,0,1.89.68,7.92,7.92,0,0,0,1.79-.19,10.14,10.14,0,0,0,1.76-.63v2.21a6.6,6.6,0,0,1-1.6.56A10.25,10.25,0,0,1,113.3,553.24Zm-.4-8.83a1.8,1.8,0,0,0-1.43.58,2.68,2.68,0,0,0-.59,1.63h4a2.34,2.34,0,0,0-.55-1.63A1.86,1.86,0,0,0,112.9,544.41Z" fill="#018da4"/>
      <path d="M134.27,553.05h-2.86v-6.12a3,3,0,0,0-.38-1.7,1.32,1.32,0,0,0-1.19-.57,1.74,1.74,0,0,0-1.6.81,5.31,5.31,0,0,0-.49,2.65v4.93h-2.86V542.57h2.18l.39,1.34h.15a3,3,0,0,1,1.22-1.13,4,4,0,0,1,1.83-.41,3.31,3.31,0,0,1,3.19,1.54h.25a2.84,2.84,0,0,1,1.24-1.13,4.17,4.17,0,0,1,1.86-.41,3.65,3.65,0,0,1,2.69.92,4,4,0,0,1,.92,2.93v6.83h-2.87v-6.12a3.1,3.1,0,0,0-.38-1.7,1.34,1.34,0,0,0-1.2-.57,1.79,1.79,0,0,0-1.57.75,4.24,4.24,0,0,0-.52,2.38Z" fill="#018da4"/>
      <path d="M150.4,553.05l-.56-1.42h-.07a4.34,4.34,0,0,1-1.49,1.26,4.86,4.86,0,0,1-2,.35,3.25,3.25,0,0,1-2.38-.86,3.32,3.32,0,0,1-.86-2.46,2.78,2.78,0,0,1,1.16-2.46,6.78,6.78,0,0,1,3.52-.88l1.82-.05v-.46a1.43,1.43,0,0,0-1.63-1.6,7.51,7.51,0,0,0-2.95.76L144,543.3a8.53,8.53,0,0,1,4-.94,5,5,0,0,1,3.24.91,3.42,3.42,0,0,1,1.12,2.8v7Zm-.85-4.85-1.1,0a3.64,3.64,0,0,0-1.86.45,1.42,1.42,0,0,0-.61,1.26c0,.81.46,1.21,1.39,1.21a2.21,2.21,0,0,0,1.59-.57,2,2,0,0,0,.59-1.52Z" fill="#018da4"/>
      <path d="M158.08,547.35l1.25-1.59,2.93-3.19h3.23l-4.16,4.55,4.41,5.93h-3.3l-3-4.24-1.22,1v3.26h-2.86V538.47h2.86V545l-.15,2.38Z" fill="#018da4"/>
      <path d="M172,553.24a5.42,5.42,0,0,1-4-1.4,5.28,5.28,0,0,1-1.43-4,5.82,5.82,0,0,1,1.32-4.08,4.69,4.69,0,0,1,3.64-1.44,4.61,4.61,0,0,1,3.46,1.27,4.77,4.77,0,0,1,1.24,3.5v1.38H169.5a2.76,2.76,0,0,0,.72,1.91,2.58,2.58,0,0,0,1.9.68,7.92,7.92,0,0,0,1.79-.19,10.14,10.14,0,0,0,1.76-.63v2.21a6.6,6.6,0,0,1-1.6.56A10.25,10.25,0,0,1,172,553.24Zm-.41-8.83a1.79,1.79,0,0,0-1.42.58,2.62,2.62,0,0,0-.59,1.63h4A2.39,2.39,0,0,0,173,545,1.87,1.87,0,0,0,171.58,544.41Z" fill="#018da4"/>
      <path d="M190.89,549.94a2.91,2.91,0,0,1-1.12,2.46,5.58,5.58,0,0,1-3.36.84,10.89,10.89,0,0,1-1.95-.15,7.72,7.72,0,0,1-1.5-.46v-2.36a9.85,9.85,0,0,0,1.79.63,7.21,7.21,0,0,0,1.76.25c1,0,1.55-.3,1.55-.9a.73.73,0,0,0-.2-.55,3.27,3.27,0,0,0-.71-.48c-.34-.18-.79-.38-1.35-.62a8.46,8.46,0,0,1-1.78-.94,2.75,2.75,0,0,1-.83-1,3.29,3.29,0,0,1-.25-1.37,2.49,2.49,0,0,1,1.08-2.16,5.25,5.25,0,0,1,3.07-.77,8.7,8.7,0,0,1,3.68.83l-.86,2.06a15.22,15.22,0,0,0-1.47-.55,4.76,4.76,0,0,0-1.4-.22q-1.26,0-1.26.69a.79.79,0,0,0,.4.66,11.25,11.25,0,0,0,1.79.84,8.07,8.07,0,0,1,1.8.93,2.63,2.63,0,0,1,.84,1A2.91,2.91,0,0,1,190.89,549.94Z" fill="#018da4"/>
      <path d="M200.54,553.05l-.38-1.34H200a3,3,0,0,1-1.3,1.13,4.44,4.44,0,0,1-1.93.4,3.64,3.64,0,0,1-2.78-1,4,4,0,0,1-.94-2.84v-6.84h2.86v6.12a3,3,0,0,0,.4,1.71,1.49,1.49,0,0,0,1.29.56,1.92,1.92,0,0,0,1.73-.8,4.92,4.92,0,0,0,.54-2.66v-4.93h2.86v10.48Z" fill="#018da4"/>
      <path d="M211.59,542.37a4.29,4.29,0,0,1,1,.09l-.21,2.68a3.52,3.52,0,0,0-.85-.09,3,3,0,0,0-2.13.7,2.53,2.53,0,0,0-.76,2v5.33h-2.86V542.57h2.16l.42,1.76h.14a4.09,4.09,0,0,1,1.32-1.42A3.25,3.25,0,0,1,211.59,542.37Z" fill="#018da4"/>
      <path d="M219.2,553.24a5.42,5.42,0,0,1-4-1.4,5.28,5.28,0,0,1-1.42-4,5.87,5.87,0,0,1,1.31-4.08,4.71,4.71,0,0,1,3.65-1.44,4.64,4.64,0,0,1,3.46,1.27,4.8,4.8,0,0,1,1.23,3.5v1.38h-6.76a2.81,2.81,0,0,0,.73,1.91,2.56,2.56,0,0,0,1.89.68,7.92,7.92,0,0,0,1.79-.19,10.14,10.14,0,0,0,1.76-.63v2.21a6.6,6.6,0,0,1-1.6.56A10.25,10.25,0,0,1,219.2,553.24Zm-.4-8.83a1.8,1.8,0,0,0-1.43.58,2.68,2.68,0,0,0-.59,1.63h4a2.34,2.34,0,0,0-.55-1.63A1.86,1.86,0,0,0,218.8,544.41Z" fill="#018da4"/>
      <path d="M240.31,547.79a5.66,5.66,0,0,1-1.35,4,4.9,4.9,0,0,1-3.76,1.44,5.28,5.28,0,0,1-2.66-.66,4.35,4.35,0,0,1-1.77-1.9,6.28,6.28,0,0,1-.62-2.89,5.61,5.61,0,0,1,1.34-4,4.92,4.92,0,0,1,3.77-1.43,5.28,5.28,0,0,1,2.66.66,4.38,4.38,0,0,1,1.77,1.89A6.29,6.29,0,0,1,240.31,547.79Zm-7.25,0a4.32,4.32,0,0,0,.52,2.36,1.82,1.82,0,0,0,1.66.79,1.78,1.78,0,0,0,1.64-.79,4.4,4.4,0,0,0,.51-2.36,4.31,4.31,0,0,0-.51-2.33,2.15,2.15,0,0,0-3.31,0A4.32,4.32,0,0,0,233.06,547.79Z" fill="#018da4"/>
      <path d="M250.1,553.05l-.39-1.34h-.15a2.94,2.94,0,0,1-1.3,1.13,4.37,4.37,0,0,1-1.92.4,3.64,3.64,0,0,1-2.78-1,4,4,0,0,1-.94-2.84v-6.84h2.86v6.12a3,3,0,0,0,.4,1.71,1.48,1.48,0,0,0,1.28.56,2,2,0,0,0,1.74-.8,5,5,0,0,0,.53-2.66v-4.93h2.86v10.48Z" fill="#018da4"/>
      <path d="M261.14,542.37a4.38,4.38,0,0,1,1,.09l-.22,2.68a3.37,3.37,0,0,0-.84-.09,3,3,0,0,0-2.13.7,2.54,2.54,0,0,0-.77,2v5.33h-2.86V542.57h2.17l.42,1.76H258a4,4,0,0,1,1.32-1.42A3.22,3.22,0,0,1,261.14,542.37Z" fill="#018da4"/>
      <path d="M268.88,539.86c0-.93.52-1.39,1.55-1.39s1.56.46,1.56,1.39a1.36,1.36,0,0,1-.39,1,1.63,1.63,0,0,1-1.17.37C269.4,541.27,268.88,540.8,268.88,539.86Zm3,13.19H269V542.57h2.86Z" fill="#018da4"/>
      <path d="M284.53,553.05h-2.86v-6.12a2.92,2.92,0,0,0-.4-1.7,1.47,1.47,0,0,0-1.28-.57,2,2,0,0,0-1.74.8,5.05,5.05,0,0,0-.53,2.66v4.93h-2.86V542.57H277l.39,1.34h.16a3,3,0,0,1,1.31-1.15,4.5,4.5,0,0,1,1.91-.39,3.69,3.69,0,0,1,2.78,1,4,4,0,0,1,.94,2.86Z" fill="#018da4"/>
      <path d="M293.27,544.72H290.8v8.33h-2.86v-8.33h-1.58v-1.38l1.58-.77v-.77a3.42,3.42,0,0,1,.88-2.61,4,4,0,0,1,2.82-.83,7.4,7.4,0,0,1,2.63.44l-.73,2.1a5.3,5.3,0,0,0-1.59-.27,1,1,0,0,0-.88.36,1.51,1.51,0,0,0-.27.93v.65h2.47Z" fill="#018da4"/>
      <path d="M301.57,553.05l-.56-1.42h-.07a4.34,4.34,0,0,1-1.49,1.26,4.86,4.86,0,0,1-2,.35,3.25,3.25,0,0,1-2.38-.86,3.36,3.36,0,0,1-.86-2.46,2.78,2.78,0,0,1,1.16-2.46,6.81,6.81,0,0,1,3.52-.88l1.82-.05v-.46a1.43,1.43,0,0,0-1.63-1.6,7.51,7.51,0,0,0-2.95.76l-.95-1.93a8.57,8.57,0,0,1,4-.94,5,5,0,0,1,3.23.91,3.42,3.42,0,0,1,1.12,2.8v7Zm-.85-4.85-1.1,0a3.67,3.67,0,0,0-1.86.45,1.42,1.42,0,0,0-.61,1.26c0,.81.46,1.21,1.39,1.21a2.21,2.21,0,0,0,1.59-.57,2,2,0,0,0,.59-1.52Z" fill="#018da4"/>
      <path d="M316.18,553.05h-2.86v-6.12a2.92,2.92,0,0,0-.4-1.7,1.47,1.47,0,0,0-1.28-.57,2,2,0,0,0-1.74.8,5.05,5.05,0,0,0-.53,2.66v4.93h-2.86V542.57h2.18l.39,1.34h.16a3,3,0,0,1,1.31-1.15,4.5,4.5,0,0,1,1.91-.39,3.69,3.69,0,0,1,2.78,1,4,4,0,0,1,.94,2.86Z" fill="#018da4"/>
      <path d="M323.54,551a6.17,6.17,0,0,0,1.8-.33v2.13a6.39,6.39,0,0,1-2.62.48,3.2,3.2,0,0,1-2.5-.87,3.78,3.78,0,0,1-.78-2.6v-5h-1.37v-1.21l1.57-1,.83-2.21h1.83v2.23h2.93v2.15H322.3v5a1.1,1.1,0,0,0,.34.9A1.32,1.32,0,0,0,323.54,551Z" fill="#018da4"/>
      <path d="M334.77,549.94a2.89,2.89,0,0,1-1.12,2.46,5.53,5.53,0,0,1-3.35.84,10.89,10.89,0,0,1-1.95-.15,7.82,7.82,0,0,1-1.51-.46v-2.36a10,10,0,0,0,1.8.63,7.15,7.15,0,0,0,1.76.25c1,0,1.55-.3,1.55-.9a.77.77,0,0,0-.2-.55,3.14,3.14,0,0,0-.72-.48c-.33-.18-.78-.38-1.35-.62a8.34,8.34,0,0,1-1.77-.94,2.66,2.66,0,0,1-.83-1,3.28,3.28,0,0,1-.26-1.37,2.48,2.48,0,0,1,1.09-2.16,5.25,5.25,0,0,1,3.07-.77,8.7,8.7,0,0,1,3.68.83l-.86,2.06c-.53-.22-1-.41-1.47-.55a4.81,4.81,0,0,0-1.4-.22c-.84,0-1.27.23-1.27.69a.8.8,0,0,0,.41.66,10.81,10.81,0,0,0,1.79.84,8.07,8.07,0,0,1,1.8.93,2.63,2.63,0,0,1,.84,1A3,3,0,0,1,334.77,549.94Z" fill="#018da4"/>
      <path d="M351.11,542.57V544l-1.64.43a2.85,2.85,0,0,1,.45,1.57,3.18,3.18,0,0,1-1.17,2.63,5.11,5.11,0,0,1-3.27.94l-.52,0-.42-.05a1,1,0,0,0-.44.75c0,.41.53.62,1.58.62h1.78a4,4,0,0,1,2.63.74,2.65,2.65,0,0,1,.9,2.17,3.22,3.22,0,0,1-1.53,2.85,7.93,7.93,0,0,1-4.4,1,6.08,6.08,0,0,1-3.35-.77,2.41,2.41,0,0,1-1.16-2.14,2.28,2.28,0,0,1,.59-1.59,3.35,3.35,0,0,1,1.73-.9,2,2,0,0,1-.77-.62,1.48,1.48,0,0,1-.32-.9,1.46,1.46,0,0,1,.34-1,3.76,3.76,0,0,1,1-.78,2.81,2.81,0,0,1-1.31-1.15,3.47,3.47,0,0,1-.48-1.85,3.29,3.29,0,0,1,1.11-2.66,4.87,4.87,0,0,1,3.19-.94,8.71,8.71,0,0,1,1,.08l.78.12Zm-8.09,12a1,1,0,0,0,.57.93,3.08,3.08,0,0,0,1.59.34,5.67,5.67,0,0,0,2.41-.42,1.29,1.29,0,0,0,.87-1.16.81.81,0,0,0-.51-.81,4.26,4.26,0,0,0-1.6-.23h-1.48a2.33,2.33,0,0,0-1.32.37A1.16,1.16,0,0,0,343,554.53Zm1-8.53a2.13,2.13,0,0,0,.39,1.35,1.43,1.43,0,0,0,1.19.5,1.38,1.38,0,0,0,1.18-.5,2.19,2.19,0,0,0,.38-1.35q0-1.89-1.56-1.89C344.59,544.11,344.06,544.74,344.06,546Z" fill="#018da4"/>
      <path d="M357.58,553.24a5.41,5.41,0,0,1-3.95-1.4,5.28,5.28,0,0,1-1.43-4,5.82,5.82,0,0,1,1.32-4.08,5.33,5.33,0,0,1,7.1-.17,4.77,4.77,0,0,1,1.24,3.5v1.38H355.1a2.76,2.76,0,0,0,.72,1.91,2.56,2.56,0,0,0,1.89.68,7.86,7.86,0,0,0,1.79-.19,10.23,10.23,0,0,0,1.77-.63v2.21a6.67,6.67,0,0,1-1.61.56A10.18,10.18,0,0,1,357.58,553.24Zm-.4-8.83a1.81,1.81,0,0,0-1.43.58,2.68,2.68,0,0,0-.59,1.63h4a2.39,2.39,0,0,0-.56-1.63A1.83,1.83,0,0,0,357.18,544.41Z" fill="#018da4"/>
      <path d="M368.6,551a6.17,6.17,0,0,0,1.8-.33v2.13a6.4,6.4,0,0,1-2.63.48,3.23,3.23,0,0,1-2.5-.87,3.78,3.78,0,0,1-.78-2.6v-5h-1.37v-1.21l1.58-1,.82-2.21h1.83v2.23h2.94v2.15h-2.94v5a1.13,1.13,0,0,0,.34.9A1.33,1.33,0,0,0,368.6,551Z" fill="#018da4"/>
      <path d="M120.81,570.19a5.66,5.66,0,0,1-1.35,4,4.9,4.9,0,0,1-3.76,1.44A5.28,5.28,0,0,1,113,575a4.35,4.35,0,0,1-1.77-1.9,6.41,6.41,0,0,1-.62-2.89,5.61,5.61,0,0,1,1.34-4,4.92,4.92,0,0,1,3.77-1.43,5.25,5.25,0,0,1,2.66.66,4.41,4.41,0,0,1,1.77,1.88A6.24,6.24,0,0,1,120.81,570.19Zm-7.24,0a4.42,4.42,0,0,0,.51,2.36,2.13,2.13,0,0,0,3.31,0,4.5,4.5,0,0,0,.5-2.36,4.31,4.31,0,0,0-.51-2.33,2.15,2.15,0,0,0-3.31,0A4.33,4.33,0,0,0,113.57,570.19Z" fill="#018da4"/>
      <path d="M130.6,575.45l-.38-1.34h-.15a3,3,0,0,1-1.31,1.13,4.37,4.37,0,0,1-1.92.4,3.64,3.64,0,0,1-2.78-1,4,4,0,0,1-.94-2.84V565H126v6.12a2.9,2.9,0,0,0,.4,1.7,1.47,1.47,0,0,0,1.29.57,1.94,1.94,0,0,0,1.73-.8,4.92,4.92,0,0,0,.54-2.66V565h2.85v10.48Z" fill="#018da4"/>
      <path d="M140.21,573.36A6.17,6.17,0,0,0,142,573v2.13a6.39,6.39,0,0,1-2.62.48,3.2,3.2,0,0,1-2.5-.87,3.73,3.73,0,0,1-.79-2.6v-5h-1.37v-1.21l1.58-1,.83-2.21H139V565h2.94v2.15H139v5a1.1,1.1,0,0,0,.35.9A1.28,1.28,0,0,0,140.21,573.36Z" fill="#018da4"/>
      <path d="M147.45,575.64a3.41,3.41,0,0,1-2.9-1.43,6.58,6.58,0,0,1-1.06-4,6.65,6.65,0,0,1,1.07-4,3.5,3.5,0,0,1,3-1.44,3.43,3.43,0,0,1,3,1.54h.1a11.18,11.18,0,0,1-.22-2.09v-3.35h2.87v14.58h-2.2l-.55-1.36h-.12A3.28,3.28,0,0,1,147.45,575.64Zm1-2.28a1.93,1.93,0,0,0,1.61-.64,3.74,3.74,0,0,0,.56-2.16v-.31a4.34,4.34,0,0,0-.52-2.42,1.93,1.93,0,0,0-1.7-.73,1.67,1.67,0,0,0-1.48.81,4.28,4.28,0,0,0-.53,2.36,4.17,4.17,0,0,0,.53,2.32A1.77,1.77,0,0,0,148.45,573.36Z" fill="#018da4"/>
      <path d="M165.8,570.19a5.66,5.66,0,0,1-1.35,4,4.9,4.9,0,0,1-3.76,1.44A5.28,5.28,0,0,1,158,575a4.35,4.35,0,0,1-1.77-1.9,6.41,6.41,0,0,1-.62-2.89,5.61,5.61,0,0,1,1.34-4,4.94,4.94,0,0,1,3.77-1.43,5.25,5.25,0,0,1,2.66.66,4.49,4.49,0,0,1,1.78,1.88A6.36,6.36,0,0,1,165.8,570.19Zm-7.24,0a4.42,4.42,0,0,0,.51,2.36,2.13,2.13,0,0,0,3.31,0,4.5,4.5,0,0,0,.5-2.36,4.31,4.31,0,0,0-.51-2.33,1.82,1.82,0,0,0-1.66-.78,1.84,1.84,0,0,0-1.65.77A4.42,4.42,0,0,0,158.56,570.19Z" fill="#018da4"/>
      <path d="M177.69,570.19a5.66,5.66,0,0,1-1.35,4,4.9,4.9,0,0,1-3.76,1.44,5.28,5.28,0,0,1-2.66-.66,4.35,4.35,0,0,1-1.77-1.9,6.41,6.41,0,0,1-.62-2.89,5.61,5.61,0,0,1,1.34-4,4.92,4.92,0,0,1,3.77-1.43,5.28,5.28,0,0,1,2.66.66,4.41,4.41,0,0,1,1.77,1.88A6.24,6.24,0,0,1,177.69,570.19Zm-7.25,0a4.32,4.32,0,0,0,.52,2.36,2.13,2.13,0,0,0,3.31,0,4.5,4.5,0,0,0,.5-2.36,4.31,4.31,0,0,0-.51-2.33,2.15,2.15,0,0,0-3.31,0A4.32,4.32,0,0,0,170.44,570.19Z" fill="#018da4"/>
      <path d="M185.9,564.77a4.38,4.38,0,0,1,1,.09l-.22,2.68a3.37,3.37,0,0,0-.84-.09,3,3,0,0,0-2.13.7,2.54,2.54,0,0,0-.77,2v5.33h-2.86V565h2.17l.42,1.76h.14a4.09,4.09,0,0,1,1.32-1.42A3.22,3.22,0,0,1,185.9,564.77Z" fill="#018da4"/>
      <path d="M198.18,573.36A6.17,6.17,0,0,0,200,573v2.13a6.44,6.44,0,0,1-2.63.48,3.21,3.21,0,0,1-2.5-.87,3.78,3.78,0,0,1-.78-2.6v-5H192.7v-1.21l1.58-1,.82-2.21h1.83V565h2.93v2.15h-2.93v5a1.1,1.1,0,0,0,.34.9A1.33,1.33,0,0,0,198.18,573.36Z" fill="#018da4"/>
      <path d="M202,562.26c0-.93.52-1.39,1.56-1.39s1.56.46,1.56,1.39a1.36,1.36,0,0,1-.39,1,1.67,1.67,0,0,1-1.17.37Q202,563.67,202,562.26Zm3,13.19h-2.86V565H205Z" fill="#018da4"/>
      <path d="M217.34,575.45h-2.86v-6.12a3.1,3.1,0,0,0-.38-1.7,1.33,1.33,0,0,0-1.2-.57,1.72,1.72,0,0,0-1.59.81,5.29,5.29,0,0,0-.5,2.65v4.93H208V565h2.19l.38,1.34h.16a2.91,2.91,0,0,1,1.22-1.13,4,4,0,0,1,1.83-.41,3.31,3.31,0,0,1,3.19,1.54h.25a2.79,2.79,0,0,1,1.24-1.13,4.15,4.15,0,0,1,1.85-.41,3.66,3.66,0,0,1,2.7.92,4,4,0,0,1,.91,2.93v6.83H221v-6.12a3,3,0,0,0-.38-1.7,1.32,1.32,0,0,0-1.19-.57,1.79,1.79,0,0,0-1.57.75,4.24,4.24,0,0,0-.52,2.38Z" fill="#018da4"/>
      <path d="M231.55,575.64a5.42,5.42,0,0,1-4-1.4,5.28,5.28,0,0,1-1.42-4,5.82,5.82,0,0,1,1.32-4.08,5.33,5.33,0,0,1,7.1-.17,4.81,4.81,0,0,1,1.24,3.5v1.38h-6.76a2.76,2.76,0,0,0,.72,1.91,2.56,2.56,0,0,0,1.89.68,7.38,7.38,0,0,0,1.79-.2,9.39,9.39,0,0,0,1.77-.62v2.21a6.67,6.67,0,0,1-1.61.56A10.25,10.25,0,0,1,231.55,575.64Zm-.4-8.83a1.81,1.81,0,0,0-1.43.58,2.65,2.65,0,0,0-.59,1.63h4a2.32,2.32,0,0,0-.55-1.63A1.85,1.85,0,0,0,231.15,566.81Z" fill="#018da4"/>
      <path d="M247.55,573.36a6.17,6.17,0,0,0,1.8-.33v2.13a6.35,6.35,0,0,1-2.62.48,3.2,3.2,0,0,1-2.5-.87,3.78,3.78,0,0,1-.78-2.6v-5h-1.37v-1.21l1.57-1,.83-2.21h1.83V565h2.93v2.15h-2.93v5a1.1,1.1,0,0,0,.34.9A1.32,1.32,0,0,0,247.55,573.36Z" fill="#018da4"/>
      <path d="M260.09,575.45l-.81-3.66-1.09-4.63h-.06l-1.91,8.29h-3.08l-3-10.48H253l1.21,4.64c.19.83.39,2,.59,3.44h.06a18.66,18.66,0,0,1,.32-2.26l.15-.79,1.3-5h3.15l1.23,5c0,.13.06.34.11.61s.11.55.16.85.09.6.13.89a6,6,0,0,1,.07.7h.06c.06-.45.16-1.06.3-1.85s.25-1.31.31-1.59l1.26-4.64h2.8l-3,10.48Z" fill="#018da4"/>
      <path d="M267.79,562.26c0-.93.51-1.39,1.55-1.39s1.56.46,1.56,1.39a1.36,1.36,0,0,1-.39,1,1.67,1.67,0,0,1-1.17.37C268.3,563.67,267.79,563.2,267.79,562.26Zm3,13.19h-2.86V565h2.86Z" fill="#018da4"/>
      <path d="M278,575.64q-4.89,0-4.89-5.37a5.71,5.71,0,0,1,1.33-4.08,5,5,0,0,1,3.82-1.42,7.2,7.2,0,0,1,3.26.72l-.85,2.21c-.45-.18-.86-.33-1.25-.45a4.29,4.29,0,0,0-1.16-.17c-1.49,0-2.24,1.06-2.24,3.17s.75,3.07,2.24,3.07a4.9,4.9,0,0,0,1.52-.22,5.36,5.36,0,0,0,1.41-.68v2.44a4.39,4.39,0,0,1-1.4.61A8,8,0,0,1,278,575.64Z" fill="#018da4"/>
      <path d="M288.38,575.64a5.4,5.4,0,0,1-3.95-1.4,5.28,5.28,0,0,1-1.43-4,5.82,5.82,0,0,1,1.32-4.08,5.33,5.33,0,0,1,7.1-.17,4.77,4.77,0,0,1,1.24,3.5v1.38H285.9a2.76,2.76,0,0,0,.72,1.91,2.56,2.56,0,0,0,1.89.68,7.33,7.33,0,0,0,1.79-.2,9.39,9.39,0,0,0,1.77-.62v2.21a6.67,6.67,0,0,1-1.61.56A10.18,10.18,0,0,1,288.38,575.64Zm-.4-8.83a1.81,1.81,0,0,0-1.43.58A2.65,2.65,0,0,0,286,569h4a2.37,2.37,0,0,0-.56-1.63A1.83,1.83,0,0,0,288,566.81Z" fill="#018da4"/>
      <path d="M306.63,575.45l-.56-1.42H306a4.34,4.34,0,0,1-1.49,1.26,4.86,4.86,0,0,1-2,.35,3.25,3.25,0,0,1-2.38-.86,3.32,3.32,0,0,1-.86-2.46,2.78,2.78,0,0,1,1.16-2.46A6.78,6.78,0,0,1,304,569l1.82-.05v-.46a1.43,1.43,0,0,0-1.63-1.6,7.51,7.51,0,0,0-2.95.76l-.95-1.93a8.53,8.53,0,0,1,4-.94,5,5,0,0,1,3.24.91,3.42,3.42,0,0,1,1.12,2.8v7Zm-.85-4.85-1.1,0a3.64,3.64,0,0,0-1.86.45,1.42,1.42,0,0,0-.61,1.26c0,.81.46,1.21,1.39,1.21a2.21,2.21,0,0,0,1.59-.57,2,2,0,0,0,.59-1.52Z" fill="#018da4"/>
      <path d="M319.87,575.64a3.41,3.41,0,0,1-2.9-1.43,6.65,6.65,0,0,1-1.05-4,6.58,6.58,0,0,1,1.07-4,3.49,3.49,0,0,1,3-1.44,3.44,3.44,0,0,1,3,1.54h.09a12.09,12.09,0,0,1-.22-2.09v-3.35h2.87v14.58h-2.19l-.55-1.36h-.13A3.28,3.28,0,0,1,319.87,575.64Zm1-2.28a1.91,1.91,0,0,0,1.6-.64,3.67,3.67,0,0,0,.56-2.16v-.31a4.26,4.26,0,0,0-.52-2.42,1.93,1.93,0,0,0-1.69-.73,1.69,1.69,0,0,0-1.49.81,4.36,4.36,0,0,0-.53,2.36,4.08,4.08,0,0,0,.54,2.32A1.74,1.74,0,0,0,320.88,573.36Z" fill="#018da4"/>
      <path d="M335.36,575.45l-.55-1.42h-.08a4.32,4.32,0,0,1-1.48,1.26,4.91,4.91,0,0,1-2,.35,3.24,3.24,0,0,1-2.37-.86,3.33,3.33,0,0,1-.87-2.46,2.77,2.77,0,0,1,1.17-2.46,6.78,6.78,0,0,1,3.52-.88l1.82-.05v-.46a1.44,1.44,0,0,0-1.64-1.6,7.56,7.56,0,0,0-2.95.76L329,565.7a8.57,8.57,0,0,1,4-.94,5,5,0,0,1,3.23.91,3.42,3.42,0,0,1,1.13,2.8v7Zm-.84-4.85-1.11,0a3.67,3.67,0,0,0-1.86.45,1.44,1.44,0,0,0-.61,1.26c0,.81.47,1.21,1.39,1.21a2.21,2.21,0,0,0,1.59-.57,2,2,0,0,0,.6-1.52Z" fill="#018da4"/>
      <path d="M338.8,565h3.13l2,5.9a8.53,8.53,0,0,1,.35,1.82h.05a8.06,8.06,0,0,1,.41-1.82l1.94-5.9h3.06l-4.43,11.82a5.13,5.13,0,0,1-1.74,2.46,4.4,4.4,0,0,1-2.64.81,7,7,0,0,1-1.45-.15v-2.27a4.93,4.93,0,0,0,1.12.12,2,2,0,0,0,1.33-.47,2.89,2.89,0,0,0,.88-1.4l.17-.51Z" fill="#018da4"/>
    </g>
    <g>
      <path d="M246.64,401.49a2.75,2.75,0,0,1-2.22-1.25,4.18,4.18,0,0,1-.95-2.53,10.55,10.55,0,0,1,.64-3.56,12.61,12.61,0,0,1,1.62-3.15,9.5,9.5,0,0,1,2.14-2.19A3.77,3.77,0,0,1,250,388a3.21,3.21,0,0,1,2.68,1.47,5.45,5.45,0,0,1,1.08,3.31,8.61,8.61,0,0,1-1,3.87,10.83,10.83,0,0,1-2.72,3.46A5.32,5.32,0,0,1,246.64,401.49Zm2.33-2.65a10.39,10.39,0,0,0,2.16-2.8,6.58,6.58,0,0,0,.9-3.13,4.58,4.58,0,0,0-.56-2.4,1.61,1.61,0,0,0-1.34-.93,3.15,3.15,0,0,0-1.92,1.19,11.75,11.75,0,0,0-2.07,3.12,8.51,8.51,0,0,0-.92,3.7,2.94,2.94,0,0,0,.46,1.72,1.29,1.29,0,0,0,1.07.66A3.61,3.61,0,0,0,249,398.84Z" fill="#231f20"/>
      <path d="M261.75,392.12q.08-.12.33-.12c.18,0,.39.17.64.5a1.59,1.59,0,0,1,.37,1,28.53,28.53,0,0,1-.84,3c-.57,1.8-1,3.24-1.31,4.3-.15.54-.37.81-.65.81a.5.5,0,0,1-.42-.22,1.19,1.19,0,0,1-.18-.76,8.68,8.68,0,0,1,.44-2,9.65,9.65,0,0,1-1.74,2.15,2.75,2.75,0,0,1-1.72.85,2,2,0,0,1-1.47-.73,2.2,2.2,0,0,1-.69-1.5,13.07,13.07,0,0,1,1.06-4.56c.71-1.83,1.31-2.74,1.78-2.74a.79.79,0,0,1,.61.32,1.11,1.11,0,0,1,.25.72,6,6,0,0,1-.51,1.24,23.79,23.79,0,0,0-1,2.49,7.44,7.44,0,0,0-.52,2.51.72.72,0,0,0,.19.51.63.63,0,0,0,.46.2q.73,0,1.74-1.29a16.17,16.17,0,0,0,1.83-3,18.43,18.43,0,0,0,1.23-3.17A1.4,1.4,0,0,1,261.75,392.12Z" fill="#231f20"/>
      <path d="M265.18,394.35l-.05-1.44c0-.61.14-.91.42-.91a.92.92,0,0,1,.7.47,1.93,1.93,0,0,1,.34,1.12c0,.43,0,.75,0,1,1.11-1.69,2.17-2.54,3.16-2.54.63,0,1,.16,1,.46a.55.55,0,0,1-.22.43,4.06,4.06,0,0,1-.67.44,4.25,4.25,0,0,0-1.72,1.35,8.73,8.73,0,0,0-1.14,2.06c-.29.77-.53,1.42-.7,1.94l-.39,1.23a8.14,8.14,0,0,1-.31.87c-.2.51-.44.76-.71.76a.6.6,0,0,1-.53-.37,1.58,1.58,0,0,1-.2-.73,6,6,0,0,1,.33-1.41A15.27,15.27,0,0,0,265.18,394.35Z" fill="#231f20"/>
      <path d="M278.91,401.53q-.27,0-.63-.42a1.17,1.17,0,0,1-.37-.77,15.92,15.92,0,0,1,.61-2.5q.6-2.13,1.21-5.14a28.19,28.19,0,0,0,.6-5.5q0-.57.42-.57c.21,0,.46.19.75.56a1.79,1.79,0,0,1,.44,1.11,31.69,31.69,0,0,1-1,6.74q2.28-3.09,4.15-3.09a1.81,1.81,0,0,1,1.52.88,3.53,3.53,0,0,1,.63,2.1,7,7,0,0,1-.71,2.79,8.12,8.12,0,0,1-1.89,2.7,3.59,3.59,0,0,1-2.49,1.12,3.65,3.65,0,0,1-2.58-1.32v0C279.24,401.1,279,401.53,278.91,401.53Zm3-1.48a3.23,3.23,0,0,0,2.45-1.7,6.11,6.11,0,0,0,1.2-3.58q0-1.14-.69-1.14a3.7,3.7,0,0,0-2.49,1.56,15.53,15.53,0,0,0-2.37,3.71A2.51,2.51,0,0,0,282,400.05Z" fill="#231f20"/>
      <path d="M294.87,392.88a2.19,2.19,0,0,1,.25,3,.88.88,0,0,1,.23.5,11.84,11.84,0,0,1-.24,1.84c-.16.87-.26,1.44-.29,1.71s-.06.49-.09.65-.06.31-.09.47c-.06.32-.17.48-.35.48s-.42-.21-.57-.61a5.6,5.6,0,0,1-.26-1.56c-1.13,1.44-2.19,2.17-3.16,2.17a2.65,2.65,0,0,1-1.74-.76,2.15,2.15,0,0,1-.86-1.57,6.77,6.77,0,0,1,.85-2.85,11.07,11.07,0,0,1,2.19-3,3.75,3.75,0,0,1,2.53-1.33A2.08,2.08,0,0,1,294.87,392.88Zm-.71,2.5c0-1.19-.24-1.78-.71-1.78a2.67,2.67,0,0,0-1.75,1.06,10.54,10.54,0,0,0-1.69,2.41,5.13,5.13,0,0,0-.69,2.13.62.62,0,0,0,.27.53,1,1,0,0,0,.63.2,3,3,0,0,0,2-1.22,6.58,6.58,0,0,0,1.58-3,.4.4,0,0,1,.33-.35Z" fill="#231f20"/>
      <path d="M298,401.53c-.18,0-.39-.14-.64-.42a1.2,1.2,0,0,1-.36-.77,16.59,16.59,0,0,1,.6-2.5q.61-2.13,1.21-5.14a27.5,27.5,0,0,0,.61-5.5q0-.57.42-.57c.2,0,.45.19.75.56a1.85,1.85,0,0,1,.44,1.11,31.84,31.84,0,0,1-1,6.74q2.29-3.09,4.15-3.09a1.83,1.83,0,0,1,1.53.88,3.59,3.59,0,0,1,.62,2.1,7,7,0,0,1-.7,2.79,8.42,8.42,0,0,1-1.89,2.7,3.25,3.25,0,0,1-5.07-.2l0,0C298.33,401.1,298.12,401.53,298,401.53Zm3.05-1.48a3.24,3.24,0,0,0,2.45-1.7,6.11,6.11,0,0,0,1.2-3.58q0-1.14-.69-1.14a3.66,3.66,0,0,0-2.49,1.56,14.94,14.94,0,0,0-2.37,3.71A2.5,2.5,0,0,0,301.05,400.05Z" fill="#231f20"/>
      <path d="M309.61,392a.89.89,0,0,1,.69.44,1.48,1.48,0,0,1,.33.87,16.63,16.63,0,0,1-.56,2.52c-.37,1.4-.84,3-1.4,4.72-.22.64-.49,1-.82,1a.63.63,0,0,1-.47-.22.8.8,0,0,1-.19-.5,4.22,4.22,0,0,1,.15-.89c.09-.4.23-.94.42-1.61l.44-1.64c.11-.42.22-.9.34-1.43s.2-1,.28-1.29.15-.65.24-1C309.23,392.32,309.42,392,309.61,392Zm.1-2.72a1.06,1.06,0,0,1,.31-.73.85.85,0,0,1,.62-.35c.21,0,.46.26.76.78a2.84,2.84,0,0,1,.44,1.29.47.47,0,0,1-.17.35.57.57,0,0,1-.37.15,1.57,1.57,0,0,1-1-.55A1.55,1.55,0,0,1,309.71,389.28Z" fill="#231f20"/>
      <path d="M319.48,395.18a1.9,1.9,0,0,1-1.1,1.67,4.87,4.87,0,0,1-2.5.64,9.78,9.78,0,0,1-2.52-.3,5,5,0,0,0-.27,1.5,1.27,1.27,0,0,0,.41,1,2,2,0,0,0,1.36.37,6.27,6.27,0,0,0,2-.34,10.78,10.78,0,0,1,1.11-.34c.33,0,.49.13.49.39s-.39.72-1.17,1.12a5,5,0,0,1-2.28.61,3.39,3.39,0,0,1-2.44-.9,2.94,2.94,0,0,1-.94-2.25,6.41,6.41,0,0,1,.73-2.85A8,8,0,0,1,314.2,393a3.49,3.49,0,0,1,2.29-1,2.7,2.7,0,0,1,2.06,1.08A3.25,3.25,0,0,1,319.48,395.18Zm-2.9-1.66a2.22,2.22,0,0,0-1.48.74,6.47,6.47,0,0,0-1.3,1.83,7.63,7.63,0,0,0,1.74.18,4.24,4.24,0,0,0,1.71-.32c.49-.21.73-.49.73-.84a1.59,1.59,0,0,0-.47-1.05A1.28,1.28,0,0,0,316.58,393.52Z" fill="#231f20"/>
      <path d="M326,392a1.59,1.59,0,0,1,1.23.72,2.19,2.19,0,0,1,.58,1.26c0,.22-.11.33-.31.33a1.37,1.37,0,0,1-.65-.34,1.54,1.54,0,0,0-.91-.34,3.62,3.62,0,0,0-1.45.54c-.66.36-1,.74-1,1.14s.58.8,1.76,1.51a5,5,0,0,1,1.22,1.09,2.15,2.15,0,0,1,.55,1.42c0,.5-.35,1-1.05,1.48a4.2,4.2,0,0,1-2.44.72,4.47,4.47,0,0,1-2.45-.68c-.72-.44-1.07-.87-1.07-1.26a.62.62,0,0,1,.12-.4.43.43,0,0,1,.32-.14,1,1,0,0,1,.54.25,3.63,3.63,0,0,0,2.16.75,3.75,3.75,0,0,0,1.62-.26.78.78,0,0,0,.5-.69,1.28,1.28,0,0,0-.56-.92,7.3,7.3,0,0,0-1.22-.88,5.71,5.71,0,0,1-1.21-.94,1.59,1.59,0,0,1-.56-1.13c0-.68.53-1.39,1.6-2.12A5.09,5.09,0,0,1,326,392Z" fill="#231f20"/>
      <path d="M344,395.18a1.9,1.9,0,0,1-1.11,1.67,4.81,4.81,0,0,1-2.49.64,9.92,9.92,0,0,1-2.53-.3,5,5,0,0,0-.27,1.5,1.28,1.28,0,0,0,.42,1,2,2,0,0,0,1.36.37,6.32,6.32,0,0,0,2-.34c.67-.22,1-.34,1.1-.34.34,0,.5.13.5.39s-.39.72-1.17,1.12a5,5,0,0,1-2.28.61,3.39,3.39,0,0,1-2.44-.9,2.94,2.94,0,0,1-.94-2.25,6.41,6.41,0,0,1,.73-2.85,7.81,7.81,0,0,1,1.88-2.51,3.48,3.48,0,0,1,2.28-1,2.71,2.71,0,0,1,2.07,1.08A3.25,3.25,0,0,1,344,395.18Zm-2.9-1.66a2.22,2.22,0,0,0-1.48.74,6.28,6.28,0,0,0-1.3,1.83,7.63,7.63,0,0,0,1.74.18,4.28,4.28,0,0,0,1.71-.32c.49-.21.73-.49.73-.84a1.64,1.64,0,0,0-.47-1.05A1.28,1.28,0,0,0,341.1,393.52Z" fill="#231f20"/>
      <path d="M350.67,392.85c.51-.57.88-.85,1.12-.85a1.1,1.1,0,0,1,.72.31c.24.2.36.38.36.53a.49.49,0,0,1-.14.36,3.67,3.67,0,0,1-.43.4,5.44,5.44,0,0,0-.55.52c-.18.19-.4.45-.67.77l-1,1.21c-.37.48-.68.87-.93,1.16.08.12.2.31.36.58l.4.67.42.68.44.68c.11.17.22.34.32.52a1.75,1.75,0,0,1,.31.69.42.42,0,0,1-.14.32.44.44,0,0,1-.32.13c-.58,0-1.5-1-2.77-3.1q-2.51,3.1-3.05,3.1a.93.93,0,0,1-.63-.32.87.87,0,0,1-.33-.59c0-.06.14-.23.42-.52a38.42,38.42,0,0,0,2.79-3c-.59-1.05-1.09-2-1.5-2.92a6.45,6.45,0,0,1-.61-1.62,2.75,2.75,0,0,1,0-.35c0-.12.17-.18.43-.18a2.65,2.65,0,0,1,.94.23c.37.16.55.34.55.56a8.41,8.41,0,0,0,1.14,3C349.39,394.39,350.17,393.41,350.67,392.85Z" fill="#231f20"/>
      <path d="M359.45,392a1.73,1.73,0,0,1,1.44,1.05,4.37,4.37,0,0,1,.6,2.18,4.5,4.5,0,0,1-.65,2.25,8.67,8.67,0,0,1-1.62,2,9.13,9.13,0,0,1-2.12,1.47,4.81,4.81,0,0,1-2.14.59,2.52,2.52,0,0,1-.73-.1l-.27,1.17c-.12.57-.23,1-.32,1.4s-.2.77-.31,1.19c-.23.87-.44,1.31-.61,1.31s-.37-.14-.57-.41a1.32,1.32,0,0,1-.3-.74,25.56,25.56,0,0,1,.62-2.8c1.22-5,1.84-8.34,1.84-10.07q0-.57.42-.57a1.34,1.34,0,0,1,.84.51,1.61,1.61,0,0,1,.49,1.12,3.3,3.3,0,0,1-.08.67C357.12,392.69,358.28,392,359.45,392Zm-4.68,8a4.41,4.41,0,0,0,2.2-.69,6.5,6.5,0,0,0,2-1.83,3.85,3.85,0,0,0,.84-2.28q0-1.59-.75-1.59c-.5,0-1.17.43-2,1.28a9.1,9.1,0,0,0-2,3.34l-.44,1.77Z" fill="#231f20"/>
      <path d="M366.14,388.24a39,39,0,0,1-1.5,9.37c-.64,2.61-1.09,3.92-1.35,3.92s-.38-.14-.62-.43a1.18,1.18,0,0,1-.35-.65,22.94,22.94,0,0,1,.55-2.38c.37-1.43.74-3.2,1.12-5.29a32.74,32.74,0,0,0,.55-5.65.76.76,0,0,1,.08-.39.39.39,0,0,1,.33-.11q.24,0,.72.54A1.69,1.69,0,0,1,366.14,388.24Z" fill="#231f20"/>
      <path d="M367.82,395.44a7.14,7.14,0,0,1,1.74-2.47,3.39,3.39,0,0,1,2.23-1,2.36,2.36,0,0,1,1.91,1,3.72,3.72,0,0,1,.77,2.36,7,7,0,0,1-2.53,5.25,3.93,3.93,0,0,1-2.5.95,1.93,1.93,0,0,1-1.63-.91,3.77,3.77,0,0,1-.66-2.29A7.17,7.17,0,0,1,367.82,395.44Zm5-.17a3.63,3.63,0,0,0-.21-1.24,1.74,1.74,0,0,0-.62-.86,4,4,0,0,0-2.27,2.05,6.38,6.38,0,0,0-.95,3.16c0,1,.24,1.6.72,1.84a3.61,3.61,0,0,0,2.36-1.89A6.06,6.06,0,0,0,372.86,395.27Z" fill="#231f20"/>
      <path d="M376.91,394.35l-.06-1.44c0-.61.14-.91.42-.91a.9.9,0,0,1,.7.47,1.86,1.86,0,0,1,.34,1.12,7.93,7.93,0,0,1,0,1c1.11-1.69,2.17-2.54,3.17-2.54.63,0,.94.16.94.46a.57.57,0,0,1-.21.43,4.56,4.56,0,0,1-.67.44,4.18,4.18,0,0,0-1.72,1.35,8.07,8.07,0,0,0-1.14,2.06c-.3.77-.53,1.42-.71,1.94l-.39,1.23a8.14,8.14,0,0,1-.31.87c-.2.51-.44.76-.71.76a.59.59,0,0,1-.52-.37,1.48,1.48,0,0,1-.21-.73,6,6,0,0,1,.33-1.41A15,15,0,0,0,376.91,394.35Z" fill="#231f20"/>
      <path d="M389.77,395.18a1.9,1.9,0,0,1-1.1,1.67,4.87,4.87,0,0,1-2.5.64,9.78,9.78,0,0,1-2.52-.3,5,5,0,0,0-.27,1.5,1.3,1.3,0,0,0,.41,1,2.07,2.07,0,0,0,1.36.37,6.27,6.27,0,0,0,2-.34,10.78,10.78,0,0,1,1.11-.34c.33,0,.5.13.5.39s-.4.72-1.18,1.12a5,5,0,0,1-2.28.61,3.39,3.39,0,0,1-2.44-.9,2.94,2.94,0,0,1-.94-2.25,6.41,6.41,0,0,1,.73-2.85,8,8,0,0,1,1.88-2.51,3.49,3.49,0,0,1,2.29-1,2.7,2.7,0,0,1,2.06,1.08A3.25,3.25,0,0,1,389.77,395.18Zm-2.9-1.66a2.24,2.24,0,0,0-1.48.74,6.47,6.47,0,0,0-1.3,1.83,7.63,7.63,0,0,0,1.74.18,4.24,4.24,0,0,0,1.71-.32c.49-.21.73-.49.73-.84a1.59,1.59,0,0,0-.47-1.05A1.28,1.28,0,0,0,386.87,393.52Z" fill="#231f20"/>
      <path d="M250.56,420.41c0,.24.15.36.43.36a5.13,5.13,0,0,0,1.77-.41,8.59,8.59,0,0,1,1.16-.42.32.32,0,0,1,.35.37q0,.56-1.14,1.29a4,4,0,0,1-2.08.73,2.33,2.33,0,0,1-1.54-.51,1.42,1.42,0,0,1-.62-1.05,5.47,5.47,0,0,1,.23-1.37c.16-.56.38-1.3.67-2.21s.51-1.67.68-2.28a6.21,6.21,0,0,1-1.21.22.86.86,0,0,1-.61-.32.93.93,0,0,1-.29-.61c0-.3.83-.6,2.49-.88a13.52,13.52,0,0,0,.35-2.82c0-.39.13-.58.38-.58a1.37,1.37,0,0,1,.81.42,1.19,1.19,0,0,1,.48.93,8.9,8.9,0,0,1-.33,1.82c.73-.06,1.31-.1,1.75-.1.77,0,1.15.17,1.15.5s-.21.36-.62.48-1.29.33-2.62.6c-.27,1-.61,2.17-1,3.46A12.68,12.68,0,0,0,250.56,420.41Z" fill="#231f20"/>
      <path d="M258.11,408.18c0-.5.15-.75.46-.75s.5.19.78.57a2,2,0,0,1,.41,1.12,24.84,24.84,0,0,1-.62,4.25,53.45,53.45,0,0,1-1.63,6,33.7,33.7,0,0,1,3.22-5c.86-1,1.6-1.55,2.22-1.55.33,0,.72.29,1.16.87a2.82,2.82,0,0,1,.66,1.72,10.82,10.82,0,0,1-.48,2.6q-1.19,4.33-2.24,4.34c-.29,0-.43-.2-.43-.58a7.47,7.47,0,0,1,.46-1.94,15.7,15.7,0,0,0,1-4,1,1,0,0,0-.17-.58.53.53,0,0,0-.42-.23,1.14,1.14,0,0,0-.62.27,4.86,4.86,0,0,0-.88.94c-.44.58-.89,1.22-1.35,1.94l-.85,1.3c-.1.14-.26.41-.5.79l-.53.86a6.79,6.79,0,0,1-.42.6c-.29.42-.52.64-.67.64s-.36-.15-.62-.44a1.22,1.22,0,0,1-.38-.73,5.71,5.71,0,0,1,.21-1.12q1-3.69,1.21-5.05A42,42,0,0,0,258.11,408.18Z" fill="#231f20"/>
      <path d="M273.8,416a1.9,1.9,0,0,1-1.11,1.67,4.84,4.84,0,0,1-2.49.64,9.92,9.92,0,0,1-2.53-.3,5,5,0,0,0-.27,1.5,1.28,1.28,0,0,0,.42,1,2,2,0,0,0,1.36.37,6.37,6.37,0,0,0,2-.34c.67-.22,1-.34,1.1-.34.33,0,.5.13.5.39s-.39.72-1.17,1.12a5,5,0,0,1-2.29.61,3.36,3.36,0,0,1-2.43-.9,3,3,0,0,1-1-2.25,6.55,6.55,0,0,1,.73-2.85,8,8,0,0,1,1.89-2.51,3.46,3.46,0,0,1,2.28-1,2.69,2.69,0,0,1,2.06,1.08A3.22,3.22,0,0,1,273.8,416Zm-2.9-1.66a2.2,2.2,0,0,0-1.48.74,6.49,6.49,0,0,0-1.31,1.83,7.75,7.75,0,0,0,1.75.17,4.31,4.31,0,0,0,1.71-.31c.49-.21.73-.49.73-.84a1.64,1.64,0,0,0-.47-1.05A1.31,1.31,0,0,0,270.9,414.32Z" fill="#231f20"/>
      <path d="M290.19,414.84l-.13,3.61a12.41,12.41,0,0,0,.13,2.17,8.68,8.68,0,0,0,1.43-2,11.83,11.83,0,0,0,.91-2.16c.19-.66.37-1.29.51-1.87a13.78,13.78,0,0,1,.42-1.39c.12-.35.27-.52.44-.52a.88.88,0,0,1,.65.3,1,1,0,0,1,.29.68,10.54,10.54,0,0,1-.88,3.22,16.25,16.25,0,0,1-2,3.8c-.81,1.14-1.44,1.71-1.88,1.71a1.08,1.08,0,0,1-1-.74,8.41,8.41,0,0,1-.38-2.87c0-1.42,0-2.65.06-3.68a41.36,41.36,0,0,1-2.34,5.45c-.68,1.23-1.22,1.84-1.61,1.84a.89.89,0,0,1-.57-.25,1.59,1.59,0,0,1-.47-.65,16.31,16.31,0,0,1-.72-3.89c-.2-1.91-.3-3.28-.3-4.1q0-.78.48-.78a1,1,0,0,1,.78.48,2,2,0,0,1,.41.95c0,.31.08,1.18.11,2.61a24.53,24.53,0,0,0,.35,3.81,24.32,24.32,0,0,0,1.59-3.42c.53-1.37,1-2.44,1.3-3.22s.65-1.17.93-1.17a1.24,1.24,0,0,1,1,.58A2.64,2.64,0,0,1,290.19,414.84Z" fill="#231f20"/>
      <path d="M296.15,416.24a7.3,7.3,0,0,1,1.75-2.47,3.37,3.37,0,0,1,2.23-1,2.36,2.36,0,0,1,1.91,1,3.72,3.72,0,0,1,.77,2.36,6.75,6.75,0,0,1-.68,2.85,6.57,6.57,0,0,1-1.85,2.4,4,4,0,0,1-2.5.95,2,2,0,0,1-1.64-.91,3.83,3.83,0,0,1-.65-2.29A7.15,7.15,0,0,1,296.15,416.24Zm5-.17a3.63,3.63,0,0,0-.21-1.24,1.66,1.66,0,0,0-.61-.86,4,4,0,0,0-2.28,2,6.49,6.49,0,0,0-.95,3.16c0,1,.25,1.6.73,1.84a3.6,3.6,0,0,0,2.35-1.89A6,6,0,0,0,301.19,416.07Z" fill="#231f20"/>
      <path d="M305.24,415.15l-.05-1.44c0-.61.14-.91.42-.91a.92.92,0,0,1,.7.47,1.93,1.93,0,0,1,.34,1.12c0,.43,0,.75,0,1,1.11-1.69,2.17-2.54,3.17-2.54.62,0,.94.16.94.46a.57.57,0,0,1-.21.43,4.77,4.77,0,0,1-.68.44,4.16,4.16,0,0,0-1.71,1.35,8.41,8.41,0,0,0-1.15,2.06c-.29.77-.53,1.42-.7,1.94l-.39,1.23a9,9,0,0,1-.31.87c-.2.51-.44.76-.71.76a.6.6,0,0,1-.53-.37,1.58,1.58,0,0,1-.2-.73,6,6,0,0,1,.33-1.41A15.27,15.27,0,0,0,305.24,415.15Z" fill="#231f20"/>
      <path d="M314.23,409a39,39,0,0,1-1.5,9.37c-.64,2.61-1.09,3.92-1.34,3.92s-.39-.14-.63-.43a1.25,1.25,0,0,1-.35-.65,21.65,21.65,0,0,1,.56-2.38c.37-1.43.74-3.2,1.11-5.29a32.83,32.83,0,0,0,.56-5.65.77.77,0,0,1,.07-.39c.05-.08.16-.11.33-.11s.41.18.72.54A1.69,1.69,0,0,1,314.23,409Z" fill="#231f20"/>
      <path d="M323.37,407.43c.2,0,.46.19.76.56a1.78,1.78,0,0,1,.45,1.07,22,22,0,0,1-.48,2.83q-.48,2.34-1.11,4.83c-.93,3.74-1.53,5.61-1.83,5.61a.88.88,0,0,1-.58-.34.89.89,0,0,1-.32-.59,6.73,6.73,0,0,1,.13-1c-1.25,1.28-2.35,1.92-3.28,1.92a2,2,0,0,1-1.53-.77,2.42,2.42,0,0,1-.68-1.6,8,8,0,0,1,.65-2.83,9.47,9.47,0,0,1,1.85-3A3.45,3.45,0,0,1,320,412.8c.91,0,1.54.55,1.9,1.63A36.19,36.19,0,0,0,323,408Q323,407.43,323.37,407.43Zm-2.11,9.42a3.8,3.8,0,0,0-.36-1.74c-.23-.48-.52-.71-.85-.71a2.35,2.35,0,0,0-1.69,1,7.79,7.79,0,0,0-1.37,2.34,6.41,6.41,0,0,0-.51,2.27.69.69,0,0,0,.25.56.87.87,0,0,0,.59.21,3.67,3.67,0,0,0,2-1.08,6.24,6.24,0,0,0,1.85-2.53l.06-.23Z" fill="#231f20"/>
      <path d="M339.13,413.68a2.54,2.54,0,0,1,.73,1.57,2.6,2.6,0,0,1-.48,1.43.82.82,0,0,1,.23.5,11.84,11.84,0,0,1-.24,1.84c-.16.87-.25,1.44-.29,1.71s-.06.49-.08.65-.06.31-.1.47c0,.32-.17.48-.34.48s-.42-.21-.57-.61a5.26,5.26,0,0,1-.26-1.56c-1.14,1.44-2.19,2.17-3.17,2.17a2.65,2.65,0,0,1-1.74-.76A2.14,2.14,0,0,1,332,420a6.73,6.73,0,0,1,.84-2.85,11.51,11.51,0,0,1,2.19-3,3.77,3.77,0,0,1,2.54-1.33A2.06,2.06,0,0,1,339.13,413.68Zm-.71,2.5c0-1.19-.24-1.78-.71-1.78a2.7,2.7,0,0,0-1.75,1.06,11.2,11.2,0,0,0-1.69,2.41,5.13,5.13,0,0,0-.69,2.13.62.62,0,0,0,.27.53,1,1,0,0,0,.64.2,3,3,0,0,0,2-1.22,6.68,6.68,0,0,0,1.58-3,.38.38,0,0,1,.32-.35Z" fill="#231f20"/>
      <path d="M342.59,415.15l-.06-1.44c0-.61.14-.91.42-.91a.9.9,0,0,1,.7.47,1.86,1.86,0,0,1,.34,1.12,7.93,7.93,0,0,1,0,1c1.11-1.69,2.17-2.54,3.17-2.54.63,0,.94.16.94.46a.57.57,0,0,1-.21.43,4.56,4.56,0,0,1-.67.44,4.25,4.25,0,0,0-1.72,1.35,8.07,8.07,0,0,0-1.14,2.06c-.3.77-.53,1.42-.7,1.94s-.31.94-.4,1.23a9,9,0,0,1-.31.87c-.2.51-.44.76-.71.76a.59.59,0,0,1-.52-.37,1.48,1.48,0,0,1-.21-.73,6,6,0,0,1,.33-1.41A15,15,0,0,0,342.59,415.15Z" fill="#231f20"/>
      <path d="M348.55,416.24a7,7,0,0,1,1.75-2.47,3.35,3.35,0,0,1,2.22-1,2.35,2.35,0,0,1,1.91,1,3.66,3.66,0,0,1,.77,2.36,7,7,0,0,1-2.52,5.25,4,4,0,0,1-2.51.95,1.93,1.93,0,0,1-1.63-.91,3.76,3.76,0,0,1-.65-2.29A7.15,7.15,0,0,1,348.55,416.24Zm5-.17a3.63,3.63,0,0,0-.21-1.24,1.68,1.68,0,0,0-.62-.86,4,4,0,0,0-2.27,2,6.38,6.38,0,0,0-.95,3.16c0,1,.24,1.6.73,1.84a3.62,3.62,0,0,0,2.35-1.89A6,6,0,0,0,353.59,416.07Z" fill="#231f20"/>
      <path d="M363.44,412.92q.07-.12.33-.12c.18,0,.39.17.64.5a1.59,1.59,0,0,1,.37,1,28.53,28.53,0,0,1-.84,3c-.57,1.8-1,3.24-1.31,4.3-.15.54-.37.81-.65.81a.5.5,0,0,1-.42-.22,1.19,1.19,0,0,1-.18-.76,8.34,8.34,0,0,1,.45-2,9.67,9.67,0,0,1-1.75,2.15,2.75,2.75,0,0,1-1.72.85,2,2,0,0,1-1.47-.73,2.2,2.2,0,0,1-.69-1.5,13.11,13.11,0,0,1,1.07-4.56c.71-1.83,1.3-2.74,1.77-2.74a.79.79,0,0,1,.61.32,1.12,1.12,0,0,1,.26.72,6.34,6.34,0,0,1-.52,1.24,26.16,26.16,0,0,0-1,2.49,7.44,7.44,0,0,0-.52,2.51.76.76,0,0,0,.19.51.65.65,0,0,0,.46.2q.74,0,1.74-1.29a16.19,16.19,0,0,0,1.84-3,19.29,19.29,0,0,0,1.23-3.17A1.46,1.46,0,0,1,363.44,412.92Z" fill="#231f20"/>
      <path d="M370.61,414.33c.77-1,1.41-1.53,1.9-1.53a1.85,1.85,0,0,1,1.4.79,2.55,2.55,0,0,1,.66,1.67,11.6,11.6,0,0,1-.63,3.38q-1.15,3.69-2.07,3.69c-.28,0-.43-.2-.43-.58a6.61,6.61,0,0,1,.42-1.64c.27-.83.53-1.64.77-2.44a7.27,7.27,0,0,0,.35-1.81,1.72,1.72,0,0,0-.18-.89c-.12-.19-.24-.29-.37-.29a.7.7,0,0,0-.37.12,2,2,0,0,0-.43.38l-.45.53a8.92,8.92,0,0,0-.53.74c-.21.32-.39.59-.53.82s-.35.54-.61,1l-.62,1-.56.88-.54.86-.45.68c-.32.47-.58.71-.76.71s-.4-.15-.65-.44a1.25,1.25,0,0,1-.36-.75,2.38,2.38,0,0,1,.13-.52q.38-1.11.81-2.76a15.93,15.93,0,0,0,.48-3.73c0-.94.17-1.4.4-1.4a1.18,1.18,0,0,1,.85.44,1.38,1.38,0,0,1,.42,1,11.41,11.41,0,0,1-.32,2,24.9,24.9,0,0,1-.74,2.81A50.41,50.41,0,0,1,370.61,414.33Z" fill="#231f20"/>
      <path d="M384.17,407.43c.21,0,.46.19.76.56a1.78,1.78,0,0,1,.45,1.07,22,22,0,0,1-.48,2.83q-.48,2.34-1.11,4.83-1.38,5.61-1.82,5.61a.89.89,0,0,1-.59-.34.94.94,0,0,1-.32-.59,7.27,7.27,0,0,1,.14-1c-1.26,1.28-2.35,1.92-3.28,1.92a2,2,0,0,1-1.53-.77,2.37,2.37,0,0,1-.68-1.6,8,8,0,0,1,.64-2.83,9.85,9.85,0,0,1,1.85-3,3.49,3.49,0,0,1,2.58-1.35c.9,0,1.54.55,1.9,1.63a35.1,35.1,0,0,0,1.07-6.43Q383.75,407.43,384.17,407.43Zm-2.11,9.42a3.94,3.94,0,0,0-.35-1.74c-.24-.48-.52-.71-.86-.71a2.37,2.37,0,0,0-1.69,1,8.24,8.24,0,0,0-1.37,2.34,6.41,6.41,0,0,0-.51,2.27.69.69,0,0,0,.25.56.91.91,0,0,0,.6.21,3.65,3.65,0,0,0,2-1.08,6.24,6.24,0,0,0,1.85-2.53l.06-.23Z" fill="#231f20"/>
      <path d="M256.53,441.21q0,.36.42.36a5.13,5.13,0,0,0,1.78-.41,7,7,0,0,1,1.16-.41c.23,0,.34.12.34.36s-.38.8-1.14,1.29a4,4,0,0,1-2.07.73,2.35,2.35,0,0,1-1.55-.51,1.4,1.4,0,0,1-.61-1.05,5,5,0,0,1,.23-1.37c.15-.56.37-1.29.66-2.21s.51-1.67.68-2.28a6.09,6.09,0,0,1-1.21.22.84.84,0,0,1-.6-.32.9.9,0,0,1-.3-.61c0-.3.83-.6,2.49-.88a12.88,12.88,0,0,0,.35-2.82c0-.38.13-.58.38-.58a1.37,1.37,0,0,1,.81.42,1.19,1.19,0,0,1,.48.93,8.9,8.9,0,0,1-.33,1.82c.73-.06,1.32-.1,1.75-.1.77,0,1.15.17,1.15.5s-.2.36-.62.48-1.29.33-2.62.6c-.27,1-.61,2.17-1,3.46A12.28,12.28,0,0,0,256.53,441.21Z" fill="#231f20"/>
      <path d="M264.07,429c0-.5.16-.75.46-.75s.51.19.78.57a1.91,1.91,0,0,1,.41,1.12,23.85,23.85,0,0,1-.62,4.25,55.61,55.61,0,0,1-1.62,6,33.82,33.82,0,0,1,3.21-5c.87-1,1.61-1.55,2.22-1.55.33,0,.72.29,1.16.87a2.82,2.82,0,0,1,.66,1.72,10.82,10.82,0,0,1-.48,2.6q-1.19,4.33-2.24,4.34c-.28,0-.42-.2-.42-.58a7.06,7.06,0,0,1,.46-1.94,15.53,15.53,0,0,0,1-4,.93.93,0,0,0-.17-.58.51.51,0,0,0-.42-.23,1.14,1.14,0,0,0-.62.27,5.19,5.19,0,0,0-.88.94c-.43.58-.89,1.22-1.35,1.94l-.85,1.3-.5.79-.52.86c-.12.18-.26.38-.43.6-.29.43-.51.64-.67.64s-.36-.15-.61-.44a1.19,1.19,0,0,1-.39-.73,5.71,5.71,0,0,1,.21-1.12c.64-2.46,1.05-4.14,1.21-5A42,42,0,0,0,264.07,429Z" fill="#231f20"/>
      <path d="M279.76,436.78a1.9,1.9,0,0,1-1.11,1.67,4.81,4.81,0,0,1-2.49.64,9.92,9.92,0,0,1-2.53-.3,5,5,0,0,0-.27,1.5,1.28,1.28,0,0,0,.42,1,2,2,0,0,0,1.36.37,6.32,6.32,0,0,0,2-.34c.67-.22,1-.34,1.1-.34.34,0,.5.13.5.39s-.39.72-1.17,1.12a5,5,0,0,1-2.28.61,3.39,3.39,0,0,1-2.44-.9,2.94,2.94,0,0,1-.94-2.25,6.41,6.41,0,0,1,.73-2.85,7.81,7.81,0,0,1,1.88-2.51,3.48,3.48,0,0,1,2.28-1,2.71,2.71,0,0,1,2.07,1.08A3.27,3.27,0,0,1,279.76,436.78Zm-2.9-1.66a2.22,2.22,0,0,0-1.48.74,6.28,6.28,0,0,0-1.3,1.83,7.63,7.63,0,0,0,1.74.18,4.28,4.28,0,0,0,1.71-.32c.49-.21.73-.49.73-.84a1.64,1.64,0,0,0-.47-1A1.28,1.28,0,0,0,276.86,435.12Z" fill="#231f20"/>
      <path d="M293.16,433.6c.38,0,.73.27,1,.8a3.59,3.59,0,0,1,.45,1.8,12.65,12.65,0,0,1-.36,2.63,14.78,14.78,0,0,1-.95,2.95q-.58,1.35-1.17,1.35c-.27,0-.4-.18-.4-.53a12.39,12.39,0,0,1,.66-2.59,11.51,11.51,0,0,0,.66-3.29c0-.81-.12-1.22-.38-1.22s-.69.29-1.1.85a23.12,23.12,0,0,0-1.34,2c-.47.8-.73,1.22-.77,1.28l-.14.24-.19.33c-.07.11-.25.46-.54,1a13.11,13.11,0,0,1-.76,1.36c-.22.32-.41.49-.57.49a.79.79,0,0,1-.52-.31.84.84,0,0,1-.29-.58,3.84,3.84,0,0,1,.34-1.11,12.46,12.46,0,0,0,1-4.65,1.23,1.23,0,0,0-.17-.68c-.12-.18-.24-.28-.38-.28a.7.7,0,0,0-.45.19,3.73,3.73,0,0,0-.57.65c-.23.31-.44.61-.62.89s-.45.72-.81,1.32-.64,1-.83,1.32l-.64,1q-.36.57-.57.87c-.13.21-.28.43-.45.68-.34.47-.6.71-.76.71s-.36-.15-.62-.44a1.19,1.19,0,0,1-.39-.65,2.59,2.59,0,0,1,.08-.55c.05-.21.11-.42.17-.63s.14-.51.26-.91.27-.88.43-1.42a12,12,0,0,0,.36-2.25c.08-.95.14-1.65.18-2.09s.15-.66.33-.66a1.17,1.17,0,0,1,.84.44,1.32,1.32,0,0,1,.41.88,20.72,20.72,0,0,1-1.27,5.57c1.43-2.69,2.34-4.28,2.71-4.78s.69-.9,1-1.21a2.1,2.1,0,0,1,1.51-.83c.31,0,.68.27,1.11.8a2.54,2.54,0,0,1,.64,1.6,10.28,10.28,0,0,1-.23,2Q291.32,433.61,293.16,433.6Z" fill="#231f20"/>
      <path d="M311.38,436.78a1.9,1.9,0,0,1-1.1,1.67,4.87,4.87,0,0,1-2.5.64,9.78,9.78,0,0,1-2.52-.3,5,5,0,0,0-.27,1.5,1.27,1.27,0,0,0,.41,1,2,2,0,0,0,1.36.37,6.27,6.27,0,0,0,2-.34,10.78,10.78,0,0,1,1.11-.34c.33,0,.49.13.49.39s-.39.72-1.17,1.12a5,5,0,0,1-2.28.61,3.39,3.39,0,0,1-2.44-.9,2.94,2.94,0,0,1-.94-2.25,6.41,6.41,0,0,1,.73-2.85,8,8,0,0,1,1.88-2.51,3.49,3.49,0,0,1,2.29-1,2.7,2.7,0,0,1,2.06,1.08A3.27,3.27,0,0,1,311.38,436.78Zm-2.9-1.66a2.22,2.22,0,0,0-1.48.74,6.47,6.47,0,0,0-1.3,1.83,7.63,7.63,0,0,0,1.74.18,4.24,4.24,0,0,0,1.71-.32c.49-.21.73-.49.73-.84a1.59,1.59,0,0,0-.47-1A1.28,1.28,0,0,0,308.48,435.12Z" fill="#231f20"/>
      <path d="M319,433.6a1,1,0,0,1,.64.24.69.69,0,0,1,.3.53,16.82,16.82,0,0,1-1.39,3.59c-.93,2.05-1.58,3.43-2,4.14s-.74,1.06-1,1.06a1,1,0,0,1-.62-.36,2.34,2.34,0,0,1-.53-.79,23.34,23.34,0,0,1-1.12-3.9,20.92,20.92,0,0,1-.59-3.93c0-.39.11-.58.34-.58a1.41,1.41,0,0,1,.87.36,1.79,1.79,0,0,1,.61.89c0,.21.09.72.15,1.54a17,17,0,0,0,.93,4.66c.34-.74.78-1.79,1.32-3.16s1-2.41,1.32-3.16S318.8,433.6,319,433.6Z" fill="#231f20"/>
      <path d="M328.12,436.78a1.9,1.9,0,0,1-1.1,1.67,4.87,4.87,0,0,1-2.5.64,9.84,9.84,0,0,1-2.52-.3,5,5,0,0,0-.27,1.5,1.3,1.3,0,0,0,.41,1,2.08,2.08,0,0,0,1.37.37,6.26,6.26,0,0,0,1.95-.34c.68-.22,1-.34,1.11-.34.33,0,.5.13.5.39s-.39.72-1.17,1.12a5,5,0,0,1-2.29.61,3.39,3.39,0,0,1-2.44-.9,3,3,0,0,1-.94-2.25,6.55,6.55,0,0,1,.73-2.85,8.11,8.11,0,0,1,1.88-2.51,3.49,3.49,0,0,1,2.29-1,2.7,2.7,0,0,1,2.06,1.08A3.27,3.27,0,0,1,328.12,436.78Zm-2.9-1.66a2.2,2.2,0,0,0-1.47.74,6.3,6.3,0,0,0-1.31,1.83,7.66,7.66,0,0,0,1.75.18,4.31,4.31,0,0,0,1.71-.32c.48-.21.73-.49.73-.84a1.64,1.64,0,0,0-.47-1A1.31,1.31,0,0,0,325.22,435.12Z" fill="#231f20"/>
      <path d="M330.25,436l-.05-1.44c0-.61.14-.91.42-.91a.92.92,0,0,1,.7.47,1.93,1.93,0,0,1,.34,1.12c0,.43,0,.75,0,1,1.11-1.69,2.17-2.54,3.17-2.54.62,0,.94.16.94.46a.57.57,0,0,1-.21.43,4.77,4.77,0,0,1-.68.44,4.25,4.25,0,0,0-1.72,1.35,8.73,8.73,0,0,0-1.14,2.06c-.29.77-.53,1.42-.7,1.94l-.39,1.23a8.14,8.14,0,0,1-.31.87c-.2.51-.44.76-.71.76a.6.6,0,0,1-.53-.37,1.58,1.58,0,0,1-.2-.73,6,6,0,0,1,.33-1.41A15.27,15.27,0,0,0,330.25,436Z" fill="#231f20"/>
      <path d="M343,433.6c.21,0,.43.15.67.45a1.63,1.63,0,0,1,.35,1,14.46,14.46,0,0,1-.78,2.61c-.53,1.49-.89,2.5-1.07,3l-.75,2.11c-.31.88-.62,1.73-.91,2.56-.64,1.83-1.6,2.75-2.88,2.75a3.71,3.71,0,0,1-2.09-.66c-.67-.45-1-.9-1-1.38a1,1,0,0,1,.24-.59c.16-.22.3-.33.41-.33s.3.14.56.42c.74.85,1.37,1.27,1.9,1.27s.75-.35,1.07-1.05a22,22,0,0,0,.92-2.36c.28-.87.44-1.36.48-1.45s.07-.2.11-.34.09-.27.12-.39c-.9,1.25-1.8,1.87-2.68,1.87a2,2,0,0,1-1.49-.75,2.52,2.52,0,0,1-.68-1.77,10.18,10.18,0,0,1,.5-2.74,15.14,15.14,0,0,1,1.17-3c.45-.84.81-1.27,1.09-1.27a.9.9,0,0,1,.65.32,1,1,0,0,1,.29.64,4.22,4.22,0,0,1-.5,1.37,12.53,12.53,0,0,0-1.55,4.95.72.72,0,0,0,.19.51.63.63,0,0,0,.46.2q.69,0,1.65-1.23a15.8,15.8,0,0,0,1.77-2.92,31.85,31.85,0,0,0,1.4-3.63C342.63,433.67,342.76,433.6,343,433.6Z" fill="#231f20"/>
      <path d="M360.38,428.23c.2,0,.46.19.76.56a1.78,1.78,0,0,1,.45,1.07,22,22,0,0,1-.48,2.83c-.32,1.56-.69,3.17-1.12,4.83q-1.38,5.61-1.82,5.61a1.21,1.21,0,0,1-.9-.93,6.89,6.89,0,0,1,.13-1c-1.25,1.28-2.35,1.92-3.28,1.92a2,2,0,0,1-1.53-.77,2.42,2.42,0,0,1-.68-1.6,8.2,8.2,0,0,1,.64-2.83,9.68,9.68,0,0,1,1.86-3A3.45,3.45,0,0,1,357,433.6c.91,0,1.54.55,1.9,1.63A36.19,36.19,0,0,0,360,428.8Q360,428.23,360.38,428.23Zm-2.11,9.42a3.8,3.8,0,0,0-.36-1.74c-.24-.48-.52-.71-.85-.71a2.35,2.35,0,0,0-1.69,1,8,8,0,0,0-1.38,2.34,6.59,6.59,0,0,0-.5,2.27.69.69,0,0,0,.25.56.87.87,0,0,0,.59.21,3.7,3.7,0,0,0,2-1.08,6.24,6.24,0,0,0,1.85-2.53l.06-.23Z" fill="#231f20"/>
      <path d="M368.44,434.48a2.54,2.54,0,0,1,.73,1.57,2.58,2.58,0,0,1-.48,1.43.82.82,0,0,1,.23.5,11.84,11.84,0,0,1-.24,1.84c-.16.87-.25,1.44-.29,1.71s-.06.49-.08.65-.06.31-.1.47c0,.32-.16.48-.34.48s-.42-.21-.57-.61A5.26,5.26,0,0,1,367,441c-1.14,1.44-2.19,2.17-3.17,2.17a2.61,2.61,0,0,1-1.73-.76,2.15,2.15,0,0,1-.86-1.57,6.63,6.63,0,0,1,.85-2.85,11.25,11.25,0,0,1,2.18-3,3.79,3.79,0,0,1,2.54-1.33A2.06,2.06,0,0,1,368.44,434.48Zm-.71,2.5c0-1.19-.23-1.78-.71-1.78a2.7,2.7,0,0,0-1.75,1.06,11.2,11.2,0,0,0-1.69,2.41,5.13,5.13,0,0,0-.69,2.13.62.62,0,0,0,.27.53,1,1,0,0,0,.64.2,3,3,0,0,0,2-1.22,6.68,6.68,0,0,0,1.58-3,.38.38,0,0,1,.32-.35Z" fill="#231f20"/>
      <path d="M378.25,433.6c.21,0,.43.15.67.45a1.63,1.63,0,0,1,.35,1,14,14,0,0,1-.79,2.61c-.52,1.49-.88,2.5-1.06,3l-.75,2.11c-.31.88-.62,1.73-.91,2.56-.64,1.83-1.6,2.75-2.88,2.75a3.71,3.71,0,0,1-2.09-.66c-.67-.45-1-.9-1-1.38a1,1,0,0,1,.24-.59c.16-.22.29-.33.41-.33s.3.14.56.42c.74.85,1.37,1.27,1.9,1.27s.75-.35,1.07-1.05a20.15,20.15,0,0,0,.91-2.36l.48-1.45c0-.09.07-.2.12-.34s.09-.27.12-.39c-.9,1.25-1.8,1.87-2.68,1.87a2,2,0,0,1-1.49-.75,2.52,2.52,0,0,1-.68-1.77,10.18,10.18,0,0,1,.5-2.74,15.14,15.14,0,0,1,1.17-3c.44-.84.81-1.27,1.09-1.27a.87.87,0,0,1,.64.32,1,1,0,0,1,.3.64,4.22,4.22,0,0,1-.5,1.37,12.53,12.53,0,0,0-1.55,4.95.72.72,0,0,0,.19.51.63.63,0,0,0,.46.2q.69,0,1.65-1.23a15.8,15.8,0,0,0,1.77-2.92,31.85,31.85,0,0,0,1.4-3.63C377.92,433.67,378.05,433.6,378.25,433.6Z" fill="#231f20"/>
    </g>
    <rect x="44.6" y="264.87" width="370.29" height="72" fill="#029ab3"/>
    <line x1="44.6" y1="280.23" x2="414.89" y2="280.23" fill="none" stroke="#029ab3" stroke-miterlimit="10" stroke-width="1.6"/>
    <g>
      <path d="M96.23,294.33h-2.9V283H89.61v-2.42H100V283H96.23Z" fill="#fff"/>
      <path d="M106.58,294.52a5.41,5.41,0,0,1-4-1.4,5.28,5.28,0,0,1-1.43-3.95,5.82,5.82,0,0,1,1.32-4.08,4.69,4.69,0,0,1,3.64-1.44,4.59,4.59,0,0,1,3.46,1.27,4.77,4.77,0,0,1,1.24,3.5v1.38H104.1a2.76,2.76,0,0,0,.72,1.91,2.57,2.57,0,0,0,1.9.68,8,8,0,0,0,1.79-.2,9.3,9.3,0,0,0,1.76-.62v2.21a7.22,7.22,0,0,1-1.6.56A10.35,10.35,0,0,1,106.58,294.52Zm-.4-8.83a1.82,1.82,0,0,0-1.42.57,2.65,2.65,0,0,0-.59,1.64h4a2.37,2.37,0,0,0-.56-1.64A1.86,1.86,0,0,0,106.18,285.69Z" fill="#fff"/>
      <path d="M119.84,294.33l-.55-1.42h-.08a4.32,4.32,0,0,1-1.48,1.26,4.91,4.91,0,0,1-2,.35,3.24,3.24,0,0,1-2.37-.86,3.33,3.33,0,0,1-.87-2.46,2.77,2.77,0,0,1,1.17-2.46,6.78,6.78,0,0,1,3.52-.88l1.82-.05v-.46a1.43,1.43,0,0,0-1.63-1.6,7.56,7.56,0,0,0-3,.76l-.94-1.93a8.51,8.51,0,0,1,4-.95,5,5,0,0,1,3.23.92,3.42,3.42,0,0,1,1.13,2.8v7Zm-.84-4.86-1.11,0A3.67,3.67,0,0,0,116,290a1.44,1.44,0,0,0-.6,1.26c0,.8.46,1.21,1.38,1.21a2.2,2.2,0,0,0,1.59-.57,2,2,0,0,0,.6-1.52Z" fill="#fff"/>
      <path d="M129,294.52q-4.91,0-4.9-5.37a5.74,5.74,0,0,1,1.34-4.09,5,5,0,0,1,3.81-1.41,7.2,7.2,0,0,1,3.26.72l-.84,2.21q-.68-.27-1.26-.45a4.17,4.17,0,0,0-1.16-.17c-1.49,0-2.23,1.06-2.23,3.17s.74,3.07,2.23,3.07a5,5,0,0,0,1.53-.22,5.1,5.1,0,0,0,1.41-.69v2.45a4.68,4.68,0,0,1-1.41.61A7.94,7.94,0,0,1,129,294.52Z" fill="#fff"/>
      <path d="M144.33,294.33h-2.86v-6.12c0-1.51-.56-2.27-1.69-2.27a1.89,1.89,0,0,0-1.73.82,4.91,4.91,0,0,0-.54,2.64v4.93h-2.86V279.74h2.86v3c0,.23,0,.77-.06,1.63l-.07.84h.15a3.33,3.33,0,0,1,3-1.54,3.69,3.69,0,0,1,2.8,1,3.93,3.93,0,0,1,1,2.85Z" fill="#fff"/>
      <path d="M152,294.52a5.42,5.42,0,0,1-4-1.4,5.28,5.28,0,0,1-1.43-3.95,5.82,5.82,0,0,1,1.32-4.08,4.69,4.69,0,0,1,3.64-1.44,4.58,4.58,0,0,1,3.46,1.27,4.77,4.77,0,0,1,1.24,3.5v1.38h-6.76a2.76,2.76,0,0,0,.72,1.91,2.57,2.57,0,0,0,1.9.68,7.92,7.92,0,0,0,1.79-.2,9.3,9.3,0,0,0,1.76-.62v2.21a7,7,0,0,1-1.6.56A10.32,10.32,0,0,1,152,294.52Zm-.41-8.83a1.82,1.82,0,0,0-1.42.57,2.65,2.65,0,0,0-.59,1.64h4a2.42,2.42,0,0,0-.55-1.64A1.9,1.9,0,0,0,151.61,285.69Z" fill="#fff"/>
      <path d="M164.47,283.65a4.35,4.35,0,0,1,1,.09l-.21,2.68a3.48,3.48,0,0,0-.85-.1,3,3,0,0,0-2.13.71,2.53,2.53,0,0,0-.76,2v5.33h-2.86V283.85h2.16l.42,1.76h.14a4,4,0,0,1,1.32-1.42A3.25,3.25,0,0,1,164.47,283.65Z" fill="#fff"/>
      <path d="M174.65,291.22a2.89,2.89,0,0,1-1.12,2.45,5.5,5.5,0,0,1-3.35.85,9.82,9.82,0,0,1-2-.16,7,7,0,0,1-1.51-.45v-2.36a9.39,9.39,0,0,0,1.79.62,7.27,7.27,0,0,0,1.76.26q1.56,0,1.56-.9a.74.74,0,0,0-.21-.55,3.27,3.27,0,0,0-.71-.48c-.34-.18-.79-.38-1.35-.62a8.46,8.46,0,0,1-1.78-.94,2.75,2.75,0,0,1-.83-1,3.29,3.29,0,0,1-.25-1.37,2.49,2.49,0,0,1,1.08-2.16,5.25,5.25,0,0,1,3.07-.77,8.7,8.7,0,0,1,3.68.83l-.86,2.06a15.22,15.22,0,0,0-1.47-.55,4.45,4.45,0,0,0-1.4-.22q-1.26,0-1.26.69a.79.79,0,0,0,.41.66,10.57,10.57,0,0,0,1.78.84,8.57,8.57,0,0,1,1.8.92,2.86,2.86,0,0,1,.85,1A3,3,0,0,1,174.65,291.22Z" fill="#fff"/>
      <path d="M96.39,316.73V303H99.3v11.31h5.56v2.4Z" fill="#fff"/>
      <path d="M111.76,316.92a5.42,5.42,0,0,1-4-1.4,5.28,5.28,0,0,1-1.42-3.95,5.82,5.82,0,0,1,1.32-4.08,4.67,4.67,0,0,1,3.64-1.44,4.61,4.61,0,0,1,3.46,1.27,4.8,4.8,0,0,1,1.23,3.5v1.38h-6.76a2.81,2.81,0,0,0,.73,1.91,2.56,2.56,0,0,0,1.89.68,7.92,7.92,0,0,0,1.79-.2,9.3,9.3,0,0,0,1.76-.62v2.21a7,7,0,0,1-1.6.56A10.25,10.25,0,0,1,111.76,316.92Zm-.4-8.83a1.82,1.82,0,0,0-1.43.57,2.71,2.71,0,0,0-.59,1.64h4a2.37,2.37,0,0,0-.55-1.64A1.89,1.89,0,0,0,111.36,308.09Z" fill="#fff"/>
      <path d="M125,316.73l-.56-1.42h-.07a4.34,4.34,0,0,1-1.49,1.26,4.86,4.86,0,0,1-2,.35,3.25,3.25,0,0,1-2.38-.86,3.32,3.32,0,0,1-.86-2.46,2.76,2.76,0,0,1,1.16-2.46,6.78,6.78,0,0,1,3.52-.88l1.82-.05v-.46a1.42,1.42,0,0,0-1.63-1.6,7.51,7.51,0,0,0-3,.76l-1-1.93a8.53,8.53,0,0,1,4-1,5,5,0,0,1,3.24.92,3.42,3.42,0,0,1,1.12,2.8v7Zm-.85-4.86-1.1,0a3.64,3.64,0,0,0-1.86.45,1.42,1.42,0,0,0-.61,1.26c0,.8.46,1.21,1.39,1.21a2.21,2.21,0,0,0,1.59-.57,2,2,0,0,0,.59-1.52Z" fill="#fff"/>
      <path d="M133.27,316.92a3.41,3.41,0,0,1-2.9-1.44,8.06,8.06,0,0,1,0-8,3.49,3.49,0,0,1,3-1.44,3.44,3.44,0,0,1,3,1.54h.09a12,12,0,0,1-.21-2.09v-3.36h2.87v14.59h-2.2l-.55-1.36h-.12A3.28,3.28,0,0,1,133.27,316.92Zm1-2.28a1.94,1.94,0,0,0,1.61-.64,3.68,3.68,0,0,0,.55-2.16v-.31a4.26,4.26,0,0,0-.52-2.42,1.91,1.91,0,0,0-1.69-.73,1.66,1.66,0,0,0-1.48.81,4.28,4.28,0,0,0-.53,2.36,4.08,4.08,0,0,0,.53,2.32A1.77,1.77,0,0,0,134.28,314.64Z" fill="#fff"/>
      <path d="M142,303.54c0-.93.52-1.4,1.56-1.4s1.56.47,1.56,1.4a1.38,1.38,0,0,1-.39,1,1.67,1.67,0,0,1-1.17.37Q142,305,142,303.54Zm3,13.19h-2.86V306.25H145Z" fill="#fff"/>
      <path d="M157.64,316.73h-2.86v-6.12a2.92,2.92,0,0,0-.4-1.7,1.47,1.47,0,0,0-1.29-.57,1.94,1.94,0,0,0-1.73.8,4.94,4.94,0,0,0-.54,2.66v4.93H148V306.25h2.18l.38,1.34h.16a3,3,0,0,1,1.32-1.15,4.5,4.5,0,0,1,1.91-.39,3.65,3.65,0,0,1,2.77,1,4,4,0,0,1,.95,2.86Z" fill="#fff"/>
      <path d="M169.71,306.25v1.45l-1.64.42a2.88,2.88,0,0,1,.45,1.58,3.2,3.2,0,0,1-1.18,2.63,5.09,5.09,0,0,1-3.27.94l-.51,0-.43,0a1,1,0,0,0-.44.75c0,.41.53.62,1.58.62h1.78a4,4,0,0,1,2.63.74,2.63,2.63,0,0,1,.9,2.17,3.22,3.22,0,0,1-1.53,2.85,7.94,7.94,0,0,1-4.4,1,6.09,6.09,0,0,1-3.35-.76,2.43,2.43,0,0,1-1.16-2.14,2.28,2.28,0,0,1,.59-1.59,3.36,3.36,0,0,1,1.74-.91,1.87,1.87,0,0,1-.77-.61,1.48,1.48,0,0,1-.33-.91,1.4,1.4,0,0,1,.35-1,3.91,3.91,0,0,1,1-.79,2.79,2.79,0,0,1-1.31-1.14,3.5,3.5,0,0,1-.48-1.86A3.29,3.29,0,0,1,161,307a4.87,4.87,0,0,1,3.19-.94,9,9,0,0,1,1.05.08c.4.06.66.09.77.12Zm-8.09,12a1,1,0,0,0,.56.93,3.08,3.08,0,0,0,1.59.34,5.63,5.63,0,0,0,2.41-.42,1.3,1.3,0,0,0,.87-1.16.81.81,0,0,0-.51-.81,4.26,4.26,0,0,0-1.6-.23h-1.48a2.27,2.27,0,0,0-1.31.37A1.14,1.14,0,0,0,161.62,318.21Zm1-8.53A2.19,2.19,0,0,0,163,311a1.43,1.43,0,0,0,1.19.5,1.38,1.38,0,0,0,1.18-.5,2.19,2.19,0,0,0,.38-1.35q0-1.89-1.56-1.89C163.18,307.79,162.66,308.42,162.66,309.68Z" fill="#fff"/>
    </g>
    <g>
      <path d="M280.5,307.25h-2.86v-13.7h7.85v2.38h-5v3.53h4.65v2.38H280.5Z" fill="#fff"/>
      <path d="M293.8,296.58a4.3,4.3,0,0,1,1,.08l-.21,2.68a3.37,3.37,0,0,0-.84-.09,3,3,0,0,0-2.14.7,2.55,2.55,0,0,0-.76,2v5.33H288V296.77h2.16l.43,1.77h.14a3.89,3.89,0,0,1,1.31-1.42A3.28,3.28,0,0,1,293.8,296.58Z" fill="#fff"/>
      <path d="M301.41,307.44a5.39,5.39,0,0,1-4-1.39,5.31,5.31,0,0,1-1.43-4,5.79,5.79,0,0,1,1.32-4.07,4.69,4.69,0,0,1,3.64-1.44,4.64,4.64,0,0,1,3.46,1.26,4.82,4.82,0,0,1,1.24,3.5v1.39h-6.76a2.75,2.75,0,0,0,.72,1.9,2.52,2.52,0,0,0,1.89.68,7.92,7.92,0,0,0,1.79-.19,8.79,8.79,0,0,0,1.77-.63v2.21a6.67,6.67,0,0,1-1.61.56A10.25,10.25,0,0,1,301.41,307.44Zm-.4-8.83a1.81,1.81,0,0,0-1.43.58,2.68,2.68,0,0,0-.59,1.63h4a2.39,2.39,0,0,0-.56-1.63A1.85,1.85,0,0,0,301,298.61Z" fill="#fff"/>
      <path d="M312.76,307.44a5.42,5.42,0,0,1-4-1.39,5.31,5.31,0,0,1-1.43-4,5.79,5.79,0,0,1,1.32-4.07,4.69,4.69,0,0,1,3.64-1.44,4.62,4.62,0,0,1,3.46,1.26,4.78,4.78,0,0,1,1.24,3.5v1.39h-6.76a2.75,2.75,0,0,0,.72,1.9,2.53,2.53,0,0,0,1.9.68,8,8,0,0,0,1.79-.19,8.72,8.72,0,0,0,1.76-.63v2.21a6.6,6.6,0,0,1-1.6.56A10.32,10.32,0,0,1,312.76,307.44Zm-.41-8.83a1.79,1.79,0,0,0-1.42.58,2.62,2.62,0,0,0-.59,1.63h4a2.39,2.39,0,0,0-.55-1.63A1.87,1.87,0,0,0,312.35,298.61Z" fill="#fff"/>
      <path d="M334,297.82a4.17,4.17,0,0,1-1.39,3.39,5.91,5.91,0,0,1-3.93,1.17h-1.25v4.87h-2.9v-13.7H329a5.86,5.86,0,0,1,3.79,1.07A3.93,3.93,0,0,1,334,297.82ZM327.47,300h1a3.24,3.24,0,0,0,2-.53,2.21,2.21,0,0,0,.1-3.05,2.56,2.56,0,0,0-1.74-.49h-1.33Z" fill="#fff"/>
      <path d="M339.26,307.25H336.4V292.67h2.86Z" fill="#fff"/>
      <path d="M348.91,307.25l-.55-1.42h-.07a4.13,4.13,0,0,1-1.49,1.26,4.7,4.7,0,0,1-2,.35,3.25,3.25,0,0,1-2.38-.86,3.31,3.31,0,0,1-.87-2.46,2.77,2.77,0,0,1,1.17-2.46,6.69,6.69,0,0,1,3.52-.87l1.82-.06v-.46a1.42,1.42,0,0,0-1.63-1.59,7.35,7.35,0,0,0-2.95.76l-.95-1.94a8.53,8.53,0,0,1,4-.94,5,5,0,0,1,3.24.92,3.38,3.38,0,0,1,1.12,2.79v7Zm-.84-4.85-1.11,0a3.41,3.41,0,0,0-1.85.45,1.39,1.39,0,0,0-.61,1.25c0,.81.46,1.21,1.39,1.21a2.21,2.21,0,0,0,1.59-.57,2,2,0,0,0,.59-1.52Z" fill="#fff"/>
      <path d="M352.35,296.77h3.14l2,5.9a8,8,0,0,1,.35,1.82h.06a8.18,8.18,0,0,1,.4-1.82l1.94-5.9h3.07l-4.44,11.83a5,5,0,0,1-1.74,2.45,4.34,4.34,0,0,1-2.64.82,7.08,7.08,0,0,1-1.45-.16v-2.27a5,5,0,0,0,1.13.12,2,2,0,0,0,1.32-.46,3,3,0,0,0,.89-1.4l.17-.52Z" fill="#fff"/>
    </g>
    <line x1="223.56" y1="338.04" x2="223.56" y2="515.12" fill="none" stroke="#029ab3" stroke-miterlimit="10" stroke-width="2.12"/>
    <line x1="223.56" y1="267.36" x2="223.56" y2="331.5" fill="none" stroke="#fff" stroke-miterlimit="10" stroke-width="1.95"/>
  </g>
</svg>
