<svg xmlns="http://www.w3.org/2000/svg" viewBox="0 0 350.99 229.9">
  <title>_</title>
  <g>
    <polygon points="1.91 226.44 64.06 162.96 343.61 162.96 293 226.53 1.91 226.44" fill="#e10000"/>
    <path d="M164.72,166.86C163.17,154.79,154,139.22,154,139.22H97.4s-9.13,15.57-10.68,27.64,4.22,21.9,29.38,22.4c4.29.08,15,.08,19.25,0C160.5,188.76,166.28,178.92,164.72,166.86Z" fill="#50311d"/>
    <path d="M183.14,103.25c1.09-2.24-10.15-1.73-11.08-5.48A121.79,121.79,0,0,0,161.5,70.68c-2.55-4.86-9-7.16-10.91-7.74l-.33,30.16c1,2.93,9.48,22.22,17.63,23.94C172.28,118,179.18,111.37,183.14,103.25Z" fill="#efb47f"/>
    <path d="M76.7,114.66a9,9,0,0,0,12.87-2.5c3.8-6,9.27-16.13,10.23-19.06l-.33-30.16c-1.89.58-8.35,2.88-10.9,7.74-2.83,5.4-7.51,18.41-11.72,28.68-.74,1.79-10.68,2.15-9.82,4.21C70.39,111.63,72.69,111.7,76.7,114.66Z" fill="#efb47f"/>
    <path d="M101.42,114.71c-.17,5.33-7.85,29.35-8.74,33.72a75.32,75.32,0,0,0,33.76,8.18,92.59,92.59,0,0,0,33.3-6c-1.57-6.39-10.63-32.27-10.63-35.31,0-15.51,3-19.46,3.7-25.59.75-6.64-1.43-26.67-1.43-26.67l-14.23-5.77S126.37,71,116.69,56.84L99.31,62.78s-2.15,19.08,0,28.13C100.87,97.25,101.63,108.3,101.42,114.71Z" fill="#5c4268"/>
    <g>
      <path d="M108.37,166c.72,8.3-4.29,15.7-8.33,23.5,19.94,4.56,41.1,7.47,41.1,7.47l3.48-16.48Z" fill="#efb47f"/>
      <path d="M108.37,166s-10.17-6-16.68-9.51c-11.46-6.2-33-18.17-38.6-4.91s-.19,21.52,24.8,31.19a199.28,199.28,0,0,0,24.75,7.37C106.93,182.13,109.58,174.37,108.37,166Z" fill="#824d2d"/>
      <path d="M143.88,196.88c2.43-.43,14.46,2.62,23.48,6.89s12.88,4.27,15,2.13,8.79-11.51.2-15.37c-4.08-1.84-10-3.89-17.13-6.54-7.74-2.85-18.09-2.56-18.09-2.56Z" fill="#e5913b"/>
      <path d="M138.82,178.12a66.18,66.18,0,0,1-1.84,12,9.71,9.71,0,0,1-3.62,5.43c.24,1.4,1.3,4.4,4.85,3.21,4.28-1.44,6.27,1.87,8.31-3.28s4.75-11.88,3.36-14c-1-1.5-3.15-1.59-5.26-2.6C142.11,177.63,139,175.54,138.82,178.12Z" fill="#d17a2c"/>
    </g>
    <g>
      <path d="M144,166c-.73,8.3,4.29,15.7,8.33,23.5-19.94,4.56-41.1,7.47-41.1,7.47l-3.49-16.48Z" fill="#ffcd9c"/>
      <path d="M144,166s10.16-6,16.68-9.51c11.46-6.2,33-18.17,38.59-4.91s.19,21.52-24.79,31.19a199.79,199.79,0,0,1-24.75,7.37C145.39,182.13,142.75,174.37,144,166Z" fill="#824d2d"/>
      <path d="M108.44,196.88C106,196.45,94,199.5,85,203.77s-12.89,4.27-15,2.13-8.79-11.51-.2-15.37c4.09-1.84,10-3.89,17.14-6.54,7.74-2.85,18.08-2.56,18.08-2.56Z" fill="#e5913b"/>
      <path d="M113.51,178.12a67,67,0,0,0,1.83,12,9.81,9.81,0,0,0,3.62,5.43c-.24,1.4-1.3,4.4-4.84,3.21-4.28-1.44-6.27,1.87-8.32-3.28s-4.74-11.88-3.36-14c1-1.5,3.15-1.59,5.26-2.6C110.21,177.63,113.33,175.54,113.51,178.12Z" fill="#d17a2c"/>
    </g>
    <g>
      <path d="M165.33,99.36A188.07,188.07,0,0,0,180.8,76.58c5.74-10.13,9.11-15,9.11-15l8.47,4.23s-6.48,15.67-9.85,24.82-5.72,15.29-11.05,21.11C174.45,115,165.33,99.36,165.33,99.36Z" fill="#efb47f"/>
      <path d="M198.38,68.37s2.28,4.55,4.42,8.71,7.1.79,4.42-4.16a59.63,59.63,0,0,0-5.59-8.5Z" fill="#9aa02e"/>
      <path d="M195.62,40.44c-3.16,2.13-4.73,8.93-8.29,16.74C182.45,67.87,176,80,176,80a12.28,12.28,0,0,0,6.86,8.46,24,24,0,0,0,11.44,2.31l9.11-26.81c2.82.71,5.18,1.21,5.71-.59.61-2-1.35-7.72-1.35-7.72s8.17,7.39,10.52,0C221,47,203.69,35,195.62,40.44Z" fill="#b3bd45"/>
      <path d="M200.76,41.67c-1.78.41-1.29,5.81,2.84,6.6s6.61-1.61,3.86-4.75C205.65,41.45,202.45,41.28,200.76,41.67Z" fill="#fff"/>
      <path d="M204.66,44.44c-1.19.11-.7,2.34.59,2.54s1.49-.2,1.39-1.24S205.34,44.38,204.66,44.44Z" fill="#713618"/>
      <path d="M180.27,71.69s-4.07,3.12-6.2,4.7a14,14,0,0,1-6.18,2.9L175.45,81l-3,6.45,6.77-.7,1.71,7.82s4.09-2.92,5.44-4c.13,2.91,2.88,7.18,2.88,7.18a77.32,77.32,0,0,0,3.72-7c1.19,1.86,4.83,7,4.83,7s.61-5.35.61-8.71a58.65,58.65,0,0,0-.79-8.13s-6.78,3.62-11.12,1.13A12.71,12.71,0,0,1,180.27,71.69Z" fill="#979d37"/>
      <path d="M189.31,56s-5.15-4.75-8.71-6.14-5.74.79-3.17,4.36S186,61.54,186,61.54,189.51,63.12,189.31,56Z" fill="#9aa02e"/>
    </g>
    <path d="M143,59.65s-7.12-2.2-8.48-5.73c-1.79-4.66,0-13.14,0-13.14H118.38s.37,8.16,0,13.14C118.05,58.29,111,61,111,61a19.72,19.72,0,0,0,11.48,7.76c.69.42,7.22.42,7.92,0C138.29,66.8,143,59.65,143,59.65Z" fill="#efb47f"/>
    <path d="M117.93,39.61c-.15-3.52.95-8.91-6.52-4.93-11,5.88-3.61,20.66-6.7,23.41a7.65,7.65,0,0,1-9.49.83s3.47,10.31,15.2,7.08S118.32,48.87,117.93,39.61Z" fill="#824820"/>
    <path d="M110.93,26.43s-2.28-1.21-3.75,1.74,1.25,7.64,3.79,7.77S110.93,26.43,110.93,26.43Z" fill="#ffcd9c"/>
    <path d="M142.31,24.93s2.43-.86,3.45,2.27-2.34,7.38-4.88,7.14S142.31,24.93,142.31,24.93Z" fill="#f6d3a9"/>
    <g>
      <path d="M137.69,43.7c7.7-3,17.3-41.16-9.11-40.93C114.34-.74,106.38,12.23,107,21.93,108.51,46,120.83,48,137.69,43.7Z" fill="#824820"/>
      <path d="M125,53.6c25.3-7.33,9.89-42.85,2.6-40.88-8,11.48-19.23,10.25-17.85,21.4C109.78,36.74,119.27,54.3,125,53.6Z" fill="#ffcd9c"/>
    </g>
    <g>
      <path d="M322,114.92s6.23,1,3.06,5.88-8.54,1.49-8.54,1.49Z" fill="#ffcd9c"/>
      <g>
        <path d="M281.78,166.61s-10.75-2.3-13.9-.76-12,7.38-13.37,5.94c-2.86-3-6.08-4.27-8.75-2.84s-.27,6.51,2.49,8.44,7.2,6.09,9.05,4.89,6.13-2.53,10.62-3.58S283,175.34,283,175.34Z" fill="#efb47f"/>
        <path d="M309.65,170s3.49,12.83-2.59,16-13.41,2.16-15.86,1.58-12.42-3-12.42-3-4.81,3.26-9,3.52-5.84-2-9.71-1.05-4.71,0-6.52-.71-7.05-4.45-6-8.11,2.76-4.8,5.33-2.6,4.82,4.64,6.75,4.22,10.62-5.82,15.46-6.43S309.65,170,309.65,170Z" fill="#ffcd9c"/>
        <path d="M298.83,130s-3.35-3.54-8.72-8.82c-4.44-4.37-13.79-11.59-16.21-16.45s-3.31-7.36-3.82-5.51c-.22.79-.34,1.64-.52,2.09-.32.81-1.42-.06-1.86-.32-1.68-1-6.12-3.17-7.06-.38-1.2,3.57.85,5.72,4.56,6.93,2.6.84,3.41,1.51,7.19,6.36,4.41,5.66,7.85,12.85,11.9,17.34a17.17,17.17,0,0,1,3.12,6.1Z" fill="#ffcd9c"/>
        <path d="M310.1,131s5.91,1.21,3.81,12.54c-1.12,6.07-3.54,15.07-2.23,21.34S320,183.32,320,183.32s-8,8.41-15.7.84c-5.85-5.73-11.39,4-14.71-2.32-1.66-3.17-4.51-7.31-11.17-7.8-5.79-.43-8.83.57-11.41-6.71-.61-1.73-2.24-8.76-2.24-8.76s12-2.35,17.16-.61c2.38-8.79,2.83-17,6-22.26s9.52-9.74,11.84-8.92S310.1,131,310.1,131Z" fill="#ed7bb0"/>
        <path d="M300.94,120.79a34.39,34.39,0,0,1-2.7,7.57,2.9,2.9,0,0,0-.05,2.73c.8,1.43,2.48,2.84,6.26,3.22s6.34-.35,7.95-1.36a34.68,34.68,0,0,1-.83-11.26c.15-1.82.79-3.84-1-3.7l-7,.56A2.91,2.91,0,0,0,300.94,120.79Z" fill="#efb47f"/>
        <path d="M322.14,117.88c-4.61,7.83-13.52,11.12-19.9,7.36s-7.82-13.16-3.2-21,13.52-11.11,19.9-7.35S326.75,110.06,322.14,117.88Z" fill="#ffcd9c"/>
        <path d="M325.6,96.82c.63.33,2.42-4.3,10.07-2.89,6.73,1.25,6.49,5.63,7.32,10,.65,3.43,5,2.82,5,2.82a12.85,12.85,0,0,1-8.12,4.34c-8.16,1.3-15.76-5.12-15.76-5.12Z" fill="#42312a"/>
        <path d="M324.46,93.45s4.55-3.4,9.49,6.32c4,7.81-2.8,14.06-6.91,13.76S324.46,93.45,324.46,93.45Z" fill="#ed7bb0"/>
        <path d="M321.31,120.13s1.67-2.5.26-4.51c-2.06.26-8.24-1.64-10.57-8.49-1.68-4.95-.23-8.07-.23-8.07l-9.63,2.32S298.25,91,312,91.28c11.28-5.37,17.54,6.69,18.77,11.29C331.9,106.81,330.17,119.65,321.31,120.13Z" fill="#42312a"/>
        <path d="M302.24,101s-2.46-3.52-5,.66.77,6.49.77,6.49Z" fill="#ffcd9c"/>
        <path d="M309.92,139.86c-.66-1.15-4.88-2.63-8.86-2.71-5.61-.12-11.68,1.32-14.89-.28-2.83-1.41-12.1-8.47-13.62-10.87-1.41-2.23-.29-4.31-.9-5.87-.51-1.32-1-.78-1.59.66-.46,1.17-.56,3.15-1.48,2.57-.64-.39-1.23-1.07-2.79-2.31-2.52-2-5.83-2.43-5.8,1.23s5.06,6.07,8,8.5,7.21,8.52,11.56,11.82,17.63,9.2,23.15,7.55C306.57,149,312.75,144.82,309.92,139.86Z" fill="#ffcd9c"/>
      </g>
    </g>
    <path d="M59.27,109.2c-1.19,1.69-5.22,1.44-5.22,1.44-1.13.42,3.93,3.59,4.37,3.67s5.64,1.12,6.09.89a43,43,0,0,1,4.39-.72,51,51,0,0,0,19.49-6.33c3-1.57,7.15-9.42,7.15-9.42L98,96.91c1.81-1.35-1-1.29-1-1.29L93.53,96.8l-4.82-.19-15.5,3.93s-6.63,2.39-7,2.7C66.25,103.24,60.43,107.56,59.27,109.2Z" fill="#007c90"/>
    <g>
      <path d="M225.07,168.43a65,65,0,0,1-8-6.89c-4-3.92-6.62-5.22-8.79-9.58s-3-6.61-3.43-5c-.19.71-.3,1.47-.46,1.87-.29.73-1.28,0-1.67-.28-1.51-.9-5.5-2.85-6.34-.35-1.08,3.21.76,5.14,4.1,6.23,2.32.75,3.05,1.35,6.45,5.71a77.09,77.09,0,0,1,6.08,8.59,35.34,35.34,0,0,1,2.59,5.52Z" fill="#ffcd9c"/>
      <g>
        <g>
          <path d="M236.66,159.73c-4.64,8.94,5.09,20.64,7.94,29.54,4,7.12-1.11,19.89-14.31,18-9.79,1.74-24.58,3.66-28-1.55a5.75,5.75,0,0,1-.06-6.34c1.11-2.07,13.74-4.6,15-5.12-1.46-4.38-.08-17.09,5.88-31.39.81-1.94,1.7-3.91,2.68-5.89C238.31,151.61,241.3,150.79,236.66,159.73Z" fill="#f6d3a9"/>
          <path d="M238.11,155.42a17.46,17.46,0,0,0,.48-1.82c-.75-1.59-4.83,0-12.71,3.37-1,2-1.87,3.95-2.68,5.89-.36.87-.71,1.74-1,2.6l1.46-.27C231.66,163.62,236.63,159.94,238.11,155.42Z" opacity="0.1"/>
          <path d="M244.6,189.27h0c-8.78,1.23-20.7,2.81-27.78,1.87a12.37,12.37,0,0,0,.5,3.11h0a18.93,18.93,0,0,1,5.57.42,10.33,10.33,0,0,1,7,6.64,12.5,12.5,0,0,1,.45,5.95C243.49,209.16,248.62,196.39,244.6,189.27Z" fill="#fff"/>
          <path d="M244.6,189.27h0c-8.78,1.23-20.7,2.81-27.78,1.87a16.59,16.59,0,0,0,.27,2.14c7.17.62,17.87-.19,28.52-1.36A10.23,10.23,0,0,0,244.6,189.27Z" fill="#eb881e"/>
          <path d="M244.6,189.27c-12.32,2.51-17.7,3.43-28.7,2,.41-4.47-1.39-13.94,1.86-21.27a7.9,7.9,0,0,1,7.16-4.58l10.3-.18a2.09,2.09,0,0,1,2.1,1.84C237.7,170.11,242.51,182,244.6,189.27Z" fill="#896786"/>
          <path d="M227.42,173.33c-.46,4-5.16,5.88-11.14,6.78.59.79,3.59.43,8.26-1.47,4.78-2.41,3.79-6.63,3.79-6.63a5.66,5.66,0,0,0-5.22-4.91h.07C225.61,167.45,227.34,169.13,227.42,173.33Z" opacity="0.1"/>
          <path d="M246.45,150.7c-1.63,5-9.57,10.2-18.45,11.93-5.14,1-6.81.51-8.91-1.49-3.81-3.64-5.66-12.42-3.55-15.41,4-5.74-4.59-10.09,9.64-13.61C234.06,135,249.46,141.52,246.45,150.7Z" fill="#f6d3a9"/>
          <path d="M246.4,137c-6.16-13.15-19.08-9.33-20.44-8.87a4.21,4.21,0,0,1-5.32-2.32c-4.4.24-9.8,7.8-4,11.68,2.46,2.48,15.19-4,18.17,5.68,1.09,3.52-1.92,8,1.06,10.86.21.2.79-3.54,3-4.06s3.62,4.33,1.26,6.13c0,0-5.21,2.17-3.7,5.09C240.41,159.07,254,153.22,246.4,137Z" fill="#3e3431"/>
          <path d="M245.65,138.31s5.76.15,8.29,4.81a19.22,19.22,0,0,0-7.88-2.23Z" fill="#3e3431"/>
          <path d="M244.32,142.2s4.84-3.12,4.58-8.42a19.18,19.18,0,0,1-5.58,6Z" fill="#3e3431"/>
          <g>
            <path d="M223.93,157.72c-.93,1.72-2.63,2.57-5.54,2.3s-3.82-2-4.37-4c-.49-1.79.48-4.11,4.31-2.59a2.35,2.35,0,0,0,1.34.12C223.72,152.74,225,155.77,223.93,157.72Z" fill="#eb881e"/>
            <path d="M220.54,157.05a2.23,2.23,0,1,1-2-2.51A2.28,2.28,0,0,1,220.54,157.05Z" fill="#ffd33a"/>
          </g>
        </g>
        <path d="M225.7,170.48c-.59-1-4.48-1.47-8.07-1.55-5.06-.1-6.56.95-10.61.09-2.8-.6-7-2.06-8.41-4.23-1.27-2-.26-3.89-.8-5.3-.47-1.19-.93-.71-1.45.6-.41,1-.5,2.84-1.33,2.32-.57-.36-1.11-1-2.51-2.09-2.28-1.8-5.27-2.19-5.24,1.12s4.57,5.47,7.23,7.67,5,3.23,8.88,6.21,10.81,4.87,15.8,3.38C222.67,177.66,228.25,175,225.7,170.48Z" fill="#ffcd9c"/>
      </g>
      <path d="M227.42,173.33c-.46,4-5.16,5.89-11.14,6.78-1.63-4.42-3.05-9.91-1.25-12.73C220.57,165.26,227.26,165.37,227.42,173.33Z" fill="#7c5e7b"/>
    </g>
    <g>
      <path d="M95.76,133.39c2.77,1.78,6.33,4,9.69,1.64,2.61-1.84,5.44-9.16,8.22-13.26.82-1.2,4.49-2.41,5.2-3.08,3.17-3,3-6.81-.58-6.41-1.23.14-3.15,1.37-4.12,2-1.29.79-.79-2.88-2.08-2.88-1.55,0,0,3-2.39,6.33-1.64,2.29-6.52,9.4-6.52,9.4a56.36,56.36,0,0,0-6-4.11A35.33,35.33,0,0,0,91,120l-3.82-.5,4.15,12.29Z" fill="#ffe5cd"/>
      <path d="M84.83,109.77s3.63,17.25,5.39,17-2.94,1.17-7.36.82c-4.59-.36-7.08-2.62-8-4.12,1.74-4.06-.58-11.2-.58-11.2Z" fill="#ffe5cd"/>
      <path d="M65.35,107.57c2.12,8.78,9.64,14.49,16.8,12.76s11.24-10.24,9.13-19-9.64-14.49-16.8-12.77S63.23,98.79,65.35,107.57Z" fill="#ffe5cd"/>
      <path d="M73.73,122.43c.92.11,4.79,3.69,10,3.37,2-.13,4.61-1.47,4.59-4.44.35,0,2-.52,2.42-.58,1.07.66,2.21,2.32,3.73,5.5,1.12,2.35,1.16,4,2.46,6.22,2.86,5,6.08,12.2,6.43,12.8,0,0,10-2,13.49,3.95,1.86,3.13,3.57,9,4.78,13.78,6.92,1.92,7.51,4.26,6.46,6.25-1.52,2.88-5.36,3.55-12.37.32-1.83-.83-7.14-9.71-8.88-10.3a32,32,0,0,1,.58,10.17c6.2,2.7,5.35,8.34.41,8.25-2.6,0-6.81-.5-9.12-4.72-1.29-2.37-2-7.08-2.84-10.13-7.53.86-13.71-2.4-16-6.36-1.75-3.06-6.61-10.45-8.6-18.43-1.3-5.19-2.19-9.4-1.51-12.61C70.06,124.11,71.48,123.33,73.73,122.43Z" fill="#029ab3"/>
      <path d="M85.86,127.44a100.64,100.64,0,0,0,3.59,9.81,39.73,39.73,0,0,0,5.19,7.94,11.76,11.76,0,0,0,3.15,2.24l-1.29.94a19,19,0,0,1-4.93-4.12,34.91,34.91,0,0,1-5.4-10.09c-1.18-3.57-2.52-6.85-2.52-6.85Z" fill="#5fa4b7"/>
      <path d="M67.77,109.1s-5.45-.73-4,4.12,6.73,3.41,6.73,3.41Z" fill="#ffe5cd"/>
      <path d="M89.45,101.06s3.36-2.63,4.54,2.07-2.61,6-2.61,6Z" fill="#ffe5cd"/>
      <path d="M71.5,123.71c-1.3.85-4.34,3.4-3.79,10.72a50.78,50.78,0,0,0,4.34,16.89c1.53,3.23,4,9.81,5.9,12.67s7.79,8.23,8,3.14a5.25,5.25,0,0,0-1.13-3.39c-.23-.33-.82-1.21-.93-1.41-.69-1.25,1.9.6,2.56-.3,1.27-1.74-.66-1.07-2.64-2.12s-2.26-1.24-3-2.61C79.3,154.58,78.22,144,78,142.13c-.54-3.65,1-5.93-1.06-11C74.52,125.1,71.5,123.71,71.5,123.71Z" fill="#ffe5cd"/>
      <path d="M71.49,123.47s-5.23,2.5-3.85,10.72c0,0,10.41,3.65,10.67,4.31l.53-7.16s-4.31-8-5.6-8.08A3.89,3.89,0,0,0,71.49,123.47Z" fill="#029ab3"/>
      <path d="M89.92,119.81s3.49-.13,8.16,3.69l-1.83,8.22-4.87-.84Z" fill="#029ab3"/>
      <path d="M90.72,120s.36,9-5.74,9.94c-8.78,1.4-11.89-7-11.89-7l2.27-2s4.47,4.65,9,3.87,2.78-5.28,2.78-5.28Z" fill="#5fa4b7"/>
      <path d="M65.89,109c1.39.89-2.15-11,6.08-14.24,3.41-1.35-3.31-4.88-3.31-4.88s-7.06,4.8-5.34,12S65.89,109,65.89,109Z" fill="#f9d153"/>
    </g>
    <path d="M87.93,92.23s3.69,7,2.07,8.92c0,0-3.76-5.7-9.43-6.31,1.5,1.35,2.46,4,5,4.65a10,10,0,0,1-10-3.1s-.44,4.21,1.17,5.83c0,0-13.32-2.13-9.74-10.2C67,92,79.65,81.07,87.93,92.23Z" fill="#f9d153"/>
    <path d="M98.76,96.16l0,0c.69-.91-3.12-1.7-3.12-1.7-1.83-.54-7.75-2.49-7.75-2.49l-.26-.47c-6.66-7-21.13,1.26-23,3,0,0-2.06,2.36-2.19,4.38.07-.32.18-1.07-1.47,4.07,0,0-7.63,6.85-7,7.66,0,0,1.16.94,5.17-.35,0,0,6.44-6.67,7.62-7.25,0,0,18.5-6.88,26.63-6.25C93.38,96.78,96.74,97.54,98.76,96.16Z" fill="#029ab3"/>
    <path d="M61.09,102.68S57.63,93.2,63,89c6.27-4.89,13.26-7.51,19-4.51,0,0,3.35.87,6.49,7.87C88.54,92.37,70.63,95.11,61.09,102.68Z" fill="#41b3c6"/>
    <path d="M62.16,107.14S74.32,123,83.44,120.88c0,0,10.46-3.62,8.32-24" fill="none" stroke="#41b3c6" stroke-miterlimit="10" stroke-width="0.5"/>
    <g>
      <path d="M223.59,147.73a1.33,1.33,0,0,0,.94,1.62,1.35,1.35,0,0,0,1.44-1.21,1.23,1.23,0,1,0-2.38-.41Z" fill="#896349"/>
      <path d="M216.45,146.14a1.14,1.14,0,1,0,1.24-1.22A1.24,1.24,0,0,0,216.45,146.14Z" fill="#896349"/>
    </g>
    <path d="M121.34,38.09a7.13,7.13,0,0,0,1.25.48,4.29,4.29,0,0,0,1.28.17,6.17,6.17,0,0,0,2.55-.55,3.75,3.75,0,0,1-1.17.74,3.85,3.85,0,0,1-1.39.26A3.52,3.52,0,0,1,121.34,38.09Z" fill="#c28670"/>
    <path d="M123.71,45.65a5.22,5.22,0,0,1-4.44-2,.55.55,0,0,1,.15-.78.56.56,0,0,1,.78.15,4.2,4.2,0,0,0,3.72,1.48c1.57,0,3-.64,3.49-1.45a.56.56,0,1,1,1,.57c-.68,1.16-2.42,2-4.42,2Z" fill="#ed6e5f"/>
    <path d="M114.81,27.09a.61.61,0,0,1-.36-1.1c1.13-.84,4.53-1.14,5.76.05a.61.61,0,0,1,0,.86.6.6,0,0,1-.86,0c-.75-.72-3.45-.49-4.19.06A.7.7,0,0,1,114.81,27.09Z" fill="#c99357"/>
    <path d="M128,27a.62.62,0,0,1-.5-.27.61.61,0,0,1,.16-.85,6.32,6.32,0,0,1,6,0,.61.61,0,1,1-.68,1,5.19,5.19,0,0,0-4.67,0A.6.6,0,0,1,128,27Z" fill="#c99357"/>
    <g>
      <path d="M77.9,110.23a3.92,3.92,0,0,0,1.81-.1,4.37,4.37,0,0,0,1.58-.91,2.45,2.45,0,0,1-.62.74,2.62,2.62,0,0,1-.87.47A2.42,2.42,0,0,1,77.9,110.23Z" fill="#c28670"/>
      <path d="M81.57,115.09a3.69,3.69,0,0,1-3.37-.37.39.39,0,1,1,.48-.62,3,3,0,0,0,2.79.19,3,3,0,0,0,2-1.7.39.39,0,0,1,.47-.29.39.39,0,0,1,.29.47A3.71,3.71,0,0,1,81.73,115Z" fill="#e39b7e"/>
      <path d="M85.47,105.12c.27.87,0,.45-1.2.85s-1.18.87-1.45,0a1.41,1.41,0,1,1,2.65-.85Z" fill="#103754"/>
      <path d="M75.73,108.23c.28.87,0,.45-1.19.84s-1.18.87-1.46,0a1.54,1.54,0,0,1,.83-2A1.52,1.52,0,0,1,75.73,108.23Z" fill="#103754"/>
    </g>
    <path d="M301.05,115.3a7.55,7.55,0,0,0,5.66,4.29s-2.63,2.93-5.35.32A3.1,3.1,0,0,1,301.05,115.3Z" fill="#c28670"/>
    <path d="M305.2,108.55a1.35,1.35,0,1,1,.13-2.08A1.48,1.48,0,0,1,305.2,108.55Z" fill="#103754"/>
    <path d="M118.75,31.1a1.54,1.54,0,0,1-1.82,1.33,1.76,1.76,0,0,1-1.16-2.08A1.55,1.55,0,0,1,117.59,29,1.77,1.77,0,0,1,118.75,31.1Z" fill="#605f6d"/>
    <path d="M132.29,31.1a1.54,1.54,0,0,1-1.82,1.33,1.77,1.77,0,0,1-1.16-2.08A1.55,1.55,0,0,1,131.13,29,1.77,1.77,0,0,1,132.29,31.1Z" fill="#605f6d"/>
    <path d="M314.4,115.51a1.35,1.35,0,1,1,.13-2.08A1.48,1.48,0,0,1,314.4,115.51Z" fill="#103754"/>
    <path d="M308.41,104.89a9.52,9.52,0,0,0-4.21-1.6s1.39-1.07,4.42.86C308.62,104.15,309,105.22,308.41,104.89Z" fill="#42312a"/>
    <path d="M304.46,112.43a5.21,5.21,0,0,0,.4,1.21,2.53,2.53,0,0,0,.75.93,2.72,2.72,0,0,0,1.1.48,8.67,8.67,0,0,0,1.27.13c-.21.06-.42.1-.64.14a5,5,0,0,1-.67,0,2.42,2.42,0,0,1-2.21-2.9Z" fill="#e7ad8b"/>
    <path d="M217.26,150.45a4.08,4.08,0,0,0,1.62.82,4.29,4.29,0,0,0,1.82,0,2.62,2.62,0,0,1-.91.33,2.49,2.49,0,0,1-1,0A2.45,2.45,0,0,1,217.26,150.45Z" fill="#c28670"/>
  </g>
</svg>
