<svg xmlns="http://www.w3.org/2000/svg" viewBox="0 0 150 275">
  <title>_</title>
  <g style="isolation: isolate">
    <g>
      <path d="M136.82,78.17s8.64,28.17,9.81,33.63c.4,3-1.84,7.66-3.81,9-3.51,1.85-10.35-12.48-10.35-12.48L125.23,85Z" fill="#e8b989"/>
      <path d="M69.45,79.09,68.27,104.5l4.41,26.82a79.51,79.51,0,0,0,9.2,7.89c-.53.8-1.28,1.13-5.27-1.27-.64-.39,2.33,3.66,5.32,8.74.75.94-1.28,4.46-4.36,3.09,0,0-5.7-1.76-7.48-3.84s-4.4-10.3-4.4-10.3L55.24,111.22c-2.2-3.38-.5-7.25-.68-11.28a58.21,58.21,0,0,1,3.32-22.7c-.69,0,10.22-15.72,10.22-15.72l10.06.38,2.38,14.17Z" fill="#e8b989"/>
      <g>
        <path d="M86.57,254.85l.22,3.16a4.63,4.63,0,0,1-2.27,4.29c-2.54,1.49-6.25,3.87-7.13,5.48a10.62,10.62,0,0,1-5.65,4.78c-1.56.39-2.8,1.14-5.59.29S61.94,268,65.49,265,74.16,253,74.16,253l12,1.28Z" fill="#d6af63"/>
        <path d="M66.15,271.21c2.79.85,4,.1,5.59-.29a10.66,10.66,0,0,0,5.65-4.78c.88-1.61,4.59-4,7.13-5.49a4.57,4.57,0,0,0,2.22-3.33l.05.69a4.63,4.63,0,0,1-2.27,4.29c-2.54,1.49-6.25,3.87-7.13,5.48a10.62,10.62,0,0,1-5.65,4.78c-1.56.39-2.8,1.14-5.59.29a4,4,0,0,1-2.69-4.65A4,4,0,0,0,66.15,271.21Z" fill="#bc9651"/>
        <path d="M107.54,254.85l-.21,3.16a4.6,4.6,0,0,0,2.26,4.29c2.54,1.49,6.25,3.87,7.13,5.48a10.62,10.62,0,0,0,5.65,4.78c1.56.39,2.8,1.14,5.59.29s4.21-4.83.66-7.82S120,253,120,253l-12,1.28Z" fill="#d6af63"/>
        <path d="M109.59,260.65c2.54,1.5,6.25,3.88,7.13,5.49a10.66,10.66,0,0,0,5.65,4.78c1.56.39,2.8,1.14,5.59.29a4,4,0,0,0,2.69-3,4,4,0,0,1-2.69,4.65c-2.79.85-4,.1-5.59-.29a10.62,10.62,0,0,1-5.65-4.78c-.88-1.61-4.59-4-7.13-5.48a4.6,4.6,0,0,1-2.26-4.29l0-.69A4.59,4.59,0,0,0,109.59,260.65Z" fill="#bc9651"/>
        <path d="M71.65,192.88c-.3-1.79-2.77-16-.94-43.42a81.28,81.28,0,0,1,2.72-14.59s4.1,2.32,25.89,1.76,23-1.76,23-1.76a171.74,171.74,0,0,1,2.75,17.3c2.08,24.19-.24,39-.54,40.71,0,0,1.5,61.07.56,63.77-1.8,5.12-9.6,4.18-9.6,4.18l-4.29-1.5a6.51,6.51,0,0,1-4.4-5.52l-2.6-51.58-6.11-48.38L92,202.23,89.35,253.4a5.87,5.87,0,0,1-4,5L80.69,260s-8.54,1-9.32-3.46S71.65,192.88,71.65,192.88Z" fill="#3584a0"/>
        <path d="M88.64,253.4a5.83,5.83,0,0,1-3.12,4.65l-.68-60.61,12.22-48.82,12.22,48.82-.79,61.31a6.46,6.46,0,0,1-3-4.94l-2.5-51.58-5.88-48.38-5.89,48.38Z" fill="#1d1d1b" opacity="0.1"/>
        <path d="M126.82,67.33c-4.09-5.76-8.24-6.39-17.53-7.79-1.18,4.39-6.06,9.36-13.06,9.54-7-.18-11.87-5.15-13.06-9.54-4.42-1.16-11.61.21-15.78,3.2S70.63,88,70.63,88a46.64,46.64,0,0,1,1.9,13.3c-.09,8.07,1,23.34,0,33.54,8.34,4.57,13.4,6.11,23.7,6.3a62.06,62.06,0,0,0,28.53-7.23c-1.05-10.2-4.13-24.31-4.21-32.38.18-5.61,1-11.6,2.16-15Z" fill="#ad2e28"/>
        <path d="M88.7,49V42.78h16.09V49c0,3.41,3.23,6.74,7.21,7.45,0,0-18.67,16.16-14.69,15.46L81.49,56.4C85.47,55.69,88.7,52.36,88.7,49Z" fill="#f6d3a9"/>
        <path d="M104.79,42.78V49a6.83,6.83,0,0,0,.06.78,23,23,0,0,1-8.42,5.2c-4.85,1.69-9.59,1.82-12.78.8,2.93-1.3,5-4,5-6.78V42.78Z" opacity="0.1"/>
        <path d="M106.92,55.1H87.7V47.38h0A17.67,17.67,0,0,1,106,46.86l.91.52Z" fill="#374154"/>
        <path d="M116.5,30.17c-.58,2.64-2.82,5.76-3.81,5.55s-1.32-2.54-.74-5.18,1.84-4.61,2.83-4.4S117.08,27.53,116.5,30.17Z" fill="#e8b989"/>
        <path d="M78.12,30.17c.58,2.64,2.82,5.76,3.81,5.55s1.32-2.54.74-5.18-1.84-4.61-2.83-4.4S77.54,27.53,78.12,30.17Z" fill="#e8b989"/>
        <path d="M114.38,18.08c0,9.72-3.69,22.25-9.41,26.55-2,1.54-5.72,1.79-7.66,1.79-6.85,0-17.07-10.7-17.07-23.91-1.82-9.63.59-16.42,6.28-16.77C98.24-5.06,116.64,4.3,114.38,18.08Z" fill="#473f30"/>
        <path d="M112.91,19.77c2.2-13.67-15.68-23-27.07-12.23-2.76.17-4.73,1.94-5.78,4.86.87-4,3.09-6.45,6.46-6.66,11.72-10.8,30.12-1.44,27.86,12.34,0,8.93-3.12,20.21-8,25.33C110.4,37.85,112.91,27.84,112.91,19.77Z" fill="#fff" opacity="0.25" style="mix-blend-mode: soft-light"/>
        <g>
          <path d="M89.65,48V42.16H105V48a7.2,7.2,0,0,0,3.45,5.7L97.31,71.86,85.91,53.92A7.3,7.3,0,0,0,89.65,48Z" fill="#f6d3a9"/>
          <polygon points="109.32 55.52 99.65 81.03 99.65 59.1 101.04 58.5 109.32 55.52" fill="#e2e2e2"/>
        </g>
        <path d="M89.65,48V42.16H105V48a7.2,7.2,0,0,0,3.45,5.7L97.31,71.86,85.91,53.92A7.3,7.3,0,0,0,89.65,48Z" fill="#e8b989"/>
        <path d="M97.57,81h1l25.72,12.21L139.8,81s-8.59-20.9-18.27-23.83c-5.59-1.69-11.32-3.09-11.87-3.46l-2.74,1.37-5.17,2.72-3.3,1.8-1.52.5-2.34-1-1.39-.6-5.71-2-1.67-2.72c-.55.37-6.27,1.77-11.87,3.46C64.27,60.12,55.68,81,55.68,81L71.2,93.24,96.92,81h1" fill="#ad2e28"/>
        <path d="M99,78.26h.73V58.64l-2.46,1.48L94.2,58.44v15A4.83,4.83,0,0,0,99,78.26Z" fill="#454570"/>
        <circle cx="97.16" cy="63.27" r="1.07" fill="#6583ba"/>
        <circle cx="97.16" cy="68.2" r="1.07" fill="#6583ba"/>
        <path d="M96.09,73.13a1.08,1.08,0,1,0,1.07-1.08A1.07,1.07,0,0,0,96.09,73.13Z" fill="#6583ba"/>
        <path d="M105,42.16V48a4.52,4.52,0,0,0,.06.74,21.89,21.89,0,0,1-8,4.95c-4.62,1.61-9.13,1.73-12.17.77,2.79-1.24,4.81-3.83,4.81-6.46V42.16Z" opacity="0.1"/>
        <path d="M81.87,31.8h0c1.91-.57.26-8.87,1.11-11.83a8.41,8.41,0,0,1,4.72-5.71,5.24,5.24,0,0,1,5,.65c5.27,3.76,12.23,4.23,18.71,4.32h.27s-.79,11.75,1.11,12.31h0c-.52,2.59-2.28,8.45-3.06,11a4.54,4.54,0,0,1-1.42,2.13c-2.32,1.91-8,6.31-11,6.31-3.16,0-8.65-4.18-11-6a4.45,4.45,0,0,1-1.45-2.16c-.78-2.59-2.51-8.42-3-11Z" fill="#e8b989"/>
        <path d="M93.58,58.5l-4.93-4.75-1-6.37-4.08,6.73a.53.53,0,0,0,0,.49l4.25,9.86a.53.53,0,0,0,.91.13Z" fill="#454570"/>
        <polygon points="88.65 53.75 93.58 58.5 97.31 60.12 88.65 53.75" fill="#374154"/>
        <path d="M101,58.5,106,53.75l1-6.37L111,54.11a.53.53,0,0,1,0,.49l-4.24,9.86a.54.54,0,0,1-.92.13Z" fill="#454570"/>
        <g>
          <path d="M84.17,53.21,89,64.32l-.22.27a.44.44,0,0,1-.15.12l-4.74-11Z" fill="#fff" opacity="0.58" style="mix-blend-mode: soft-light"/>
          <polygon points="89.63 63.48 89.28 63.92 84.45 52.74 84.77 52.22 89.63 63.48" fill="#fff" opacity="0.58" style="mix-blend-mode: soft-light"/>
        </g>
        <g>
          <path d="M110.45,53.21l.32.52-4.75,11a.57.57,0,0,1-.15-.12l-.21-.27Z" fill="#fff" opacity="0.58" style="mix-blend-mode: soft-light"/>
          <polygon points="109.86 52.22 110.17 52.74 105.34 63.92 104.99 63.48 109.86 52.22" fill="#fff" opacity="0.58" style="mix-blend-mode: soft-light"/>
        </g>
        <polygon points="105.97 53.75 101.04 58.5 97.31 60.12 105.97 53.75" fill="#374154"/>
        <path d="M140.88,82.48l-19.81,13,.42-3.57L139.28,79.5C140.31,81.33,140.88,82.48,140.88,82.48Z" fill="#454570"/>
        <path d="M55,81.25,72,94.28l-.43-3.58L56.61,78.26C55.58,80.09,55,81.25,55,81.25Z" fill="#454570"/>
      </g>
      <path d="M69.41,153.23l-.26,3.18L80,142.35c-.82-.18-1.58-.37-2.28-.56Z" fill="#38385e"/>
      <path d="M97.49,77.45,97,76.88C96.82,77.32,97,77.54,97.49,77.45Z" fill="#efcaa3"/>
      <g>
        <path d="M132.44,84.86c0-1.24-1.33-2.44-.87-3.58a1.51,1.51,0,0,0,.12.31,25.12,25.12,0,0,0,5.81-3.7l-4.06-9.13c-4.44-5.66-9-6.37-18.89-7.72.29.76,2.6,6.07.87,8.53-.82,1.16-.87,3.44-.35,5.78a1.81,1.81,0,0,0-.83,2.24c.41,1.49,1.09,2.8,3.15,3.09a9,9,0,0,0,.8.91,4.74,4.74,0,0,0,3.13,1.52c-.26.62,1,1.24.76,1.85-.07.17-.12.33-.19.49l-.3.13a12,12,0,0,0-5.07.88,3.27,3.27,0,0,0-.32.71c-3.91.89-8,2.85-8.78,2.27-2.27-1.13-9.56-3.68-9.53-4.6.18-5.93-1.42-5.86-2.55-4.72-1.79,1.49-1.58,6,.82,7.83,2,2.56,6.61,8.64,10.08,9.69a57.15,57.15,0,0,0,10.89,0,42.25,42.25,0,0,0,.91,8.61l0,.22a8,8,0,0,0,.23,1c-1,.41-8.48,3.21-9.34,4.83a5.14,5.14,0,0,0-.7,2.63,5.44,5.44,0,0,0,0,1.71c6.84,21.21,11.71,22.73,13.47,22,.52-.67,1.32-1.44,1.34-2,.07-2-3.34-3.54-3.69-4.47-1.72-4.49.54-7.94-1.1-12.79,1.18-.13,2.42-.31,3.67-.53.59,9.82,3.61,17.22,4.28,16.74-1.14-10.15-2.48-24.28-2.58-32.1.21-5.61,3.92-12,5.27-15.43l4.94-1.89A1.6,1.6,0,0,0,132.44,84.86Z" fill="#575756" opacity="0.1"/>
        <path d="M132.11,111.25c1.3,6-3.45,7.83-2.71,13,.15,1,3.52,3.21,3,5.15-.17.66-1.36,1.31-2,1.9-1.52,1.46-1.7,2.58-2.35,3.78a1.26,1.26,0,0,1-2.33-.31c-1.13-4.15-3.62-26.58-3.42-28.08C122.71,101.88,130.33,99.05,132.11,111.25Z" fill="#e5be9c"/>
        <path d="M134.88,80.49c-3.62,7,4,16.09,6.19,23,3.14,5.55-.86,15.51-11.16,14-7.63,1.35-16.77,3.69-19.4-.38a4.48,4.48,0,0,1-.06-4.94c.87-1.62,8.33-4.42,9.35-4.83-1.14-3.41-.06-13.33,4.59-24.48.63-1.51,1.32-3.05,2.09-4.59C136.17,74.16,138.5,73.52,134.88,80.49Z" fill="#f6d3a9"/>
        <path d="M136,77.13a12.44,12.44,0,0,0,.38-1.42c-.59-1.24-3.77,0-9.91,2.63-.77,1.54-1.46,3.08-2.09,4.59-.29.68-.56,1.36-.82,2l1.15-.21C131,83.53,134.86,80.66,136,77.13Z" opacity="0.1"/>
        <path d="M141.07,103.53h0c-6.85,1-16.14,2.19-21.66,1.45a10,10,0,0,0,.39,2.43h0a14.67,14.67,0,0,1,4.34.32,8.06,8.06,0,0,1,5.43,5.18,9.79,9.79,0,0,1,.34,4.64C140.21,119,144.21,109.08,141.07,103.53Z" fill="#fff"/>
        <path d="M141.07,103.53h0c-6.85,1-16.14,2.19-21.66,1.45a13.71,13.71,0,0,0,.21,1.68c5.59.48,13.94-.15,22.24-1.06A7.85,7.85,0,0,0,141.07,103.53Z" fill="#eb881e"/>
        <path d="M134.78,108.75s-2.31,1.06.59,3.28l1.56,1c-2.89.68-9.25-1.5-9.25-1.5-.18,0-1.58-.59-2.11-.06a5.91,5.91,0,0,0-.79,1.49,2.57,2.57,0,0,0-1.21.74,1.92,1.92,0,0,0,.15,2.63,4.29,4.29,0,0,0,.58,2.3c1.88-.33,3.79-.71,5.61-1a10.62,10.62,0,0,0,8.89-2.33C140.27,113.92,135,108.43,134.78,108.75Z" opacity="0.1"/>
        <path d="M124.55,116l-.35-.28A1.3,1.3,0,0,1,124,114a2.16,2.16,0,0,1,1.26-.59,1.5,1.5,0,0,1,1.77-1.56l7,1.82,3.88,0s-.32-1.1-.83-1.38L134.87,111a1.9,1.9,0,0,1-.69-1.79s.63-.76,1.06-.51L139.8,110l3.68,4.53a8,8,0,0,1,.41,4,5.91,5.91,0,0,1-2,3.21l-6.39,2.15-4.59-.84s-2.7-1.79-3.59-2.29-1.59-.73-1.67-1.75V119c0-.11-.58-.5-.58-.5a1.28,1.28,0,0,1-.76-1.61Z" fill="#e8b989"/>
        <path d="M119.25,118c2.58,5.55-.26,9.2,1.6,14.07.36.93,3.76,2.46,3.7,4.47,0,.68-1,1.57-1.52,2.29-1.1,1.66-.93,3.08-1.27,4.47a1.26,1.26,0,0,1-2.32.35c-1.93-3.68-9.58-25.56-9.71-27.06C109.05,111.81,114.84,106.47,119.25,118Z" fill="#f6d3a9"/>
        <path d="M141.07,103.53c-9.6,2-13.8,2.68-22.38,1.6.33-3.49-1.08-10.88,1.45-16.59A6.2,6.2,0,0,1,125.73,85l8-.13a1.62,1.62,0,0,1,1.64,1.43C135.69,88.58,139.45,97.84,141.07,103.53Z" fill="#896786"/>
        <path d="M127.68,91.1c-.36,3.15-4,4.59-8.69,5.29.46.61,2.8.33,6.44-1.15,3.73-1.88,3-5.17,3-5.17a4.43,4.43,0,0,0-4.07-3.83h.05C126.27,86.51,127.61,87.82,127.68,91.1Z" opacity="0.1"/>
        <path d="M125.16,92c-1,4.8-9.57,4.7-17.42,4.17-3.47-1-9.53-5.63-11.58-8.19-2.4-1.85-2.61-6.34-.82-7.83,1.13-1.14,4.23-1.21,4,4.72,0,.92,7.26,3.47,9.53,4.6C110.45,90.64,126.05,81.18,125.16,92Z" fill="#f6d3a9"/>
        <path d="M127.68,91.1c-.36,3.15-4,4.59-8.69,5.29-1.27-3.45-2.38-7.73-1-9.93C122.33,84.81,127.56,84.89,127.68,91.1Z" fill="#7c5e7b"/>
        <path d="M142.52,73.45c-1.28,3.89-7.47,8-14.39,9.3-4,.78-5.31.4-6.95-1.16-3-2.83-4.41-9.68-2.77-12,3.15-4.47-3.57-7.86,7.52-10.61C132.86,61.23,144.86,66.29,142.52,73.45Z" fill="#f6d3a9"/>
        <path d="M142.48,62.72c-4.8-10.25-14.88-7.27-15.94-6.91A3.28,3.28,0,0,1,122.39,54c-3.43.19-7.64,6.08-3.13,9.11,1.92,1.94,11.85-3.1,14.18,4.43.84,2.75-1.51,6.26.82,8.47.17.16.62-2.76,2.32-3.17s2.83,3.37,1,4.79c0,0-4.06,1.68-2.88,4C137.8,80,148.42,75.42,142.48,62.72Z" fill="#3e3431"/>
        <path d="M141.89,63.79s4.49.11,6.47,3.75a15,15,0,0,0-6.15-1.74Z" fill="#3e3431"/>
        <path d="M140.85,66.82s3.78-2.43,3.58-6.57a15,15,0,0,1-4.35,4.69Z" fill="#3e3431"/>
        <g>
          <path d="M125,78.93c-.73,1.34-2,2-4.33,1.79s-3-1.58-3.4-3.13c-.39-1.39.37-3.21,3.36-2a1.94,1.94,0,0,0,1,.1C124.79,75,125.78,77.41,125,78.93Z" fill="#eb881e"/>
          <path d="M122.31,78.4a1.73,1.73,0,1,1-1.56-2A1.77,1.77,0,0,1,122.31,78.4Z" fill="#ffd33a"/>
        </g>
      </g>
      <g>
        <path d="M69.13,150.3l-2-4.81a1.58,1.58,0,0,1,0-1.05l.67-2.18a1.16,1.16,0,0,1,1.11-.81h1.73l2.86-.31A5.61,5.61,0,0,1,75,142a3.16,3.16,0,0,1,.44,1.19l.71.85a1.61,1.61,0,0,1,.36,1.16l0,.61A7.1,7.1,0,0,1,74.77,150l-1.89,2.13Z" fill="#f6d3a9"/>
        <g>
          <path d="M36.43,167.41V164H27.55v3.41c0,1.88-1.78,3.72-4,4.1l-5.78,1a5,5,0,0,0-4,4.74l18.27,4.85,18.07-4.85a5,5,0,0,0-4-4.74l-5.78-1C38.21,171.13,36.43,169.29,36.43,167.41Z" fill="#f6d3a9"/>
          <path d="M38.47,170.74a4.19,4.19,0,0,1-2-3.33V164H27.55v3.41a3.22,3.22,0,0,1,0,.43,12.64,12.64,0,0,0,4.65,2.86,11.7,11.7,0,0,0,7,.45,6,6,0,0,1-.75-.41Z" opacity="0.1"/>
          <path d="M71.18,148.09c-1.25-.48-2,.29-2.43,1.53L62.3,165.15l-13.14,7c-1.35.72-3.9,11.63-1.77,12.43,0,0,19.56-12.84,20-14.08l6.32-19.59C74.23,149.63,72.43,148.57,71.18,148.09Z" fill="#f6d3a9"/>
        </g>
        <path d="M7.27,219.81l3.23-17.75.43-19.94c0-.16,7.15,5.4,7.26,7.58,0,0-.39,16.3-.9,16.8l-6.1,13.75c-.9,1.49-1.17,1.9-2.49,1.71S7.07,221.13,7.27,219.81Z" fill="#f6d3a9"/>
        <path d="M40.41,171.51c-.85-.15.37,7-8.4,7s-7.71-7.09-8.44-7l-5.78,1c-5.24.84-7.29,11.36-7.29,11.36l6.79,6.43,2,7.51L18,211.6H45L44,196.93,46.61,187l4.86-4.92-1.31-11.3Z" fill="#22afc6"/>
        <path d="M47.89,267.23l3.11-.8s-.32-1.25-4.15-2.19c-1.13-.28-1.8-1.94-3.23-2.62-6.17-3-6.42,2.42-6.42,2.42Z" fill="#3e3431"/>
        <path d="M49.3,268.43l.06,0a2.21,2.21,0,0,0,1.45-1.18l.19-.8-3.11.8L37.2,264v.64a2,2,0,0,0,1.24,1.75l8.35,1.95A4.71,4.71,0,0,0,49.3,268.43Z" fill="#3c3c3b"/>
        <path d="M34.38,226.25l3.22,15.31-.2-1.32,1.18,21.43s-.1.95,2.22,1.16,2.62-1,2.62-1l1.85-21.61a2.32,2.32,0,0,0-.09-.91l-.11-.4-1.6-16.67Z" fill="#f6d3a9"/>
        <path d="M15.58,267.23l-3.11-.8s.31-1.25,4.15-2.19c1.12-.28,1.8-1.94,3.22-2.62,6.18-3,6.43,2.42,6.43,2.42Z" fill="#3e3431"/>
        <path d="M14.17,268.43l-.06,0a2.16,2.16,0,0,1-1.45-1.18l-.19-.8,3.11.8L26.27,264v.64A2,2,0,0,1,25,266.43l-8.35,1.95A4.68,4.68,0,0,1,14.17,268.43Z" fill="#3c3c3b"/>
        <path d="M29.08,226.64,25.86,242l.2-1.31-1.17,21s.1.95-2.22,1.16-2.62-1-2.62-1L18.2,240.21a2.52,2.52,0,0,1,.08-.91l.12-.4L20,222.23Z" fill="#f6d3a9"/>
        <path d="M28.9,235.93l2.55-10.84L34,235.93l12.81-1.61C46.24,225.7,45,211.6,45,211.6H18s-1.29,14.1-1.86,22.72Z" fill="#010326"/>
        <path d="M33.26,163.33c2.33-.34,5.67-18.56,8.1-20.15,3.7-2.65,4.31-9.8-4.25-13.44-4.46,10-10.07-2.14-16.68,9.19C9.93,147.35,20.17,166.08,33.26,163.33Z" fill="#935c37"/>
        <path d="M18.25,157.11c1.09,1.63,4.4,4.19,5.47,3.77s2.4-3.55,1.31-5.18-4.45-2.21-5.53-1.79S17.16,155.48,18.25,157.11Z" fill="#f6d3a9"/>
        <path d="M39.22,166.18c5.71-3.18,6.26-10.24,2.14-23-4.46,2.36-6.79.7-16.5.28-1.8,2.8-1.43,8.67-4,10.84C23.75,164.31,30.57,171,39.22,166.18Z" fill="#f6d3a9"/>
        <path d="M8.92,218.35l-2.83,1.27a1.58,1.58,0,0,0-.52.38l-1.7,2,.88.66,1.7-.76-.61,2.61c-.06.25-1.07,2.83-.21,3.29h0a4.65,4.65,0,0,0,1.8.64l2.05-1.22c.54-.14,2-4,2-4a1.5,1.5,0,0,0,0-.37l0-3a1.5,1.5,0,0,0-1.18-1.47l-.49-.11A1.51,1.51,0,0,0,8.92,218.35Z" fill="#f6d3a9"/>
      </g>
      <path d="M68.27,104.5l4.41,26.82a79.51,79.51,0,0,0,9.2,7.89c-.53.8-1.28,1.13-5.27-1.27-.64-.39,2.33,3.66,5.32,8.74.75.94-1.28,4.46-4.36,3.09,0,0-5.7-1.76-7.48-3.84s-4.4-10.3-4.4-10.3L55.24,111.22" fill="#e8b989"/>
      <g>
        <path d="M94.92,34.78a1,1,0,0,0-.43.52,1.6,1.6,0,0,0-.17.64,1.36,1.36,0,0,0,.55,1.21c-.32-.32-.2-1.18-.2-1.18a4.12,4.12,0,0,1,.07-.59A2.29,2.29,0,0,1,94.92,34.78Z" fill="#8e5f35"/>
        <g>
          <path d="M98.94,37.09a.2.2,0,0,0,0-.3.65.65,0,0,0-.27-.15.33.33,0,0,0-.17,0,.4.4,0,0,0-.18.07.7.7,0,0,0-.26.19c-.29.31-.22.47-.59.43a1.35,1.35,0,0,1-1.1-.46c-.14-.13-.36-.34-.59-.28a.53.53,0,0,0-.29.14.21.21,0,0,0,0,.29c-.06-.22.21-.27.36-.26s.25.14.35.27a1.78,1.78,0,0,0,.41.48,1.27,1.27,0,0,0,.64.16,1.06,1.06,0,0,0,.64-.15,1.74,1.74,0,0,0,.43-.43c.13-.15.2-.28.37-.27S99,36.86,98.94,37.09Z" fill="#8e5f35"/>
          <path d="M99.51,34.88a3.15,3.15,0,0,1,.2,1.19,2.58,2.58,0,0,1-.26,1.18,1.35,1.35,0,0,0,.62-1.18,2,2,0,0,0-.14-.67A1,1,0,0,0,99.51,34.88Z" fill="#8e5f35"/>
        </g>
      </g>
      <path d="M97.1,43.3a5.78,5.78,0,0,1-4.18-1.42.52.52,0,0,1,.77-.7,5.12,5.12,0,0,0,4,1.06,4,4,0,0,0,2.79-1,.52.52,0,0,1,.72-.14.53.53,0,0,1,.14.73,4.79,4.79,0,0,1-3.58,1.45Z" fill="#865b2f"/>
      <path d="M86.07,26.47a5.63,5.63,0,0,1,3.66-1.63,4.39,4.39,0,0,1,2,.39,3.75,3.75,0,0,1,1.55,1.31,7.87,7.87,0,0,0-1.76-.72,5.78,5.78,0,0,0-1.8-.18,8.91,8.91,0,0,0-1.83.28C87.33,26.08,86.7,26.24,86.07,26.47Z" fill="#1f160f"/>
      <path d="M107.42,26.47c-.63-.23-1.25-.39-1.86-.55a9.13,9.13,0,0,0-1.83-.28,5.75,5.75,0,0,0-1.8.18,7.51,7.51,0,0,0-1.76.72,3.79,3.79,0,0,1,1.54-1.31,4.41,4.41,0,0,1,2.05-.39A5.61,5.61,0,0,1,107.42,26.47Z" fill="#1f160f"/>
      <path d="M125,70.56a1,1,0,1,0,2,.35,1.15,1.15,0,0,0-.8-1.38A1.14,1.14,0,0,0,125,70.56Z" fill="#896349"/>
      <path d="M118.59,69.51a1,1,0,1,0,1.06-1A1.06,1.06,0,0,0,118.59,69.51Z" fill="#896349"/>
      <g>
        <path d="M34.14,157a2.84,2.84,0,0,0,1.9.21,1.61,1.61,0,0,0,.77-.5,5,5,0,0,0,.59-.81,4.1,4.1,0,0,1-.14.5,4.17,4.17,0,0,1-.26.46,1.83,1.83,0,0,1-.87.65A2.16,2.16,0,0,1,34.14,157Z" fill="#e7ad8b"/>
        <path d="M30.4,153.45a1.22,1.22,0,1,1-2.37.4,1.22,1.22,0,1,1,2.37-.4Z" fill="#3a1e0a"/>
        <path d="M39.65,151.15A1.13,1.13,0,1,1,38.34,150,1.23,1.23,0,0,1,39.65,151.15Z" fill="#3a1e0a"/>
        <path d="M26.69,151.81a.43.43,0,0,1-.29-.07.4.4,0,0,1-.11-.55,3.51,3.51,0,0,1,3.77-1,.4.4,0,1,1-.34.73,2.71,2.71,0,0,0-2.76.72A.41.41,0,0,1,26.69,151.81Z" fill="#935c37"/>
        <path d="M39.89,148.48a.4.4,0,0,1-.31-.07,2.48,2.48,0,0,0-2.91.53.39.39,0,0,1-.56,0,.4.4,0,0,1,0-.57,3.24,3.24,0,0,1,4-.62.4.4,0,0,1,.09.56A.37.37,0,0,1,39.89,148.48Z" fill="#935c37"/>
        <path d="M37.16,162.16A4.35,4.35,0,0,1,34,162a.42.42,0,0,1-.16-.57.41.41,0,0,1,.56-.16,4,4,0,0,0,3.21-.16A2.21,2.21,0,0,0,39,159.83a.42.42,0,0,1,.81.19A3,3,0,0,1,38,161.88,8.32,8.32,0,0,1,37.16,162.16Z" fill="#dd9666"/>
      </g>
      <path d="M119.57,73.18a3.71,3.71,0,0,0,.69.45,3,3,0,0,0,.75.28,4,4,0,0,0,1.61,0,2,2,0,0,1-.8.29,2.37,2.37,0,0,1-.88,0A2.2,2.2,0,0,1,119.57,73.18Z" fill="#c28670"/>
      <path d="M91.91,29.41a1.7,1.7,0,1,1-1.69-2A1.84,1.84,0,0,1,91.91,29.41Z" fill="#3a1e0a"/>
      <path d="M105,29.41a1.7,1.7,0,1,1-1.69-2A1.85,1.85,0,0,1,105,29.41Z" fill="#3a1e0a"/>
    </g>
  </g>
</svg>
