<svg xmlns="http://www.w3.org/2000/svg" xmlns:xlink="http://www.w3.org/1999/xlink" viewBox="0 0 475 325">
  <defs>
    <linearGradient id="a" x1="43.71" y1="207.59" x2="60.77" y2="207.59" gradientUnits="userSpaceOnUse">
      <stop offset="0.08" stop-color="#203055"/>
      <stop offset="0.59" stop-color="#2a406b"/>
    </linearGradient>
    <linearGradient id="b" x1="43.84" y1="222.19" x2="71.85" y2="210.75" xlink:href="#a"/>
    <linearGradient id="c" x1="4506.35" y1="166.14" x2="4532.78" y2="160.25" gradientTransform="matrix(-1, 0, 0, 1, 4639.29, 0)" gradientUnits="userSpaceOnUse">
      <stop offset="0" stop-color="#dc8057"/>
      <stop offset="0.02" stop-color="#e18b5f"/>
      <stop offset="0.07" stop-color="#e99f6e"/>
      <stop offset="0.13" stop-color="#efad78"/>
      <stop offset="0.21" stop-color="#f2b57e"/>
      <stop offset="0.34" stop-color="#f3b780"/>
      <stop offset="0.8" stop-color="#f3b780"/>
      <stop offset="0.92" stop-color="#e69768"/>
      <stop offset="1" stop-color="#dc8057"/>
    </linearGradient>
    <linearGradient id="d" x1="233.37" y1="177.74" x2="235.7" y2="152.61" gradientUnits="userSpaceOnUse">
      <stop offset="0.08" stop-color="#112041"/>
      <stop offset="0.94" stop-color="#2b426e"/>
    </linearGradient>
    <linearGradient id="e" x1="-99.65" y1="244.12" x2="-102.87" y2="213.79" gradientTransform="translate(383.58 -50.28) rotate(4.23)" xlink:href="#a"/>
    <linearGradient id="f" x1="-490.91" y1="169.63" x2="-434.23" y2="156.99" gradientTransform="matrix(-0.99, -0.16, -0.16, 0.99, -219.92, -63.56)" xlink:href="#c"/>
    <linearGradient id="g" x1="201.77" y1="195.24" x2="196.72" y2="147.86" xlink:href="#a"/>
    <linearGradient id="h" x1="373.18" y1="269.3" x2="375.75" y2="269.3" xlink:href="#a"/>
    <linearGradient id="i" x1="401.66" y1="274.43" x2="405.51" y2="274.43" xlink:href="#a"/>
    <linearGradient id="j" x1="389.22" y1="271.4" x2="404.27" y2="271.4" xlink:href="#a"/>
    <linearGradient id="k" x1="375.04" y1="269.55" x2="389.57" y2="269.55" xlink:href="#a"/>
    <linearGradient id="l" x1="206.95" y1="142.43" x2="200.14" y2="78.42" gradientUnits="userSpaceOnUse">
      <stop offset="0.08" stop-color="#233c73"/>
      <stop offset="0.59" stop-color="#2c4b89"/>
    </linearGradient>
    <linearGradient id="m" x1="268.46" y1="97.84" x2="272.84" y2="143.75" xlink:href="#l"/>
    <linearGradient id="n" x1="210.05" y1="301.85" x2="304.19" y2="301.85" xlink:href="#a"/>
    <linearGradient id="o" x1="64.06" y1="227.67" x2="152.82" y2="227.67" gradientUnits="userSpaceOnUse">
      <stop offset="0.13" stop-color="#007698"/>
      <stop offset="0.56" stop-color="#008ba6"/>
    </linearGradient>
    <linearGradient id="p" x1="64.06" y1="238.7" x2="152.82" y2="238.7" xlink:href="#o"/>
    <linearGradient id="q" x1="64.06" y1="207.36" x2="152.82" y2="207.36" xlink:href="#o"/>
    <linearGradient id="r" x1="64.06" y1="205.77" x2="152.82" y2="205.77" xlink:href="#o"/>
    <linearGradient id="s" x1="64.06" y1="195.34" x2="152.82" y2="195.34" xlink:href="#o"/>
    <linearGradient id="t" x1="64.06" y1="204.76" x2="152.82" y2="204.76" xlink:href="#o"/>
    <linearGradient id="u" x1="64.06" y1="222.4" x2="152.82" y2="222.4" xlink:href="#o"/>
    <linearGradient id="v" x1="64.06" y1="222.73" x2="152.82" y2="222.73" xlink:href="#o"/>
    <linearGradient id="w" x1="64.06" y1="282.55" x2="152.82" y2="282.55" xlink:href="#o"/>
    <linearGradient id="x" x1="64.06" y1="280.88" x2="152.82" y2="280.88" xlink:href="#o"/>
    <linearGradient id="y" x1="64.06" y1="288.08" x2="152.82" y2="288.08" xlink:href="#o"/>
    <linearGradient id="z" x1="64.06" y1="267.42" x2="152.82" y2="267.42" xlink:href="#o"/>
    <linearGradient id="aa" x1="64.06" y1="286.61" x2="152.82" y2="286.61" xlink:href="#o"/>
    <linearGradient id="ab" x1="64.06" y1="280.8" x2="152.82" y2="280.8" xlink:href="#o"/>
    <linearGradient id="ac" x1="64.06" y1="290.89" x2="152.82" y2="290.89" xlink:href="#o"/>
    <linearGradient id="ad" x1="64.06" y1="288.16" x2="152.82" y2="288.16" xlink:href="#o"/>
    <linearGradient id="ae" x1="64.06" y1="290.13" x2="152.82" y2="290.13" xlink:href="#o"/>
    <linearGradient id="af" x1="64.06" y1="256.23" x2="152.82" y2="256.23" xlink:href="#o"/>
    <linearGradient id="ag" x1="64.06" y1="266.78" x2="152.82" y2="266.78" xlink:href="#o"/>
  </defs>
  <title>_</title>
  <g>
    <g>
      <ellipse cx="224.08" cy="224.83" rx="215.2" ry="80.98" fill="#a9af2c"/>
      <ellipse cx="224.08" cy="221.11" rx="215.2" ry="81.62" fill="#cad661"/>
    </g>
    <path d="M328.53,74.29s10.8,39.3,2.07,54.24c9.42,7.12,40.91,2.76,36.77-18.85S328.53,74.29,328.53,74.29Z" fill="#3b1b1d"/>
    <g>
      <path d="M328.61,145.23s-1,6.9-3.91,11.57a120.21,120.21,0,0,1-7.82,11.1c5.67-1.6,13.87-9.88,15.33-15.47a54.65,54.65,0,0,0,1.61-7.51Z" fill="#cf9c58"/>
      <path d="M329.47,126.45a9.51,9.51,0,0,1,6.22-5.73l-2.89,29.41s-5-1.09-9.34-2.47C324.77,140.61,327.3,131.38,329.47,126.45Z" fill="#fff"/>
    </g>
    <path d="M321.56,163.84s-12.87,8.81-13.49,17c-.07,3.07,13,2.53,21.46-5.67,6.66-6.66,6.58-7.05,6.58-7.05Z" fill="#cf9c58"/>
    <g>
      <path d="M359.63,171.2l.84-1.92a23.36,23.36,0,0,1,8.81-1c5.37.3,7.82,2.37,7.67,3.52s-3.22,2.53-12,1.69C360.93,171.89,359.63,171.2,359.63,171.2Z" fill="#32559d"/>
      <path d="M321.56,187.36s10,1.77,24.59-5.13,18.54-8.81,18.54-8.81,6.82.23,6.82-1.68-7.89-1.69-10.27-1.46C356.72,173.5,331.29,177.33,321.56,187.36Z" fill="#cf9c58"/>
      <path d="M330.44,167.9s-8.65,7.51-10,16.32,14.94-1.07,25.74-11.87C337.26,167.6,330.44,167.9,330.44,167.9Z" fill="#cf9c58"/>
    </g>
    <path d="M332.33,155.27a107.73,107.73,0,0,0-15.28,12.12c1.28-.93,5.49-4.51,11.54,2.56-.52.58-1.61,1.56-1.61,1.56s5.77-4.47,13.19,6.2c9.27-4.83,15.1-7.66,16.7-13.79C351,157.49,332.33,155.27,332.33,155.27Z" fill="#00b4ca"/>
    <path d="M340.53,112.58c0,.23,0,6.31,0,6.31l-3.83,1.9s.54,10.34,5.59,10.34,8.81-11.6,8.81-11.6l-2-1.1-.73-8.59Z" fill="#cf9c58"/>
    <path d="M335,120.93s-1.25,28.82-7,37.4c1.84-.31,8-.61,15.63,4,8.84,5.3,9.58,7.74,9.58,7.74s8.81-9.19,7.2-24.59c-.6-5.7,1.8-10.46,1.17-13.72a28.43,28.43,0,0,0-5.47-11.88L350,118.75s-4.3,10.39-7.36,9.7-3-9.09-3-9.09Z" fill="#ff4c3b"/>
    <path d="M353,122.53s0,1.78-.27,5.08a67.24,67.24,0,0,1,1.68,7.46,41,41,0,0,1,5.74-2.58A37.11,37.11,0,0,0,353,122.53Z" fill="#ff4c3b"/>
    <g>
      <path d="M361.93,152.58s-3,16.55-4.75,22.53c-2.76-.69-2.76-1.15-2.76-1.15s2.15-13.79,1.61-22.14A27.09,27.09,0,0,1,361.93,152.58Z" fill="#cf9c58"/>
      <path d="M352.62,122.19a21.89,21.89,0,0,1,6.71,6.25c3.73,5.68,8.7,15.19,6.84,27.57a69.07,69.07,0,0,0-10.14-.36s0-.61,0-1.69c-.06-4.47-.46-17-3.24-26.35A19.68,19.68,0,0,0,352.62,122.19Z" fill="#fff"/>
      <path d="M354.86,172.31a26.17,26.17,0,0,1-3.64,1.19c-1.43.28-2.93,1.17-2.83,1.63s1.67.65,3.1.26c-1.15.77-4,3.16-3.16,3.83s3.46-2.67,3.85-2.39-.07.67-.4,1.26-1.24,2.07-.63,2.21c.84.19,2.62-3.39,3.2-3.2s-.44,3.31.42,3.37,1.09-3.3,1.45-3.26.52,2.36,1.27,2.28-.16-3.16-.18-5.23A13.46,13.46,0,0,1,354.86,172.31Z" fill="#cf9c58"/>
    </g>
    <path d="M339.33,67.16c-5.06,1.73-15.21,5.33-16.7,14s-.35,7.06-1.69,9.38-3.14,10.51,2.49,20.39,10.16,7.65,18.66,3.74S372,94,359.63,74.64C350.21,59.93,339.33,67.16,339.33,67.16Z" fill="#cf9c58"/>
    <path d="M332.67,71.91a17.82,17.82,0,0,0,3.68,19.46c8.66,9.34,11.11,9.27,13.1,10.42.46,4.75,5.05,19.76,3.06,30.33.85.31,1.38-1,1.38-1s-.46,4.21-.84,6c1.23-.23,3.22-2.45,3.22-2.45l-1.15,2.22s4.09,1.86,10.58-.73c15.11-6,11.3-17.49,11.69-26-.2-7.8-2.55-24.54-13.71-37.79C353.24,60,336.27,61.49,326.93,70c-5.14,4.45-4.42,8.81-4.19,11.27C323.58,78,326.85,70.45,332.67,71.91Z" fill="#422b1f"/>
    <path d="M348.29,110.83s7.11-.78,7.59-5.46c.84-8.17-7.59-4.54-8.28-1.89A62.41,62.41,0,0,0,348.29,110.83Z" fill="#cf9c58"/>
    <g>
      <polygon points="366.11 132.74 366.33 132.67 366.38 132.59 366.11 132.74" fill="#503e33"/>
      <path d="M367.23,132.49l.18-.11.17-.11c-.14,0-.14-.06-.18-.06a2.34,2.34,0,0,0-.42.09l-.37.24c-.12.08-.21.15-.16.17l.25-.14a1.8,1.8,0,0,1,.31-.17c-.08.09-.31.2-.4.3.38-.1.21-.14.61-.29Z" fill="#503e33"/>
      <path d="M367.58,132.11s0,.08,0,.1S367.73,132,367.58,132.11Z" fill="#503e33"/>
      <path d="M367.79,132c.22-.13,0,.06,0,.05l.19-.25Z" fill="#503e33"/>
      <path d="M368.68,131.39l.1-.07A.18.18,0,0,0,368.68,131.39Z" fill="#503e33"/>
      <path d="M369.1,131.07a.85.85,0,0,0-.32.25h0c.14-.06.08.09-.13.21s-.22.08-.37.24h0l.1,0,.14-.06A2.66,2.66,0,0,0,369.1,131.07Z" fill="#503e33"/>
      <path d="M368.68,131.39l-.11.09A.26.26,0,0,0,368.68,131.39Z" fill="#503e33"/>
      <polygon points="368.24 131.69 368.13 131.77 368.18 131.78 368.24 131.69" fill="#503e33"/>
      <path d="M369.76,130.51c0,.12-.48.39-.48.5.26-.22.53-.34.51-.25l.13-.14.14-.14C370.12,130.36,370,130.41,369.76,130.51Z" fill="#503e33"/>
      <path d="M370.5,130.19l.05-.07Z" fill="#503e33"/>
      <path d="M371.68,128.63l-.07.12-.17.26-.26.37c0-.08,0-.08.11-.24-.27.29-.27.36-.5.6-.14,0,.4-.43.2-.35a2.33,2.33,0,0,0-.46.61l-.31.21h.16c.13-.08.16-.27.28-.28s0,.11-.1.19c.15-.18.52-.4.83-.77S371.51,128.92,371.68,128.63Z" fill="#503e33"/>
      <polygon points="371.8 128.68 371.87 128.66 371.8 128.66 371.8 128.68" fill="#503e33"/>
      <path d="M372.3,127.83l-.12.2-.12.21a.22.22,0,0,1-.11,0s0,.13,0,.13c.21-.11.33-.47.46-.68.43-.51,0,.05.26-.1-.11.15-.14.14-.3.34a1.79,1.79,0,0,0,.42-.49c.11-.18.2-.36.26-.47a.53.53,0,0,0-.16.17L373,127A3.91,3.91,0,0,0,372.3,127.83Z" fill="#503e33"/>
      <path d="M371.78,128.48c.11-.14.15-.19.17-.19S371.85,128.34,371.78,128.48Z" fill="#503e33"/>
      <path d="M373.15,126.9a.48.48,0,0,0-.08.12A.81.81,0,0,0,373.15,126.9Z" fill="#503e33"/>
      <path d="M372.9,127.05l.1-.13.09-.13-.11.08S372.87,127,372.9,127.05Z" fill="#503e33"/>
      <path d="M378.29,115.83c-.05,0-.1.13-.16.37-.05,0,.06-.35.07-.51-.13.31-.06,0-.14,0-.11.35-.09.53-.21.9,0,0,0,0-.07,0,0,.24-.12.55-.21.86a5.78,5.78,0,0,1-.3.82,5.25,5.25,0,0,0-.21.59c-.06.19-.12.39-.2.62s-.33.75-.48,1.13c-.09.19-.16.39-.25.58l-.27.57c-.18.38-.36.77-.55,1.15s-.43.75-.65,1.13l0,.27c-.09.05-.2.37-.24.29a2.18,2.18,0,0,0,.15-.27,1.17,1.17,0,0,0-.19.27c-.07.09-.13.2-.2.31a5.41,5.41,0,0,1-.38.64s.16,0,.1.08c-.08-.09-.28.45-.46.49-.27.36.08.07-.2.45,0,.08.28-.35.37-.4,0,.16-.25.35-.18.37a12.62,12.62,0,0,0,.76-1.3l.21-.39.11-.2.09-.21q.19-.42.39-.81v.14c.12-.27.3-.61.48-.93a4.54,4.54,0,0,1,.49-.83c-.1.07.41-.77.24-.75a1.32,1.32,0,0,0,.2-.36l0-.07c.12-.28.16-.2.29-.52-.14.18-.06-.06-.07-.17s.22-.35.33-.54l.16-.26.13-.25a.46.46,0,0,0-.12.14c.1-.21,0-.2,0-.26.08-.22.14-.17.18-.15.16-.39.08-.62.24-.9l-.1.09c.07-.21.15-.4.23-.59a6.48,6.48,0,0,0,.2-.62c.15-.2,0,.4-.06.6a1.82,1.82,0,0,1,.15-.34c0-.21.06-.56.09-.82C378.07,116.58,378.24,116,378.29,115.83Z" fill="#503e33"/>
      <path d="M378,117.13c0,.06,0,.11,0,.14s0-.09,0-.15S378,117.11,378,117.13Z" fill="#503e33"/>
      <path d="M378.29,115.83h0S378.31,115.79,378.29,115.83Z" fill="#503e33"/>
      <path d="M377.24,118.4l0-.06,0-.07Z" fill="#503e33"/>
      <path d="M377.39,118.83l-.19.33S377.28,119.1,377.39,118.83Z" fill="#503e33"/>
      <path d="M376.21,121.53c0,.09,0,0,0,.12C376.29,121.48,376.3,121.41,376.21,121.53Z" fill="#503e33"/>
      <polygon points="378.12 116.63 378.2 116.27 378.23 116.14 378.12 116.63" fill="#503e33"/>
      <path d="M378.78,113.84v-.14A.33.33,0,0,0,378.78,113.84Z" fill="#503e33"/>
      <path d="M376.49,90.91a1.26,1.26,0,0,0-.08-.18C376.37,90.67,376.42,90.77,376.49,90.91Z" fill="#503e33"/>
      <path d="M375.75,89.08l0,0S375.74,89.11,375.75,89.08Z" fill="#503e33"/>
      <path d="M373.05,84.47l.07.1A.61.61,0,0,0,373.05,84.47Z" fill="#503e33"/>
      <path d="M368.41,79l-.18-.27,0,.07A1,1,0,0,1,368.41,79Z" fill="#503e33"/>
      <path d="M368.21,78.82a.72.72,0,0,0-.15-.11l.15.12Z" fill="#503e33"/>
      <path d="M363.09,74.64a1.81,1.81,0,0,0-.29-.19A1.2,1.2,0,0,0,363.09,74.64Z" fill="#503e33"/>
      <polygon points="362.76 74.46 362.88 74.57 362.91 74.57 362.76 74.46" fill="#503e33"/>
      <path d="M354.54,70.09l-.48-.21c-.06-.07-.55-.38-.36-.33a2.58,2.58,0,0,1-.5-.29c-.14-.11-.22-.17-.17,0a20.66,20.66,0,0,0,2.18,1.41,23.13,23.13,0,0,0,2.49,1.17l-.27-.07a4.36,4.36,0,0,1,.94.45,3.2,3.2,0,0,0,.85.34l-.13,0c.34.22.76.23,1.09.54l0-.06c.1,0,.13.09.23.15l0,0a2.19,2.19,0,0,1,.68.39s-.13-.06-.21-.1a4.07,4.07,0,0,0,.53.28c.14.12,0,0-.05,0a8.11,8.11,0,0,0,1.31.72c.06,0-.12-.15.1,0a4.07,4.07,0,0,0-1.08-.62l.1.06c-.37,0-.2-.16-.69-.38a3.76,3.76,0,0,1,.45.16,2.17,2.17,0,0,0-.61-.4l-.24-.13a.77.77,0,0,1-.22-.19l0,0a1.75,1.75,0,0,0-.36-.16,1.72,1.72,0,0,0,.22.17.5.5,0,0,0-.28,0c-.11-.13-.2-.07-.41-.21-.05-.1.21,0,.31.06l-.28-.11c-.25-.12-.21-.19-.31-.28s.1.09-.1.06a9.18,9.18,0,0,0-1.94-1c.19.09.1,0,.32.09-.07,0-.38-.16-.4-.12a5.83,5.83,0,0,1-1.19-.62l.08.1a1.87,1.87,0,0,1-.54-.28l-.33-.2a3.07,3.07,0,0,0-.36-.2h0a2,2,0,0,1-.65-.26C354.37,70.05,354.53,70.15,354.54,70.09Z" fill="#503e33"/>
      <path d="M352.8,69l.1,0,.09,0c-.15-.15-.4-.26-.4-.2s.24.23.29.22S352.88,69,352.8,69Z" fill="#503e33"/>
      <path d="M350.48,65.81c0-.07-.06,0-.09-.06a8.07,8.07,0,0,0,.58,1.18l.5.78a.78.78,0,0,0,.23.22,1.63,1.63,0,0,1,.29.24.45.45,0,0,1,0,.08l0,.08c.16.12.53.57.46.35a1.16,1.16,0,0,1-.26-.21h.05L352,68.2l.12.06a.8.8,0,0,0-.33-.31,1,1,0,0,1-.39-.39l.08-.06c-.12-.17-.22-.29-.3-.42a2.15,2.15,0,0,1-.21-.43s-.05,0,0,.07,0,.16,0,.14c-.38-.53.1,0-.08-.36a4.6,4.6,0,0,1-.48-.92,2.42,2.42,0,0,1-.18-.83c0,.26-.15-.1-.17-.42,0-.15.07.09.1.14a2.64,2.64,0,0,0,0-.4c-.05.18-.13.07-.17-.28a2.92,2.92,0,0,0,.13,1C350.22,65.16,350.36,65.46,350.48,65.81Z" fill="#503e33"/>
      <path d="M350.33,65.63l.06.12-.09-.28Z" fill="#503e33"/>
    </g>
    <g>
      <path d="M59,193.26c1.21,0,2.28-.43,2.14-.94s-2.76-.77-4.86-.63c-5.81-3.08-15.06-2.43-21.81-3.79-.49,2.13-1,4.26-1.41,6.4a60.88,60.88,0,0,0,11.52-.42,62.41,62.41,0,0,1,10.19-.6,8.16,8.16,0,0,1,3.1,2.67c1.53,2,1.91,3.29,2.39,3.07s-.17-2.14-.17-2.14,1.72,2.12,2.24,1.94-.94-2.41-1.46-3.09c.42.29,2.23,2.14,2.43,2S62.7,195.68,59,193.26Z" fill="#e9b988"/>
      <g>
        <path d="M49.64,192.51s3.42-2.56,7.63,2.1,7.54,10.58,10.5,13l-6.38,2s-18.62-1.15-21.16-7.78C39.61,200.23,46,194.61,49.64,192.51Z" fill="#e9b988"/>
        <path d="M48.51,197.18s6.42-2.33,12.26,9.57c-6.07,8.64-16,11.44-16,11.44S40.7,206.63,48.51,197.18Z" fill="url(#a)"/>
      </g>
      <g>
        <path d="M81.46,213s12.1-6.18,12.1-12.4-10.08-2.69-14.28-.43C80.45,207.45,81.46,213,81.46,213Z" fill="#e9b988"/>
        <path d="M29.57,222s5.21,8.4,32.29,1.4c17.66-5.06,22.64-8.79,22.64-8.79s.62-8.4-4.28-14.94c-9.57,3-17.9,6.77-22.41,7.16C48.32,215.31,29.57,222,29.57,222Z" fill="url(#b)"/>
      </g>
      <path d="M40.89,155.47s-6.57,10.27-8.62,13.31c13,4,15.78.46,15.78.46.19-4.07-1.46-6.64,1-12.6Z" fill="#e9b988"/>
      <g>
        <path d="M46.14,166.56s6.6,17.27,23.76,25.76c7,1.71,17.34.72,23.37,4.35L92.21,198a64.27,64.27,0,0,0-11.22.57,65.27,65.27,0,0,1-12.55.37c-1.43-1.29-13.77-4.8-21.86-17.13C44.12,171.48,46.14,166.56,46.14,166.56Z" fill="#e9b988"/>
        <path d="M91.85,197.92s1.27.05,3.11,2.67c1.46,2.09,1.91,3.29,2.39,3.07s-.17-2.14-.17-2.14,1.73,2.12,2.24,1.94-.94-2.41-1.46-3.08c1,.2,1.58,1.94,2.12,1.74.21-.26-.57-2.72-3-3.64,1.2,0,1.57-.34,1.43-.86s-3.29-.57-5.5-1.06A8,8,0,0,0,91.85,197.92Z" fill="#e9b988"/>
      </g>
      <path d="M91.1,214.4s.39-1.92-.61-2.81-3.46.17-4.84,1.38a55.72,55.72,0,0,1-6.17,3.42C78,217.21,77.83,219.3,81,219S89.34,217.21,91.1,214.4Z" fill="#ca4d1c"/>
      <path d="M86.3,213.48s.9-.5,2-1.16c1.77-1,3.59.91,2.39,2.9s-8,4.66-11.23,3.79c-2.06-.78,0-2.18,1.12-2.76S84.93,214.39,86.3,213.48Z" fill="#c98612"/>
      <path d="M47.76,164.49s-6.52,2.93-10.25.21c-6.16-1.31-10.12,0-12.42,3.09-4.67,6.21-18,21.47-1.94,49.93C25.33,220,32,225.77,41.71,223c7.06-2,17.36-10.79,17.43-15.69-3.61-.26-9.19,2.74-12.8-24.41-.59-3.41,3.15-7.12,3.11-10.27A24.15,24.15,0,0,0,47.76,164.49Z" fill="#fff"/>
    </g>
    <path d="M70.18,122.81c-.92,0-1.69-1.68-1.73-1.75l.15-.08s.93,2,1.84,1.59l.07.16A.8.8,0,0,1,70.18,122.81Z" fill="#c8571b"/>
    <g>
      <path d="M102.61,149.7s7.77,14.16,23.68,11.94,20.92-13,20.92-13Z" fill="#005a73"/>
      <g>
        <g>
          <path d="M143.74,161.05s-18.82,4.07-26.65,4.2c-4.94-.68-3.66-2.44-3.66-2.44s2.5.53,7.43-.59a146.39,146.39,0,0,0,17.45-5.67C143.55,157.85,143.74,161.05,143.74,161.05Z" fill="#eaa270"/>
          <path d="M114.91,164.38s2.47-1,2.27-2-2.64.46-2.64.46-3.47-.25-5.32-1.67c-1.72-1.26-2.85.59-2.73,1.57s2.29,2.8,5.84,3.37,3.94.44,3.94.44.6-.9,1-1.42C116.43,165.24,115.13,164.92,114.91,164.38Z" fill="#ff9f98"/>
          <path d="M109.31,161.27a6.25,6.25,0,0,0-1.43,3.22c-1.18-.85-2.43-2.07-1.72-3.31C106.78,160.1,108.08,160.29,109.31,161.27Z" fill="#fff1da"/>
          <path d="M106,161.8a2.47,2.47,0,0,0,.11,1.92,9.62,9.62,0,0,0,6.86,3c2.91.08,3.35-.15,3.35-.15s-4.73-.1-7.62-1.65a7,7,0,0,1-1.9-1.4A2.29,2.29,0,0,1,106,161.8Z" fill="#e8dcc6"/>
        </g>
        <path d="M140.08,150.07l8.27-2.4c3.14-.93,5.12-.34,5.79,1.82s-2.15,10.7-16,15.7a55.38,55.38,0,0,1-5.8-9.13S138.85,152.23,140.08,150.07Z" fill="#006b88"/>
      </g>
      <g>
        <g>
          <path d="M105.61,162.9s18.82,4.07,26.65,4.2c4.93-.68,3.66-2.44,3.66-2.44s-2.5.53-7.44-.58A147.14,147.14,0,0,1,111,158.4C105.8,159.7,105.61,162.9,105.61,162.9Z" fill="url(#c)"/>
          <path d="M134.44,166.23s-2.48-1-2.27-2,2.63.46,2.63.46a11.5,11.5,0,0,0,5.33-1.67,1.8,1.8,0,0,1,2.9,1.58c-.13,1-1.79,2.8-5.34,3.36a20.66,20.66,0,0,1-4.61.44s-.6-.9-1-1.42C132.92,167.09,134.22,166.77,134.44,166.23Z" fill="#ff9f98"/>
          <path d="M140,163.12a6.25,6.25,0,0,1,1.43,3.22c1.18-.84,2.43-2.07,1.72-3.31C142.57,162,141.27,162.15,140,163.12Z" fill="#fff1da"/>
          <path d="M143.4,163.65a2.47,2.47,0,0,1-.11,1.92,9.63,9.63,0,0,1-6.87,3c-2.9.08-3.34-.15-3.34-.15s4.72-.1,7.61-1.65a7.29,7.29,0,0,0,1.91-1.4A2.33,2.33,0,0,0,143.4,163.65Z" fill="#e8dcc6"/>
        </g>
        <path d="M121,159a48.24,48.24,0,0,1-8.27,9.77c-5.49-3.14-20.78-12.47-16.19-18.13,2.9-3.58,11.94,1.51,17.06,2C120.28,156.36,121,159,121,159Z" fill="#006b88"/>
      </g>
      <path d="M122.48,111.31a35.47,35.47,0,0,0-5.07,3.63c-3.14,8.61-8.88,28.93-8.79,38.56,6.94,3.51,10.55,4.25,18,3.42s15.18-5.64,15.36-6c-1.66-9-5.86-30-9.19-37.38a46.12,46.12,0,0,0-4.72-2.5Z" fill="#fff"/>
      <path d="M143.13,88.69,100.9,101.3a34.06,34.06,0,0,1,10.33,9.13c.91-.16,2-.31,3.14-.47a13.29,13.29,0,0,0-1.77-2.56,14,14,0,0,1,3.13,2.39c7.72-1,18.44-1.76,18.44-1.76C134.28,104.27,143.13,88.69,143.13,88.69Z" fill="#1d1a15"/>
      <path d="M120.22,112.73s.77,3.94,5.7,3.64c5.44-.32,4.08-4.4,4.08-4.4s-3-2.21-4.6-2S120.22,112.73,120.22,112.73Z" fill="#00c4ff"/>
      <path d="M122.66,105.56l-1.76,7.22s.45,2.08,5.22,1.82c3.42-.19,3.65-1.7,3.62-2.16l-2.21-7.65Z" fill="#f2b680"/>
      <g>
        <path d="M151.23,145c-2.22,3.89-9,8.9-16,11.43a24,24,0,0,0-1.54-2s8.8-4.11,11.09-9.42c-.93-8.2-5.21-22.33-7.24-27.14A67.68,67.68,0,0,1,151.23,145Z" fill="#f2b680"/>
        <path d="M151.07,144.28c-2.84-12.92-10.14-26.89-15.59-29.38,2,4.81,7.33,21.87,8.26,30.07a12.08,12.08,0,0,1-2.11,3.52c.73.65,1.69,1.79,2.68,2.78A20.67,20.67,0,0,0,151.07,144.28Z" fill="#00c4ff"/>
        <path d="M137.24,130.21s8.75-6.89,9.24-7.26a76.45,76.45,0,0,0-8.92-9.24c-1.86-1.49-5.59-.48-7-1.45C132.8,117.75,137.24,130.21,137.24,130.21Z" fill="#fff"/>
        <path d="M135.48,156.33a3.7,3.7,0,0,0-1.58-2,5,5,0,0,1-2.71.86c-1.16-.14-2.52-.34-2.71.2s1.86.55,1.58,1-3.29,1.46-3.18,2.15,3.12-.88,3.35-.65-2.29,2.61-1.53,2.72,2.4-1.63,2.59-1.47-1,2.61,0,2.43c.47-.09.84-1.23,1.45-2.43.15.47.22,1.78.32,1.88s.65.5.85-.93a9.63,9.63,0,0,1,1.36-3.69Z" fill="#f2b680"/>
      </g>
      <g>
        <path d="M120.06,156.23c-2.15-1-10.44-5.39-14.28-11.29.77-5.83,6.77-23.44,6.77-23.44s-11.77,9.25-13.49,25c3.44,5,12.4,10.09,19.42,11.69C118.84,157.52,119.66,156.85,120.06,156.23Z" fill="#f2b680"/>
        <path d="M105.81,142.78c1.56-4,3.71-11.22,5.43-17.46,1-3.59.62-7.14,1.67-9.09-4.89.92-13.86,14.33-15.65,28.34,2.37,3.45,5.44,7.09,10.12,9,.75-1.33,3.64-4.2,4.12-4.81A20.86,20.86,0,0,1,105.81,142.78Z" fill="#00c4ff"/>
        <path d="M117.13,121.49c3.06-5.29,2.54-7.76,2.2-8.31A26.91,26.91,0,0,0,103,122.55c.79,1.58,7.06,7.62,7.86,10.29A120.18,120.18,0,0,1,117.13,121.49Z" fill="#fff"/>
        <path d="M118.47,158.15a3.61,3.61,0,0,1,1.56-1.94,5,5,0,0,0,2.68.86c1.15-.15,2.5-.34,2.68.2s-2.41.7-1.63,1.37c1.52-.35,2.56.39,2.45,1.08s-1.56-.62-2.55.05c-.32.32,2.17,2.4,1.42,2.51s-2.28-1.43-2.47-1.27,1,2.58,0,2.4c-.46-.09-.83-1.22-1.43-2.4-.15.46-.22,1.76-.32,1.86s-.64.49-.84-.92a9.59,9.59,0,0,0-1.34-3.65Z" fill="#f2b680"/>
      </g>
      <g>
        <path d="M140.17,94.1s6,.27,5.65-5.71-5-4.66-6.39-.59C140.11,93.54,140.17,94.1,140.17,94.1Z" fill="#dba674"/>
        <path d="M142.76,90s.9-9.59,3-12.61c-1.24-4-3.4-9.87-11.29-15.73C130.58,71.06,137.21,87.56,142.76,90Z" fill="#1d1a15"/>
        <path d="M130.46,65.69c5.12,2.22,8.45,6.41,9.5,14.8s4.13,6.3,3.82,10.74,1.39,14.88-12.42,18.71c-14.36,4-23.25-8.26-29.34-17.23-5.65-8.34,1.62-24.55,15.11-27.08C127.31,63.72,130.46,65.69,130.46,65.69Z" fill="#f2b680"/>
        <path d="M129.16,58.78c-13-5.37-31.58,4.69-34.36,17.15a33.35,33.35,0,0,0,4.88,26.34c2.34-1.88,4.64-5,8.57-7.25a39.78,39.78,0,0,0-1.85-6.45s6-7.48,18.16-9.63a62.7,62.7,0,0,0-1.23-12l5.42,11.54,1.3-.1a88.14,88.14,0,0,0-4.64-10,104,104,0,0,1,5.4,9.92c9.89-.56,10.73,1.35,13.09,2.76C144.4,75.68,142.18,64.15,129.16,58.78Z" fill="#1d1a15"/>
        <path d="M107.19,95.81s-6.28-3.47-8.07.23,4.83,8.29,9.95,5.45A18.46,18.46,0,0,0,107.19,95.81Z" fill="#f2b680"/>
      </g>
    </g>
    <path d="M294.35,175.19s9-16.1-53.09-18.16-59.1,18.16-59.1,18.16A214.71,214.71,0,0,0,239.85,183C272.58,183,294.35,175.19,294.35,175.19Z" fill="#556f9e"/>
    <path d="M226.76,144.74c-12.65,0-38-3.3-55.89,4.71-3.4,2.09-.46,7.27.44,8.33,2,2.35,17.27,11.51,41.94,10.92,9.87-.12,24.32-2.46,29.13-1.41s38.65,4.35,48.76-.7,11.16-9.4,10.57-12S284.44,144.62,226.76,144.74Z" fill="url(#d)"/>
    <path d="M231.7,166.58s33.8-9.39,48-10.93,20.55-5.07,22.19,1.42-21.29,18.32-42.7,21.09-28.42,2-28.42,2l-2-13.22Z" fill="url(#e)"/>
    <path d="M182.36,124.12c-1.85-.09-4.37.58-5.59-.36s-3.25-2.35-5.19-3.57-2.17-.58-3.47-1.8-1.81-2-2.44-1.13.27,1.94,2.39,4c1.13,1.08.5,1.57.14,1.62a28.58,28.58,0,0,1-4.61.09c-2.43-.14-5.59.54-7.89-1.4-1.58-1.4-.95.58,0,1.44,3.07,2.67,9.3,1.72,9.48,2.8-1,.86-8.89-.9-10-1.62s-1.85.22-.36,1.17a27.84,27.84,0,0,0,9.88,3.2,24,24,0,0,0,11.46.14c3-.18,7-.32,7-.32Z" fill="#c7874b"/>
    <path d="M172.22,129a19.28,19.28,0,0,1-10.24-.4c-1.17-1.72-1.13-5.87-.4-5.78s1.3,3.07,1.3,3.07a12.74,12.74,0,0,1,1.58,2.26,8.79,8.79,0,0,1,4.06-.5A24.83,24.83,0,0,1,172.22,129Z" fill="#c7874b"/>
    <path d="M172.77,129.2c-1.13.36-3.11.32-3.88-.4s-2.35-2.84-2.39-4.2c.76-.22,2.57,1.85,3.25,2.71A11.76,11.76,0,0,1,172.77,129.2Z" fill="#c7874b"/>
    <path d="M237,164.8l.4,16.06s-9,1.58-9.75-.66-.79-13.82-.79-13.82Z" fill="#445985"/>
    <g>
      <path d="M181.65,164.47S195,174.07,208.2,179c10.4,3.91,20.15,3.22,27.57,4.55,10.88.27,8.74-4,8.74-4s-5.57.25-15.82-3.88S206.56,165,193.06,157.37C181.3,158.31,181.65,164.47,181.65,164.47Z" fill="url(#f)"/>
      <path d="M240.77,182.49s-5-3-4.2-5.05,5.52,1.92,5.52,1.92,7.5.71,12.07-1.73c4.16-2.11,6.32,2.36,5.7,4.43s-4.84,5.4-12.69,5.37-10.1-.68-10.1-.68-1-2.16-1.63-3.4C237.19,183.8,240.11,183.58,240.77,182.49Z" fill="#ff9f98"/>
      <path d="M253.94,177.75a13.56,13.56,0,0,1,1.95,7.45c2.85-1.41,6-3.62,4.88-6.55C259.82,176.11,257,176.08,253.94,177.75Z" fill="#fff1da"/>
      <path d="M261,180.08s.45,2.79-.9,4.1c-1.52,1.29-6.92,5-15.87,4.08-6.3-.86-7.16-1.51-7.16-1.51s10.22,1.45,17-.88a15.56,15.56,0,0,0,4.61-2.34A5.07,5.07,0,0,0,261,180.08Z" fill="#e8dcc6"/>
    </g>
    <path d="M189.87,152.26s27.49,12.57,37.36,20.2c-8.81,8.93-11.75,11-11.75,11s-14-5.87-26.2-12.1-19.14-12.57-19.85-18S177.77,146.26,189.87,152.26Z" fill="url(#g)"/>
    <path d="M208.32,180.68s8.34,4.7,12.92,6.82c4.93-.24,10.1-7.52,10-13.28-2.52-2.64-7.75-5.4-7.75-5.4S220.77,178,208.32,180.68Z" fill="#5570a6"/>
    <g>
      <path d="M456.84,175s3.15-5,3.24-6.77c0,0,2.84.35,1.1,4.08a38.74,38.74,0,0,1,4.58.55s0,0,0,0l3.69.31a.76.76,0,0,1,.65.89.82.82,0,0,1-.88.7l-4.14-.35-.06.31,4.73,1.33a.82.82,0,0,1,.58,1.05.87.87,0,0,1-1.07.58l-4.55-1.27c0,.06,0,.12-.05.18l3.77,2a.8.8,0,0,1,.35,1.09.82.82,0,0,1-1.07.42L464,178.15l0,.09,2.71,2.65a.74.74,0,0,1,.09,1,.7.7,0,0,1-1,.14l-2.58-2.52-3.89-.49c-15.91,17.33-30.58,27.4-37.91,29.63,0,0-5.74,2.8-8.18-3.18-3-7.31,4.64-8.32,4.64-8.32C430.79,195.11,456.84,175,456.84,175Z" fill="#e7ad8b"/>
      <path d="M343,177.75s-2.92-5.13-2.92-6.91c0,0-2.86.22-1.29,4a39.17,39.17,0,0,0-4.6.34s0,0,0,0l-3.7.15a.76.76,0,0,0-.69.85.82.82,0,0,0,.85.74l4.14-.17c0,.11,0,.22.06.32l-4.79,1.11a.85.85,0,0,0-.63,1,.88.88,0,0,0,1.05.64l4.6-1.07c0,.06,0,.13,0,.19l-3.86,1.79a.82.82,0,0,0-.4,1.08.83.83,0,0,0,1.06.46l3.8-1.76,0,.08L333,183.2a.75.75,0,0,0-.14,1,.71.71,0,0,0,1,.18l2.7-2.4,3.9-.31a97.37,97.37,0,0,0,41,28.42s5.61,3.06,8.32-2.8c3.33-7.17-4.26-8.52-4.26-8.52C372.66,196.14,343,177.75,343,177.75Z" fill="#e7ad8b"/>
      <path d="M394.4,199.71l-16.52-4.91s-3.79,3.89-4.68,14.54l18,4.9Z" fill="#b6375c"/>
      <path d="M407.45,199.21l13.76-4.41s4.94,2.17,5.27,13.42l-15.28,5.39Z" fill="#b6375c"/>
      <path d="M381,244.1s2.59-41.16,13.31-46.61c0,0,11-4.42,16.53,3.55,12.19,17.68,10.27,54,10.27,54S386.69,262.52,381,244.1Z" fill="#b6375c"/>
      <path d="M359.89,236.91s10.57-4,21.21,4.38c0,0,7.33,13.09,25.22,11.32,0,0,21.5-2.65,25,3.7,0,0-23,15.93-40.84,10.21S360.33,242.52,359.89,236.91Z" fill="#50bfa9"/>
      <path d="M375.35,266.23c-1.61.14-2.94,1-1.64,4.41a3.15,3.15,0,0,0,2,1.73A9.83,9.83,0,0,1,375.35,266.23Z" fill="url(#h)"/>
      <path d="M404.27,271.78a20.15,20.15,0,0,1-2.61,5.31,2.85,2.85,0,0,0,2-.65C406.4,274.06,405.64,272.65,404.27,271.78Z" fill="url(#i)"/>
      <g>
        <path d="M395.85,197.68l.08,3.07s1.28,2.53,5.17,2.4a6.15,6.15,0,0,0,4.95-2.66l-.12-4.56C401.81,198.75,397.58,197.85,395.85,197.68Z" fill="#ebb99c"/>
        <path d="M405.93,195.93l-.27-9.09-10.13.26.32,10.58C397.58,197.85,401.81,198.75,405.93,195.93Z" fill="#e7ad8b"/>
      </g>
      <g>
        <path d="M381.11,154.63s-22.19-5.77-20,22.31c0,0,1.48,5.22-5.18,2.22,0,0,6.36,8.33,10.06,0,.12-.27.25-.54.39-.8-.25,2.68.58,4.41.94,6,.82,3.7-1.59,3.47-1.59,3.47,1.14,1,4.38,3.21,4.8-5.63a27.75,27.75,0,0,1,.67-4.91,8,8,0,0,0,4.4,5.25s-1.47-12,3.1-17.18C381.67,162.52,383.43,159.37,381.11,154.63Z" fill="#e3ab47"/>
        <path d="M377.17,159.85c0-3,1.71-5.49,3.81-5.49s3.81,2.45,3.81,5.49-1.71,5.49-3.81,5.49S377.17,162.88,377.17,159.85Z" fill="#b6375c"/>
        <path d="M400.18,194.1s27.5,2.47,27.22-24.16-18.84-31.64-27-27.95c0,0-22.14-7.82-22.1,27.38C378.29,169.37,377.17,195.24,400.18,194.1Z" fill="#e3ab47"/>
        <path d="M418.59,172.2a31.69,31.69,0,0,0-.57-4.29c-13.47-5.48-17.38-20.56-17.38-20.56s-7.24,12.94-18.12,16.06c-6.46,20,3.81,31,13.33,32.86,13,2.51,20.93-12.34,20.93-12.34s5.88,3.5,8.36-3.9C428.05,171.33,420.06,171.6,418.59,172.2Z" fill="#ebb99c"/>
        <path d="M422,163c0-3,1.71-5.5,3.81-5.5s3.81,2.46,3.81,5.5-1.7,5.49-3.81,5.49S422,166,422,163Z" fill="#b6375c"/>
        <path d="M425.77,159.07s22.19-5.77,20,22.31c0,0-1.47,5.22,5.18,2.22,0,0-6.36,8.33-10.05,0-.12-.27-.26-.54-.4-.8.25,2.68-.58,4.41-.93,6-.83,3.7,1.59,3.47,1.59,3.47-1.15,1-4.39,3.21-4.81-5.63a28.63,28.63,0,0,0-.66-4.91,8.1,8.1,0,0,1-4.4,5.25s1.46-12-3.1-17.18C425.22,167,423.45,163.81,425.77,159.07Z" fill="#e3ab47"/>
      </g>
      <path d="M391.41,265.71a76.08,76.08,0,0,1-7.86-7,8,8,0,0,0-4.61,5.49c3,1.66,6.55,3.93,10.28,5.75C393.73,269.89,391.41,265.71,391.41,265.71Z" fill="#e7ad8b"/>
      <path d="M402.72,271c-2-.74-8.81-5.25-11.31-5.33,0,0,2.32,4.18-2.19,4.2,0,0,7.86,7.08,12.44,7.18a20.15,20.15,0,0,0,2.61-5.31A8.43,8.43,0,0,0,402.72,271Z" fill="url(#j)"/>
      <path d="M389.55,266.76c-2.26-1.09-10.42-.23-12.49-.47a8.78,8.78,0,0,0-1.71-.06,9.83,9.83,0,0,0,.4,6.14c4.4,1.59,13.82-.88,13.82-.88S385.65,269.66,389.55,266.76Z" fill="url(#k)"/>
      <path d="M401.92,263.69a62.31,62.31,0,0,1-12.37,3.07c-3.9,2.9,0,4.73,0,4.73,5.32.13,10.4-.28,14.49-.5A8.43,8.43,0,0,0,401.92,263.69Z" fill="#e7ad8b"/>
      <path d="M383.81,258.81a22.81,22.81,0,0,1-3.5-4.58c-2.67-5-14.5-22.58-22.49-16.21,0,0-10.75,8.68,21.39,26.68A8.86,8.86,0,0,1,383.81,258.81Z" fill="#77cabf"/>
      <path d="M432.09,257.6c-4.18-9.34-22.73.81-27.41,4.06a19.12,19.12,0,0,1-3.54,1.82,9.76,9.76,0,0,1,2.5,7.87C437.38,269.6,432.09,257.6,432.09,257.6Z" fill="#50bfa9"/>
    </g>
    <path d="M226.93,39.67c-.23,0-2.47,26.47-2.47,26.47s27.31,16.45,46,0l-3.3-45L246,13.42,223.85,27Z" fill="#231f20"/>
    <path d="M228.31,73.24a31.73,31.73,0,0,0-10.63,12.29c-4,7.83-15.62,32-20.16,34.07s-18.55,3.49-21.38,3a7.69,7.69,0,0,1,.48,5.57c4,1.49,23.87,3,31-1.06s14.79-18.7,17.11-24.88C231,85.65,228.31,73.24,228.31,73.24Z" fill="url(#l)"/>
    <path d="M250.34,52.65l1.93-.77A85.73,85.73,0,0,0,253.64,61c.9,4.41,5.84,4.44,7.09,5.94-.54,9.42-20.86,10.54-26.09,2.2,1.09-.75,6-3.2,6.12-4.3a58.9,58.9,0,0,0,.73-7.46l-.06-4.06Z" fill="#c7874b"/>
    <path d="M214.74,84.5C217.55,78.9,225,73.09,225,73.09c4.19-3.55,15.28-7.76,15.28-7.76a6.32,6.32,0,0,0,5.94,5.17c4.68.2,8.83-1.2,10.89-6,7.14,2.56,15.32,4.15,14.92,5,0,0-.66,13.62.75,20.67,4.46,7.36,2,30,7.25,54.5-34.15,12.06-52.72,8.14-63.53-.16,3-5,12.1-25.55,8.81-36.12.16-9.24-.85-9.49,1.66-18.26l-12.44-5.48" fill="#00c3ff"/>
    <path d="M248.16,73.48c8.43-.76,11.1-5,11.62-8.06q-1.29-.6-2.73-1.14a10,10,0,0,1-11.33,6,6.11,6.11,0,0,1-5.31-5,10.62,10.62,0,0,0-3.28,1.6l0,.14S238.6,74.34,248.16,73.48Z" fill="#2c4b89"/>
    <path d="M267.7,68.25s10.16.57,12.65,4.41S290.12,88,290.12,88l-15.9,9.58-8.43-17Z" fill="#00c3ff"/>
    <g>
      <path d="M245,8.13c6.58-.05,17.61,3,18.61,13.77s.44,14.34,1.25,18.13c.76,3.6,2,13.29-13.64,21.37a7.68,7.68,0,0,1-5.78.5c-6.35-2-15.82-6.68-16.54-14-.86-8.59-1.13-22.31-.28-28S235.81,8.2,245,8.13Z" fill="#c7874b"/>
      <g>
        <path d="M250.69,9.54s1.89,12,17.16,18.14C270.52,22.42,268,9.21,250.69,9.54Z" fill="#1f160f"/>
        <path d="M226.75,42.45c.34-3.17.09-10.36,8-14.29,5.67-2.81,20-9.71,17.05-21.32-3.24-1.15-19.55-1.24-24.11,4.56S218.73,28.74,226.75,42.45Z" fill="#1f160f"/>
        <path d="M250.06,4.13a23.66,23.66,0,0,0-14.73-1.44c-7.54,1.82-14,7.5-17.05,19.64-2.3,9.28-19,36-1.87,50.58,6.44,5.49,17.34,5.12,20.71,1.36-11-9.72-8.15-26.48-8.35-31s-.92-17.73,1.32-23S241.47,8.5,249.16,10.08s10.88,6,11.62,9.6,3,9.49,4.09,13.91,6.19,28.47-4.12,39.46c2.75,2.52,7.4,4.58,11,4.23,6.64-.65,23.16-3.67,4.86-55.55C270.78,5.1,258.51,0,250.06,4.13Z" fill="#1f160f"/>
      </g>
    </g>
    <path d="M40.31,168l3.32-1.83,4.13-1.71L57.67,178l-12.59,8.84s-6.85-11-6.93-11.23S40.31,168,40.31,168Z" fill="#fff"/>
    <path d="M254.57,148.92c-4.41,1.83-4.79,2.31-7.79,2.5a47.8,47.8,0,0,1-7.87-.5c-1.75-.15-2.17,1.38-.46,1.77s4.4,1.1,5.82,1.43l.78.38s-7.47,2-8.63,5.16c-.29,1.08.49.57,2.17-.26a46,46,0,0,1,6.23-2.52c-2.19,1.79-6.29,6.22-6.32,7.26s2-.86,4.44-3.08,4.48-3.48,4.67-3.2c-1.22,1.63-4.11,6.2-3.62,7.33s3.59-4.36,5.34-6.14a15.82,15.82,0,0,0,7.67-5.67C259.31,151.77,257.93,147.53,254.57,148.92Z" fill="#c7874b"/>
    <path d="M274.64,96.68c2,12.26,4.71,27,1.69,33.65-3.18,6.93-24.68,19-24.68,19A47.4,47.4,0,0,1,255.3,155c12.34-2.82,35.4-14.49,37.05-19.34,1.22-18.63-2.23-33.26-7-46.19C281.29,92.21,278.93,94.22,274.64,96.68Z" fill="url(#m)"/>
    <g>
      <path d="M233.4,288.57s-21.4-12.13-23.27,5.36c-1.83,17.09,29.76,27.18,49.65,27.18s46.13-14,44.32-29.61c-1.71-14.76-17.83-7.84-23.23-2.93Z" fill="url(#n)"/>
      <path d="M306.82,193.36s1.31-6.4.71-8.27c0,0,3.08-.76,2.73,3.78a43.57,43.57,0,0,1,5-1.22s0,0,0,0l4-1.12a.84.84,0,0,1,1,.67.9.9,0,0,1-.63,1.07l-4.42,1.25.06.36,5.41-.49a.93.93,0,0,1,1,.86,1,1,0,0,1-.87,1l-5.21.46c0,.07,0,.14,0,.21l4.68.56a.89.89,0,0,1,.79,1,.9.9,0,0,1-.95.85l-4.6-.54v.1l3.84,1.67a.84.84,0,0,1,.5,1,.78.78,0,0,1-1,.54l-3.66-1.59-4.21,1c-9.7,24.16-20.95,40.33-27.66,45.5,0,0-4.85,5.16-9.71-.08-6-6.39,1.55-10.43,1.55-10.43C287.72,224.38,306.82,193.36,306.82,193.36Z" fill="#e9b988"/>
      <path d="M205.57,192.77s-.77-6.49,0-8.3c0,0-3-1-3,3.54a45.65,45.65,0,0,0-4.84-1.64v0L193.84,185a.84.84,0,0,0-1.06.58.9.9,0,0,0,.54,1.12l4.3,1.62-.09.35-5.35-.94a.92.92,0,0,0-1.08.77,1,1,0,0,0,.79,1.1l5.15.9c0,.07,0,.13,0,.21l-4.7.15a.93.93,0,0,0,0,1.86l4.63-.16v.1L193,194a.83.83,0,0,0-.58,1,.77.77,0,0,0,.94.62l3.78-1.28,4.11,1.37a107.76,107.76,0,0,0,29.59,46.67s4.4,5.54,9.68.74c6.48-5.87-.67-10.53-.67-10.53C227.84,224.3,205.57,192.77,205.57,192.77Z" fill="#e9b988"/>
      <path d="M233.49,293.68s-2.86-59,23.77-59c0,0,23.45-2.65,23.69,59C281,293.68,256.48,308.52,233.49,293.68Z" fill="#fff"/>
      <path d="M277,257.89a53.07,53.07,0,0,0-4.7-12c-12.27,2.92-24.81,1.66-31.44.59a55.36,55.36,0,0,0-4.19,11.68A88.9,88.9,0,0,0,277,257.89Z" fill="#ed4c4e"/>
      <path d="M257.38,241c4.13-.18,6.42-2,7.65-3.67-4.29-3-7.77-2.65-7.77-2.65a15.51,15.51,0,0,0-7.69,1.95C250.43,238.57,252.49,241.23,257.38,241Z" fill="#ed4c4e"/>
      <path d="M234.44,270.65c-.53,4.44-.8,8.67-.93,12.27,9,2.68,25.81,5.58,47.11-.49-.27-4.67-.69-8.89-1.24-12.7A104.38,104.38,0,0,1,234.44,270.65Z" fill="#ed4c4e"/>
      <path d="M248.46,237.31l-15.31-13.57s-9,.74-14,14.6L239,250.75Z" fill="#ed4c4e"/>
      <path d="M265.17,237.77l15.32-13.58s8.95.74,14,14.6L274.68,251.2Z" fill="#ed4c4e"/>
      <path d="M233.51,293.69l-.11-1.76s18.71,13.75,47.55,0l-.05,1.75S256.1,308.39,233.51,293.69Z" fill="#ed4c4e"/>
      <g>
        <path d="M262.9,233.49l0,3.39s-1.38,2.81-5.69,2.73a6.8,6.8,0,0,1-5.51-2.87l.07-5.05C256.31,234.76,261,233.7,262.9,233.49Z" fill="#f3a883"/>
        <path d="M251.72,231.69l.17-10.05,11.2.14-.19,11.71C261,233.7,256.31,234.76,251.72,231.69Z" fill="#f3a883"/>
      </g>
      <g>
        <path d="M279.21,204.23s8.42-1.49,6.88,6.66-9.6,8.44-11.3,6.58Z" fill="#e9b988"/>
        <path d="M232.74,204.23s-8.42-1.49-6.88,6.66,9.6,8.44,11.3,6.58Z" fill="#e9b988"/>
        <path d="M255,230.72s-21.3,1.37-24.85-28.27,16.81-28.87,26.77-28.69c3,.06,29.08-3.13,25.67,24.5C282.6,198.26,283.15,229.9,255,230.72Z" fill="#6a381b"/>
      </g>
    </g>
    <path d="M33.29,130.09c-2.77,6.2-6.21,15.15.8,24.5,4.06,5.42,12,8.07,18.14,9.67,6.58,1.73,14.71-7.56,16.18-10.6,5.44-11.23,4.43-29.95-6.6-34.86S38.37,118.69,33.29,130.09Z" fill="#e9b988"/>
    <path d="M47,146.59l-2.59,1.11-3.14,2.22s2.09,9.63,5.57,11.73c.33.64-3.31,2.51-7.06-.29.46,2.95-1,6.2-3.85,2.76-.09,2.14-2.06,5.17-6.1-3.43.33,2.73.23,3.6-1.07,3.27s-3.44-5-3.44-5c-.05,1.23-.94.35-2-1.34s-18.31-25-4.08-40.84,55.66-7.59,51.64,5.42c-.72,1.75-2.36-1.34-2.36-1.34s1.64,4.5-5.48,1c2,1.32,1.49,3.16-10.59,3.86,3.75.52,3.7,1.22,3.37,1.86s-4.47,2.69-8.28,2.45C47,133.17,47,146.59,47,146.59Z" fill="#ca6323"/>
    <path d="M46.64,154.26c-1.53,1.12-7,1.77-8.75-2.91-2.64-6.89,4.28-8.78,7.92-3.58C45.88,147.87,46.22,151.35,46.64,154.26Z" fill="#f3b780"/>
    <path d="M115.51,238.7a9.47,9.47,0,0,0-1.75,6.35s-12.15-.52-12-.75,5.92-4.57,6.88-11.13Z" fill="#b17639"/>
    <path d="M139.41,197a2.76,2.76,0,0,0-1.71-2.49,3.42,3.42,0,0,1-.9-.31c-.67-.47-.42-1.49-.13-2.26a6.87,6.87,0,0,0,.54-3.7,2.89,2.89,0,0,0-2.54-2.42,3.66,3.66,0,0,0-2.91,2.12c-.88-.82-.73-2.44-1.75-3.07a1.86,1.86,0,0,0-1.9.08,5.08,5.08,0,0,0-1.38,1.43,1,1,0,0,1-1-.94,3,3,0,0,1,.22-1,2.4,2.4,0,1,0-4.69-.26l-3.47-2.17a4.24,4.24,0,0,0-.28,2.17,1.37,1.37,0,0,1-1.44-.6c-.34-.45-.54-1-.92-1.4a2.19,2.19,0,0,0-3.7,2.12,5.06,5.06,0,0,1-2.73-.86,5,5,0,0,0-2.73-.84,1.94,1.94,0,0,0-1.61,1.25,4.22,4.22,0,0,0-1.8-3,5.83,5.83,0,0,0-4.12-.86,5.27,5.27,0,0,0-3.14,1.52,3.37,3.37,0,0,0-.8,3.29,2.5,2.5,0,0,0,2.8,1.63l-1.94,1.92a5.87,5.87,0,0,0-2.13-.88,13.54,13.54,0,0,0-4.62.1,8.56,8.56,0,0,0-3.23.9,3.11,3.11,0,0,0-1.68,2.72c.08,1.22,1.1,2.19,1.29,3.4a7,7,0,0,0-3.71.92,2.17,2.17,0,0,0-.9.85c-.5,1,.43,2.11,1.28,2.85a5.62,5.62,0,0,0-2.82.52,1.94,1.94,0,0,0-.89,2.46c.5.85,1.92,1.37,1.61,2.31a12.07,12.07,0,0,0-5.18,0c-.63.13-1.34.42-1.48,1-.18.8.71,1.4,1.47,1.71s1.68.83,1.59,1.65a15.57,15.57,0,0,0-4.67,2.18c-.33.22-.68.53-.66.93.06.83,1.39.69,2,1.25a8.77,8.77,0,0,1-1.83,1.07c-.61.37-1.12,1.15-.77,1.77.25.46.84.61,1.19,1a1.7,1.7,0,0,1,0,2,8.16,8.16,0,0,1-1.43,1.51A6.65,6.65,0,0,0,68.73,222a5.56,5.56,0,0,0-.87.46,5.91,5.91,0,0,0-2.12,7.16,11.75,11.75,0,0,0,1.06,1.76L68,233.07a2,2,0,0,1,.48,1.26c-.09.78-1,1.12-1.83,1.17a3.22,3.22,0,0,0-2.22.58,1.78,1.78,0,0,0,.26,2.4,5.26,5.26,0,0,0,2.42,1.1l2.56.65a3.33,3.33,0,0,1,2,1,12.38,12.38,0,0,1,.72,2.1A3.11,3.11,0,0,0,74.91,245a8.33,8.33,0,0,0,2.8-.32l.09.09a7.52,7.52,0,0,0,3,1.91c.86.3,2,.69,2,1.6a2.14,2.14,0,0,1-.26.81,2.19,2.19,0,0,0,0,2.28c.67.78,1.92.49,2.88.13s2.21-.66,2.88.12.3,2.59,1.37,3c.78.29,1.5-.52,1.93-1.24s1.1-1.54,1.9-1.3c1,.28,1,1.85,1.91,2.26s1.95-.82,3-1c.56,1.37,2.45,1.77,3.79,1.15a4,4,0,0,0,2.22-3.95c-.13-1.11-.74-2.16-.64-3.27a3.37,3.37,0,0,0,5.28-2.13c.21-1.15-.07-2.61.91-3.25a2.86,2.86,0,0,1,1.15-.35,4.16,4.16,0,0,0,3.21-2c.83-1.82-.7-4.06.08-5.91.57-1.33,2.12-1.93,3.08-3,1.62-1.84,1.24-4.63.77-7a29.21,29.21,0,0,0-.87-3.61,32.77,32.77,0,0,0,2.14-5.8c5.26-2.1,11-3.27,15.52-6.71a6.53,6.53,0,0,0,1.86-2,7.76,7.76,0,0,0,.51-1.28l1.34-4.06A8.05,8.05,0,0,0,139.41,197Z" fill="#1d1a15"/>
    <g>
      <path d="M151.79,232.12c-.18-.19-.4-.37-.43-.63s.22-.57.36-.85c.44-.9-.34-1.93-1.17-2.49s-1.84-1-2.21-1.94c1-.25,2.24-.66,2.54-1.68a2,2,0,0,0-.9-2.07l.65-.38a2.45,2.45,0,0,0,1.21-1.53,2.18,2.18,0,0,0-1.55-2.09c-.87-.35-1.83-.4-2.7-.75a3.36,3.36,0,0,1,1.58-1.14c.58-.31,1.18-.84,1.1-1.5-.1-.85-1.18-1.12-2-1.42a1,1,0,0,1-.39-.24c-.41-.48.24-1.1.64-1.58a2.27,2.27,0,0,0-.21-3,9.11,9.11,0,0,0-2-1,1.8,1.8,0,0,1-1.14-1.8c.29-1.19,2.28-1.27,2.58-2.45a2,2,0,0,0-.77-1.79A13.62,13.62,0,0,0,136.24,198a19.76,19.76,0,0,0-10.64,4.48,16.11,16.11,0,0,0-4.16,4.78,15.68,15.68,0,0,0-2.88-.52,2.89,2.89,0,0,0-2.11.4c-.67.53-.84,1.53-1.53,2s-1.94.25-2.92.06a5,5,0,0,0-2.68.11,2.79,2.79,0,0,0-1.79,1.9,6.06,6.06,0,0,0-5.44,1.38,1.39,1.39,0,0,0-.53.86c-.06.68.74,1.18.78,1.86s-.72,1.16-1.32,1.56-1.14,1.24-.64,1.75c.22.22.57.27.81.47.59.49.13,1.53-.57,1.85a17.5,17.5,0,0,1-2.26.49c-.74.23-1.43,1-1.07,1.72s1.06.64,1.47,1.1c.74.85-.15,2.14-1.07,2.8s-2.07,1.5-1.83,2.6c.3,1.45,2.79,1.91,2.57,3.37-.12.8-1.1,1.36-1,2.16.16,1.11,2.19,1.21,2.22,2.33a6.67,6.67,0,0,0-3,.38,2.29,2.29,0,0,0-1.41,2.46,2.81,2.81,0,0,0,.74,1.16,7.67,7.67,0,0,0,3,1.91c.86.29,2,.69,2,1.6a2,2,0,0,1-.26.81,2.22,2.22,0,0,0,0,2.28c.67.78,1.92.48,2.88.12s2.21-.65,2.89.12.3,2.59,1.36,3c.78.28,1.5-.53,1.93-1.24s1.11-1.54,1.91-1.31.88,1.47,1.54,2c.91.74,2.72-1.5,3.13.33.26,1.2.17,3.69,1.45,4.36.72.38,1.6-.12,2.19-.7a7.36,7.36,0,0,0,1.5-2.12,6.79,6.79,0,0,0,.15,3.35,2.07,2.07,0,0,0,.8,1.22c.86.5,2-.28,2.35-1.2s.34-2,.69-2.91a5.87,5.87,0,0,0,.63,2.11,2,2,0,0,0,1.83,1c1.19-.14,1.71-1.59,1.77-2.79s-.06-2.55.76-3.42a.49.49,0,0,1,.28-.17c.2,0,.34.17.43.35.33.7.44,1.49.83,2.16a1.62,1.62,0,0,0,1.92.88c1.14-.55.59-2.52,1.56-3.32.27.81.79,1.73,1.64,1.73a1.51,1.51,0,0,0,1.34-1.25,4.36,4.36,0,0,0-.16-2c-.21-.88-.41-1.76-.62-2.65a5.73,5.73,0,0,1,1.52,1.39,1.78,1.78,0,0,0,1.85.63c.89-.39.81-1.67.58-2.62.41.57,1.08,1.23,1.71.91.86-.44.21-1.79.51-2.71a2,2,0,0,0,2.6,1,3.43,3.43,0,0,0,1.89-2.35,3.29,3.29,0,0,0-.17-2.27,2.26,2.26,0,0,0,2.25-.39,2.3,2.3,0,0,0-.3-3.47,2,2,0,0,0,2.31-1.22A2.54,2.54,0,0,0,151.79,232.12Z" fill="url(#o)"/>
      <path d="M112.1,231.7s-3.49,7.58-8.08,12.65c2.4,1.8,8.58,1.72,10.09.24-.9-2-1.18-3-1.1-3.78s4.69-7.42,4.69-7.42Z" fill="url(#p)"/>
      <g>
        <g>
          <path d="M102.39,222.91l4.22-2.17s3.17-19.49,17.21-22.56c2.42-.54,8,.84,11.13,1s3.44-.91,3.44-.91a52.37,52.37,0,0,1,3.7,7.44c-3-10.91-12-14.13-17.29-13.89s-18.47,5.66-24.23,20.68C98.71,220.88,102.39,222.91,102.39,222.91Z" fill="url(#q)"/>
          <path d="M102.41,221.34s5.65-18.79,17.14-23.66,18.09-.43,19.35,1.6a14.88,14.88,0,0,0-8.9-8.9c-6.11-.69-18.13-.1-26.56,11.7s-4.73,18.59-4.73,18.59Z" fill="url(#r)"/>
          <path d="M108.47,203.55c-4.18-1.26-6.39-10.66-2.29-16.43C111.55,190.6,112.74,199.53,108.47,203.55Z" fill="url(#s)"/>
          <path d="M109,202.29c-.62-1.07-8.45-2.21-11.53,4.42C101.68,210.66,110.45,204.9,109,202.29Z" fill="url(#t)"/>
        </g>
        <g>
          <path d="M104.82,221.69c-.62-1.89-7-8-9.16-2-2.7,7.58,5.83,8.51,7.33,7.75A19.41,19.41,0,0,0,104.82,221.69Z" fill="url(#u)"/>
          <path d="M102.41,221.34s-3.31-3.44-4.91,0,3.58,4.65,4.44,4.31c-2.55-.81-3.32-2.67-2.88-3.73C99.64,220.47,102.41,221.34,102.41,221.34Z" fill="url(#v)"/>
        </g>
      </g>
      <g>
        <g>
          <path d="M119.61,275c2.57.36,16.22,10.5,22.81,13l-2.36,2.22s-17-5-21-8.09S116.31,274.49,119.61,275Z" fill="url(#w)"/>
          <path d="M104.27,284.41s9.58-8.87,14-9.37a95.64,95.64,0,0,1,5,10.82S111.27,288.53,104.27,284.41Z" fill="url(#x)"/>
        </g>
        <path d="M139.28,288.17c-.49.95-1,2.76,1.56,3.53s6.29,1.13,8,.66c.69.28,1.55-.14,1.34-.73.91.22,1.77-.57,1.08-1.06a.4.4,0,0,1,0-.37s1.6-.2,1.5-1-1.43-.44-1.43-.44l0-.32s1.66-.57,1.45-1.32-2-.5-2-.5,2.15-1.31,1.73-2.54-2.35.08-3.58,1.41c-1.93.88-3.55,2.47-5.62,2S139.77,287.21,139.28,288.17Z" fill="url(#y)"/>
      </g>
      <g>
        <path d="M115.78,247.34s-7.08,19.3-1.28,38.24a4.68,4.68,0,0,1,.56.9s-17.25,12.06-26.56,2.91c1-12.42,7.17-35.58,17.16-47.37.28.62,4,3,7.67,1.1C114.45,244.92,115.78,247.34,115.78,247.34Z" fill="url(#z)"/>
        <path d="M131.88,282.43a13.24,13.24,0,0,1,4.71-2.31c2.64-.61,8.07-2.77,9.4-1.4s3.87,5.15.64,8-8.31,6.89-14.37,8.26C131.57,285,131.88,282.43,131.88,282.43Z" fill="url(#aa)"/>
        <path d="M134.67,280.46s-12.08,5-20.17,4.79c-.13-.92-2.06-19.57-2.23-23.38,0,0-1.5,16.94-6.31,24.15-13.36,3.24-17.14.41-17.14.41s-.27,5.83,2,9.69c2.64,4.41,26.47,6.15,46.89-2.76A30.9,30.9,0,0,0,134.67,280.46Z" fill="url(#ab)"/>
        <g>
          <g>
            <path d="M112.06,294.21a33.1,33.1,0,0,1-5.64-.47A37.15,37.15,0,0,1,99.48,291l-.15-.08.2-.43.15.08a37,37,0,0,0,6.82,2.69,39.21,39.21,0,0,0,15.62-.77,117.87,117.87,0,0,0,15-4.93l.17.45a119,119,0,0,1-15.06,5A45.12,45.12,0,0,1,112.06,294.21Z" fill="url(#ac)"/>
            <path d="M93.42,291.28a13.67,13.67,0,0,1-4.36-.41l.22-.42c1.27.67,12.09.31,15.66-.73l.1,0c3.51-1,7.13-2.08,9.55-4.66l.34.32c-2.5,2.68-6.35,3.8-9.75,4.8l-.11,0C102.77,290.85,97.36,291.28,93.42,291.28Z" fill="url(#ad)"/>
          </g>
          <path d="M114.73,293.93l-.4-.26a5.24,5.24,0,0,0,1.2-4.05c-.16-1.3-1-2.71-2.24-2.81l0-.48c1.5.13,2.49,1.76,2.67,3.23A5.69,5.69,0,0,1,114.73,293.93Z" fill="url(#ae)"/>
        </g>
      </g>
      <path d="M112.31,260.9l1.5,6.61a9.17,9.17,0,0,0,5.84-.77c-3.05-8.41-.36-14.22-5.2-22C109.35,250.37,112.31,260.9,112.31,260.9Z" fill="url(#af)"/>
      <path d="M115.5,246.48s-11.52,5.1-20.59,23.6c-5.33,10.87-5.18,17.47-5.18,17.47a7.93,7.93,0,0,0-.86,1.23c-.31-4.12.6-11.54,4.34-19.43,6.31-13.34,13.32-21.69,21.24-24.57C115.61,246.37,115.5,246.48,115.5,246.48Z" fill="url(#ag)"/>
    </g>
    <path d="M151.79,232.12c-.18-.19-.4-.37-.43-.63s.22-.57.36-.85c.44-.9-.34-1.93-1.17-2.49s-1.84-1-2.21-1.94c1-.25,2.24-.66,2.54-1.68a2,2,0,0,0-.9-2.07l.65-.38a2.45,2.45,0,0,0,1.21-1.53,2.18,2.18,0,0,0-1.55-2.09c-.87-.35-1.83-.4-2.7-.75a3.36,3.36,0,0,1,1.58-1.14c.58-.31,1.18-.84,1.1-1.5-.1-.85-1.18-1.12-2-1.42a1,1,0,0,1-.39-.24c-.41-.48.24-1.1.64-1.58a2.27,2.27,0,0,0-.21-3,9.11,9.11,0,0,0-2-1,1.8,1.8,0,0,1-1.14-1.8c.29-1.19,2.28-1.27,2.58-2.45a2,2,0,0,0-.77-1.79A13.62,13.62,0,0,0,136.24,198a19.76,19.76,0,0,0-10.64,4.48,16.11,16.11,0,0,0-4.16,4.78,15.68,15.68,0,0,0-2.88-.52,2.89,2.89,0,0,0-2.11.4c-.67.53-.84,1.53-1.53,2s-1.94.25-2.92.06a5,5,0,0,0-2.68.11,2.79,2.79,0,0,0-1.79,1.9,6.06,6.06,0,0,0-5.44,1.38,1.39,1.39,0,0,0-.53.86c-.06.68.74,1.18.78,1.86s-.72,1.16-1.32,1.56-1.14,1.24-.64,1.75c.22.22.57.27.81.47.59.49.13,1.53-.57,1.85a17.5,17.5,0,0,1-2.26.49c-.74.23-1.43,1-1.07,1.72s1.06.64,1.47,1.1c.74.85-.15,2.14-1.07,2.8s-2.07,1.5-1.83,2.6c.3,1.45,2.79,1.91,2.57,3.37-.12.8-1.1,1.36-1,2.16.16,1.11,2.19,1.21,2.22,2.33a6.67,6.67,0,0,0-3,.38,2.29,2.29,0,0,0-1.41,2.46,2.81,2.81,0,0,0,.74,1.16,7.67,7.67,0,0,0,3,1.91c.86.29,2,.69,2,1.6a2,2,0,0,1-.26.81,2.22,2.22,0,0,0,0,2.28c.67.78,1.92.48,2.88.12s2.21-.65,2.89.12.3,2.59,1.36,3c.78.28,1.5-.53,1.93-1.24s1.11-1.54,1.91-1.31.88,1.47,1.54,2c.91.74,2.72-1.5,3.13.33.26,1.2.17,3.69,1.45,4.36.72.38,1.6-.12,2.19-.7a7.36,7.36,0,0,0,1.5-2.12,6.79,6.79,0,0,0,.15,3.35,2.07,2.07,0,0,0,.8,1.22c.86.5,2-.28,2.35-1.2s.34-2,.69-2.91a5.87,5.87,0,0,0,.63,2.11,2,2,0,0,0,1.83,1c1.19-.14,1.71-1.59,1.77-2.79s-.06-2.55.76-3.42a.49.49,0,0,1,.28-.17c.2,0,.34.17.43.35.33.7.44,1.49.83,2.16a1.62,1.62,0,0,0,1.92.88c1.14-.55.59-2.52,1.56-3.32.27.81.79,1.73,1.64,1.73a1.51,1.51,0,0,0,1.34-1.25,4.36,4.36,0,0,0-.16-2c-.21-.88-.41-1.76-.62-2.65a5.73,5.73,0,0,1,1.52,1.39,1.78,1.78,0,0,0,1.85.63c.89-.39.81-1.67.58-2.62.41.57,1.08,1.23,1.71.91.86-.44.21-1.79.51-2.71a2,2,0,0,0,2.6,1,3.43,3.43,0,0,0,1.89-2.35,3.29,3.29,0,0,0-.17-2.27,2.26,2.26,0,0,0,2.25-.39,2.3,2.3,0,0,0-.3-3.47,2,2,0,0,0,2.31-1.22A2.54,2.54,0,0,0,151.79,232.12Z" fill="#1d1a15"/>
    <g>
      <path d="M101.92,227.85s9.6,15.07,20.37,16.13,19.16-4.79,21.82-21.84c-.72-13.87-2.67-22.72-9.77-27.27s-10.93-6.29-22.51,0S95.52,216.48,101.92,227.85Z" fill="#9a6a30"/>
      <g>
        <path d="M102.39,222.91l4.22-2.17s3.17-19.49,17.21-22.56c2.42-.54,8,.84,11.13,1s3.44-.91,3.44-.91a52.37,52.37,0,0,1,3.7,7.44c-3-10.91-12-14.13-17.29-13.89s-18.47,5.66-24.23,20.68C98.71,220.88,102.39,222.91,102.39,222.91Z" fill="#1d1a15"/>
        <path d="M102.41,221.34s5.65-18.79,17.14-23.66,18.09-.43,19.35,1.6a14.88,14.88,0,0,0-8.9-8.9c-6.11-.69-18.13-.1-26.56,11.7s-4.73,18.59-4.73,18.59Z" fill="#ef3653"/>
        <path d="M108.47,203.55c-4.18-1.26-6.39-10.66-2.29-16.43C111.55,190.6,112.74,199.53,108.47,203.55Z" fill="#ef3653"/>
        <path d="M109,202.29c-.62-1.07-8.45-2.21-11.53,4.42C101.68,210.66,110.45,204.9,109,202.29Z" fill="#ef3653"/>
      </g>
      <path d="M104.82,221.69c-.62-1.89-7-8-9.16-2-2.7,7.58,5.83,8.51,7.33,7.75A19.41,19.41,0,0,0,104.82,221.69Z" fill="#9a6a30"/>
    </g>
    <g>
      <g>
        <path d="M119.61,275c2.57.36,16.22,10.5,22.81,13l-2.36,2.22s-17-5-21-8.09S116.31,274.49,119.61,275Z" fill="#a57032"/>
        <path d="M104.27,284.41s9.58-8.87,14-9.37a95.64,95.64,0,0,1,5,10.82S111.27,288.53,104.27,284.41Z" fill="#036f7a"/>
      </g>
      <path d="M139.28,288.17c-.49.95-1,2.76,1.56,3.53s6.29,1.13,8,.66c.69.28,1.55-.14,1.34-.73.91.22,1.77-.57,1.08-1.06a.4.4,0,0,1,0-.37s1.6-.2,1.5-1-1.43-.44-1.43-.44l0-.32s1.66-.57,1.45-1.32-2-.5-2-.5,2.15-1.31,1.73-2.54-2.35.08-3.58,1.41c-1.93.88-3.55,2.47-5.62,2S139.77,287.21,139.28,288.17Z" fill="#9a6a30"/>
    </g>
    <path d="M115.78,247.34s-7.08,19.3-1.28,38.24a4.68,4.68,0,0,1,.56.9S91.29,296.73,82,287.57c1-12.42-4-30.18,18.93-46.11.28.62,9,5.21,12.41,1.66C114.45,244.92,115.78,247.34,115.78,247.34Z" fill="#eaeaea"/>
    <path d="M131.88,282.43a13.24,13.24,0,0,1,4.71-2.31c2.64-.61,8.07-2.77,9.4-1.4s3.87,5.15.64,8-8.31,6.89-14.37,8.26C131.57,285,131.88,282.43,131.88,282.43Z" fill="#9a6a30"/>
    <path d="M134.23,280.46s-10.54,5-19.73,4.79c-.15-.92-1.94-16.31-2.14-20.12,0,0-5.3,13.64-10.76,20.85-15.19,3.22-19.49.39-19.49.39s-.29,5.83,2.34,9.69c3,4.41,30.1,6.19,53.3-2.7A28.09,28.09,0,0,0,134.23,280.46Z" fill="#018da4"/>
    <g>
      <path d="M112.06,294.21a33.1,33.1,0,0,1-5.64-.47A37.15,37.15,0,0,1,99.48,291l-.15-.08.2-.43.15.08a37,37,0,0,0,6.82,2.69,39.21,39.21,0,0,0,15.62-.77,117.87,117.87,0,0,0,15-4.93l.17.45a119,119,0,0,1-15.06,5A45.12,45.12,0,0,1,112.06,294.21Z" fill="#036f7a"/>
      <path d="M93.42,291.28a13.67,13.67,0,0,1-4.36-.41l.22-.42c1.27.67,12.09.31,15.66-.73l.1,0c3.51-1,7.13-2.08,9.55-4.66l.34.32c-2.5,2.68-6.35,3.8-9.75,4.8l-.11,0C102.77,290.85,97.36,291.28,93.42,291.28Z" fill="#036f7a"/>
    </g>
    <path d="M114.73,293.93l-.4-.26a5.24,5.24,0,0,0,1.2-4.05c-.16-1.3-1-2.71-2.24-2.81l0-.48c1.5.13,2.49,1.76,2.67,3.23A5.69,5.69,0,0,1,114.73,293.93Z" fill="#036f7a"/>
    <path d="M134.46,291a10,10,0,0,1-.91,3.95c-1,2.52-.25,2.85.58,2.7s1.77-2.08,1.77-2.08,5.47,5,6.26,4.2-2.63-3.23-2-3.83,4.29,3.71,5.47,2.64c.57-.53-3.38-3.41-3.08-3.81s6.07,1.6,6.41.91c.58-1.18-5-2.28-4.94-2.8s3.47.17,3.43-1-7.31-.28-9.38-1.84A7.35,7.35,0,0,0,134.46,291Z" fill="#a57032"/>
    <path d="M120.2,260.48s8.1,32,16.89,40.24a35.8,35.8,0,0,1-3.9,1.35,64,64,0,0,1-14.89-18.95c-3.3-6.58-4.86-15.19-6.21-23.14C116.13,260,120.2,260.48,120.2,260.48Z" fill="#9a6a30"/>
    <path d="M110.32,260.14l2.7,6.62s5.77.74,10.31-.73c-5.45-8.43-.75-14.22-9.34-22C105,249.59,110.32,260.14,110.32,260.14Z" fill="#eaeaea"/>
    <path d="M115.5,246.48s-11.52,5.1-20.59,23.6c-5.33,10.87-5.18,17.47-5.18,17.47a7.93,7.93,0,0,0-.86,1.23c-.31-4.12.6-11.54,4.34-19.43,6.31-13.34,13.32-21.69,21.24-24.57C115.61,246.37,115.5,246.48,115.5,246.48Z" fill="#018da4"/>
    <path d="M391.21,177.75c0,1.32-1.55,2.4-3.47,2.4s-3.46-1.08-3.46-2.4,1.55-2.4,3.46-2.4S391.21,176.43,391.21,177.75Z" fill="#fcb095"/>
    <path d="M413,178c0,1.32-1.55,2.39-3.46,2.39s-3.47-1.07-3.47-2.39,1.55-2.4,3.47-2.4S413,176.71,413,178Z" fill="#fcb095"/>
    <g>
      <path d="M393.91,177.91a8.55,8.55,0,0,0,1.54.59,6.26,6.26,0,0,0,3.14,0,11,11,0,0,0,1.57-.5c-.21.18-.44.36-.67.52a5.56,5.56,0,0,1-.77.39,4.37,4.37,0,0,1-1.71.32A4.29,4.29,0,0,1,393.91,177.91Z" fill="#c28670"/>
      <path d="M397.48,188.05a6.44,6.44,0,0,1-5.47-2.44.69.69,0,1,1,1.14-.77,5.21,5.21,0,0,0,4.58,1.82c1.94-.06,3.7-.79,4.3-1.79a.68.68,0,0,1,.94-.24.69.69,0,0,1,.24,1c-.84,1.42-3,2.39-5.44,2.46Z" fill="#ba8663"/>
      <path d="M409.38,173.38c0,1.61-.18.78-2.46.78s-2.45.83-2.45-.78a2.49,2.49,0,1,1,4.91,0Z" fill="#103754"/>
      <path d="M391.34,173.38c0,1.61-.17.78-2.45.78s-2.45.83-2.45-.78a2.49,2.49,0,1,1,4.9,0Z" fill="#103754"/>
      <path d="M385.87,168.2a.73.73,0,0,1-.6-.3.75.75,0,0,1,.15-1.05c1.4-1,5.58-1.39,7.09.07a.75.75,0,1,1-1,1.07c-.92-.89-4.25-.6-5.16.07A.72.72,0,0,1,385.87,168.2Z" fill="#c99357"/>
      <path d="M404.06,168.12a.75.75,0,0,1-.42-1.37c1.48-1,5.19-1.5,7.42,0a.75.75,0,0,1,.21,1,.75.75,0,0,1-1,.2c-1.69-1.13-4.74-.68-5.75,0A.72.72,0,0,1,404.06,168.12Z" fill="#c99357"/>
    </g>
    <g>
      <g>
        <path d="M245,43.61a1.33,1.33,0,0,0-.54.65,2.07,2.07,0,0,0-.21.8,1.67,1.67,0,0,0,.69,1.5c-.4-.39-.26-1.46-.26-1.46a4.86,4.86,0,0,1,.1-.74A2.76,2.76,0,0,1,245,43.61Z" fill="#8e5f35"/>
        <g>
          <path d="M250,46.49a.25.25,0,0,0-.06-.37.78.78,0,0,0-.33-.19.51.51,0,0,0-.21,0,.45.45,0,0,0-.23.08.87.87,0,0,0-.32.24c-.36.4-.28.6-.74.54a1.73,1.73,0,0,1-1.37-.57c-.18-.17-.45-.43-.74-.35a.66.66,0,0,0-.37.17.27.27,0,0,0,0,.36c-.08-.27.25-.33.44-.32s.32.17.45.33a2,2,0,0,0,.51.6,1.68,1.68,0,0,0,.8.21,1.36,1.36,0,0,0,.79-.19,2.29,2.29,0,0,0,.54-.54c.15-.19.25-.35.46-.34S250.09,46.2,250,46.49Z" fill="#8e5f35"/>
          <path d="M250.71,43.74a3.68,3.68,0,0,1,.21.75,3.58,3.58,0,0,1,0,.73,3.06,3.06,0,0,1-.32,1.47,1.65,1.65,0,0,0,.77-1.46,2.42,2.42,0,0,0-.17-.84A1.22,1.22,0,0,0,250.71,43.74Z" fill="#8e5f35"/>
        </g>
      </g>
      <path d="M247.71,54.06c-1.87,0-4-.45-5.22-1.77a.64.64,0,0,1,0-.91.66.66,0,0,1,.92,0c.85.95,2.78,1.47,4.92,1.32,1.65-.11,3.05-.61,3.48-1.25a.65.65,0,0,1,.9-.17.65.65,0,0,1,.17.9c-.68,1-2.34,1.67-4.46,1.82Z" fill="#865b2f"/>
      <path d="M241.49,38.85a.66.66,0,0,1-.4-.13,5.63,5.63,0,0,0-5.39-.45.7.7,0,0,1-.49-1.32,7,7,0,0,1,6.69.63.71.71,0,0,1,.17,1A.72.72,0,0,1,241.49,38.85Z" fill="#865b2f"/>
      <path d="M253,38.85a.69.69,0,0,1-.57-.29.7.7,0,0,1,.16-1,7,7,0,0,1,6.69-.63.7.7,0,0,1-.49,1.32,5.61,5.61,0,0,0-5.38.45A.71.71,0,0,1,253,38.85Z" fill="#865b2f"/>
      <path d="M234,34.49A6.42,6.42,0,0,1,236,33.07a7.28,7.28,0,0,1,2.49-.61,5.38,5.38,0,0,1,2.56.49A4.61,4.61,0,0,1,243,34.59a9.77,9.77,0,0,0-2.2-.91,7.36,7.36,0,0,0-2.24-.22A17.52,17.52,0,0,0,234,34.49Z" fill="#1f160f"/>
      <path d="M260.58,34.49a17.52,17.52,0,0,0-4.61-1,7.36,7.36,0,0,0-2.24.22,10,10,0,0,0-2.2.91A4.61,4.61,0,0,1,253.46,33a5.38,5.38,0,0,1,2.56-.49,7.23,7.23,0,0,1,2.49.61A6.32,6.32,0,0,1,260.58,34.49Z" fill="#1f160f"/>
    </g>
    <g>
      <path d="M126.14,96.61a6.13,6.13,0,0,0,3.14.33,2.66,2.66,0,0,0,1.32-.7,5.78,5.78,0,0,0,1-1.28,7.53,7.53,0,0,1-.24.81,3.46,3.46,0,0,1-.46.73,2.53,2.53,0,0,1-1.49.93,3.49,3.49,0,0,1-1.73-.07A4.24,4.24,0,0,1,126.14,96.61Z" fill="#ba8663"/>
      <path d="M120.65,91.79a2,2,0,1,1-2.38-1.85A2.14,2.14,0,0,1,120.65,91.79Z" fill="#3a1e0a"/>
      <path d="M137,88.29a2,2,0,1,1-2.39-1.85A2.15,2.15,0,0,1,137,88.29Z" fill="#3a1e0a"/>
      <path d="M115.21,88.62a.63.63,0,0,1-.48-.08.64.64,0,0,1-.21-.89,5.63,5.63,0,0,1,6-1.88.65.65,0,0,1,.35.85A.64.64,0,0,1,120,87a4.38,4.38,0,0,0-4.42,1.36A.61.61,0,0,1,115.21,88.62Z" fill="#3a1e0a"/>
      <path d="M137,84a.6.6,0,0,1-.5-.1c-1.19-.81-3.5-.29-4.66,1.06a.66.66,0,0,1-.92.07.65.65,0,0,1-.06-.92c1.6-1.85,4.63-2.46,6.37-1.28a.65.65,0,0,1,.17.9A.67.67,0,0,1,137,84Z" fill="#3a1e0a"/>
      <path d="M130.58,104.13a6.92,6.92,0,0,1-4.92-.52.65.65,0,1,1,.7-1.1c1.1.71,3.22.72,5,0a3.49,3.49,0,0,0,2.27-1.88.65.65,0,0,1,1.25.36,4.67,4.67,0,0,1-3.06,2.74A10.75,10.75,0,0,1,130.58,104.13Z" fill="#ba8663"/>
    </g>
    <path d="M322.36,97.81a7.87,7.87,0,0,0,1.18,1.37A3.94,3.94,0,0,0,325,100a3.29,3.29,0,0,0,1.68,0,9.8,9.8,0,0,0,1.71-.57c-.24.2-.48.39-.74.58a5.18,5.18,0,0,1-.86.4,3.06,3.06,0,0,1-1.94.07,3.36,3.36,0,0,1-1.61-1.09A4.17,4.17,0,0,1,322.36,97.81Z" fill="#ab753c"/>
    <path d="M323.78,91.58c-.2,1.26-1.32,2.31-2.28,2-1.46-.51-.7-2-.14-3.22s.23-1.34.86-1.34C323.29,89,324,90.32,323.78,91.58Z" fill="#331907"/>
    <path d="M335.15,94a2,2,0,1,1-1.56-2.59A2.15,2.15,0,0,1,335.15,94Z" fill="#331907"/>
    <path d="M321.89,86.21a4.22,4.22,0,0,1,2.2.43.64.64,0,1,1-.6,1.14,3.19,3.19,0,0,0-1.72-.28" fill="#3a1e0a"/>
    <path d="M336.7,90a.64.64,0,0,1-.43-.27c-.82-1.19-3.16-1.53-4.73-.69a.65.65,0,1,1-.61-1.15c2.16-1.15,5.21-.63,6.4,1.1a.64.64,0,0,1-.16.9A.66.66,0,0,1,336.7,90Z" fill="#422b1f"/>
    <path d="M326.57,108.54c-2.26-.34-3.47-1-4.4-2.26a.65.65,0,0,1,.14-.91.64.64,0,0,1,.9.14c.78,1.06,2.75,1.83,4.7,1.84a3.52,3.52,0,0,0,2.79-.93.64.64,0,0,1,.91-.13.65.65,0,0,1,.13.91,4.62,4.62,0,0,1-3.84,1.45A8.94,8.94,0,0,1,326.57,108.54Z" fill="#8e5f35"/>
    <g>
      <path d="M129.32,224.76a8.11,8.11,0,0,0,1.64.77,3.66,3.66,0,0,0,1.69.18,3.19,3.19,0,0,0,1.55-.66,9.13,9.13,0,0,0,1.3-1.27c-.12.29-.26.57-.41.85a5.41,5.41,0,0,1-.61.75,3.07,3.07,0,0,1-1.75.89,3.36,3.36,0,0,1-1.93-.34A4.34,4.34,0,0,1,129.32,224.76Z" fill="#6f4c1d"/>
      <path d="M122.65,218.64a2.22,2.22,0,1,1-2.42-2.38A2.41,2.41,0,0,1,122.65,218.64Z" fill="#3a1e0a"/>
      <path d="M141.38,216.88A2.22,2.22,0,1,1,139,214.5,2.42,2.42,0,0,1,141.38,216.88Z" fill="#3a1e0a"/>
      <path d="M117,214.38a.72.72,0,0,1-.64-1.17c1.12-1.43,4.69-2.59,7-1.31a.73.73,0,0,1-.71,1.27c-1.66-.93-4.41.05-5.11.94A.7.7,0,0,1,117,214.38Z" fill="#3a1e0a"/>
      <path d="M142,212.1a.69.69,0,0,1-.54-.18c-1.23-1.06-3.88-.78-5.35.57a.74.74,0,0,1-1,0,.72.72,0,0,1,0-1c2-1.86,5.51-2.15,7.29-.6a.73.73,0,0,1,.08,1A.75.75,0,0,1,142,212.1Z" fill="#3a1e0a"/>
      <path d="M131.85,235.05A6.12,6.12,0,0,1,127,233a1.05,1.05,0,0,1,0-1.23.57.57,0,0,1,1,0,5.42,5.42,0,0,0,5.1,1.47,3.54,3.54,0,0,0,2.71-1.83.6.6,0,0,1,.91-.35,1,1,0,0,1,.28,1.17,4.79,4.79,0,0,1-3.7,2.73A7.62,7.62,0,0,1,131.85,235.05Z" fill="#6f4c1d"/>
    </g>
    <g>
      <path d="M68.5,153.46a6.09,6.09,0,0,1-1.56.13,8.58,8.58,0,0,1-6-2.71.72.72,0,0,1,.12-1,.81.81,0,0,1,1.11.11h0a7,7,0,0,0,7.08,1.85" fill="#ba8663"/>
      <path d="M67.67,139.06a2,2,0,1,1-2.38-1.85A2.14,2.14,0,0,1,67.67,139.06Z" fill="#103754"/>
      <path d="M62.29,135.27a.75.75,0,0,1-.5-1.33c1.34-1.09,5.51-1.63,7.08-.24a.75.75,0,1,1-1,1.12c-1-.85-4.27-.42-5.14.28A.76.76,0,0,1,62.29,135.27Z" fill="#ca6323"/>
      <ellipse cx="69.94" cy="145.21" rx="3.31" ry="2.82" fill="#e9b988"/>
    </g>
  </g>
</svg>
