<svg xmlns="http://www.w3.org/2000/svg" viewBox="0 0 460 650">
  <title>_</title>
  <rect x="1.31" y="1.73" width="456.42" height="644.36" rx="13.23" ry="13.23" fill="#fff"/>
  <g>
    <rect x="44.6" y="117.45" width="370.29" height="397.67" fill="#fff" stroke="#029ab3" stroke-miterlimit="10" stroke-width="1.69"/>
    <polyline points="43.73 515.12 415.63 515.12 415.63 605.09 43.73 605.09" fill="#f0f5eb"/>
    <g>
      <g>
        <path d="M107.73,85.75l.06-1.09c.11-2,.27-4.19,1.49-5.89a7.4,7.4,0,0,1,4.3-2.67,8.48,8.48,0,0,1,9,3.32c3.06,4.45.84,11.06-1.29,15.4-1.37,2.79-3.17,5.66-6.06,6.79-3.18,1.24-6.48,0-9-2-2.92-2.31-4.47-5.76-7.27-8.18a2.77,2.77,0,0,0-1.73-.85c-.58,0-1.18.32-1.72.09a1.53,1.53,0,0,1-.72-1.48,4.9,4.9,0,0,1,3.65-4.69,3.67,3.67,0,0,1,2.53,0c1.34.57,2,2.07,2.73,3.33.41.68,2.56,4,3.62,3.3.44-.3.23-1.64.25-2.1C107.59,88,107.66,86.86,107.73,85.75Z" fill="#fdd2b9"/>
        <path d="M167.28,91.73A2.1,2.1,0,0,1,168,92a.83.83,0,0,1,.41.61.85.85,0,0,1-.4.72,5.73,5.73,0,0,1-3.15.49,11,11,0,0,1,3.64.56.9.9,0,0,1,.62.58c.52,1.72-3.7,1.07-4.42,1l1.63.28a6,6,0,0,1,1.39.33c.45.17.75.61.39,1a1.38,1.38,0,0,1-.79.41,7.32,7.32,0,0,1-3.19-.13h0a3.7,3.7,0,0,1,1.76.84c.19.2.32.53.09.75a1.91,1.91,0,0,1-1.47.33,5.47,5.47,0,0,1-1.32-.29,10.91,10.91,0,0,0-1.25-.32c-2.54-.53-5.06-.59-7.61-.94a25.45,25.45,0,0,1-7.17-2l-.09,0a21.27,21.27,0,0,1-11-12.91c-.67-2.25-1.05-5.3,1-7a4.86,4.86,0,0,1,4.09-1.15,4.27,4.27,0,0,1,2.49,1.63,9.05,9.05,0,0,1,1.25,2.31c1.21,3.16,2.49,6.58,4.82,9.09a21.74,21.74,0,0,0,3.62,3.23A8.33,8.33,0,0,0,157.16,93c1.54.14,2.86-1.35,3.68-2.48a5.6,5.6,0,0,1,1.76-1.92,1,1,0,0,1,1.18.19,1.61,1.61,0,0,1,.09,1.45,3,3,0,0,1-.9,1.42c.09-.07.38,0,.5-.06l.56,0q.57,0,1.14,0a11.09,11.09,0,0,1,2.08.16Z" fill="#fddbbb"/>
        <path d="M125.18,63.33c-.78,0-1.55,0-2.31,0a15.94,15.94,0,0,0-10.26,4.49c-2.87,2.81-3.38,6.12-5,9.54a10.86,10.86,0,0,0,0,9.06,14.62,14.62,0,0,0,8.56,8.16c4.58,1.61,9.68.81,14.22-.87,3.29-1.22,6.49-2.67,9.68-4.11a43.82,43.82,0,0,0,9.62-5.78c1.56-1.26,3.13-2.54,3-4.54a6.45,6.45,0,0,0-.87-2.55c-.41-.8-.6-1.66-1-2.46A11.24,11.24,0,0,0,147,70c-3.8-2.58-8.6-4-13-5.08A47.37,47.37,0,0,0,125.18,63.33Z" fill="#fdd2b9"/>
        <path d="M107.39,65A18,18,0,0,0,100,72.79a16.18,16.18,0,0,0-.73,11.92A26.23,26.23,0,0,0,102,90.06a23.6,23.6,0,0,0,4.37,4.77,11.16,11.16,0,0,0,3,2,10.5,10.5,0,0,0,3.19.62,20.9,20.9,0,0,0,7.55-.77c.34-.11,3.21-1,3.12-1.32a20,20,0,0,1-.64-4.34c0-1.42-.24-2.83-.23-4.26a68.36,68.36,0,0,1,3.27-20c.19-.59.39-1.19.6-1.78.09-.27.68-1.39.51-1.6a.62.62,0,0,0-.3-.16,28.25,28.25,0,0,0-7.39-.93,25.26,25.26,0,0,0-7.25.79A19,19,0,0,0,107.39,65Z" fill="#9dccd8"/>
        <path d="M102.54,79.59l.52-1.06c1-2,2-4.07,4-5.26a8,8,0,0,1,5.42-.87A9.22,9.22,0,0,1,120,79.49c1.18,5.73-3.8,11.39-7.74,14.84-2.54,2.21-6.11,4.59-9.47,4.51-2.73-.07-5.21-1.59-7.24-3.42C93.88,93.89,93,91.85,91.68,90c-.92-1.32-1.82-4.45-3.85-3.5a12.49,12.49,0,0,0-1.65,1.15,2.27,2.27,0,0,1-1.89.46,1.87,1.87,0,0,1-1.16-1.71,4.29,4.29,0,0,1,.58-2.1,13.35,13.35,0,0,1,3.81-4.57c1.36-1,2.9-2.14,4.64-1.26,1.35.68,1,1.66,1.16,2.84a2.73,2.73,0,0,0,.59,1.16,19.17,19.17,0,0,0,2,2c.75.74,1.69,1.53,2.71,1.3s1.48-1.16,1.9-2Q101.52,81.68,102.54,79.59Z" fill="#fdd2b9"/>
      </g>
      <g>
        <path d="M183.9,65.66a18.82,18.82,0,0,1-2.57,5.62c-.7,1-1.31,2.08-2.07,3a22.31,22.31,0,0,0-2.69,3.94,13.68,13.68,0,0,1-.62,1.41c-.13.19-.34.37-.49.55-5.56,6.92-15.34,7.62-22.78,3.51-1.92-1.06-3.26-3.25-4.4-5a26.39,26.39,0,0,1-3-8.09A33.9,33.9,0,0,0,144,65.72c-.35-1-.9-1.95-1.34-2.94-1.4-3.2-.23-6.82.68-10A27.52,27.52,0,0,1,145.05,49a10.48,10.48,0,0,1,2.68-3,21.26,21.26,0,0,1,5.35-4c8.51-3.82,19.35-2.7,26,4.17.3.31.59.64.87,1a20.15,20.15,0,0,1,4.47,13.11A26.66,26.66,0,0,1,183.9,65.66Z" fill="#fdd2b9"/>
        <path d="M170.64,71.29a1.07,1.07,0,0,0-.4,0c-1,.17-2.15,1.37-1.91,2.3a.59.59,0,0,0,.31.39c1,.46,3.07-2.11,2.17-2.63A.49.49,0,0,0,170.64,71.29Z" fill="#231f20"/>
        <g>
          <path d="M175,79.68a2.47,2.47,0,0,1-.6-.08c-.16,0-.41-.21-.58-.19-.39,0,0,.78.09,1a1.64,1.64,0,0,0,.84.6h0c.22-.24.43-.49.64-.75l.37-.47A1.94,1.94,0,0,0,175,79.68Z" fill="#fab77d"/>
          <path d="M176.52,77.67a2.1,2.1,0,0,0-.5.57.75.75,0,0,0-.09.6c.13.23.28.14.4,0s.15-.4.24-.58c.16-.34.34-.66.53-1A2.42,2.42,0,0,0,176.52,77.67Z" fill="#fdd4af"/>
          <path d="M175.78,80.4c-.64.18-2.19,0-2.16-.94a1.35,1.35,0,0,1,.45-.86,3.15,3.15,0,0,1,1.25-.78.58.58,0,0,1,.41,0c.29.09.33.49.53.71a2.91,2.91,0,0,0,.46.32C177.38,79.37,176.27,80.26,175.78,80.4Z" fill="#fdd2b9"/>
        </g>
        <path d="M167.75,83.41a3.14,3.14,0,0,1-.8-1.54,10.66,10.66,0,0,0-1.12,1,2.83,2.83,0,0,0-.68,1.09c-.56,1.79,1.94,1.37,2.94,1a8.08,8.08,0,0,0,1.74-.93,2.49,2.49,0,0,1-1.8-.34A2.09,2.09,0,0,1,167.75,83.41Z" fill="#fab77d"/>
        <path d="M147,45.94a18.57,18.57,0,0,0-4.07,6,14.74,14.74,0,0,0-1.44,7c0,1.14,0,2.27.14,3.41.06.65.34,3.9-.85,2.69-.11-.1-.32-.16-.4,0a.56.56,0,0,0,0,.12,1.63,1.63,0,0,0,.49,1.35,3.11,3.11,0,0,0,1.25.61c-1-.31-1.15.94-.55,1.47a4.18,4.18,0,0,0,2.78.57,9.82,9.82,0,0,0,3.08-.85,32.12,32.12,0,0,0,3.07-1.35,27.91,27.91,0,0,1,3-1.53c1.37-.54,2.73-1.11,4.09-1.68s2.34-1,4.15-1.77c3-1.27,6.69-2.94,9.65-4.25,1.07-.48,2.17-1.13,3.3-1.53.12,0,1.63,1,1.88,1.12a4.34,4.34,0,0,0,2.47.13,4.16,4.16,0,0,0,1.57,4,2.4,2.4,0,0,0,1.18.51,1.36,1.36,0,0,0,1.18-.42,5.46,5.46,0,0,1-1.5-.82,2.79,2.79,0,0,1-.31-3.72c.17,2.27,2.53,4.9,4.91,3.57a3.07,3.07,0,0,0,1.11-.94c.28-.52,0-.8,0-1.23a1,1,0,0,1-1.32.55,2.25,2.25,0,0,1-1-1.23c-.81-1.77-.6-3.69-1.2-5.52l0-.14a16.3,16.3,0,0,0-4.65-7.25,34.44,34.44,0,0,0-6.22-4.39,23,23,0,0,0-7-1.94,18.41,18.41,0,0,0-10.09,1.25C152.09,41.08,149.63,43.42,147,45.94Z" fill="#e3ab47"/>
        <path d="M145.48,68a2.16,2.16,0,0,0,.79.61c1.08.47,2.34-.12,3.43-.26a4,4,0,0,0,3-1.44c1.62-2.42-.7-7-3.77-6.51a4.22,4.22,0,0,0-2.28,1.26,6.09,6.09,0,0,0-1.77,3.92,4,4,0,0,0,.24,1.75A2.53,2.53,0,0,0,145.48,68Z" fill="#fdd2b9"/>
        <path d="M153.51,36.73A1.88,1.88,0,0,0,153.4,38a4.07,4.07,0,0,0,3.19,2.91,5.89,5.89,0,0,0,4.33-1,9.61,9.61,0,0,1-4.46-.23,5,5,0,0,1-1.86-1.14C154.35,38.31,153.3,37.12,153.51,36.73Z" fill="#e3ab47"/>
      </g>
      <path d="M167.54,93a2.27,2.27,0,0,1,.73.31.87.87,0,0,1,.4.69.92.92,0,0,1-.48.76c-1,.58-2.4.39-3.47.32a12,12,0,0,1,3.92.85,1,1,0,0,1,.62.67c.43,1.91-4.1.92-4.88.78l1.75.41a6.93,6.93,0,0,1,1.49.45c.47.22.77.72.34,1.17a1.61,1.61,0,0,1-.9.4,8,8,0,0,1-3.45-.36h0a3.88,3.88,0,0,1,1.85,1c.19.23.31.6,0,.82a2.07,2.07,0,0,1-1.63.27,6.22,6.22,0,0,1-1.4-.4,13.11,13.11,0,0,0-1.34-.44,56.58,56.58,0,0,0-5.61-1.21,42.61,42.61,0,0,1-5.78-1.18,38.62,38.62,0,0,1-6.32-2.58,52.46,52.46,0,0,1-13-10.25c-1.94-2.29-3.18-4.07-1.87-7.3a4.81,4.81,0,0,1,4.23-3c2-.06,3.86,1.21,5.38,2.56,2.52,2.22,4.48,4.94,6.88,7.28a95.73,95.73,0,0,0,7.34,6.62,8.85,8.85,0,0,0,4,2c1.67.26,3.22-1.28,4.19-2.45a6.48,6.48,0,0,1,2.07-2,1.06,1.06,0,0,1,1.27.29,1.76,1.76,0,0,1,0,1.58,3.23,3.23,0,0,1-1.09,1.48,2,2,0,0,1,.55,0H164c.42,0,.83,0,1.24,0a13,13,0,0,1,2.25.31Z" fill="#fdd2b9"/>
    </g>
    <g>
      <g>
        <path d="M218.58,248.81a57.7,57.7,0,1,0-57.71-57.7,57.7,57.7,0,0,0,57.71,57.7" fill="#bfe3e9"/>
        <path d="M218.57,239.15a48.34,48.34,0,1,0-48.34-48.34,48.35,48.35,0,0,0,48.34,48.34" fill="#fff"/>
        <path d="M218.57,144.77a46,46,0,1,0,46.05,46,46.09,46.09,0,0,0-46.05-46m0,96.68a50.64,50.64,0,1,1,50.64-50.64,50.69,50.69,0,0,1-50.64,50.64" fill="#029ab3"/>
        <rect x="216.28" y="147.69" width="4.59" height="8.96" fill="#029ab3"/>
        <rect x="233.42" y="155.06" width="8.96" height="4.58" transform="translate(-17.32 284.69) rotate(-60)" fill="#029ab3"/>
        <rect x="247.56" y="169.2" width="8.96" height="4.59" transform="translate(-51.98 148.94) rotate(-29.99)" fill="#029ab3"/>
        <rect x="253.14" y="188.52" width="8.96" height="4.59" fill="#029ab3"/>
        <rect x="249.75" y="205.65" width="4.59" height="8.96" transform="translate(-55.98 323.29) rotate(-59.99)" fill="#029ab3"/>
        <rect x="235.6" y="219.8" width="4.58" height="8.96" transform="translate(-80.27 149.02) rotate(-30)" fill="#029ab3"/>
        <rect x="216.69" y="224.98" width="4.59" height="8.96" fill="#029ab3"/>
        <polygon points="199.4 229.3 195.03 227.01 199.51 219.25 203.88 221.55 199.4 229.3" fill="#029ab3"/>
        <rect x="181.04" y="207.84" width="8.96" height="4.59" transform="translate(-80.2 120.86) rotate(-29.99)" fill="#029ab3"/>
        <rect x="175.86" y="188.52" width="8.96" height="4.59" fill="#029ab3"/>
        <rect x="182.82" y="167.02" width="4.59" height="8.96" transform="translate(-55.98 245.99) rotate(-59.98)" fill="#029ab3"/>
        <rect x="196.96" y="152.87" width="4.59" height="8.96" transform="translate(-51.97 120.65) rotate(-29.99)" fill="#029ab3"/>
        <path d="M218.58,190.41a.4.4,0,0,0-.31.13.44.44,0,0,0-.1.29.39.39,0,0,0,.14.28.36.36,0,0,0,.57,0,.41.41,0,0,0,0-.57.35.35,0,0,0-.26-.1m0,5.39h0a5,5,0,0,1-3.32-1.27,5,5,0,1,1,3.32,1.27" fill="#029ab3"/>
        <rect x="215.68" y="176.02" width="28.15" height="4.59" transform="translate(-56.32 230.67) rotate(-48.19)" fill="#029ab3"/>
        <rect x="205.87" y="169.1" width="4.59" height="24.79" transform="translate(-65.88 215.68) rotate(-48.19)" fill="#029ab3"/>
      </g>
      <path d="M333.41,195.8a45.65,45.65,0,1,1-45.65-45.36,45.51,45.51,0,0,1,45.65,45.36" fill="#e10000"/>
    </g>
    <rect x="44.6" y="264.87" width="370.29" height="72" fill="#029ab3"/>
    <line x1="44.6" y1="280.23" x2="414.89" y2="280.23" fill="none" stroke="#029ab3" stroke-miterlimit="10" stroke-width="1.6"/>
    <line x1="223.56" y1="338.04" x2="223.56" y2="515.12" fill="none" stroke="#029ab3" stroke-miterlimit="10" stroke-width="2.12"/>
    <line x1="223.56" y1="267.36" x2="223.56" y2="331.5" fill="none" stroke="#fff" stroke-miterlimit="10" stroke-width="1.95"/>
  </g>
</svg>
