<svg xmlns="http://www.w3.org/2000/svg" viewBox="0 0 260 400">
  <title>_</title>
  <g>
    <rect x="14.04" y="81.77" width="231.43" height="248.54" fill="#fff" stroke="#029ab3" stroke-miterlimit="10" stroke-width="1.06"/>
    <polyline points="13.5 330.31 245.93 330.31 245.93 386.54 13.5 386.54" fill="#f0f5eb"/>
    <g>
      <g>
        <path d="M53.49,62l0-.68a6.83,6.83,0,0,1,.94-3.68,4.54,4.54,0,0,1,2.69-1.67A5.31,5.31,0,0,1,62.79,58c1.91,2.79.52,6.92-.81,9.63-.86,1.74-2,3.54-3.79,4.24a5.78,5.78,0,0,1-5.65-1.23C50.72,69.19,49.75,67,48,65.52A1.74,1.74,0,0,0,46.92,65c-.37,0-.74.2-1.08.06a1,1,0,0,1-.45-.93,3.07,3.07,0,0,1,2.28-2.93,2.32,2.32,0,0,1,1.58,0c.84.36,1.24,1.29,1.71,2.08.26.43,1.6,2.53,2.27,2.06.27-.19.13-1,.15-1.31C53.41,63.35,53.46,62.65,53.49,62Z" fill="#fdd2b9"/>
        <path d="M90.72,65.7a1.3,1.3,0,0,1,.43.15.51.51,0,0,1,.25.38.54.54,0,0,1-.24.45,3.59,3.59,0,0,1-2,.3,7,7,0,0,1,2.28.35.55.55,0,0,1,.38.36c.33,1.08-2.3.67-2.76.62l1,.17a4.1,4.1,0,0,1,.87.21c.28.11.47.38.25.66a.88.88,0,0,1-.5.25,4.47,4.47,0,0,1-2-.08h0a2.34,2.34,0,0,1,1.1.52c.12.13.2.33.06.47a1.15,1.15,0,0,1-.92.21,3.75,3.75,0,0,1-.82-.18,7,7,0,0,0-.79-.2c-1.58-.33-3.16-.37-4.75-.59a15.77,15.77,0,0,1-4.48-1.23l-.06,0a13.36,13.36,0,0,1-6.85-8.07c-.42-1.41-.66-3.32.6-4.38a3,3,0,0,1,2.56-.72,2.7,2.7,0,0,1,1.55,1,5.5,5.5,0,0,1,.78,1.45,17.17,17.17,0,0,0,3,5.68,13.55,13.55,0,0,0,2.26,2,5.06,5.06,0,0,0,2.38,1c1,.09,1.79-.84,2.3-1.55a3.72,3.72,0,0,1,1.1-1.2.63.63,0,0,1,.74.12,1,1,0,0,1,.06.91,2,2,0,0,1-.57.89,1.06,1.06,0,0,1,.31,0l.36,0c.23,0,.47,0,.71,0a7.05,7.05,0,0,1,1.3.1Z" fill="#fddbbb"/>
        <path d="M64.4,48a11.53,11.53,0,0,0-1.44,0,10,10,0,0,0-6.42,2.8c-1.79,1.76-2.1,3.83-3.14,6a6.78,6.78,0,0,0,0,5.66,9.12,9.12,0,0,0,5.35,5.1c2.86,1,6.05.51,8.89-.54,2-.76,4-1.67,6-2.57a27.09,27.09,0,0,0,6-3.61c1-.79,2-1.59,1.89-2.84A4.07,4.07,0,0,0,81,56.31c-.25-.5-.38-1-.63-1.54a7,7,0,0,0-2.34-2.65,25.9,25.9,0,0,0-8.12-3.18A30.08,30.08,0,0,0,64.4,48Z" fill="#fdd2b9"/>
        <path d="M53.28,49a11.2,11.2,0,0,0-4.6,4.89,10.11,10.11,0,0,0-.46,7.45,16.24,16.24,0,0,0,1.72,3.34,14.92,14.92,0,0,0,2.73,3,6.9,6.9,0,0,0,1.89,1.27,6.7,6.7,0,0,0,2,.39,13,13,0,0,0,4.72-.49c.21-.06,2-.61,1.94-.82a12.48,12.48,0,0,1-.39-2.71c0-.89-.16-1.77-.14-2.66a42.86,42.86,0,0,1,2-12.51c.12-.37.25-.74.38-1.11.06-.17.43-.87.32-1a.35.35,0,0,0-.19-.1,17.07,17.07,0,0,0-4.62-.58,15.71,15.71,0,0,0-4.53.49A11.93,11.93,0,0,0,53.28,49Z" fill="#9dccd8"/>
        <path d="M50.25,58.11l.33-.66a7.31,7.31,0,0,1,2.47-3.29,5,5,0,0,1,3.39-.54,5.75,5.75,0,0,1,4.75,4.43c.74,3.58-2.38,7.12-4.84,9.27-1.58,1.39-3.82,2.87-5.92,2.82A7.3,7.3,0,0,1,45.91,68a17,17,0,0,1-2.44-3.41c-.58-.82-1.14-2.77-2.41-2.18a7.32,7.32,0,0,0-1,.72,1.42,1.42,0,0,1-1.18.28,1.15,1.15,0,0,1-.73-1.06A2.77,2.77,0,0,1,38.48,61a8.36,8.36,0,0,1,2.39-2.86c.84-.65,1.81-1.34,2.9-.79.84.42.62,1,.72,1.78a1.71,1.71,0,0,0,.37.72,10.63,10.63,0,0,0,1.24,1.27c.47.47,1.06,1,1.7.82s.92-.73,1.18-1.27C49.41,59.84,49.83,59,50.25,58.11Z" fill="#fdd2b9"/>
      </g>
      <g>
        <path d="M101.11,49.4a11.87,11.87,0,0,1-1.62,3.51c-.43.63-.81,1.31-1.28,1.91a14.13,14.13,0,0,0-1.69,2.46,6.35,6.35,0,0,1-.39.88c-.08.12-.21.24-.3.35-3.48,4.32-9.59,4.76-14.24,2.19a8.8,8.8,0,0,1-2.75-3.15A16.51,16.51,0,0,1,77,52.49a21.28,21.28,0,0,0-.77-3.05c-.22-.64-.57-1.22-.84-1.83-.87-2-.15-4.27.42-6.27a17.93,17.93,0,0,1,1-2.38,6.47,6.47,0,0,1,1.68-1.9,13,13,0,0,1,3.34-2.48c5.32-2.39,12.09-1.69,16.24,2.6.19.2.37.4.55.61A12.6,12.6,0,0,1,101.42,46,16.43,16.43,0,0,1,101.11,49.4Z" fill="#fdd2b9"/>
        <path d="M92.82,52.92a.7.7,0,0,0-.25,0c-.6.11-1.35.86-1.2,1.44a.36.36,0,0,0,.19.24c.63.29,1.92-1.32,1.36-1.64Z" fill="#231f20"/>
        <g>
          <path d="M95.56,58.16a1.55,1.55,0,0,1-.37,0,2,2,0,0,0-.36-.13c-.25,0,0,.5,0,.6a1,1,0,0,0,.52.38h0c.14-.15.27-.31.4-.47l.23-.3A1.64,1.64,0,0,0,95.56,58.16Z" fill="#fab77d"/>
          <path d="M96.49,56.91a1.34,1.34,0,0,0-.31.36.44.44,0,0,0-.05.37c.07.14.17.09.24,0l.15-.36c.1-.21.22-.41.34-.61A1.31,1.31,0,0,0,96.49,56.91Z" fill="#fdd4af"/>
          <path d="M96,58.62c-.4.11-1.37,0-1.35-.59a.84.84,0,0,1,.28-.54,2.06,2.06,0,0,1,.78-.49A.39.39,0,0,1,96,57c.18.06.2.31.33.45a2.83,2.83,0,0,0,.28.2C97,58,96.33,58.53,96,58.62Z" fill="#fdd2b9"/>
        </g>
        <path d="M91,60.49a1.91,1.91,0,0,1-.5-1,6.89,6.89,0,0,0-.7.62,1.87,1.87,0,0,0-.43.68c-.34,1.12,1.22.86,1.84.6a5,5,0,0,0,1.09-.58,1.51,1.51,0,0,1-1.12-.22A.65.65,0,0,1,91,60.49Z" fill="#fab77d"/>
        <path d="M78,37.07a11.56,11.56,0,0,0-2.54,3.74,9.26,9.26,0,0,0-.9,4.37c0,.71,0,1.42.09,2.13,0,.4.21,2.43-.54,1.68-.07-.07-.2-.1-.25,0s0,.05,0,.08a1,1,0,0,0,.3.84,1.88,1.88,0,0,0,.79.38c-.64-.19-.72.59-.35.92a2.63,2.63,0,0,0,1.74.35A5.67,5.67,0,0,0,78.26,51a19.41,19.41,0,0,0,1.93-.84,14.8,14.8,0,0,1,1.86-1l2.56-1c.84-.36,1.46-.61,2.59-1.11,1.86-.8,4.18-1.84,6-2.66.67-.3,1.35-.7,2.06-.95.08,0,1,.64,1.18.7a2.78,2.78,0,0,0,1.54.08,2.58,2.58,0,0,0,1,2.48,1.4,1.4,0,0,0,.74.32.82.82,0,0,0,.73-.26,3.66,3.66,0,0,1-.93-.51,1.74,1.74,0,0,1-.19-2.33c.1,1.43,1.58,3.06,3.06,2.23a1.82,1.82,0,0,0,.7-.59c.17-.31,0-.49,0-.76a.59.59,0,0,1-.82.34,1.44,1.44,0,0,1-.65-.76c-.5-1.11-.37-2.31-.74-3.46l0-.09A10.31,10.31,0,0,0,98,36.31a21.77,21.77,0,0,0-3.88-2.74,14.53,14.53,0,0,0-4.4-1.21,11.46,11.46,0,0,0-6.3.78A17.69,17.69,0,0,0,78,37.07Z" fill="#e3ab47"/>
        <path d="M77.09,50.87a1.3,1.3,0,0,0,.49.38c.68.3,1.47-.07,2.15-.16a2.5,2.5,0,0,0,1.85-.9c1-1.51-.44-4.38-2.36-4.07a2.69,2.69,0,0,0-1.42.79,3.82,3.82,0,0,0-1.11,2.45,2.51,2.51,0,0,0,.15,1.09A1.79,1.79,0,0,0,77.09,50.87Z" fill="#fdd2b9"/>
        <path d="M82.11,31.32a1.16,1.16,0,0,0-.07.8,2.53,2.53,0,0,0,2,1.82,3.69,3.69,0,0,0,2.71-.63A6,6,0,0,1,84,33.17a3.16,3.16,0,0,1-1.16-.71C82.64,32.31,82,31.56,82.11,31.32Z" fill="#e3ab47"/>
      </g>
      <path d="M90.88,66.46a1.54,1.54,0,0,1,.46.19.56.56,0,0,1,.25.43.59.59,0,0,1-.31.48,4,4,0,0,1-2.16.2,7.62,7.62,0,0,1,2.45.53.61.61,0,0,1,.38.42c.28,1.19-2.56.57-3,.49l1.1.25a5,5,0,0,1,.93.28c.29.14.48.45.21.74a.92.92,0,0,1-.56.24,5,5,0,0,1-2.16-.22h0a2.57,2.57,0,0,1,1.16.65c.11.14.19.37,0,.51a1.35,1.35,0,0,1-1,.16,3.85,3.85,0,0,1-.88-.25,7.32,7.32,0,0,0-.83-.27,35.36,35.36,0,0,0-3.51-.75,26.29,26.29,0,0,1-3.61-.75,22.26,22.26,0,0,1-4-1.61,32.71,32.71,0,0,1-8.12-6.4c-1.21-1.43-2-2.54-1.17-4.57a3,3,0,0,1,2.65-1.84A5.15,5.15,0,0,1,72.55,57c1.58,1.39,2.8,3.09,4.3,4.55a60,60,0,0,0,4.59,4.14,5.57,5.57,0,0,0,2.5,1.27c1,.16,2-.8,2.62-1.53a4,4,0,0,1,1.3-1.23.65.65,0,0,1,.79.17,1.15,1.15,0,0,1,0,1,2.19,2.19,0,0,1-.68.93.91.91,0,0,1,.33,0h.39c.26,0,.52,0,.77,0a8.25,8.25,0,0,1,1.41.19Z" fill="#fdd2b9"/>
    </g>
    <g>
      <g>
        <path d="M122.78,163.87a36.06,36.06,0,1,0-36.07-36.06,36.06,36.06,0,0,0,36.07,36.06" fill="#bfe3e9"/>
        <path d="M122.77,157.84a30.22,30.22,0,1,0-30.21-30.22,30.22,30.22,0,0,0,30.21,30.22" fill="#fff"/>
        <path d="M122.77,98.84a28.78,28.78,0,1,0,28.79,28.78,28.81,28.81,0,0,0-28.79-28.78m0,60.43a31.65,31.65,0,1,1,31.65-31.65,31.68,31.68,0,0,1-31.65,31.65" fill="#029ab3"/>
        <rect x="121.34" y="100.67" width="2.87" height="5.6" fill="#029ab3"/>
        <rect x="132.05" y="105.28" width="5.6" height="2.87" transform="translate(-24.99 170.14) rotate(-60)" fill="#029ab3"/>
        <rect x="140.89" y="114.11" width="5.6" height="2.87" transform="translate(-38.52 87.29) rotate(-29.99)" fill="#029ab3"/>
        <rect x="144.38" y="126.19" width="5.6" height="2.87" fill="#029ab3"/>
        <rect x="142.26" y="136.9" width="2.87" height="5.6" transform="translate(-49.14 194.26) rotate(-59.99)" fill="#029ab3"/>
        <rect x="133.42" y="145.74" width="2.87" height="5.6" transform="translate(-56.21 87.34) rotate(-30)" fill="#029ab3"/>
        <rect x="121.6" y="148.97" width="2.87" height="5.6" fill="#029ab3"/>
        <polygon points="110.79 151.68 108.06 150.25 110.86 145.4 113.59 146.83 110.79 151.68" fill="#029ab3"/>
        <rect x="99.31" y="138.27" width="5.6" height="2.87" transform="translate(-56.16 69.74) rotate(-29.99)" fill="#029ab3"/>
        <rect x="96.08" y="126.19" width="5.6" height="2.87" fill="#029ab3"/>
        <rect x="100.43" y="112.75" width="2.87" height="5.6" transform="translate(-49.15 145.95) rotate(-59.98)" fill="#029ab3"/>
        <rect x="109.27" y="103.91" width="2.87" height="5.6" transform="translate(-38.52 69.61) rotate(-29.99)" fill="#029ab3"/>
        <path d="M122.78,127.37a.27.27,0,0,0-.26.27.28.28,0,0,0,.09.17.22.22,0,0,0,.35,0,.25.25,0,0,0,0-.36.23.23,0,0,0-.16-.06m0,3.37h0a3.12,3.12,0,1,1,2.33-1,3.11,3.11,0,0,1-2.33,1" fill="#029ab3"/>
        <rect x="120.97" y="118.38" width="17.59" height="2.87" transform="translate(-46.05 136.65) rotate(-48.19)" fill="#029ab3"/>
        <rect x="114.84" y="114.05" width="2.87" height="15.49" transform="translate(-52.02 127.28) rotate(-48.19)" fill="#029ab3"/>
      </g>
      <path d="M194.55,130.74A28.53,28.53,0,1,1,166,102.39a28.44,28.44,0,0,1,28.53,28.35" fill="#e10000"/>
    </g>
    <rect x="14.04" y="173.91" width="231.43" height="45" fill="#029ab3"/>
    <line x1="14.04" y1="183.51" x2="245.47" y2="183.51" fill="none" stroke="#029ab3" stroke-miterlimit="10"/>
    <line x1="125.89" y1="219.64" x2="125.89" y2="330.31" fill="none" stroke="#029ab3" stroke-miterlimit="10" stroke-width="1.33"/>
    <line x1="125.89" y1="175.46" x2="125.89" y2="215.55" fill="none" stroke="#fff" stroke-miterlimit="10" stroke-width="1.22"/>
  </g>
</svg>
