<svg xmlns="http://www.w3.org/2000/svg" xmlns:xlink="http://www.w3.org/1999/xlink" viewBox="0 0 460 650">
  <defs>
    <linearGradient id="a" x1="4812.77" y1="100.5" x2="4835.55" y2="95.42" gradientTransform="matrix(-1, 0, 0, 1, 4928.69, 0)" gradientUnits="userSpaceOnUse">
      <stop offset="0" stop-color="#dc8057"/>
      <stop offset="0.02" stop-color="#e18b5f"/>
      <stop offset="0.07" stop-color="#e99f6e"/>
      <stop offset="0.13" stop-color="#efad78"/>
      <stop offset="0.21" stop-color="#f2b57e"/>
      <stop offset="0.34" stop-color="#f3b780"/>
      <stop offset="0.8" stop-color="#f3b780"/>
      <stop offset="0.92" stop-color="#e69768"/>
      <stop offset="1" stop-color="#dc8057"/>
    </linearGradient>
  </defs>
  <title>_</title>
  <rect x="1.31" y="1.73" width="456.42" height="644.36" rx="13.23" ry="13.23" fill="#fff"/>
  <g>
    <rect x="44.56" y="117.56" width="370.29" height="397.67" fill="#fff" stroke="#029ab3" stroke-miterlimit="10" stroke-width="1.69"/>
    <g>
      <g>
        <path d="M89.78,86.33s6.7,12.21,20.42,10.29,18-11.24,18-11.24Z" fill="#005a73"/>
        <g>
          <g>
            <path d="M125.23,96.12s-16.21,3.5-23,3.61c-4.25-.58-3.15-2.1-3.15-2.1a16.89,16.89,0,0,0,6.41-.5,127.26,127.26,0,0,0,15-4.9C125.07,93.35,125.23,96.12,125.23,96.12Z" fill="#eaa270"/>
            <path d="M100.39,99s2.13-.84,2-1.7-2.27.39-2.27.39a10.43,10.43,0,0,1-4.59-1.44,1.45,1.45,0,0,0-2.35,1.36c.11.84,2,2.41,5,2.9a14.38,14.38,0,0,0,3.4.38s.52-.78.85-1.22C101.7,99.72,100.57,99.45,100.39,99Z" fill="#ff9f98"/>
            <path d="M95.56,96.3a5.33,5.33,0,0,0-1.23,2.78c-1-.73-2.1-1.79-1.49-2.86S94.5,95.46,95.56,96.3Z" fill="#fff1da"/>
            <path d="M92.66,96.76a2.14,2.14,0,0,0,.1,1.66A8.36,8.36,0,0,0,98.67,101a8.92,8.92,0,0,0,2.89-.13s-4.07-.09-6.57-1.42a6.18,6.18,0,0,1-1.64-1.21A2,2,0,0,1,92.66,96.76Z" fill="#e8dcc6"/>
          </g>
          <path d="M122.08,86.65s4.41-1.27,7.12-2.07,4.42-.29,5,1.57-1.86,9.22-13.82,13.53a47.67,47.67,0,0,1-5-7.87S121,88.51,122.08,86.65Z" fill="#006b88"/>
        </g>
        <g>
          <g>
            <path d="M92.37,97.71s16.22,3.51,23,3.62c4.25-.59,3.15-2.1,3.15-2.1a16.8,16.8,0,0,1-6.41-.51,127,127,0,0,1-15-4.89C92.53,95,92.37,97.71,92.37,97.71Z" fill="url(#a)"/>
            <path d="M117.22,100.58s-2.14-.84-2-1.7,2.27.4,2.27.4a10,10,0,0,0,4.59-1.44,1.55,1.55,0,0,1,2.5,1.36c-.11.84-1.54,2.41-4.6,2.9a18.16,18.16,0,0,1-4,.37s-.52-.77-.86-1.22C115.9,101.32,117,101.05,117.22,100.58Z" fill="#ff9f98"/>
            <path d="M122,97.9a5.28,5.28,0,0,1,1.23,2.78c1-.74,2.1-1.79,1.49-2.86S123.11,97.06,122,97.9Z" fill="#fff1da"/>
            <path d="M124.94,98.36a2.15,2.15,0,0,1-.09,1.65,8.35,8.35,0,0,1-5.92,2.59,8.79,8.79,0,0,1-2.88-.13s4.07-.08,6.56-1.42a6.19,6.19,0,0,0,1.64-1.2A2,2,0,0,0,124.94,98.36Z" fill="#e8dcc6"/>
          </g>
          <path d="M105.6,94.31a41.31,41.31,0,0,1-7.13,8.42C93.74,100,80.56,92,84.52,87.1,87,84,94.81,88.41,99.22,88.83,105,92.08,105.6,94.31,105.6,94.31Z" fill="#006b88"/>
        </g>
        <path d="M106.91,53.24a30.56,30.56,0,0,0-4.37,3.14C99.83,63.79,94.89,81.31,95,89.6c6,3,9.09,3.67,15.55,3a31.74,31.74,0,0,0,13.23-5.18c-1.43-7.73-5-25.84-7.92-32.22A40.27,40.27,0,0,0,111.77,53Z" fill="#029ab3"/>
        <path d="M124.7,33.75,88.31,44.62a29.27,29.27,0,0,1,8.9,7.87c.79-.14,1.71-.27,2.71-.41a11.64,11.64,0,0,0-1.53-2.2,12,12,0,0,1,2.7,2.06c6.66-.82,15.89-1.52,15.89-1.52C117.08,47.17,124.7,33.75,124.7,33.75Z" fill="#1d1a15"/>
        <path d="M105,54.47s.66,3.39,4.92,3.14c4.68-.28,3.51-3.8,3.51-3.8s-2.58-1.9-4-1.74S105,54.47,105,54.47Z" fill="#00c4ff"/>
        <path d="M107.06,48.29l-1.51,6.22s.39,1.79,4.5,1.57c3-.16,3.14-1.47,3.12-1.86l-1.91-6.59Z" fill="#f2b680"/>
        <g>
          <path d="M131.69,82.32c-1.91,3.35-7.8,7.67-13.76,9.84a21.53,21.53,0,0,0-1.32-1.72s7.58-3.55,9.55-8.12c-.8-7.07-4.49-19.25-6.24-23.4A58.29,58.29,0,0,1,131.69,82.32Z" fill="#f2b680"/>
          <path d="M131.55,81.66c-2.44-11.14-8.73-23.17-13.44-25.32,1.75,4.14,6.32,18.85,7.12,25.92a10.34,10.34,0,0,1-1.81,3c.62.56,1.45,1.54,2.31,2.39A17.86,17.86,0,0,0,131.55,81.66Z" fill="#00c4ff"/>
          <path d="M119.63,69.54s7.54-5.94,8-6.26a65.41,65.41,0,0,0-7.68-8c-1.6-1.28-4.82-.41-6-1.25C115.81,58.8,119.63,69.54,119.63,69.54Z" fill="#029ab3"/>
          <path d="M118.11,92.05a3.09,3.09,0,0,0-1.35-1.68,4.38,4.38,0,0,1-2.34.74c-1-.13-2.18-.3-2.34.17s1.6.47,1.37.89-2.84,1.26-2.75,1.86,2.69-.76,2.89-.56-2,2.25-1.32,2.34,2.07-1.41,2.23-1.26-.83,2.24,0,2.09c.4-.08.72-1.06,1.24-2.09.14.4.2,1.53.29,1.62s.55.42.72-.8a8.23,8.23,0,0,1,1.18-3.19Z" fill="#f2b680"/>
        </g>
        <g>
          <path d="M104.83,92c-1.86-.83-9-4.65-12.31-9.73.66-5,5.83-20.21,5.83-20.21S88.21,70,86.72,83.56c3,4.31,10.7,8.69,16.74,10.07C103.77,93.07,104.48,92.5,104.83,92Z" fill="#f2b680"/>
          <path d="M92.55,80.37c1.33-3.46,3.19-9.67,4.67-15.05.85-3.09.53-6.15,1.44-7.84-4.21.8-11.94,12.36-13.49,24.43,2,3,4.7,6.11,8.72,7.78a42,42,0,0,1,3.56-4.15A17.85,17.85,0,0,1,92.55,80.37Z" fill="#00c4ff"/>
          <path d="M102.3,62c2.64-4.56,2.19-6.69,1.9-7.16a23.18,23.18,0,0,0-14.11,8.07c.68,1.37,6.09,6.57,6.78,8.87A105.09,105.09,0,0,1,102.3,62Z" fill="#029ab3"/>
          <path d="M103.46,93.61A3,3,0,0,1,104.8,92a4.27,4.27,0,0,0,2.31.73c1-.12,2.15-.29,2.31.17s-2.08.61-1.41,1.19c1.31-.31,2.21.34,2.11.92s-1.34-.53-2.19.05c-.28.28,1.87,2.07,1.22,2.16s-2-1.23-2.12-1.09.82,2.22,0,2.07c-.4-.08-.72-1.05-1.23-2.07-.13.4-.19,1.51-.28,1.6s-.55.43-.72-.79a8.25,8.25,0,0,0-1.16-3.15Z" fill="#f2b680"/>
        </g>
        <g>
          <path d="M122.16,38.41s5.18.24,4.86-4.92-4.28-4-5.5-.5C122.11,37.93,122.16,38.41,122.16,38.41Z" fill="#dba674"/>
          <path d="M124.39,34.9S125.16,26.63,127,24c-1.06-3.46-2.92-8.51-9.73-13.56C113.89,18.55,119.61,32.77,124.39,34.9Z" fill="#1d1a15"/>
          <path d="M113.79,13.93c4.41,1.91,7.28,5.53,8.18,12.76s3.57,5.42,3.3,9.25,1.19,12.82-10.71,16.12c-12.37,3.43-20-7.11-25.28-14.85-4.88-7.18,1.39-21.15,13-23.34C111.07,12.23,113.79,13.93,113.79,13.93Z" fill="#f2b680"/>
          <path d="M112.67,8c-11.22-4.62-27.22,4-29.61,14.78a28.74,28.74,0,0,0,4.2,22.7c2-1.62,4-4.29,7.39-6.24a33.94,33.94,0,0,0-1.6-5.56s5.14-6.45,15.65-8.31a54.21,54.21,0,0,0-1-10.38l4.67,10,1.11-.09a73.76,73.76,0,0,0-4-8.58,89.72,89.72,0,0,1,4.65,8.54c8.52-.48,9.25,1.17,11.29,2.38C125.8,22.54,123.89,12.6,112.67,8Z" fill="#1d1a15"/>
          <path d="M93.73,39.88s-5.41-3-7,.2,4.16,7.15,8.57,4.7A15.91,15.91,0,0,0,93.73,39.88Z" fill="#f2b680"/>
        </g>
      </g>
      <g>
        <path d="M110.07,40.58a8.48,8.48,0,0,0,1.37.32,3.3,3.3,0,0,0,1.33,0,2.22,2.22,0,0,0,1.14-.6,5,5,0,0,0,.84-1.11,2.92,2.92,0,0,1-.6,1.33,2.26,2.26,0,0,1-1.28.8A3.5,3.5,0,0,1,110.07,40.58Z" fill="#ba8663"/>
        <path d="M105.34,36.42a1.7,1.7,0,1,1-3.28.7,1.7,1.7,0,1,1,3.28-.7Z" fill="#3a1e0a"/>
        <path d="M119.41,33.4a1.7,1.7,0,1,1-3.27.7,1.7,1.7,0,1,1,3.27-.7Z" fill="#3a1e0a"/>
        <path d="M100.64,33.69a.55.55,0,0,1-.41-.07.56.56,0,0,1-.18-.77,4.86,4.86,0,0,1,5.18-1.61.56.56,0,1,1-.42,1A3.77,3.77,0,0,0,101,33.44.55.55,0,0,1,100.64,33.69Z" fill="#3a1e0a"/>
        <path d="M119.42,29.72a.56.56,0,0,1-.43-.09c-1-.7-3-.25-4,.91a.55.55,0,0,1-.78.06.56.56,0,0,1-.06-.79c1.38-1.59,4-2.12,5.49-1.1a.57.57,0,0,1,.15.78A.59.59,0,0,1,119.42,29.72Z" fill="#3a1e0a"/>
        <path d="M113.89,47.06a6,6,0,0,1-4.24-.45.56.56,0,0,1,.6-1,5.41,5.41,0,0,0,4.35,0,3,3,0,0,0,2-1.62.55.55,0,0,1,.69-.38.55.55,0,0,1,.38.69A4,4,0,0,1,115,46.73,8.35,8.35,0,0,1,113.89,47.06Z" fill="#ba8663"/>
      </g>
    </g>
    <rect x="43.69" y="515.23" width="371.89" height="89.97" fill="#f0f5eb"/>
    <g>
      <g>
        <path d="M218.53,248.93a57.71,57.71,0,1,0-57.7-57.7,57.71,57.71,0,0,0,57.7,57.7" fill="#bfe3e9"/>
        <path d="M218.53,239.27a48.35,48.35,0,1,0-48.34-48.34,48.34,48.34,0,0,0,48.34,48.34" fill="#fff"/>
        <path d="M218.53,144.88a46,46,0,1,0,46,46.05,46.1,46.1,0,0,0-46-46.05m0,96.68a50.64,50.64,0,1,1,50.64-50.63,50.69,50.69,0,0,1-50.64,50.63" fill="#029ab3"/>
        <rect x="216.24" y="147.81" width="4.59" height="8.96" fill="#029ab3"/>
        <rect x="233.38" y="155.17" width="8.96" height="4.58" transform="translate(-17.44 284.71) rotate(-60)" fill="#029ab3"/>
        <rect x="247.52" y="169.31" width="8.96" height="4.59" transform="translate(-52.04 148.93) rotate(-29.99)" fill="#029ab3"/>
        <rect x="253.1" y="188.63" width="8.96" height="4.59" fill="#029ab3"/>
        <rect x="249.7" y="205.76" width="4.59" height="8.96" transform="translate(-56.1 323.31) rotate(-59.99)" fill="#029ab3"/>
        <rect x="235.56" y="219.91" width="4.58" height="8.96" transform="translate(-80.33 149.01) rotate(-30)" fill="#029ab3"/>
        <rect x="216.65" y="225.09" width="4.59" height="8.96" fill="#029ab3"/>
        <polygon points="199.36 229.41 194.99 227.12 199.47 219.37 203.84 221.66 199.36 229.41" fill="#029ab3"/>
        <rect x="181" y="207.95" width="8.96" height="4.59" transform="translate(-80.26 120.85) rotate(-29.99)" fill="#029ab3"/>
        <rect x="175.82" y="188.63" width="8.96" height="4.59" fill="#029ab3"/>
        <rect x="182.78" y="167.13" width="4.59" height="8.96" transform="translate(-56.1 246.01) rotate(-59.98)" fill="#029ab3"/>
        <rect x="196.92" y="152.98" width="4.59" height="8.96" transform="matrix(0.87, -0.5, 0.5, 0.87, -52.03, 120.65)" fill="#029ab3"/>
        <path d="M218.53,190.52a.38.38,0,0,0-.3.14.41.41,0,0,0,0,.57.37.37,0,0,0,.58,0,.41.41,0,0,0,0-.57.43.43,0,0,0-.27-.1m0,5.39h0a5,5,0,1,1,3.72-1.66,5,5,0,0,1-3.72,1.66" fill="#029ab3"/>
        <rect x="215.64" y="176.13" width="28.15" height="4.59" transform="translate(-56.42 230.68) rotate(-48.19)" fill="#029ab3"/>
        <rect x="205.83" y="169.21" width="4.59" height="24.79" transform="translate(-65.98 215.69) rotate(-48.19)" fill="#029ab3"/>
      </g>
      <path d="M333.37,195.91a45.65,45.65,0,1,1-45.65-45.36,45.51,45.51,0,0,1,45.65,45.36" fill="#e10000"/>
    </g>
    <rect x="44.56" y="264.98" width="370.29" height="72" fill="#029ab3"/>
    <line x1="44.56" y1="280.35" x2="414.85" y2="280.35" fill="none" stroke="#029ab3" stroke-miterlimit="10" stroke-width="1.6"/>
    <line x1="223.52" y1="338.15" x2="223.52" y2="515.23" fill="none" stroke="#029ab3" stroke-miterlimit="10" stroke-width="2.12"/>
    <line x1="223.52" y1="267.47" x2="223.52" y2="331.62" fill="none" stroke="#fff" stroke-miterlimit="10" stroke-width="1.95"/>
  </g>
</svg>
