<svg xmlns="http://www.w3.org/2000/svg" xmlns:xlink="http://www.w3.org/1999/xlink" viewBox="0 0 260 400">
  <defs>
    <linearGradient id="a" x1="5713.6" y1="71.11" x2="5727.83" y2="67.93" gradientTransform="matrix(-1, 0, 0, 1, 5772.72, 0)" gradientUnits="userSpaceOnUse">
      <stop offset="0" stop-color="#dc8057"/>
      <stop offset="0.02" stop-color="#e18b5f"/>
      <stop offset="0.07" stop-color="#e99f6e"/>
      <stop offset="0.13" stop-color="#efad78"/>
      <stop offset="0.21" stop-color="#f2b57e"/>
      <stop offset="0.34" stop-color="#f3b780"/>
      <stop offset="0.8" stop-color="#f3b780"/>
      <stop offset="0.92" stop-color="#e69768"/>
      <stop offset="1" stop-color="#dc8057"/>
    </linearGradient>
  </defs>
  <title>_</title>
  <g>
    <rect x="14.52" y="81.77" width="231.43" height="248.54" fill="#fff" stroke="#029ab3" stroke-miterlimit="10" stroke-width="1.06"/>
    <g>
      <g>
        <path d="M42.78,62.25S47,69.88,55.54,68.68s11.27-7,11.27-7Z" fill="#005a73"/>
        <g>
          <g>
            <path d="M64.94,68.37s-10.13,2.19-14.35,2.26c-2.66-.37-2-1.32-2-1.32a10.31,10.31,0,0,0,4-.31A79.69,79.69,0,0,0,62,65.94C64.84,66.64,64.94,68.37,64.94,68.37Z" fill="#eaa270"/>
            <path d="M49.41,70.16s1.33-.52,1.22-1.06-1.42.25-1.42.25a6.5,6.5,0,0,1-2.86-.9.91.91,0,0,0-1.47.84c.07.53,1.23,1.51,3.14,1.82a8.92,8.92,0,0,0,2.12.23s.33-.48.54-.76C50.23,70.62,49.53,70.45,49.41,70.16Z" fill="#ff9f98"/>
            <path d="M46.4,68.49a3.3,3.3,0,0,0-.77,1.73c-.64-.46-1.31-1.12-.93-1.79S45.73,68,46.4,68.49Z" fill="#fff1da"/>
            <path d="M44.59,68.77a1.35,1.35,0,0,0,0,1,5.22,5.22,0,0,0,3.7,1.63,5.32,5.32,0,0,0,1.8-.09,11.1,11.1,0,0,1-4.1-.88,4.2,4.2,0,0,1-1-.76A1.21,1.21,0,0,1,44.59,68.77Z" fill="#e8dcc6"/>
          </g>
          <path d="M63,62.45s2.76-.79,4.45-1.29,2.76-.19,3.13,1-1.17,5.76-8.64,8.45a30,30,0,0,1-3.13-4.91S62.31,63.62,63,62.45Z" fill="#006b88"/>
        </g>
        <g>
          <g>
            <path d="M44.4,69.36s10.14,2.2,14.36,2.26c2.66-.36,2-1.31,2-1.31a10.63,10.63,0,0,1-4-.31,80.2,80.2,0,0,1-9.39-3.06C44.5,67.64,44.4,69.36,44.4,69.36Z" fill="url(#a)"/>
            <path d="M59.93,71.16s-1.33-.52-1.22-1.06,1.42.24,1.42.24a6.17,6.17,0,0,0,2.87-.9,1,1,0,0,1,1.56.85c-.07.53-1,1.51-2.88,1.82a11.24,11.24,0,0,1-2.48.23s-.32-.49-.53-.76C59.11,71.62,59.81,71.45,59.93,71.16Z" fill="#ff9f98"/>
            <path d="M63,69.48a3.4,3.4,0,0,1,.77,1.74c.63-.46,1.31-1.12.92-1.79S63.61,69,63,69.48Z" fill="#fff1da"/>
            <path d="M64.76,69.77a1.32,1.32,0,0,1-.06,1A5.16,5.16,0,0,1,61,72.42a5.8,5.8,0,0,1-1.8-.08,11,11,0,0,0,4.1-.89,4,4,0,0,0,1-.75A1.28,1.28,0,0,0,64.76,69.77Z" fill="#e8dcc6"/>
          </g>
          <path d="M52.67,67.24a25.91,25.91,0,0,1-4.45,5.26c-3-1.69-11.2-6.71-8.72-9.76,1.56-1.93,6.42.81,9.18,1.08C52.3,65.84,52.67,67.24,52.67,67.24Z" fill="#006b88"/>
        </g>
        <path d="M53.49,41.57a19,19,0,0,0-2.73,2C49.06,48.17,46,59.11,46,64.3c3.74,1.89,5.69,2.29,9.72,1.84A20,20,0,0,0,64,62.9c-.9-4.83-3.16-16.15-4.95-20.13a24.47,24.47,0,0,0-2.55-1.35Z" fill="#029ab3"/>
        <path d="M64.61,29.39,41.86,36.18a18.33,18.33,0,0,1,5.57,4.92c.49-.09,1.06-.17,1.69-.25a6.85,6.85,0,0,0-.95-1.38,7.42,7.42,0,0,1,1.68,1.28c4.16-.51,9.93-.94,9.93-.94C59.85,37.78,64.61,29.39,64.61,29.39Z" fill="#1d1a15"/>
        <path d="M52.27,42.34a2.69,2.69,0,0,0,3.07,2c2.93-.18,2.2-2.37,2.2-2.37s-1.61-1.19-2.48-1.09A10.16,10.16,0,0,0,52.27,42.34Z" fill="#00c4ff"/>
        <path d="M53.59,38.48l-1,3.89s.24,1.11,2.81,1c1.84-.09,2-.91,1.95-1.16l-1.19-4.12Z" fill="#f2b680"/>
        <g>
          <path d="M69,59.74c-1.2,2.1-4.88,4.8-8.6,6.16-.47-.67-.83-1.08-.83-1.08s4.74-2.22,6-5.08a72.32,72.32,0,0,0-3.9-14.62A36.53,36.53,0,0,1,69,59.74Z" fill="#f2b680"/>
          <path d="M68.89,59.33c-1.53-7-5.46-14.48-8.4-15.83,1.1,2.6,3.95,11.79,4.45,16.21a6.87,6.87,0,0,1-1.13,1.89c.39.35.9,1,1.44,1.5A11.18,11.18,0,0,0,68.89,59.33Z" fill="#00c4ff"/>
          <path d="M61.44,51.75s4.71-3.71,5-3.9a40.64,40.64,0,0,0-4.81-5c-1-.81-3-.26-3.76-.78C59.05,45,61.44,51.75,61.44,51.75Z" fill="#029ab3"/>
          <path d="M60.49,65.83a2,2,0,0,0-.85-1.06,2.64,2.64,0,0,1-1.46.47c-.63-.08-1.36-.19-1.46.11s1,.29.85.55-1.77.79-1.71,1.16,1.68-.47,1.8-.35-1.23,1.41-.82,1.47,1.29-.88,1.39-.79-.52,1.4,0,1.3c.25,0,.45-.66.78-1.3.08.25.12,1,.17,1s.35.27.46-.5a5.36,5.36,0,0,1,.73-2A.57.57,0,0,1,60.49,65.83Z" fill="#f2b680"/>
        </g>
        <g>
          <path d="M52.19,65.77c-1.16-.52-5.63-2.91-7.7-6.08.42-3.14,3.65-12.63,3.65-12.63a21.49,21.49,0,0,0-7.27,13.46c1.86,2.7,6.69,5.43,10.46,6.29C51.53,66.46,52,66.11,52.19,65.77Z" fill="#f2b680"/>
          <path d="M44.51,58.52c.84-2.16,2-6,2.92-9.4.54-1.93.34-3.84.91-4.9-2.64.5-7.47,7.72-8.44,15.27a12.67,12.67,0,0,0,5.45,4.86,26.25,26.25,0,0,1,2.23-2.59A11.3,11.3,0,0,1,44.51,58.52Z" fill="#00c4ff"/>
          <path d="M50.61,47.06c1.65-2.85,1.37-4.19,1.18-4.48A14.48,14.48,0,0,0,43,47.63c.42.85,3.8,4.1,4.23,5.54A65.8,65.8,0,0,1,50.61,47.06Z" fill="#029ab3"/>
          <path d="M51.33,66.8a2,2,0,0,1,.84-1,2.68,2.68,0,0,0,1.44.46c.62-.08,1.35-.18,1.45.11s-1.3.37-.88.74c.82-.19,1.38.21,1.32.58s-.84-.34-1.37,0c-.18.17,1.16,1.29.76,1.35s-1.23-.77-1.33-.69.52,1.39,0,1.3c-.25,0-.45-.66-.77-1.3-.09.25-.12,1-.18,1s-.34.26-.45-.5a5.15,5.15,0,0,0-.72-2Z" fill="#f2b680"/>
        </g>
        <g>
          <path d="M63,32.3s3.24.15,3-3.07-2.67-2.51-3.44-.32C63,32,63,32.3,63,32.3Z" fill="#dba674"/>
          <path d="M64.42,30.11s.48-5.17,1.61-6.8A15.38,15.38,0,0,0,60,14.84C57.85,19.89,61.43,28.78,64.42,30.11Z" fill="#1d1a15"/>
          <path d="M57.79,17c2.75,1.2,4.55,3.45,5.11,8s2.23,3.39,2.06,5.78.75,8-6.69,10.08c-7.73,2.15-12.52-4.44-15.8-9.28-3-4.49.87-13.22,8.14-14.58C56.09,15.94,57.79,17,57.79,17Z" fill="#f2b680"/>
          <path d="M57.09,13.28c-7-2.89-17,2.52-18.51,9.23A18,18,0,0,0,41.21,36.7c1.26-1,2.5-2.68,4.62-3.9a22.5,22.5,0,0,0-1-3.47,16.8,16.8,0,0,1,9.78-5.2A33.69,33.69,0,0,0,54,17.65l2.92,6.21.7-.05a47.38,47.38,0,0,0-2.5-5.37A57.43,57.43,0,0,1,58,23.78c5.32-.3,5.78.74,7.05,1.49A12.09,12.09,0,0,0,57.09,13.28Z" fill="#1d1a15"/>
          <path d="M45.25,33.22s-3.38-1.87-4.34.13,2.6,4.46,5.36,2.94A9.86,9.86,0,0,0,45.25,33.22Z" fill="#f2b680"/>
        </g>
      </g>
      <g>
        <path d="M55.46,33.66a5.6,5.6,0,0,0,.86.2,2.1,2.1,0,0,0,.83,0,1.93,1.93,0,0,0,1.24-1.06,1.8,1.8,0,0,1-.38.83,1.47,1.47,0,0,1-.8.5A2.26,2.26,0,0,1,55.46,33.66Z" fill="#ba8663"/>
        <path d="M52.51,31.06a1.06,1.06,0,1,1-1.29-1A1.16,1.16,0,0,1,52.51,31.06Z" fill="#3a1e0a"/>
        <path d="M61.3,29.17a1.06,1.06,0,1,1-2,.44,1.06,1.06,0,1,1,2-.44Z" fill="#3a1e0a"/>
        <path d="M49.57,29.35a.32.32,0,0,1-.25,0,.35.35,0,0,1-.12-.48,3,3,0,0,1,3.24-1,.35.35,0,1,1-.27.64,2.34,2.34,0,0,0-2.37.73A.34.34,0,0,1,49.57,29.35Z" fill="#3a1e0a"/>
        <path d="M61.31,26.87a.33.33,0,0,1-.27-.06,2.17,2.17,0,0,0-2.51.57.34.34,0,0,1-.49,0,.35.35,0,0,1,0-.49,2.81,2.81,0,0,1,3.43-.69.34.34,0,0,1,.09.48A.35.35,0,0,1,61.31,26.87Z" fill="#3a1e0a"/>
        <path d="M57.85,37.7a3.68,3.68,0,0,1-2.65-.28.35.35,0,1,1,.38-.58,3.41,3.41,0,0,0,2.71,0,1.89,1.89,0,0,0,1.23-1,.35.35,0,0,1,.67.19,2.46,2.46,0,0,1-1.65,1.47A4.31,4.31,0,0,1,57.85,37.7Z" fill="#ba8663"/>
      </g>
    </g>
    <rect x="13.98" y="330.31" width="232.43" height="56.23" fill="#f0f5eb"/>
    <g>
      <g>
        <path d="M123.25,163.87a36.06,36.06,0,1,0-36.06-36.06,36.06,36.06,0,0,0,36.06,36.06" fill="#bfe3e9"/>
        <path d="M123.25,157.84A30.22,30.22,0,1,0,93,127.62a30.22,30.22,0,0,0,30.21,30.22" fill="#fff"/>
        <path d="M123.25,98.84A28.78,28.78,0,1,0,152,127.62a28.82,28.82,0,0,0-28.78-28.78m0,60.43a31.65,31.65,0,1,1,31.65-31.65,31.68,31.68,0,0,1-31.65,31.65" fill="#029ab3"/>
        <rect x="121.82" y="100.67" width="2.87" height="5.6" fill="#029ab3"/>
        <rect x="132.53" y="105.28" width="5.6" height="2.87" transform="translate(-24.75 170.55) rotate(-60)" fill="#029ab3"/>
        <rect x="141.37" y="114.11" width="5.6" height="2.87" transform="translate(-38.45 87.53) rotate(-29.99)" fill="#029ab3"/>
        <rect x="144.86" y="126.19" width="5.6" height="2.87" fill="#029ab3"/>
        <rect x="142.74" y="136.9" width="2.87" height="5.6" transform="translate(-48.91 194.67) rotate(-59.99)" fill="#029ab3"/>
        <rect x="133.9" y="145.74" width="2.87" height="5.6" transform="translate(-56.14 87.58) rotate(-30)" fill="#029ab3"/>
        <rect x="122.07" y="148.97" width="2.87" height="5.6" fill="#029ab3"/>
        <polygon points="111.27 151.68 108.54 150.25 111.34 145.4 114.07 146.83 111.27 151.68" fill="#029ab3"/>
        <rect x="99.79" y="138.27" width="5.6" height="2.87" transform="translate(-56.09 69.98) rotate(-29.99)" fill="#029ab3"/>
        <rect x="96.56" y="126.19" width="5.6" height="2.87" fill="#029ab3"/>
        <rect x="100.91" y="112.75" width="2.87" height="5.6" transform="translate(-48.91 146.36) rotate(-59.98)" fill="#029ab3"/>
        <rect x="109.74" y="103.91" width="2.87" height="5.6" transform="translate(-38.45 69.85) rotate(-29.99)" fill="#029ab3"/>
        <path d="M123.25,127.37a.24.24,0,0,0-.18.09.24.24,0,0,0-.07.18.24.24,0,0,0,.09.17.22.22,0,0,0,.35,0,.25.25,0,0,0-.19-.42m0,3.37h0a3.12,3.12,0,1,1,2.33-1,3.11,3.11,0,0,1-2.33,1" fill="#029ab3"/>
        <rect x="121.44" y="118.38" width="17.59" height="2.87" transform="translate(-45.89 137) rotate(-48.19)" fill="#029ab3"/>
        <rect x="115.32" y="114.05" width="2.87" height="15.49" transform="translate(-51.86 127.63) rotate(-48.19)" fill="#029ab3"/>
      </g>
      <path d="M195,130.74a28.53,28.53,0,1,1-28.53-28.35A28.44,28.44,0,0,1,195,130.74" fill="#e10000"/>
    </g>
    <rect x="14.52" y="173.91" width="231.43" height="45" fill="#029ab3"/>
    <line x1="14.52" y1="183.51" x2="245.95" y2="183.51" fill="none" stroke="#029ab3" stroke-miterlimit="10"/>
    <line x1="126.37" y1="219.64" x2="126.37" y2="330.31" fill="none" stroke="#029ab3" stroke-miterlimit="10" stroke-width="1.33"/>
    <line x1="126.37" y1="175.46" x2="126.37" y2="215.55" fill="none" stroke="#fff" stroke-miterlimit="10" stroke-width="1.22"/>
  </g>
</svg>
