<svg xmlns="http://www.w3.org/2000/svg" viewBox="0 0 460 650">
  <title>_</title>
  <rect x="1.31" y="1.73" width="456.42" height="644.36" rx="13.23" ry="13.23" fill="#fff"/>
  <g>
    <rect x="45.07" y="116.64" width="370.29" height="397.67" fill="#fff" stroke="#029ab3" stroke-miterlimit="10" stroke-width="1.69"/>
    <g>
      <g>
        <path d="M99.4,29.27s-5.85,1-2.87,5.52,8,1.4,8,1.4Z" fill="#c99357"/>
        <g>
          <path d="M137.18,77.79s10.09-2.17,13-.72,11.24,6.93,12.54,5.57c2.69-2.79,5.71-4,8.22-2.65s.25,6.1-2.34,7.92-6.76,5.7-8.5,4.58-5.75-2.38-10-3.36S136,86,136,86Z" fill="#bb894f"/>
          <path d="M111,81s-3.27,12,2.43,15,12.59,2,14.89,1.49S140,94.59,140,94.59s4.5,3.06,8.44,3.3,5.48-1.85,9.11-1,4.43,0,6.12-.66,6.63-4.18,5.66-7.61-2.59-4.51-5-2.44-4.52,4.35-6.33,4-10-5.47-14.51-6S111,81,111,81Z" fill="#c99357"/>
          <path d="M121.17,43.44s3.14-3.33,8.19-8.29c4.17-4.1,12.94-10.87,15.21-15.43s3.11-6.91,3.59-5.17c.2.74.31,1.54.48,1.95.31.77,1.34-.05,1.75-.3,1.58-.94,5.75-3,6.63-.36,1.13,3.36-.8,5.38-4.28,6.51-2.44.8-3.2,1.42-6.75,6-4.14,5.31-7.37,12.07-11.16,16.28a16,16,0,0,0-2.94,5.72Z" fill="#bb894f"/>
          <path d="M110.59,44.35s-5.54,1.13-3.57,11.77c1,5.69,3.32,14.14,2.09,20s-7.77,17.33-7.77,17.33,7.48,7.89,14.74.78c5.48-5.37,10.69,3.75,13.8-2.17,1.57-3,4.24-6.86,10.49-7.32,5.44-.4,8.28.54,10.71-6.3.57-1.62,2.1-8.22,2.1-8.22s-11.27-2.2-16.1-.57c-2.24-8.26-2.66-16-5.66-20.9s-8.93-9.14-11.11-8.36S110.59,44.35,110.59,44.35Z" fill="#ef9a9a"/>
          <path d="M119.19,34.78a32.93,32.93,0,0,0,2.54,7.1,2.72,2.72,0,0,1,0,2.57c-.74,1.34-2.33,2.66-5.87,3s-6-.33-7.47-1.28a32.52,32.52,0,0,0,.79-10.57c-.15-1.7-.75-3.6,1-3.47l6.55.53A2.72,2.72,0,0,1,119.19,34.78Z" fill="#c99357"/>
          <path d="M99.29,32.05C103.62,39.39,112,42.48,118,39s7.33-12.34,3-19.68S108.29,8.83,102.3,12.36,95,24.71,99.29,32.05Z" fill="#c99357"/>
          <path d="M96.05,12.28c-.6.32-2.27-4-9.45-2.71-6.32,1.17-6.09,5.28-6.88,9.43-.6,3.22-4.69,2.65-4.69,2.65a12.06,12.06,0,0,0,7.62,4.07c7.66,1.23,14.79-4.81,14.79-4.81Z" fill="#42312a"/>
          <path d="M97.12,9.12s-4.28-3.19-8.91,5.93C84.49,22.38,90.84,28.25,94.7,28S97.12,9.12,97.12,9.12Z" fill="#ef9a9a"/>
          <path d="M100.08,34.16s-1.57-2.35-.25-4.23c1.93.24,7.73-1.55,9.92-8,1.58-4.64.21-7.57.21-7.57l9,2.18s2.71-9.74-10.18-9.48C98.22,2,92.35,13.36,91.2,17.67,90.13,21.66,91.76,33.71,100.08,34.16Z" fill="#42312a"/>
          <path d="M118,16.2s2.31-3.3,4.67.62-.72,6.09-.72,6.09Z" fill="#c99357"/>
          <path d="M110.77,52.68c.61-1.08,4.57-2.47,8.31-2.55,5.26-.11,11,1.24,14-.26,2.67-1.32,11.37-7.95,12.79-10.2s.27-4,.84-5.51c.48-1.24,1-.73,1.5.62.43,1.09.53,3,1.39,2.42.59-.38,1.15-1,2.61-2.17,2.37-1.87,5.48-2.29,5.45,1.15s-4.75,5.7-7.52,8-6.77,8-10.85,11.09-16.54,8.63-21.73,7.08C113.91,61.25,108.11,57.33,110.77,52.68Z" fill="#c99357"/>
        </g>
      </g>
      <path d="M119.09,29.63a7.07,7.07,0,0,1-5.31,4s2.46,2.76,5,.3A2.9,2.9,0,0,0,119.09,29.63Z" fill="#ab753c"/>
      <path d="M115.19,23.29a1.27,1.27,0,1,0-.11-1.95A1.39,1.39,0,0,0,115.19,23.29Z" fill="#231f20"/>
      <path d="M106.56,29.82a1.27,1.27,0,1,0-.12-1.95A1.39,1.39,0,0,0,106.56,29.82Z" fill="#231f20"/>
      <path d="M112.18,19.85a8.94,8.94,0,0,1,3.95-1.49s-1.3-1-4.15.8C112,19.16,111.68,20.17,112.18,19.85Z" fill="#42312a"/>
      <path d="M115.89,26.94a2.2,2.2,0,0,1-2.06,2.82,3.39,3.39,0,0,1-.64-.05,3.84,3.84,0,0,1-.6-.2c.42-.07.81-.13,1.17-.22a2.81,2.81,0,0,0,1-.46A3.75,3.75,0,0,0,115.89,26.94Z" fill="#b17639"/>
    </g>
    <rect x="44.21" y="514.31" width="371.89" height="89.97" fill="#f0f5eb"/>
    <g>
      <g>
        <path d="M219.05,248a57.71,57.71,0,1,0-57.71-57.7A57.71,57.71,0,0,0,219.05,248" fill="#bfe3e9"/>
        <path d="M219.05,238.35A48.34,48.34,0,1,0,170.71,190a48.35,48.35,0,0,0,48.34,48.34" fill="#fff"/>
        <path d="M219.05,144a46,46,0,1,0,46,46,46.1,46.1,0,0,0-46-46m0,96.68A50.64,50.64,0,1,1,269.68,190a50.69,50.69,0,0,1-50.63,50.63" fill="#029ab3"/>
        <rect x="216.75" y="146.89" width="4.59" height="8.96" fill="#029ab3"/>
        <rect x="233.89" y="154.25" width="8.96" height="4.58" transform="translate(-16.39 284.7) rotate(-60)" fill="#029ab3"/>
        <rect x="248.03" y="168.39" width="8.96" height="4.59" transform="translate(-51.51 149.06) rotate(-29.99)" fill="#029ab3"/>
        <rect x="253.61" y="187.71" width="8.96" height="4.59" fill="#029ab3"/>
        <rect x="250.22" y="204.85" width="4.59" height="8.96" transform="translate(-55.04 323.3) rotate(-59.99)" fill="#029ab3"/>
        <rect x="236.07" y="218.99" width="4.58" height="8.96" transform="translate(-79.81 149.15) rotate(-30)" fill="#029ab3"/>
        <rect x="217.16" y="224.17" width="4.59" height="8.96" fill="#029ab3"/>
        <polygon points="199.88 228.5 195.5 226.2 199.98 218.45 204.36 220.74 199.88 228.5" fill="#029ab3"/>
        <rect x="181.51" y="207.03" width="8.96" height="4.59" transform="translate(-79.73 120.99) rotate(-29.99)" fill="#029ab3"/>
        <rect x="176.33" y="187.71" width="8.96" height="4.59" fill="#029ab3"/>
        <rect x="183.29" y="166.21" width="4.59" height="8.96" transform="translate(-55.05 246) rotate(-59.98)" fill="#029ab3"/>
        <rect x="197.43" y="152.06" width="4.59" height="8.96" transform="translate(-51.51 120.78) rotate(-29.99)" fill="#029ab3"/>
        <path d="M219.05,189.6a.4.4,0,0,0-.3.14.38.38,0,0,0-.11.29.49.49,0,0,0,.14.28.36.36,0,0,0,.57,0,.41.41,0,0,0,0-.57.4.4,0,0,0-.26-.1m0,5.39h0a5,5,0,0,1-5-4.71,5,5,0,1,1,5,4.71" fill="#029ab3"/>
        <rect x="216.15" y="175.21" width="28.15" height="4.59" transform="translate(-55.57 230.75) rotate(-48.19)" fill="#029ab3"/>
        <rect x="206.35" y="168.29" width="4.59" height="24.79" transform="translate(-65.12 215.76) rotate(-48.19)" fill="#029ab3"/>
      </g>
      <path d="M333.88,195a45.65,45.65,0,1,1-45.64-45.36A45.5,45.5,0,0,1,333.88,195" fill="#e10000"/>
    </g>
    <rect x="45.07" y="264.06" width="370.29" height="72" fill="#029ab3"/>
    <line x1="45.07" y1="279.43" x2="415.36" y2="279.43" fill="none" stroke="#029ab3" stroke-miterlimit="10" stroke-width="1.6"/>
    <line x1="224.03" y1="337.23" x2="224.03" y2="514.31" fill="none" stroke="#029ab3" stroke-miterlimit="10" stroke-width="2.12"/>
    <line x1="224.03" y1="266.55" x2="224.03" y2="330.7" fill="none" stroke="#fff" stroke-miterlimit="10" stroke-width="1.95"/>
  </g>
</svg>
