<svg xmlns="http://www.w3.org/2000/svg" viewBox="0 0 260 400">
  <title>_</title>
  <g>
    <rect x="14.33" y="81.77" width="231.43" height="248.54" fill="#fff" stroke="#029ab3" stroke-miterlimit="10" stroke-width="1.06"/>
    <g>
      <g>
        <path d="M48.28,27.16s-3.66.61-1.79,3.45,5,.88,5,.88Z" fill="#c99357"/>
        <g>
          <path d="M71.89,57.49s6.31-1.36,8.16-.45,7,4.33,7.84,3.48c1.68-1.75,3.57-2.5,5.13-1.66s.16,3.82-1.46,5-4.22,3.57-5.31,2.87A24.27,24.27,0,0,0,80,64.58c-2.63-.62-8.84-2-8.84-2Z" fill="#bb894f"/>
          <path d="M55.55,59.48s-2,7.53,1.51,9.35a14.85,14.85,0,0,0,9.31.93c1.44-.34,7.28-1.77,7.28-1.77a13,13,0,0,0,5.28,2.06c2.46.15,3.43-1.16,5.7-.62A4.52,4.52,0,0,0,88.45,69c1.06-.44,4.14-2.61,3.54-4.76s-1.62-2.82-3.13-1.53-2.82,2.73-4,2.48-6.23-3.41-9.07-3.77S55.55,59.48,55.55,59.48Z" fill="#c99357"/>
          <path d="M61.89,36s2-2.08,5.11-5.18c2.61-2.56,8.1-6.8,9.52-9.65s1.94-4.32,2.24-3.23c.12.46.19,1,.3,1.22.19.48.84,0,1.09-.18,1-.59,3.59-1.86,4.14-.23.71,2.1-.49,3.36-2.67,4.07-1.52.49-2,.88-4.22,3.73-2.58,3.32-4.6,7.54-7,10.17a10.06,10.06,0,0,0-1.83,3.58Z" fill="#bb894f"/>
          <path d="M55.28,36.58s-3.47.72-2.24,7.36c.66,3.56,2.08,8.84,1.31,12.52S49.5,67.29,49.5,67.29s4.67,4.93,9.21.49c3.42-3.36,6.68,2.34,8.62-1.36a7.63,7.63,0,0,1,6.56-4.58c3.4-.25,5.18.34,6.69-3.93.36-1,1.31-5.14,1.31-5.14s-7-1.38-10.06-.36c-1.4-5.16-1.66-10-3.54-13.06s-5.58-5.71-6.94-5.23S55.28,36.58,55.28,36.58Z" fill="#ef9a9a"/>
          <path d="M60.65,30.6A20.35,20.35,0,0,0,62.24,35a1.73,1.73,0,0,1,0,1.61c-.47.84-1.46,1.67-3.68,1.89a7.23,7.23,0,0,1-4.66-.8,20.43,20.43,0,0,0,.49-6.61c-.09-1.06-.47-2.25.6-2.17l4.09.33A1.7,1.7,0,0,1,60.65,30.6Z" fill="#c99357"/>
          <path d="M48.22,28.9c2.7,4.59,7.93,6.52,11.67,4.31s4.59-7.71,1.88-12.3-7.93-6.52-11.68-4.31S45.51,24.31,48.22,28.9Z" fill="#c99357"/>
          <path d="M46.19,16.54c-.38.2-1.42-2.52-5.91-1.69-4,.73-3.81,3.3-4.29,5.9-.38,2-2.94,1.65-2.94,1.65a7.53,7.53,0,0,0,4.76,2.54c4.79.77,9.25-3,9.25-3Z" fill="#42312a"/>
          <path d="M46.86,14.57s-2.68-2-5.57,3.71c-2.33,4.58,1.64,8.25,4.05,8.06S46.86,14.57,46.86,14.57Z" fill="#ef9a9a"/>
          <path d="M48.7,30.22a2.57,2.57,0,0,1-.15-2.64c1.21.15,4.83-1,6.2-5a6.7,6.7,0,0,0,.13-4.73l5.65,1.36s1.7-6.09-6.36-5.93c-6.62-3.14-10.29,3.93-11,6.63C42.49,22.41,43.51,29.94,48.7,30.22Z" fill="#42312a"/>
          <path d="M59.89,19s1.44-2.07,2.92.38-.45,3.81-.45,3.81Z" fill="#c99357"/>
          <path d="M55.39,41.79c.38-.67,2.86-1.54,5.19-1.59,3.29-.07,6.85.78,8.73-.16,1.67-.83,7.11-5,8-6.38s.17-2.52.52-3.44c.3-.77.6-.46.94.39.27.68.33,1.84.87,1.51.37-.24.72-.64,1.63-1.36,1.48-1.17,3.42-1.43,3.4.72s-3,3.56-4.69,5-4.23,5-6.79,6.93-10.34,5.4-13.58,4.43C57.35,47.15,53.73,44.7,55.39,41.79Z" fill="#c99357"/>
        </g>
      </g>
      <path d="M60.59,27.39a4.42,4.42,0,0,1-3.32,2.51,2.15,2.15,0,0,0,3.14.19A1.82,1.82,0,0,0,60.59,27.39Z" fill="#ab753c"/>
      <path d="M58.15,23.43a.79.79,0,1,0-.07-1.22A.88.88,0,0,0,58.15,23.43Z" fill="#231f20"/>
      <path d="M52.76,27.51a.86.86,0,0,0,1.21.15.87.87,0,0,0-.08-1.22.86.86,0,0,0-1.21-.15A.87.87,0,0,0,52.76,27.51Z" fill="#231f20"/>
      <path d="M56.27,21.28a5.57,5.57,0,0,1,2.47-.94s-.81-.63-2.59.51C56.15,20.85,56,21.47,56.27,21.28Z" fill="#42312a"/>
      <path d="M58.59,25.7a1.46,1.46,0,0,1-.5,1.49,1.54,1.54,0,0,1-.79.28,1.73,1.73,0,0,1-.78-.16,2.72,2.72,0,0,0,1.34-.42A2.31,2.31,0,0,0,58.59,25.7Z" fill="#b17639"/>
    </g>
    <rect x="13.79" y="330.31" width="232.43" height="56.23" fill="#f0f5eb"/>
    <g>
      <g>
        <path d="M123.06,163.87A36.06,36.06,0,1,0,87,127.81a36.06,36.06,0,0,0,36.06,36.06" fill="#bfe3e9"/>
        <path d="M123.06,157.84a30.22,30.22,0,1,0-30.21-30.22,30.21,30.21,0,0,0,30.21,30.22" fill="#fff"/>
        <path d="M123.06,98.84a28.78,28.78,0,1,0,28.78,28.78,28.81,28.81,0,0,0-28.78-28.78m0,60.43a31.65,31.65,0,1,1,31.65-31.65,31.69,31.69,0,0,1-31.65,31.65" fill="#029ab3"/>
        <rect x="121.63" y="100.67" width="2.87" height="5.6" fill="#029ab3"/>
        <rect x="132.34" y="105.28" width="5.6" height="2.87" transform="translate(-24.84 170.38) rotate(-60)" fill="#029ab3"/>
        <rect x="141.18" y="114.11" width="5.6" height="2.87" transform="translate(-38.48 87.43) rotate(-29.99)" fill="#029ab3"/>
        <rect x="144.66" y="126.19" width="5.6" height="2.87" fill="#029ab3"/>
        <rect x="142.54" y="136.9" width="2.87" height="5.6" transform="translate(-49 194.51) rotate(-59.99)" fill="#029ab3"/>
        <rect x="133.7" y="145.74" width="2.87" height="5.6" transform="translate(-56.17 87.48) rotate(-30)" fill="#029ab3"/>
        <rect x="121.88" y="148.97" width="2.87" height="5.6" fill="#029ab3"/>
        <polygon points="111.08 151.68 108.34 150.25 111.14 145.4 113.88 146.83 111.08 151.68" fill="#029ab3"/>
        <rect x="99.6" y="138.27" width="5.6" height="2.87" transform="translate(-56.12 69.89) rotate(-29.99)" fill="#029ab3"/>
        <rect x="96.36" y="126.19" width="5.6" height="2.87" fill="#029ab3"/>
        <rect x="100.71" y="112.75" width="2.87" height="5.6" transform="translate(-49 146.2) rotate(-59.98)" fill="#029ab3"/>
        <rect x="109.55" y="103.91" width="2.87" height="5.6" transform="translate(-38.48 69.76) rotate(-29.99)" fill="#029ab3"/>
        <path d="M123.06,127.37a.27.27,0,0,0-.19.09.28.28,0,0,0-.06.18.26.26,0,0,0,.08.17.23.23,0,0,0,.36,0,.26.26,0,0,0,0-.36.27.27,0,0,0-.17-.06m0,3.37h0A3.13,3.13,0,0,1,121,130a3.13,3.13,0,0,1-.24-4.41,3.12,3.12,0,1,1,2.32,5.2" fill="#029ab3"/>
        <rect x="121.25" y="118.38" width="17.59" height="2.87" transform="translate(-45.95 136.86) rotate(-48.19)" fill="#029ab3"/>
        <rect x="115.12" y="114.05" width="2.87" height="15.49" transform="translate(-51.93 127.49) rotate(-48.19)" fill="#029ab3"/>
      </g>
      <path d="M194.83,130.74a28.53,28.53,0,1,1-28.53-28.35,28.44,28.44,0,0,1,28.53,28.35" fill="#e10000"/>
    </g>
    <rect x="14.33" y="173.91" width="231.43" height="45" fill="#029ab3"/>
    <line x1="14.33" y1="183.51" x2="245.76" y2="183.51" fill="none" stroke="#029ab3" stroke-miterlimit="10"/>
    <line x1="126.18" y1="219.64" x2="126.18" y2="330.31" fill="none" stroke="#029ab3" stroke-miterlimit="10" stroke-width="1.33"/>
    <line x1="126.18" y1="175.46" x2="126.18" y2="215.55" fill="none" stroke="#fff" stroke-miterlimit="10" stroke-width="1.22"/>
  </g>
</svg>
