<svg xmlns="http://www.w3.org/2000/svg" viewBox="0 0 280 325">
  <title>_</title>
  <g>
    <g>
      <g>
        <path d="M26.63,194.54l.06-1.11c.12-2.06.28-4.27,1.52-6a7.59,7.59,0,0,1,4.39-2.73,8.66,8.66,0,0,1,9.19,3.4c3.12,4.54.85,11.28-1.32,15.71-1.39,2.84-3.23,5.77-6.18,6.92-3.24,1.26-6.61.05-9.21-2-3-2.36-4.57-5.88-7.42-8.35a2.93,2.93,0,0,0-1.77-.87c-.59,0-1.2.33-1.75.1a1.56,1.56,0,0,1-.74-1.51,5,5,0,0,1,3.73-4.78,3.78,3.78,0,0,1,2.57,0c1.38.59,2,2.12,2.79,3.4.42.7,2.61,4.13,3.7,3.37.45-.31.22-1.67.24-2.14C26.49,196.81,26.56,195.68,26.63,194.54Z" fill="#fddbbb"/>
        <path d="M87.37,200.64a2.21,2.21,0,0,1,.71.24.86.86,0,0,1,.42.62.85.85,0,0,1-.41.74c-.86.6-2.21.5-3.22.5a11.17,11.17,0,0,1,3.72.57.93.93,0,0,1,.63.59c.53,1.76-3.77,1.09-4.51,1l1.67.28a7.7,7.7,0,0,1,1.42.33c.45.18.76.63.4,1.08a1.44,1.44,0,0,1-.82.42,7.45,7.45,0,0,1-3.25-.14h0a3.67,3.67,0,0,1,1.8.85c.19.2.33.54.09.76a2,2,0,0,1-1.5.34,5.71,5.71,0,0,1-1.35-.29,10.75,10.75,0,0,0-1.27-.33c-2.59-.55-5.16-.6-7.77-1a25.78,25.78,0,0,1-7.31-2l-.08,0A21.66,21.66,0,0,1,55.59,192c-.69-2.3-1.07-5.41,1-7.15a4.94,4.94,0,0,1,4.17-1.17,4.36,4.36,0,0,1,2.54,1.66,9.15,9.15,0,0,1,1.28,2.36c1.23,3.22,2.54,6.71,4.91,9.27a22.75,22.75,0,0,0,3.7,3.3A8.36,8.36,0,0,0,77.05,202c1.58.14,2.92-1.37,3.75-2.53a6,6,0,0,1,1.8-1.95,1,1,0,0,1,1.21.19,1.67,1.67,0,0,1,.09,1.48,3,3,0,0,1-.92,1.45c.09-.07.39-.05.5-.06l.58-.05a11.23,11.23,0,0,1,1.16,0,11.69,11.69,0,0,1,2.13.16Z" fill="#fddbbb"/>
        <path d="M44.43,171.67a23.23,23.23,0,0,0-2.36,0,16.24,16.24,0,0,0-10.46,4.57c-2.93,2.87-3.45,6.24-5.14,9.73a11.16,11.16,0,0,0,0,9.24,14.9,14.9,0,0,0,8.74,8.32c4.67,1.64,9.87.83,14.51-.88,3.35-1.25,6.61-2.72,9.87-4.19a45.3,45.3,0,0,0,9.81-5.89c1.59-1.29,3.2-2.6,3.08-4.64a6.59,6.59,0,0,0-.89-2.61c-.41-.8-.61-1.68-1-2.5a11.55,11.55,0,0,0-3.82-4.33c-3.88-2.62-8.78-4-13.27-5.18A49.31,49.31,0,0,0,44.43,171.67Z" fill="#ffe5cd"/>
        <path d="M26.28,173.34a18.32,18.32,0,0,0-7.51,8A16.51,16.51,0,0,0,18,193.48a26.82,26.82,0,0,0,2.8,5.46,24,24,0,0,0,4.46,4.87,11.57,11.57,0,0,0,3.08,2.07,10.6,10.6,0,0,0,3.25.64,21.26,21.26,0,0,0,7.7-.79c.35-.11,3.27-1,3.18-1.35a20.69,20.69,0,0,1-.65-4.43c-.05-1.45-.25-2.88-.23-4.34a69.37,69.37,0,0,1,3.33-20.41c.19-.6.4-1.21.61-1.82.1-.27.7-1.41.52-1.63a.72.72,0,0,0-.3-.16,28.55,28.55,0,0,0-7.54-1,25.63,25.63,0,0,0-7.4.81A19.27,19.27,0,0,0,26.28,173.34Z" fill="#fff"/>
        <path d="M21.34,188.26l.53-1.08c1-2,2.06-4.16,4-5.37a8.17,8.17,0,0,1,5.53-.89,9.38,9.38,0,0,1,7.75,7.24c1.21,5.84-3.87,11.62-7.89,15.13-2.58,2.26-6.23,4.69-9.66,4.6-2.78-.07-5.32-1.62-7.38-3.48-1.74-1.57-2.66-3.65-4-5.57-.93-1.35-1.86-4.53-3.93-3.56a12,12,0,0,0-1.68,1.17,2.3,2.3,0,0,1-1.92.46,1.88,1.88,0,0,1-1.19-1.74A4.27,4.27,0,0,1,2.13,193,13.51,13.51,0,0,1,6,188.37c1.38-1.06,3-2.19,4.73-1.29,1.38.7,1,1.69,1.18,2.9a2.9,2.9,0,0,0,.61,1.18,17.27,17.27,0,0,0,2,2.08c.77.76,1.73,1.56,2.77,1.33s1.51-1.19,1.93-2.06Q20.31,190.38,21.34,188.26Z" fill="#ffe5cd"/>
      </g>
      <g>
        <path d="M104.33,174.05a18.82,18.82,0,0,1-2.63,5.73c-.71,1-1.33,2.12-2.1,3.11a23.25,23.25,0,0,0-2.75,4,10.88,10.88,0,0,1-.64,1.44,6.33,6.33,0,0,1-.49.56C90,196,80.07,196.68,72.48,192.48c-2-1.08-3.33-3.3-4.49-5.14a27.07,27.07,0,0,1-3.06-8.25,35.29,35.29,0,0,0-1.27-5c-.35-1-.92-2-1.36-3-1.43-3.27-.24-7,.69-10.21A28,28,0,0,1,64.7,157a10.67,10.67,0,0,1,2.74-3.11,21.52,21.52,0,0,1,5.46-4.05c8.67-3.89,19.72-2.76,26.5,4.25.31.32.61.65.89,1a20.56,20.56,0,0,1,4.56,13.37A27.84,27.84,0,0,1,104.33,174.05Z" fill="#ffe5cd"/>
        <path d="M90.81,179.79a1.13,1.13,0,0,0-.41,0c-1,.17-2.2,1.4-2,2.35a.6.6,0,0,0,.31.4c1,.46,3.13-2.16,2.22-2.69A.49.49,0,0,0,90.81,179.79Z" fill="#231f20"/>
        <g>
          <path d="M95.28,188.35a3.19,3.19,0,0,1-.61-.08c-.16,0-.42-.21-.59-.2-.4,0,0,.8.09,1a1.69,1.69,0,0,0,.86.62h0c.22-.25.44-.51.65-.77l.38-.48A2,2,0,0,0,95.28,188.35Z" fill="#fab77d"/>
          <path d="M96.8,186.3a2,2,0,0,0-.51.58.78.78,0,0,0-.09.61c.13.23.28.14.41,0s.15-.4.24-.59c.17-.34.35-.67.55-1A2.14,2.14,0,0,0,96.8,186.3Z" fill="#fdd4af"/>
          <path d="M96.05,189.08c-.66.19-2.23,0-2.21-1a1.38,1.38,0,0,1,.46-.89,3.28,3.28,0,0,1,1.28-.79.64.64,0,0,1,.41,0c.3.1.34.5.55.73a3.83,3.83,0,0,0,.46.33C97.68,188,96.54,188.94,96.05,189.08Z" fill="#ffe5cd"/>
        </g>
        <path d="M87.85,192.15a3.22,3.22,0,0,1-.81-1.56,11.08,11.08,0,0,0-1.15,1,3,3,0,0,0-.69,1.12c-.57,1.82,2,1.4,3,1a8.9,8.9,0,0,0,1.78-.94,2.57,2.57,0,0,1-1.84-.35A3.47,3.47,0,0,1,87.85,192.15Z" fill="#fab77d"/>
        <path d="M66.65,153.93A19.15,19.15,0,0,0,62.5,160,15.2,15.2,0,0,0,61,167.15c0,1.16,0,2.32.14,3.48.07.66.35,4-.87,2.75-.11-.11-.32-.16-.41,0a.24.24,0,0,0,0,.12,1.62,1.62,0,0,0,.49,1.37,3,3,0,0,0,1.28.62c-1-.31-1.17,1-.56,1.51a4.33,4.33,0,0,0,2.83.57,9.53,9.53,0,0,0,3.14-.86,32.48,32.48,0,0,0,3.14-1.38,29,29,0,0,1,3-1.56c1.39-.55,2.79-1.13,4.17-1.71s2.39-1,4.23-1.8c3-1.3,6.82-3,9.84-4.34,1.1-.49,2.21-1.16,3.37-1.56.12,0,1.67,1,1.92,1.14a4.5,4.5,0,0,0,2.52.13,4.24,4.24,0,0,0,1.6,4.06,2.39,2.39,0,0,0,1.2.52,1.37,1.37,0,0,0,1.2-.43,5.51,5.51,0,0,1-1.52-.84,2.83,2.83,0,0,1-.32-3.79c.18,2.32,2.58,5,5,3.64a3.09,3.09,0,0,0,1.13-1c.28-.52,0-.81,0-1.25a1,1,0,0,1-1.34.56,2.34,2.34,0,0,1-1.06-1.25c-.82-1.81-.61-3.77-1.21-5.63l-.05-.15a16.64,16.64,0,0,0-4.74-7.39,35.29,35.29,0,0,0-6.34-4.48,23.17,23.17,0,0,0-7.17-2,18.69,18.69,0,0,0-10.3,1.27C71.88,149,69.37,151.36,66.65,153.93Z" fill="#f9d153"/>
        <path d="M65.14,176.44a2.22,2.22,0,0,0,.8.63c1.11.48,2.39-.12,3.5-.27a4.11,4.11,0,0,0,3-1.47c1.65-2.47-.72-7.15-3.85-6.64A4.39,4.39,0,0,0,66.29,170a6.31,6.31,0,0,0-1.81,4,4.17,4.17,0,0,0,.25,1.79A2.47,2.47,0,0,0,65.14,176.44Z" fill="#ffe5cd"/>
        <path d="M73.32,144.54a2,2,0,0,0-.1,1.3,4.13,4.13,0,0,0,3.25,3,6,6,0,0,0,4.42-1,9.86,9.86,0,0,1-4.55-.23,5.38,5.38,0,0,1-1.9-1.16C74.19,146.15,73.12,144.94,73.32,144.54Z" fill="#f9d153"/>
      </g>
      <path d="M87.64,201.89a2.17,2.17,0,0,1,.75.31.9.9,0,0,1,.41.7,1,1,0,0,1-.5.78c-1,.6-2.44.39-3.54.33a12,12,0,0,1,4,.87,1,1,0,0,1,.63.68c.45,1.95-4.17.94-5,.79l1.79.42a8,8,0,0,1,1.51.46c.48.22.79.73.35,1.19a1.59,1.59,0,0,1-.92.41,8.08,8.08,0,0,1-3.51-.37h0a4,4,0,0,1,1.89,1.05.57.57,0,0,1,0,.83,2.1,2.1,0,0,1-1.66.27,6.47,6.47,0,0,1-1.43-.4,10.46,10.46,0,0,0-1.37-.45,56,56,0,0,0-5.72-1.23,44.75,44.75,0,0,1-5.9-1.21,39.2,39.2,0,0,1-6.44-2.63,53.09,53.09,0,0,1-13.25-10.46c-2-2.33-3.24-4.14-1.91-7.44a4.89,4.89,0,0,1,4.32-3c2.08-.06,3.93,1.24,5.48,2.61,2.58,2.27,4.57,5,7,7.42a95.78,95.78,0,0,0,7.49,6.76,9,9,0,0,0,4.09,2.07c1.7.26,3.28-1.3,4.28-2.5a6.43,6.43,0,0,1,2.11-2,1.09,1.09,0,0,1,1.29.29,1.81,1.81,0,0,1,0,1.62,3.36,3.36,0,0,1-1.11,1.51,1.45,1.45,0,0,1,.55,0l.63,0c.43,0,.85,0,1.27.05a12.51,12.51,0,0,1,2.29.32Z" fill="#ffe5cd"/>
    </g>
    <g>
      <g>
        <path d="M167.68,175.46s-11.2,12.15-6.28,19.93c3.82,6.05,13.52,9.88,28.06,9.12,6.85-.36,45.16-12.72,50-13.66,7.24-1.39,11.05.63,14.09,3.67s6.16,7,12,7.26,12.54-.33,11.28-4.37-6-1.45-7.4-4.24-5.14-7.34-8.43-10.88-2.72-11.39-7.19-12.15-11.55,3.54-15.09,4.05S215.45,177,215.45,177Z" fill="#efb47f"/>
        <path d="M157.79,181.64s-11.2,12.15-6.28,19.93c3.82,6.05,13.52,9.88,28.06,9.12,6.85-.35,45.16-12.72,50-13.66,7.24-1.39,11,.64,14.09,3.67s6.16,7,12,7.26,12.54-.33,11.28-4.37-6-1.45-7.4-4.24-5.14-7.34-8.43-10.88-2.72-11.39-7.19-12.15-11.55,3.54-15.09,4.05-23.29,2.78-23.29,2.78Z" fill="#ffcd9c"/>
        <path d="M226.81,135.79s9.32,14.56,7.93,25c-2.06,15.42-12,17-26.19,22.28-14,5.2-29,12.52-29,12.52s-13.35,1.54-21.78-13.91c21.78-25.5,37-32.65,37-32.65Z" fill="#42312a"/>
        <g>
          <g>
            <path d="M176.92,91.5c-1.73-8.84-2.4-15.92-5.79-24.59.79-5,11.93-16.31,11.93-16.31l3.6,11.12s1.47,6.58,12.08,18.87C195.85,86.72,182.92,88.28,176.92,91.5Z" fill="#efb47f"/>
            <path d="M186,46.19c-1.14,14.91-14.73,26-21.46,25.52-6.45-.5-18.49-13.57-17.36-28.48S158,16.9,168.68,17.72,187.17,31.28,186,46.19Z" fill="#ffcd9c"/>
          </g>
          <path d="M186.66,61.72C180,54,184.11,42.77,183.29,40.15s-3.19-5.37-5.23-4.87-4.76,5.25-4.76,5.25a41.12,41.12,0,0,1-9.9-5.91c-5-4-13.58-2.39-13.58-2.39s-7.74-14.43,15.48-21c10.61-3,18.72,0,23.65,6.67S194.73,39.33,192.6,45C189.75,52.52,187.63,56.7,186.66,61.72Z" fill="#824820"/>
          <path d="M165.28,30.09l8,10.44s-26.2,12.19-35.17-2.16c1.89-11.1,12.22-17.85,12.22-17.85Z" fill="#824820"/>
          <path d="M188.13,29.45s-6.4,0-7.17-8.46c-.45-5,5.44-9.19,5.44-9.19Z" fill="#745684"/>
          <path d="M185,14.34c-.29-5.3,6.22-15.83,18-11,17.41,7.2,8.45,30.45,13.48,34.12a11.54,11.54,0,0,0,14.35-.14s-3.69,16-21.75,12.83C190.88,47,185.77,28.28,185,14.34Z" fill="#824820"/>
        </g>
        <path d="M110.56,141.8a32.51,32.51,0,0,1,5.4-6.75,35.41,35.41,0,0,0-4.45-2.22c.52-1.39,1.59-2.7,3.39-2.49,4.83.55,6.84,2.55,10.32,1,8.53-3.87,17.23-13.68,25.61-21.08,3.86-3.41,16.38-18.75,16.94-25.22,6.12-.21,16.4,3.64,21.44,6.73-3.84,12-23.18,28-31.15,31.21-17.61,7.07-27.65,17.92-29.41,18.74-1.93.9-6.44,9.37-11.31,10.38C107.75,154.07,108.45,145.79,110.56,141.8Z" fill="#f1bb8c"/>
        <path d="M189.21,75.63c9,3.11,6.35,12.4,1.93,20.68-6.28,11.77-19.09,16-19.09,16s-10.22-1.79-14-14.36c4.86-4.77,6.86-8,11-15.59C174.42,72.52,180,72.45,189.21,75.63Z" fill="#745684"/>
        <path d="M168.92,97.27c1-9.71,1.51-11.29,5.83-23.18,11.11-3.11,13.86-7.71,13.86-7.71s14.12,9.7,22.34,29.78c11.18,27.28,18.83,45.52,18.83,45.52s-23.15,17-39.75,9.66c-3.29-12.68-7.24-27.84-10.46-31.12C173.45,114,167,115.34,168.92,97.27Z" fill="#684b75"/>
        <path d="M124.93,146.6c.87-2.1,5-5.14,6.93-7.4-.6-.3-3.4-1.21-4-3.41-.83-3.31.53-2.18,3-1.42,4.65,1.44,7,0,10.28-1.91,8.14-4.65,16.46-13.52,24.11-21.67,3.53-3.75,14.56-20.19,14.51-26.68,6.08-.78,11.45,7,17.13,8.65-.51,12.55-19.22,28.59-26.05,33.79-15.1,11.51-24.92,13.93-26.6,14.91-1.83,1.07-8.14,13.79-12.89,15.25C122,159.59,122.35,152.79,124.93,146.6Z" fill="#ffcd9c"/>
        <path d="M192.57,76.26c9.25,2.31,9.68,15.62,6,24.25-5.23,12.28-17.63,17.64-17.63,17.64s-10.33-.89-15.18-13.08c4.42-5.18,6.14-8.57,9.59-16.49C179.83,78.27,183.11,73.89,192.57,76.26Z" fill="#745684"/>
      </g>
      <path d="M156.51,49.18a2,2,0,1,1-2.58-1.56A2.15,2.15,0,0,1,156.51,49.18Z" fill="#605f6d"/>
      <path d="M155.47,65.9c.1.08.25,0,.37,0a8.09,8.09,0,0,0,5.74-2.7.75.75,0,0,0-1.17-.94A6.22,6.22,0,0,1,154,64.18,21.52,21.52,0,0,0,155.47,65.9Z" fill="#ed6e5f"/>
      <ellipse cx="151.06" cy="58.03" rx="3.31" ry="2.82" fill="#ffcd9c"/>
    </g>
    <g>
      <g>
        <path d="M117.59,246.76a31.24,31.24,0,0,0-12.52.18c-5.78,1.36-6.72,3.87-5.55,6.19s10.56,5.31,17.87,3C124.53,253.86,117.59,246.76,117.59,246.76Z" fill="#c99357"/>
        <path d="M165,254.7s-20,3-25.18,3.71c-8-2.58-13.58-8.8-22.23-11.65-2.94,2-3,5,.23,8.07,3.07,3,13.29,14.23,21.37,15.25,2.33.3,28.51-1.95,28.51-1.95Z" fill="#c99357"/>
        <g>
          <rect x="91.82" y="249.52" width="16.09" height="16.09" rx="4.04" ry="4.04" fill="#f2f1df"/>
          <rect x="99.1" y="249.52" width="16.09" height="16.09" rx="4.04" ry="4.04" fill="#fff"/>
        </g>
        <path d="M178.86,287c11.35-1.57,14.12,7.58,23.87,6.94,1.85-.13,6.51-6.11,10.07-4.88,1.2.41,2.23,2.73,3.26,4,2.49,3.05,4.56,3.55,6.71,4.95a2.37,2.37,0,0,1-.92,4.31c-7.92,1.5-50.18,2.89-52.95,2.29C160,303.23,155.8,288.59,178.86,287Z" fill="#c99357"/>
        <path d="M157.43,258.44c-.43-2.87-.78-5.85-1-8.92s-.43-6.22-.49-9.45c12.5-15.31,15.84-18.39,15.84-3.67,0,4.4,1.83,8.25,4.65,11.75Z" fill="#c99357"/>
        <path d="M195.5,302.32C184,311.17,170.79,323,162.9,318.46c-2.29-1.3-4.42-3.54-4.36-8.17,0-3.44,10-14.54,11.38-16.1C176.4,273.63,208,293.8,195.5,302.32Z" fill="#c99357"/>
        <path d="M201.94,269.36h0c-10.57,7.5-25,17.58-34.77,21.13a18.07,18.07,0,0,0,2.75,3.7h0a27.7,27.7,0,0,1,7.51-3.21c4.87-1.24,10.27.83,13.49,3.93a18.21,18.21,0,0,1,4.59,7.41C213.9,295.89,212,275.87,201.94,269.36Z" fill="#fff"/>
        <path d="M201.94,269.36h0c-10.57,7.5-25,17.58-34.77,21.13a21.71,21.71,0,0,0,1.8,2.59c9.71-4,23-12.28,36.07-21A14.72,14.72,0,0,0,201.94,269.36Z" fill="#ffd33a"/>
        <path d="M173.32,303.3c11.35-1.56,16.33,5.53,26.08,4.88,1.85-.12,6.48-5.38,10-4.15,1.21.41,2.23,2.73,3.26,4,2.36,2.88,5,3.35,7.32,4.73a2.37,2.37,0,0,1-.65,4.35c-7.67,1.42-51.06,3.07-53.83,2.47C156.63,318.17,150.26,304.86,173.32,303.3Z" fill="#c99357"/>
        <path d="M201.94,269.36c-14.29,11.55-20.64,16.37-35.84,22-2.47-6.08-11.2-17.15-11.91-28.84a11.58,11.58,0,0,1,6.19-10.77c7.12-3.84,11.07-6,13.24-7.17a3,3,0,0,1,4,1C180.08,249.15,194.32,261.3,201.94,269.36Z" fill="#2caf99"/>
        <path d="M164.28,261.29c8.5,3.54,5.49,19.22,1.91,33.52-3.09,6.06-12.67,13.17-18.06,16.1-4.21,3.81-16.69,1.74-18.83-2-1.74-2.46,2.39-4.71,13.27-2.41,1.68.35,8.82-12.24,11.65-16C156.94,288,144.69,256.07,164.28,261.29Z" fill="#c99357"/>
        <path d="M164.47,254.09c5.7,1.71,7.13,9,6.87,17.79-6.78,1.19-15,1.81-18.64-1.51C151.1,261.86,153,252.26,164.47,254.09Z" fill="#2caf99"/>
        <path d="M178.36,218.09c1.24,7.58-3.14,16.54-13.49,24.77-6,4.76-9.9,7.18-17,7.18-7.7,0-13.91-12.49-14.65-16.24-2.73-13.84,3.75-34,17.22-36.24S176.07,204.16,178.36,218.09Z" fill="#c99357"/>
        <path d="M169,200.29c-25.56-17.54-35.07,3.9-37,4.71-5.11,2.13-4.13-3.85-4.13-3.85-5.54,3.28-2.43,12.46,4.13,12.46s9-1.63,13.86.66,4.81,11.16,7.11,16.41a13.32,13.32,0,0,0,.63,1.25s2.12-5.37,4.6-7.52,7.62,3.17,5.76,7.11l0,.08c-2.4,5.27,3.54,10.67,8.79,8.23l.65-.32C174.4,232,191.08,214.55,169,200.29Z" fill="#3e3431"/>
        <path d="M166.1,201.19s6.73-5.06,13.87-2a28.12,28.12,0,0,0-11.08,4.57Z" fill="#3e3431"/>
        <path d="M168.09,206.85s2.73-8-2.37-13.81a28.1,28.1,0,0,1-.95,11.94Z" fill="#3e3431"/>
        <path d="M113.82,248.14s-5.44,3.87-6.89,5.5.08,4.11,2.69,2.64l3.65-2.09c5.37.47,6.41-3.29,6.41-3.29Z" fill="#c99357"/>
      </g>
      <path d="M137,241.48a6.22,6.22,0,0,0,5.62-2,.75.75,0,0,1,1-.11.76.76,0,0,1,.11,1.06,8,8,0,0,1-5.73,2.7" fill="#b17639"/>
      <path d="M136.41,226.61a2.56,2.56,0,0,0,1.54,2.68c.9.19,1.67-.69,1.72-2a2.57,2.57,0,0,0-1.55-2.67C137.22,224.45,136.45,225.33,136.41,226.61Z" fill="#3e3431"/>
      <ellipse cx="133.52" cy="233.21" rx="3.31" ry="2.82" fill="#c99357"/>
    </g>
  </g>
</svg>
