<svg xmlns="http://www.w3.org/2000/svg" viewBox="0 0 90 70">
  <title>_</title>
  <g>
    <path d="M45.86,16a11,11,0,0,0-.12-11.11L42.5,6.15A8.24,8.24,0,0,1,45.86,16Zm0,0" fill="#775039"/>
    <path d="M49.21,10.37a7.45,7.45,0,0,1,.56-3.52,8.83,8.83,0,0,1,3-3.69,12.68,12.68,0,0,1,4.43-1.95,16.29,16.29,0,0,1,8,.1A13.3,13.3,0,0,1,61.72,7a13.6,13.6,0,0,1-5.91,3.28,13.9,13.9,0,0,1-6.6.09Zm0,0" fill="#a5c400"/>
    <path d="M26.64,10.74a24.31,24.31,0,0,0-8.44,1.69,22.35,22.35,0,0,0-9.51,7.3A23.37,23.37,0,0,0,4.37,30.2,29.42,29.42,0,0,0,8.22,49.1a42.36,42.36,0,0,0,17,16.07c4.37,2.32,9.4,4,14.49,3.67A18.18,18.18,0,0,0,46,67.25a18.23,18.23,0,0,0,6.21,1.59c5.09.38,10.1-1.35,14.47-3.67A42.33,42.33,0,0,0,83.69,49.1a29.42,29.42,0,0,0,3.86-18.9,23.37,23.37,0,0,0-4.32-10.47,22.38,22.38,0,0,0-9.52-7.3,26.53,26.53,0,0,0-17-.56,27.21,27.21,0,0,0-10.71,6,27,27,0,0,0-10.7-6,28,28,0,0,0-8.61-1.13Zm0,0" fill="#e10000"/>
  </g>
</svg>
