<svg xmlns="http://www.w3.org/2000/svg" viewBox="0 0 150 155">
  <title>_</title>
  <g>
    <path d="M54.12,77.44l2,3c1.56-10.36,3.28-22.74,5.29-33.23C64.89,29.21,69.91.82,83.23,6c8.71,3.35,20.61,30.58,23,39.46,6.16,19.79-7,29.73-20.38,42.09-5.93,6-14,15.73-23.57,12.75C52.28,97,53.17,85.65,54.12,77.44Z" fill="#f9a31a"/>
    <path d="M60.2,79.44c4.79-9.32,10.38-20.5,15.64-29.8,9-16,22.87-41.27,33.84-32.15,7.18,6,9.76,35.56,9.2,44.75C118.4,83,102.71,88.16,86.12,95.61c-7.53,3.77-18.31,10.42-26.41,4.55C51.25,93.88,60.2,79.44,60.2,79.44Z" fill="#ffca07"/>
    <path d="M69.57,80.81c13.88,6.73,20.85,21,15.56,32s-20.84,14.31-34.73,7.59-20.85-21-15.56-32S55.68,74.08,69.57,80.81Z" fill="#231f20"/>
    <path d="M43.89,68.61C54,73.52,58.06,86,53,96.53s-17.43,15.06-27.54,10.16S11.26,89.3,16.35,78.78,33.78,63.72,43.89,68.61Z" fill="#231f20"/>
    <path d="M4.48,65.72C3.75,59,9.8,59.47,12.32,60.49c4.45,2,8.46,6.82,12.36,11.26l-.23,2.3-4.11-4.57c-1.43-1.61-5.1-6-8.81-7.66-2.65-1.16-5.58-.71-5.61,3C8.15,66.15,4.77,68.37,4.48,65.72Z" fill="#231f20"/>
    <path d="M15.54,54.55c3.31-5.84,8-1.94,9.4.35,2.44,4.24,2.88,10.48,3.44,16.37L26.85,73c-.16-1.41-.41-3.68-.66-6.11-.22-2.14-.6-7.88-2.66-11.37-1.48-2.49-4.11-3.84-6.28-.89C18.26,57.05,14.22,56.87,15.54,54.55Z" fill="#231f20"/>
    <path d="M106.65,90.54c20.49,9.94,36,33.55,29.85,46.22s-36.87,15.09-57.36,5.16-23-28.45-16.85-41.12S86.16,80.61,106.65,90.54Z" fill="#231f20"/>
    <g>
      <path d="M131.17,112.15,114,147.64a51.9,51.9,0,0,0,8.6-1.58l12.74-26.29A48,48,0,0,0,131.17,112.15Z" fill="#ffca07"/>
      <path d="M121.14,100.5,98.42,147.38a69.38,69.38,0,0,0,7.56.56l20.4-42.08A67.75,67.75,0,0,0,121.14,100.5Z" fill="#ffca07"/>
      <path d="M109.56,92.05l-25.21,52a63,63,0,0,0,6.86,2L115.53,95.9A60.65,60.65,0,0,0,109.56,92.05Z" fill="#ffca07"/>
      <path d="M96.4,86.86,71.86,137.51a42.58,42.58,0,0,0,6,3.74L103.2,89A45.39,45.39,0,0,0,96.4,86.86Z" fill="#ffca07"/>
      <path d="M80.83,86.64l-18.9,39a29.84,29.84,0,0,0,4.51,6.86L89,85.9A34.07,34.07,0,0,0,80.83,86.64Z" fill="#ffca07"/>
      <path d="M62.16,100.71A29.47,29.47,0,0,0,59.26,115L71,90.74A25.08,25.08,0,0,0,62.16,100.71Z" fill="#ffca07"/>
    </g>
  </g>
</svg>
