<svg xmlns="http://www.w3.org/2000/svg" viewBox="0 0 185 340">
  <title>_</title>
  <g>
    <g>
      <g>
        <path d="M117.21,87.26l-3.34,1.26c9.57,3.76,21,8.12,30.63,12.35,16.49,7.25,42.55,18.28,34.72,29.89-5.12,7.6-33.77,13-42.79,13.38-20.29,1.56-26.9-13.25-35.81-28.72-4.42-7-12-16.86-7-25.34C98.89,81.2,109.57,84.55,117.21,87.26Z" fill="#ffd266"/>
        <path d="M93.22,88.24c.48,7.07,4.77,15.54,8.56,21.24,10.19,19.38,19.14,34,40.41,33.34,5.51,0,6.33-.44,16.14-2.43-5.86,9.09-12.81,12.85-20.23,13.14-20.29,1.56-30.78-20.72-39.56-37.89-4.42-7-13.78-15.48-8.84-24a11.81,11.81,0,0,1,3.15-3.55Z" fill="#ffca07"/>
      </g>
      <g>
        <path d="M94.08,64.92l-1,3.43C88.57,59.11,83.32,48,78.34,38.8,69.8,22.93,56.75-2.17,45.79,6.56c-7.16,5.7-10.3,34.69-9.94,43.72C35.9,70.62,51.19,76,67.32,83.69c7.31,3.86,17.75,10.6,25.82,5C101.56,82.71,97.38,72.33,94.08,64.92Z" fill="#ffd266"/>
        <path d="M95,88.91c-7.08.09-15.87-3.52-21.85-6.84C53,73.45,37.75,65.69,36.71,44.43c-.48-5.49-.07-6.34,1.14-16.28-8.59,6.56-11.79,13.79-11.5,21.21.06,20.34,23.1,29,40.92,36.43,7.31,3.85,16.51,12.51,24.58,6.91a11.68,11.68,0,0,0,3.29-3.43C95.09,89.15,95,89,95,88.91Z" fill="#ffca07"/>
      </g>
      <ellipse cx="94.78" cy="87.44" rx="27.42" ry="21.56" transform="translate(-33.76 97.74) rotate(-47.27)" fill="#231f20"/>
      <ellipse cx="114.14" cy="67.33" rx="19.96" ry="20.76" transform="translate(-12.77 105.49) rotate(-47.27)" fill="#231f20"/>
      <path d="M152,66.39c3.71-5.46-1.74-7.86-4.39-8.13-4.78-.32-10.47,2-15.9,4.07l-.85,2.1,5.66-2.07c2-.74,7.2-2.9,11.16-2.59,2.84.22,5.17,1.95,3.51,5.14C148.65,65.08,150.56,68.55,152,66.39Z" fill="#231f20"/>
      <path d="M112.66,29.67c5.15-4.13,8,1.11,8.46,3.73.69,4.74-1.18,10.59-2.8,16.17l-2,1c.37-1.34,1-3.51,1.62-5.81.58-2,2.31-7.41,1.69-11.34-.44-2.8-2.35-5-5.4-3.08C114.24,32.93,110.62,31.3,112.66,29.67Z" fill="#231f20"/>
      <path d="M110.63,102.06a32.56,32.56,0,0,0,7.93-14.73,19.32,19.32,0,0,0,10.84-5.92c7.48-8.1,6.71-21-1.71-28.75l-.1-.09L76.52,107.86C85.32,115.58,100.48,113,110.63,102.06Z" fill="#121212"/>
      <path d="M90.92,134.12C75.76,150.54,49.17,158.37,39,149s-3.67-38.92,11.49-55.34,33.26-13.48,43.41-4.11S106.08,117.7,90.92,134.12Z" fill="#231f20"/>
      <g>
        <path d="M63.65,151,35.21,124.73a49.31,49.31,0,0,0-1,8.53l21.06,19.46A47.27,47.27,0,0,0,63.65,151Z" fill="#ffca07"/>
        <path d="M77.45,144.9,39.88,110.2a72,72,0,0,0-2.68,7l33.72,31.14A67.56,67.56,0,0,0,77.45,144.9Z" fill="#ffca07"/>
        <path d="M88.68,136.43,47,97.94a61,61,0,0,0-3.85,5.86l40.2,37.14A60.34,60.34,0,0,0,88.68,136.43Z" fill="#ffca07"/>
        <path d="M97.3,125.54,56.72,88.07a43.41,43.41,0,0,0-5.23,4.59l41.87,38.66A44.86,44.86,0,0,0,97.3,125.54Z" fill="#ffca07"/>
        <path d="M101.94,111,70.69,82.13A29.13,29.13,0,0,0,63,84.41l37.34,34.48A32.84,32.84,0,0,0,101.94,111Z" fill="#ffca07"/>
        <path d="M94.05,89.44a29,29,0,0,0-12.59-6.79l19.43,17.95A24.78,24.78,0,0,0,94.05,89.44Z" fill="#ffca07"/>
      </g>
    </g>
    <g>
      <path d="M33.62,157.55l-.68.74" fill="none" stroke="#5bbdce" stroke-miterlimit="10"/>
      <path d="M31.6,159.77a107.46,107.46,0,0,0,6.94,149.66A86,86,0,0,0,160,305.49a68.76,68.76,0,0,0-3.15-97.19,55,55,0,0,0-77.76,2.51,44,44,0,0,0,2,62.21,35.2,35.2,0,0,0,49.76-1.61,28.16,28.16,0,0,0-1.29-39.81,22.53,22.53,0,0,0-31.85,1,18,18,0,0,0,.83,25.48,14.43,14.43,0,0,0,18.92.7" fill="none" stroke="#5bbdce" stroke-miterlimit="10" stroke-dasharray="2 2"/>
      <path d="M118.27,258.15c.24-.22.48-.46.71-.7" fill="none" stroke="#5bbdce" stroke-miterlimit="10"/>
    </g>
  </g>
  <g>
    <polyline points="-69.5 185.92 -69.5 280.21 36.44 280.21 36.44 185.92" fill="none"/>
    <polyline points="35.44 186.9 35.44 279.22 -68.52 279.22 -68.52 186.9" fill="none"/>
  </g>
</svg>
