<svg xmlns="http://www.w3.org/2000/svg" viewBox="0 0 191.11 240.3">
  <title>_</title>
  <g style="isolation: isolate">
    <g>
      <g>
        <path d="M122.67,184.87c1,3.21,5.76,9,9.79,11.77s10.62,3.49,11.81,3.49.17-9.94.17-9.94l-8.81-6.39-7.31-3.55Z" fill="#cf9c58"/>
        <path d="M150.68,209.13a6.79,6.79,0,0,1-.18.82c-.93,3.05-4.2,19.8-4.2,19.8s-2,2.69-8.09-1.83c.84-3.26.54-12.39.21-17.49a8.39,8.39,0,0,1,6.45-3.67A7.73,7.73,0,0,1,150.68,209.13Z" fill="#fff"/>
        <path d="M150.45,208.83a7.73,7.73,0,0,0-5.81-2.37,8.39,8.39,0,0,0-6.45,3.67c-.05-.64-.09-1.21-.14-1.71-.37-4.4,1.07-9.72,1.82-12.65a40.44,40.44,0,0,0,0-14.24s2-8.06,4.76-9.16,5.59,1.47,8,5.49c-.18,4-2.14,15.53-2.33,17.36S151,205.15,150.45,208.83Z" fill="#cf9c58"/>
        <path d="M138.06,233.66s-.59-6,0-8.16a13.43,13.43,0,0,1,6.44-5.1c4.54-1.4,7.07,2.82,7.07,2.82l-2.53,4Z" fill="#dc4518"/>
        <path d="M138.11,232.68c-.49,2.79,2.9,4.95,6,4.06s8.67-4.09,10.45-6.87c1.94-3.05-.49-8.07-4.47-7.47S139.41,225.31,138.11,232.68Z" fill="#525252"/>
        <path d="M118.16,150.11c0,6.45-.1,16.22,1.44,24.77s1.67,10.63,1.91,12c3.91,1.34,15.3-1.93,16.17-3,.06-1.83-.67-7.82-.67-7.82s1,4.26,1.22,5.38c4.65,2.18,7.64,4.13,16.61,1.46.25-5.39.88-20.3.23-23.72a39.69,39.69,0,0,0-4-10.87s-12.72,2.57-18.52,3.18S121.33,149.77,118.16,150.11Z" fill="#dc4518"/>
        <path d="M137,176.09c.24-2.93,2.32-5.82,5.87-8.11a31,31,0,0,1-14.18-.7C132.55,169.6,136.22,172.05,137,176.09Z" fill="#dc4518" style="mix-blend-mode: multiply"/>
        <path d="M125.45,65c-6.84,3.16-17.91,20-23.17,30.05a36.88,36.88,0,0,0,4.77,7.59A19,19,0,0,1,109.37,98a33.19,33.19,0,0,1,0,5.38s1.32,2.58,7.87,7,26.82,5.26,32.15,4.65c.32-1.73.44-3.75.8-4.81-.12.4,3.18,3,6.12,3.45a12.13,12.13,0,0,0,5.74-.6L159,111.18,156.71,96.7l-2.78-21.07-9.29-9.91-10.2-3.41Z" fill="#422b1f"/>
        <path d="M144.15,108.9c-.93,2.55-3,10.64-8.18,10.64s-7-8.09-8-13.68a4.33,4.33,0,0,0,2.12-2.53,16.1,16.1,0,0,0,1-4.83s4.18.73,10.78,1.66a14.5,14.5,0,0,0,.26,4A10.58,10.58,0,0,0,144.15,108.9Z" fill="#cf9c58"/>
        <path d="M160.72,117.42c2.32,2,7.33,9.9,10.27,12.47s6,6.11,7,5.86,7.21-2.56,10.27-.12c1.85,1.49-2.45,1.32-5,2.54s-2.07,3-1.95,3.33,2.57,1,3.18,1.44.73,1.37-1.22,1.37a11.08,11.08,0,0,1-6.72-3.08c-1.59-1.68-6-4-13.85-9.53-1.56-1.1-7.54-5.84-7.54-5.84Z" fill="#cf9c58"/>
        <path d="M108.9,106.18c-3.42.85-9.66,3.55-11.62,4.15s-8.67,2-10.51,1.71-2.56-2.39-3.42-3.51-2.2-2.35-3.3-2.35-.86,3.17-.61,5A9.28,9.28,0,0,0,76.63,108s-2.57.24-1.47,1.72,3.67,6,3.55,7.08-1.59,2.45-2.45,3.54-1.1,2.33,1.59,1.11a19,19,0,0,1,6-2.09c2.4-.39,12.58-3.11,14.29-3s10.77,0,10.77,0Z" fill="#cf9c58"/>
        <path d="M106.7,106.18c-.86,2.2.12,12.46,1.22,14.43,2.56-.38,9.36-3.32,10.83-3.19-.61,2.44-1.64,28.6-1.52,33.24,4.15,4,28.8,5.73,35.41.85.73-6.11-3-27.34-2.24-29.54,2.57,1.47,5.67,8.23,8.61,9.51,1-3.3,4-13.57,6-15.89-2.93-2.08-19.64-8.15-22.29-8.53-.81,2.41-3.62,6-6.5,5.6s-6-4.66-7-6.86C123.56,102.51,106.7,106.18,106.7,106.18Z" fill="#fdf993"/>
        <path d="M142.11,103.34a15.27,15.27,0,0,1-5.18,1.07,16.82,16.82,0,0,1-6.89-1.8,12,12,0,0,0,1-4.11s4.18.62,10.78,1.41A10.58,10.58,0,0,0,142.11,103.34Z" fill="#e68340" opacity="0.5" style="mix-blend-mode: multiply"/>
        <path d="M147.73,66.51A18.92,18.92,0,0,0,137,63.75a18.91,18.91,0,0,0-10.78,2.76c-4.51,2.62-5.06,10.59-4.88,12.14.33,3,.9,14.34,3,17.66,2.37,3.76,8.52,6.52,12.65,6.52s10.26-2.76,12.65-6.52c2.1-3.32,2.66-14.66,3-17.66C152.78,77.1,152.23,69.13,147.73,66.51Z" fill="#cf9c58"/>
        <path d="M141.43,77.55a6.09,6.09,0,0,1,3.31.09,5.59,5.59,0,0,1,2.64,1.8.28.28,0,0,1,0,.39.27.27,0,0,1-.36,0,4.86,4.86,0,0,0-2.47-1.2,4.66,4.66,0,0,0-2.6.33.74.74,0,0,1-1-.38.74.74,0,0,1,.37-1l.1,0Z" fill="#5a4331"/>
        <path d="M132.45,77.55a6.16,6.16,0,0,0-3.33.09,5.56,5.56,0,0,0-2.63,1.8.28.28,0,0,0,.4.38,4.86,4.86,0,0,1,2.47-1.2A4.7,4.7,0,0,1,132,79a.73.73,0,0,0,1-.38.74.74,0,0,0-.36-1l-.12,0Z" fill="#5a4331"/>
        <path d="M134.55,90.36c.15-.29,1.8,0,2.38,0s2.08-.29,2.39,0c0,.61-1.51,1-2.39,1a3.84,3.84,0,0,1-1.29-.22C135.24,90.92,134.55,90.83,134.55,90.36Z" fill="#8e5f35"/>
        <g>
          <g>
            <path d="M122.32,81.42c-.33-.8-1.71-1.8-2.52-.91a7.16,7.16,0,0,0-.53,6.39c1.28,2.58,2.53,2.9,3.18,2.35S122.32,81.42,122.32,81.42Z" fill="#ffb07f"/>
            <path d="M120.27,83a.76.76,0,0,1,1-.62,1.22,1.22,0,0,1,.82,1,2.13,2.13,0,0,1-.25,1.51,2.57,2.57,0,0,1-1,.79l.09-.15a2,2,0,0,0,.23.92,3.66,3.66,0,0,0,.48.87,2.81,2.81,0,0,1-.62-.74,2,2,0,0,1-.35-1.09v-.08l.09-.06a2.41,2.41,0,0,0,.87-.7,1.9,1.9,0,0,0,.2-1.2,1.16,1.16,0,0,0-.59-.88A.65.65,0,0,0,120.27,83Z" fill="#e68340"/>
          </g>
          <g>
            <path d="M151.54,81.42c.33-.8,1.7-1.8,2.51-.91a7.13,7.13,0,0,1,.54,6.39c-1.28,2.58-2.53,2.9-3.17,2.35S151.54,81.42,151.54,81.42Z" fill="#ffb07f"/>
            <path d="M153.59,83a.76.76,0,0,0-1-.62,1.26,1.26,0,0,0-.82,1,2.19,2.19,0,0,0,.26,1.51,2.62,2.62,0,0,0,1,.79l-.08-.15a2,2,0,0,1-.23.92,3.66,3.66,0,0,1-.48.87,3.25,3.25,0,0,0,.62-.74,1.91,1.91,0,0,0,.34-1.09v-.08l-.08-.06a2.41,2.41,0,0,1-.87-.7,1.83,1.83,0,0,1-.2-1.2,1.13,1.13,0,0,1,.59-.88A.65.65,0,0,1,153.59,83Z" fill="#e68340"/>
          </g>
        </g>
        <path d="M136,68.36c2.31,4.35,10,10,14.19,9.89.92,2.9-1.85,9.76,0,13.59s6.85,10.87,10.81,12.23c-4.09-6-6.86-19.49-5.54-22.39A13.83,13.83,0,0,0,158,87s-.09-9-1.59-12c-1.3-2.58-6.46-11.2-14-10.82a6.55,6.55,0,0,1,3.7-1.84c-.4-1.32-4.89-.93-6.87,0-4.48-.52-16.62.79-21.1,10s-1.85,19.53,5.67,24.54c-2.5-13.2-.92-19.14,1.85-22.44A20.26,20.26,0,0,1,136,68.36Z" fill="#422b1f"/>
        <path d="M140.26,84.17A3.62,3.62,0,0,1,143.55,82a3.52,3.52,0,0,1,3.31,2.17,10.47,10.47,0,0,0-3.29-.59A11.83,11.83,0,0,0,140.26,84.17Z"/>
        <path d="M133.33,84.17a11.89,11.89,0,0,0-3.32-.59,10.46,10.46,0,0,0-3.28.59A3.51,3.51,0,0,1,130,82,3.63,3.63,0,0,1,133.33,84.17Z"/>
        <path d="M136.82,96.91a6.08,6.08,0,0,1-5.15-2.29.66.66,0,0,1,.18-.91.65.65,0,0,1,.9.18,4.89,4.89,0,0,0,4.31,1.71c1.82,0,3.48-.74,4-1.68a.65.65,0,0,1,1.12.66c-.8,1.34-2.81,2.25-5.12,2.32Z" fill="#8e5f35"/>
      </g>
      <g>
        <g>
          <path d="M50.26,89.73S40.72,101,35,105.89c-3.36,2.87-18.61,12.12-20.67,15.49-1.25,2.05,2.3,3.7,4.45,9.45,1.62,4.32-2,5-5.92,1.74-3.54-2.94-3.69-4.32-8.55-8.54-.79-.69-1.92-3.12-.76-4.39,1-1,1.75-1,4-3,6.82-6.31,8.59-13.38,18.68-18.44,5.66-9.06,10.49-14,15.76-17.41C43.42,79.83,50.26,89.73,50.26,89.73Z" fill="#a46c2f"/>
          <path d="M56.58,90.72a39.42,39.42,0,0,0,4.15-5.85L41.31,77.24S30.4,87.85,25.87,94.62c1.18,6.91,12.83,11.2,12.83,11.2S52.14,95.62,56.58,90.72Z" fill="#103754"/>
          <path d="M65.52,91.53s10.23,7.4,13.74,12.64,2.92,8.77-1.86,11.6c-9.75,5.76-21.88,16.11-21.88,16.11l-4.23-7.52s7.86-7.75,8.91-9c2.86-3.35,7.91-5.34,7.91-5.34L53,100.48Z" fill="#a46c2f"/>
          <g>
            <path d="M53.14,122.29s.58,3.82,2.07,4.92c2.39,1.77,4,1.17,4,1.17a23.92,23.92,0,0,1,3.87,6.79c1,3.3.33,6-3.4,4a20.52,20.52,0,0,1-7.49-5.91c-1.95-2.44-3.9-5.1-3.9-6.88S53.14,122.29,53.14,122.29Z" fill="#879ba9"/>
            <path d="M49.22,124.86s-1.27.29-1.49.85c-.54,1.36.15,3.63,1.93,5.82,1.93,2.4,4.9,7.08,8.83,8.47,3.07,1.09,5.32.13,4.93-1.39-2-.32-4.24-.19-5.6-.87-2.47-1.25-3.7-2.32-5.58-5.25A24.14,24.14,0,0,1,49.22,124.86Z" fill="#103754"/>
            <path d="M56.36,127.92a9.06,9.06,0,0,0,2,3.9,7.74,7.74,0,0,0,4.08,1.68s-1.81-4.48-3.18-5.12A3.69,3.69,0,0,1,56.36,127.92Z" fill="#103754"/>
          </g>
          <path d="M46,96s6.08,4.89,8.15,6.22,6.57,3.65,6.57,3.65a89.45,89.45,0,0,0,8.72-5.43A29.62,29.62,0,0,0,74,96l-8.83-8.3S51.2,85,46,96Z" fill="#103754"/>
          <path d="M67.74,47.42c-3.53,2-3.14,7.62-5.7,16.33s-1.27,12.71-.8,15.44c.75,4.31,5.67,3,9.07,3.28,5.36.45,10.58-2.33,15-4.43s7.5-.61,12.1-5.73c2.18-2.42.38-6.84-2.22-8.56-2.37-1.58-3.72-.22-4.53,1.5-2.36-1.83-2.46.1-4.56,3.22-1.11,1.66-6.1,3.27-7.81,3.35s-7.79-.31-7.79-.31,8.22-12.92,6.79-17.71S71.32,45.42,67.74,47.42Z" fill="#986528"/>
          <path d="M83.35,38.73S77.1,50,76.53,54.94c-.38,3.33-1.77,2.39-4.59-.13-3.47-3.08-6.51-8.59-6.51-8.59s3.48-1.87,5.62-7.32l2.14-5.45Z" fill="#a46c2f"/>
          <path d="M67.21,26.57C66.51,36.86,72.7,45.66,81,46.23c7.68.52,14.5-6.15,16.06-15.26.13-.77.22-1.55.28-2.35a24.22,24.22,0,0,0,0-2.95c-.54-9-6.31-16.2-13.82-16.71C75.22,8.4,67.91,16.28,67.21,26.57Z" fill="#a46c2f"/>
          <path d="M87.06,19.88c.49,2.63-2.62,5.94-6.2,3.23-.59,5.08-3.74,6.49-5.59,4.42-.64,5.29-5.41,14.15-5.41,14.15s-7.19-2.34-6.07-9.28c-4.19-.93-6.14-3.89-2-7.48-4.09-2-3.4-8.46,2.51-8.66-2.44-4.19,3-9.56,6.45-7.67-.6-4,5.08-6.56,6.93-3.74,2.28-4.07,6.87-3.3,8.44,1.26,3.63-4.19,6.77-.12,6.64,3.47,4-.95,5,4.32.83,7.38C94.34,19.55,90.87,23,87.06,19.88Z" fill="#1d1a15"/>
          <path d="M75.6,26.73s-4.66-2.24-5.51,2.45,3.69,6.08,3.69,6.08L76,29.66Z" fill="#a46c2f"/>
          <path d="M69,42.45S56.76,40,52.91,47.84C46.17,61.53,35,79.55,35,79.55s6.47,6.91,11.59,10.56c7.4,5.26,23.57-.37,23.57-.37s-4-7.95,4.43-21.14C82.28,56.53,77.94,50,77.94,50S69.1,47.18,69,42.45Z" fill="#fff"/>
          <g>
            <path d="M7.64,116.62s.76,4,2.36,5.06c2.57,1.76,4.23,1.07,4.23,1.07a24.69,24.69,0,0,1,4.31,6.94c1.17,3.4.58,6.22-3.38,4.34a21.41,21.41,0,0,1-8.07-5.88c-2.13-2.47-4.28-5.17-4.35-7S7.64,116.62,7.64,116.62Z" fill="#879ba9"/>
            <path d="M3.65,119.46s-1.32.36-1.53,1c-.5,1.44.31,3.78,2.25,6,2.12,2.43,5.41,7.19,9.57,8.49,3.25,1,5.56-.07,5.1-1.65-2.11-.25-4.44,0-5.89-.68-2.63-1.21-4-2.28-6-5.27A25.18,25.18,0,0,1,3.65,119.46Z" fill="#103754"/>
            <path d="M11.23,122.37a9.41,9.41,0,0,0,2.19,4,8.11,8.11,0,0,0,4.33,1.6s-2.07-4.61-3.52-5.22A3.88,3.88,0,0,1,11.23,122.37Z" fill="#103754"/>
          </g>
          <path d="M59.75,42.69c-4-.74-4.55,4.42-12.1,9.47s-9.12,9-10.5,11.35C35,67.3,39.59,69.45,42,71.84c3.83,3.78,9.62,5,14.32,6.17s6.73,4.52,13.54,3.54c3.23-.47,4.87-5.89,2.48-7.89a3.69,3.69,0,0,0-2.48-.84c.22-1.86-.38-2.39-1.17-2.6-1.61-.43-3.87.8-6.22,1.13-2,.28-6.19-1.58-7.56-2.61s-5.78-5.23-5.78-5.23S60.5,57.16,62.47,52.57,63.79,43.45,59.75,42.69Z" fill="#a46c2f"/>
        </g>
        <g>
          <path d="M88.49,70.63a15.8,15.8,0,0,1,2.09,1.17l.18.08V68.12c-.37-.13-.66-.27-.78-.32a16.93,16.93,0,0,0-2.08-1.17,4.36,4.36,0,0,0-2.53-.13v4.2a4.09,4.09,0,0,1,1.37-.32A4.7,4.7,0,0,1,88.49,70.63Z" fill="#1998ba"/>
          <path d="M88.68,74.91a16.12,16.12,0,0,1,2.08,1.16V71.88l-.18-.08a15.8,15.8,0,0,0-2.09-1.17,4.7,4.7,0,0,0-1.75-.25,4.09,4.09,0,0,0-1.37.32v4.36a4.44,4.44,0,0,1,1.56-.4A4.7,4.7,0,0,1,88.68,74.91Z" fill="#a2e6ea"/>
          <path d="M87.9,66.63A16.93,16.93,0,0,1,90,67.8c.12,0,.41.19.78.32V61.88l-5.39-.05V66.5a4.36,4.36,0,0,1,2.53.13Z" fill="#1998ba"/>
          <path d="M88.68,74.91a4.7,4.7,0,0,0-1.75-.25,4.44,4.44,0,0,0-1.56.4v4.39s0,1.44.76,1.86a9.58,9.58,0,0,0,2.41.67c.42,0,1.3,0,2.22,0V76.07A16.12,16.12,0,0,0,88.68,74.91Z" fill="#1998ba"/>
          <path d="M92.77,76.66a6.05,6.05,0,0,1-2-.58h0V82c1.4,0,2.86-.08,2.86-.08S96,81.84,96,80.07V75.14C95,75.68,94.27,76.74,92.77,76.66Z" fill="#0f87a3"/>
          <path d="M92,68.38a4.62,4.62,0,0,1-1.23-.26v3.76a5.27,5.27,0,0,0,1.82.5c1.59.08,2.35-1.12,3.45-1.62V66.58C94.57,66.82,93.85,68.48,92,68.38Z" fill="#e2e1e0"/>
          <path d="M92,68.38c1.86.1,2.58-1.56,4-1.8V61.92l-5.27,0v6.24A4.62,4.62,0,0,0,92,68.38Z" fill="#0f87a3"/>
          <path d="M92.58,72.38a5.27,5.27,0,0,1-1.82-.5v4.19h0a6.05,6.05,0,0,0,2,.58c1.5.08,2.26-1,3.26-1.52V70.76C94.93,71.26,94.17,72.46,92.58,72.38Z" fill="#80cece"/>
          <polygon points="90.76 49.88 89.28 49.83 89.19 51.72 90.76 51.72 90.76 49.88" fill="#a2e6ea"/>
          <path d="M89.19,51.72a10.4,10.4,0,0,0-3.35,1.08h4.92V51.72Z" fill="#cbf7f6"/>
          <path d="M92.27,51.72l0,0h0V49.92l-1.51,0v1.84Z" fill="#80cece"/>
          <path d="M92.3,51.69l0,0H90.76V52.8h4.92A11,11,0,0,0,92.3,51.69Z" fill="#a2e6ea"/>
          <path d="M90.76,58.16V55.49a24,24,0,0,0-4.78.34s-.7.44-.41,1.86l.55.47h4.64Z" fill="#1998ba"/>
          <path d="M90.76,58.16H86.12l.33.29a2.34,2.34,0,0,1-.35,2.27l-.73,1.11,5.39.05Z" fill="#25adcc"/>
          <path d="M95.38,58.16h0a2.59,2.59,0,0,1,.57-.33s.61-1.32-.36-2a48,48,0,0,0-4.83-.31v2.67Z" fill="#0f87a3"/>
          <path d="M95.38,58.16H90.76v3.72l5.27,0a7.58,7.58,0,0,1-1.14-2.53A1.41,1.41,0,0,1,95.38,58.16Z" fill="#1998ba"/>
          <path d="M85.84,52.8l-.36,2.92.21.08a47.31,47.31,0,0,1,5.07-.31V52.8Z" fill="#a2e6ea"/>
          <path d="M95.68,52.8H90.76v2.69a30.29,30.29,0,0,1,4.83.31l.36-.17Z" fill="#80cece"/>
          <polygon points="89.98 49.19 89.01 49.83 89.28 49.83 90.76 49.88 90.76 49.19 89.98 49.19" fill="#cbf7f6"/>
          <polygon points="92.45 49.92 91.54 49.19 90.76 49.19 90.76 49.88 92.27 49.92 92.45 49.92" fill="#a2e6ea"/>
          <path d="M89.78,51.62h0a.26.26,0,0,1-.25-.25V50.13a.25.25,0,0,1,.25-.25h0a.26.26,0,0,1,.26.25v1.24A.26.26,0,0,1,89.78,51.62Z" fill="#fff" opacity="0.6"/>
          <path d="M87.43,79.12h0a.69.69,0,0,1-.7-.69V63.3a.69.69,0,0,1,.7-.69h0a.69.69,0,0,1,.69.69V78.43A.69.69,0,0,1,87.43,79.12Z" fill="#fff" opacity="0.6"/>
        </g>
        <path d="M90.2,65.46s2.9-4.23,5.79-1.13S98.31,70,98.31,70a5.15,5.15,0,0,1-2.17,3.67c-2.11,1.6-4.54-.47-4.54-.47A12.41,12.41,0,0,0,90,70.37,3.71,3.71,0,0,1,90.2,65.46Z" fill="#986528"/>
        <g>
          <path d="M92.34,41.21a7.79,7.79,0,0,1-4.21-2.31.64.64,0,0,1,.1-.94.73.73,0,0,1,1,.1h0A6.63,6.63,0,0,0,93.31,40" fill="#6f4c1d"/>
          <path d="M94.07,28.73a1.76,1.76,0,1,1-3.39.72,1.76,1.76,0,1,1,3.39-.72Z" fill="#1d1a15"/>
          <path d="M89.27,25.35a.65.65,0,0,1-.54-.25.66.66,0,0,1,.1-.94c1.2-1,4.91-1.45,6.3-.21a.67.67,0,0,1-.88,1c-.85-.76-3.81-.38-4.59.25A.7.7,0,0,1,89.27,25.35Z" fill="#1d1a15"/>
          <ellipse cx="96.09" cy="34.2" rx="2.95" ry="2.52" fill="#a46c2f"/>
        </g>
      </g>
    </g>
  </g>
</svg>
