<svg xmlns="http://www.w3.org/2000/svg" viewBox="0 0 339.33 269.33">
  <title>_</title>
  <g style="isolation: isolate">
    <g>
      <g>
        <g>
          <path d="M239.6,130.27c6.15,1.72,14.43,11,19,12.32s13-.65,15.18-2,5.51-5.72,6.61-4.63a2.94,2.94,0,0,1,0,3.75c1.76-.88,6.39-5.07,8.15-4.84s4.41,4.4,0,8.14-10.35,2.86-13.22,3.74-15.18,5.29-18.26,5.29-22.4-11.59-25.48-15.12S230.15,127.64,239.6,130.27Z" fill="#eea271"/>
          <path d="M258.92,257.37a18.68,18.68,0,0,1-9.05-3.75A15.88,15.88,0,0,0,245,251c-1-.38-1.6-3.24-1-6.58,1.23,2.4,5.63,5,8.39,6.36s9.16,3.38,8.69-2.24c2.5,1.77,4.66,3.54,5.09,4.67C267.29,256.05,262,257.58,258.92,257.37Z" fill="#525252"/>
          <path d="M252.4,250.76c-2.76-1.32-7.16-4-8.39-6.36a15.13,15.13,0,0,1,.35-1.56c1.1-4,.66-15.57,0-19.53-.48-2.9-1.68-6.42-2-12a58.21,58.21,0,0,1,0-7l1.64-.14c3.3-.31,10.56-1,12.25-1-.23,5.06-.45,25.78-1.32,28.63s-3.1,9-2.54,10.28c.33.81,4.89,3.61,8.69,6.34h0C261.56,254.14,255.05,252,252.4,250.76Z" fill="#ffb07f"/>
          <path d="M239.84,265c-2.2.22-8.3-1-10.5-1.9s-6.41-1.06-7.05-2.86a22.41,22.41,0,0,1-.59-5.28c.19,3,7.2,5.5,9.63,5.5,2.18,0,8-.7,7.76-4.27a34.85,34.85,0,0,1,6.7,3.3C249.34,262.13,242,264.78,239.84,265Z" fill="#525252"/>
          <path d="M239.09,256.19c.21,3.57-5.58,4.27-7.76,4.27-2.43,0-9.44-2.55-9.63-5.5h0c-.16-4.46,0-10.16-.4-12.33-.55-3.31-2.37-12.49-1.5-18s3.6-14.09,4.25-19.82l12.43-.59s-3,12-3,14-3,9.48-3.68,15.87.44,15.12,2.64,18.13C233.59,253.82,236.29,255,239.09,256.19Z" fill="#ffb07f"/>
          <path d="M225.23,153.27c-.28-7.09-1-16.22-.3-19.84a9.66,9.66,0,0,0,.85-.73,15.86,15.86,0,0,0,2.92-4.1,20,20,0,0,0,1.56-4.1,10.16,10.16,0,0,0,.41-3.84,53.36,53.36,0,0,1,9.46,3.31A16.36,16.36,0,0,0,242,129c.45.82.8,1.32.8,1.32a9.71,9.71,0,0,1,4.65,3.33,7.05,7.05,0,0,1,.63,1.06c.73,1.58,1.07,4,1.5,7.08A83.87,83.87,0,0,0,252,154.14C258,159.21,225.39,157.41,225.23,153.27Z" fill="#ffb07f"/>
          <path d="M270.53,198a26.2,26.2,0,0,1-18.33,11.09c-5.26.74-15.37-2.51-20.22-.75s-11,.23-15-2.41c1.53-4.85,4.62-39.87,7.92-43.83.49-1.23.46-4.67.3-8.81h0c6.31-.45,7.92-7.72,7.34-9.92-.34-1.29-3.91-6.54-6.79-10.65a15.86,15.86,0,0,0,2.92-4.1c2.18.65,7.47,9.47,9,12.55a12.58,12.58,0,0,0,8.15,0c-.44-3.75-3.08-10.8-3.08-10.8a9.65,9.65,0,0,1,4.65,3.32c.21,2.93.77,6.19,2.13,8.14A83.87,83.87,0,0,0,252,154.14C258,159.21,269.86,194.23,270.53,198Z" fill="#4197d5"/>
          <path d="M242,129a6.2,6.2,0,0,1-1.57.12c-2.8-.22-7-2.27-10.15-4.64a10.16,10.16,0,0,0,.41-3.84,53.36,53.36,0,0,1,9.46,3.31A16.36,16.36,0,0,0,242,129Z" fill="#ffb07f" opacity="0.4" style="mix-blend-mode: multiply"/>
          <path d="M245.17,92.79c1.68,1.27,4.26,4,4.17,7.28s-.11,6.46-.05,8.37,1.21,5.73.9,8.81-5.55,8.61-9.08,9.18-9.89-1.23-13.61-3.52-5.32-6.28-5.89-9.8.24-14.15,1.86-16.85,6.42-6.35,11.41-6.32S243,91.16,245.17,92.79Z" fill="#ffb07f"/>
          <path d="M226.49,82.62c-3.66.76-16.22,5.75-13.6,21.16,1.68,9.8,8.79,12.41,9.35,16s-9.15,8.62-9.35,11.83c3.16-1.14,7.33-2.63,7.33,4.48,2.8-1.81,5.3-12,6.42-13.8-3.84-5.72-2.17-8.35-2-15.38,1.65,2.91,9.7-9.07,12.32-12.29,2.43,2.29,3.93,6,3.36,8.22a8.07,8.07,0,0,0,2.82-4.21,7.46,7.46,0,0,1,1.3,4.21,23.32,23.32,0,0,0,3.17-4s.92,2,1.67,3.81c1.13-1,3.2-13-5.21-15.84C239.2,82.24,232.29,81.42,226.49,82.62Z" fill="#9e600a"/>
          <path d="M226,124.37a1.4,1.4,0,0,1-.59-.21l-4-2.44c-.53-.33-.64-.87-.24-1.21a1.53,1.53,0,0,1,1.71,0l4,2.45c.53.32.64.86.23,1.21A1.39,1.39,0,0,1,226,124.37Z" fill="#fbdc4d"/>
          <path d="M225.07,107.1c-.38-1-2-2.16-3-1.1s-2,5-.7,7.68c1.52,3.13,3,3.52,3.81,2.87S225.07,107.1,225.07,107.1Z" fill="#ffb07f"/>
          <g>
            <path d="M295.87,145.27l3.12,4.94s17-2,20.8-2.47,5.33-2.08,6.49-2.47.92,1.17,0,1.95,6.37.66,7.28,1,2.34,1.69-1.43,3.77-10.13-.78-11.56,0-15.34,3.77-17.87,4.29-6.31,1.56-8.64,0-5.91-9.49-5.91-9.49Z" fill="#eea271"/>
            <path d="M283.46,260.7a33.06,33.06,0,0,0,10.33,2.17,91.61,91.61,0,0,0,13.89-.67,2.3,2.3,0,0,0,1.06-1.81c0-1.17-1.56-2.73-4.41-3.77-1-.34-2.66-1-4.52-1.86,2.29,1.15,2.56,2.51-.52,2.51-3.26,0-11.23-.93-14.8-4.11A13.19,13.19,0,0,0,283.46,260.7Z" fill="#cc2813"/>
            <path d="M285.35,251.16c-.31.68-.61,1.35-.86,2,3.57,3.18,11.54,4.11,14.8,4.11,3.08,0,2.81-1.36.52-2.51a4.16,4.16,0,0,0-.52-.25,8.78,8.78,0,0,1-5-4.77c-.74-1.69-.52-7.65,0-13s1.57-12.86,3.26-15.19,2.08-8.19,2.73-12.21L287,206.87a76.94,76.94,0,0,0,0,8.06c.26,3-3.38,13-3.5,15.34s.9,7.76,1.56,10.88S286.9,247.78,285.35,251.16Z" fill="#eea271"/>
            <path d="M277.22,262.78c2.47.91,8.13,1.76,13.47,2.16a47.22,47.22,0,0,0,10.75-.65,2.33,2.33,0,0,0,1.06-1.82c0-1.17-1.56-2.72-4.41-3.77-1-.34-2.66-1-4.52-1.87,2.29,1.17,2.55,2.51-.51,2.51-3.26,0-11.23-.92-14.8-4.1A13.11,13.11,0,0,0,277.22,262.78Z" fill="#e54429"/>
            <path d="M279.1,253.24c-.3.68-.59,1.34-.84,2,3.57,3.18,11.54,4.1,14.8,4.1,3.06,0,2.8-1.34.51-2.51l-.51-.24c-3.6-1.63-4.5-3.7-5-4.77-.74-1.69-.53-15.21,0-20.55s1.57-5.3,3.25-7.63,2.08-8.2,2.73-12.22L280.8,209a76.69,76.69,0,0,0,0,8c.26,3-3.38,13-3.5,15.34s.91,7.76,1.56,10.88S280.67,249.87,279.1,253.24Z" fill="#ffb07f"/>
            <path d="M274.3,136.57l9.1,5.2s8.18-4.82,5.63-9.5a8.84,8.84,0,0,1-1-4.75,16.17,16.17,0,0,1,2.23-7.06A32.1,32.1,0,0,1,279,117.28a9.51,9.51,0,0,1-.2,2.33C277.92,125.14,274.3,136.57,274.3,136.57Z" fill="#ffb07f"/>
            <path d="M268.58,208.68c2.21,1,5.46,4.16,9.52,2.88s9.72-.79,14,.76,9.75,3.52,17-2.72c-1.68-7.4-3.11-36.64-4.42-42.37a6.07,6.07,0,0,1-.16-.81h0c-.12-.68-.25-1.6-.41-2.7h0c-.52-3.75-1.24-9.4-2.14-13.38-1.29-5.72-5.33-14.29-13-18.07-5.34-.12-10.17.8-12.62-2.73-2.57,3-2.88,8.32-2.11,11.7s9.1,18.2,9.49,19.76c.24.94-.35,2.19-1.48,4h0c-.75,1.19-1.76,2.63-2.93,4.37C273.74,177.71,270.92,203.89,268.58,208.68Z" fill="#c8e9fd"/>
            <path d="M282.31,165c4.1,0,19.67.94,22.23,1.42-.12-.68-.25-1.6-.41-2.7h0c-2.32-.43-20.33-2.72-20.33-2.72C284,161.94,283.44,163.19,282.31,165Z" fill="#9bd9f9"/>
            <path d="M279.37,169.37c1.17-1.74,2.18-3.18,2.93-4.37h0c1.13-1.81,1.72-3.06,1.48-4-.39-1.56-8.7-16.38-9.49-19.76s10.76,19.86,11.14,21.41h0c-.75,1.2-1.76,2.63-2.92,4.37-5.63,8.34-11.21,33.9-9.43,38.95.81,2.29,4.09,4.53,8.14,3.24s9.73-.79,14,.77c3.64,1.32,8.13,2.91,13.86-.46a.24.24,0,0,1,0,.08c-7.28,6.24-12.73,4.29-17,2.72s-9.94-2.08-14-.76-7.31-1.83-9.52-2.88C270.92,203.89,273.74,177.71,279.37,169.37Z" fill="#c8e9fd" opacity="0.5" style="mix-blend-mode: multiply"/>
            <path d="M271.83,113.63c1.56,1.45,3.66,1.52,7.1,4.34,1.34.52,4.38,5.4,10.08,6.28,2.36.37,3.74.71,5.65.36s3.4-4.4,3.67-4.94a.61.61,0,0,1,.18-.21c.32-.23.83-.07,1-.18s-.25-1.06-.22-1.35c.32-.23,1.16,0,1.07-.47-.05-.23-.13-.51-.21-.78a6.52,6.52,0,0,1-.22-.79c0-.27,1.19-.8,1.81-1.51a1.86,1.86,0,0,0,0-2.32c-.45-.36-2.32-1.25-2.74-2.32s.11-2.08.56-4.92.56-9.57-2.32-12.67c-2.37-2.54-9.48-6.33-15.92-6.16-8.07.23-9,3.13-11.77,9.19S267,109.13,271.83,113.63Z" fill="#ffb07f"/>
            <path d="M293.79,150.47l3.12,4.94s17-1.94,20.8-2.47,5.33-2.07,6.5-2.47.91,1.17,0,1.95,6.36.65,7.27,1.05,2.34,1.68-1.43,3.76-10.13-.78-11.56,0-15.34,3.77-17.88,4.29-6.31,1.55-8.62,0-5.91-9.49-5.91-9.49Z" fill="#ffb07f"/>
            <path d="M285.87,130.33c2.44-.21,7.75,2.58,9,5.59,2.37,5.85-1,11.3-.65,12.34a8.91,8.91,0,0,1,1.68,3.12s-2.08-.78-3.11,0-3.73,2.68-4.9,2.16-2.5,3.19-2.5,3.19a3.48,3.48,0,0,1,0-2.61,51.3,51.3,0,0,1-5.2-3.7c-2.18-1.86-5.86-9.18-2.06-15.28A9.35,9.35,0,0,1,285.87,130.33Z" fill="#a7dcfd"/>
            <path d="M260.14,134.48c2.46,1.18,4.81,3.65,4.41,5.21s-.9,3.26-4.16,2.46c.79,1.83,2.35,3.12,3.91,3-.79,1.3-.27,4.42,3.37,3.9-.91-1.42-.65-2.46.14-3.77,1.69,1.43,2.48,3.5,4.81,3.83-.51-1-1.95-2.66-1.43-3.56,1.95,1,3.76,2.72,6,2.33a10.1,10.1,0,0,1-1.69-3.89c2.74.25,5.07-.79,5.59-2.87-2.6-.12-3.76-1.69-3.51-4.4,3.12,1.55,4.43.76,5.2-1.57-2.21.13-3.12-.52-3.89-2.07s2.32-3.92,3.37-5.72a7.18,7.18,0,0,0-1.05-7.55c-1.94-2.33-5.32-5.58-4.41-8.57a4.84,4.84,0,0,1,.37-.86,5.72,5.72,0,0,1,2.31-2.27,7.12,7.12,0,0,0,2.26-1.81c1.31.26,5.65-2.33,7.12-6.37.82,1.82,1.36,6.5-.48,9a30.41,30.41,0,0,0,5.3-9.52c-.24,2.91-.11,4-.63,5.5,2-1.56,3.76-5.58,3.76-9.22.91,2.2,2.08,5.06,1.18,6.62,3.24-3.25,3.37-9.1,1.17-12.34a18.35,18.35,0,0,0-9.48-6.64,32.68,32.68,0,0,0-6.89-1.07c-4.42-.28-9.14.08-12,1.07-4.4,1.57-9.36,7-10,11.32s0,8-1.3,9.36-3.9,3.76-3.9,5.72c0,9.08,4.42,9.48,5.45,11.16s1.19,5-1.16,6.62S257.67,133.31,260.14,134.48Z" fill="#5a4331"/>
            <path d="M277.14,110.37a5.72,5.72,0,0,1,2.31-2.27c-1-13.59,8.5-23.52,10.2-24.82a32.68,32.68,0,0,0-6.89-1.07c-2,2.62-4.94,8.49-6.48,16.93A20,20,0,0,0,277.14,110.37Z" fill="#9bd9f9"/>
            <path d="M281.33,106.81c-.35-1.07-2.19-2.77-3.5-2.07s-3,4.15-1.77,7.16c1.48,3.53,3.26,4.41,4.27,4S281.33,106.81,281.33,106.81Z" fill="#ffb07f"/>
          </g>
          <path d="M220.75,137.63c2.42-4.18,5.28-6.17,9.91-1.76S247.4,152.82,252,154.14s19.6-1.76,21.81-3.08,5.51-5.72,6.61-4.62a2.93,2.93,0,0,1,0,3.74c1.76-.88,6.39-5.06,8.15-4.84s4.41,4.4,0,8.14-10.35,2.87-13.22,3.75-21.81,6.38-24.89,6.38S228.08,152,225,148.5,219.89,139.12,220.75,137.63Z" fill="#ffb07f"/>
        </g>
        <path d="M240.32,114.52a7.55,7.55,0,0,0,1.18.41,3.41,3.41,0,0,0,1.14.07,3.09,3.09,0,0,0,1.08-.34,8.3,8.3,0,0,0,1.06-.66,4,4,0,0,1-.33.57,3.63,3.63,0,0,1-.48.48,2.39,2.39,0,0,1-1.27.54,2.47,2.47,0,0,1-1.35-.23A2.57,2.57,0,0,1,240.32,114.52Z" fill="#e29f74"/>
        <path d="M243.21,120.6a4.2,4.2,0,0,1-3.86-1.22.52.52,0,0,1,0-.7.44.44,0,0,1,.65,0,3.35,3.35,0,0,0,3.2.87,3.47,3.47,0,0,0,2.65-1.68.44.44,0,0,1,.6-.26.52.52,0,0,1,.26.65,4.23,4.23,0,0,1-3.34,2.26Z" fill="#d58a6a"/>
        <path d="M248.74,108.92c.16,1.14-.05.57-1.67.8s-1.66.84-1.82-.3a1.79,1.79,0,1,1,3.49-.5Z" fill="#103754"/>
        <path d="M237.81,110.29c.17,1.14-.05.57-1.66.8s-1.66.84-1.83-.3a1.79,1.79,0,1,1,3.49-.5Z" fill="#103754"/>
        <path d="M296.74,108.71c.14,1.14-.06.57-1.7.77s-1.68.81-1.83-.34a1.8,1.8,0,1,1,3.53-.43Z" fill="#5a4331"/>
        <path d="M233.39,107.72a.51.51,0,0,1-.46-.15.54.54,0,0,1,0-.76c.88-.88,3.82-1.56,5-.68a.54.54,0,1,1-.63.87c-.75-.54-3.08,0-3.66.57A.46.46,0,0,1,233.39,107.72Z" fill="#9e600a"/>
        <path d="M292.25,106.14a.51.51,0,0,1-.46-.15.54.54,0,0,1,0-.76c.89-.88,3.83-1.56,5-.68a.54.54,0,1,1-.63.87c-.75-.54-3.08,0-3.66.57A.48.48,0,0,1,292.25,106.14Z" fill="#5a4331"/>
        <path d="M244.32,106a.5.5,0,0,1-.47-.17.54.54,0,0,1,0-.76,5.57,5.57,0,0,1,5.27-.76.54.54,0,0,1-.47,1,4.56,4.56,0,0,0-4.08.59A.55.55,0,0,1,244.32,106Z" fill="#9e600a"/>
      </g>
      <g>
        <g>
          <path d="M165.31,157a10.5,10.5,0,0,0-7.05-4.37,24.41,24.41,0,0,0-9.13.4l-15.28-20L142,98.21l-20.31,1.58-3.29,34a10.17,10.17,0,0,0,3.78,8.93l20.21,16.14,11.4,3.39,9.37.43C166.17,163.4,166,157.63,165.31,157Z" fill="#e5be9c"/>
          <g>
            <polygon points="125 245.1 166.16 245.1 166.16 243.85 125 242.09 125 245.1" fill="#3c3c3b"/>
            <path d="M127,231.38l-.18.34A16.06,16.06,0,0,0,125,242.09h0l41.16,1.76-.15-1.22a6.49,6.49,0,0,0-6-5.7l-9.79-.6h0a8.33,8.33,0,0,1-5.94-4.6l-.17-4.09Z" fill="#231f20"/>
          </g>
          <path d="M146.79,155.42,110.9,148H79.42v32.58l52.64-2.31-7,56,8.61,1.17,14-1.19,8.51-65.2A12.44,12.44,0,0,0,146.79,155.42Z" fill="#103754"/>
          <path d="M125,234.22l9,1.17,4-60.32-36,1.35A5.14,5.14,0,0,1,97,172.9l-4.6-13.84-13,21.47,52.64-2.31Z" fill="#1d1d1b" opacity="0.1"/>
          <polygon points="11.97 252.68 4.21 220.35 2.33 221.05 10.56 254.19 32.19 254.19 32.19 252.68 11.97 252.68" fill="#3c3c3b"/>
          <path d="M20.33,237,15,219.31l-2.35-.71a8.48,8.48,0,0,0-6.49.68l-2,1.07L12,252.68H32.19a6.45,6.45,0,0,0-5-7.4l-4.68-1Z" fill="#231f20"/>
          <path d="M97.07,152.2l-15.82-4.66-15.06,2.54c-8.32,1.41-12.67,10.53-9.72,20.37l17,56.92L15,219.31v10.47l3.51,10.54a3.9,3.9,0,0,0,3.3,2.66l61,6.49c6.11.79,12.28-3.34,12.66-9.49C97.1,214.29,97.07,152.2,97.07,152.2Z" fill="#103754"/>
          <path d="M15,229.78l58.62,2.12a3.1,3.1,0,0,0,3.26-3.82L63.31,172.24A16.78,16.78,0,0,1,71,152.78L79.42,148l-14.15,2.34c-7.81,1.29-11.75,10.32-8.8,20.16l17,56.92L15,219.31Z" fill="#1d1d1b" opacity="0.1"/>
          <path d="M112.82,148.35s-9.73,10.5-24.14,11.09-28-5.71-29.3-5.45C65.77,130.5,67.31,123.12,71,98.21c2-13.62,66-2.13,66-2.13L115.5,137Z" fill="#22afc6"/>
          <path d="M127.92,59.73l7.47-6-25-6.24-1.85,7.45A9.41,9.41,0,0,1,102.39,61c-1.5.55,4.17,22.55,4.17,22.55s30.16,0,30.49-7.17l-2.67-5.51C129.79,68.83,126.9,63.84,127.92,59.73Z" fill="#f6d3a9"/>
          <path d="M102.39,61c-1.5.55-23,2.05-27.14,7.75C66.87,80.33,71,98.21,71,98.21l41.13,3.32,5.68,14.08,24.28-9.48,2.15-18.29a15.65,15.65,0,0,0-6.59-14.66l-3.29-2.3C123.79,84.34,104.46,65.66,102.39,61Z" fill="#22afc6"/>
          <path d="M110.35,47.44l-1.85,7.45a6.22,6.22,0,0,1-.31.92,28.71,28.71,0,0,0,8.61,8.81c5.34,3.49,11,5.07,15.17,4.81-3.14-2.45-4.88-6.36-4-9.7l7.47-6Z" opacity="0.1"/>
          <g>
            <path d="M143.79,33.43c-5.6,15-14.16,26.3-23,23-8.26-3.09-22.55-19.76-17-34.75,2.51-19.13,11.47-8.76,14.66-18.34C151.44,9.84,155.52,17.61,143.79,33.43Z" fill="#3c3c3b"/>
            <path d="M143.51,24.66c-9-.89-15.55-4.7-23.8-4.25-2.17,3-5.31,14.85-13.61,11.2,0,0-2.41,21.06,14.91,30.75,4.41,2.47,13.44-4.31,18.39-11.4C141.54,47.91,149.45,25.25,143.51,24.66Z" fill="#efcaa3"/>
            <path d="M105.14,29c-.54,3.77.88,9,2.29,9.2s3-2.69,3.54-6.47-.16-7-1.57-7.2S105.68,25.18,105.14,29Z" fill="#efcaa3"/>
          </g>
          <g>
            <path d="M162.15,140.89,170,156.33l14.52,2.35,4.26-1.26c2.88-.86,3.05,1.31,3.05,1.31s-2.74,5.08-3.64,4.82l-5.34.75L168.09,167a3.74,3.74,0,0,1-3.28-1L152.44,148l8.33-6.5Z" fill="#e5be9c"/>
            <g>
              <path d="M148.25,116.39c3.12.64,8.53,3.25,12.35,2.25,7.59-2.27,5.79-21.13,15.68-23.23,7.61-1.62,8.76-13.94,4-19.16-11.75,11-18.83-9.14-32.44,3.06C135.48,82.18,135.71,109.22,148.25,116.39Z" fill="#935c37"/>
              <polygon points="159.36 126.17 160.13 117.96 147.57 112.81 144.34 122.05 151.06 139.54 163.34 132.4 159.36 126.17" fill="#f6d3a9"/>
              <path d="M147.57,112.81l-1,3c2.32,6.48,9.35,12.3,15.09,13.86l-2.25-3.51.77-8.22Z" opacity="0.1"/>
              <path d="M147.41,104c.64,2.71,3.84,6.15,5.4,6.09s2.3-2.32,1.66-5-2.43-4.86-4-4.8S146.77,101.28,147.41,104Z" fill="#f6d3a9"/>
              <path d="M166.57,125.92c2.06-.58,9.58-13.54,9.58-13.54s.37-4.77.13-17c-3.43.87-8.35-.6-13.59-2.44l-.05,0a3.08,3.08,0,0,0-4.08,3.2c.06.69.09,1.35.1,2,.13,7.6-3.55,6.63-6.2,4.8-1.46.9-3.48,7.79-4.89,9.87C150.23,121.42,160.66,127.56,166.57,125.92Z" fill="#f6d3a9"/>
            </g>
            <g>
              <path d="M156.26,249.94l4.93-2.65s-1.07-2-7.94-2c-2,0-3.86-2.52-6.56-3.08-11.68-2.44-9.84,6.8-9.84,6.8Z" fill="#3e3431"/>
              <path d="M159.14,251.38l.1-.06a3.79,3.79,0,0,0,1.95-2.61v-1.42l-4.93,2.65-19.41-.9.28,1.07a3.51,3.51,0,0,0,2.84,2.45l14.93-.22A8,8,0,0,0,159.14,251.38Z" fill="#3c3c3b"/>
            </g>
            <g>
              <path d="M160.57,255.54l4.92-2.65s-1.06-2-7.93-2c-2,0-3.86-2.51-6.56-3.08-11.69-2.44-9.84,6.8-9.84,6.8Z" fill="#3e3431"/>
              <path d="M163.45,257l.1-.06a3.83,3.83,0,0,0,1.95-2.6v-1.43l-4.92,2.65-19.41-.9.28,1.07a3.51,3.51,0,0,0,2.84,2.45l14.93-.22A7.93,7.93,0,0,0,163.45,257Z" fill="#3c3c3b"/>
            </g>
            <path d="M150.86,192.7c-5.84-1.08-10.94-4.24-16.19,0l4.05,51.37c.44,1.83,2.15,1.34,4.07,1.14,2.09-.22,3.64-.33,3.42-2.42Z" fill="#edc59a"/>
            <path d="M155.05,197.35c-5.83-1.08-10.94-4.24-16.19,0l4.06,51.37c.44,1.83,2.14,1.34,4.07,1.14,2.09-.22,3.64-.33,3.42-2.42Z" fill="#f6d3a9"/>
            <path d="M128.6,179.3l-.86,4c-1.33,6.29,1.65,8.82,3.58,15l3.85,10.79h20.89l2.67-26Z" fill="#010326"/>
            <path d="M163.34,132.4h0a6.69,6.69,0,0,1-5-1.57h0a55.65,55.65,0,0,0-11.44-7.51l-2.58-1.27-4.89,7.7A62.93,62.93,0,0,0,133,149.58l-7,29.72L160.54,186l.22-9c3.79-11,4.62-18,5.32-29.61h0a31.77,31.77,0,0,0-2.74-14.95Z" fill="#b74720"/>
            <path d="M191.87,158.73l-.32,2.69h0a2.36,2.36,0,0,1-2.36-2.36v-.39Z" fill="#e5be9c"/>
            <path d="M144.31,152.88s18,17.09,19,17.18l22.93,1.45,1.33-5.5-21-6.77-9.12-15.61h0a13.85,13.85,0,0,0-12.69,8.3Z" fill="#f6d3a9"/>
            <path d="M184.11,165.39l4.63-1.2c.58-.2,5.07-1.1,5.07-1.1h0a1.89,1.89,0,0,1-1,2.37l-2.11.91,4,3.16a2.49,2.49,0,0,1,1,1.63h0a1,1,0,0,1-.68,1.08h0a1,1,0,0,0-.67.78l0,.26a1,1,0,0,1-.64.77l-.57.19a1,1,0,0,0-.54.47h0a1.76,1.76,0,0,1-1.61.95h-.61A4.94,4.94,0,0,1,188,175l-1.78-1a4.87,4.87,0,0,1-1.45-1.26L183,170.53l-2.24-.78Z" fill="#f6d3a9"/>
          </g>
          <path d="M154.42,155c-6.81-1.76-12.74-2.66-11.87-2.88,5.39-1.34,5.75-2.25,5.53-3.37a95.45,95.45,0,0,1-14.43,1.11l-29.79-14.07L98.44,95.38l-22.52,7s7.81,27.48,12.53,41.15a13.66,13.66,0,0,0,10.1,8.93l32.84,6.94s9.16,4.71,12.41,5,9.55-3.08,9.55-3.08C157.1,159.89,155.84,155.2,154.42,155Z" fill="#edcca6"/>
        </g>
        <g>
          <path d="M122.18,33.26a6,6,0,0,1,2.1-1,6.74,6.74,0,0,1,2.37-.23,5.18,5.18,0,0,1,2.29.79,4.28,4.28,0,0,1,1.56,1.77,9.61,9.61,0,0,0-1.9-1.13,6.85,6.85,0,0,0-2-.5A16.12,16.12,0,0,0,122.18,33.26Z" fill="#1f160f"/>
          <path d="M144.19,39a4.71,4.71,0,0,0-2.9-2.31,6.83,6.83,0,0,0-1.88-.19l-1,.07a8.76,8.76,0,0,1-1,.08,10.45,10.45,0,0,1,.93-.51c.33-.13.67-.24,1-.34a4.91,4.91,0,0,1,2.19,0A3.73,3.73,0,0,1,143.42,37,3.17,3.17,0,0,1,144.19,39Z" fill="#1f160f"/>
          <path d="M130.81,55.46a9,9,0,0,1-4.88-1.68c-1.31-.92-1.92-1.62-1.81-2.09a.66.66,0,0,1,.51-.47c.45-.14,1.21.78,1.21.78a7.45,7.45,0,0,0,7.88,1.61c.46-.18.82-.18,1,.22s0,.65-.48.83A9.41,9.41,0,0,1,130.81,55.46Z" fill="#e7ad8b"/>
          <path d="M142,41.89a1.77,1.77,0,1,1-.75-2.6A1.92,1.92,0,0,1,142,41.89Z" fill="#3c3c3b"/>
          <path d="M127.68,38.1a1.77,1.77,0,1,1-.75-2.61A1.94,1.94,0,0,1,127.68,38.1Z" fill="#3c3c3b"/>
          <g>
            <path d="M129.94,45.45a1.21,1.21,0,0,0-.58.47,1.91,1.91,0,0,0-.33.67,1.5,1.5,0,0,0,.35,1.43c-.28-.42,0-1.33,0-1.33a4.23,4.23,0,0,1,.21-.63A2.75,2.75,0,0,1,129.94,45.45Z" fill="#c99357"/>
            <g>
              <path d="M133.83,48.84a.21.21,0,0,0,0-.33.71.71,0,0,0-.26-.22.41.41,0,0,0-.18,0,.38.38,0,0,0-.21,0,.77.77,0,0,0-.33.15c-.38.28-.35.47-.74.34A1.51,1.51,0,0,1,131,48c-.12-.18-.31-.45-.59-.43a.55.55,0,0,0-.35.08A.26.26,0,0,0,130,48c0-.25.28-.25.45-.2s.25.2.33.36a1.63,1.63,0,0,0,.34.61,1.45,1.45,0,0,0,.67.33,1.19,1.19,0,0,0,.72,0,2,2,0,0,0,.57-.38c.17-.14.28-.26.47-.21S134,48.61,133.83,48.84Z" fill="#c99357"/>
              <path d="M134.93,46.56a3.22,3.22,0,0,1,0,1.34,2.88,2.88,0,0,1-.53,1.23,1.48,1.48,0,0,0,.92-1.15,1.94,1.94,0,0,0,0-.76A1.07,1.07,0,0,0,134.93,46.56Z" fill="#c99357"/>
            </g>
          </g>
          <g>
            <path d="M171.41,120.05a8.09,8.09,0,0,1-4.4-2.33.65.65,0,0,1,.1-.93.74.74,0,0,1,1,.09h0a6.57,6.57,0,0,0,4.11,1.94" fill="#dd9666"/>
            <path d="M173,107a1.74,1.74,0,1,1-2.1-1.63A1.89,1.89,0,0,1,173,107Z" fill="#3a1e0a"/>
            <path d="M167.82,103.81a.67.67,0,0,1-.45-1.18c1.19-1,4.87-1.44,6.26-.21a.66.66,0,0,1-.88,1c-.84-.75-3.77-.37-4.55.25A.7.7,0,0,1,167.82,103.81Z" fill="#935c37"/>
            <ellipse cx="174.58" cy="112.59" rx="2.93" ry="2.49" fill="#f6d3a9"/>
          </g>
        </g>
      </g>
    </g>
  </g>
</svg>
