<svg xmlns="http://www.w3.org/2000/svg" viewBox="0 0 155 215">
  <title>_</title>
  <g>
    <g>
      <g>
        <g>
          <path d="M119.7,126.73s-12.18-1.72-15.17-3c-5.09-2.27-7.46-3.07-11.33-6-2.39-1.82-2.75-3-4.53-3.65s-1.39,1-.69,1.83.63,1.75,0,1.55a7.86,7.86,0,0,0-4.66.08c-1.82.72-1.44,3.22,2.78,4.52s3.52-.24,7.84,2.4c3.12,1.92,6.5,4.7,11.08,6.51s14.08,4.32,14.08,4.32Z" fill="#efb47f"/>
          <path d="M90,118.39c-3.77-1.92-11.13-1.08-12.21-1-.22,4-.33,6.52-1.5,10,1.87.74,6.21,1,8.17.94,6.48-.25,8-1.49,8.29-4A6.11,6.11,0,0,0,90,118.39Z" fill="#2d9fa5"/>
          <path d="M73.41,102.23c-1.92-1.93-5.3-2.39-4.82-3.6s3.86-1.7,4.34-2.66-1.2-1.69-4.34-1.45-8.52.64-9.63-.72C55.35,89.39,46,77.74,46,77.74c-.46-3.81.67-9.73,1.21-13.49,1-6.77-10.4-18-11-10.81s-1.58,22.66.09,28.32C38.48,88.91,53.55,99,56.1,101c4.3,3.37,12.94,6.5,15.85,6.74S75.34,104.16,73.41,102.23Z" fill="#bb7f45"/>
          <path d="M41.9,201.43a20.2,20.2,0,0,1-7.36-4.72c-.86-.91-2.68-1.75-2.23-5,.55-3.92,7.47-40.7,7.76-44,.57-6.42,4-63.92-9.88-54.92-4.44,2.89-6.14,15.9-5,23.28s3.18,23.14,2.05,29.25-1.76,6.17-1.26,15.17c.4,7.23-.88,28-1.34,34-.16,2.09-.65,4.49-.76,5.39-.4,3.34-1.1,6.42,7.76,7.51s11.42,1.77,14.49-.5S45.89,202.87,41.9,201.43Z" fill="#c7874b"/>
          <path d="M23.9,199.91s-1.65,3.65-.71,5.24,7.56,2.14,13.46,2.7,12.07,1.1,14.56.21c2.77-1,3.09-3.72-.62-4.95-1.19-.39-6.18-1.68-6.18-1.68S45,203.08,40.6,203C34.87,202.83,23.9,199.91,23.9,199.91Z" fill="#a53432"/>
          <path d="M30.72,203.35a23.76,23.76,0,0,1-8.37-4.71c-1-.91-3.05-1.76-2.54-5,.63-3.93,8.51-40.7,8.83-44,.65-6.43,4.5-63.92-11.24-54.92-5.06,2.89-7,15.89-5.7,23.28s3.62,23.14,2.33,29.24S12.24,155,12.81,164c.46,7.23-1.21,26.48-1.73,32.44-.19,2.1-.75,4.49-.87,5.39-.45,3.34-1.25,6.43,8.83,7.51s13,1.78,16.49-.5S35.26,204.79,30.72,203.35Z" fill="#c7874b"/>
          <path d="M10.21,201.83s-1.65,3.66-.71,5.24,7.56,2.15,13.46,2.71,12.08,1.1,14.57.2c2.76-1,3.08-3.71-.63-4.94-1.19-.39-6.18-1.69-6.18-1.69s.55,1.65-3.81,1.55C21.18,204.76,10.21,201.83,10.21,201.83Z" fill="#b7423a"/>
          <path d="M47.11,12c.47-1.7.33-7.21-3.37-7.94-4.57-.89-8.33,1-9.76,9s1.11,12.73-3,13A3.41,3.41,0,0,1,27,22.27s-2.51,5.25,1.13,8.79,10.52,2.43,13-5.08S46.58,13.88,47.11,12Z" fill="#231f20"/>
          <path d="M42.7,20.19s-2.22-5,1.15-7.61S51,14,51,14Z" fill="#b7423a"/>
          <g>
            <g>
              <path d="M46.46,54.46C47.84,50,48.56,46.34,50.78,42c-.14-2.63-5.3-9.09-5.3-9.09L43,38.52s-1.11,3.33-7.27,9.12C36.92,51,43.53,52.47,46.46,54.46Z" fill="#c7874b"/>
              <path d="M44.51,30.75c-.22,8.2,6.57,15,10.27,15.13,3.54.1,10.85-6.35,11.07-14.55s-4.37-15-10.26-15.13S44.74,22.56,44.51,30.75Z" fill="#c7874b"/>
            </g>
            <path d="M43,38.52c3.85-3.65,2.34-9.68,2.91-11s1.94-2.61,3-2.24,2.18,3,2.18,3a21.66,21.66,0,0,0,5.44-2.53c2.78-1.81,7.16-.51,7.16-.52s4.79-7-6.89-11.69c-5.33-2.12-9.69-1-12.6,2.18s-4.14,10.78-3.34,13.83C41.92,33.59,42.79,35.87,43,38.52Z" fill="#231f20"/>
            <path d="M55.79,23.29l-4.71,5S62,23.15,69.4,29C69,23.19,64,19.14,64,19.14Z" fill="#231f20"/>
          </g>
          <path d="M47.36,77.94c3-4.62,7.1-8.37,5.91-12.88-1.68-6.31-2.36-9.44-5.36-15.28-1.2-2.35-7.82-7.07-7.82-7.07a29.2,29.2,0,0,0-5.34,5.59C32.71,51,30,55.2,27,63.63a107.1,107.1,0,0,1-9.52,19.88c-4.19,7.11-8,13.38-8.77,31.81-.43,10.21-6,22.27-6,22.27a5.83,5.83,0,0,0,7.35,1.64c4.72-2,6,3,10.8,4.35,4,1.12,4-3.11,8.44-3.11s3.14,2.05,8.81,2.95c7.1,1.12,6.2-2.27,6.2-2.27s-5.56-41.49-5.59-50.52C38.68,81.17,45.28,81.15,47.36,77.94Z" fill="#b7423a"/>
          <path d="M17.48,83.51s6.35,6,13,8.37a53.36,53.36,0,0,0,11.44,2.88V92.83a75.93,75.93,0,0,1-11.44-3.7,60,60,0,0,1-11.83-7.56Z" fill="#fff"/>
          <g>
            <path d="M59.76,101.67A23.62,23.62,0,0,1,63.87,88.3a23.81,23.81,0,1,0,31.2,34.21,23.8,23.8,0,0,1-35.31-20.84Z" fill="#43b8c4"/>
            <path d="M75.37,85.33a23.65,23.65,0,0,0-11.5,3,23.8,23.8,0,0,0,31.2,34.21,23.81,23.81,0,0,0-19.7-37.18Z" fill="#65cbdb"/>
            <path d="M88.34,99.22c-1.25,1.25-3.75.78-5.58-1.06s-2.31-4.33-1.06-5.59,3.75-.77,5.59,1.06S89.59,98,88.34,99.22Z" fill="#fff" opacity="0.5"/>
          </g>
          <path d="M69.68,106.56c-1.93-1.93-5.5-3.25-5-4.47s3-.64,3.54-1.6S67.71,99,64.58,99.2s-8.25.29-9.36-1.07c-3.6-4.41-14.46-15.07-14.46-15.07C40.3,79.25,43,72.34,43.52,68.58c1-6.77,2.65-17-.79-19.21-5.74-3.74-9.61,1.22-10.18,8.4S31,80.43,32.63,86.08C34.75,93.24,50.31,102,52.86,104a33.73,33.73,0,0,0,11.64,6.16C68.52,111.09,71.6,108.49,69.68,106.56Z" fill="#c7874b"/>
          <path d="M10,135.35a1.64,1.64,0,1,1-1.29-1.92A1.64,1.64,0,0,1,10,135.35Z" fill="#fff"/>
          <circle cx="28.82" cy="133.4" r="1.64" fill="#fff"/>
          <circle cx="43.21" cy="133.4" r="1.64" fill="#fff"/>
          <circle cx="21.26" cy="137.59" r="1.64" fill="#fff"/>
          <circle cx="16.3" cy="131.76" r="1.64" fill="#fff"/>
          <circle cx="36.48" cy="137.59" r="1.64" fill="#fff"/>
          <g>
            <circle cx="85.34" cy="190.27" r="15.84" transform="translate(-119.45 229.61) rotate(-76.72)" fill="#b3bd45"/>
            <path d="M76.82,176.93a18.79,18.79,0,0,0-.51,16.54c5.37,11.42,17.39,10.25,17.39,10.25l2.6-2s-13.14.84-18.07-10.05c-2.83-6.25.58-15.83.58-15.83Z" fill="#9aa02e"/>
            <path d="M94.77,186.06c-1.09,1.09-3.26.68-4.86-.92s-2-3.77-.92-4.86,3.27-.68,4.86.92S95.86,185,94.77,186.06Z" fill="#fff" opacity="0.5"/>
          </g>
          <path d="M115.57,166.67s-4.72,8.49-6.2,13.06c-.87,2.67-4.89,19.35-6.6,21.46-1,1.28-3.54-.18-8.53.32-3.75.37-2.9,2.55.9,3.74,3.44,1.08,4.51.76,9.37,2.18.8.24,3,.15,3.49-.85.42-.84.06-1.24.74-3,2.11-5.56,9.48-14.24,9.48-21.23,4.53-5.73,6.41-9.82,6.93-13.68C125.3,167.53,115.57,166.67,115.57,166.67Z" fill="#ffcd9c"/>
          <path d="M126.52,165.81s3,9,5.39,13.27c1.42,2.53,11.41,17.65,11.72,20.12.18,1.51-3,1.52-6.52,4.26-2.68,2.06-.29,3.39,3.67,2.55,3.58-.77,4.17-1.52,9.16-2.67.82-.19,2.48-1.29,2.08-2.32-.32-.86-.92-1-1.8-2.76-2.72-5.4-3.73-15.74-9.25-21.29-.93-6.67-2.67-10.8-5.3-14.11C134.92,161.92,126.52,165.81,126.52,165.81Z" fill="#ffcd9c"/>
          <path d="M116.21,159.76,110,178a13.68,13.68,0,0,0,5.62,3.95c5.17,1.78,6.71,1.24,6.71,1.24l3.67-7.89,4,6.9s7.94-1,12.16-4.2c-1.42-6.47-5.64-18.2-5.64-18.2Z" fill="#103754"/>
          <g>
            <path d="M118.1,120.86s1.54,10.21.78,14.12c-.51,2.63.62,2.29,3,1.16a26.78,26.78,0,0,0,6.22-4.74s-1.85-2.36-2-7.07l-.16-4.7Z" fill="#efb47f"/>
            <path d="M131.73,116.85A10.76,10.76,0,0,1,117,124c-5.14-2.42-6.1-10-3.12-16.38s8.79-9,13.92-6.6S133.45,110.05,131.73,116.85Z" fill="#ffcd9c"/>
            <path d="M123.29,107.86c2.41,1.09,4.15,2.79,3.94,6.1-.36,5.64-.36,10.34-.36,10.34,5.33-.65,9.54-11.1,9.73-15.14.41-4.64-2.84-8.91-6-10.61-.4-.22-.8-.42-1.19-.59" fill="#1d1a15"/>
            <path d="M127.23,114s4-.32,3.29,3.27a4.23,4.23,0,0,1-4.43,3.33v-4.62Z" fill="#ffcd9c"/>
          </g>
          <path d="M126.18,127.28a11.86,11.86,0,0,1,7.51,7.66c1.93,6.11,4.7,26.74,4.7,26.74s-6.24,2.25-10.72,3.37c-6.47,1.61-13.25-2.17-13.25-2.17s1.43-13.42,1.91-21.13c.62-9.87,2.43-11.94,2.43-11.94S124.82,130.48,126.18,127.28Z" fill="#65cbdb"/>
          <path d="M118,128.53s-12.08-2.31-15-3.79c-5-2.51-7.3-3.43-11-6.55-2.31-1.93-2.61-3.12-4.36-3.87s-1.43.94-.77,1.8.54,1.78-.12,1.55a7.89,7.89,0,0,0-4.66-.15c-1.85.63-1.6,3.15,2.56,4.64s3.53-.06,7.71,2.79c3,2.07,6.26,5,10.75,7S117,137,117,137Z" fill="#ffcd9c"/>
          <path d="M127.67,128.8c-3.67-2.1-11.06-1.62-12.14-1.64-.41,4-.65,6.5-2,9.92,1.82.84,6.15,1.32,8.1,1.34,6.49.07,8.09-1.09,8.49-3.6A6.09,6.09,0,0,0,127.67,128.8Z" fill="#43b8c4"/>
          <path d="M127.25,110.61a18.53,18.53,0,0,0-6.07-2.19,34.07,34.07,0,0,1,.67-6.56l-2.95,6.28-.71,0a47.84,47.84,0,0,1,2.52-5.42,57.33,57.33,0,0,0-2.94,5.4c-5.38-.31-5.84.73-7.12,1.5a12.23,12.23,0,0,1,8-12.12c4.61-1.91,10.51-.25,14.48,3" fill="#1d1a15"/>
        </g>
        <path d="M63,35.2a.42.42,0,0,1-.18-.11,2.64,2.64,0,0,0-2.43-.87.34.34,0,1,1-.07-.67,3.32,3.32,0,0,1,3,1.11.33.33,0,0,1,0,.47A.31.31,0,0,1,63,35.2Z" fill="#865b2f"/>
        <path d="M60.13,31.77a3.41,3.41,0,0,1,2.38-.18,2.71,2.71,0,0,1,1.07.63,2.15,2.15,0,0,1,.62,1,5,5,0,0,0-.85-.76,3.26,3.26,0,0,0-1-.46,5.4,5.4,0,0,0-1.09-.21C60.91,31.79,60.53,31.78,60.13,31.77Z" fill="#1f160f"/>
        <path d="M60.5,42.84c-.36,0-.31-.05-.62-.11a4.91,4.91,0,0,1-3.13-2.22.41.41,0,0,1,.18-.58.48.48,0,0,1,.62.18h0A4.08,4.08,0,0,0,61.37,42" fill="#865b2f"/>
      </g>
      <ellipse cx="63.62" cy="38.13" rx="1.64" ry="1.92" transform="translate(-3.57 69.53) rotate(-55.98)" fill="#c7874b"/>
    </g>
    <path d="M119,116.29a2.12,2.12,0,0,1-1.65.55,1.39,1.39,0,0,1-.81-.42,1.67,1.67,0,0,1-.42-.77,1.88,1.88,0,0,0,1.27.94,2.18,2.18,0,0,0,.8,0A5,5,0,0,0,119,116.29Z" fill="#ba8663"/>
    <path d="M120.89,113.59a1,1,0,1,0,1.25-.94A1.12,1.12,0,0,0,120.89,113.59Z" fill="#3a1e0a"/>
    <path d="M113.82,112.06a1,1,0,1,0,1.26-.94A1.11,1.11,0,0,0,113.82,112.06Z" fill="#3a1e0a"/>
    <path d="M123.74,112a.32.32,0,0,0,.25,0,.34.34,0,0,0,.12-.46,2.93,2.93,0,0,0-3.1-1,.33.33,0,0,0-.19.44.33.33,0,0,0,.43.19,2.27,2.27,0,0,1,2.28.74A.33.33,0,0,0,123.74,112Z" fill="#3a1e0a"/>
    <path d="M113.86,109.84a.35.35,0,0,0,.26,0,2.07,2.07,0,0,1,2.41.59A.33.33,0,0,0,117,110a2.7,2.7,0,0,0-3.29-.72.33.33,0,0,0-.1.46A.35.35,0,0,0,113.86,109.84Z" fill="#3a1e0a"/>
    <path d="M116.87,120.6a3.59,3.59,0,0,0,2.54-.36.35.35,0,0,0,.09-.47.34.34,0,0,0-.47-.08,3.26,3.26,0,0,1-2.62.1,1.79,1.79,0,0,1-1.21-.93.34.34,0,0,0-.64.21,2.37,2.37,0,0,0,1.64,1.36A4.1,4.1,0,0,0,116.87,120.6Z" fill="#ba8663"/>
  </g>
</svg>
