<svg xmlns="http://www.w3.org/2000/svg" viewBox="0 0 260 400">
  <title>_</title>
  <g>
    <rect x="14.33" y="81.77" width="231.43" height="248.54" fill="#fff" stroke="#029ab3" stroke-miterlimit="10" stroke-width="1.06"/>
    <g>
      <g>
        <path d="M48.28,27.16s-3.66.61-1.79,3.45,5,.88,5,.88Z" fill="#c99357"/>
        <g>
          <path d="M71.89,57.49s6.31-1.36,8.16-.45,7,4.33,7.84,3.48c1.68-1.75,3.57-2.5,5.13-1.66s.16,3.82-1.46,5-4.22,3.57-5.31,2.87A24.27,24.27,0,0,0,80,64.58c-2.63-.62-8.84-2-8.84-2Z" fill="#bb894f"/>
          <path d="M55.55,59.48s-2,7.53,1.51,9.35a14.85,14.85,0,0,0,9.31.93c1.44-.34,7.28-1.77,7.28-1.77a13,13,0,0,0,5.28,2.06c2.46.15,3.43-1.16,5.7-.62A4.52,4.52,0,0,0,88.45,69c1.06-.44,4.14-2.61,3.54-4.76s-1.62-2.82-3.13-1.53-2.82,2.73-4,2.48-6.23-3.41-9.07-3.77S55.55,59.48,55.55,59.48Z" fill="#c99357"/>
          <path d="M61.89,36s2-2.08,5.11-5.18c2.61-2.56,8.1-6.8,9.52-9.65s1.94-4.32,2.24-3.23c.12.46.19,1,.3,1.22.19.48.84,0,1.09-.18,1-.59,3.59-1.86,4.14-.23.71,2.1-.49,3.36-2.67,4.07-1.52.49-2,.88-4.22,3.73-2.58,3.32-4.6,7.54-7,10.17a10.06,10.06,0,0,0-1.83,3.58Z" fill="#bb894f"/>
          <path d="M55.28,36.58s-3.47.72-2.24,7.36c.66,3.56,2.08,8.84,1.31,12.52S49.5,67.29,49.5,67.29s4.67,4.93,9.21.49c3.42-3.36,6.68,2.34,8.62-1.36a7.63,7.63,0,0,1,6.56-4.58c3.4-.25,5.18.34,6.69-3.93.36-1,1.31-5.14,1.31-5.14s-7-1.38-10.06-.36c-1.4-5.16-1.66-10-3.54-13.06s-5.58-5.71-6.94-5.23S55.28,36.58,55.28,36.58Z" fill="#ef9a9a"/>
          <path d="M60.65,30.6A20.35,20.35,0,0,0,62.24,35a1.73,1.73,0,0,1,0,1.61c-.47.84-1.46,1.67-3.68,1.89a7.23,7.23,0,0,1-4.66-.8,20.43,20.43,0,0,0,.49-6.61c-.09-1.06-.47-2.25.6-2.17l4.09.33A1.7,1.7,0,0,1,60.65,30.6Z" fill="#c99357"/>
          <path d="M48.22,28.9c2.7,4.59,7.93,6.52,11.67,4.31s4.59-7.71,1.88-12.3-7.93-6.52-11.68-4.31S45.51,24.31,48.22,28.9Z" fill="#c99357"/>
          <path d="M46.19,16.54c-.38.2-1.42-2.52-5.91-1.69-4,.73-3.81,3.3-4.29,5.9-.38,2-2.94,1.65-2.94,1.65a7.53,7.53,0,0,0,4.76,2.54c4.79.77,9.25-3,9.25-3Z" fill="#42312a"/>
          <path d="M46.86,14.57s-2.68-2-5.57,3.71c-2.33,4.58,1.64,8.25,4.05,8.06S46.86,14.57,46.86,14.57Z" fill="#ef9a9a"/>
          <path d="M48.7,30.22a2.57,2.57,0,0,1-.15-2.64c1.21.15,4.83-1,6.2-5a6.7,6.7,0,0,0,.13-4.73l5.65,1.36s1.7-6.09-6.36-5.93c-6.62-3.14-10.29,3.93-11,6.63C42.49,22.41,43.51,29.94,48.7,30.22Z" fill="#42312a"/>
          <path d="M59.89,19s1.44-2.07,2.92.38-.45,3.81-.45,3.81Z" fill="#c99357"/>
          <path d="M55.39,41.79c.38-.67,2.86-1.54,5.19-1.59,3.29-.07,6.85.78,8.73-.16,1.67-.83,7.11-5,8-6.38s.17-2.52.52-3.44c.3-.77.6-.46.94.39.27.68.33,1.84.87,1.51.37-.24.72-.64,1.63-1.36,1.48-1.17,3.42-1.43,3.4.72s-3,3.56-4.69,5-4.23,5-6.79,6.93-10.34,5.4-13.58,4.43C57.35,47.15,53.73,44.7,55.39,41.79Z" fill="#c99357"/>
        </g>
      </g>
      <path d="M60.59,27.39a4.42,4.42,0,0,1-3.32,2.51,2.15,2.15,0,0,0,3.14.19A1.82,1.82,0,0,0,60.59,27.39Z" fill="#ab753c"/>
      <path d="M58.15,23.43a.79.79,0,1,0-.07-1.22A.88.88,0,0,0,58.15,23.43Z" fill="#231f20"/>
      <path d="M52.76,27.51a.86.86,0,0,0,1.21.15.87.87,0,0,0-.08-1.22.86.86,0,0,0-1.21-.15A.87.87,0,0,0,52.76,27.51Z" fill="#231f20"/>
      <path d="M56.27,21.28a5.57,5.57,0,0,1,2.47-.94s-.81-.63-2.59.51C56.15,20.85,56,21.47,56.27,21.28Z" fill="#42312a"/>
      <path d="M58.59,25.7a1.46,1.46,0,0,1-.5,1.49,1.54,1.54,0,0,1-.79.28,1.73,1.73,0,0,1-.78-.16,2.72,2.72,0,0,0,1.34-.42A2.31,2.31,0,0,0,58.59,25.7Z" fill="#b17639"/>
    </g>
    <g>
      <path d="M107.06,55.09c-1.59.09-2.45.13-2.6.13a1.47,1.47,0,0,1-1.06-.65,2.11,2.11,0,0,1-.52-1.35q0-1.08,6.27-1.08a12.64,12.64,0,0,1,4.73.66c1,.44,1.51,1,1.51,1.61a.67.67,0,0,1-.33.53,1.31,1.31,0,0,1-.83.26c-.34,0-1,0-1.85-.07L109.94,55a2,2,0,0,1,.09.62,7.56,7.56,0,0,1-.26,1.39c-.17.69-.4,1.64-.71,2.87s-.65,2.7-1,4.44a26.87,26.87,0,0,1-.76,3.1c-.14.33-.28.5-.41.5-.31,0-.69-.28-1.16-.85a2.45,2.45,0,0,1-.69-1.37,39.4,39.4,0,0,1,.9-4.37A46.53,46.53,0,0,0,107.06,55.09Z"/>
      <path d="M115.78,59.18c1.14-1.64,2.26-2.46,3.38-2.46A3.77,3.77,0,0,1,122,57.89a4,4,0,0,1,1.15,2.84,8,8,0,0,1-.8,3.38A7.6,7.6,0,0,1,120.1,67,4.85,4.85,0,0,1,117,68.09,2.64,2.64,0,0,1,115,67a4,4,0,0,1-.88-2.62A9,9,0,0,1,115.78,59.18Zm3.57,4.53a6.26,6.26,0,0,0,.88-3,3.45,3.45,0,0,0-.39-1.94A5.73,5.73,0,0,0,118,61.07a6.76,6.76,0,0,0-.94,3.09,3.29,3.29,0,0,0,.27,1.69A4.65,4.65,0,0,0,119.35,63.71Z"/>
      <path d="M133.61,50.58c.35,0,.81.32,1.39,1a2.8,2.8,0,0,1,.85,1.8,28.38,28.38,0,0,1-.77,3.47c-.51,2-.82,3.27-.92,3.7q-1.75,7.59-2.57,7.59a1.59,1.59,0,0,1-1-.55,1.56,1.56,0,0,1-.57-1.08.72.72,0,0,1,0-.17c-1.46,1.2-2.52,1.8-3.15,1.8a2.49,2.49,0,0,1-1.85-1,3,3,0,0,1-.89-1.86,8.13,8.13,0,0,1,.23-1.86,12.72,12.72,0,0,1,.71-2.17A15.4,15.4,0,0,1,126.16,59a5.88,5.88,0,0,1,1.52-1.65,3.06,3.06,0,0,1,1.84-.65,2.65,2.65,0,0,1,2.31,1.43A35.79,35.79,0,0,0,133,51.24C133,50.8,133.18,50.58,133.61,50.58ZM127.12,65.3a4.13,4.13,0,0,0,1.86-1,5.84,5.84,0,0,0,2-2.4,5.94,5.94,0,0,1,0-.77,1.86,1.86,0,0,0-.39-1.12c-.27-.35-.51-.53-.73-.53a1.69,1.69,0,0,0-1.26.71,5.26,5.26,0,0,0-1,1.67,10,10,0,0,0-.75,3.1.32.32,0,0,0,.06.23S127,65.3,127.12,65.3Z"/>
      <path d="M145.47,50.58c.35,0,.81.32,1.38,1a2.77,2.77,0,0,1,.86,1.8,28.38,28.38,0,0,1-.77,3.47c-.51,2-.82,3.27-.92,3.7-1.18,5.06-2,7.59-2.58,7.59a1.59,1.59,0,0,1-1-.55,1.56,1.56,0,0,1-.57-1.08.72.72,0,0,1,0-.17c-1.47,1.2-2.52,1.8-3.16,1.8a2.51,2.51,0,0,1-1.85-1,3,3,0,0,1-.89-1.86,8.73,8.73,0,0,1,.23-1.86,13.76,13.76,0,0,1,.72-2.17A14.39,14.39,0,0,1,138,59a5.74,5.74,0,0,1,1.52-1.65,3,3,0,0,1,1.84-.65,2.67,2.67,0,0,1,2.31,1.43,35.79,35.79,0,0,0,1.14-6.93C144.83,50.8,145,50.58,145.47,50.58ZM139,65.3a4.23,4.23,0,0,0,1.86-1,5.74,5.74,0,0,0,1.94-2.4c0-.12,0-.37,0-.77a1.86,1.86,0,0,0-.39-1.12c-.27-.35-.51-.53-.73-.53a1.72,1.72,0,0,0-1.27.71,5.24,5.24,0,0,0-1,1.67,10,10,0,0,0-.75,3.1.39.39,0,0,0,.05.23A.39.39,0,0,0,139,65.3Z"/>
      <path d="M152.4,51.55a2.91,2.91,0,0,1,.83,1.84c0,.59-.09,1.64-.26,3.14s-.36,2.7-.55,3.6q-1.83,8-2.55,8-.5,0-1.2-.78A2.18,2.18,0,0,1,148,66s.2-.79.6-2.29.79-3.42,1.2-5.77a40.32,40.32,0,0,0,.6-6.74c0-.43.23-.64.68-.64S151.84,50.9,152.4,51.55Z"/>
      <path d="M162.18,62.79a5.92,5.92,0,0,1-3,.86,12.5,12.5,0,0,1-2.53-.22,3.75,3.75,0,0,0-.2,1.18,1.41,1.41,0,0,0,.2.85c.13.17.46.25,1,.25a11.58,11.58,0,0,0,2.83-.3c.78-.21,1.19-.31,1.22-.31.6,0,.9.2.9.59,0,.57-.47,1.12-1.42,1.63a6.75,6.75,0,0,1-3.27.77,4,4,0,0,1-3-1.17,3.85,3.85,0,0,1-1.12-2.76,7,7,0,0,1,.94-3.33,9.79,9.79,0,0,1,2.34-2.92,4.4,4.4,0,0,1,2.81-1.17,3.42,3.42,0,0,1,2.58,1.37,4.24,4.24,0,0,1,1.19,2.74C163.64,61.57,163.15,62.22,162.18,62.79Zm-1.56-2.93a1.31,1.31,0,0,0-.86-.42,1.8,1.8,0,0,0-1,.59,7.32,7.32,0,0,0-1.21,1.5,4,4,0,0,0,.57,0c2,0,3-.36,3-1.06C161.09,60.35,160.93,60.14,160.62,59.86Z"/>
      <path d="M165.73,60.46,165.6,58c0-.82.25-1.23.77-1.23a1.39,1.39,0,0,1,.86.33,1.94,1.94,0,0,1,.65,1A7,7,0,0,1,169.52,57a3.9,3.9,0,0,1,1.58-.4c1.07,0,1.6.26,1.6.77a1,1,0,0,1-.14.58l-.22.28-.26.23-.28.21-.73.46a6.69,6.69,0,0,0-1.69,1.48,6,6,0,0,0-1.06,2.41,21.55,21.55,0,0,1-1.15,3.77c-.37.83-.79,1.25-1.25,1.25a1.1,1.1,0,0,1-1-.66,2.71,2.71,0,0,1-.34-1.25,5.53,5.53,0,0,1,.43-1.74,12.88,12.88,0,0,0,.59-2A10.15,10.15,0,0,0,165.73,60.46Z"/>
      <path d="M179.5,56.76a2.22,2.22,0,0,1,1.65,1,3,3,0,0,1,.81,1.78c0,.35-.15.53-.46.53a2.28,2.28,0,0,1-.77-.21,2.66,2.66,0,0,0-1-.21,5.19,5.19,0,0,0-1.52.35c-.67.24-1,.55-1,.93,0,.14.2.36.59.64s.83.56,1.3.85a5,5,0,0,1,1.3,1.23,2.7,2.7,0,0,1,.59,1.69c0,.61-.44,1.22-1.33,1.84a5.36,5.36,0,0,1-3.12.92,5.6,5.6,0,0,1-3.07-.81c-.85-.55-1.28-1.1-1.28-1.68s.24-.85.71-.85a1.41,1.41,0,0,1,.68.22,5.44,5.44,0,0,0,2.74.63c1.09,0,1.64-.14,1.64-.44a1.45,1.45,0,0,0-.63-1,12.9,12.9,0,0,0-1.36-1,6.59,6.59,0,0,1-1.37-1.13,2,2,0,0,1-.62-1.31c0-.79.71-1.65,2.15-2.58A7.06,7.06,0,0,1,179.5,56.76Z"/>
    </g>
    <rect x="13.79" y="330.31" width="232.43" height="56.23" fill="#f0f5eb"/>
    <g>
      <g>
        <path d="M123.06,163.87A36.06,36.06,0,1,0,87,127.81a36.06,36.06,0,0,0,36.06,36.06" fill="#bfe3e9"/>
        <path d="M123.06,157.84a30.22,30.22,0,1,0-30.21-30.22,30.21,30.21,0,0,0,30.21,30.22" fill="#fff"/>
        <path d="M123.06,98.84a28.78,28.78,0,1,0,28.78,28.78,28.81,28.81,0,0,0-28.78-28.78m0,60.43a31.65,31.65,0,1,1,31.65-31.65,31.69,31.69,0,0,1-31.65,31.65" fill="#029ab3"/>
        <rect x="121.63" y="100.67" width="2.87" height="5.6" fill="#029ab3"/>
        <rect x="132.34" y="105.28" width="5.6" height="2.87" transform="matrix(0.5, -0.87, 0.87, 0.5, -24.84, 170.38)" fill="#029ab3"/>
        <rect x="141.18" y="114.11" width="5.6" height="2.87" transform="translate(-38.48 87.43) rotate(-29.99)" fill="#029ab3"/>
        <rect x="144.66" y="126.19" width="5.6" height="2.87" fill="#029ab3"/>
        <rect x="142.54" y="136.9" width="2.87" height="5.6" transform="translate(-49 194.51) rotate(-59.99)" fill="#029ab3"/>
        <rect x="133.7" y="145.74" width="2.87" height="5.6" transform="translate(-56.17 87.48) rotate(-30)" fill="#029ab3"/>
        <rect x="121.88" y="148.97" width="2.87" height="5.6" fill="#029ab3"/>
        <polygon points="111.08 151.68 108.34 150.25 111.14 145.4 113.88 146.83 111.08 151.68" fill="#029ab3"/>
        <rect x="99.6" y="138.27" width="5.6" height="2.87" transform="translate(-56.12 69.89) rotate(-29.99)" fill="#029ab3"/>
        <rect x="96.36" y="126.19" width="5.6" height="2.87" fill="#029ab3"/>
        <rect x="100.71" y="112.75" width="2.87" height="5.6" transform="translate(-49 146.2) rotate(-59.98)" fill="#029ab3"/>
        <rect x="109.55" y="103.91" width="2.87" height="5.6" transform="translate(-38.48 69.76) rotate(-29.99)" fill="#029ab3"/>
        <path d="M123.06,127.37a.27.27,0,0,0-.19.09.28.28,0,0,0-.06.18.26.26,0,0,0,.08.17.23.23,0,0,0,.36,0,.26.26,0,0,0,0-.36.27.27,0,0,0-.17-.06m0,3.37h0A3.13,3.13,0,0,1,121,130a3.13,3.13,0,0,1-.24-4.41,3.12,3.12,0,1,1,2.32,5.2" fill="#029ab3"/>
        <rect x="121.25" y="118.38" width="17.59" height="2.87" transform="translate(-45.95 136.86) rotate(-48.19)" fill="#029ab3"/>
        <rect x="115.12" y="114.05" width="2.87" height="15.49" transform="translate(-51.93 127.49) rotate(-48.19)" fill="#029ab3"/>
      </g>
      <g>
        <path d="M194.83,130.74a28.53,28.53,0,1,1-28.53-28.35,28.44,28.44,0,0,1,28.53,28.35" fill="#e10000"/>
        <g>
          <path d="M165.8,121.38q0,3.34-1.44,4.85t-4.63,1.5a12.3,12.3,0,0,1-1.59-.08v-2.44a7.5,7.5,0,0,0,1.34.12,4.21,4.21,0,0,0,2.56-.68,2.77,2.77,0,0,0,1-2.16h-.09a3.25,3.25,0,0,1-.6.81,2,2,0,0,1-.73.38,3.61,3.61,0,0,1-1.07.14,2.85,2.85,0,0,1-2.32-1,4.09,4.09,0,0,1-.84-2.73,3.74,3.74,0,0,1,4-4,3.94,3.94,0,0,1,3.24,1.39A6,6,0,0,1,165.8,121.38Zm-4.3-2.88a1.06,1.06,0,0,0-.83.37,1.81,1.81,0,0,0-.31,1.18,1.71,1.71,0,0,0,.27,1,1,1,0,0,0,.83.38,1.22,1.22,0,0,0,.89-.37,1.18,1.18,0,0,0,.37-.88,2,2,0,0,0-.35-1.2A1,1,0,0,0,161.5,118.5Z" fill="#fff"/>
          <path d="M175.14,121.88a7.66,7.66,0,0,1-1,4.44,3.58,3.58,0,0,1-3.11,1.41,3.53,3.53,0,0,1-3.08-1.47,7.53,7.53,0,0,1-1-4.38,7.85,7.85,0,0,1,1-4.47A3.57,3.57,0,0,1,171,116a3.51,3.51,0,0,1,3.08,1.48A7.63,7.63,0,0,1,175.14,121.88Zm-5.18,0a9.78,9.78,0,0,0,.24,2.66c.16.49.43.73.81.73s.66-.25.82-.75a9.86,9.86,0,0,0,.24-2.64,9.52,9.52,0,0,0-.25-2.66c-.16-.51-.43-.76-.81-.76s-.65.24-.81.73A10,10,0,0,0,170,121.88Z" fill="#fff"/>
          <path d="M164.24,141.57V136a2.31,2.31,0,0,0-.44-1.53,1.69,1.69,0,0,0-1.36-.51,2.21,2.21,0,0,0-1.79.69,3.35,3.35,0,0,0-.58,2.14v4.78h-1.29V136a2.31,2.31,0,0,0-.44-1.53A1.71,1.71,0,0,0,157,134a2.1,2.1,0,0,0-1.78.73,3.92,3.92,0,0,0-.57,2.39v4.49h-1.3V133h1.06l.21,1.17h.06a2.57,2.57,0,0,1,1-1,3.06,3.06,0,0,1,1.49-.35,2.54,2.54,0,0,1,2.63,1.45h.06a2.77,2.77,0,0,1,1.11-1.06,3.45,3.45,0,0,1,1.66-.39,2.87,2.87,0,0,1,2.17.74,3.35,3.35,0,0,1,.73,2.39v5.58Z" fill="#fff"/>
          <path d="M168.1,130.69a.84.84,0,0,1,.22-.65.73.73,0,0,1,.54-.21.76.76,0,0,1,.54.21,1,1,0,0,1,0,1.3.73.73,0,0,1-.54.22.7.7,0,0,1-.54-.22A.85.85,0,0,1,168.1,130.69Zm1.4,10.88h-1.29V133h1.29Z" fill="#fff"/>
          <path d="M178.11,141.57V136a2.3,2.3,0,0,0-.47-1.57,2,2,0,0,0-1.5-.51,2.45,2.45,0,0,0-2,.72,3.67,3.67,0,0,0-.63,2.4v4.49h-1.3V133h1.06l.21,1.17h.06a2.68,2.68,0,0,1,1.12-1,3.64,3.64,0,0,1,1.6-.34,3.24,3.24,0,0,1,2.33.74,3.18,3.18,0,0,1,.78,2.39v5.58Z" fill="#fff"/>
        </g>
      </g>
    </g>
    <g>
      <path d="M38.62,241.11a2.36,2.36,0,0,1,2.12,1.12,5.08,5.08,0,0,1,.72,2.81,5.89,5.89,0,0,1-.83,3.07,2.34,2.34,0,0,1-1.93,1.39,1.2,1.2,0,0,1-1.13-.86,8.08,8.08,0,0,1-.46-2.46L36,247.78c-.83,1.16-1.41,1.73-1.75,1.73-.13,0-.27-.1-.44-.31a1.21,1.21,0,0,1-.25-.79c0-.31.1-1.3.32-3a31.1,31.1,0,0,0,.32-3.88q0-.45.27-.45a1.05,1.05,0,0,1,.62.32.82.82,0,0,1,.35.57c0,.17-.13,1-.4,2.53s-.44,2.72-.5,3.58a15.88,15.88,0,0,1,1.65-2.29c.61-.7,1-1.05,1.31-1.05s.46.6.57,1.8a6.51,6.51,0,0,0,.23,1.24c.12.38.28.56.48.56q.66,0,1.17-1.08a5.77,5.77,0,0,0,.49-2.41,3.47,3.47,0,0,0-.64-2.25,1,1,0,0,0-.74-.42,1,1,0,0,1-.69-.28.77.77,0,0,1-.28-.48C38,241.23,38.23,241.11,38.62,241.11Z" fill="#231f20"/>
      <path d="M47.19,245.59a1.2,1.2,0,0,1-.69,1,3,3,0,0,1-1.56.4,6,6,0,0,1-1.58-.19,3.18,3.18,0,0,0-.17.94.81.81,0,0,0,.26.64,1.27,1.27,0,0,0,.85.23,3.82,3.82,0,0,0,1.22-.21,6.13,6.13,0,0,1,.69-.21c.21,0,.32.08.32.24s-.25.45-.74.7a3.09,3.09,0,0,1-1.42.38,2.13,2.13,0,0,1-1.53-.56,1.86,1.86,0,0,1-.59-1.41,4.1,4.1,0,0,1,.46-1.78,5,5,0,0,1,1.18-1.57,2.17,2.17,0,0,1,1.42-.63,1.66,1.66,0,0,1,1.29.67A2.05,2.05,0,0,1,47.19,245.59Zm-1.82-1a1.37,1.37,0,0,0-.92.46,4.27,4.27,0,0,0-.82,1.14,4.6,4.6,0,0,0,1.1.11,2.51,2.51,0,0,0,1.06-.2c.31-.13.46-.3.46-.52a1.07,1.07,0,0,0-.29-.66A.82.82,0,0,0,45.37,244.56Z" fill="#231f20"/>
      <path d="M56.53,243.57a1.07,1.07,0,0,1,.9.66,2.74,2.74,0,0,1,.38,1.36A2.82,2.82,0,0,1,57.4,247a5.28,5.28,0,0,1-1,1.25,5.54,5.54,0,0,1-1.33.92,3.05,3.05,0,0,1-1.33.37,1.7,1.7,0,0,1-.46-.06l-.17.73c-.08.35-.15.64-.2.87l-.19.75q-.23.81-.39.81c-.11,0-.23-.08-.35-.25a.82.82,0,0,1-.19-.47,15.66,15.66,0,0,1,.39-1.75,33.48,33.48,0,0,0,1.15-6.29c0-.24.09-.36.26-.36a.82.82,0,0,1,.52.32,1,1,0,0,1,.31.7,2.18,2.18,0,0,1,0,.42A2.92,2.92,0,0,1,56.53,243.57Zm-2.92,5a2.72,2.72,0,0,0,1.37-.43A4.18,4.18,0,0,0,56.24,247a2.37,2.37,0,0,0,.52-1.42c0-.66-.15-1-.47-1s-.73.27-1.26.81a5.6,5.6,0,0,0-1.27,2.09l-.27,1.1Z" fill="#231f20"/>
      <path d="M60.71,241.26a24.13,24.13,0,0,1-.94,5.85c-.4,1.63-.68,2.45-.84,2.45s-.24-.09-.39-.26a.86.86,0,0,1-.22-.41c0-.1.12-.59.35-1.49s.46-2,.7-3.31a20.42,20.42,0,0,0,.34-3.53.48.48,0,0,1,0-.24s.1-.07.21-.07.25.11.45.34A1.07,1.07,0,0,1,60.71,241.26Z" fill="#231f20"/>
      <path d="M65.47,244.15a1.37,1.37,0,0,1,.16,1.88.59.59,0,0,1,.14.31,7.5,7.5,0,0,1-.15,1.16c-.1.54-.16.9-.18,1.06s0,.31,0,.41l-.06.29c0,.2-.11.3-.22.3s-.26-.13-.35-.38a3.17,3.17,0,0,1-.16-1c-.71.91-1.38,1.36-2,1.36a1.67,1.67,0,0,1-1.09-.47,1.37,1.37,0,0,1-.53-1,4.06,4.06,0,0,1,.53-1.78,6.9,6.9,0,0,1,1.36-1.89,2.34,2.34,0,0,1,1.59-.83A1.29,1.29,0,0,1,65.47,244.15ZM65,245.72c0-.74-.15-1.12-.44-1.12a1.72,1.72,0,0,0-1.1.67,6.47,6.47,0,0,0-1.05,1.51,3.13,3.13,0,0,0-.43,1.33.41.41,0,0,0,.16.33.7.7,0,0,0,.4.12,1.89,1.89,0,0,0,1.27-.76,4.25,4.25,0,0,0,1-1.85.26.26,0,0,1,.2-.22Z" fill="#231f20"/>
      <path d="M71.61,243.61c.12,0,.26.09.41.28a1,1,0,0,1,.22.63,8.88,8.88,0,0,1-.49,1.63L71.08,248c-.11.33-.27.77-.46,1.32s-.39,1.08-.57,1.6c-.41,1.15-1,1.72-1.8,1.72a2.35,2.35,0,0,1-1.31-.41c-.42-.28-.63-.57-.63-.86a.63.63,0,0,1,.15-.37c.1-.14.19-.21.26-.21s.19.09.35.27c.46.52.86.79,1.19.79s.47-.22.67-.66a14.17,14.17,0,0,0,.57-1.47l.3-.91.07-.21c0-.09.06-.17.08-.24-.57.77-1.13,1.16-1.68,1.16a1.24,1.24,0,0,1-.93-.47,1.6,1.6,0,0,1-.43-1.1,6.9,6.9,0,0,1,.31-1.72A10,10,0,0,1,68,244.4c.28-.53.51-.79.68-.79a.51.51,0,0,1,.4.2.56.56,0,0,1,.19.4,2.66,2.66,0,0,1-.31.85,7.76,7.76,0,0,0-1,3.1.43.43,0,0,0,.12.31.34.34,0,0,0,.28.13c.29,0,.64-.26,1-.77a10.08,10.08,0,0,0,1.1-1.82,21.45,21.45,0,0,0,.88-2.27C71.4,243.65,71.48,243.61,71.61,243.61Z" fill="#231f20"/>
      <path d="M82.1,246.32a1.93,1.93,0,0,1-.42,1.09,16.85,16.85,0,0,0-.69,2.11,16.44,16.44,0,0,1-.63,2,1.64,1.64,0,0,1-1.54,1.22,2.24,2.24,0,0,1-1.44-.46,1.23,1.23,0,0,1-.58-.92.82.82,0,0,1,.11-.38c.08-.13.16-.19.24-.19s.18.06.29.18a4,4,0,0,1,.29.39,1.33,1.33,0,0,0,.42.39,1,1,0,0,0,.55.18.81.81,0,0,0,.39-.08.87.87,0,0,0,.26-.25,3.12,3.12,0,0,0,.2-.35,4.13,4.13,0,0,0,.18-.49c.07-.21.13-.4.17-.55l.16-.64c.08-.28.14-.5.18-.67a2.8,2.8,0,0,1-1.52.7,1.36,1.36,0,0,1-1-.47,1.6,1.6,0,0,1-.43-1.11,4.4,4.4,0,0,1,.47-1.67A6.48,6.48,0,0,1,79,244.44a2.25,2.25,0,0,1,1.57-.83,1.06,1.06,0,0,1,.83.37,2.51,2.51,0,0,1,.55,1.74,1,1,0,0,1,0,.2A.67.67,0,0,1,82.1,246.32Zm-3.86,1.79a.44.44,0,0,0,.13.33.49.49,0,0,0,.34.12,2.28,2.28,0,0,0,1.41-.71,4,4,0,0,0,1.16-1.66,2.76,2.76,0,0,1-.09-.48c0-.22,0-.39-.07-.52a1.25,1.25,0,0,0-.15-.39.37.37,0,0,0-.32-.2,1.57,1.57,0,0,0-1.05.68,5.89,5.89,0,0,0-1,1.5A3.45,3.45,0,0,0,78.24,248.11Z" fill="#231f20"/>
      <path d="M87.24,244.15A1.37,1.37,0,0,1,87.4,246a.59.59,0,0,1,.14.31,7.5,7.5,0,0,1-.15,1.16c-.1.54-.16.9-.18,1.06s0,.31,0,.41l-.06.29c0,.2-.11.3-.22.3s-.26-.13-.35-.38a3.14,3.14,0,0,1-.17-1c-.71.91-1.37,1.36-2,1.36a1.65,1.65,0,0,1-1.09-.47,1.33,1.33,0,0,1-.53-1,4.17,4.17,0,0,1,.52-1.78,6.93,6.93,0,0,1,1.37-1.89,2.34,2.34,0,0,1,1.59-.83A1.3,1.3,0,0,1,87.24,244.15Zm-.44,1.57c0-.74-.15-1.12-.45-1.12a1.72,1.72,0,0,0-1.09.67,6.47,6.47,0,0,0-1.05,1.51,3.17,3.17,0,0,0-.44,1.33.42.42,0,0,0,.17.33.65.65,0,0,0,.4.12,1.91,1.91,0,0,0,1.27-.76,4.13,4.13,0,0,0,1-1.85.27.27,0,0,1,.21-.22Z" fill="#231f20"/>
      <path d="M96.44,243.61c.24,0,.46.16.65.5a2.3,2.3,0,0,1,.28,1.12,7.81,7.81,0,0,1-.22,1.64,9.79,9.79,0,0,1-.6,1.85c-.24.56-.49.84-.73.84s-.25-.11-.25-.33a8.07,8.07,0,0,1,.41-1.62,7,7,0,0,0,.42-2.05c0-.51-.08-.76-.24-.76s-.43.17-.69.52-.54.78-.84,1.28-.45.76-.48.79l-.09.15a1.13,1.13,0,0,1-.12.21l-.33.65a6.89,6.89,0,0,1-.48.84c-.13.21-.25.31-.35.31a.52.52,0,0,1-.33-.19.56.56,0,0,1-.18-.36,2.45,2.45,0,0,1,.21-.7,7.8,7.8,0,0,0,.63-2.9A.83.83,0,0,0,93,245a.28.28,0,0,0-.24-.17.44.44,0,0,0-.28.11,2.36,2.36,0,0,0-.35.41,5.72,5.72,0,0,0-.39.56l-.51.82-.51.83-.41.62-.35.55-.28.42c-.22.29-.38.44-.48.44s-.23-.09-.39-.27a.78.78,0,0,1-.24-.41,1.74,1.74,0,0,1,.05-.34c0-.14.07-.27.1-.4s.09-.31.17-.57.17-.54.26-.88a6.64,6.64,0,0,0,.23-1.41c.05-.59.09-1,.12-1.31s.09-.41.2-.41a.7.7,0,0,1,.52.28.81.81,0,0,1,.26.55,13,13,0,0,1-.79,3.48c.89-1.68,1.46-2.68,1.69-3s.43-.56.6-.76a1.32,1.32,0,0,1,1-.51c.19,0,.42.16.69.5a1.56,1.56,0,0,1,.4,1,7.41,7.41,0,0,1-.14,1.25C94.82,244.52,95.68,243.61,96.44,243.61Z" fill="#231f20"/>
      <path d="M103,245.59a1.2,1.2,0,0,1-.69,1,3,3,0,0,1-1.56.4,6,6,0,0,1-1.58-.19,3.18,3.18,0,0,0-.17.94.81.81,0,0,0,.26.64,1.3,1.3,0,0,0,.86.23,3.87,3.87,0,0,0,1.22-.21,6.13,6.13,0,0,1,.69-.21c.21,0,.31.08.31.24s-.24.45-.73.7a3.16,3.16,0,0,1-1.43.38,2.13,2.13,0,0,1-1.52-.56,1.83,1.83,0,0,1-.59-1.41,4.08,4.08,0,0,1,.45-1.78,5.19,5.19,0,0,1,1.18-1.57,2.2,2.2,0,0,1,1.43-.63,1.69,1.69,0,0,1,1.29.67A2,2,0,0,1,103,245.59Zm-1.81-1a1.37,1.37,0,0,0-.93.46,4,4,0,0,0-.81,1.14,4.52,4.52,0,0,0,1.09.11,2.56,2.56,0,0,0,1.07-.2c.3-.13.45-.3.45-.52a1,1,0,0,0-.29-.66A.82.82,0,0,0,101.21,244.56Z" fill="#231f20"/>
      <path d="M107.06,243.61a1,1,0,0,1,.77.45,1.34,1.34,0,0,1,.36.78c0,.14-.06.21-.19.21a.86.86,0,0,1-.41-.21.91.91,0,0,0-.56-.21,2.34,2.34,0,0,0-.91.33c-.41.23-.61.46-.61.71s.36.5,1.1,1a3.23,3.23,0,0,1,.76.68,1.34,1.34,0,0,1,.34.89,1.2,1.2,0,0,1-.65.92,2.64,2.64,0,0,1-1.52.45,2.82,2.82,0,0,1-1.54-.42c-.44-.28-.67-.54-.67-.79a.37.37,0,0,1,.08-.25.25.25,0,0,1,.2-.09.6.6,0,0,1,.33.16,2.33,2.33,0,0,0,1.36.47,2.3,2.3,0,0,0,1-.17.47.47,0,0,0,.31-.43.79.79,0,0,0-.35-.57,4.21,4.21,0,0,0-.76-.55,3.61,3.61,0,0,1-.76-.59,1,1,0,0,1-.35-.71c0-.42.33-.86,1-1.32A3.21,3.21,0,0,1,107.06,243.61Z" fill="#231f20"/>
      <path d="M47.62,257.15a1.37,1.37,0,0,1,.16,1.88.54.54,0,0,1,.15.31,7.9,7.9,0,0,1-.16,1.16c-.09.54-.16.9-.17,1.06s0,.31-.06.41,0,.19-.06.29-.1.3-.21.3-.27-.13-.36-.38a3.5,3.5,0,0,1-.16-1c-.71.91-1.37,1.36-2,1.36a1.67,1.67,0,0,1-1.09-.47,1.37,1.37,0,0,1-.53-1,4.06,4.06,0,0,1,.53-1.78,6.73,6.73,0,0,1,1.37-1.89,2.3,2.3,0,0,1,1.58-.83A1.29,1.29,0,0,1,47.62,257.15Zm-.44,1.57c0-.74-.15-1.12-.44-1.12a1.74,1.74,0,0,0-1.1.67,6.78,6.78,0,0,0-1,1.51,3.13,3.13,0,0,0-.43,1.33.41.41,0,0,0,.16.33.7.7,0,0,0,.4.12A1.89,1.89,0,0,0,46,260.8,4.15,4.15,0,0,0,47,259a.26.26,0,0,1,.2-.22Z" fill="#231f20"/>
      <path d="M52.12,257.56c.48-.63.88-.95,1.19-.95a1.15,1.15,0,0,1,.87.49,1.6,1.6,0,0,1,.42,1,7.11,7.11,0,0,1-.4,2.12c-.48,1.53-.91,2.3-1.3,2.3-.17,0-.26-.12-.26-.36a4.42,4.42,0,0,1,.26-1c.17-.51.33-1,.48-1.52a4.32,4.32,0,0,0,.22-1.13,1.15,1.15,0,0,0-.11-.56c-.08-.12-.16-.18-.23-.18a.46.46,0,0,0-.24.08.93.93,0,0,0-.27.24l-.28.33a4.07,4.07,0,0,0-.33.46l-.33.51-.38.6-.39.6-.34.56-.35.54-.28.42c-.2.29-.36.44-.47.44s-.25-.09-.4-.27a.75.75,0,0,1-.23-.47,2.2,2.2,0,0,1,.08-.33c.15-.46.32-1,.51-1.72a10.06,10.06,0,0,0,.3-2.33c0-.59.11-.88.25-.88a.75.75,0,0,1,.53.28.86.86,0,0,1,.26.6,7.85,7.85,0,0,1-.2,1.27,15.51,15.51,0,0,1-.46,1.76A31.8,31.8,0,0,1,52.12,257.56Z" fill="#231f20"/>
      <path d="M60.6,253.25c.12,0,.28.12.47.35a1.09,1.09,0,0,1,.28.67,13.69,13.69,0,0,1-.3,1.77c-.2,1-.43,2-.69,3-.58,2.33-1,3.5-1.14,3.5a.53.53,0,0,1-.37-.21.59.59,0,0,1-.2-.37,4.18,4.18,0,0,1,.09-.62,3.22,3.22,0,0,1-2.06,1.2,1.25,1.25,0,0,1-1-.48,1.51,1.51,0,0,1-.43-1,5,5,0,0,1,.41-1.77,6,6,0,0,1,1.15-1.86,2.18,2.18,0,0,1,1.61-.84,1.23,1.23,0,0,1,1.19,1,22,22,0,0,0,.67-4Q60.33,253.25,60.6,253.25Zm-1.32,5.89a2.38,2.38,0,0,0-.23-1.09c-.14-.3-.32-.45-.53-.45a1.5,1.5,0,0,0-1.06.64,4.91,4.91,0,0,0-.85,1.46,3.88,3.88,0,0,0-.32,1.42.45.45,0,0,0,.15.35.57.57,0,0,0,.38.13,2.26,2.26,0,0,0,1.26-.67,4,4,0,0,0,1.16-1.59l0-.14Z" fill="#231f20"/>
      <path d="M69.69,256.61a1,1,0,0,1,.77.45,1.34,1.34,0,0,1,.36.78c0,.14-.06.21-.19.21a.82.82,0,0,1-.41-.21.91.91,0,0,0-.56-.21,2.23,2.23,0,0,0-.91.33c-.41.23-.62.46-.62.71s.37.5,1.11.95a3.23,3.23,0,0,1,.76.68,1.34,1.34,0,0,1,.34.89c0,.31-.22.62-.65.92a2.65,2.65,0,0,1-1.53.45,2.79,2.79,0,0,1-1.53-.42c-.45-.28-.67-.54-.67-.79a.37.37,0,0,1,.08-.25.25.25,0,0,1,.2-.09.6.6,0,0,1,.33.16,2.28,2.28,0,0,0,1.35.47,2.32,2.32,0,0,0,1-.17.49.49,0,0,0,.31-.43.82.82,0,0,0-.35-.57,4.6,4.6,0,0,0-.76-.55,3.61,3.61,0,0,1-.76-.59,1,1,0,0,1-.35-.71c0-.42.33-.86,1-1.32A3.18,3.18,0,0,1,69.69,256.61Z" fill="#231f20"/>
      <path d="M76.16,258.59a1.2,1.2,0,0,1-.69,1.05,3,3,0,0,1-1.56.4,6,6,0,0,1-1.58-.19,3.18,3.18,0,0,0-.17.94.81.81,0,0,0,.26.64,1.29,1.29,0,0,0,.85.23,3.88,3.88,0,0,0,1.23-.21,6.13,6.13,0,0,1,.69-.21c.21,0,.31.08.31.24s-.24.45-.73.7a3.16,3.16,0,0,1-1.43.38,2.13,2.13,0,0,1-1.52-.56,1.83,1.83,0,0,1-.59-1.41,4.08,4.08,0,0,1,.45-1.78,5.19,5.19,0,0,1,1.18-1.57,2.2,2.2,0,0,1,1.43-.63,1.69,1.69,0,0,1,1.29.67A2,2,0,0,1,76.16,258.59Zm-1.81-1a1.37,1.37,0,0,0-.93.46,4,4,0,0,0-.81,1.14,4.52,4.52,0,0,0,1.09.11,2.56,2.56,0,0,0,1.07-.2c.3-.13.45-.3.45-.52a1,1,0,0,0-.29-.66A.82.82,0,0,0,74.35,257.56Z" fill="#231f20"/>
      <path d="M78.12,261.36c0,.15.08.23.26.23a3.18,3.18,0,0,0,1.11-.26,5.69,5.69,0,0,1,.73-.26c.14,0,.21.08.21.23s-.24.5-.71.8a2.44,2.44,0,0,1-1.3.46,1.44,1.44,0,0,1-1-.32.87.87,0,0,1-.39-.65,3.23,3.23,0,0,1,.15-.86c.09-.35.23-.81.41-1.38s.32-1.05.43-1.42a4,4,0,0,1-.76.13.55.55,0,0,1-.38-.2.58.58,0,0,1-.18-.38c0-.19.52-.37,1.56-.55a8.62,8.62,0,0,0,.21-1.76q0-.36.24-.36a.82.82,0,0,1,.51.26.74.74,0,0,1,.3.58,5.58,5.58,0,0,1-.21,1.14c.46,0,.82-.06,1.09-.06.49,0,.72.1.72.31s-.13.22-.39.3-.8.2-1.63.37c-.17.63-.38,1.36-.64,2.17A7.3,7.3,0,0,0,78.12,261.36Z" fill="#231f20"/>
      <path d="M86.11,258.8c0,.13-.13.24-.39.32s-.89.22-1.89.42-1.54.3-1.63.3a.52.52,0,0,1-.33-.21.55.55,0,0,1-.19-.37c0-.18.45-.35,1.36-.51a13.76,13.76,0,0,1,2.35-.25Q86.11,258.5,86.11,258.8Z" fill="#231f20"/>
      <path d="M91.27,256.68c0-.05.1-.07.21-.07s.24.1.39.31a1,1,0,0,1,.24.6,19.2,19.2,0,0,1-.53,1.85c-.35,1.13-.62,2-.82,2.69-.09.33-.23.5-.4.5a.32.32,0,0,1-.27-.13A.8.8,0,0,1,90,262a5.64,5.64,0,0,1,.28-1.26A6.28,6.28,0,0,1,89.17,262a1.7,1.7,0,0,1-1.08.53,1.22,1.22,0,0,1-.91-.46,1.35,1.35,0,0,1-.44-.93,8.31,8.31,0,0,1,.67-2.85q.66-1.71,1.11-1.71a.47.47,0,0,1,.38.2.67.67,0,0,1,.16.45,3.83,3.83,0,0,1-.32.77,13.41,13.41,0,0,0-.65,1.56,4.65,4.65,0,0,0-.33,1.57.43.43,0,0,0,.12.31.37.37,0,0,0,.29.13c.31,0,.67-.27,1.09-.8a10,10,0,0,0,1.14-1.88,11.43,11.43,0,0,0,.77-2A1,1,0,0,1,91.27,256.68Z" fill="#231f20"/>
      <path d="M96.62,256.57a1.07,1.07,0,0,1,.89.66,2.64,2.64,0,0,1,.38,1.36,2.72,2.72,0,0,1-.41,1.41,5.24,5.24,0,0,1-1,1.25,5.75,5.75,0,0,1-1.33.92,3.05,3.05,0,0,1-1.34.37,1.63,1.63,0,0,1-.45-.06c0,.13-.09.38-.17.73s-.15.64-.21.87-.12.48-.19.75c-.14.54-.27.81-.38.81s-.23-.08-.36-.25a.87.87,0,0,1-.18-.47,17,17,0,0,1,.38-1.75,32.64,32.64,0,0,0,1.15-6.29q0-.36.27-.36a.84.84,0,0,1,.52.32,1,1,0,0,1,.31.7,2.18,2.18,0,0,1,0,.42A2.9,2.9,0,0,1,96.62,256.57Zm-2.93,5a2.75,2.75,0,0,0,1.38-.43A4.18,4.18,0,0,0,96.33,260a2.44,2.44,0,0,0,.52-1.42c0-.66-.16-1-.47-1s-.73.27-1.27.81a5.59,5.59,0,0,0-1.26,2.09l-.28,1.1Z" fill="#231f20"/>
      <path d="M36.07,270.15a1.68,1.68,0,0,1,.46,1,1.61,1.61,0,0,1-.3.89.59.59,0,0,1,.14.31,7.5,7.5,0,0,1-.15,1.16c-.1.54-.16.9-.18,1.06s0,.31,0,.41l-.06.29c0,.2-.11.3-.22.3s-.26-.13-.35-.38a3.14,3.14,0,0,1-.17-1c-.71.91-1.37,1.36-2,1.36a1.65,1.65,0,0,1-1.08-.47,1.35,1.35,0,0,1-.54-1,4.2,4.2,0,0,1,.53-1.78,6.93,6.93,0,0,1,1.37-1.89,2.34,2.34,0,0,1,1.58-.83A1.3,1.3,0,0,1,36.07,270.15Zm-.44,1.57c0-.74-.15-1.12-.45-1.12a1.72,1.72,0,0,0-1.09.67A6.5,6.5,0,0,0,33,272.78a3.28,3.28,0,0,0-.43,1.33.42.42,0,0,0,.17.33.65.65,0,0,0,.4.12,1.91,1.91,0,0,0,1.27-.76,4.13,4.13,0,0,0,1-1.85.27.27,0,0,1,.21-.22Z" fill="#231f20"/>
      <path d="M39.45,275.56a1.93,1.93,0,0,1-1.32-.55,1.69,1.69,0,0,1-.61-1.29A3.91,3.91,0,0,1,38,272a5.66,5.66,0,0,1,1.3-1.68,2.41,2.41,0,0,1,1.55-.69,1.13,1.13,0,0,1,.87.44,1.37,1.37,0,0,1,.37.78.21.21,0,0,1-.06.16.21.21,0,0,1-.18.07.88.88,0,0,1-.4-.22.9.9,0,0,0-.51-.21c-.44,0-.94.38-1.52,1.14a3.52,3.52,0,0,0-.86,2,.79.79,0,0,0,.23.59,1.13,1.13,0,0,0,.76.21,3.6,3.6,0,0,0,1-.12,4.86,4.86,0,0,0,.68-.25.82.82,0,0,1,.37-.13.21.21,0,0,1,.23.23q0,.34-.84.81A3.14,3.14,0,0,1,39.45,275.56Z" fill="#231f20"/>
      <path d="M44.19,274.36c0,.15.09.23.27.23a3.23,3.23,0,0,0,1.11-.26,5.9,5.9,0,0,1,.72-.26c.15,0,.22.08.22.23s-.24.5-.71.8a2.44,2.44,0,0,1-1.3.46,1.49,1.49,0,0,1-1-.32.89.89,0,0,1-.38-.65,3.6,3.6,0,0,1,.14-.86q.15-.53.42-1.38c.18-.57.32-1.05.42-1.42a3.81,3.81,0,0,1-.75.13.53.53,0,0,1-.38-.2.6.6,0,0,1-.19-.38c0-.19.52-.37,1.56-.55a8,8,0,0,0,.22-1.76q0-.36.24-.36a.8.8,0,0,1,.5.26.74.74,0,0,1,.3.58,5.35,5.35,0,0,1-.2,1.14c.46,0,.82-.06,1.09-.06.48,0,.72.1.72.31s-.13.22-.39.3-.8.2-1.64.37c-.16.63-.38,1.36-.63,2.17A7.67,7.67,0,0,0,44.19,274.36Z" fill="#231f20"/>
      <path d="M49,269.61a.55.55,0,0,1,.43.27.92.92,0,0,1,.21.54,10.3,10.3,0,0,1-.35,1.58c-.23.88-.53,1.86-.88,2.95-.13.4-.31.6-.51.6a.37.37,0,0,1-.29-.14.47.47,0,0,1-.12-.31,2.62,2.62,0,0,1,.09-.55c.06-.26.15-.59.26-1s.21-.76.28-1,.13-.56.21-.89.13-.6.17-.81l.15-.61C48.73,269.8,48.85,269.61,49,269.61ZM49,267.9a.65.65,0,0,1,.19-.45.53.53,0,0,1,.39-.22c.13,0,.29.16.48.49a1.74,1.74,0,0,1,.27.81.25.25,0,0,1-.11.21.32.32,0,0,1-.22.1,1,1,0,0,1-.65-.35A1,1,0,0,1,49,267.9Z" fill="#231f20"/>
      <path d="M54.49,269.61a.66.66,0,0,1,.4.15.44.44,0,0,1,.19.33,10.81,10.81,0,0,1-.87,2.24c-.58,1.28-1,2.14-1.24,2.59s-.46.66-.64.66a.63.63,0,0,1-.39-.22,1.55,1.55,0,0,1-.33-.5,14.48,14.48,0,0,1-.7-2.43,12.62,12.62,0,0,1-.37-2.46c0-.24.07-.36.22-.36a.88.88,0,0,1,.54.22,1.15,1.15,0,0,1,.38.56c0,.13.06.45.1,1a10.77,10.77,0,0,0,.57,2.91c.22-.46.5-1.12.83-2s.61-1.51.82-2S54.38,269.61,54.49,269.61Z" fill="#231f20"/>
      <path d="M56.89,269.61a.57.57,0,0,1,.43.27.91.91,0,0,1,.2.54,9.71,9.71,0,0,1-.34,1.58c-.24.88-.53,1.86-.88,2.95-.14.4-.31.6-.52.6a.37.37,0,0,1-.28-.14.47.47,0,0,1-.12-.31,2.62,2.62,0,0,1,.09-.55c.06-.26.14-.59.26-1s.21-.76.28-1l.21-.89c.07-.33.13-.6.17-.81s.09-.41.15-.61C56.65,269.8,56.77,269.61,56.89,269.61ZM57,267.9a.65.65,0,0,1,.19-.45.53.53,0,0,1,.39-.22c.13,0,.29.16.47.49a1.66,1.66,0,0,1,.28.81.28.28,0,0,1-.11.21.32.32,0,0,1-.23.1,1,1,0,0,1-.64-.35A1,1,0,0,1,57,267.9Z" fill="#231f20"/>
      <path d="M59.61,274.36c0,.15.09.23.27.23a3.23,3.23,0,0,0,1.11-.26,5.3,5.3,0,0,1,.72-.26c.15,0,.22.08.22.23s-.24.5-.72.8a2.39,2.39,0,0,1-1.29.46,1.49,1.49,0,0,1-1-.32.89.89,0,0,1-.38-.65,3.6,3.6,0,0,1,.14-.86q.15-.53.42-1.38c.18-.57.32-1.05.42-1.42a3.93,3.93,0,0,1-.75.13.53.53,0,0,1-.38-.2.55.55,0,0,1-.19-.38c0-.19.52-.37,1.56-.55a8,8,0,0,0,.22-1.76q0-.36.24-.36a.83.83,0,0,1,.5.26.74.74,0,0,1,.3.58,6.11,6.11,0,0,1-.2,1.14c.45,0,.82-.06,1.09-.06.48,0,.72.1.72.31s-.13.22-.39.3-.81.2-1.64.37c-.17.63-.38,1.36-.63,2.17A7.67,7.67,0,0,0,59.61,274.36Z" fill="#231f20"/>
      <path d="M64.39,269.61a.57.57,0,0,1,.43.27.91.91,0,0,1,.2.54,9.71,9.71,0,0,1-.34,1.58c-.24.88-.53,1.86-.88,2.95-.14.4-.31.6-.52.6a.37.37,0,0,1-.28-.14.47.47,0,0,1-.12-.31,2.62,2.62,0,0,1,.09-.55c.06-.26.14-.59.26-1s.21-.76.28-1l.21-.89c.07-.33.13-.6.17-.81s.09-.41.15-.61C64.15,269.8,64.27,269.61,64.39,269.61Zm.06-1.71a.65.65,0,0,1,.19-.45.53.53,0,0,1,.39-.22c.13,0,.29.16.47.49a1.66,1.66,0,0,1,.28.81.28.28,0,0,1-.11.21.32.32,0,0,1-.23.1,1,1,0,0,1-.64-.35A1,1,0,0,1,64.45,267.9Z" fill="#231f20"/>
      <path d="M70.56,271.59a1.21,1.21,0,0,1-.7,1.05,3,3,0,0,1-1.55.4,5.9,5.9,0,0,1-1.58-.19,2.89,2.89,0,0,0-.17.94.78.78,0,0,0,.26.64,1.27,1.27,0,0,0,.85.23,3.87,3.87,0,0,0,1.22-.21,6.13,6.13,0,0,1,.69-.21c.21,0,.31.08.31.24s-.24.45-.73.7a3.09,3.09,0,0,1-1.43.38,2.13,2.13,0,0,1-1.52-.56,1.86,1.86,0,0,1-.59-1.41,4,4,0,0,1,.46-1.78,4.88,4.88,0,0,1,1.18-1.57,2.15,2.15,0,0,1,1.42-.63,1.69,1.69,0,0,1,1.29.67A2.05,2.05,0,0,1,70.56,271.59Zm-1.82-1a1.37,1.37,0,0,0-.92.46,4.27,4.27,0,0,0-.82,1.14,4.6,4.6,0,0,0,1.1.11,2.51,2.51,0,0,0,1.06-.2c.31-.13.46-.3.46-.52a1,1,0,0,0-.3-.66A.8.8,0,0,0,68.74,270.56Z" fill="#231f20"/>
      <path d="M74.6,269.61a1,1,0,0,1,.77.45,1.34,1.34,0,0,1,.36.78c0,.14-.07.21-.19.21a.82.82,0,0,1-.41-.21.94.94,0,0,0-.57-.21,2.25,2.25,0,0,0-.9.33c-.41.23-.62.46-.62.71s.37.5,1.1.95a3.27,3.27,0,0,1,.77.68,1.4,1.4,0,0,1,.34.89c0,.31-.22.62-.66.92a2.6,2.6,0,0,1-1.52.45,2.85,2.85,0,0,1-1.54-.42c-.44-.28-.66-.54-.66-.79a.33.33,0,0,1,.08-.25.23.23,0,0,1,.19-.09.63.63,0,0,1,.34.16,2.28,2.28,0,0,0,1.35.47,2.24,2.24,0,0,0,1-.17.48.48,0,0,0,.32-.43.82.82,0,0,0-.35-.57,4.6,4.6,0,0,0-.76-.55,3.94,3.94,0,0,1-.77-.59,1,1,0,0,1-.35-.71c0-.42.34-.86,1-1.32A3.15,3.15,0,0,1,74.6,269.61Z" fill="#231f20"/>
      <path d="M82,275.58a.46.46,0,0,1-.34-.22.7.7,0,0,1-.18-.38,2.65,2.65,0,0,1,.12-.56c.4-1.44.67-2.47.82-3.08a3.87,3.87,0,0,1-.71.12.61.61,0,0,1-.39-.17.48.48,0,0,1-.19-.37q0-.21.54-.36c.47-.12.79-.19,1-.22.08-.38.14-.68.18-.89a6.43,6.43,0,0,1,.78-2.39,1.54,1.54,0,0,1,1.33-.73,1.22,1.22,0,0,1,1,.48,1.72,1.72,0,0,1,.38,1.11c0,.43-.11.64-.33.64s-.35-.21-.47-.64a1.32,1.32,0,0,0-.21-.45.42.42,0,0,0-.35-.2.52.52,0,0,0-.37.18,1.92,1.92,0,0,0-.3.54,10.79,10.79,0,0,0-.48,1.77l-.09.42a6.51,6.51,0,0,1,.88-.06,1.67,1.67,0,0,1,.64.1c.13.06.19.14.19.24s-.13.27-.39.35-.78.18-1.55.31a36.78,36.78,0,0,1-1.16,4.12C82.14,275.47,82,275.58,82,275.58Z" fill="#231f20"/>
      <path d="M86.08,271.76a4.42,4.42,0,0,1,1.09-1.55,2.08,2.08,0,0,1,1.39-.6,1.49,1.49,0,0,1,1.2.6,2.38,2.38,0,0,1,.47,1.48,4.09,4.09,0,0,1-.42,1.78,4.18,4.18,0,0,1-1.15,1.5,2.52,2.52,0,0,1-1.57.59,1.22,1.22,0,0,1-1-.56,2.43,2.43,0,0,1-.41-1.44A4.36,4.36,0,0,1,86.08,271.76Zm3.15-.11a2.55,2.55,0,0,0-.13-.78,1,1,0,0,0-.39-.53,2.44,2.44,0,0,0-1.42,1.28,4,4,0,0,0-.6,2c0,.62.16,1,.46,1.15a2.22,2.22,0,0,0,1.47-1.18A3.77,3.77,0,0,0,89.23,271.65Z" fill="#231f20"/>
      <path d="M91.76,271.07l0-.9c0-.37.09-.56.27-.56a.57.57,0,0,1,.43.29,1.18,1.18,0,0,1,.21.7,4.73,4.73,0,0,1,0,.6c.7-1.05,1.36-1.58,2-1.58.39,0,.59.1.59.29a.38.38,0,0,1-.13.26,2.73,2.73,0,0,1-.42.28,2.6,2.6,0,0,0-1.08.84,5,5,0,0,0-.71,1.29c-.19.48-.33.89-.44,1.22s-.19.58-.25.76a4.29,4.29,0,0,1-.19.54c-.13.32-.27.48-.44.48a.36.36,0,0,1-.33-.23.92.92,0,0,1-.13-.46,3.82,3.82,0,0,1,.21-.88A9.73,9.73,0,0,0,91.76,271.07Z" fill="#231f20"/>
      <path d="M104,270.15a1.68,1.68,0,0,1,.46,1,1.61,1.61,0,0,1-.3.89.59.59,0,0,1,.14.31,7.5,7.5,0,0,1-.15,1.16c-.1.54-.16.9-.18,1.06s0,.31,0,.41l-.06.29c0,.2-.11.3-.22.3s-.26-.13-.35-.38a3.14,3.14,0,0,1-.17-1c-.71.91-1.37,1.36-2,1.36a1.65,1.65,0,0,1-1.08-.47,1.35,1.35,0,0,1-.54-1,4.2,4.2,0,0,1,.53-1.78,6.93,6.93,0,0,1,1.37-1.89,2.34,2.34,0,0,1,1.58-.83A1.3,1.3,0,0,1,104,270.15Zm-.44,1.57c0-.74-.15-1.12-.45-1.12a1.72,1.72,0,0,0-1.09.67,6.5,6.5,0,0,0-1.06,1.51,3.28,3.28,0,0,0-.43,1.33.42.42,0,0,0,.17.33.65.65,0,0,0,.4.12,1.91,1.91,0,0,0,1.27-.76,4.13,4.13,0,0,0,1-1.85.27.27,0,0,1,.21-.22Z" fill="#231f20"/>
      <path d="M106.79,274.36c0,.15.09.23.27.23a3.23,3.23,0,0,0,1.11-.26,5.9,5.9,0,0,1,.72-.26c.15,0,.22.08.22.23s-.24.5-.71.8a2.44,2.44,0,0,1-1.3.46,1.49,1.49,0,0,1-1-.32.89.89,0,0,1-.38-.65,3.6,3.6,0,0,1,.14-.86q.15-.53.42-1.38c.18-.57.32-1.05.42-1.42a3.81,3.81,0,0,1-.75.13.53.53,0,0,1-.38-.2.55.55,0,0,1-.19-.38c0-.19.52-.37,1.56-.55a8,8,0,0,0,.22-1.76q0-.36.24-.36a.8.8,0,0,1,.5.26.74.74,0,0,1,.3.58,5.35,5.35,0,0,1-.2,1.14c.46,0,.82-.06,1.09-.06.48,0,.72.1.72.31s-.13.22-.39.3-.8.2-1.64.37c-.16.63-.38,1.36-.63,2.17A7.67,7.67,0,0,0,106.79,274.36Z" fill="#231f20"/>
      <path d="M41,280.26a24.63,24.63,0,0,1-.94,5.85c-.4,1.63-.68,2.45-.84,2.45s-.24-.09-.39-.26a.78.78,0,0,1-.22-.41A12.84,12.84,0,0,1,39,286.4c.23-.9.46-2,.69-3.31a19.56,19.56,0,0,0,.35-3.53.48.48,0,0,1,0-.24c0-.05.1-.07.2-.07s.26.11.45.34A1,1,0,0,1,41,280.26Z" fill="#231f20"/>
      <path d="M46.36,284.59a1.2,1.2,0,0,1-.69,1.05,3,3,0,0,1-1.56.4,6,6,0,0,1-1.58-.19,3.18,3.18,0,0,0-.17.94.81.81,0,0,0,.26.64,1.29,1.29,0,0,0,.85.23,3.88,3.88,0,0,0,1.23-.21,6.13,6.13,0,0,1,.69-.21c.21,0,.31.08.31.24s-.24.45-.73.7a3.16,3.16,0,0,1-1.43.38A2.13,2.13,0,0,1,42,288a1.83,1.83,0,0,1-.59-1.41,4.08,4.08,0,0,1,.45-1.78,5.19,5.19,0,0,1,1.18-1.57,2.2,2.2,0,0,1,1.43-.63,1.69,1.69,0,0,1,1.29.67A2,2,0,0,1,46.36,284.59Zm-1.81-1a1.37,1.37,0,0,0-.93.46,4,4,0,0,0-.81,1.14,4.52,4.52,0,0,0,1.09.11,2.56,2.56,0,0,0,1.07-.2c.3-.13.45-.3.45-.52a1,1,0,0,0-.29-.66A.82.82,0,0,0,44.55,283.56Z" fill="#231f20"/>
      <path d="M51.16,283.15a1.37,1.37,0,0,1,.16,1.88.59.59,0,0,1,.14.31,7.5,7.5,0,0,1-.15,1.16c-.1.54-.16.9-.18,1.06s0,.31-.05.41l-.06.29c0,.2-.11.3-.22.3s-.26-.13-.35-.38a3.14,3.14,0,0,1-.17-1c-.71.91-1.37,1.36-2,1.36a1.65,1.65,0,0,1-1.09-.47,1.35,1.35,0,0,1-.54-1,4.2,4.2,0,0,1,.53-1.78,6.93,6.93,0,0,1,1.37-1.89,2.34,2.34,0,0,1,1.59-.83A1.3,1.3,0,0,1,51.16,283.15Zm-.44,1.57c0-.74-.15-1.12-.45-1.12a1.72,1.72,0,0,0-1.09.67,6.47,6.47,0,0,0-1,1.51,3.17,3.17,0,0,0-.44,1.33.42.42,0,0,0,.17.33.65.65,0,0,0,.4.12,1.91,1.91,0,0,0,1.27-.76,4.13,4.13,0,0,0,1-1.85.27.27,0,0,1,.21-.22Z" fill="#231f20"/>
      <path d="M56,282.61a1,1,0,0,1,.77.45,1.34,1.34,0,0,1,.36.78c0,.14-.06.21-.19.21a.82.82,0,0,1-.41-.21.91.91,0,0,0-.56-.21,2.28,2.28,0,0,0-.91.33c-.41.23-.62.46-.62.71s.37.5,1.11.95a3.23,3.23,0,0,1,.76.68,1.34,1.34,0,0,1,.34.89c0,.31-.22.62-.65.92a2.65,2.65,0,0,1-1.53.45,2.79,2.79,0,0,1-1.53-.42c-.45-.28-.67-.54-.67-.79a.37.37,0,0,1,.08-.25.25.25,0,0,1,.2-.09.6.6,0,0,1,.33.16,2.49,2.49,0,0,0,2.37.3.49.49,0,0,0,.31-.43.82.82,0,0,0-.35-.57,4.21,4.21,0,0,0-.76-.55,3.61,3.61,0,0,1-.76-.59,1,1,0,0,1-.35-.71c0-.42.33-.86,1-1.32A3.18,3.18,0,0,1,56,282.61Z" fill="#231f20"/>
      <path d="M59.06,287.36c0,.15.08.23.26.23a3.13,3.13,0,0,0,1.11-.26,5.69,5.69,0,0,1,.73-.26c.14,0,.21.08.21.23s-.23.5-.71.8a2.44,2.44,0,0,1-1.3.46,1.44,1.44,0,0,1-1-.32.87.87,0,0,1-.39-.65,3.23,3.23,0,0,1,.15-.86c.09-.35.23-.81.41-1.38s.32-1.05.43-1.42a4,4,0,0,1-.76.13.55.55,0,0,1-.38-.2.58.58,0,0,1-.18-.38c0-.19.52-.37,1.56-.55a8.62,8.62,0,0,0,.21-1.76q0-.36.24-.36a.82.82,0,0,1,.51.26.74.74,0,0,1,.3.58,5.58,5.58,0,0,1-.21,1.14c.46,0,.82-.06,1.1-.06.48,0,.71.1.71.31s-.13.22-.38.3-.81.2-1.64.37c-.17.63-.38,1.36-.64,2.17A7.3,7.3,0,0,0,59.06,287.36Z" fill="#231f20"/>
      <path d="M72.69,285.66a2.52,2.52,0,0,1-1.17,1.92,3.86,3.86,0,0,1-2.43.92,1.62,1.62,0,0,1-1.24-.51,1.89,1.89,0,0,1-.49-1.38,5.07,5.07,0,0,1,.57-2.08,11.35,11.35,0,0,1,1.3-2.16,16,16,0,0,1,1.41-1.61q.67-.66.93-.66a1,1,0,0,1,.48.13c.16.08.24.16.24.25s-.13.27-.41.56a26.14,26.14,0,0,0-2.29,2.68,4.74,4.74,0,0,1,2.22.71A1.57,1.57,0,0,1,72.69,285.66Zm-3.49,1.87a2.58,2.58,0,0,0,1.55-.57,1.54,1.54,0,0,0,.76-1.21c0-.3-.21-.58-.64-.84a4.38,4.38,0,0,0-1.71-.51,4.71,4.71,0,0,0-.73,2.31.81.81,0,0,0,.21.61A.75.75,0,0,0,69.2,287.53Z" fill="#231f20"/>
      <path d="M78.66,285.33a7.29,7.29,0,0,1-1.23,2.26,2.08,2.08,0,0,1-1.51.93,1.6,1.6,0,0,1-1.28-.67,2.35,2.35,0,0,1-.55-1.52,8.56,8.56,0,0,1,.54-2.94A7.58,7.58,0,0,1,76,281a2.18,2.18,0,0,1,1.57-.94,1.29,1.29,0,0,1,1.17.71,4.07,4.07,0,0,1,.41,2A7.9,7.9,0,0,1,78.66,285.33ZM78,282.88c0-1.25-.18-1.88-.55-1.88-.17,0-.38.17-.64.5a6.65,6.65,0,0,0-.76,1.24,9.6,9.6,0,0,0-.62,1.7,6.41,6.41,0,0,0-.26,1.76c0,.92.24,1.38.73,1.38.23,0,.51-.26.85-.77a8.43,8.43,0,0,0,.87-1.9A6.53,6.53,0,0,0,78,282.88Z" fill="#231f20"/>
      <path d="M92.42,282.61c.24,0,.45.16.64.5a2.19,2.19,0,0,1,.28,1.12,7.81,7.81,0,0,1-.22,1.64,9.79,9.79,0,0,1-.6,1.85c-.24.56-.49.84-.73.84s-.25-.11-.25-.33a8.07,8.07,0,0,1,.41-1.62,7,7,0,0,0,.42-2.05c0-.51-.08-.76-.24-.76s-.43.17-.69.52-.54.78-.84,1.28-.45.76-.48.79l-.09.15a1.13,1.13,0,0,1-.12.21l-.33.65a6.89,6.89,0,0,1-.48.84c-.13.21-.25.31-.35.31a.52.52,0,0,1-.33-.19.56.56,0,0,1-.18-.36,2.26,2.26,0,0,1,.22-.7,8,8,0,0,0,.62-2.9A.83.83,0,0,0,89,284a.28.28,0,0,0-.24-.17.39.39,0,0,0-.27.11,2,2,0,0,0-.36.41,5.72,5.72,0,0,0-.39.56l-.51.82-.51.83-.41.62-.35.55c-.08.12-.18.26-.28.42s-.38.44-.48.44-.23-.09-.39-.27a.78.78,0,0,1-.24-.41,1.74,1.74,0,0,1,0-.34c0-.14.07-.27.1-.4s.1-.31.17-.57.17-.54.27-.88a7.47,7.47,0,0,0,.22-1.41c.06-.59.09-1,.12-1.31s.09-.41.2-.41a.7.7,0,0,1,.52.28.77.77,0,0,1,.26.55,13,13,0,0,1-.79,3.48c.9-1.68,1.46-2.68,1.69-3s.43-.56.6-.76a1.32,1.32,0,0,1,1-.51c.19,0,.42.16.69.5a1.56,1.56,0,0,1,.4,1,7.41,7.41,0,0,1-.14,1.25C90.79,283.52,91.65,282.61,92.42,282.61Z" fill="#231f20"/>
      <path d="M95.68,282.61a.57.57,0,0,1,.43.27.92.92,0,0,1,.21.54A10.3,10.3,0,0,1,96,285c-.23.88-.53,1.86-.88,2.95-.13.4-.31.6-.51.6a.37.37,0,0,1-.29-.14.47.47,0,0,1-.12-.31,2.62,2.62,0,0,1,.09-.55c.06-.26.15-.59.26-1s.21-.76.28-1,.13-.56.21-.89.13-.6.17-.81.1-.41.15-.61C95.44,282.8,95.56,282.61,95.68,282.61Zm.06-1.71a.65.65,0,0,1,.19-.45.53.53,0,0,1,.39-.22c.13,0,.29.16.48.49a1.74,1.74,0,0,1,.27.81.25.25,0,0,1-.11.21.32.32,0,0,1-.22.1,1,1,0,0,1-.65-.35A1,1,0,0,1,95.74,280.9Z" fill="#231f20"/>
      <path d="M100.11,283.56c.49-.63.88-.95,1.19-.95a1.16,1.16,0,0,1,.88.49,1.63,1.63,0,0,1,.41,1,7.11,7.11,0,0,1-.4,2.12c-.47,1.53-.91,2.3-1.29,2.3-.18,0-.26-.12-.26-.36a4.22,4.22,0,0,1,.25-1c.17-.51.33-1,.48-1.52a4.44,4.44,0,0,0,.23-1.13,1,1,0,0,0-.12-.56c-.08-.12-.15-.18-.23-.18a.46.46,0,0,0-.23.08.93.93,0,0,0-.27.24l-.28.33a4.07,4.07,0,0,0-.33.46c-.13.2-.25.37-.33.51l-.39.6c-.16.27-.29.47-.38.6l-.35.56-.34.54-.28.42c-.2.29-.36.44-.48.44a.61.61,0,0,1-.4-.27.81.81,0,0,1-.23-.47,1.65,1.65,0,0,1,.09-.33c.15-.46.32-1,.5-1.72a10.06,10.06,0,0,0,.3-2.33c0-.59.11-.88.25-.88a.74.74,0,0,1,.53.28.82.82,0,0,1,.26.6,7.47,7.47,0,0,1-.19,1.27,17.87,17.87,0,0,1-.47,1.76A34.12,34.12,0,0,1,100.11,283.56Z" fill="#231f20"/>
      <path d="M52.13,297.59a1.2,1.2,0,0,1-.69,1.05,3,3,0,0,1-1.56.4,6,6,0,0,1-1.58-.19,3.18,3.18,0,0,0-.17.94.81.81,0,0,0,.26.64,1.29,1.29,0,0,0,.85.23,3.88,3.88,0,0,0,1.23-.21,6.13,6.13,0,0,1,.69-.21c.2,0,.31.08.31.24s-.25.45-.73.7a3.16,3.16,0,0,1-1.43.38,2.15,2.15,0,0,1-1.53-.56,1.86,1.86,0,0,1-.58-1.41,4.08,4.08,0,0,1,.45-1.78,5.19,5.19,0,0,1,1.18-1.57,2.18,2.18,0,0,1,1.43-.63,1.69,1.69,0,0,1,1.29.67A2.09,2.09,0,0,1,52.13,297.59Zm-1.81-1a1.37,1.37,0,0,0-.93.46,4,4,0,0,0-.81,1.14,4.52,4.52,0,0,0,1.09.11,2.56,2.56,0,0,0,1.07-.2c.3-.13.45-.3.45-.52a1.07,1.07,0,0,0-.29-.66A.82.82,0,0,0,50.32,296.56Z" fill="#231f20"/>
      <path d="M56.88,295.61a.64.64,0,0,1,.4.15.44.44,0,0,1,.19.33,10.81,10.81,0,0,1-.87,2.24c-.58,1.28-1,2.14-1.24,2.59s-.46.66-.64.66a.61.61,0,0,1-.38-.22,1.44,1.44,0,0,1-.34-.5,14.48,14.48,0,0,1-.7-2.43,13.46,13.46,0,0,1-.37-2.46c0-.24.07-.36.22-.36a.88.88,0,0,1,.54.22,1.15,1.15,0,0,1,.38.56,9.64,9.64,0,0,1,.1,1,10.77,10.77,0,0,0,.57,2.91c.22-.46.5-1.12.83-2s.61-1.51.82-2S56.77,295.61,56.88,295.61Z" fill="#231f20"/>
      <path d="M62.59,297.59a1.2,1.2,0,0,1-.69,1.05,3,3,0,0,1-1.56.4,5.87,5.87,0,0,1-1.57-.19,2.89,2.89,0,0,0-.17.94.8.8,0,0,0,.25.64,1.32,1.32,0,0,0,.86.23,3.87,3.87,0,0,0,1.22-.21,6.13,6.13,0,0,1,.69-.21c.21,0,.31.08.31.24s-.24.45-.73.7a3.12,3.12,0,0,1-1.43.38,2.13,2.13,0,0,1-1.52-.56,1.86,1.86,0,0,1-.59-1.41,4,4,0,0,1,.46-1.78,5,5,0,0,1,1.17-1.57,2.2,2.2,0,0,1,1.43-.63,1.69,1.69,0,0,1,1.29.67A2,2,0,0,1,62.59,297.59Zm-1.81-1a1.35,1.35,0,0,0-.92.46,4.27,4.27,0,0,0-.82,1.14,4.52,4.52,0,0,0,1.09.11,2.52,2.52,0,0,0,1.07-.2c.31-.13.46-.3.46-.52a1,1,0,0,0-.3-.66A.8.8,0,0,0,60.78,296.56Z" fill="#231f20"/>
      <path d="M63.93,297.07l0-.9c0-.37.09-.56.26-.56a.57.57,0,0,1,.44.29,1.18,1.18,0,0,1,.21.7c0,.27,0,.47,0,.6.69-1.05,1.35-1.58,2-1.58.39,0,.59.1.59.29a.36.36,0,0,1-.14.26,2,2,0,0,1-.42.28,2.64,2.64,0,0,0-1.07.84,5,5,0,0,0-.71,1.29c-.19.48-.33.89-.44,1.22s-.19.58-.25.76a4.29,4.29,0,0,1-.19.54q-.19.48-.45.48a.35.35,0,0,1-.32-.23.92.92,0,0,1-.13-.46,4.2,4.2,0,0,1,.2-.88A9.45,9.45,0,0,0,63.93,297.07Z" fill="#231f20"/>
      <path d="M71.87,295.61a.56.56,0,0,1,.41.28,1,1,0,0,1,.23.63,9.38,9.38,0,0,1-.5,1.63q-.49,1.39-.66,1.89c-.12.33-.28.77-.47,1.32s-.39,1.08-.57,1.6c-.4,1.15-1,1.72-1.8,1.72a2.38,2.38,0,0,1-1.31-.41c-.41-.28-.62-.57-.62-.86a.63.63,0,0,1,.15-.37c.1-.14.18-.21.25-.21s.19.09.35.27c.47.52.86.79,1.19.79s.47-.22.67-.66a14.17,14.17,0,0,0,.57-1.47l.3-.91.08-.21c0-.09,0-.17.07-.24-.57.77-1.12,1.16-1.68,1.16a1.28,1.28,0,0,1-.93-.47,1.59,1.59,0,0,1-.42-1.1,6.46,6.46,0,0,1,.31-1.72,10,10,0,0,1,.73-1.87c.28-.53.51-.79.68-.79a.54.54,0,0,1,.41.2.58.58,0,0,1,.18.4,2.66,2.66,0,0,1-.31.85,7.76,7.76,0,0,0-1,3.1.43.43,0,0,0,.12.31.37.37,0,0,0,.29.13c.28,0,.63-.26,1-.77a9.54,9.54,0,0,0,1.1-1.82,21.45,21.45,0,0,0,.88-2.27C71.66,295.65,71.74,295.61,71.87,295.61Z" fill="#231f20"/>
      <path d="M82.75,292.25c.13,0,.29.12.48.35a1.16,1.16,0,0,1,.28.67,13.69,13.69,0,0,1-.3,1.77c-.2,1-.43,2-.7,3-.57,2.33-1,3.5-1.14,3.5a.53.53,0,0,1-.36-.21.55.55,0,0,1-.2-.37,5.36,5.36,0,0,1,.08-.62,3.2,3.2,0,0,1-2,1.2,1.25,1.25,0,0,1-1-.48,1.47,1.47,0,0,1-.43-1,5,5,0,0,1,.4-1.77A6.24,6.24,0,0,1,79,296.45a2.17,2.17,0,0,1,1.61-.84c.57,0,1,.34,1.19,1a23,23,0,0,0,.67-4C82.49,292.37,82.58,292.25,82.75,292.25Zm-1.32,5.89a2.38,2.38,0,0,0-.22-1.09c-.15-.3-.33-.45-.53-.45a1.48,1.48,0,0,0-1.06.64,4.94,4.94,0,0,0-.86,1.46,4.1,4.1,0,0,0-.32,1.42.46.46,0,0,0,.16.35.54.54,0,0,0,.37.13,2.28,2.28,0,0,0,1.27-.67,4,4,0,0,0,1.16-1.59l0-.14Z" fill="#231f20"/>
      <path d="M87.79,296.15A1.37,1.37,0,0,1,88,298a.59.59,0,0,1,.14.31,7.5,7.5,0,0,1-.15,1.16c-.1.54-.16.9-.18,1.06s0,.31-.05.41l-.06.29c0,.2-.11.3-.22.3s-.26-.13-.35-.38a3.17,3.17,0,0,1-.16-1c-.72.91-1.38,1.36-2,1.36a1.67,1.67,0,0,1-1.09-.47,1.33,1.33,0,0,1-.53-1,4.06,4.06,0,0,1,.53-1.78,6.9,6.9,0,0,1,1.36-1.89,2.34,2.34,0,0,1,1.59-.83A1.29,1.29,0,0,1,87.79,296.15Zm-.44,1.57c0-.74-.15-1.12-.45-1.12a1.72,1.72,0,0,0-1.09.67,6.47,6.47,0,0,0-1,1.51,3.17,3.17,0,0,0-.44,1.33.42.42,0,0,0,.17.33.68.68,0,0,0,.4.12,1.89,1.89,0,0,0,1.27-.76,4.13,4.13,0,0,0,1-1.85.28.28,0,0,1,.21-.22Z" fill="#231f20"/>
      <path d="M93.93,295.61c.12,0,.26.09.41.28a1,1,0,0,1,.22.63,8.88,8.88,0,0,1-.49,1.63L93.4,300c-.11.33-.27.77-.47,1.32s-.38,1.08-.57,1.6c-.4,1.15-1,1.72-1.8,1.72a2.35,2.35,0,0,1-1.3-.41c-.42-.28-.63-.57-.63-.86a.63.63,0,0,1,.15-.37c.1-.14.19-.21.26-.21s.19.09.35.27c.46.52.86.79,1.19.79s.47-.22.67-.66a14.17,14.17,0,0,0,.57-1.47l.3-.91.07-.21c0-.09,0-.17.08-.24-.57.77-1.13,1.16-1.68,1.16a1.24,1.24,0,0,1-.93-.47,1.56,1.56,0,0,1-.43-1.1,6.9,6.9,0,0,1,.31-1.72,10,10,0,0,1,.74-1.87c.28-.53.5-.79.68-.79a.52.52,0,0,1,.4.2.56.56,0,0,1,.19.4,3,3,0,0,1-.31.85,7.76,7.76,0,0,0-1,3.1.43.43,0,0,0,.12.31.34.34,0,0,0,.28.13c.29,0,.64-.26,1-.77A10.1,10.1,0,0,0,92.81,298a19.65,19.65,0,0,0,.87-2.27A.24.24,0,0,1,93.93,295.61Z" fill="#231f20"/>
    </g>
    <g>
      <path d="M50.46,354H48.39l-1.16-4.5q-.06-.24-.21-1a8.12,8.12,0,0,1-.18-1q0,.32-.18,1c-.09.46-.17.8-.22,1L45.29,354H43.23L41,345.46h1.79l1.09,4.67c.2.87.33,1.61.42,2.25,0-.23.08-.57.16-1s.16-.83.24-1.08l1.25-4.8H47.7l1.25,4.8c.06.21.12.54.21,1s.14.82.18,1.14c0-.31.11-.69.19-1.14s.17-.83.24-1.11l1.09-4.67h1.78Z" fill="#018da4"/>
      <path d="M56.55,354.14a3.41,3.41,0,0,1-2.48-.87,3.33,3.33,0,0,1-.89-2.48,3.63,3.63,0,0,1,.83-2.54,2.9,2.9,0,0,1,2.27-.9,2.85,2.85,0,0,1,2.16.79,3,3,0,0,1,.78,2.19v.86H55a1.72,1.72,0,0,0,.45,1.19,1.58,1.58,0,0,0,1.19.43,5.13,5.13,0,0,0,1.12-.12,5.46,5.46,0,0,0,1.1-.4v1.39a4.73,4.73,0,0,1-1,.35A6.85,6.85,0,0,1,56.55,354.14Zm-.26-5.52a1.14,1.14,0,0,0-.89.36,1.69,1.69,0,0,0-.37,1h2.51a1.51,1.51,0,0,0-.34-1A1.2,1.2,0,0,0,56.29,348.62Z" fill="#018da4"/>
      <path d="M69.49,347.47v.91l-1,.26a1.81,1.81,0,0,1,.28,1,2,2,0,0,1-.73,1.64,3.2,3.2,0,0,1-2,.59l-.33,0-.26,0a.6.6,0,0,0-.27.47c0,.26.32.39,1,.39H67.2a2.55,2.55,0,0,1,1.65.46,1.67,1.67,0,0,1,.56,1.36,2,2,0,0,1-1,1.78,4.88,4.88,0,0,1-2.75.64,3.78,3.78,0,0,1-2.09-.48,1.53,1.53,0,0,1-.72-1.34,1.44,1.44,0,0,1,.36-1,2.07,2.07,0,0,1,1.09-.57,1.18,1.18,0,0,1-.48-.38.91.91,0,0,1-.21-.57.87.87,0,0,1,.22-.62,2.26,2.26,0,0,1,.63-.49,1.74,1.74,0,0,1-.82-.72,2.15,2.15,0,0,1-.3-1.16,2,2,0,0,1,.69-1.65,3,3,0,0,1,2-.59,5.74,5.74,0,0,1,.65,0l.48.07ZM64.43,355a.64.64,0,0,0,.36.58,1.92,1.92,0,0,0,1,.21,3.66,3.66,0,0,0,1.51-.26.81.81,0,0,0,.54-.72.51.51,0,0,0-.32-.51,2.56,2.56,0,0,0-1-.14h-.92a1.38,1.38,0,0,0-.83.23A.71.71,0,0,0,64.43,355Zm.65-5.33a1.29,1.29,0,0,0,.25.84.86.86,0,0,0,.74.31.87.87,0,0,0,.74-.31,1.42,1.42,0,0,0,.23-.84c0-.79-.32-1.19-1-1.19S65.08,348.83,65.08,349.62Z" fill="#018da4"/>
      <path d="M75.21,354l-.24-.83h-.1a1.85,1.85,0,0,1-.81.7,2.71,2.71,0,0,1-1.2.25,2.29,2.29,0,0,1-1.74-.62,2.48,2.48,0,0,1-.59-1.78v-4.27h1.79v3.83a1.8,1.8,0,0,0,.25,1.06.92.92,0,0,0,.8.36,1.23,1.23,0,0,0,1.09-.5,3.17,3.17,0,0,0,.33-1.67v-3.08h1.79V354Z" fill="#018da4"/>
      <path d="M82.61,354l-.34-.89h0a2.65,2.65,0,0,1-.93.79,2.93,2.93,0,0,1-1.24.22,2,2,0,0,1-1.49-.54,2.07,2.07,0,0,1-.54-1.53,1.72,1.72,0,0,1,.73-1.54A4.28,4.28,0,0,1,81,350l1.14,0v-.29a.89.89,0,0,0-1-1,4.61,4.61,0,0,0-1.85.48l-.59-1.21a5.25,5.25,0,0,1,2.51-.59,3.14,3.14,0,0,1,2,.57,2.12,2.12,0,0,1,.7,1.75V354Zm-.52-3-.7,0a2.32,2.32,0,0,0-1.16.28.9.9,0,0,0-.38.79q0,.75.87.75a1.37,1.37,0,0,0,1-.35,1.27,1.27,0,0,0,.38-1Z" fill="#018da4"/>
      <path d="M89.36,347.35a3.28,3.28,0,0,1,.6,0l-.13,1.68a2,2,0,0,0-.53-.06,1.89,1.89,0,0,0-1.33.44,1.58,1.58,0,0,0-.48,1.23V354H85.7v-6.55h1.36l.26,1.1h.09a2.39,2.39,0,0,1,.82-.88A2,2,0,0,1,89.36,347.35Z" fill="#018da4"/>
      <path d="M95.31,354l-.34-.89h0a2.65,2.65,0,0,1-.93.79,3,3,0,0,1-1.25.22,2,2,0,0,1-1.48-.54,2.07,2.07,0,0,1-.54-1.53,1.72,1.72,0,0,1,.73-1.54,4.26,4.26,0,0,1,2.2-.55l1.13,0v-.29a.89.89,0,0,0-1-1,4.61,4.61,0,0,0-1.84.48l-.59-1.21a5.24,5.24,0,0,1,2.5-.59,3.17,3.17,0,0,1,2,.57,2.15,2.15,0,0,1,.7,1.75V354Zm-.53-3-.69,0a2.29,2.29,0,0,0-1.16.28.9.9,0,0,0-.38.79q0,.75.87.75a1.41,1.41,0,0,0,1-.35,1.26,1.26,0,0,0,.37-1Z" fill="#018da4"/>
      <path d="M104.45,354h-1.79V350.2a1.92,1.92,0,0,0-.25-1.07.94.94,0,0,0-.81-.35,1.2,1.2,0,0,0-1.08.5,3.13,3.13,0,0,0-.33,1.66V354H98.4v-6.55h1.36l.24.84h.1a1.88,1.88,0,0,1,.83-.72,2.81,2.81,0,0,1,1.19-.24,2.28,2.28,0,0,1,1.73.62,2.44,2.44,0,0,1,.6,1.78Z" fill="#018da4"/>
      <path d="M109.05,352.72a3.79,3.79,0,0,0,1.12-.21v1.33a4,4,0,0,1-1.64.3,2,2,0,0,1-1.56-.54,2.34,2.34,0,0,1-.49-1.63v-3.16h-.86v-.75l1-.6.51-1.38h1.15v1.39h1.83v1.34h-1.83V352a.69.69,0,0,0,.21.56A.8.8,0,0,0,109.05,352.72Z" fill="#018da4"/>
      <path d="M114.46,354.14a3.37,3.37,0,0,1-2.47-.87,3.29,3.29,0,0,1-.89-2.48,3.63,3.63,0,0,1,.82-2.54,2.94,2.94,0,0,1,2.28-.9,2.89,2.89,0,0,1,2.16.79,3,3,0,0,1,.77,2.19v.86h-4.22a1.72,1.72,0,0,0,.45,1.19,1.56,1.56,0,0,0,1.18.43,5,5,0,0,0,1.12-.12,5.46,5.46,0,0,0,1.1-.4v1.39a4.54,4.54,0,0,1-1,.35A6.85,6.85,0,0,1,114.46,354.14Zm-.25-5.52a1.12,1.12,0,0,0-.89.36,1.63,1.63,0,0,0-.37,1h2.51a1.51,1.51,0,0,0-.35-1A1.16,1.16,0,0,0,114.21,348.62Z" fill="#018da4"/>
      <path d="M121.55,354.14a3.37,3.37,0,0,1-2.47-.87,3.29,3.29,0,0,1-.89-2.48,3.63,3.63,0,0,1,.82-2.54,2.94,2.94,0,0,1,2.28-.9,2.89,2.89,0,0,1,2.16.79,3,3,0,0,1,.77,2.19v.86H120a1.72,1.72,0,0,0,.45,1.19,1.56,1.56,0,0,0,1.18.43,5,5,0,0,0,1.12-.12,5.46,5.46,0,0,0,1.1-.4v1.39a4.54,4.54,0,0,1-1,.35A6.85,6.85,0,0,1,121.55,354.14Zm-.25-5.52a1.12,1.12,0,0,0-.89.36,1.63,1.63,0,0,0-.37,1h2.51a1.51,1.51,0,0,0-.35-1A1.16,1.16,0,0,0,121.3,348.62Z" fill="#018da4"/>
      <path d="M134.74,350.74a3.53,3.53,0,0,1-.84,2.5,3.05,3.05,0,0,1-2.35.9,3.32,3.32,0,0,1-1.66-.41,2.78,2.78,0,0,1-1.11-1.19,3.94,3.94,0,0,1-.39-1.8,3.5,3.5,0,0,1,.84-2.5,3.09,3.09,0,0,1,2.36-.89,3.32,3.32,0,0,1,1.66.41,2.75,2.75,0,0,1,1.11,1.18A3.91,3.91,0,0,1,134.74,350.74Zm-4.52,0a2.82,2.82,0,0,0,.31,1.47,1.15,1.15,0,0,0,1,.49,1.12,1.12,0,0,0,1-.49,2.76,2.76,0,0,0,.32-1.47,2.7,2.7,0,0,0-.32-1.46,1.35,1.35,0,0,0-2.07,0A2.75,2.75,0,0,0,130.22,350.74Z" fill="#018da4"/>
      <path d="M140.86,354l-.24-.83h-.09a1.88,1.88,0,0,1-.82.7,2.71,2.71,0,0,1-1.2.25,2.29,2.29,0,0,1-1.74-.62,2.48,2.48,0,0,1-.58-1.78v-4.27H138v3.83a1.88,1.88,0,0,0,.25,1.06.92.92,0,0,0,.81.36,1.2,1.2,0,0,0,1.08-.5,3.16,3.16,0,0,0,.34-1.67v-3.08h1.78V354Z" fill="#018da4"/>
      <path d="M147.76,347.35a3.32,3.32,0,0,1,.61,0l-.14,1.68a2,2,0,0,0-.52-.06,1.93,1.93,0,0,0-1.34.44,1.58,1.58,0,0,0-.48,1.23V354h-1.78v-6.55h1.35l.26,1.1h.09a2.5,2.5,0,0,1,.83-.88A2,2,0,0,1,147.76,347.35Z" fill="#018da4"/>
      <path d="M155.43,352.72a3.79,3.79,0,0,0,1.13-.21v1.33a4,4,0,0,1-1.64.3,2,2,0,0,1-1.56-.54,2.34,2.34,0,0,1-.49-1.63v-3.16H152v-.75l1-.6.51-1.38h1.14v1.39h1.84v1.34h-1.84V352a.69.69,0,0,0,.22.56A.79.79,0,0,0,155.43,352.72Z" fill="#018da4"/>
      <path d="M163.84,350.74a3.49,3.49,0,0,1-.85,2.5,3.05,3.05,0,0,1-2.35.9,3.32,3.32,0,0,1-1.66-.41,2.78,2.78,0,0,1-1.11-1.19,3.94,3.94,0,0,1-.39-1.8,3.5,3.5,0,0,1,.84-2.5,3.11,3.11,0,0,1,2.36-.89,3.32,3.32,0,0,1,1.66.41,2.75,2.75,0,0,1,1.11,1.18A3.92,3.92,0,0,1,163.84,350.74Zm-4.53,0a2.72,2.72,0,0,0,.32,1.47,1.14,1.14,0,0,0,1,.49,1.1,1.1,0,0,0,1-.49,2.76,2.76,0,0,0,.32-1.47,2.7,2.7,0,0,0-.32-1.46,1.13,1.13,0,0,0-1-.49,1.15,1.15,0,0,0-1,.48A2.75,2.75,0,0,0,159.31,350.74Z" fill="#018da4"/>
      <path d="M167.39,354.14a2.14,2.14,0,0,1-1.82-.9,5,5,0,0,1,0-5,2.16,2.16,0,0,1,1.84-.9,2.13,2.13,0,0,1,1.89,1h.06a7.32,7.32,0,0,1-.14-1.31v-2.09H171V354h-1.37l-.35-.85h-.08A2,2,0,0,1,167.39,354.14Zm.62-1.42a1.23,1.23,0,0,0,1-.4,2.37,2.37,0,0,0,.35-1.36v-.19a2.64,2.64,0,0,0-.33-1.51,1.19,1.19,0,0,0-1.06-.46,1,1,0,0,0-.92.51,2.71,2.71,0,0,0-.34,1.47,2.56,2.56,0,0,0,.34,1.45A1.07,1.07,0,0,0,168,352.72Z" fill="#018da4"/>
      <path d="M175,354.14a2.12,2.12,0,0,1-1.81-.9,5,5,0,0,1,0-5,2.18,2.18,0,0,1,1.85-.9,2.13,2.13,0,0,1,1.88,1H177a7.24,7.24,0,0,1-.13-1.31v-2.09h1.79V354h-1.37l-.35-.85h-.07A2,2,0,0,1,175,354.14Zm.63-1.42a1.22,1.22,0,0,0,1-.4A2.29,2.29,0,0,0,177,351v-.19a2.73,2.73,0,0,0-.32-1.51,1.2,1.2,0,0,0-1.06-.46,1,1,0,0,0-.93.51,2.71,2.71,0,0,0-.33,1.47,2.57,2.57,0,0,0,.33,1.45A1.09,1.09,0,0,0,175.61,352.72Z" fill="#018da4"/>
      <path d="M182.29,354H180.5v-9.11h1.79Z" fill="#018da4"/>
      <path d="M187.13,354.14a3.41,3.41,0,0,1-2.48-.87,3.33,3.33,0,0,1-.89-2.48,3.63,3.63,0,0,1,.83-2.54,3.34,3.34,0,0,1,4.44-.11,3,3,0,0,1,.77,2.19v.86h-4.23a1.68,1.68,0,0,0,.46,1.19,1.56,1.56,0,0,0,1.18.43,5.06,5.06,0,0,0,1.12-.12,5.46,5.46,0,0,0,1.1-.4v1.39a4.73,4.73,0,0,1-1,.35A6.85,6.85,0,0,1,187.13,354.14Zm-.25-5.52a1.16,1.16,0,0,0-.9.36,1.68,1.68,0,0,0-.36,1h2.5a1.46,1.46,0,0,0-.34-1A1.18,1.18,0,0,0,186.88,348.62Z" fill="#018da4"/>
      <path d="M194.91,347.35a3.28,3.28,0,0,1,.6,0l-.13,1.68a2,2,0,0,0-.53-.06,1.9,1.9,0,0,0-1.33.44,1.58,1.58,0,0,0-.48,1.23V354h-1.79v-6.55h1.36l.26,1.1H193a2.39,2.39,0,0,1,.82-.88A2,2,0,0,1,194.91,347.35Z" fill="#018da4"/>
      <path d="M201.27,352.08a1.79,1.79,0,0,1-.7,1.53,3.46,3.46,0,0,1-2.09.53,6.06,6.06,0,0,1-1.22-.1,4.76,4.76,0,0,1-.95-.28v-1.48a6.49,6.49,0,0,0,1.13.4,4.72,4.72,0,0,0,1.1.15c.64,0,1-.18,1-.56a.45.45,0,0,0-.13-.34,1.92,1.92,0,0,0-.45-.3q-.31-.17-.84-.39a5.42,5.42,0,0,1-1.11-.59,1.65,1.65,0,0,1-.52-.61,2.2,2.2,0,0,1-.16-.86,1.56,1.56,0,0,1,.68-1.35,3.28,3.28,0,0,1,1.92-.48,5.33,5.33,0,0,1,2.3.52l-.54,1.28a9.7,9.7,0,0,0-.92-.34,2.83,2.83,0,0,0-.87-.14c-.53,0-.79.15-.79.43a.51.51,0,0,0,.25.42,8,8,0,0,0,1.12.52,5.09,5.09,0,0,1,1.12.58,1.71,1.71,0,0,1,.53.62A1.8,1.8,0,0,1,201.27,352.08Z" fill="#018da4"/>
      <path d="M211.48,347.47v.91l-1,.26a1.81,1.81,0,0,1,.28,1,2,2,0,0,1-.73,1.64,3.23,3.23,0,0,1-2,.59l-.32,0-.26,0a.59.59,0,0,0-.28.47q0,.39,1,.39h1.11a2.51,2.51,0,0,1,1.64.46,1.65,1.65,0,0,1,.57,1.36,2,2,0,0,1-1,1.78,4.93,4.93,0,0,1-2.75.64,3.84,3.84,0,0,1-2.1-.48,1.53,1.53,0,0,1-.72-1.34,1.4,1.4,0,0,1,.37-1,2.07,2.07,0,0,1,1.08-.57,1.33,1.33,0,0,1-.48-.38,1,1,0,0,1-.2-.57.87.87,0,0,1,.22-.62,2.35,2.35,0,0,1,.62-.49,1.76,1.76,0,0,1-.81-.72,2.07,2.07,0,0,1-.31-1.16,2.05,2.05,0,0,1,.7-1.65,3,3,0,0,1,2-.59,5.9,5.9,0,0,1,.66,0l.48.07Zm-5,7.48a.65.65,0,0,0,.35.58,2,2,0,0,0,1,.21,3.58,3.58,0,0,0,1.5-.26.82.82,0,0,0,.55-.72.5.5,0,0,0-.33-.51,2.47,2.47,0,0,0-1-.14h-.93a1.35,1.35,0,0,0-.82.23A.71.71,0,0,0,206.43,355Zm.65-5.33a1.35,1.35,0,0,0,.24.84.87.87,0,0,0,.74.31.86.86,0,0,0,.74-.31,1.35,1.35,0,0,0,.24-.84c0-.79-.33-1.19-1-1.19S207.08,348.83,207.08,349.62Z" fill="#018da4"/>
      <path d="M218.52,350.74a3.54,3.54,0,0,1-.85,2.5,3.05,3.05,0,0,1-2.35.9,3.32,3.32,0,0,1-1.66-.41,2.78,2.78,0,0,1-1.11-1.19,3.94,3.94,0,0,1-.39-1.8,3.5,3.5,0,0,1,.84-2.5,3.11,3.11,0,0,1,2.36-.89,3.32,3.32,0,0,1,1.66.41,2.75,2.75,0,0,1,1.11,1.18A3.92,3.92,0,0,1,218.52,350.74Zm-4.53,0a2.72,2.72,0,0,0,.32,1.47,1.14,1.14,0,0,0,1,.49,1.1,1.1,0,0,0,1-.49,2.76,2.76,0,0,0,.32-1.47,2.7,2.7,0,0,0-.32-1.46,1.35,1.35,0,0,0-2.07,0A2.75,2.75,0,0,0,214,350.74Z" fill="#018da4"/>
      <path d="M32.27,364.74a3.49,3.49,0,0,1-.85,2.5,3.05,3.05,0,0,1-2.35.9,3.35,3.35,0,0,1-1.66-.41,2.78,2.78,0,0,1-1.11-1.19,4.08,4.08,0,0,1-.38-1.8,3.54,3.54,0,0,1,.83-2.5,3.11,3.11,0,0,1,2.36-.89,3.32,3.32,0,0,1,1.66.41,2.75,2.75,0,0,1,1.11,1.18A3.92,3.92,0,0,1,32.27,364.74Zm-4.53,0a2.81,2.81,0,0,0,.32,1.47,1.34,1.34,0,0,0,2.07,0,2.77,2.77,0,0,0,.31-1.47,2.7,2.7,0,0,0-.32-1.46,1.12,1.12,0,0,0-1-.49,1.14,1.14,0,0,0-1,.48A2.65,2.65,0,0,0,27.74,364.74Z" fill="#018da4"/>
      <path d="M38.39,368l-.25-.83h-.09a1.85,1.85,0,0,1-.81.7,2.74,2.74,0,0,1-1.2.25,2.29,2.29,0,0,1-1.74-.62,2.44,2.44,0,0,1-.59-1.78v-4.27H35.5v3.83a1.8,1.8,0,0,0,.25,1.06.91.91,0,0,0,.8.36,1.23,1.23,0,0,0,1.09-.5,3.17,3.17,0,0,0,.33-1.67v-3.08h1.79V368Z" fill="#018da4"/>
      <path d="M44.39,366.72a3.85,3.85,0,0,0,1.13-.21v1.33a4,4,0,0,1-1.64.3,2,2,0,0,1-1.57-.54,2.39,2.39,0,0,1-.49-1.63v-3.16H41v-.75l1-.6.52-1.38h1.14v1.39h1.84v1.34H43.61V366a.66.66,0,0,0,.22.56A.79.79,0,0,0,44.39,366.72Z" fill="#018da4"/>
      <path d="M51.41,366.08a1.79,1.79,0,0,1-.7,1.53,3.46,3.46,0,0,1-2.09.53,6.06,6.06,0,0,1-1.22-.1,4.76,4.76,0,0,1-.95-.28v-1.48a6.49,6.49,0,0,0,1.13.4,4.71,4.71,0,0,0,1.09.15c.65,0,1-.18,1-.56a.49.49,0,0,0-.13-.34,1.92,1.92,0,0,0-.45-.3q-.32-.17-.84-.39a4.92,4.92,0,0,1-1.11-.59,1.65,1.65,0,0,1-.52-.61,2.2,2.2,0,0,1-.16-.86,1.56,1.56,0,0,1,.68-1.35,3.28,3.28,0,0,1,1.92-.48,5.36,5.36,0,0,1,2.3.52l-.54,1.28a9.7,9.7,0,0,0-.92-.34,2.83,2.83,0,0,0-.87-.14c-.53,0-.79.15-.79.43a.51.51,0,0,0,.25.42,7.45,7.45,0,0,0,1.12.52,5.33,5.33,0,0,1,1.12.58,1.71,1.71,0,0,1,.53.62A1.93,1.93,0,0,1,51.41,366.08Z" fill="#018da4"/>
      <path d="M52.73,359.78c0-.58.32-.87,1-.87s1,.29,1,.87a.87.87,0,0,1-.24.65,1,1,0,0,1-.73.23C53.05,360.66,52.73,360.37,52.73,359.78ZM54.59,368H52.81v-6.55h1.78Z" fill="#018da4"/>
      <path d="M58.54,368.14a2.12,2.12,0,0,1-1.81-.9,5,5,0,0,1,0-5,2.18,2.18,0,0,1,1.85-.9,2.13,2.13,0,0,1,1.88,1h.06A7.24,7.24,0,0,1,60.4,361v-2.09h1.79V368H60.82l-.35-.85H60.4A2,2,0,0,1,58.54,368.14Zm.63-1.42a1.21,1.21,0,0,0,1-.4,2.29,2.29,0,0,0,.35-1.36v-.19a2.73,2.73,0,0,0-.32-1.51,1.2,1.2,0,0,0-1.06-.46,1,1,0,0,0-.93.51,2.71,2.71,0,0,0-.33,1.47,2.57,2.57,0,0,0,.33,1.45A1.09,1.09,0,0,0,59.17,366.72Z" fill="#018da4"/>
      <path d="M67,368.14a3.41,3.41,0,0,1-2.48-.87,3.33,3.33,0,0,1-.89-2.48,3.63,3.63,0,0,1,.83-2.54,2.9,2.9,0,0,1,2.27-.9,2.85,2.85,0,0,1,2.16.79,3,3,0,0,1,.78,2.19v.86H65.47a1.72,1.72,0,0,0,.45,1.19,1.6,1.6,0,0,0,1.19.43,5.06,5.06,0,0,0,1.12-.12,5.46,5.46,0,0,0,1.1-.4v1.39a4.73,4.73,0,0,1-1,.35A6.85,6.85,0,0,1,67,368.14Zm-.26-5.52a1.14,1.14,0,0,0-.89.36,1.75,1.75,0,0,0-.37,1H68a1.51,1.51,0,0,0-.34-1A1.2,1.2,0,0,0,66.77,362.62Z" fill="#018da4"/>
      <path d="M79.47,361.37a2.05,2.05,0,0,1-.49,1.37,2.57,2.57,0,0,1-1.37.77v0a2.61,2.61,0,0,1,1.57.63,1.74,1.74,0,0,1,.54,1.35,2.28,2.28,0,0,1-.9,1.92,4.13,4.13,0,0,1-2.56.69,6.18,6.18,0,0,1-2.47-.46v-1.54a6.34,6.34,0,0,0,1.09.41,4.91,4.91,0,0,0,1.19.15,2.32,2.32,0,0,0,1.32-.3,1.11,1.11,0,0,0,.43-1,.88.88,0,0,0-.49-.85,3.62,3.62,0,0,0-1.57-.26h-.65v-1.38h.66a3,3,0,0,0,1.45-.27.93.93,0,0,0,.46-.89c0-.65-.4-1-1.21-1a2.87,2.87,0,0,0-.86.14,4,4,0,0,0-1,.49l-.84-1.25a4.66,4.66,0,0,1,2.79-.85,3.59,3.59,0,0,1,2.1.54A1.72,1.72,0,0,1,79.47,361.37Z" fill="#018da4"/>
      <path d="M88.18,368H86.11l-2-3.24-2,3.24H80.18L83,363.61l-2.66-4.15h2l1.84,3.08L86,359.46h2l-2.69,4.24Z" fill="#018da4"/>
      <path d="M99.52,368l-.35-.89h0a2.65,2.65,0,0,1-.93.79,2.9,2.9,0,0,1-1.24.22,2,2,0,0,1-1.49-.54,2.07,2.07,0,0,1-.54-1.53,1.74,1.74,0,0,1,.73-1.54,4.28,4.28,0,0,1,2.2-.55L99,364v-.29a.89.89,0,0,0-1-1,4.65,4.65,0,0,0-1.85.48l-.59-1.21a5.28,5.28,0,0,1,2.51-.59,3.14,3.14,0,0,1,2,.57,2.12,2.12,0,0,1,.7,1.75V368ZM99,365l-.69,0a2.26,2.26,0,0,0-1.16.28.88.88,0,0,0-.38.79c0,.5.29.75.86.75a1.42,1.42,0,0,0,1-.35,1.3,1.3,0,0,0,.37-1Z" fill="#018da4"/>
      <path d="M107.8,368.14a2.14,2.14,0,0,1-1.82-.9,4.08,4.08,0,0,1-.66-2.48,4.18,4.18,0,0,1,.67-2.51,2.19,2.19,0,0,1,1.85-.9,2.13,2.13,0,0,1,1.89,1h.06a7.32,7.32,0,0,1-.14-1.31v-2.09h1.8V368h-1.38l-.34-.85h-.08A2,2,0,0,1,107.8,368.14Zm.62-1.42a1.25,1.25,0,0,0,1-.4,2.37,2.37,0,0,0,.35-1.36v-.19a2.64,2.64,0,0,0-.33-1.51,1.2,1.2,0,0,0-1.06-.46,1,1,0,0,0-.93.51,2.71,2.71,0,0,0-.33,1.47,2.48,2.48,0,0,0,.34,1.45A1.07,1.07,0,0,0,108.42,366.72Z" fill="#018da4"/>
      <path d="M117.47,368l-.34-.89h0a2.65,2.65,0,0,1-.93.79,2.9,2.9,0,0,1-1.24.22,2,2,0,0,1-1.49-.54,2.07,2.07,0,0,1-.54-1.53,1.72,1.72,0,0,1,.73-1.54,4.28,4.28,0,0,1,2.2-.55l1.14,0v-.29a.89.89,0,0,0-1-1,4.61,4.61,0,0,0-1.85.48l-.59-1.21a5.25,5.25,0,0,1,2.51-.59,3.14,3.14,0,0,1,2,.57,2.12,2.12,0,0,1,.7,1.75V368Zm-.52-3-.69,0a2.26,2.26,0,0,0-1.16.28.88.88,0,0,0-.38.79c0,.5.28.75.86.75a1.42,1.42,0,0,0,1-.35,1.3,1.3,0,0,0,.37-1Z" fill="#018da4"/>
      <path d="M119.63,361.47h2l1.24,3.69a5.52,5.52,0,0,1,.22,1.13h0a5,5,0,0,1,.25-1.13l1.22-3.69h1.91l-2.77,7.39a3.22,3.22,0,0,1-1.09,1.54,2.74,2.74,0,0,1-1.65.51,4.51,4.51,0,0,1-.9-.1v-1.42a3,3,0,0,0,.7.07,1.24,1.24,0,0,0,.83-.29,1.87,1.87,0,0,0,.55-.87l.11-.32Z" fill="#018da4"/>
      <path d="M129.93,365.54v-1.47h3.14v1.47Z" fill="#018da4"/>
      <path d="M137,364.38A5.7,5.7,0,0,1,138,360.6a4,4,0,0,1,3.22-1.24,5.66,5.66,0,0,1,1.15.09v1.44a4.57,4.57,0,0,0-1-.11,3.5,3.5,0,0,0-1.52.28,1.82,1.82,0,0,0-.88.83,3.83,3.83,0,0,0-.35,1.56h.08a2,2,0,0,1,1.86-1,2.32,2.32,0,0,1,1.8.72,2.87,2.87,0,0,1,.65,2,3,3,0,0,1-.78,2.17,2.84,2.84,0,0,1-2.14.8,3.12,3.12,0,0,1-1.66-.44,2.87,2.87,0,0,1-1.09-1.28A5,5,0,0,1,137,364.38Zm3.09,2.31a1.06,1.06,0,0,0,.89-.39,1.73,1.73,0,0,0,.31-1.11,1.49,1.49,0,0,0-.29-1,1,1,0,0,0-.87-.36,1.32,1.32,0,0,0-.94.35,1.11,1.11,0,0,0-.39.83,1.9,1.9,0,0,0,.36,1.18A1.14,1.14,0,0,0,140.06,366.69Z" fill="#018da4"/>
      <path d="M149.82,363.74a6,6,0,0,1-.74,3.32,2.86,2.86,0,0,1-4.5,0,5.93,5.93,0,0,1-.75-3.29,6,6,0,0,1,.73-3.34,2.84,2.84,0,0,1,4.5.05A5.84,5.84,0,0,1,149.82,363.74Zm-4.19,0a6.75,6.75,0,0,0,.27,2.26,1,1,0,0,0,1.83,0,9.22,9.22,0,0,0,0-4.51,1,1,0,0,0-1.83,0A6.71,6.71,0,0,0,145.63,363.74Z" fill="#018da4"/>
      <path d="M160.17,368h-1.79V364.2a1.93,1.93,0,0,0-.24-1.07.85.85,0,0,0-.75-.35,1.09,1.09,0,0,0-1,.5,3.29,3.29,0,0,0-.31,1.66V368H154.3v-6.55h1.37l.24.84h.1a1.8,1.8,0,0,1,.76-.71,2.45,2.45,0,0,1,1.14-.25,2,2,0,0,1,2,1h.16a1.86,1.86,0,0,1,.78-.71,2.52,2.52,0,0,1,1.15-.25,2.29,2.29,0,0,1,1.69.57,2.51,2.51,0,0,1,.57,1.83V368h-1.79V364.2a1.93,1.93,0,0,0-.24-1.07.85.85,0,0,0-.75-.35,1.13,1.13,0,0,0-1,.47,2.64,2.64,0,0,0-.32,1.49Z" fill="#018da4"/>
      <path d="M166,359.78c0-.58.32-.87,1-.87s1,.29,1,.87a.87.87,0,0,1-.24.65,1,1,0,0,1-.73.23C166.33,360.66,166,360.37,166,359.78Zm1.86,8.24h-1.79v-6.55h1.79Z" fill="#018da4"/>
      <path d="M175.79,368H174V364.2a1.83,1.83,0,0,0-.26-1.07.91.91,0,0,0-.8-.35,1.2,1.2,0,0,0-1.08.5,3,3,0,0,0-.34,1.66V368h-1.78v-6.55h1.36l.24.84h.1a1.91,1.91,0,0,1,.82-.72,2.86,2.86,0,0,1,1.2-.24,2.28,2.28,0,0,1,1.73.62,2.44,2.44,0,0,1,.59,1.78Z" fill="#018da4"/>
      <path d="M182.27,368l-.24-.83h-.09a1.85,1.85,0,0,1-.81.7,2.79,2.79,0,0,1-1.21.25,2.29,2.29,0,0,1-1.74-.62,2.48,2.48,0,0,1-.58-1.78v-4.27h1.79v3.83a1.8,1.8,0,0,0,.25,1.06.91.91,0,0,0,.8.36,1.2,1.2,0,0,0,1.08-.5,3.06,3.06,0,0,0,.34-1.67v-3.08h1.78V368Z" fill="#018da4"/>
      <path d="M188.28,366.72a3.74,3.74,0,0,0,1.12-.21v1.33a4,4,0,0,1-1.64.3,2,2,0,0,1-1.56-.54,2.39,2.39,0,0,1-.49-1.63v-3.16h-.85v-.75l1-.6.52-1.38h1.14v1.39h1.83v1.34H187.5V366a.69.69,0,0,0,.21.56A.84.84,0,0,0,188.28,366.72Z" fill="#018da4"/>
      <path d="M193.69,368.14a3.38,3.38,0,0,1-2.47-.87,3.33,3.33,0,0,1-.89-2.48,3.63,3.63,0,0,1,.82-2.54,2.94,2.94,0,0,1,2.28-.9,2.85,2.85,0,0,1,2.16.79,3,3,0,0,1,.78,2.19v.86h-4.23a1.72,1.72,0,0,0,.45,1.19,1.58,1.58,0,0,0,1.19.43,5,5,0,0,0,1.11-.12,5.54,5.54,0,0,0,1.11-.4v1.39a4.82,4.82,0,0,1-1,.35A6.7,6.7,0,0,1,193.69,368.14Zm-.25-5.52a1.14,1.14,0,0,0-.89.36,1.69,1.69,0,0,0-.37,1h2.51a1.46,1.46,0,0,0-.35-1A1.16,1.16,0,0,0,193.44,362.62Z" fill="#018da4"/>
      <path d="M202.39,366.08a1.79,1.79,0,0,1-.7,1.53,3.49,3.49,0,0,1-2.1.53,6,6,0,0,1-1.21-.1,4.57,4.57,0,0,1-.95-.28v-1.48a6.38,6.38,0,0,0,1.12.4,4.86,4.86,0,0,0,1.1.15c.65,0,1-.18,1-.56a.49.49,0,0,0-.13-.34,1.92,1.92,0,0,0-.45-.3q-.31-.17-.84-.39a4.92,4.92,0,0,1-1.11-.59,1.65,1.65,0,0,1-.52-.61,2,2,0,0,1-.16-.86,1.56,1.56,0,0,1,.68-1.35,3.28,3.28,0,0,1,1.92-.48,5.36,5.36,0,0,1,2.3.52l-.54,1.28c-.33-.14-.64-.25-.92-.34a2.93,2.93,0,0,0-.87-.14c-.53,0-.79.15-.79.43a.51.51,0,0,0,.25.42,7.45,7.45,0,0,0,1.12.52,5.33,5.33,0,0,1,1.12.58,1.71,1.71,0,0,1,.53.62A1.93,1.93,0,0,1,202.39,366.08Z" fill="#018da4"/>
      <path d="M209.66,366.72a3.85,3.85,0,0,0,1.13-.21v1.33a4.05,4.05,0,0,1-1.65.3,2,2,0,0,1-1.56-.54,2.39,2.39,0,0,1-.49-1.63v-3.16h-.85v-.75l1-.6.52-1.38h1.14v1.39h1.84v1.34h-1.84V366a.66.66,0,0,0,.22.56A.79.79,0,0,0,209.66,366.72Z" fill="#018da4"/>
      <path d="M218.06,364.74a3.53,3.53,0,0,1-.84,2.5,3.07,3.07,0,0,1-2.35.9,3.32,3.32,0,0,1-1.66-.41,2.72,2.72,0,0,1-1.11-1.19,3.94,3.94,0,0,1-.39-1.8,3.5,3.5,0,0,1,.84-2.5,3.08,3.08,0,0,1,2.35-.89,3.36,3.36,0,0,1,1.67.41,2.75,2.75,0,0,1,1.11,1.18A4,4,0,0,1,218.06,364.74Zm-4.53,0a2.81,2.81,0,0,0,.32,1.47,1.15,1.15,0,0,0,1,.49,1.12,1.12,0,0,0,1-.49,2.77,2.77,0,0,0,.31-1.47,2.71,2.71,0,0,0-.31-1.46,1.35,1.35,0,0,0-2.07,0A2.74,2.74,0,0,0,213.53,364.74Z" fill="#018da4"/>
      <path d="M222.3,366.72a3.74,3.74,0,0,0,1.12-.21v1.33a4,4,0,0,1-1.64.3,2,2,0,0,1-1.56-.54,2.39,2.39,0,0,1-.49-1.63v-3.16h-.85v-.75l1-.6.52-1.38h1.14v1.39h1.83v1.34h-1.83V366a.69.69,0,0,0,.21.56A.82.82,0,0,0,222.3,366.72Z" fill="#018da4"/>
      <path d="M228.91,368l-.35-.89h0a2.65,2.65,0,0,1-.93.79,3,3,0,0,1-1.25.22,2,2,0,0,1-1.48-.54,2.07,2.07,0,0,1-.55-1.53,1.74,1.74,0,0,1,.73-1.54,4.28,4.28,0,0,1,2.2-.55l1.14,0v-.29a.89.89,0,0,0-1-1,4.57,4.57,0,0,0-1.84.48l-.6-1.21a5.28,5.28,0,0,1,2.51-.59,3.14,3.14,0,0,1,2,.57,2.13,2.13,0,0,1,.71,1.75V368Zm-.53-3-.69,0a2.26,2.26,0,0,0-1.16.28.9.9,0,0,0-.38.79q0,.75.87.75a1.41,1.41,0,0,0,1-.35,1.26,1.26,0,0,0,.37-1Z" fill="#018da4"/>
      <path d="M233.78,368H232v-9.11h1.78Z" fill="#018da4"/>
    </g>
    <g>
      <path d="M158.62,259.12a1.71,1.71,0,0,1-1.38-.78,2.57,2.57,0,0,1-.59-1.58,6.52,6.52,0,0,1,.4-2.22,7.91,7.91,0,0,1,1-2,6.53,6.53,0,0,1,1.34-1.38,2.4,2.4,0,0,1,1.36-.53,2,2,0,0,1,1.68.92,3.39,3.39,0,0,1,.67,2.07,5.34,5.34,0,0,1-.64,2.42,6.87,6.87,0,0,1-1.69,2.16A3.38,3.38,0,0,1,158.62,259.12Zm1.46-1.66a6.23,6.23,0,0,0,1.35-1.74,4.1,4.1,0,0,0,.57-2,2.78,2.78,0,0,0-.36-1.5,1,1,0,0,0-.83-.58,2,2,0,0,0-1.2.74,7.6,7.6,0,0,0-1.3,2,5.45,5.45,0,0,0-.57,2.31,1.81,1.81,0,0,0,.29,1.08.82.82,0,0,0,.67.41A2.18,2.18,0,0,0,160.08,257.46Z" fill="#231f20"/>
      <path d="M168.07,253.26a.26.26,0,0,1,.21-.07c.11,0,.24.11.39.31a1,1,0,0,1,.24.6,18.32,18.32,0,0,1-.53,1.85c-.35,1.13-.62,2-.82,2.69-.09.34-.23.5-.4.5a.32.32,0,0,1-.27-.13.8.8,0,0,1-.11-.48,5.64,5.64,0,0,1,.28-1.26,6.35,6.35,0,0,1-1.09,1.35,1.68,1.68,0,0,1-1.08.52,1.25,1.25,0,0,1-.91-.45,1.39,1.39,0,0,1-.44-.94,8.31,8.31,0,0,1,.67-2.85q.66-1.71,1.11-1.71a.5.5,0,0,1,.38.2.67.67,0,0,1,.16.45,3.83,3.83,0,0,1-.32.77,15.06,15.06,0,0,0-.65,1.56,4.65,4.65,0,0,0-.33,1.57.45.45,0,0,0,.12.32.4.4,0,0,0,.29.12c.31,0,.67-.26,1.09-.8a10.21,10.21,0,0,0,1.14-1.87,11.43,11.43,0,0,0,.77-2A1,1,0,0,1,168.07,253.26Z" fill="#231f20"/>
      <path d="M170.22,254.66l0-.9c0-.38.09-.57.26-.57a.56.56,0,0,1,.44.3,1.13,1.13,0,0,1,.21.69c0,.27,0,.47,0,.61q1-1.59,2-1.59c.39,0,.59.1.59.29a.36.36,0,0,1-.14.27,1.69,1.69,0,0,1-.42.27,2.75,2.75,0,0,0-1.07.85,5,5,0,0,0-.71,1.29c-.19.48-.33.88-.44,1.21l-.25.77c-.05.18-.12.36-.19.54s-.28.48-.44.48a.37.37,0,0,1-.33-.24.86.86,0,0,1-.13-.45,4.07,4.07,0,0,1,.2-.88A9.45,9.45,0,0,0,170.22,254.66Z" fill="#231f20"/>
      <path d="M179.62,257.94c0,.16.09.23.27.23a3,3,0,0,0,1.11-.26,4.5,4.5,0,0,1,.72-.25.19.19,0,0,1,.22.22c0,.24-.24.5-.71.81a2.51,2.51,0,0,1-1.3.45,1.48,1.48,0,0,1-1-.31.9.9,0,0,1-.38-.66,3.68,3.68,0,0,1,.14-.86q.15-.51.42-1.38c.18-.57.32-1,.42-1.42a3.81,3.81,0,0,1-.75.13.52.52,0,0,1-.38-.19.57.57,0,0,1-.19-.38c0-.19.52-.38,1.56-.55a8.19,8.19,0,0,0,.22-1.77q0-.36.24-.36a.86.86,0,0,1,.5.26.76.76,0,0,1,.3.58,5.86,5.86,0,0,1-.2,1.14c.46,0,.82-.06,1.09-.06.48,0,.72.11.72.31s-.13.22-.39.3-.8.21-1.64.38c-.16.63-.38,1.35-.63,2.16A7.86,7.86,0,0,0,179.62,257.94Z" fill="#231f20"/>
      <path d="M183.4,255.34a4.38,4.38,0,0,1,1.09-1.54,2,2,0,0,1,1.39-.61,1.47,1.47,0,0,1,1.2.61,2.33,2.33,0,0,1,.47,1.47,4.44,4.44,0,0,1-1.57,3.28,2.46,2.46,0,0,1-1.57.59,1.2,1.2,0,0,1-1-.56,2.4,2.4,0,0,1-.41-1.43A4.41,4.41,0,0,1,183.4,255.34Zm3.15-.11a2.19,2.19,0,0,0-.14-.77,1,1,0,0,0-.38-.54,2.47,2.47,0,0,0-1.42,1.28,4,4,0,0,0-.6,2c0,.61.16,1,.46,1.15a2.25,2.25,0,0,0,1.47-1.18A3.84,3.84,0,0,0,186.55,255.23Z" fill="#231f20"/>
      <path d="M193.49,249.83q.19,0,.48.36a1,1,0,0,1,.28.66,13.69,13.69,0,0,1-.3,1.77c-.2,1-.43,2-.7,3-.57,2.34-.95,3.5-1.14,3.5a.53.53,0,0,1-.36-.21.6.6,0,0,1-.2-.36,5.44,5.44,0,0,1,.08-.63,3.18,3.18,0,0,1-2,1.2,1.25,1.25,0,0,1-1-.48,1.46,1.46,0,0,1-.43-1,5.12,5.12,0,0,1,.4-1.77,6.16,6.16,0,0,1,1.16-1.87,2.18,2.18,0,0,1,1.61-.84c.57,0,1,.34,1.19,1a21.78,21.78,0,0,0,.67-4C193.23,250,193.32,249.83,193.49,249.83Zm-1.32,5.89a2.41,2.41,0,0,0-.22-1.09c-.15-.29-.32-.44-.53-.44a1.47,1.47,0,0,0-1.06.63,5.31,5.31,0,0,0-.86,1.46,4.06,4.06,0,0,0-.31,1.42.44.44,0,0,0,.15.35.56.56,0,0,0,.37.13,2.25,2.25,0,0,0,1.27-.67,4,4,0,0,0,1.16-1.58l0-.15Z" fill="#231f20"/>
      <path d="M199.48,249.83q.2,0,.48.36a1.11,1.11,0,0,1,.28.66,13.69,13.69,0,0,1-.3,1.77c-.2,1-.43,2-.7,3-.57,2.34-1,3.5-1.14,3.5a.53.53,0,0,1-.36-.21.55.55,0,0,1-.2-.36,5.44,5.44,0,0,1,.08-.63,3.2,3.2,0,0,1-2.05,1.2,1.25,1.25,0,0,1-.95-.48,1.46,1.46,0,0,1-.43-1,4.9,4.9,0,0,1,.4-1.77,6.16,6.16,0,0,1,1.16-1.87,2.17,2.17,0,0,1,1.61-.84c.57,0,1,.34,1.19,1a22.67,22.67,0,0,0,.67-4C199.22,250,199.31,249.83,199.48,249.83Zm-1.32,5.89a2.41,2.41,0,0,0-.22-1.09c-.15-.29-.33-.44-.53-.44a1.47,1.47,0,0,0-1.06.63,5.07,5.07,0,0,0-.86,1.46,4.1,4.1,0,0,0-.32,1.42.45.45,0,0,0,.16.35.54.54,0,0,0,.37.13,2.28,2.28,0,0,0,1.27-.67,4,4,0,0,0,1.16-1.58l0-.15Z" fill="#231f20"/>
      <path d="M202.7,250.84a24.2,24.2,0,0,1-.94,5.86c-.4,1.63-.68,2.44-.84,2.44s-.24-.08-.39-.26a.74.74,0,0,1-.22-.41c0-.09.12-.59.35-1.49s.46-2,.69-3.3a19.75,19.75,0,0,0,.35-3.54.48.48,0,0,1,.05-.24.25.25,0,0,1,.2-.07c.11,0,.26.12.46.34A1.07,1.07,0,0,1,202.7,250.84Z" fill="#231f20"/>
      <path d="M208.06,255.18a1.18,1.18,0,0,1-.69,1,3,3,0,0,1-1.56.4,6,6,0,0,1-1.58-.19,3.19,3.19,0,0,0-.16.94.84.84,0,0,0,.25.65,1.32,1.32,0,0,0,.86.22,3.87,3.87,0,0,0,1.22-.21,6.13,6.13,0,0,1,.69-.21c.21,0,.31.08.31.24s-.24.45-.73.71a3.11,3.11,0,0,1-1.43.37,2.12,2.12,0,0,1-1.52-.55,1.89,1.89,0,0,1-.59-1.41,4,4,0,0,1,.46-1.79,4.85,4.85,0,0,1,1.17-1.56,2.16,2.16,0,0,1,1.43-.64,1.72,1.72,0,0,1,1.29.67A2,2,0,0,1,208.06,255.18Zm-1.81-1a1.35,1.35,0,0,0-.92.46,4,4,0,0,0-.82,1.15,5.08,5.08,0,0,0,1.09.11,2.69,2.69,0,0,0,1.07-.2c.3-.13.46-.31.46-.52a1,1,0,0,0-.3-.66A.78.78,0,0,0,206.25,254.14Z" fill="#231f20"/>
      <path d="M209.39,254.66l0-.9c0-.38.09-.57.26-.57a.57.57,0,0,1,.44.3,1.13,1.13,0,0,1,.21.69c0,.27,0,.47,0,.61q1-1.59,2-1.59c.39,0,.58.1.58.29a.35.35,0,0,1-.13.27,2.19,2.19,0,0,1-.42.27,2.75,2.75,0,0,0-1.07.85,5.37,5.37,0,0,0-.72,1.29c-.18.48-.33.88-.43,1.21l-.25.77c-.06.18-.12.36-.19.54s-.28.48-.45.48a.36.36,0,0,1-.32-.24.86.86,0,0,1-.13-.45,4.07,4.07,0,0,1,.2-.88A9.43,9.43,0,0,0,209.39,254.66Z" fill="#231f20"/>
      <path d="M216.08,253.19a1,1,0,0,1,.77.45,1.34,1.34,0,0,1,.36.79.18.18,0,0,1-.2.2.84.84,0,0,1-.4-.21,1,1,0,0,0-.57-.21,2.16,2.16,0,0,0-.9.34c-.42.22-.62.46-.62.71s.37.5,1.1.94a3.26,3.26,0,0,1,.76.68,1.37,1.37,0,0,1,.35.89c0,.32-.22.62-.66.92a2.6,2.6,0,0,1-1.52.45,2.85,2.85,0,0,1-1.54-.42c-.44-.28-.66-.54-.66-.79a.36.36,0,0,1,.07-.24.27.27,0,0,1,.2-.09.71.71,0,0,1,.34.15,2.52,2.52,0,0,0,2.36.31.48.48,0,0,0,.31-.43.82.82,0,0,0-.34-.58,5.36,5.36,0,0,0-.77-.55,3.83,3.83,0,0,1-.76-.58,1,1,0,0,1-.35-.71c0-.43.34-.87,1-1.33A3.15,3.15,0,0,1,216.08,253.19Z" fill="#231f20"/>
      <path d="M150.26,266.16a1.07,1.07,0,0,1,.89.66,2.72,2.72,0,0,1,.38,1.36,2.78,2.78,0,0,1-.41,1.4,5.33,5.33,0,0,1-1,1.26,6,6,0,0,1-1.32.91,3,3,0,0,1-1.34.37,1.76,1.76,0,0,1-.46-.06c0,.14-.08.38-.16.73s-.15.65-.21.88-.12.48-.19.74c-.14.55-.27.82-.39.82s-.22-.09-.35-.26a.87.87,0,0,1-.19-.46,15.15,15.15,0,0,1,.39-1.75,32.77,32.77,0,0,0,1.15-6.29c0-.24.09-.36.26-.36a.81.81,0,0,1,.53.32,1,1,0,0,1,.3.7,1.6,1.6,0,0,1,0,.42A2.9,2.9,0,0,1,150.26,266.16Zm-2.93,5a2.72,2.72,0,0,0,1.37-.43,4,4,0,0,0,1.26-1.14,2.42,2.42,0,0,0,.53-1.43c0-.66-.16-1-.47-1s-.74.27-1.27.8a5.67,5.67,0,0,0-1.26,2.09l-.28,1.1Z" fill="#231f20"/>
      <path d="M154.43,263.84a24.6,24.6,0,0,1-.93,5.86c-.4,1.63-.68,2.44-.84,2.44a.54.54,0,0,1-.39-.26.78.78,0,0,1-.23-.41c0-.09.12-.59.35-1.49s.47-2,.7-3.3a20.71,20.71,0,0,0,.35-3.54.39.39,0,0,1,.05-.24.24.24,0,0,1,.2-.07c.1,0,.25.12.45.34A1.07,1.07,0,0,1,154.43,263.84Z" fill="#231f20"/>
      <path d="M159.2,266.74a1.61,1.61,0,0,1,.45,1,1.66,1.66,0,0,1-.3.9.52.52,0,0,1,.15.31,7.42,7.42,0,0,1-.15,1.15c-.1.54-.16.9-.18,1.07s0,.3-.06.4a1.36,1.36,0,0,1-.06.29q0,.3-.21.3c-.15,0-.27-.12-.36-.37a3.57,3.57,0,0,1-.16-1q-1.06,1.35-2,1.35a1.62,1.62,0,0,1-1.09-.47,1.35,1.35,0,0,1-.53-1,4.24,4.24,0,0,1,.53-1.78,6.93,6.93,0,0,1,1.37-1.89,2.36,2.36,0,0,1,1.58-.83A1.3,1.3,0,0,1,159.2,266.74Zm-.45,1.56c0-.74-.15-1.11-.44-1.11a1.68,1.68,0,0,0-1.09.66,6.72,6.72,0,0,0-1.06,1.51,3.13,3.13,0,0,0-.43,1.33.37.37,0,0,0,.17.33.59.59,0,0,0,.39.13,1.93,1.93,0,0,0,1.27-.76,4.18,4.18,0,0,0,1-1.86.23.23,0,0,1,.2-.21Z" fill="#231f20"/>
      <path d="M165.33,266.19c.13,0,.26.1.41.28a1,1,0,0,1,.22.63,8.87,8.87,0,0,1-.49,1.64q-.5,1.38-.66,1.89c-.12.33-.28.77-.47,1.32s-.39,1.08-.57,1.6q-.6,1.71-1.8,1.71a2.3,2.3,0,0,1-1.31-.41c-.42-.28-.62-.56-.62-.86a.66.66,0,0,1,.15-.37c.1-.14.18-.2.25-.2s.19.08.35.26c.47.53.86.79,1.19.79s.47-.22.67-.65a14.39,14.39,0,0,0,.57-1.48l.3-.9a1.94,1.94,0,0,0,.07-.22c0-.09.06-.17.08-.24-.57.78-1.13,1.16-1.68,1.16a1.26,1.26,0,0,1-.93-.46,1.62,1.62,0,0,1-.42-1.11,6.47,6.47,0,0,1,.31-1.71,10.11,10.11,0,0,1,.73-1.88c.28-.52.51-.79.68-.79a.57.57,0,0,1,.41.2.6.6,0,0,1,.18.4,2.58,2.58,0,0,1-.31.85,7.76,7.76,0,0,0-1,3.1.45.45,0,0,0,.12.32.38.38,0,0,0,.29.12c.28,0,.63-.25,1-.76a9.64,9.64,0,0,0,1.1-1.83,21.45,21.45,0,0,0,.88-2.27A.23.23,0,0,1,165.33,266.19Z" fill="#231f20"/>
      <path d="M175.26,266.74a1.58,1.58,0,0,1,.46,1,1.66,1.66,0,0,1-.3.9.49.49,0,0,1,.14.31,7.42,7.42,0,0,1-.15,1.15c-.1.54-.16.9-.18,1.07s0,.3,0,.4l-.06.29c0,.2-.1.3-.22.3s-.26-.12-.35-.37a3.23,3.23,0,0,1-.16-1q-1.06,1.35-2,1.35a1.62,1.62,0,0,1-1.09-.47,1.35,1.35,0,0,1-.53-1,4.1,4.1,0,0,1,.53-1.78,6.9,6.9,0,0,1,1.36-1.89,2.38,2.38,0,0,1,1.59-.83A1.27,1.27,0,0,1,175.26,266.74Zm-.44,1.56c0-.74-.15-1.11-.44-1.11a1.69,1.69,0,0,0-1.1.66,7,7,0,0,0-1.05,1.51,3.13,3.13,0,0,0-.43,1.33.38.38,0,0,0,.16.33.64.64,0,0,0,.4.13,1.93,1.93,0,0,0,1.27-.76,4.29,4.29,0,0,0,1-1.86.23.23,0,0,1,.2-.21Z" fill="#231f20"/>
      <path d="M179.76,267.15c.48-.64.88-1,1.19-1a1.18,1.18,0,0,1,.87.49,1.6,1.6,0,0,1,.42,1.05,7.38,7.38,0,0,1-.4,2.11c-.48,1.54-.91,2.3-1.3,2.3-.17,0-.26-.12-.26-.36a4.39,4.39,0,0,1,.26-1q.26-.78.48-1.53a4.26,4.26,0,0,0,.22-1.12,1.12,1.12,0,0,0-.11-.56c-.08-.12-.16-.18-.23-.18a.44.44,0,0,0-.24.07,1.37,1.37,0,0,0-.27.24l-.28.33a5.27,5.27,0,0,0-.33.46l-.33.51-.38.61-.39.6-.34.55-.35.54c-.08.13-.17.27-.28.42-.2.3-.36.44-.47.44s-.25-.09-.4-.27a.73.73,0,0,1-.23-.47,1.93,1.93,0,0,1,.08-.32c.15-.47.32-1,.51-1.73a10.06,10.06,0,0,0,.3-2.33c0-.58.1-.88.25-.88a.79.79,0,0,1,.53.28.88.88,0,0,1,.26.61,8,8,0,0,1-.2,1.27,16.08,16.08,0,0,1-.46,1.76A29.19,29.19,0,0,1,179.76,267.15Z" fill="#231f20"/>
      <path d="M188.24,262.83c.12,0,.28.12.47.36a1,1,0,0,1,.28.66,13.69,13.69,0,0,1-.3,1.77c-.2,1-.43,2-.7,3-.57,2.34-1,3.5-1.13,3.5a.53.53,0,0,1-.37-.21.6.6,0,0,1-.2-.36,4.26,4.26,0,0,1,.09-.63,3.22,3.22,0,0,1-2.06,1.2,1.25,1.25,0,0,1-.95-.48,1.51,1.51,0,0,1-.43-1,4.94,4.94,0,0,1,.41-1.77A6,6,0,0,1,184.5,267a2.18,2.18,0,0,1,1.61-.84,1.23,1.23,0,0,1,1.19,1,21.78,21.78,0,0,0,.67-4Q188,262.83,188.24,262.83Zm-1.32,5.89a2.41,2.41,0,0,0-.23-1.09c-.14-.29-.32-.44-.53-.44a1.48,1.48,0,0,0-1.06.63,5.31,5.31,0,0,0-.86,1.46,4.06,4.06,0,0,0-.31,1.42.44.44,0,0,0,.15.35.56.56,0,0,0,.37.13,2.25,2.25,0,0,0,1.27-.67,4,4,0,0,0,1.16-1.58l0-.15Z" fill="#231f20"/>
      <path d="M198.69,268.18a1.18,1.18,0,0,1-.69,1,3,3,0,0,1-1.56.4,6,6,0,0,1-1.58-.19,3.23,3.23,0,0,0-.17.94.84.84,0,0,0,.26.65,1.29,1.29,0,0,0,.85.22A3.88,3.88,0,0,0,197,271a5.51,5.51,0,0,1,.69-.21c.2,0,.31.08.31.24s-.25.45-.74.71a3.07,3.07,0,0,1-1.42.37,2.14,2.14,0,0,1-1.53-.55,1.89,1.89,0,0,1-.59-1.41,4.14,4.14,0,0,1,.46-1.79,5,5,0,0,1,1.18-1.56,2.14,2.14,0,0,1,1.43-.64,1.72,1.72,0,0,1,1.29.67A2.09,2.09,0,0,1,198.69,268.18Zm-1.82-1a1.37,1.37,0,0,0-.92.46,4,4,0,0,0-.81,1.15,5,5,0,0,0,1.09.11,2.64,2.64,0,0,0,1.06-.2c.31-.13.46-.31.46-.52a1,1,0,0,0-.29-.66A.8.8,0,0,0,196.87,267.14Z" fill="#231f20"/>
      <path d="M202.86,266.72c.31-.35.55-.53.7-.53a.74.74,0,0,1,.45.19c.15.13.22.24.22.33a.34.34,0,0,1-.08.23l-.27.25a2.73,2.73,0,0,0-.35.33,4.86,4.86,0,0,0-.41.48l-.61.75-.58.73c0,.07.12.19.22.36l.25.42.27.43q.15.26.27.42a2.63,2.63,0,0,1,.2.33,1,1,0,0,1,.19.43.3.3,0,0,1-.08.2.31.31,0,0,1-.21.07c-.36,0-.93-.64-1.72-1.93-1,1.29-1.69,1.93-1.91,1.93a.69.69,0,0,1-.6-.56s.09-.15.26-.32a21.9,21.9,0,0,0,1.74-1.9c-.37-.66-.68-1.26-.93-1.82a4.1,4.1,0,0,1-.39-1c0-.11,0-.19,0-.22s.11-.11.27-.11a1.59,1.59,0,0,1,.59.15c.23.09.34.21.34.34a5.38,5.38,0,0,0,.71,1.88C202.06,267.68,202.54,267.07,202.86,266.72Z" fill="#231f20"/>
      <path d="M208.35,266.16a1.07,1.07,0,0,1,.89.66,2.72,2.72,0,0,1,.38,1.36,2.78,2.78,0,0,1-.41,1.4,5.33,5.33,0,0,1-1,1.26,6,6,0,0,1-1.32.91,3,3,0,0,1-1.34.37,1.76,1.76,0,0,1-.46-.06c0,.14-.08.38-.16.73s-.15.65-.21.88-.12.48-.19.74c-.14.55-.27.82-.38.82s-.23-.09-.36-.26a.84.84,0,0,1-.18-.46,14,14,0,0,1,.38-1.75,32.77,32.77,0,0,0,1.15-6.29q0-.36.27-.36a.82.82,0,0,1,.52.32,1,1,0,0,1,.3.7,2.12,2.12,0,0,1,0,.42A2.87,2.87,0,0,1,208.35,266.16Zm-2.93,5a2.72,2.72,0,0,0,1.37-.43,4,4,0,0,0,1.26-1.14,2.42,2.42,0,0,0,.53-1.43c0-.66-.16-1-.47-1a2.21,2.21,0,0,0-1.27.8,5.67,5.67,0,0,0-1.26,2.09l-.28,1.1Z" fill="#231f20"/>
      <path d="M212.52,263.84a24.6,24.6,0,0,1-.93,5.86c-.4,1.63-.68,2.44-.84,2.44s-.24-.08-.39-.26a.74.74,0,0,1-.22-.41,14.68,14.68,0,0,1,.34-1.49c.24-.89.47-2,.7-3.3a20.71,20.71,0,0,0,.35-3.54.39.39,0,0,1,.05-.24.25.25,0,0,1,.2-.07c.1,0,.25.12.45.34A1,1,0,0,1,212.52,263.84Z" fill="#231f20"/>
      <path d="M213.57,268.34a4.4,4.4,0,0,1,1.1-1.54,2,2,0,0,1,1.39-.61,1.46,1.46,0,0,1,1.19.61,2.28,2.28,0,0,1,.48,1.47,4.21,4.21,0,0,1-.42,1.78,4.1,4.1,0,0,1-1.16,1.5,2.42,2.42,0,0,1-1.56.59,1.2,1.2,0,0,1-1-.56,2.4,2.4,0,0,1-.41-1.43A4.55,4.55,0,0,1,213.57,268.34Zm3.15-.11a2.19,2.19,0,0,0-.13-.77,1.06,1.06,0,0,0-.38-.54,2.47,2.47,0,0,0-1.42,1.28,4,4,0,0,0-.6,2c0,.61.15,1,.46,1.15a2.29,2.29,0,0,0,1.47-1.18A3.82,3.82,0,0,0,216.72,268.23Z" fill="#231f20"/>
      <path d="M219.26,267.66l0-.9c0-.38.09-.57.26-.57a.56.56,0,0,1,.44.3,1.13,1.13,0,0,1,.21.69c0,.27,0,.47,0,.61q1-1.59,2-1.59c.39,0,.59.1.59.29a.36.36,0,0,1-.14.27,1.69,1.69,0,0,1-.42.27,2.75,2.75,0,0,0-1.07.85,5,5,0,0,0-.71,1.29c-.19.48-.33.88-.44,1.21l-.25.77c-.05.18-.12.36-.19.54s-.28.48-.44.48a.37.37,0,0,1-.33-.24.86.86,0,0,1-.13-.45,4.07,4.07,0,0,1,.2-.88A9.45,9.45,0,0,0,219.26,267.66Z" fill="#231f20"/>
      <path d="M227.3,268.18a1.18,1.18,0,0,1-.69,1,3,3,0,0,1-1.56.4,6,6,0,0,1-1.58-.19,3.23,3.23,0,0,0-.17.94.84.84,0,0,0,.26.65,1.28,1.28,0,0,0,.85.22,3.82,3.82,0,0,0,1.22-.21,6.13,6.13,0,0,1,.69-.21c.21,0,.32.08.32.24s-.25.45-.74.71a3.07,3.07,0,0,1-1.42.37,2.13,2.13,0,0,1-1.53-.55,1.89,1.89,0,0,1-.59-1.41,4.14,4.14,0,0,1,.46-1.79,4.87,4.87,0,0,1,1.18-1.56,2.14,2.14,0,0,1,1.42-.64,1.69,1.69,0,0,1,1.29.67A2.05,2.05,0,0,1,227.3,268.18Zm-1.82-1a1.37,1.37,0,0,0-.92.46,4.17,4.17,0,0,0-.82,1.15,5.18,5.18,0,0,0,1.1.11,2.67,2.67,0,0,0,1.06-.2c.31-.13.46-.31.46-.52a1,1,0,0,0-.29-.66A.8.8,0,0,0,225.48,267.14Z" fill="#231f20"/>
      <path d="M150.44,285.17c-.11,0-.22-.08-.34-.23a.68.68,0,0,1-.18-.37A2.58,2.58,0,0,1,150,284c.4-1.44.67-2.46.82-3.08a3.87,3.87,0,0,1-.71.12.57.57,0,0,1-.38-.17.48.48,0,0,1-.2-.37q0-.21.54-.36l1-.22c.08-.38.14-.68.18-.88a6.75,6.75,0,0,1,.78-2.39,1.54,1.54,0,0,1,1.34-.73,1.19,1.19,0,0,1,1,.47,1.71,1.71,0,0,1,.38,1.12c0,.42-.11.64-.33.64s-.35-.22-.47-.65a1.35,1.35,0,0,0-.2-.44.43.43,0,0,0-.35-.21.47.47,0,0,0-.37.19,1.39,1.39,0,0,0-.3.53,9,9,0,0,0-.48,1.78l-.1.42a6.62,6.62,0,0,1,.88-.06,1.67,1.67,0,0,1,.64.09c.13.07.2.15.2.24s-.14.27-.4.35a12.92,12.92,0,0,1-1.55.31,33.93,33.93,0,0,1-1.16,4.12C150.63,285.05,150.53,285.17,150.44,285.17Z" fill="#231f20"/>
      <path d="M154.56,281.34a4.51,4.51,0,0,1,1.09-1.54,2.07,2.07,0,0,1,1.39-.61,1.46,1.46,0,0,1,1.2.61,2.28,2.28,0,0,1,.48,1.47,4.4,4.4,0,0,1-1.58,3.28,2.42,2.42,0,0,1-1.57.59,1.23,1.23,0,0,1-1-.56,2.39,2.39,0,0,1-.4-1.43A4.39,4.39,0,0,1,154.56,281.34Zm3.15-.11a2.19,2.19,0,0,0-.13-.77,1.07,1.07,0,0,0-.39-.54,2.5,2.5,0,0,0-1.42,1.28,4.1,4.1,0,0,0-.59,2c0,.61.15,1,.45,1.15a2.25,2.25,0,0,0,1.47-1.18A3.74,3.74,0,0,0,157.71,281.23Z" fill="#231f20"/>
      <path d="M160.24,280.66l0-.9q0-.57.27-.57a.57.57,0,0,1,.44.3,1.13,1.13,0,0,1,.21.69,4.6,4.6,0,0,1,0,.61q1-1.59,2-1.59c.39,0,.59.1.59.29a.35.35,0,0,1-.13.27,2.19,2.19,0,0,1-.42.27,2.75,2.75,0,0,0-1.07.85,4.77,4.77,0,0,0-.72,1.29c-.18.48-.33.88-.44,1.21s-.19.58-.24.77-.12.36-.19.54-.28.48-.45.48a.39.39,0,0,1-.33-.24,1,1,0,0,1-.12-.45,3.52,3.52,0,0,1,.2-.88A9.43,9.43,0,0,0,160.24,280.66Z" fill="#231f20"/>
      <path d="M172.49,279.74a1.58,1.58,0,0,1,.46,1,1.66,1.66,0,0,1-.3.9.56.56,0,0,1,.14.31,7.42,7.42,0,0,1-.15,1.15c-.1.54-.16.9-.18,1.07s0,.3-.05.4l-.06.29c0,.2-.11.3-.22.3s-.26-.12-.35-.37a3.23,3.23,0,0,1-.16-1q-1.08,1.35-2,1.35a1.62,1.62,0,0,1-1.09-.47,1.32,1.32,0,0,1-.53-1,4.2,4.2,0,0,1,.52-1.78,7.15,7.15,0,0,1,1.37-1.89,2.38,2.38,0,0,1,1.59-.83A1.27,1.27,0,0,1,172.49,279.74Zm-.44,1.56q0-1.11-.45-1.11a1.7,1.7,0,0,0-1.09.66,6.68,6.68,0,0,0-1,1.51,3.17,3.17,0,0,0-.44,1.33.39.39,0,0,0,.17.33.62.62,0,0,0,.4.13,2,2,0,0,0,1.27-.76,4.17,4.17,0,0,0,1-1.86.25.25,0,0,1,.21-.21Z" fill="#231f20"/>
      <path d="M175.28,283.94c0,.16.08.23.26.23a3,3,0,0,0,1.11-.26,4.79,4.79,0,0,1,.73-.25c.14,0,.21.07.21.22s-.24.5-.71.81a2.51,2.51,0,0,1-1.3.45,1.44,1.44,0,0,1-1-.31.89.89,0,0,1-.39-.66,3.3,3.3,0,0,1,.15-.86c.09-.34.23-.8.41-1.38s.32-1,.43-1.42a4,4,0,0,1-.76.13.53.53,0,0,1-.38-.19.6.6,0,0,1-.18-.38c0-.19.52-.38,1.56-.55a8.79,8.79,0,0,0,.21-1.77q0-.36.24-.36a.88.88,0,0,1,.51.26.76.76,0,0,1,.3.58,5.36,5.36,0,0,1-.21,1.14c.46,0,.82-.06,1.09-.06.48,0,.72.11.72.31s-.13.22-.39.3-.8.21-1.63.38c-.17.63-.38,1.35-.64,2.16A7.47,7.47,0,0,0,175.28,283.94Z" fill="#231f20"/>
      <path d="M185.75,276.84a24.6,24.6,0,0,1-.93,5.86c-.41,1.63-.68,2.44-.84,2.44a.54.54,0,0,1-.39-.26.78.78,0,0,1-.23-.41c0-.09.12-.59.35-1.49s.47-2,.7-3.3a20.71,20.71,0,0,0,.35-3.54.49.49,0,0,1,0-.24.27.27,0,0,1,.21-.07c.1,0,.25.12.45.34A1.07,1.07,0,0,1,185.75,276.84Z" fill="#231f20"/>
      <path d="M191.12,281.18a1.2,1.2,0,0,1-.7,1,3,3,0,0,1-1.55.4,6,6,0,0,1-1.58-.19,2.93,2.93,0,0,0-.17.94.81.81,0,0,0,.26.65,1.28,1.28,0,0,0,.85.22,3.87,3.87,0,0,0,1.22-.21,6.13,6.13,0,0,1,.69-.21c.21,0,.31.08.31.24s-.24.45-.73.71a3.08,3.08,0,0,1-1.43.37,2.12,2.12,0,0,1-1.52-.55,1.89,1.89,0,0,1-.59-1.41,4,4,0,0,1,.46-1.79,4.74,4.74,0,0,1,1.18-1.56,2.12,2.12,0,0,1,1.42-.64,1.72,1.72,0,0,1,1.29.67A2.05,2.05,0,0,1,191.12,281.18Zm-1.82-1a1.37,1.37,0,0,0-.92.46,4.17,4.17,0,0,0-.82,1.15,5.18,5.18,0,0,0,1.1.11,2.67,2.67,0,0,0,1.06-.2c.31-.13.46-.31.46-.52a1,1,0,0,0-.3-.66A.78.78,0,0,0,189.3,280.14Z" fill="#231f20"/>
      <path d="M195.91,279.74a1.58,1.58,0,0,1,.46,1,1.66,1.66,0,0,1-.3.9.52.52,0,0,1,.15.31,9,9,0,0,1-.15,1.15c-.1.54-.16.9-.18,1.07s0,.3-.06.4a1.36,1.36,0,0,1-.06.29q0,.3-.21.3c-.15,0-.27-.12-.36-.37a3.57,3.57,0,0,1-.16-1q-1.06,1.35-2,1.35a1.62,1.62,0,0,1-1.09-.47,1.35,1.35,0,0,1-.53-1,4.24,4.24,0,0,1,.53-1.78,6.93,6.93,0,0,1,1.37-1.89,2.36,2.36,0,0,1,1.58-.83A1.27,1.27,0,0,1,195.91,279.74Zm-.44,1.56c0-.74-.15-1.11-.44-1.11a1.68,1.68,0,0,0-1.09.66,6.72,6.72,0,0,0-1.06,1.51,3.13,3.13,0,0,0-.43,1.33.37.37,0,0,0,.17.33.59.59,0,0,0,.39.13,1.93,1.93,0,0,0,1.27-.76,4.18,4.18,0,0,0,1-1.86.23.23,0,0,1,.2-.21Z" fill="#231f20"/>
      <path d="M200.79,279.19a1,1,0,0,1,.77.45,1.38,1.38,0,0,1,.35.79c0,.13-.06.2-.19.2a.84.84,0,0,1-.4-.21,1,1,0,0,0-.57-.21,2.16,2.16,0,0,0-.9.34c-.42.22-.62.46-.62.71s.37.5,1.1.94a3.26,3.26,0,0,1,.76.68,1.37,1.37,0,0,1,.35.89c0,.32-.22.62-.66.92a2.6,2.6,0,0,1-1.52.45,2.82,2.82,0,0,1-1.54-.42c-.44-.28-.66-.54-.66-.79a.36.36,0,0,1,.07-.24.27.27,0,0,1,.2-.09.71.71,0,0,1,.34.15,2.52,2.52,0,0,0,2.36.31.48.48,0,0,0,.31-.43.8.8,0,0,0-.35-.58,4.76,4.76,0,0,0-.76-.55,3.83,3.83,0,0,1-.76-.58,1,1,0,0,1-.35-.71c0-.43.34-.87,1-1.33A3.21,3.21,0,0,1,200.79,279.19Z" fill="#231f20"/>
      <path d="M203.81,283.94c0,.16.09.23.27.23a3,3,0,0,0,1.11-.26,4.5,4.5,0,0,1,.72-.25.19.19,0,0,1,.22.22c0,.24-.24.5-.72.81a2.45,2.45,0,0,1-1.29.45,1.48,1.48,0,0,1-1-.31.9.9,0,0,1-.38-.66,3.68,3.68,0,0,1,.14-.86q.15-.51.42-1.38c.18-.57.32-1,.42-1.42a3.93,3.93,0,0,1-.75.13.52.52,0,0,1-.38-.19.57.57,0,0,1-.19-.38c0-.19.52-.38,1.56-.55a8.19,8.19,0,0,0,.22-1.77q0-.36.24-.36a.89.89,0,0,1,.5.26.76.76,0,0,1,.3.58,5.86,5.86,0,0,1-.2,1.14c.45,0,.82-.06,1.09-.06.48,0,.72.11.72.31s-.13.22-.39.3-.81.21-1.64.38q-.26.94-.63,2.16A7.86,7.86,0,0,0,203.81,283.94Z" fill="#231f20"/>
      <path d="M217.23,281.44a1.18,1.18,0,0,1,.64,1.05,1.76,1.76,0,0,1-.76,1.29,5.63,5.63,0,0,1-1.85,1,6.88,6.88,0,0,1-2.19.36c-.74,0-1.11-.13-1.11-.41,0-.07.24-.16.71-.28l1.57-.37a4.89,4.89,0,0,0,1.56-.64,1.23,1.23,0,0,0,.72-1c0-.21-.15-.38-.43-.51a3.58,3.58,0,0,0-1-.28c-.93-.14-1.4-.3-1.4-.48a.3.3,0,0,1,0-.15,1.88,1.88,0,0,1,.61-.46l1.05-.59a3.92,3.92,0,0,0,1-.76,1.37,1.37,0,0,0,.44-.95c0-.37-.2-.56-.61-.56a2.92,2.92,0,0,0-1.25.39,4.62,4.62,0,0,1-.85.39c-.07,0-.2-.09-.38-.26s-.28-.3-.28-.39c0-.24.33-.49,1-.74a4.76,4.76,0,0,1,1.73-.39,1.77,1.77,0,0,1,1.28.52,1.6,1.6,0,0,1,.52,1.18,1.91,1.91,0,0,1-.75,1.36,7.4,7.4,0,0,1-1.75,1.16A4.36,4.36,0,0,1,217.23,281.44Z" fill="#231f20"/>
      <path d="M223.59,281.92a7.4,7.4,0,0,1-1.23,2.26,2.07,2.07,0,0,1-1.5.93,1.63,1.63,0,0,1-1.29-.68,2.38,2.38,0,0,1-.54-1.52,8.54,8.54,0,0,1,.53-2.94,7.78,7.78,0,0,1,1.34-2.43,2.2,2.2,0,0,1,1.57-.94,1.31,1.31,0,0,1,1.17.71,4,4,0,0,1,.41,2A7.9,7.9,0,0,1,223.59,281.92Zm-.62-2.45c0-1.26-.18-1.89-.55-1.89-.17,0-.38.17-.64.5a7.63,7.63,0,0,0-.76,1.24,9.9,9.9,0,0,0-.62,1.7,6.88,6.88,0,0,0-.26,1.76c0,.92.25,1.38.73,1.38.24,0,.52-.26.85-.77a8.78,8.78,0,0,0,.88-1.89A6.54,6.54,0,0,0,223,279.47Z" fill="#231f20"/>
      <path d="M164.6,292.19c.24,0,.46.17.65.5a2.34,2.34,0,0,1,.28,1.13,8.64,8.64,0,0,1-.22,1.64,9.68,9.68,0,0,1-.6,1.84c-.25.56-.49.84-.73.84s-.25-.11-.25-.33a8.07,8.07,0,0,1,.41-1.62,7,7,0,0,0,.42-2.05c0-.51-.08-.76-.24-.76s-.43.18-.69.53-.54.77-.84,1.27-.45.76-.48.8l-.09.15a1.51,1.51,0,0,1-.12.2l-.33.65a8.06,8.06,0,0,1-.48.85c-.13.2-.25.3-.35.3a.48.48,0,0,1-.33-.19.56.56,0,0,1-.18-.36,2.64,2.64,0,0,1,.21-.7,7.76,7.76,0,0,0,.63-2.9.83.83,0,0,0-.11-.43.3.3,0,0,0-.24-.17.5.5,0,0,0-.28.11,2.83,2.83,0,0,0-.35.41c-.15.2-.28.38-.39.56l-.51.82c-.23.37-.4.65-.52.83l-.4.62-.35.55c-.08.13-.18.27-.28.42-.22.3-.38.44-.48.44s-.23-.09-.39-.27-.24-.31-.24-.4a1.72,1.72,0,0,1,.05-.35c0-.13.07-.26.1-.39s.09-.32.17-.57.16-.55.26-.89a7.36,7.36,0,0,0,.23-1.4c.05-.6.09-1,.12-1.31s.09-.42.2-.42a.74.74,0,0,1,.52.28.83.83,0,0,1,.26.55,12.85,12.85,0,0,1-.79,3.48c.89-1.68,1.46-2.67,1.69-3s.43-.56.6-.75a1.3,1.3,0,0,1,1-.52c.19,0,.42.17.69.5a1.58,1.58,0,0,1,.4,1,7.3,7.3,0,0,1-.14,1.25C163,293.11,163.84,292.19,164.6,292.19Z" fill="#231f20"/>
      <path d="M167.87,292.19a.55.55,0,0,1,.43.28.86.86,0,0,1,.2.54,10.18,10.18,0,0,1-.34,1.58c-.24.87-.53,1.85-.88,2.94-.14.4-.31.6-.52.6a.34.34,0,0,1-.28-.14.45.45,0,0,1-.12-.31,2.72,2.72,0,0,1,.09-.55c.06-.25.14-.59.26-1s.21-.76.28-1,.13-.57.21-.9.13-.6.17-.8.09-.41.15-.62C167.63,292.39,167.75,292.19,167.87,292.19Zm.06-1.7a.69.69,0,0,1,.19-.46.55.55,0,0,1,.39-.21c.13,0,.29.16.47.48a1.73,1.73,0,0,1,.28.81.31.31,0,0,1-.11.22.35.35,0,0,1-.23.09,1.31,1.31,0,0,1-1-.93Z" fill="#231f20"/>
      <path d="M172.3,293.15c.49-.64.88-1,1.19-1a1.2,1.2,0,0,1,.88.49,1.64,1.64,0,0,1,.41,1.05,7.05,7.05,0,0,1-.4,2.11c-.48,1.54-.91,2.3-1.29,2.3q-.27,0-.27-.36a4.39,4.39,0,0,1,.26-1q.25-.78.48-1.53a4.26,4.26,0,0,0,.22-1.12,1,1,0,0,0-.11-.56c-.08-.12-.15-.18-.23-.18a.43.43,0,0,0-.23.07,1.37,1.37,0,0,0-.27.24,4.09,4.09,0,0,0-.28.33,5.27,5.27,0,0,0-.33.46q-.21.3-.33.51l-.39.61-.38.6c-.09.13-.21.32-.35.55l-.34.54-.28.42c-.2.3-.36.44-.48.44a.61.61,0,0,1-.4-.27.79.79,0,0,1-.23-.47,1.47,1.47,0,0,1,.09-.32c.15-.47.32-1,.5-1.73A10.06,10.06,0,0,0,170,293c0-.58.11-.88.25-.88a.77.77,0,0,1,.53.28.84.84,0,0,1,.26.61,7.61,7.61,0,0,1-.19,1.27c-.14.63-.29,1.21-.47,1.76A31.13,31.13,0,0,1,172.3,293.15Z" fill="#231f20"/>
      <path d="M184.38,292.16a1.07,1.07,0,0,1,.89.66,2.62,2.62,0,0,1,.38,1.36,2.78,2.78,0,0,1-.41,1.4,5.55,5.55,0,0,1-1,1.26,6.27,6.27,0,0,1-1.33.91,3,3,0,0,1-1.34.37,1.63,1.63,0,0,1-.45-.06c0,.14-.09.38-.17.73s-.15.65-.21.88-.12.48-.19.74c-.14.55-.27.82-.38.82s-.23-.09-.36-.26a.84.84,0,0,1-.18-.46,14,14,0,0,1,.38-1.75,32.77,32.77,0,0,0,1.15-6.29q0-.36.27-.36a.82.82,0,0,1,.52.32,1,1,0,0,1,.3.7,2.12,2.12,0,0,1,0,.42A2.87,2.87,0,0,1,184.38,292.16Zm-2.93,5a2.78,2.78,0,0,0,1.38-.43,4.12,4.12,0,0,0,1.25-1.14,2.42,2.42,0,0,0,.53-1.43c0-.66-.16-1-.47-1s-.73.27-1.27.8a5.67,5.67,0,0,0-1.26,2.09l-.28,1.1Z" fill="#231f20"/>
      <path d="M191,294.18a1.18,1.18,0,0,1-.69,1,3,3,0,0,1-1.56.4,6,6,0,0,1-1.58-.19,3.23,3.23,0,0,0-.17.94.84.84,0,0,0,.26.65,1.29,1.29,0,0,0,.85.22,3.88,3.88,0,0,0,1.23-.21,6.13,6.13,0,0,1,.69-.21c.2,0,.31.08.31.24s-.24.45-.73.71a3.14,3.14,0,0,1-1.43.37,2.12,2.12,0,0,1-1.52-.55,1.86,1.86,0,0,1-.59-1.41,4.12,4.12,0,0,1,.45-1.79,5,5,0,0,1,1.18-1.56,2.14,2.14,0,0,1,1.43-.64,1.72,1.72,0,0,1,1.29.67A2,2,0,0,1,191,294.18Zm-1.81-1a1.37,1.37,0,0,0-.93.46,4,4,0,0,0-.81,1.15,5.08,5.08,0,0,0,1.09.11,2.72,2.72,0,0,0,1.07-.2c.3-.13.45-.31.45-.52a1,1,0,0,0-.29-.66A.8.8,0,0,0,189.17,293.14Z" fill="#231f20"/>
      <path d="M192.31,293.66l0-.9c0-.38.08-.57.26-.57a.57.57,0,0,1,.44.3,1.13,1.13,0,0,1,.21.69,4.6,4.6,0,0,1,0,.61q1.05-1.59,2-1.59c.4,0,.59.1.59.29a.35.35,0,0,1-.13.27,2.19,2.19,0,0,1-.42.27,2.75,2.75,0,0,0-1.07.85,5.05,5.05,0,0,0-.72,1.29c-.18.48-.33.88-.44,1.21s-.19.58-.24.77-.12.36-.19.54-.28.48-.45.48a.39.39,0,0,1-.33-.24,1,1,0,0,1-.12-.45,3.52,3.52,0,0,1,.2-.88A9.43,9.43,0,0,0,192.31,293.66Z" fill="#231f20"/>
      <path d="M205.51,288.83q.19,0,.48.36a1.11,1.11,0,0,1,.28.66,13.69,13.69,0,0,1-.3,1.77c-.2,1-.43,2-.7,3-.57,2.34-1,3.5-1.14,3.5a.74.74,0,0,1-.56-.57,3.81,3.81,0,0,1,.08-.63,3.2,3.2,0,0,1-2.05,1.2,1.28,1.28,0,0,1-1-.48,1.5,1.5,0,0,1-.42-1,4.9,4.9,0,0,1,.4-1.77,6.16,6.16,0,0,1,1.16-1.87,2.17,2.17,0,0,1,1.61-.84c.56,0,1,.34,1.19,1a22.67,22.67,0,0,0,.67-4C205.25,289,205.33,288.83,205.51,288.83Zm-1.32,5.89a2.41,2.41,0,0,0-.22-1.09c-.15-.29-.33-.44-.54-.44a1.47,1.47,0,0,0-1.05.63,5.07,5.07,0,0,0-.86,1.46,4.1,4.1,0,0,0-.32,1.42.42.42,0,0,0,.16.35.54.54,0,0,0,.37.13,2.31,2.31,0,0,0,1.27-.67,4.06,4.06,0,0,0,1.16-1.58l0-.15Z" fill="#231f20"/>
      <path d="M210.55,292.74a1.58,1.58,0,0,1,.46,1,1.66,1.66,0,0,1-.3.9.56.56,0,0,1,.14.31,7.42,7.42,0,0,1-.15,1.15c-.1.54-.16.9-.18,1.07s0,.3-.05.4l-.06.29c0,.2-.11.3-.22.3s-.26-.12-.35-.37a3.2,3.2,0,0,1-.17-1c-.71.9-1.37,1.35-2,1.35a1.61,1.61,0,0,1-1.09-.47,1.32,1.32,0,0,1-.53-1,4.2,4.2,0,0,1,.52-1.78A6.93,6.93,0,0,1,208,293a2.38,2.38,0,0,1,1.59-.83A1.29,1.29,0,0,1,210.55,292.74Zm-.44,1.56q0-1.11-.45-1.11a1.7,1.7,0,0,0-1.09.66,6.68,6.68,0,0,0-1,1.51,3.17,3.17,0,0,0-.44,1.33.39.39,0,0,0,.17.33.6.6,0,0,0,.4.13,2,2,0,0,0,1.27-.76,4.17,4.17,0,0,0,1-1.86.24.24,0,0,1,.21-.21Z" fill="#231f20"/>
      <path d="M216.68,292.19a.62.62,0,0,1,.42.28,1,1,0,0,1,.22.63,8.87,8.87,0,0,1-.49,1.64c-.33.92-.55,1.55-.67,1.89s-.27.77-.47,1.32-.38,1.08-.57,1.6q-.6,1.71-1.8,1.71a2.27,2.27,0,0,1-1.3-.41c-.42-.28-.63-.56-.63-.86a.66.66,0,0,1,.15-.37c.1-.14.19-.2.26-.2s.19.08.35.26c.46.53.86.79,1.18.79s.48-.22.68-.65a14.39,14.39,0,0,0,.57-1.48l.3-.9.07-.22c0-.09.05-.17.08-.24-.57.78-1.13,1.16-1.68,1.16a1.23,1.23,0,0,1-.93-.46,1.58,1.58,0,0,1-.43-1.11,6.47,6.47,0,0,1,.31-1.71A9.45,9.45,0,0,1,213,293c.28-.52.5-.79.68-.79a.55.55,0,0,1,.4.2.62.62,0,0,1,.19.4,2.7,2.7,0,0,1-.32.85,7.93,7.93,0,0,0-1,3.1.45.45,0,0,0,.12.32.4.4,0,0,0,.29.12c.29,0,.63-.25,1-.76a10.2,10.2,0,0,0,1.11-1.83,19.65,19.65,0,0,0,.87-2.27A.23.23,0,0,1,216.68,292.19Z" fill="#231f20"/>
    </g>
    <rect x="14.33" y="173.91" width="231.43" height="45" fill="#029ab3"/>
    <line x1="14.33" y1="183.51" x2="245.76" y2="183.51" fill="none" stroke="#029ab3" stroke-miterlimit="10"/>
    <line x1="126.18" y1="219.64" x2="126.18" y2="330.31" fill="none" stroke="#029ab3" stroke-miterlimit="10" stroke-width="1.33"/>
    <line x1="126.18" y1="175.46" x2="126.18" y2="215.55" fill="none" stroke="#fff" stroke-miterlimit="10" stroke-width="1.22"/>
    <g>
      <path d="M46.82,192.32H45v-7H42.68v-1.51h6.47v1.51H46.82Z" fill="#fff"/>
      <path d="M53.29,192.44a3.38,3.38,0,0,1-2.47-.87,3.34,3.34,0,0,1-.89-2.48,3.63,3.63,0,0,1,.82-2.54,2.94,2.94,0,0,1,2.28-.9,2.87,2.87,0,0,1,2.16.79,3,3,0,0,1,.77,2.18v.87H51.74a1.72,1.72,0,0,0,.45,1.19,1.57,1.57,0,0,0,1.18.43,5,5,0,0,0,1.12-.12,6.23,6.23,0,0,0,1.11-.4V192a4.29,4.29,0,0,1-1,.34A6,6,0,0,1,53.29,192.44ZM53,186.92a1.14,1.14,0,0,0-.89.36,1.69,1.69,0,0,0-.37,1h2.51a1.46,1.46,0,0,0-.35-1A1.16,1.16,0,0,0,53,186.92Z" fill="#fff"/>
      <path d="M61.58,192.32l-.35-.89h0a2.74,2.74,0,0,1-.93.79,3,3,0,0,1-1.25.22,2,2,0,0,1-1.48-.54,2,2,0,0,1-.55-1.53,1.74,1.74,0,0,1,.73-1.54,4.19,4.19,0,0,1,2.2-.55l1.14,0V188a.89.89,0,0,0-1-1,4.57,4.57,0,0,0-1.84.48l-.6-1.21a5.28,5.28,0,0,1,2.51-.59,3.14,3.14,0,0,1,2,.57,2.13,2.13,0,0,1,.71,1.75v4.36Zm-.53-3-.69,0a2.26,2.26,0,0,0-1.16.28.9.9,0,0,0-.38.79q0,.75.87.75a1.41,1.41,0,0,0,1-.35,1.26,1.26,0,0,0,.37-.95Z" fill="#fff"/>
      <path d="M67.33,192.44q-3.06,0-3.06-3.36a3.56,3.56,0,0,1,.83-2.55,3.1,3.1,0,0,1,2.38-.88,4.63,4.63,0,0,1,2,.44L69,187.48a7.68,7.68,0,0,0-.79-.28,2.58,2.58,0,0,0-.73-.11c-.93,0-1.39.66-1.39,2s.46,1.92,1.39,1.92a2.93,2.93,0,0,0,1-.14,3.25,3.25,0,0,0,.88-.43V192a2.7,2.7,0,0,1-.88.38A4.82,4.82,0,0,1,67.33,192.44Z" fill="#fff"/>
      <path d="M76.88,192.32H75.1V188.5c0-.95-.36-1.42-1.06-1.42a1.19,1.19,0,0,0-1.08.51,3,3,0,0,0-.34,1.65v3.08H70.84V183.2h1.78v1.86c0,.15,0,.49,0,1l0,.53h.09a2.08,2.08,0,0,1,1.9-1,2.36,2.36,0,0,1,1.76.62,2.5,2.5,0,0,1,.59,1.78Z" fill="#fff"/>
      <path d="M81.69,192.44a3.41,3.41,0,0,1-2.48-.87,3.34,3.34,0,0,1-.89-2.48,3.63,3.63,0,0,1,.83-2.54,3.34,3.34,0,0,1,4.44-.11,3,3,0,0,1,.77,2.18v.87H80.13a1.68,1.68,0,0,0,.46,1.19,1.56,1.56,0,0,0,1.18.43,5.06,5.06,0,0,0,1.12-.12,6.15,6.15,0,0,0,1.1-.4V192a4.21,4.21,0,0,1-1,.34A6.06,6.06,0,0,1,81.69,192.44Zm-.25-5.52a1.16,1.16,0,0,0-.9.36,1.68,1.68,0,0,0-.36,1h2.5a1.46,1.46,0,0,0-.34-1A1.18,1.18,0,0,0,81.44,186.92Z" fill="#fff"/>
      <path d="M89.47,185.65a3.28,3.28,0,0,1,.6,0l-.13,1.68a2,2,0,0,0-.53-.06,1.86,1.86,0,0,0-1.33.44A1.58,1.58,0,0,0,87.6,189v3.33H85.81v-6.55h1.36l.26,1.1h.09a2.39,2.39,0,0,1,.82-.88A2,2,0,0,1,89.47,185.65Z" fill="#fff"/>
      <path d="M95.83,190.38a1.79,1.79,0,0,1-.7,1.53,3.46,3.46,0,0,1-2.09.53,6.06,6.06,0,0,1-1.22-.1,4.76,4.76,0,0,1-.95-.28v-1.48A5.76,5.76,0,0,0,92,191a4.29,4.29,0,0,0,1.1.16c.64,0,1-.18,1-.56a.45.45,0,0,0-.13-.34,1.92,1.92,0,0,0-.45-.3q-.31-.17-.84-.39a5.42,5.42,0,0,1-1.11-.59,1.6,1.6,0,0,1-.52-.62,2.11,2.11,0,0,1-.16-.85,1.54,1.54,0,0,1,.68-1.35,3.28,3.28,0,0,1,1.92-.48,5.46,5.46,0,0,1,2.3.51l-.54,1.29a9.7,9.7,0,0,0-.92-.34,2.83,2.83,0,0,0-.87-.14c-.53,0-.79.15-.79.43a.51.51,0,0,0,.25.42,8,8,0,0,0,1.12.52,4.69,4.69,0,0,1,1.12.58,1.63,1.63,0,0,1,.53.62A1.8,1.8,0,0,1,95.83,190.38Z" fill="#fff"/>
      <path d="M46.92,206.32v-8.56h1.82v7.06h3.47v1.5Z" fill="#fff"/>
      <path d="M56.53,206.44a3.41,3.41,0,0,1-2.48-.87,3.34,3.34,0,0,1-.89-2.48,3.63,3.63,0,0,1,.83-2.54,3.34,3.34,0,0,1,4.44-.11,3,3,0,0,1,.77,2.18v.87H55a1.68,1.68,0,0,0,.46,1.19,1.56,1.56,0,0,0,1.18.43,5.06,5.06,0,0,0,1.12-.12,6.15,6.15,0,0,0,1.1-.4V206a4.21,4.21,0,0,1-1,.34A6.06,6.06,0,0,1,56.53,206.44Zm-.25-5.52a1.16,1.16,0,0,0-.9.36,1.68,1.68,0,0,0-.36,1h2.5a1.46,1.46,0,0,0-.34-1A1.19,1.19,0,0,0,56.28,200.92Z" fill="#fff"/>
      <path d="M64.81,206.32l-.34-.89h0a2.65,2.65,0,0,1-.93.79,2.93,2.93,0,0,1-1.24.22,2,2,0,0,1-1.49-.54,2.07,2.07,0,0,1-.54-1.53,1.72,1.72,0,0,1,.73-1.54,4.16,4.16,0,0,1,2.2-.55l1.14,0V202a.89.89,0,0,0-1-1,4.61,4.61,0,0,0-1.85.48l-.59-1.21a5.25,5.25,0,0,1,2.51-.59,3.16,3.16,0,0,1,2,.57,2.12,2.12,0,0,1,.7,1.75v4.36Zm-.52-3-.7,0a2.29,2.29,0,0,0-1.16.28.9.9,0,0,0-.38.79q0,.75.87.75a1.41,1.41,0,0,0,1-.35,1.27,1.27,0,0,0,.38-.95Z" fill="#fff"/>
      <path d="M70,206.44a2.12,2.12,0,0,1-1.81-.9,4.08,4.08,0,0,1-.66-2.48,4.16,4.16,0,0,1,.67-2.51,2.19,2.19,0,0,1,1.85-.9,2.14,2.14,0,0,1,1.89,1H72a7.32,7.32,0,0,1-.14-1.31v-2.1h1.79v9.12H72.25l-.34-.85h-.08A2,2,0,0,1,70,206.44ZM70.6,205a1.25,1.25,0,0,0,1-.4,2.3,2.3,0,0,0,.34-1.36v-.19a2.65,2.65,0,0,0-.32-1.51,1.2,1.2,0,0,0-1.06-.46,1,1,0,0,0-.93.51,2.71,2.71,0,0,0-.33,1.47,2.48,2.48,0,0,0,.34,1.45A1.09,1.09,0,0,0,70.6,205Z" fill="#fff"/>
      <path d="M75.42,198.08c0-.58.32-.88,1-.88s1,.3,1,.88a.87.87,0,0,1-.24.65,1,1,0,0,1-.73.23C75.74,199,75.42,198.66,75.42,198.08Zm1.86,8.24H75.49v-6.55h1.79Z" fill="#fff"/>
      <path d="M85.2,206.32H83.42V202.5a1.83,1.83,0,0,0-.26-1.07.91.91,0,0,0-.8-.35,1.18,1.18,0,0,0-1.08.5,3,3,0,0,0-.34,1.66v3.08H79.16v-6.55h1.36l.24.84h.1a1.85,1.85,0,0,1,.82-.72,2.86,2.86,0,0,1,1.2-.24,2.25,2.25,0,0,1,1.73.62,2.44,2.44,0,0,1,.59,1.78Z" fill="#fff"/>
      <path d="M92.74,199.77v.91l-1,.26a1.79,1.79,0,0,1,.28,1,2,2,0,0,1-.74,1.64,3.2,3.2,0,0,1-2,.59l-.32,0-.26,0a.59.59,0,0,0-.28.47q0,.39,1,.39h1.11a2.51,2.51,0,0,1,1.64.46,1.65,1.65,0,0,1,.57,1.36,2,2,0,0,1-1,1.78,5,5,0,0,1-2.75.63,3.82,3.82,0,0,1-2.1-.47,1.53,1.53,0,0,1-.72-1.34,1.37,1.37,0,0,1,.37-1,2.07,2.07,0,0,1,1.08-.57,1.33,1.33,0,0,1-.48-.38,1,1,0,0,1-.2-.57.91.91,0,0,1,.21-.62,2.6,2.6,0,0,1,.63-.49,1.84,1.84,0,0,1-.82-.72,2.18,2.18,0,0,1-.3-1.16,2.07,2.07,0,0,1,.7-1.66,3,3,0,0,1,2-.58,4.2,4.2,0,0,1,.66,0l.48.07Zm-5,7.48a.66.66,0,0,0,.35.58,2,2,0,0,0,1,.21,3.58,3.58,0,0,0,1.5-.26.82.82,0,0,0,.55-.73.52.52,0,0,0-.33-.51,2.66,2.66,0,0,0-1-.14h-.93a1.35,1.35,0,0,0-.82.24A.7.7,0,0,0,87.69,207.25Zm.65-5.33a1.35,1.35,0,0,0,.24.84.87.87,0,0,0,.74.31.86.86,0,0,0,.74-.31,1.35,1.35,0,0,0,.23-.84c0-.79-.32-1.19-1-1.19S88.34,201.13,88.34,201.92Z" fill="#fff"/>
    </g>
    <g>
      <path d="M162,200.4H160.2v-8.57h4.91v1.49H162v2.21h2.9V197H162Z" fill="#fff"/>
      <path d="M170.3,193.73a2.58,2.58,0,0,1,.6.05l-.13,1.67a2,2,0,0,0-.53,0,1.9,1.9,0,0,0-1.33.43,1.61,1.61,0,0,0-.48,1.24v3.33h-1.79v-6.55H168l.26,1.1h.09a2.5,2.5,0,0,1,.82-.89A2.07,2.07,0,0,1,170.3,193.73Z" fill="#fff"/>
      <path d="M175.06,200.52a3.33,3.33,0,0,1-2.47-.88,3.27,3.27,0,0,1-.89-2.47,3.64,3.64,0,0,1,.82-2.55,3,3,0,0,1,2.28-.89,2.89,2.89,0,0,1,2.16.79,3,3,0,0,1,.77,2.18v.87h-4.22a1.73,1.73,0,0,0,.45,1.19,1.59,1.59,0,0,0,1.18.43,4.47,4.47,0,0,0,1.12-.13,5.4,5.4,0,0,0,1.1-.39v1.38a3.71,3.71,0,0,1-1,.35A6.06,6.06,0,0,1,175.06,200.52Zm-.25-5.52a1.12,1.12,0,0,0-.89.36,1.63,1.63,0,0,0-.37,1h2.51a1.51,1.51,0,0,0-.35-1A1.16,1.16,0,0,0,174.81,195Z" fill="#fff"/>
      <path d="M182.15,200.52a3.33,3.33,0,0,1-2.47-.88,3.27,3.27,0,0,1-.89-2.47,3.64,3.64,0,0,1,.82-2.55,3,3,0,0,1,2.28-.89,2.89,2.89,0,0,1,2.16.79,3,3,0,0,1,.77,2.18v.87H180.6a1.73,1.73,0,0,0,.45,1.19,1.59,1.59,0,0,0,1.18.43,4.47,4.47,0,0,0,1.12-.13,5.4,5.4,0,0,0,1.1-.39v1.38a3.71,3.71,0,0,1-1,.35A6.06,6.06,0,0,1,182.15,200.52ZM181.9,195a1.12,1.12,0,0,0-.89.36,1.63,1.63,0,0,0-.37,1h2.5a1.46,1.46,0,0,0-.34-1A1.16,1.16,0,0,0,181.9,195Z" fill="#fff"/>
      <path d="M195.45,194.5a2.64,2.64,0,0,1-.86,2.12,3.7,3.7,0,0,1-2.46.73h-.78v3.05h-1.82v-8.57h2.74a3.68,3.68,0,0,1,2.37.67A2.46,2.46,0,0,1,195.45,194.5Zm-4.1,1.36h.6a2,2,0,0,0,1.25-.33,1.15,1.15,0,0,0,.42-1,1.18,1.18,0,0,0-.35-.94,1.62,1.62,0,0,0-1.1-.31h-.82Z" fill="#fff"/>
      <path d="M198.71,200.4h-1.78v-9.12h1.78Z" fill="#fff"/>
      <path d="M204.75,200.4l-.35-.89h0a2.65,2.65,0,0,1-.93.79,3.15,3.15,0,0,1-1.25.22,2,2,0,0,1-1.48-.54,2.08,2.08,0,0,1-.55-1.54,1.75,1.75,0,0,1,.73-1.54,4.2,4.2,0,0,1,2.2-.54l1.14,0V196a.89.89,0,0,0-1-1,4.7,4.7,0,0,0-1.84.47l-.6-1.2a5.29,5.29,0,0,1,2.51-.6,3.14,3.14,0,0,1,2,.58A2.11,2.11,0,0,1,206,196v4.37Zm-.53-3-.69,0a2.17,2.17,0,0,0-1.16.28.88.88,0,0,0-.38.78c0,.51.29.76.87.76a1.37,1.37,0,0,0,1-.36,1.24,1.24,0,0,0,.37-.95Z" fill="#fff"/>
      <path d="M206.9,193.85h2l1.23,3.68a4.91,4.91,0,0,1,.22,1.14h0a5.26,5.26,0,0,1,.26-1.14l1.21-3.68h1.91L211,201.24a3.17,3.17,0,0,1-1.08,1.53,2.74,2.74,0,0,1-1.65.51,4,4,0,0,1-.91-.1v-1.42a2.59,2.59,0,0,0,.7.08,1.29,1.29,0,0,0,.83-.29,1.78,1.78,0,0,0,.55-.88l.11-.32Z" fill="#fff"/>
    </g>
  </g>
</svg>
